<?xml version="1.0" encoding="UTF-8" standalone="no"?>
<!-- Created with Inkscape (http://www.inkscape.org/) -->

<svg
   width="84mm"
   height="84mm"
   viewBox="0 0 120 120"
   version="1.1"
   id="svg5"
   xmlns:xlink="http://www.w3.org/1999/xlink"
   xmlns="http://www.w3.org/2000/svg"
   xmlns:svg="http://www.w3.org/2000/svg">
  <defs
     id="defs2">
    <linearGradient
       id="linearGradient1812">
      <stop
         style="stop-color:#d40000;stop-opacity:1;"
         offset="0"
         id="stop1808" />
      <stop
         style="stop-color:#d45500;stop-opacity:1"
         offset="1"
         id="stop1810" />
    </linearGradient>
    <linearGradient
       id="linearGradient1804">
      <stop
         style="stop-color:#800000;stop-opacity:1;"
         offset="0"
         id="stop1800" />
      <stop
         style="stop-color:#803c3c;stop-opacity:0;"
         offset="0.97000003"
         id="stop1802" />
    </linearGradient>
    <linearGradient
       id="linearGradient1270">
      <stop
         style="stop-color:#650000;stop-opacity:1;"
         offset="0"
         id="stop1266" />
      <stop
         style="stop-color:#190000;stop-opacity:1;"
         offset="1"
         id="stop1268" />
    </linearGradient>
    <linearGradient
       xlink:href="#linearGradient1270"
       id="linearGradient1272"
       x1="97.516411"
       y1="93.607178"
       x2="97.516411"
       y2="220.85931"
       gradientUnits="userSpaceOnUse" />
    <linearGradient
       xlink:href="#linearGradient1804"
       id="linearGradient1806"
       x1="73.198112"
       y1="110.74259"
       x2="145.12758"
       y2="214.3094"
       gradientUnits="userSpaceOnUse" />
    <linearGradient
       xlink:href="#linearGradient1812"
       id="linearGradient1814"
       x1="62.503677"
       y1="105.45093"
       x2="145.12758"
       y2="214.3094"
       gradientUnits="userSpaceOnUse" />
  </defs>
  <g
     id="layer1"
     transform="translate(-37.5163,-93.958287)">
    <g
       id="g1821"
       transform="matrix(0.99418192,0,0,0.99418216,0.56735719,0.89570448)">
      <circle
         style="opacity:1;fill:url(#linearGradient1272);fill-opacity:1;stroke-width:0.0649999;stop-color:#000000"
         id="path788"
         cx="97.516411"
         cy="153.95819"
         r="60.351017" />
      <path
         id="path1797"
         style="fill:url(#linearGradient1806);fill-opacity:1;stroke-width:0.0649999;stop-color:#000000"
         d="m 76.312655,210.43315 a 60.351017,60.351017 0 0 0 3.414778,1.19476 60.351017,60.351017 0 0 0 4.359424,1.1684 60.351017,60.351017 0 0 0 4.434872,0.83871 60.351017,60.351017 0 0 0 4.48448,0.5054 60.351017,60.351017 0 0 0 4.510319,0.16898 60.351017,60.351017 0 0 0 4.509802,-0.16898 60.351017,60.351017 0 0 0 4.485,-0.5054 60.351017,60.351017 0 0 0 4.43435,-0.83871 60.351017,60.351017 0 0 0 4.35943,-1.1684 60.351017,60.351017 0 0 0 4.2602,-1.49035 60.351017,60.351017 0 0 0 4.13618,-1.80506 60.351017,60.351017 0 0 0 3.99046,-2.10891 60.351017,60.351017 0 0 0 3.82147,-2.40089 60.351017,60.351017 0 0 0 3.6313,-2.67994 60.351017,60.351017 0 0 0 3.42098,-2.94401 60.351017,60.351017 0 0 0 3.19102,-3.19153 60.351017,60.351017 0 0 0 2.94401,-3.42098 60.351017,60.351017 0 0 0 0.42685,-0.57878 60.351017,60.351017 0 0 1 -2.32079,0.62219 60.351017,60.351017 0 0 1 -4.43436,0.83871 60.351017,60.351017 0 0 1 -4.485,0.50539 60.351017,60.351017 0 0 1 -4.5098,0.16898 60.351017,60.351017 0 0 1 -4.51032,-0.16898 60.351017,60.351017 0 0 1 -4.48448,-0.50539 60.351017,60.351017 0 0 1 -4.43487,-0.83871 60.351017,60.351017 0 0 1 -4.35942,-1.16841 60.351017,60.351017 0 0 1 -4.25969,-1.49035 60.351017,60.351017 0 0 1 -4.1367,-1.80505 60.351017,60.351017 0 0 1 -3.989936,-2.10892 60.351017,60.351017 0 0 1 -3.821473,-2.40089 60.351017,60.351017 0 0 1 -3.631303,-2.68045 60.351017,60.351017 0 0 1 -3.420979,-2.94349 60.351017,60.351017 0 0 1 -3.191537,-3.19154 60.351017,60.351017 0 0 1 -2.943489,-3.42098 60.351017,60.351017 0 0 1 -2.680457,-3.6313 60.351017,60.351017 0 0 1 -2.400887,-3.82147 60.351017,60.351017 0 0 1 -2.108915,-3.98994 60.351017,60.351017 0 0 1 -1.805058,-4.1367 60.351017,60.351017 0 0 1 -1.490348,-4.25969 60.351017,60.351017 0 0 1 -1.168404,-4.35942 60.351017,60.351017 0 0 1 -0.838709,-4.43487 60.351017,60.351017 0 0 1 -0.505395,-4.48448 60.351017,60.351017 0 0 1 -0.168982,-4.51032 60.351017,60.351017 0 0 1 0.168982,-4.5098 60.351017,60.351017 0 0 1 0.505395,-4.485 60.351017,60.351017 0 0 1 0.838709,-4.43436 60.351017,60.351017 0 0 1 1.168404,-4.35942 60.351017,60.351017 0 0 1 1.490348,-4.26021 60.351017,60.351017 0 0 1 0.390674,-0.89555 60.351017,60.351017 0 0 0 -25.729179,49.40267 60.351017,60.351017 0 0 0 28.453044,51.18344 z" />
      <path
         id="path1794"
         style="fill:#654600;fill-opacity:0.559209;stroke-width:0.0649999;stop-color:#000000"
         d="m 76.380351,210.45692 a 60.351017,60.351017 0 0 0 3.347082,1.17099 60.351017,60.351017 0 0 0 4.359424,1.1684 60.351017,60.351017 0 0 0 4.434872,0.83871 60.351017,60.351017 0 0 0 4.48448,0.5054 60.351017,60.351017 0 0 0 4.510319,0.16898 60.351017,60.351017 0 0 0 4.509802,-0.16898 60.351017,60.351017 0 0 0 4.485,-0.5054 60.351017,60.351017 0 0 0 4.43435,-0.83871 60.351017,60.351017 0 0 0 4.35943,-1.1684 60.351017,60.351017 0 0 0 4.2602,-1.49035 60.351017,60.351017 0 0 0 4.13618,-1.80506 60.351017,60.351017 0 0 0 3.99046,-2.10891 60.351017,60.351017 0 0 0 3.82147,-2.40089 60.351017,60.351017 0 0 0 3.6313,-2.67994 60.351017,60.351017 0 0 0 3.42098,-2.94401 60.351017,60.351017 0 0 0 3.19102,-3.19153 60.351017,60.351017 0 0 0 2.94401,-3.42098 60.351017,60.351017 0 0 0 2.67994,-3.6313 60.351017,60.351017 0 0 0 2.4014,-3.82148 60.351017,60.351017 0 0 0 2.10892,-3.98993 60.351017,60.351017 0 0 0 1.80454,-4.1367 60.351017,60.351017 0 0 0 1.49086,-4.25969 60.351017,60.351017 0 0 0 1.16789,-4.35942 60.351017,60.351017 0 0 0 0.83923,-4.43488 60.351017,60.351017 0 0 0 0.50539,-4.48448 60.351017,60.351017 0 0 0 0.16847,-4.51032 60.351017,60.351017 0 0 0 -0.0186,-1.5043 60.351017,60.351017 0 0 0 -0.0563,-1.50378 60.351017,60.351017 0 0 0 -0.0935,-1.50172 60.351017,60.351017 0 0 0 -0.13126,-1.49913 60.351017,60.351017 0 0 0 -0.16846,-1.495 60.351017,60.351017 0 0 0 -0.20567,-1.49087 60.351017,60.351017 0 0 0 -0.24288,-1.48466 60.351017,60.351017 0 0 0 -0.27957,-1.47846 60.351017,60.351017 0 0 0 -0.31678,-1.47123 60.351017,60.351017 0 0 0 -0.35295,-1.46296 60.351017,60.351017 0 0 0 -0.38964,-1.45314 60.351017,60.351017 0 0 0 -0.4253,-1.44332 60.351017,60.351017 0 0 0 -0.46147,-1.43247 60.351017,60.351017 0 0 0 -0.49712,-1.42007 60.351017,60.351017 0 0 0 -0.53227,-1.40767 60.351017,60.351017 0 0 0 -0.56689,-1.39371 60.351017,60.351017 0 0 0 -0.60203,-1.37873 60.351017,60.351017 0 0 0 -0.63562,-1.36374 60.351017,60.351017 0 0 0 -0.66973,-1.34772 60.351017,60.351017 0 0 0 -0.70332,-1.33015 60.351017,60.351017 0 0 0 -0.73587,-1.31258 60.351017,60.351017 0 0 0 -0.76894,-1.29347 60.351017,60.351017 0 0 0 -0.80047,-1.27434 60.351017,60.351017 0 0 0 -0.83199,-1.25367 60.351017,60.351017 0 0 0 -0.863,-1.23248 60.351017,60.351017 0 0 0 -0.89348,-1.21078 60.351017,60.351017 0 0 0 -0.29921,-0.38499 60.351017,60.351017 0 0 1 0.0801,0.28887 60.351017,60.351017 0 0 1 0.37672,1.50792 60.351017,60.351017 0 0 1 0.33745,1.5167 60.351017,60.351017 0 0 1 0.29817,1.52549 60.351017,60.351017 0 0 1 0.2589,1.53221 60.351017,60.351017 0 0 1 0.21911,1.53841 60.351017,60.351017 0 0 1 0.17983,1.54357 60.351017,60.351017 0 0 1 0.14004,1.54771 60.351017,60.351017 0 0 1 0.0997,1.55081 60.351017,60.351017 0 0 1 0.0599,1.55288 60.351017,60.351017 0 0 1 0.0202,1.55391 60.351017,60.351017 0 0 1 -0.16847,4.51032 60.351017,60.351017 0 0 1 -0.50539,4.48448 60.351017,60.351017 0 0 1 -0.83923,4.43487 60.351017,60.351017 0 0 1 -1.16789,4.35942 60.351017,60.351017 0 0 1 -1.49086,4.25969 60.351017,60.351017 0 0 1 -1.80454,4.1367 60.351017,60.351017 0 0 1 -2.10892,3.98994 60.351017,60.351017 0 0 1 -2.4014,3.82147 60.351017,60.351017 0 0 1 -2.67994,3.6313 60.351017,60.351017 0 0 1 -2.94401,3.42098 60.351017,60.351017 0 0 1 -3.19102,3.19154 60.351017,60.351017 0 0 1 -3.42098,2.94349 60.351017,60.351017 0 0 1 -3.6313,2.68045 60.351017,60.351017 0 0 1 -3.82147,2.40089 60.351017,60.351017 0 0 1 -3.99046,2.10892 60.351017,60.351017 0 0 1 -4.13618,1.80505 60.351017,60.351017 0 0 1 -4.2602,1.49035 60.351017,60.351017 0 0 1 -4.35943,1.16841 60.351017,60.351017 0 0 1 -4.434351,0.83871 60.351017,60.351017 0 0 1 -4.484997,0.50539 60.351017,60.351017 0 0 1 -4.509803,0.16898 60.351017,60.351017 0 0 1 -4.510319,-0.16898 60.351017,60.351017 0 0 1 -4.48448,-0.50539 60.351017,60.351017 0 0 1 -4.434872,-0.83871 60.351017,60.351017 0 0 1 -4.359424,-1.16841 60.351017,60.351017 0 0 1 -4.259688,-1.49035 60.351017,60.351017 0 0 1 -4.136698,-1.80505 60.351017,60.351017 0 0 1 -3.989938,-2.10892 60.351017,60.351017 0 0 1 -3.821472,-2.40089 60.351017,60.351017 0 0 1 -0.624768,-0.46147 60.351017,60.351017 0 0 0 23.957711,28.26236 z" />
      <path
         id="path788-6"
         style="opacity:0.563579;fill:url(#linearGradient1814);fill-opacity:1;stroke-width:0.0649999;stop-color:#000000"
         d="m 62.894352,104.55538 a 60.351017,60.351017 0 0 0 -25.729179,49.40266 60.351017,60.351017 0 0 0 60.351355,60.35136 60.351017,60.351017 0 0 0 55.787812,-37.40599 60.351017,60.351017 0 0 1 -0.62425,0.46096 60.351017,60.351017 0 0 1 -3.82148,2.40088 60.351017,60.351017 0 0 1 -3.99045,2.10892 60.351017,60.351017 0 0 1 -4.13618,1.80506 60.351017,60.351017 0 0 1 -4.26021,1.49035 60.351017,60.351017 0 0 1 -4.35942,1.1684 60.351017,60.351017 0 0 1 -4.43436,0.83871 60.351017,60.351017 0 0 1 -4.48499,0.50539 60.351017,60.351017 0 0 1 -4.50981,0.16899 60.351017,60.351017 0 0 1 -4.51031,-0.16899 60.351017,60.351017 0 0 1 -4.48448,-0.50539 60.351017,60.351017 0 0 1 -4.43488,-0.83871 60.351017,60.351017 0 0 1 -4.35942,-1.1684 60.351017,60.351017 0 0 1 -4.259688,-1.49035 60.351017,60.351017 0 0 1 -4.136699,-1.80506 60.351017,60.351017 0 0 1 -3.989937,-2.10892 60.351017,60.351017 0 0 1 -3.821472,-2.40088 60.351017,60.351017 0 0 1 -3.631303,-2.68046 60.351017,60.351017 0 0 1 -3.42098,-2.94349 60.351017,60.351017 0 0 1 -3.191536,-3.19153 60.351017,60.351017 0 0 1 -2.94349,-3.42098 60.351017,60.351017 0 0 1 -2.680457,-3.63131 60.351017,60.351017 0 0 1 -2.400887,-3.82147 60.351017,60.351017 0 0 1 -2.108915,-3.98994 60.351017,60.351017 0 0 1 -1.805058,-4.1367 60.351017,60.351017 0 0 1 -1.490348,-4.25968 60.351017,60.351017 0 0 1 -1.168404,-4.35943 60.351017,60.351017 0 0 1 -0.838709,-4.43487 60.351017,60.351017 0 0 1 -0.505395,-4.48448 60.351017,60.351017 0 0 1 -0.168982,-4.51032 60.351017,60.351017 0 0 1 0.168982,-4.5098 60.351017,60.351017 0 0 1 0.505395,-4.485 60.351017,60.351017 0 0 1 0.838709,-4.43435 60.351017,60.351017 0 0 1 1.168404,-4.35943 60.351017,60.351017 0 0 1 1.490348,-4.2602 60.351017,60.351017 0 0 1 0.390674,-0.89555 z" />
      <path
         id="path788-0"
         style="opacity:0.563579;fill:#d40000;fill-opacity:0.5116;stroke-width:0.0649999;stop-color:#000000"
         d="m 41.728202,176.9029 a 60.351017,60.351017 0 0 0 55.788326,37.4065 60.351017,60.351017 0 0 0 60.350842,-60.35136 60.351017,60.351017 0 0 0 -25.70438,-49.41042 60.351017,60.351017 0 0 1 0.0915,0.21653 60.351017,60.351017 0 0 1 0.56689,1.44694 60.351017,60.351017 0 0 1 0.52917,1.46089 60.351017,60.351017 0 0 1 0.49196,1.47433 60.351017,60.351017 0 0 1 0.4532,1.48621 60.351017,60.351017 0 0 1 0.41496,1.49759 60.351017,60.351017 0 0 1 0.37672,1.50791 60.351017,60.351017 0 0 1 0.33745,1.51671 60.351017,60.351017 0 0 1 0.29817,1.52549 60.351017,60.351017 0 0 1 0.2589,1.5322 60.351017,60.351017 0 0 1 0.21911,1.53841 60.351017,60.351017 0 0 1 0.17983,1.54358 60.351017,60.351017 0 0 1 0.14005,1.5477 60.351017,60.351017 0 0 1 0.0997,1.55081 60.351017,60.351017 0 0 1 0.06,1.55288 60.351017,60.351017 0 0 1 0.0202,1.55391 60.351017,60.351017 0 0 1 -0.16847,4.51032 60.351017,60.351017 0 0 1 -0.50539,4.48448 60.351017,60.351017 0 0 1 -0.83923,4.43487 60.351017,60.351017 0 0 1 -1.16788,4.35943 60.351017,60.351017 0 0 1 -1.49087,4.25968 60.351017,60.351017 0 0 1 -1.80454,4.1367 60.351017,60.351017 0 0 1 -2.10891,3.98994 60.351017,60.351017 0 0 1 -2.40141,3.82147 60.351017,60.351017 0 0 1 -2.67994,3.63131 60.351017,60.351017 0 0 1 -2.944,3.42098 60.351017,60.351017 0 0 1 -3.19102,3.19153 60.351017,60.351017 0 0 1 -3.42098,2.94349 60.351017,60.351017 0 0 1 -3.63131,2.68046 60.351017,60.351017 0 0 1 -3.82147,2.40088 60.351017,60.351017 0 0 1 -3.99045,2.10892 60.351017,60.351017 0 0 1 -4.136185,1.80506 60.351017,60.351017 0 0 1 -4.260205,1.49035 60.351017,60.351017 0 0 1 -4.359424,1.1684 60.351017,60.351017 0 0 1 -4.434355,0.83871 60.351017,60.351017 0 0 1 -4.484997,0.50539 60.351017,60.351017 0 0 1 -4.509802,0.16899 60.351017,60.351017 0 0 1 -4.510319,-0.16899 60.351017,60.351017 0 0 1 -4.484481,-0.50539 60.351017,60.351017 0 0 1 -4.434872,-0.83871 60.351017,60.351017 0 0 1 -4.359423,-1.1684 60.351017,60.351017 0 0 1 -4.259689,-1.49035 60.351017,60.351017 0 0 1 -4.136698,-1.80506 60.351017,60.351017 0 0 1 -3.989937,-2.10892 60.351017,60.351017 0 0 1 -3.821473,-2.40088 60.351017,60.351017 0 0 1 -0.624768,-0.46147 z" />
    </g>
  </g>
</svg>
