<?xml version="1.0" encoding="UTF-8" standalone="no"?>
<!-- Created with Inkscape (http://www.inkscape.org/) -->

<svg
   width="120mm"
   height="120mm"
   viewBox="0 0 120 120"
   version="1.1"
   id="svg5"
   inkscape:version="1.1 (c68e22c387, 2021-05-23)"
   sodipodi:docname="logo.svg"
   xmlns:inkscape="http://www.inkscape.org/namespaces/inkscape"
   xmlns:sodipodi="http://sodipodi.sourceforge.net/DTD/sodipodi-0.dtd"
   xmlns:xlink="http://www.w3.org/1999/xlink"
   xmlns="http://www.w3.org/2000/svg"
   xmlns:svg="http://www.w3.org/2000/svg">
  <sodipodi:namedview
     id="namedview7"
     pagecolor="#ffffff"
     bordercolor="#111111"
     borderopacity="1"
     inkscape:pageshadow="0"
     inkscape:pageopacity="0"
     inkscape:pagecheckerboard="1"
     inkscape:document-units="mm"
     showgrid="false"
     fit-margin-top="0"
     fit-margin-left="0"
     fit-margin-right="0"
     fit-margin-bottom="0"
     inkscape:zoom="0.80256199"
     inkscape:cx="332.06158"
     inkscape:cy="222.41273"
     inkscape:window-width="4500"
     inkscape:window-height="2980"
     inkscape:window-x="0"
     inkscape:window-y="20"
     inkscape:window-maximized="1"
     inkscape:current-layer="layer1">
    <inkscape:grid
       type="xygrid"
       id="grid1390"
       dotted="true"
       originx="-34.99987"
       originy="-65.000456" />
  </sodipodi:namedview>
  <defs
     id="defs2">
    <linearGradient
       inkscape:collect="always"
       id="linearGradient5385">
      <stop
         style="stop-color:#2b0000;stop-opacity:1;"
         offset="0"
         id="stop5381" />
      <stop
         style="stop-color:#000046;stop-opacity:1"
         offset="1"
         id="stop5383" />
    </linearGradient>
    <linearGradient
       inkscape:collect="always"
       id="linearGradient4467">
      <stop
         style="stop-color:#e8cb00;stop-opacity:1"
         offset="0"
         id="stop4463" />
      <stop
         style="stop-color:#f2f2f2;stop-opacity:0.00423132"
         offset="1"
         id="stop4465" />
    </linearGradient>
    <linearGradient
       inkscape:collect="always"
       id="linearGradient2665">
      <stop
         style="stop-color:#e87000;stop-opacity:1"
         offset="0"
         id="stop2661" />
      <stop
         style="stop-color:#f2f2f2;stop-opacity:1"
         offset="1"
         id="stop2663" />
    </linearGradient>
    <linearGradient
       inkscape:collect="always"
       xlink:href="#linearGradient2665"
       id="linearGradient2659"
       x1="383.15204"
       y1="441.39032"
       x2="333.10141"
       y2="555.77844"
       gradientUnits="userSpaceOnUse"
       gradientTransform="matrix(0.26456876,0.00277703,-0.00277703,0.26456876,1.3172161,-0.99021963)" />
    <linearGradient
       inkscape:collect="always"
       xlink:href="#linearGradient4467"
       id="linearGradient4302"
       gradientUnits="userSpaceOnUse"
       x1="334.69635"
       y1="426.54926"
       x2="333.10141"
       y2="555.77844"
       gradientTransform="matrix(0.26456876,0.00277703,-0.00277703,0.26456876,1.3172407,-0.99021937)" />
    <linearGradient
       inkscape:collect="always"
       xlink:href="#linearGradient2665"
       id="linearGradient4936"
       gradientUnits="userSpaceOnUse"
       x1="383.15204"
       y1="441.39032"
       x2="333.10141"
       y2="555.77844"
       gradientTransform="matrix(0.25378392,-0.07482018,0.07482018,0.25378392,-31.470819,31.966593)" />
    <linearGradient
       inkscape:collect="always"
       xlink:href="#linearGradient4467"
       id="linearGradient4938"
       gradientUnits="userSpaceOnUse"
       gradientTransform="matrix(0.25378392,-0.07482018,0.07482018,0.25378392,-31.470796,31.966586)"
       x1="334.69635"
       y1="426.54926"
       x2="333.10141"
       y2="555.77844" />
    <radialGradient
       inkscape:collect="always"
       xlink:href="#linearGradient5385"
       id="radialGradient5379"
       cx="62.196468"
       cy="111.19728"
       fx="62.196468"
       fy="111.19728"
       r="34.390446"
       gradientTransform="matrix(1.9566112,0.58891071,-0.35594278,1.182593,-19.917888,-54.897997)"
       gradientUnits="userSpaceOnUse" />
  </defs>
  <g
     inkscape:label="Layer 1"
     inkscape:groupmode="layer"
     id="layer1"
     transform="translate(-34.99987,-65.000455)">
    <g
       id="g5619"
       transform="matrix(1.7142897,0,0,1.7142824,-67.857428,-89.285628)">
      <path
         id="path2171-6"
         style="vector-effect:non-scaling-stroke;fill:url(#linearGradient2659);fill-opacity:1;stroke:none;stroke-width:0.000529169;stroke-miterlimit:4;stroke-dasharray:0.00010583, 0.000423331;stroke-dashoffset:0;stroke-opacity:1;-inkscape-stroke:hairline;stop-color:#000000"
         d="m 119.73282,149.64201 c -5.4e-4,-0.0247 2.8e-4,-0.0503 -2.8e-4,-0.0749 -0.005,-0.22839 -0.0134,-0.45374 -0.0255,-0.67624 -0.0121,-0.22249 -0.0276,-0.44217 -0.0468,-0.65888 -0.0192,-0.21671 -0.042,-0.43053 -0.0682,-0.64154 -0.0262,-0.21101 -0.0555,-0.41929 -0.0885,-0.6247 -0.033,-0.20541 -0.0696,-0.40796 -0.10938,-0.60786 -0.0398,-0.1999 -0.0833,-0.39705 -0.12971,-0.59154 -0.0464,-0.19448 -0.096,-0.38656 -0.14899,-0.57572 -0.053,-0.18917 -0.10893,-0.37545 -0.16829,-0.55939 -0.0594,-0.18394 -0.12192,-0.36527 -0.18757,-0.54408 -0.0657,-0.17881 -0.13451,-0.35501 -0.20633,-0.52878 -0.0718,-0.17377 -0.1467,-0.34515 -0.22458,-0.51398 -0.0779,-0.16883 -0.15848,-0.3352 -0.24231,-0.49918 -0.0838,-0.16398 -0.17088,-0.32568 -0.26054,-0.4849 -0.0896,-0.15922 -0.18237,-0.31606 -0.27774,-0.47062 -0.0954,-0.15456 -0.19346,-0.30684 -0.29443,-0.45683 -0.10097,-0.14999 -0.20466,-0.29754 -0.31111,-0.44306 -0.10646,-0.14552 -0.21544,-0.28916 -0.32727,-0.4303 -0.11182,-0.14115 -0.22635,-0.27967 -0.34343,-0.41653 -0.11707,-0.13685 -0.23685,-0.27161 -0.35906,-0.40428 -0.12221,-0.13267 -0.24694,-0.26347 -0.37417,-0.39204 -0.12724,-0.12857 -0.25716,-0.25522 -0.3893,-0.37979 -0.13214,-0.12457 -0.26644,-0.24688 -0.40337,-0.36754 -0.13693,-0.12066 -0.27636,-0.23947 -0.41797,-0.35633 -0.1416,-0.11684 -0.28535,-0.23196 -0.43151,-0.34509 -0.14617,-0.11313 -0.29447,-0.22437 -0.44507,-0.33387 -0.15061,-0.1095 -0.30369,-0.21718 -0.45862,-0.32316 -0.15494,-0.10597 -0.31199,-0.21042 -0.47114,-0.31295 -0.15915,-0.10254 -0.3204,-0.20304 -0.48364,-0.30223 -0.16325,-0.0992 -0.3284,-0.19712 -0.49563,-0.29306 -0.16723,-0.096 -0.33653,-0.19005 -0.50762,-0.28285 -0.1711,-0.0928 -0.34424,-0.18393 -0.51909,-0.27366 -0.17485,-0.0897 -0.35155,-0.17823 -0.53003,-0.26499 -0.17849,-0.0868 -0.35846,-0.17191 -0.54047,-0.2558 -0.182,-0.0839 -0.36599,-0.16654 -0.5514,-0.24765 -0.18541,-0.0811 -0.37209,-0.16053 -0.5608,-0.23896 -0.1887,-0.0784 -0.37933,-0.15599 -0.5712,-0.23183 -0.19188,-0.0759 -0.38515,-0.15032 -0.58008,-0.22366 -0.19494,-0.0733 -0.39158,-0.14558 -0.58946,-0.21653 -0.19788,-0.0709 -0.39709,-0.14073 -0.59779,-0.20937 -0.40142,-0.13728 -0.80859,-0.26973 -1.22062,-0.39834 -0.41204,-0.12861 -0.82912,-0.25315 -1.25085,-0.37385 -0.42173,-0.1207 -0.84797,-0.23785 -1.27848,-0.3514 -0.4305,-0.11355 -0.86514,-0.22333 -1.30349,-0.33048 -0.43836,-0.10714 -0.88011,-0.21164 -1.325393,-0.31313 -0.44528,-0.1015 -0.893915,-0.20021 -1.345197,-0.29681 -0.451281,-0.0966 -0.905512,-0.19108 -1.361875,-0.28354 -0.456361,-0.0925 -0.914916,-0.18274 -1.375432,-0.2718 -0.921032,-0.17814 -1.849496,-0.35054 -2.781609,-0.51964 -0.932115,-0.16909 -1.867699,-0.33517 -2.803509,-0.50125 -0.935806,-0.16608 -1.871909,-0.33217 -2.804022,-0.50127 -0.932115,-0.16909 -1.860582,-0.34098 -2.781616,-0.51912 -0.460516,-0.0891 -0.919067,-0.17985 -1.375427,-0.27231 -0.456361,-0.0925 -0.910599,-0.18643 -1.361881,-0.28303 -0.451279,-0.0966 -0.899395,-0.19582 -1.344672,-0.29731 -0.44528,-0.1015 -0.887559,-0.20548 -1.32591,-0.31263 -0.438354,-0.10715 -0.872992,-0.21744 -1.303497,-0.33099 -0.430502,-0.11355 -0.856749,-0.23018 -1.278479,-0.35089 -0.42173,-0.1207 -0.838815,-0.24523 -1.250849,-0.37385 -0.412032,-0.12861 -0.819199,-0.26158 -1.220611,-0.39885 -0.200707,-0.0686 -0.399921,-0.13843 -0.597799,-0.20938 -0.197879,-0.0709 -0.394521,-0.14317 -0.589456,-0.21652 -0.194935,-0.0734 -0.388201,-0.14782 -0.580077,-0.22366 -0.191876,-0.0758 -0.381994,-0.15288 -0.570697,-0.23131 -0.1887,-0.0784 -0.3759,-0.15785 -0.561312,-0.23897 -0.18541,-0.0811 -0.369396,-0.16375 -0.551403,-0.24764 -0.182004,-0.0839 -0.361979,-0.16904 -0.540463,-0.2558 -0.178484,-0.0868 -0.355182,-0.17527 -0.530031,-0.265 -0.174849,-0.0897 -0.347993,-0.18087 -0.51909,-0.27366 -0.171096,-0.0928 -0.340385,-0.18742 -0.507617,-0.28336 -0.16723,-0.096 -0.332385,-0.19335 -0.495633,-0.29254 -0.163248,-0.0992 -0.324492,-0.20022 -0.483643,-0.30275 -0.159148,-0.10254 -0.3162,-0.20646 -0.471134,-0.31244 -0.154937,-0.10597 -0.307498,-0.21365 -0.458104,-0.32315 -0.150608,-0.10951 -0.299425,-0.22074 -0.445589,-0.33388 -0.146165,-0.11313 -0.289914,-0.22824 -0.431517,-0.34509 -0.141604,-0.11685 -0.281035,-0.23566 -0.417963,-0.35633 -0.136928,-0.12066 -0.271237,-0.24296 -0.403374,-0.36753 -0.13214,-0.12457 -0.262062,-0.25123 -0.389293,-0.3798 -0.127232,-0.12857 -0.251967,-0.25937 -0.374178,-0.39204 -0.12221,-0.13267 -0.241989,-0.26742 -0.359063,-0.40428 -0.117072,-0.13686 -0.231085,-0.27589 -0.342907,-0.41703 -0.11182,-0.14115 -0.221332,-0.28428 -0.327787,-0.4298 -0.106452,-0.14552 -0.21014,-0.29306 -0.31111,-0.44305 -0.100968,-0.15 -0.199054,-0.30228 -0.294426,-0.45684 -0.09537,-0.15456 -0.188088,-0.31139 -0.277746,-0.47061 -0.08966,-0.15922 -0.176198,-0.32092 -0.260026,-0.4849 -0.08383,-0.16398 -0.164936,-0.33036 -0.242821,-0.49919 -0.07788,-0.16882 -0.152754,-0.34021 -0.224578,-0.51398 -0.04298,-0.104 -0.08251,-0.21074 -0.12329,-0.31653 a 34.999999,34.999999 0 0 0 -1.217016,8.61301 34.999999,34.999999 0 0 0 34.63065,35.36536 34.999999,34.999999 0 0 0 25.100282,-10.35612 z" />
      <path
         id="path2171-6-1"
         style="vector-effect:non-scaling-stroke;fill:url(#linearGradient4302);fill-opacity:1;stroke:none;stroke-width:0.000529169;stroke-miterlimit:4;stroke-dasharray:0.00010583, 0.000423331;stroke-dashoffset:0;stroke-opacity:1;-inkscape-stroke:hairline;stop-color:#000000"
         d="m 119.73284,149.64201 c -5.4e-4,-0.0247 2.8e-4,-0.0503 -2.1e-4,-0.0749 -0.005,-0.22838 -0.0133,-0.45373 -0.0255,-0.67623 -0.0121,-0.2225 -0.0277,-0.44218 -0.0468,-0.65889 -0.0192,-0.2167 -0.042,-0.43052 -0.0682,-0.64153 -0.0262,-0.21102 -0.0555,-0.41929 -0.0885,-0.6247 -0.033,-0.20541 -0.0696,-0.40797 -0.10937,-0.60786 -0.0398,-0.1999 -0.0833,-0.39706 -0.12971,-0.59154 -0.0465,-0.19449 -0.096,-0.38656 -0.149,-0.57572 -0.0529,-0.18917 -0.10893,-0.37545 -0.16829,-0.55939 -0.0594,-0.18393 -0.12192,-0.36528 -0.18757,-0.54408 -0.0656,-0.17881 -0.13451,-0.35501 -0.20633,-0.52878 -0.0719,-0.17377 -0.14669,-0.34515 -0.22458,-0.51398 -0.0779,-0.16883 -0.15848,-0.33521 -0.2423,-0.49918 -0.0839,-0.16398 -0.17089,-0.32568 -0.26054,-0.4849 -0.0896,-0.15923 -0.18238,-0.31606 -0.27775,-0.47062 -0.0954,-0.15456 -0.19346,-0.30684 -0.29443,-0.45683 -0.10097,-0.15 -0.20466,-0.29753 -0.31111,-0.44306 -0.10646,-0.14552 -0.21544,-0.28916 -0.32726,-0.43031 -0.11182,-0.14114 -0.22636,-0.27966 -0.34344,-0.41651 -0.11707,-0.13687 -0.23684,-0.27162 -0.35905,-0.40429 -0.12222,-0.13266 -0.24695,-0.26347 -0.37418,-0.39204 -0.12724,-0.12858 -0.25715,-0.25523 -0.38929,-0.37979 -0.13214,-0.12457 -0.26645,-0.24688 -0.40338,-0.36754 -0.13693,-0.12067 -0.27636,-0.23948 -0.41796,-0.35633 -0.1416,-0.11684 -0.28535,-0.23196 -0.43152,-0.34509 -0.14616,-0.11313 -0.29446,-0.22436 -0.44507,-0.33387 -0.15061,-0.10951 -0.30368,-0.21719 -0.45862,-0.32316 -0.15493,-0.10597 -0.31199,-0.21042 -0.47113,-0.31295 -0.15915,-0.10254 -0.32041,-0.20304 -0.48365,-0.30224 -0.16325,-0.0992 -0.3284,-0.1971 -0.49562,-0.29305 -0.16724,-0.096 -0.33654,-0.19006 -0.50763,-0.28285 -0.1711,-0.0928 -0.34424,-0.18393 -0.51909,-0.27366 -0.17485,-0.0897 -0.35155,-0.17823 -0.53003,-0.265 -0.17849,-0.0868 -0.35845,-0.1719 -0.54046,-0.2558 -0.18201,-0.0839 -0.36599,-0.16653 -0.5514,-0.24765 -0.18542,-0.0812 -0.3721,-0.16052 -0.56081,-0.23896 -0.18869,-0.0784 -0.37932,-0.15599 -0.5712,-0.23182 -0.19187,-0.0758 -0.38514,-0.15031 -0.58008,-0.22366 -0.19493,-0.0734 -0.39157,-0.14558 -0.58945,-0.21652 -0.19789,-0.071 -0.39709,-0.14074 -0.5978,-0.20938 -0.40142,-0.13728 -0.80859,-0.26973 -1.22062,-0.39834 -0.41203,-0.12861 -0.82912,-0.25315 -1.25085,-0.37385 -0.42173,-0.1207 -0.84797,-0.23785 -1.27847,-0.3514 -0.4305,-0.11355 -0.86515,-0.22333 -1.3035,-0.33048 -0.43835,-0.10715 -0.88011,-0.21164 -1.32539,-0.31314 -0.44528,-0.10148 -0.893914,-0.2002 -1.345196,-0.2968 -0.451281,-0.0966 -0.905513,-0.19109 -1.361875,-0.28354 -0.456361,-0.0925 -0.914917,-0.18274 -1.375432,-0.2718 -0.921032,-0.17814 -1.849496,-0.35055 -2.781609,-0.51964 -0.932115,-0.16909 -1.867699,-0.33518 -2.803509,-0.50125 -0.935806,-0.16608 -1.87191,-0.33218 -2.804022,-0.50127 -0.932116,-0.16909 -1.860582,-0.34099 -2.781617,-0.51911 -0.460516,-0.089 -0.919066,-0.17987 -1.375426,-0.27232 -0.456361,-0.0925 -0.910599,-0.18643 -1.361881,-0.28303 -0.451279,-0.0966 -0.899395,-0.19582 -1.344672,-0.29731 -0.44528,-0.10148 -0.88756,-0.20548 -1.32591,-0.31263 -0.438355,-0.10714 -0.872992,-0.21744 -1.303497,-0.331 -0.430503,-0.11354 -0.856749,-0.23017 -1.278479,-0.35088 -0.42173,-0.1207 -0.838816,-0.24523 -1.250849,-0.37384 -0.412032,-0.12863 -0.819199,-0.26159 -1.220611,-0.39887 -0.200708,-0.0686 -0.399921,-0.13842 -0.5978,-0.20937 -0.197877,-0.071 -0.394521,-0.14317 -0.589455,-0.21652 -0.194934,-0.0734 -0.388201,-0.14782 -0.580077,-0.22366 -0.191877,-0.0758 -0.381993,-0.15288 -0.570697,-0.23132 -0.1887,-0.0784 -0.375901,-0.15784 -0.561312,-0.23896 -0.18541,-0.0811 -0.369396,-0.16376 -0.551403,-0.24764 -0.182004,-0.0839 -0.361979,-0.16904 -0.540463,-0.25581 -0.178483,-0.0868 -0.355182,-0.17526 -0.530031,-0.26499 -0.174849,-0.0897 -0.347993,-0.18087 -0.51909,-0.27366 -0.171096,-0.0928 -0.340385,-0.18742 -0.507617,-0.28336 -0.167229,-0.096 -0.332385,-0.19335 -0.495633,-0.29254 -0.163248,-0.0992 -0.324492,-0.20022 -0.483643,-0.30275 -0.159148,-0.10254 -0.3162,-0.20646 -0.471134,-0.31244 -0.154937,-0.10598 -0.307498,-0.21365 -0.458103,-0.32315 -0.150608,-0.10951 -0.299426,-0.22075 -0.445591,-0.33388 -0.146163,-0.11313 -0.289913,-0.22824 -0.431516,-0.3451 -0.141604,-0.11684 -0.281035,-0.23566 -0.417962,-0.35631 -0.136929,-0.12067 -0.271238,-0.24297 -0.403375,-0.36755 -0.13214,-0.12456 -0.262062,-0.25122 -0.389293,-0.37979 -0.127232,-0.12858 -0.251967,-0.25937 -0.374178,-0.39204 -0.122209,-0.13266 -0.241988,-0.26743 -0.359063,-0.40428 -0.117071,-0.13686 -0.231085,-0.27589 -0.342907,-0.41703 -0.11182,-0.14115 -0.221332,-0.28428 -0.327787,-0.4298 -0.106453,-0.14552 -0.21014,-0.29306 -0.31111,-0.44306 -0.100968,-0.14999 -0.199054,-0.30227 -0.294425,-0.45683 -0.09537,-0.15456 -0.188089,-0.3114 -0.277746,-0.47062 -0.08965,-0.15921 -0.176199,-0.32091 -0.260027,-0.48489 -0.08382,-0.16398 -0.164936,-0.33036 -0.242821,-0.49919 -0.07788,-0.16882 -0.152754,-0.34021 -0.224578,-0.51398 -0.04298,-0.104 -0.08251,-0.21074 -0.12329,-0.31653 a 34.999998,34.999998 0 0 0 -1.217016,8.61301 34.999998,34.999998 0 0 0 34.63065,35.36535 34.999998,34.999998 0 0 0 25.100278,-10.35611 z" />
      <path
         id="path2406"
         style="vector-effect:non-scaling-stroke;fill:url(#radialGradient5379);fill-opacity:1;stroke:none;stroke-width:0.000529169;stroke-miterlimit:4;stroke-dasharray:0.00010583, 0.000423331;stroke-dashoffset:0;stroke-opacity:1;-inkscape-stroke:hairline;stop-color:#000000"
         d="M 78.757222,94.018446 A 34.999999,34.999999 0 0 0 61.218898,116.01976 c 0.04078,0.10579 0.08031,0.21254 0.12329,0.31653 0.07182,0.17377 0.146695,0.34516 0.224578,0.51399 0.07789,0.16882 0.158994,0.3352 0.24282,0.49918 0.08383,0.16398 0.17037,0.32568 0.260027,0.4849 0.08966,0.15922 0.182372,0.31605 0.277746,0.47061 0.09537,0.15456 0.193458,0.30684 0.294426,0.45684 0.10097,0.14999 0.204657,0.29753 0.31111,0.44305 0.106455,0.14552 0.215967,0.28865 0.327786,0.4298 0.111822,0.14114 0.225836,0.28017 0.342908,0.41703 0.117074,0.13686 0.236853,0.27161 0.359062,0.40428 0.122212,0.13267 0.246947,0.26347 0.374178,0.39204 0.127232,0.12857 0.257154,0.25523 0.389294,0.3798 0.132137,0.12457 0.266446,0.24687 0.403374,0.36754 0.136928,0.12066 0.276359,0.23947 0.417963,0.35632 0.141603,0.11685 0.285352,0.23196 0.431517,0.34509 0.146164,0.11314 0.294981,0.22437 0.445589,0.33388 0.150606,0.1095 0.303167,0.21718 0.458104,0.32315 0.154934,0.10598 0.311986,0.2099 0.471134,0.31244 0.159151,0.10254 0.320395,0.20355 0.483643,0.30275 0.163247,0.0992 0.328403,0.19659 0.495633,0.29254 0.167232,0.0959 0.336521,0.19057 0.507617,0.28336 0.171097,0.0928 0.34424,0.18393 0.519089,0.27366 0.17485,0.0897 0.351548,0.17823 0.530032,0.265 0.178484,0.0868 0.358459,0.17191 0.540463,0.2558 0.182007,0.0839 0.365993,0.16653 0.551402,0.24764 0.185413,0.0811 0.372613,0.16054 0.561313,0.23897 0.188703,0.0784 0.37882,0.15547 0.570697,0.23131 0.191876,0.0758 0.385142,0.15031 0.580077,0.22366 0.194935,0.0733 0.391577,0.14558 0.589456,0.21652 0.197878,0.0709 0.397091,0.14074 0.597799,0.20938 0.401412,0.13727 0.808579,0.27024 1.22061,0.39885 0.412034,0.12862 0.82912,0.25315 1.25085,0.37385 0.42173,0.12071 0.847977,0.23734 1.278479,0.35089 0.430505,0.11355 0.865143,0.22384 1.303496,0.33099 0.438352,0.10715 0.880631,0.21113 1.325911,0.31263 0.445277,0.10149 0.893393,0.20071 1.344672,0.29731 0.451282,0.0966 0.90552,0.19057 1.361881,0.28303 0.45636,0.0925 0.914911,0.18325 1.375427,0.27231 0.921034,0.17814 1.849501,0.35003 2.781616,0.51912 0.932113,0.1691 1.868216,0.33519 2.804022,0.50127 0.935809,0.16608 1.871394,0.33216 2.803509,0.50125 0.932113,0.1691 1.860577,0.3415 2.781608,0.51964 0.460516,0.0891 0.919072,0.17934 1.375433,0.2718 0.456363,0.0925 0.910593,0.18694 1.361875,0.28354 0.451282,0.0966 0.899917,0.19531 1.345196,0.29681 0.44528,0.10149 0.88704,0.20599 1.32539,0.31313 0.43835,0.10715 0.873,0.21693 1.3035,0.33048 0.4305,0.11355 0.85674,0.2307 1.27847,0.3514 0.42173,0.1207 0.83882,0.24524 1.25085,0.37385 0.41204,0.12861 0.81921,0.26106 1.22062,0.39834 0.20071,0.0686 0.39992,0.13843 0.5978,0.20937 0.19788,0.0709 0.39452,0.14318 0.58945,0.21653 0.19494,0.0733 0.38821,0.14781 0.58008,0.22366 0.19188,0.0758 0.38251,0.1534 0.57121,0.23183 0.1887,0.0784 0.37538,0.15784 0.56079,0.23896 0.18542,0.0811 0.3694,0.16375 0.55141,0.24765 0.182,0.0839 0.36198,0.16903 0.54046,0.2558 0.17849,0.0868 0.35518,0.17526 0.53003,0.26499 0.17485,0.0897 0.34799,0.18087 0.51909,0.27366 0.1711,0.0928 0.34039,0.1869 0.50762,0.28285 0.16723,0.0959 0.33238,0.19386 0.49563,0.29306 0.16325,0.0992 0.3245,0.19969 0.48365,0.30223 0.15915,0.10254 0.31619,0.20698 0.47113,0.31295 0.15494,0.10598 0.30801,0.21366 0.45862,0.32316 0.15061,0.1095 0.29891,0.22074 0.44507,0.33387 0.14616,0.11313 0.28991,0.22825 0.43152,0.34509 0.1416,0.11686 0.28103,0.23567 0.41796,0.35633 0.13693,0.12066 0.27124,0.24297 0.40338,0.36754 0.13213,0.12457 0.26206,0.25122 0.38929,0.37979 0.12723,0.12857 0.25197,0.25937 0.37418,0.39204 0.12221,0.13267 0.24198,0.26743 0.35906,0.40428 0.11707,0.13686 0.23161,0.27538 0.34343,0.41653 0.11182,0.14114 0.22081,0.28478 0.32726,0.4303 0.10645,0.14552 0.21014,0.29307 0.31111,0.44306 0.10097,0.14999 0.19906,0.30227 0.29443,0.45683 0.0954,0.15456 0.18809,0.3114 0.27775,0.47062 0.0896,0.15922 0.17671,0.32092 0.26054,0.4849 0.0838,0.16398 0.16442,0.33035 0.2423,0.49918 0.0779,0.16883 0.15276,0.34021 0.22458,0.51398 0.0718,0.17377 0.14069,0.34997 0.20633,0.52878 0.0656,0.17881 0.12822,0.36014 0.18757,0.54408 0.0594,0.18394 0.11534,0.37022 0.16829,0.55939 0.0529,0.18916 0.10257,0.38124 0.149,0.57572 0.0464,0.19449 0.0899,0.39164 0.1297,0.59154 0.0398,0.1999 0.0764,0.40245 0.10938,0.60786 0.033,0.20541 0.0624,0.41369 0.0885,0.6247 0.0262,0.21101 0.049,0.42483 0.0682,0.64154 0.0192,0.21671 0.0347,0.43639 0.0468,0.65888 0.0121,0.2225 0.0206,0.44785 0.0255,0.67624 5.3e-4,0.0247 -2.6e-4,0.0502 2.7e-4,0.0749 a 34.999999,34.999999 0 0 0 10.26507,-24.27453 34.999999,34.999999 0 0 0 -3.38474,-15.38531 c -0.009,-0.0108 -0.0178,-0.0221 -0.027,-0.0328 -0.11708,-0.13686 -0.23686,-0.27162 -0.35907,-0.40428 -0.12221,-0.13267 -0.24694,-0.26347 -0.37417,-0.39204 -0.12723,-0.12858 -0.25665,-0.25471 -0.38879,-0.37928 -0.13213,-0.12457 -0.26695,-0.2474 -0.40388,-0.36806 -0.13693,-0.12066 -0.27636,-0.23947 -0.41796,-0.35632 -0.14161,-0.11685 -0.28536,-0.23197 -0.43152,-0.3451 -0.14616,-0.11313 -0.29447,-0.22436 -0.44507,-0.33386 -0.15061,-0.10951 -0.30369,-0.21719 -0.45862,-0.32316 -0.15494,-0.10598 -0.31199,-0.2099 -0.47114,-0.31244 -0.15915,-0.10254 -0.32039,-0.20356 -0.48364,-0.30275 -0.16325,-0.0992 -0.32841,-0.19659 -0.49564,-0.29254 -0.16722,-0.0959 -0.33651,-0.19057 -0.50761,-0.28336 -0.1711,-0.0928 -0.34372,-0.18393 -0.51857,-0.27366 -0.3497,-0.17946 -0.70701,-0.35301 -1.07102,-0.5208 -0.36401,-0.16779 -0.73479,-0.32974 -1.1122,-0.48661 -0.3774,-0.15686 -0.76141,-0.30828 -1.15129,-0.45497 -0.38986,-0.1467 -0.78584,-0.28862 -1.18725,-0.4259 -0.40141,-0.13727 -0.80806,-0.27024 -1.2201,-0.39885 -0.41203,-0.12861 -0.82911,-0.25314 -1.25084,-0.37385 -0.42173,-0.1207 -0.8485,-0.23734 -1.279,-0.35089 -0.4305,-0.11355 -0.86514,-0.22385 -1.30349,-0.33099 -0.43836,-0.10715 -0.88012,-0.21113 -1.3254,-0.31262 -0.44527,-0.1015 -0.89391,-0.20021 -1.34519,-0.29681 -0.45129,-0.0966 -0.90552,-0.19108 -1.36188,-0.28354 -0.45636,-0.0925 -0.91491,-0.18325 -1.37543,-0.27232 -0.92103,-0.17813 -1.84949,-0.35002 -2.78161,-0.51911 -0.93212,-0.1691 -1.8677,-0.33518 -2.80351,-0.50126 -0.935803,-0.166082 -1.871908,-0.332172 -2.804021,-0.501267 -0.932116,-0.169093 -1.860577,-0.3415 -2.781611,-0.519632 C 94.216102,98.944001 93.757546,98.853727 93.301186,98.76127 92.844825,98.66881 92.391111,98.574331 91.939829,98.477731 91.488537,98.381121 91.0399,98.282414 90.594623,98.180915 90.149343,98.07942 89.707064,97.97544 89.268712,97.868294 88.830358,97.761147 88.395721,97.650849 87.965218,97.5373 87.534713,97.423751 87.108472,97.306604 86.686742,97.185897 86.265012,97.065193 85.847927,96.940661 85.435895,96.812046 85.023861,96.683432 84.616689,96.550984 84.215277,96.413707 83.813862,96.27643 83.41841,96.134511 83.02854,95.987816 82.638668,95.841124 82.254651,95.689705 81.877251,95.53284 81.499847,95.375978 81.129068,95.213502 80.765057,95.045718 80.401046,94.877931 80.043742,94.70438 79.694044,94.524919 c -0.174849,-0.08973 -0.34799,-0.180878 -0.51909,-0.273664 -0.140798,-0.07636 -0.27952,-0.154318 -0.417708,-0.232809 z" />
      <path
         id="path2403"
         style="vector-effect:non-scaling-stroke;fill:#ff4200;fill-opacity:1;stroke:none;stroke-width:0.000529169;stroke-miterlimit:4;stroke-dasharray:0.00010583, 0.000423331;stroke-dashoffset:0;stroke-opacity:1;-inkscape-stroke:hairline;stop-color:#000000"
         d="m 78.757222,94.018446 c 0.138188,0.07849 0.276911,0.156447 0.417709,0.232809 0.171099,0.09279 0.34424,0.183931 0.519089,0.273663 0.349698,0.179462 0.707002,0.353013 1.071013,0.5208 0.364011,0.167784 0.734791,0.33026 1.112194,0.487122 0.3774,0.156864 0.761418,0.308284 1.15129,0.454976 0.389869,0.146695 0.785321,0.288614 1.186736,0.425891 0.401412,0.137277 0.808585,0.269725 1.220619,0.398339 0.412031,0.128615 0.829117,0.253146 1.250846,0.373851 0.42173,0.120706 0.847972,0.237854 1.278477,0.351403 0.430502,0.113549 0.86514,0.223847 1.303493,0.330993 0.438352,0.107146 0.880631,0.211127 1.325911,0.312622 0.445277,0.101498 0.893914,0.200206 1.345196,0.296806 0.451282,0.0966 0.904996,0.191082 1.361357,0.283539 0.45636,0.09246 0.914916,0.182732 1.375432,0.271801 0.921035,0.178131 1.849496,0.350539 2.781611,0.519632 0.932113,0.169095 1.868216,0.335182 2.804025,0.501267 0.93581,0.16608 1.87139,0.33216 2.80351,0.50126 0.93211,0.16909 1.86058,0.34098 2.78161,0.51911 0.46052,0.0891 0.91907,0.17986 1.37543,0.27232 0.45636,0.0925 0.91059,0.18694 1.36187,0.28354 0.45128,0.0966 0.89992,0.19531 1.3452,0.29681 0.44528,0.10149 0.88704,0.20547 1.32539,0.31262 0.43835,0.10714 0.87299,0.21744 1.3035,0.33099 0.4305,0.11355 0.85726,0.23018 1.27899,0.35089 0.42173,0.12071 0.83882,0.24524 1.25085,0.37385 0.41203,0.12861 0.81868,0.26157 1.2201,0.39885 0.40141,0.13728 0.79738,0.2792 1.18725,0.4259 0.38987,0.14669 0.77389,0.29811 1.15129,0.45497 0.3774,0.15687 0.74819,0.31882 1.1122,0.48661 0.36401,0.16778 0.72131,0.34134 1.07101,0.5208 0.17485,0.0897 0.34748,0.18087 0.51857,0.27366 0.1711,0.0928 0.34039,0.18742 0.50762,0.28336 0.16723,0.096 0.33239,0.19335 0.49564,0.29254 0.16324,0.0992 0.32449,0.20021 0.48364,0.30275 0.15915,0.10254 0.3162,0.20646 0.47113,0.31244 0.15494,0.10597 0.30801,0.21365 0.45862,0.32316 0.15061,0.1095 0.29891,0.22073 0.44507,0.33386 0.14617,0.11313 0.28992,0.22825 0.43152,0.3451 0.14161,0.11685 0.28104,0.23566 0.41797,0.35632 0.13692,0.12066 0.27174,0.24349 0.40388,0.36806 0.13214,0.12457 0.26155,0.2507 0.38878,0.37928 0.12724,0.12857 0.25197,0.25937 0.37418,0.39204 0.12221,0.13266 0.24199,0.26742 0.35906,0.40428 0.009,0.0108 0.0179,0.022 0.0271,0.0328 A 34.999999,34.999999 0 0 0 95.367241,90.002119 34.999999,34.999999 0 0 0 78.757222,94.018446 Z" />
      <path
         id="path2171-6-0"
         style="opacity:0.36387;vector-effect:non-scaling-stroke;fill:url(#linearGradient4936);fill-opacity:1;stroke:none;stroke-width:0.000529169;stroke-miterlimit:4;stroke-dasharray:0.00010583, 0.000423331;stroke-dashoffset:0;stroke-opacity:1;-inkscape-stroke:hairline;stop-color:#000000"
         d="m 125.86439,141.31903 c -0.008,-0.0235 -0.0145,-0.0482 -0.0222,-0.0716 -0.0716,-0.21694 -0.14565,-0.42993 -0.22237,-0.63913 -0.0767,-0.2092 -0.15592,-0.4147 -0.23773,-0.61629 -0.0818,-0.20159 -0.16626,-0.39934 -0.25307,-0.59344 -0.0868,-0.1941 -0.17585,-0.38466 -0.26759,-0.57139 -0.0917,-0.18673 -0.18601,-0.3697 -0.28259,-0.54918 -0.0966,-0.17949 -0.1959,-0.35526 -0.29725,-0.52763 -0.10134,-0.17236 -0.20503,-0.34148 -0.31105,-0.50685 -0.10602,-0.16537 -0.2141,-0.32709 -0.32472,-0.48558 -0.11062,-0.1585 -0.22355,-0.31356 -0.33868,-0.46531 -0.11513,-0.15174 -0.23257,-0.30005 -0.35213,-0.44517 -0.11956,-0.14512 -0.24134,-0.28707 -0.36525,-0.42569 -0.1239,-0.13862 -0.24969,-0.2741 -0.37786,-0.40634 -0.12817,-0.13224 -0.25876,-0.26136 -0.39112,-0.38735 -0.13235,-0.12599 -0.26693,-0.24879 -0.40338,-0.36865 -0.13645,-0.11985 -0.27483,-0.23673 -0.4153,-0.35059 -0.14046,-0.11385 -0.28281,-0.22456 -0.42721,-0.33252 -0.1444,-0.10797 -0.29068,-0.2134 -0.43893,-0.31561 -0.14825,-0.10221 -0.29833,-0.20112 -0.45035,-0.2977 -0.15202,-0.0966 -0.306,-0.19035 -0.46171,-0.28141 -0.1557,-0.0911 -0.31327,-0.1796 -0.47257,-0.26528 -0.15931,-0.0857 -0.32063,-0.16873 -0.48345,-0.24915 -0.16283,-0.0804 -0.32706,-0.15803 -0.49332,-0.2333 -0.16626,-0.0753 -0.33437,-0.14805 -0.50399,-0.21831 -0.16961,-0.0703 -0.34077,-0.13823 -0.51365,-0.2036 -0.17289,-0.0654 -0.34726,-0.1283 -0.52333,-0.1889 -0.17608,-0.0606 -0.35397,-0.11874 -0.53315,-0.17469 -0.17918,-0.056 -0.35993,-0.10984 -0.54212,-0.16127 -0.1822,-0.0514 -0.36582,-0.10032 -0.55095,-0.14736 -0.18514,-0.047 -0.37173,-0.0923 -0.55972,-0.13507 -0.188,-0.0428 -0.37743,-0.0832 -0.5682,-0.12179 -0.19077,-0.0386 -0.38301,-0.0751 -0.57647,-0.10966 -0.19346,-0.0346 -0.38833,-0.0675 -0.5844,-0.0982 -0.19607,-0.0307 -0.39308,-0.0594 -0.59168,-0.0863 -0.19859,-0.0269 -0.39871,-0.0521 -0.59975,-0.0753 -0.20103,-0.0233 -0.40279,-0.0445 -0.60619,-0.0643 -0.20339,-0.0197 -0.40838,-0.0381 -0.61405,-0.0544 -0.20567,-0.0163 -0.41228,-0.0309 -0.62015,-0.044 -0.20786,-0.013 -0.41704,-0.0245 -0.62702,-0.0344 -0.20998,-0.01 -0.42089,-0.0183 -0.6329,-0.0251 -0.42402,-0.0137 -0.85212,-0.0211 -1.28376,-0.0234 -0.43163,-0.002 -0.8669,7.4e-4 -1.30549,0.009 -0.43859,0.008 -0.88045,0.0209 -1.32533,0.0384 -0.44488,0.0175 -0.89262,0.0398 -1.34314,0.0657 -0.45051,0.0259 -0.9035,0.0554 -1.35898,0.0887 -0.45548,0.0333 -0.91335,0.0703 -1.37314,0.11013 -0.459788,0.0398 -0.921775,0.0825 -1.385207,0.1277 -0.46343,0.0452 -0.92832,0.0932 -1.39473,0.14289 -0.93282,0.0994 -1.871069,0.20643 -2.811837,0.3177 -0.940771,0.11128 -1.883977,0.22645 -2.827397,0.34169 -0.943418,0.11524 -1.887121,0.23055 -2.827889,0.34183 -0.940771,0.11127 -1.878871,0.21881 -2.811694,0.3182 -0.46641,0.0497 -0.931446,0.0972 -1.394875,0.1424 -0.46343,0.0452 -0.925274,0.0884 -1.385061,0.12818 -0.459784,0.0398 -0.917311,0.0761 -1.37279,0.10949 -0.455481,0.0333 -0.908822,0.0634 -1.359333,0.0894 -0.450514,0.0259 -0.898398,0.0477 -1.343282,0.0652 -0.444881,0.0175 -0.886596,0.0308 -1.325185,0.0389 -0.438589,0.008 -0.873858,0.0112 -1.305493,0.009 -0.431632,-0.002 -0.859886,-0.0102 -1.283901,-0.0239 -0.212009,-0.007 -0.422926,-0.0153 -0.632906,-0.0251 -0.20998,-0.01 -0.419153,-0.0214 -0.627021,-0.0344 -0.207868,-0.013 -0.414469,-0.0277 -0.620144,-0.044 -0.205674,-0.0163 -0.410016,-0.0343 -0.613415,-0.054 -0.203395,-0.0197 -0.405646,-0.0409 -0.606684,-0.0641 -0.201035,-0.0233 -0.401155,-0.0484 -0.59975,-0.0753 -0.198592,-0.0269 -0.39561,-0.0556 -0.591679,-0.0863 -0.196067,-0.0307 -0.390935,-0.0636 -0.584395,-0.0982 -0.193461,-0.0346 -0.385704,-0.071 -0.576473,-0.10966 -0.190769,-0.0386 -0.380346,-0.0795 -0.568344,-0.12229 -0.187995,-0.0428 -0.374433,-0.0875 -0.559571,-0.13458 -0.185139,-0.047 -0.368897,-0.0964 -0.551097,-0.14784 -0.182199,-0.0514 -0.362799,-0.10482 -0.541974,-0.16078 -0.179178,-0.056 -0.356583,-0.11424 -0.532653,-0.17484 -0.176073,-0.0606 -0.350941,-0.12338 -0.523827,-0.18875 -0.172886,-0.0654 -0.344043,-0.13335 -0.513657,-0.2036 -0.169613,-0.0703 -0.337725,-0.14304 -0.503985,-0.21831 -0.166259,-0.0753 -0.330497,-0.15289 -0.493319,-0.23331 -0.162826,-0.0804 -0.324141,-0.16347 -0.483447,-0.24914 -0.159304,-0.0857 -0.316873,-0.17422 -0.472577,-0.26528 -0.155702,-0.0911 -0.309693,-0.18484 -0.461711,-0.28141 -0.152017,-0.0966 -0.301747,-0.19613 -0.449998,-0.29834 -0.14825,-0.10221 -0.294876,-0.207 -0.439277,-0.31497 -0.1444,-0.10797 -0.286747,-0.21868 -0.427215,-0.33253 -0.140466,-0.11385 -0.278846,-0.23073 -0.415297,-0.35059 -0.136454,-0.11985 -0.27103,-0.24266 -0.403383,-0.36864 -0.132353,-0.12599 -0.262451,-0.25526 -0.390624,-0.3875 -0.12817,-0.13224 -0.254447,-0.26758 -0.378356,-0.40619 -0.123907,-0.13862 -0.245684,-0.28057 -0.365246,-0.42569 -0.07155,-0.0869 -0.140606,-0.17734 -0.210579,-0.26656 a 34.999998,34.999998 0 0 0 1.358543,8.59183 34.999998,34.999998 0 0 0 43.468805,23.6739 34.999998,34.999998 0 0 0 20.9673,-17.25242 z" />
      <path
         id="path2171-6-1-6"
         style="opacity:0.36387;vector-effect:non-scaling-stroke;fill:url(#linearGradient4938);fill-opacity:1;stroke:none;stroke-width:0.000529169;stroke-miterlimit:4;stroke-dasharray:0.00010583, 0.000423331;stroke-dashoffset:0;stroke-opacity:1;-inkscape-stroke:hairline;stop-color:#000000"
         d="m 125.86442,141.31902 c -0.008,-0.0235 -0.0145,-0.0482 -0.0221,-0.0716 -0.0713,-0.21703 -0.14562,-0.42994 -0.22241,-0.63913 -0.0767,-0.20921 -0.15593,-0.41469 -0.23768,-0.6163 -0.0818,-0.20157 -0.16622,-0.39936 -0.25305,-0.59344 -0.0868,-0.1941 -0.17585,-0.38467 -0.2676,-0.57139 -0.0918,-0.18673 -0.18604,-0.36969 -0.28259,-0.54919 -0.0966,-0.17948 -0.19595,-0.35524 -0.29724,-0.52762 -0.10138,-0.17235 -0.20504,-0.34148 -0.31106,-0.50685 -0.10599,-0.16538 -0.2141,-0.32709 -0.32472,-0.48559 -0.11063,-0.15848 -0.22355,-0.31356 -0.33867,-0.4653 -0.11512,-0.15175 -0.23258,-0.30005 -0.35214,-0.44518 -0.11961,-0.1451 -0.24133,-0.28706 -0.36524,-0.42568 -0.12396,-0.1386 -0.2497,-0.27411 -0.37786,-0.40634 -0.12823,-0.13223 -0.25877,-0.26136 -0.39112,-0.38735 -0.13233,-0.126 -0.26693,-0.2488 -0.40339,-0.36865 -0.13646,-0.11986 -0.27483,-0.23674 -0.4153,-0.35058 -0.14047,-0.11386 -0.28281,-0.22456 -0.42721,-0.33254 -0.14441,-0.10797 -0.29068,-0.2134 -0.43893,-0.31561 -0.14825,-0.1022 -0.29832,-0.20111 -0.45035,-0.29768 -0.15202,-0.0966 -0.306,-0.19036 -0.46171,-0.28143 -0.1557,-0.091 -0.31327,-0.1796 -0.47257,-0.26528 -0.15931,-0.0857 -0.32062,-0.16873 -0.48345,-0.24914 -0.16282,-0.0804 -0.32706,-0.15803 -0.49332,-0.2333 -0.16626,-0.0753 -0.33437,-0.14805 -0.50399,-0.21832 -0.16961,-0.0703 -0.34076,-0.13822 -0.51366,-0.20359 -0.17288,-0.0654 -0.34725,-0.1283 -0.52332,-0.1889 -0.17608,-0.0606 -0.35397,-0.11874 -0.53315,-0.1747 -0.17917,-0.0559 -0.35993,-0.10983 -0.54212,-0.16127 -0.1822,-0.0514 -0.36582,-0.1003 -0.55096,-0.14735 -0.18514,-0.0471 -0.37172,-0.0923 -0.55971,-0.13507 -0.188,-0.0428 -0.37743,-0.0832 -0.5682,-0.12179 -0.19077,-0.0386 -0.38301,-0.0751 -0.57647,-0.10966 -0.19346,-0.0346 -0.38833,-0.0675 -0.58439,-0.0982 -0.19608,-0.0307 -0.39309,-0.0594 -0.59168,-0.0863 -0.19861,-0.0269 -0.39872,-0.052 -0.59975,-0.0753 -0.20106,-0.0233 -0.4028,-0.0445 -0.6062,-0.0643 -0.20338,-0.0197 -0.40837,-0.0381 -0.61405,-0.0544 -0.20566,-0.0163 -0.41227,-0.0309 -0.62015,-0.044 -0.20786,-0.013 -0.41703,-0.0245 -0.62701,-0.0344 -0.21,-0.01 -0.4209,-0.0183 -0.63291,-0.0251 -0.42402,-0.0137 -0.85213,-0.0211 -1.28376,-0.0234 -0.43163,-0.002 -0.8669,7.5e-4 -1.30549,0.009 -0.43859,0.008 -0.88045,0.0209 -1.32533,0.0384 -0.44488,0.0175 -0.89262,0.0398 -1.34313,0.0657 -0.45051,0.0259 -0.90351,0.0554 -1.35899,0.0887 -0.45548,0.0334 -0.91335,0.0703 -1.37314,0.11013 -0.459799,0.0397 -0.921775,0.0825 -1.385206,0.12769 -0.46344,0.0452 -0.928319,0.0932 -1.39473,0.1429 -0.932821,0.0994 -1.871069,0.20642 -2.811837,0.3177 -0.94077,0.11128 -1.883978,0.22644 -2.827395,0.34169 -0.943418,0.11524 -1.887123,0.23055 -2.827891,0.34183 -0.94077,0.11128 -1.878872,0.2188 -2.811693,0.3182 -0.466402,0.0497 -0.931448,0.0971 -1.394877,0.14239 -0.46344,0.0452 -0.925273,0.0884 -1.38506,0.12819 -0.459768,0.0398 -0.917312,0.0761 -1.372789,0.10949 -0.455476,0.0334 -0.908822,0.0634 -1.359333,0.0894 -0.450514,0.0259 -0.898398,0.0477 -1.343283,0.0652 -0.444881,0.0175 -0.886595,0.0308 -1.325184,0.0389 -0.438588,0.008 -0.873859,0.0112 -1.305492,0.009 -0.431634,-0.002 -0.859888,-0.0102 -1.283904,-0.0239 -0.212001,-0.007 -0.422926,-0.0153 -0.632906,-0.0251 -0.20999,-0.01 -0.419152,-0.0214 -0.62702,-0.0344 -0.207869,-0.013 -0.414469,-0.0276 -0.620144,-0.044 -0.205668,-0.0163 -0.410016,-0.0343 -0.613416,-0.054 -0.203382,-0.0197 -0.405645,-0.0408 -0.606683,-0.0641 -0.201046,-0.0233 -0.401156,-0.0484 -0.599749,-0.0753 -0.198599,-0.0269 -0.395612,-0.0556 -0.591681,-0.0863 -0.19607,-0.0307 -0.390933,-0.0636 -0.584394,-0.0982 -0.193463,-0.0346 -0.385703,-0.071 -0.576472,-0.10966 -0.190771,-0.0386 -0.380348,-0.0795 -0.568344,-0.12229 -0.187999,-0.0428 -0.374434,-0.0875 -0.559572,-0.13458 -0.185146,-0.0471 -0.368897,-0.0964 -0.551098,-0.14785 -0.182197,-0.0514 -0.362797,-0.10481 -0.541972,-0.16077 -0.179181,-0.056 -0.356583,-0.11424 -0.532654,-0.17484 -0.176073,-0.0606 -0.350941,-0.12338 -0.523827,-0.18875 -0.172885,-0.0654 -0.344043,-0.13335 -0.513658,-0.20361 -0.169611,-0.0703 -0.337725,-0.14303 -0.503982,-0.2183 -0.16626,-0.0753 -0.330498,-0.15289 -0.493322,-0.23331 -0.162824,-0.0804 -0.324141,-0.16347 -0.483446,-0.24915 -0.159305,-0.0857 -0.316874,-0.17421 -0.472578,-0.26528 -0.1557,-0.0911 -0.309692,-0.18484 -0.461711,-0.28141 -0.152016,-0.0966 -0.301746,-0.19612 -0.449997,-0.29833 -0.14825,-0.10221 -0.294877,-0.20701 -0.439278,-0.31497 -0.144401,-0.10797 -0.286746,-0.21868 -0.427215,-0.33253 -0.140464,-0.11385 -0.278846,-0.23074 -0.415297,-0.35059 -0.136453,-0.11986 -0.271031,-0.24266 -0.403382,-0.36865 -0.132349,-0.12598 -0.262451,-0.25525 -0.390624,-0.38749 -0.128168,-0.13225 -0.254446,-0.26758 -0.378356,-0.4062 -0.123907,-0.13862 -0.245684,-0.28056 -0.365247,-0.42569 -0.07155,-0.0868 -0.140607,-0.17733 -0.210578,-0.26655 a 34.999998,34.999998 0 0 0 1.358542,8.59183 34.999998,34.999998 0 0 0 43.468805,23.67389 34.999998,34.999998 0 0 0 20.9673,-17.25241 z" />
      <path
         id="path2406-2"
         style="opacity:0.36387;vector-effect:non-scaling-stroke;fill:#2b0000;fill-opacity:1;stroke:none;stroke-width:0.000529169;stroke-miterlimit:4;stroke-dasharray:0.00010583, 0.000423331;stroke-dashoffset:0;stroke-opacity:1;-inkscape-stroke:hairline;stop-color:#000000"
         d="m 70.396438,100.13302 a 34.999998,34.999998 0 0 0 -10.326693,26.1727 c 0.06997,0.0892 0.139027,0.1797 0.210579,0.26655 0.119562,0.14512 0.241339,0.28707 0.365246,0.42569 0.123909,0.13861 0.250186,0.27395 0.378356,0.40619 0.128173,0.13225 0.258271,0.26151 0.390624,0.3875 0.132353,0.12599 0.266929,0.24879 0.403383,0.36865 0.136451,0.11985 0.274831,0.23674 0.415296,0.35059 0.140468,0.11385 0.282816,0.22456 0.427215,0.33253 0.144402,0.10796 0.291028,0.21275 0.439278,0.31496 0.148251,0.10221 0.297981,0.20176 0.449997,0.29834 0.152019,0.0966 0.306009,0.19035 0.461712,0.28141 0.155703,0.0911 0.313273,0.1796 0.472577,0.26528 0.159305,0.0857 0.32062,0.16873 0.483446,0.24915 0.162823,0.0804 0.327061,0.15803 0.49332,0.2333 0.16626,0.0753 0.334372,0.14805 0.503985,0.21831 0.169614,0.0703 0.340771,0.13823 0.513657,0.2036 0.172886,0.0654 0.347754,0.12815 0.523827,0.18876 0.17607,0.0606 0.353474,0.11887 0.532653,0.17483 0.179175,0.056 0.359775,0.10934 0.541974,0.16078 0.1822,0.0514 0.365958,0.10081 0.551097,0.14785 0.185138,0.047 0.371576,0.0918 0.559571,0.13457 0.187998,0.0428 0.377575,0.0837 0.568344,0.12229 0.190769,0.0386 0.383012,0.0751 0.576473,0.10966 0.19346,0.0346 0.388328,0.0675 0.584395,0.0982 0.196068,0.0307 0.393086,0.0594 0.591679,0.0863 0.198594,0.0269 0.398715,0.0521 0.59975,0.0753 0.201038,0.0233 0.403289,0.0444 0.606684,0.0641 0.203398,0.0197 0.407741,0.0377 0.613415,0.054 0.205674,0.0163 0.412276,0.0309 0.620144,0.044 0.207867,0.013 0.417041,0.0245 0.627021,0.0344 0.209979,0.01 0.420897,0.0183 0.632906,0.0251 0.424015,0.0137 0.852269,0.0216 1.283901,0.0239 0.431635,0.002 0.866904,-7.4e-4 1.305493,-0.009 0.438589,-0.008 0.880304,-0.0214 1.325185,-0.0389 0.444884,-0.0175 0.892768,-0.0393 1.343282,-0.0652 0.450511,-0.0259 0.903852,-0.056 1.359333,-0.0894 0.455479,-0.0333 0.913006,-0.0697 1.37279,-0.10948 0.459787,-0.0398 0.921631,-0.083 1.385061,-0.12819 0.463429,-0.0452 0.928465,-0.0927 1.394875,-0.1424 0.932823,-0.0994 1.870923,-0.20692 2.811694,-0.3182 0.940768,-0.11127 1.884471,-0.22659 2.827889,-0.34183 0.94342,-0.11524 1.886626,-0.23041 2.827396,-0.34169 0.940769,-0.11127 1.879017,-0.21831 2.811838,-0.3177 0.46641,-0.0497 0.9313,-0.0977 1.39473,-0.14289 0.463432,-0.0452 0.925419,-0.0879 1.385204,-0.12769 0.45979,-0.0398 0.91766,-0.0768 1.37314,-0.11013 0.45548,-0.0334 0.90847,-0.0628 1.35899,-0.0887 0.45051,-0.0259 0.89825,-0.0482 1.34313,-0.0657 0.44488,-0.0175 0.88674,-0.0303 1.32533,-0.0384 0.43859,-0.008 0.87386,-0.0111 1.30549,-0.009 0.43164,0.002 0.85975,0.01 1.28376,0.0234 0.21201,0.007 0.42293,0.0153 0.63291,0.0251 0.20998,0.01 0.41915,0.0214 0.62702,0.0344 0.20786,0.013 0.41447,0.0277 0.62014,0.044 0.20567,0.0163 0.41066,0.0347 0.61406,0.0544 0.2034,0.0197 0.40515,0.041 0.60619,0.0643 0.20103,0.0233 0.40115,0.0484 0.59975,0.0753 0.19859,0.0269 0.39561,0.0556 0.59167,0.0863 0.19607,0.0307 0.39094,0.0636 0.5844,0.0982 0.19346,0.0346 0.3857,0.071 0.57647,0.10966 0.19077,0.0386 0.38021,0.079 0.5682,0.1218 0.188,0.0428 0.37458,0.088 0.55972,0.13507 0.18514,0.047 0.36875,0.0959 0.55095,0.14735 0.1822,0.0514 0.36294,0.10531 0.54212,0.16127 0.17918,0.056 0.35708,0.11409 0.53315,0.17469 0.17607,0.0606 0.35045,0.12353 0.52333,0.1889 0.17288,0.0654 0.34404,0.13334 0.51366,0.2036 0.16961,0.0703 0.33772,0.14304 0.50398,0.21831 0.16626,0.0753 0.3305,0.15289 0.49332,0.23331 0.16283,0.0804 0.32414,0.16346 0.48345,0.24914 0.1593,0.0857 0.31687,0.17422 0.47257,0.26528 0.15571,0.0911 0.3097,0.18484 0.46172,0.28142 0.15202,0.0966 0.30209,0.19548 0.45034,0.29769 0.14825,0.10221 0.29453,0.20764 0.43893,0.31561 0.1444,0.10797 0.28675,0.21868 0.42722,0.33253 0.14046,0.11385 0.27884,0.23073 0.41529,0.35059 0.13646,0.11985 0.27104,0.24266 0.40339,0.36864 0.13235,0.12599 0.26294,0.25511 0.39111,0.38735 0.12818,0.13224 0.25396,0.26773 0.37787,0.40635 0.1239,0.13862 0.24568,0.28056 0.36524,0.42568 0.11956,0.14512 0.23701,0.29343 0.35214,0.44518 0.11513,0.15174 0.22805,0.30681 0.33867,0.4653 0.11062,0.1585 0.2187,0.32022 0.32472,0.48559 0.10602,0.16536 0.20971,0.33448 0.31106,0.50685 0.10134,0.17236 0.20066,0.34814 0.29724,0.52762 0.0966,0.17948 0.19085,0.36246 0.28259,0.54919 0.0917,0.18673 0.18078,0.37729 0.26759,0.57138 0.0868,0.1941 0.17127,0.39186 0.25308,0.59345 0.0818,0.20159 0.16101,0.40708 0.23772,0.61628 0.0767,0.20921 0.15084,0.42219 0.22237,0.63914 0.008,0.0234 0.0145,0.0481 0.0222,0.0716 a 34.999998,34.999998 0 0 0 2.7066,-26.21639 34.999998,34.999998 0 0 0 -7.74174,-13.71968 c -0.0119,-0.008 -0.0235,-0.0159 -0.0355,-0.0235 -0.15202,-0.0966 -0.30601,-0.19035 -0.46171,-0.28141 -0.15571,-0.0911 -0.31328,-0.17961 -0.47258,-0.26528 -0.15931,-0.0857 -0.31998,-0.16839 -0.4828,-0.2488 -0.16283,-0.0804 -0.32771,-0.15838 -0.49397,-0.23365 -0.16626,-0.0753 -0.33437,-0.14805 -0.50398,-0.21831 -0.16961,-0.0703 -0.34077,-0.138236 -0.51366,-0.203603 -0.17288,-0.06537 -0.34726,-0.128303 -0.52333,-0.188899 -0.17607,-0.0606 -0.35397,-0.118736 -0.53315,-0.174693 -0.17917,-0.05596 -0.35977,-0.109337 -0.54197,-0.160774 -0.1822,-0.05143 -0.36596,-0.100809 -0.5511,-0.14785 -0.18514,-0.04704 -0.37158,-0.0918 -0.55957,-0.134575 -0.188,-0.04277 -0.37757,-0.08367 -0.56835,-0.122291 -0.19077,-0.03862 -0.38251,-0.07521 -0.57597,-0.109806 -0.38692,-0.06919 -0.77939,-0.130503 -1.17657,-0.184336 -0.39719,-0.05384 -0.79915,-0.100114 -1.20594,-0.139582 -0.40679,-0.03947 -0.81832,-0.0718 -1.23406,-0.09789 -0.41573,-0.0261 -0.8359,-0.04584 -1.25992,-0.05956 -0.42402,-0.01371 -0.85178,-0.02176 -1.28341,-0.02408 -0.43163,-0.0023 -0.8669,7.5e-4 -1.30549,0.0088 -0.43859,0.0081 -0.8808,0.02153 -1.32568,0.03903 -0.44488,0.01749 -0.89277,0.03931 -1.34328,0.06523 -0.45052,0.02592 -0.90336,0.05586 -1.35884,0.08921 -0.45548,0.03334 -0.91335,0.07034 -1.37314,0.110129 -0.45979,0.03979 -0.92178,0.08246 -1.385205,0.127692 -0.463429,0.04524 -0.928468,0.0927 -1.394878,0.142397 -0.932821,0.09939 -1.870921,0.206923 -2.811691,0.3182 -0.940771,0.111275 -1.883976,0.226448 -2.827397,0.341684 -0.943415,0.11524 -1.887121,0.230558 -2.827889,0.341832 -0.940771,0.111275 -1.879017,0.218315 -2.81184,0.317705 -0.46641,0.0497 -0.9313,0.0977 -1.394729,0.14289 -0.46343,0.0452 -0.924923,0.0878 -1.384709,0.12755 -0.459787,0.0398 -0.917662,0.0768 -1.373142,0.11012 -0.455481,0.0333 -0.908821,0.0635 -1.359333,0.0894 -0.450514,0.0259 -0.898397,0.0477 -1.343279,0.0652 -0.444884,0.0175 -0.886745,0.0303 -1.325334,0.0384 -0.438589,0.008 -0.873858,0.0112 -1.30549,0.009 -0.431635,-0.002 -0.859744,-0.01 -1.283758,-0.0234 -0.424018,-0.0137 -0.843694,-0.0336 -1.25943,-0.0597 -0.415737,-0.0261 -0.827261,-0.0584 -1.234053,-0.0979 -0.406794,-0.0395 -0.808898,-0.0862 -1.206086,-0.14008 -0.397187,-0.0538 -0.78965,-0.11514 -1.176571,-0.18433 -0.193461,-0.0346 -0.385703,-0.071 -0.576473,-0.10966 -0.156987,-0.0318 -0.312457,-0.0657 -0.467572,-0.10028 z" />
      <path
         id="path2403-6"
         style="opacity:0.36387;vector-effect:non-scaling-stroke;fill:#ff4200;fill-opacity:1;stroke:none;stroke-width:0.000529169;stroke-miterlimit:4;stroke-dasharray:0.00010583, 0.000423331;stroke-dashoffset:0;stroke-opacity:1;-inkscape-stroke:hairline;stop-color:#000000"
         d="m 70.396438,100.13302 c 0.155115,0.0346 0.310585,0.0685 0.467573,0.10029 0.19077,0.0386 0.383011,0.0751 0.576472,0.10965 0.386921,0.0692 0.779384,0.13051 1.176572,0.18434 0.397187,0.0538 0.799291,0.10061 1.206085,0.14008 0.406792,0.0395 0.818316,0.0718 1.234054,0.0979 0.415736,0.0261 0.835411,0.046 1.259429,0.0597 0.424015,0.0137 0.852123,0.0211 1.283758,0.0234 0.431632,0.002 0.866901,-7.4e-4 1.30549,-0.009 0.438589,-0.008 0.880451,-0.0209 1.325335,-0.0384 0.444881,-0.0175 0.892765,-0.0393 1.343278,-0.0652 0.450512,-0.0259 0.903852,-0.056 1.359333,-0.0894 0.45548,-0.0333 0.913355,-0.0703 1.373142,-0.11013 0.459787,-0.0398 0.921279,-0.0823 1.384709,-0.12754 0.463429,-0.0452 0.928319,-0.0932 1.39473,-0.1429 0.932822,-0.0994 1.871068,-0.20642 2.811839,-0.317701 0.940769,-0.111274 1.884471,-0.226594 2.827889,-0.341832 0.943421,-0.115237 1.886626,-0.230409 2.827397,-0.341684 0.940771,-0.111278 1.878871,-0.218813 2.811691,-0.3182 0.46641,-0.04969 0.931449,-0.09716 1.394878,-0.142397 0.463428,-0.04524 0.925418,-0.08791 1.385208,-0.127692 0.45978,-0.03979 0.91766,-0.07678 1.37314,-0.110129 0.45548,-0.03335 0.90832,-0.06329 1.35884,-0.08921 0.45051,-0.02592 0.89839,-0.04773 1.34327,-0.06523 0.44489,-0.0175 0.8871,-0.03094 1.32569,-0.03903 0.43859,-0.0081 0.87386,-0.01115 1.30549,-0.0088 0.43163,0.0023 0.85939,0.01037 1.28341,0.02408 0.42401,0.01371 0.84419,0.03346 1.25992,0.05956 0.41574,0.02609 0.82726,0.05842 1.23406,0.09789 0.40679,0.03947 0.80875,0.08575 1.20593,0.139582 0.39719,0.05383 0.78965,0.115146 1.17658,0.184336 0.19346,0.0346 0.3852,0.07118 0.57597,0.109805 0.19077,0.03862 0.38035,0.07952 0.56834,0.122292 0.188,0.04277 0.37444,0.08753 0.55958,0.134575 0.18514,0.04704 0.36889,0.09641 0.55109,0.14785 0.1822,0.05144 0.3628,0.104818 0.54198,0.160774 0.17918,0.05596 0.35708,0.114091 0.53315,0.174692 0.17607,0.0606 0.35044,0.12353 0.52333,0.1889 0.17288,0.06537 0.34404,0.133339 0.51366,0.203599 0.16961,0.0703 0.33772,0.14304 0.50398,0.21831 0.16626,0.0753 0.33114,0.15324 0.49396,0.23366 0.16283,0.0804 0.3235,0.16311 0.48281,0.24879 0.1593,0.0857 0.31687,0.17422 0.47257,0.26528 0.15571,0.0911 0.30969,0.18484 0.46171,0.28142 0.012,0.008 0.0235,0.0158 0.0355,0.0235 A 34.999998,34.999998 0 0 0 85.102185,91.428738 34.999998,34.999998 0 0 0 70.396438,100.13302 Z" />
    </g>
  </g>
</svg>
