<?xml version="1.0" encoding="UTF-8" standalone="no"?>
<!-- Created with Inkscape (http://www.inkscape.org/) -->

<svg
   width="120mm"
   height="120mm"
   viewBox="0 0 120 120"
   version="1.1"
   id="svg5"
   inkscape:version="1.2.2 (b0a8486541, 2022-12-01)"
   sodipodi:docname="logo.svg"
   xmlns:inkscape="http://www.inkscape.org/namespaces/inkscape"
   xmlns:sodipodi="http://sodipodi.sourceforge.net/DTD/sodipodi-0.dtd"
   xmlns:xlink="http://www.w3.org/1999/xlink"
   xmlns="http://www.w3.org/2000/svg"
   xmlns:svg="http://www.w3.org/2000/svg">
  <sodipodi:namedview
     id="namedview7"
     pagecolor="#ffffff"
     bordercolor="#111111"
     borderopacity="1"
     inkscape:showpageshadow="0"
     inkscape:pageopacity="0"
     inkscape:pagecheckerboard="1"
     inkscape:deskcolor="#d1d1d1"
     inkscape:document-units="mm"
     showgrid="false"
     inkscape:zoom="0.2973261"
     inkscape:cx="208.52525"
     inkscape:cy="208.52525"
     inkscape:window-width="2248"
     inkscape:window-height="1488"
     inkscape:window-x="0"
     inkscape:window-y="20"
     inkscape:window-maximized="1"
     inkscape:current-layer="layer1">
    <inkscape:grid
       type="xygrid"
       id="grid686"
       dotted="true"
       originx="-49.999993"
       originy="-80" />
  </sodipodi:namedview>
  <defs
     id="defs2">
    <linearGradient
       inkscape:collect="always"
       id="linearGradient1205">
      <stop
         style="stop-color:#b80053;stop-opacity:1;"
         offset="0"
         id="stop1201" />
      <stop
         style="stop-color:#d67600;stop-opacity:1;"
         offset="1"
         id="stop1203" />
    </linearGradient>
    <linearGradient
       inkscape:collect="always"
       xlink:href="#linearGradient1205"
       id="linearGradient1207"
       x1="70"
       y1="180"
       x2="150"
       y2="100"
       gradientUnits="userSpaceOnUse" />
  </defs>
  <g
     inkscape:label="Layer 1"
     inkscape:groupmode="layer"
     id="layer1"
     transform="translate(-49.999993,-80)">
    <g
       id="g1260"
       transform="matrix(1.2,0,0,1.2,-21.999998,-28)">
      <circle
         style="opacity:1;fill:url(#linearGradient1207);fill-opacity:1;stroke:none;stroke-width:0.1;stroke-dasharray:none;stroke-opacity:1;stop-color:#000000"
         id="path1139"
         cx="109.99999"
         cy="140"
         r="50" />
      <path
         id="path1015"
         style="opacity:0.432629;mix-blend-mode:normal;fill:#eabb00;fill-opacity:0.649389;stroke-width:0.0351173;stop-color:#000000"
         d="m 80.977844,110.97027 a 76.070978,76.103502 45 0 1 0.483436,1.18859 76.070978,76.103502 45 0 1 0.652112,1.7188 76.070978,76.103502 45 0 1 0.610014,1.73438 76.070978,76.103502 45 0 1 0.5676,1.74851 76.070978,76.103502 45 0 1 0.525714,1.76214 76.070978,76.103502 45 0 1 0.482716,1.77373 76.070978,76.103502 45 0 1 0.439369,1.78524 76.070978,76.103502 45 0 1 0.396547,1.79553 76.070978,76.103502 45 0 1 0.352968,1.80411 76.070978,76.103502 45 0 1 0.308839,1.81223 76.070978,76.103502 45 0 1 0.265644,1.81957 76.070978,76.103502 45 0 1 0.221183,1.82559 76.070978,76.103502 45 0 1 0.176645,1.8298 76.070978,76.103502 45 0 1 0.133017,1.83413 76.070978,76.103502 45 0 1 0.08895,1.83572 76.070978,76.103502 45 0 1 0.04409,1.83843 76.070978,76.103502 45 0 1 -7.37e-4,1.83882 76.070978,76.103502 45 0 1 -0.0444,1.83799 76.070978,76.103502 45 0 1 -0.08904,1.83674 76.070978,76.103502 45 0 1 -0.133406,1.83374 76.070978,76.103502 45 0 1 -0.178002,1.83029 76.070978,76.103502 45 0 1 -0.222348,1.82525 76.070978,76.103502 45 0 1 -0.265558,1.81959 76.070978,76.103502 45 0 1 -0.310552,1.81242 76.070978,76.103502 45 0 1 -0.353252,1.80468 76.070978,76.103502 45 0 1 -0.396935,1.79526 76.070978,76.103502 45 0 1 -0.440492,1.78507 76.070978,76.103502 45 0 1 -0.483915,1.77427 76.070978,76.103502 45 0 1 -0.526094,1.76197 76.070978,76.103502 45 0 1 -0.568398,1.74869 76.070978,76.103502 45 0 1 -0.610762,1.73461 76.070978,76.103502 45 0 1 -0.652414,1.71961 76.070978,76.103502 45 0 1 -0.48477,1.18905 76.070978,76.103502 45 0 1 3.869213,-1.51968 76.070978,76.103502 45 0 1 5.437291,-1.67832 76.070978,76.103502 45 0 1 5.548034,-1.26728 76.070978,76.103502 45 0 1 5.626609,-0.84895 76.070978,76.103502 45 0 1 5.67409,-0.42684 76.070978,76.103502 45 0 1 5.68973,-0.001 76.070978,76.103502 45 0 1 5.67423,0.42401 76.070978,76.103502 45 0 1 5.62629,0.84737 76.070978,76.103502 45 0 1 5.54704,1.26446 76.070978,76.103502 45 0 1 5.43657,1.67595 76.070978,76.103502 45 0 1 3.91555,1.53606 76.070978,76.103502 45 0 1 -1.53601,-3.91557 76.070978,76.103502 45 0 1 -1.67595,-5.4366 76.070978,76.103502 45 0 1 -1.26489,-5.5466 76.070978,76.103502 45 0 1 -0.84703,-5.62665 76.070978,76.103502 45 0 1 -0.42397,-5.6743 76.070978,76.103502 45 0 1 0.001,-5.68976 76.070978,76.103502 45 0 1 0.42685,-5.674 76.070978,76.103502 45 0 1 0.84897,-5.6266 76.070978,76.103502 45 0 1 1.26729,-5.54799 76.070978,76.103502 45 0 1 1.67833,-5.43739 76.070978,76.103502 45 0 1 1.50204,-3.9015 76.070978,76.103502 45 0 1 -3.87988,1.52353 76.070978,76.103502 45 0 1 -5.43773,1.67795 76.070978,76.103502 45 0 1 -5.54752,1.26771 76.070978,76.103502 45 0 1 -5.62672,0.84903 76.070978,76.103502 45 0 1 -5.67438,0.42635 76.070978,76.103502 45 0 1 -5.68976,10e-4 76.070978,76.103502 45 0 1 -5.67429,-0.42393 76.070978,76.103502 45 0 1 -5.626257,-0.84659 76.070978,76.103502 45 0 1 -5.546612,-1.26492 76.070978,76.103502 45 0 1 -5.437021,-1.67642 76.070978,76.103502 45 0 1 -3.868553,-1.51723 z" />
      <path
         id="path1015-5"
         style="opacity:0.432629;mix-blend-mode:normal;fill:#ffcc00;fill-opacity:0.649389;stroke-width:0.0391203;stop-color:#000000"
         d="m 92.505594,97.758188 a 84.742467,84.778702 67.5 0 1 -0.0092,1.429407 84.742467,84.778702 67.5 0 1 -0.06183,2.047025 84.742467,84.778702 67.5 0 1 -0.11159,2.04504 84.742467,84.778702 67.5 0 1 -0.161066,2.0415 84.742467,84.778702 67.5 0 1 -0.21017,2.03771 84.742467,84.778702 67.5 0 1 -0.259348,2.03123 84.742467,84.778702 67.5 0 1 -0.308878,2.02469 84.742467,84.778702 67.5 0 1 -0.357345,2.01705 84.742467,84.778702 67.5 0 1 -0.405809,2.00727 84.742467,84.778702 67.5 0 1 -0.454733,1.99681 84.742467,84.778702 67.5 0 1 -0.502278,1.98594 84.742467,84.778702 67.5 0 1 -0.550608,1.97309 84.742467,84.778702 67.5 0 1 -0.598234,1.95854 84.742467,84.778702 67.5 0 1 -0.644988,1.94435 84.742467,84.778702 67.5 0 1 -0.691067,1.92734 84.742467,84.778702 67.5 0 1 -0.738298,1.91085 84.742467,84.778702 67.5 0 1 -0.78477,1.89219 84.742467,84.778702 67.5 0 1 -0.829271,1.87271 84.742467,84.778702 67.5 0 1 -0.874679,1.85238 84.742467,84.778702 67.5 0 1 -0.919023,1.83042 84.742467,84.778702 67.5 0 1 -0.963399,1.80789 84.742467,84.778702 67.5 0 1 -1.006924,1.78368 84.742467,84.778702 67.5 0 1 -1.049043,1.75955 84.742467,84.778702 67.5 0 1 -1.092194,1.73295 84.742467,84.778702 67.5 0 1 -1.132948,1.70678 84.742467,84.778702 67.5 0 1 -1.173808,1.67852 84.742467,84.778702 67.5 0 1 -1.214329,1.64935 84.742467,84.778702 67.5 0 1 -1.254304,1.61992 84.742467,84.778702 67.5 0 1 -1.292561,1.58914 84.742467,84.778702 67.5 0 1 -1.330478,1.55747 84.742467,84.778702 67.5 0 1 -1.36805,1.52486 84.742467,84.778702 67.5 0 1 -1.404361,1.49181 84.742467,84.778702 67.5 0 1 -1.005809,1.01713 84.742467,84.778702 67.5 0 1 4.62999,0.0853 84.742467,84.778702 67.5 0 1 6.311548,0.59065 84.742467,84.778702 67.5 0 1 6.250213,1.06088 84.742467,84.778702 67.5 0 1 6.152845,1.52492 84.742467,84.778702 67.5 0 1 6.021621,1.97957 84.742467,84.778702 67.5 0 1 5.856282,2.42453 84.742467,84.778702 67.5 0 1 5.65916,2.85533 84.742467,84.778702 67.5 0 1 5.42928,3.27066 84.742467,84.778702 67.5 0 1 5.16991,3.66614 84.742467,84.778702 67.5 0 1 4.88084,4.04257 84.742467,84.778702 67.5 0 1 3.37506,3.25009 84.742467,84.778702 67.5 0 1 0.0883,-4.68473 84.742467,84.778702 67.5 0 1 0.5927,-6.30976 84.742467,84.778702 67.5 0 1 1.06276,-6.24778 84.742467,84.778702 67.5 0 1 1.52693,-6.15201 84.742467,84.778702 67.5 0 1 1.98267,-6.02069 84.742467,84.778702 67.5 0 1 2.4266,-5.85541 84.742467,84.778702 67.5 0 1 2.8581,-5.65774 84.742467,84.778702 67.5 0 1 3.27241,-5.42895 84.742467,84.778702 67.5 0 1 3.66946,-5.16974 84.742467,84.778702 67.5 0 1 4.04528,-4.88058 84.742467,84.778702 67.5 0 1 3.20891,-3.3754 84.742467,84.778702 67.5 0 1 -4.64268,-0.0858 84.742467,84.778702 67.5 0 1 -6.31176,-0.5913 84.742467,84.778702 67.5 0 1 -6.24999,-1.06026 84.742467,84.778702 67.5 0 1 -6.15282,-1.52486 84.742467,84.778702 67.5 0 1 -6.02185,-1.98025 84.742467,84.778702 67.5 0 1 -5.85631,-2.42452 84.742467,84.778702 67.5 0 1 -5.65913,-2.85529 84.742467,84.778702 67.5 0 1 -5.42963,-3.2698 84.742467,84.778702 67.5 0 1 -5.16934,-3.66639 84.742467,84.778702 67.5 0 1 -4.881072,-4.04321 84.742467,84.778702 67.5 0 1 -3.334679,-3.21069 z" />
      <path
         id="path1015-5-3"
         style="opacity:0.432629;mix-blend-mode:normal;fill:#ffffff;fill-opacity:0.649389;stroke-width:0.0351173;stop-color:#000000"
         d="m 68.95314,139.98722 a 76.070978,76.103503 0 0 1 1.182284,0.49868 76.070978,76.103503 0 0 1 1.676538,0.75431 76.070978,76.103503 0 0 1 1.657731,0.79504 76.070978,76.103503 0 0 1 1.637713,0.83504 76.070978,76.103503 0 0 1 1.617765,0.87424 76.070978,76.103503 0 0 1 1.595532,0.91288 76.070978,76.103503 0 0 1 1.573018,0.95168 76.070978,76.103503 0 0 1 1.550074,0.98925 76.070978,76.103503 0 0 1 1.525272,1.02614 76.070978,76.103503 0 0 1 1.49982,1.06303 76.070978,76.103503 0 0 1 1.474462,1.09879 76.070978,76.103503 0 0 1 1.447274,1.13448 76.070978,76.103503 0 0 1 1.418785,1.16897 76.070978,76.103503 0 0 1 1.390961,1.20284 76.070978,76.103503 0 0 1 1.360987,1.2352 76.070978,76.103503 0 0 1 1.331154,1.26875 76.070978,76.103503 0 0 1 1.299711,1.30073 76.070978,76.103503 0 0 1 1.268253,1.3311 76.070978,76.103503 0 0 1 1.235799,1.36174 76.070978,76.103503 0 0 1 1.202308,1.391 76.070978,76.103503 0 0 1 1.168352,1.42007 76.070978,76.103503 0 0 1 1.133377,1.44787 76.070978,76.103503 0 0 1 1.09891,1.47443 76.070978,76.103503 0 0 1 1.06199,1.50118 76.070978,76.103503 0 0 1 1.02628,1.52587 76.070978,76.103503 0 0 1 0.9888,1.55012 76.070978,76.103503 0 0 1 0.95075,1.57371 76.070978,76.103503 0 0 1 0.91244,1.5968 76.070978,76.103503 0 0 1 0.87387,1.61791 76.070978,76.103503 0 0 1 0.83463,1.63843 76.070978,76.103503 0 0 1 0.79465,1.6584 76.070978,76.103503 0 0 1 0.75459,1.67728 76.070978,76.103503 0 0 1 0.49799,1.18361 76.070978,76.103503 0 0 1 1.66141,-3.81054 76.070978,76.103503 0 0 1 2.65799,-5.03147 76.070978,76.103503 0 0 1 3.02699,-4.81921 76.070978,76.103503 0 0 1 3.37823,-4.57894 76.070978,76.103503 0 0 1 3.71037,-4.31396 76.070978,76.103503 0 0 1 4.02254,-4.02398 76.070978,76.103503 0 0 1 4.31206,-3.71254 76.070978,76.103503 0 0 1 4.57764,-3.37911 76.070978,76.103503 0 0 1 4.81638,-3.02821 76.070978,76.103503 0 0 1 5.02943,-2.65918 76.070978,76.103503 0 0 1 3.85489,-1.68267 76.070978,76.103503 0 0 1 -3.85487,-1.68253 76.070978,76.103503 0 0 1 -5.02942,-2.65916 76.070978,76.103503 0 0 1 -4.81641,-3.02759 76.070978,76.103503 0 0 1 -4.57763,-3.37975 76.070978,76.103503 0 0 1 -4.31209,-3.71252 76.070978,76.103503 0 0 1 -4.02256,-4.02399 76.070978,76.103503 0 0 1 -3.71035,-4.31392 76.070978,76.103503 0 0 1 -3.37821,-4.57898 76.070978,76.103503 0 0 1 -3.02697,-4.81908 76.070978,76.103503 0 0 1 -2.65801,-5.03152 76.070978,76.103503 0 0 1 -1.69671,-3.820999 76.070978,76.103503 0 0 1 -1.66614,3.820849 76.070978,76.103503 0 0 1 -2.65859,5.03155 76.070978,76.103503 0 0 1 -3.02632,4.81911 76.070978,76.103503 0 0 1 -3.378355,4.57895 76.070978,76.103503 0 0 1 -3.710873,4.31392 76.070978,76.103503 0 0 1 -4.022535,4.02398 76.070978,76.103503 0 0 1 -4.312139,3.7125 76.070978,76.103503 0 0 1 -4.57697,3.37978 76.070978,76.103503 0 0 1 -4.816452,3.02761 76.070978,76.103503 0 0 1 -5.029983,2.65914 76.070978,76.103503 0 0 1 -3.808312,1.66258 z" />
      <path
         id="path1015-5-3-5"
         style="opacity:0.432629;mix-blend-mode:normal;fill:#ffdd55;fill-opacity:0.649389;stroke-width:0.0391203;stop-color:#000000"
         d="m 67.757562,122.48904 a 84.742467,84.778702 22.5 0 1 1.004242,1.01718 84.742467,84.778702 22.5 0 1 1.403912,1.49105 84.742467,84.778702 22.5 0 1 1.367196,1.52495 84.742467,84.778702 22.5 0 1 1.329558,1.55756 84.742467,84.778702 22.5 0 1 1.292277,1.58948 84.742467,84.778702 22.5 0 1 1.252953,1.61971 84.742467,84.778702 22.5 0 1 1.213241,1.65003 84.742467,84.778702 22.5 0 1 1.173597,1.67896 84.742467,84.778702 22.5 0 1 1.132371,1.70629 84.742467,84.778702 22.5 0 1 1.090418,1.73346 84.742467,84.778702 22.5 0 1 1.049088,1.75945 84.742467,84.778702 22.5 0 1 1.005895,1.78457 84.742467,84.778702 22.5 0 1 0.961863,1.80794 84.742467,84.778702 22.5 0 1 0.918788,1.83094 84.742467,84.778702 22.5 0 1 0.874158,1.85143 84.742467,84.778702 22.5 0 1 0.829132,1.87329 84.742467,84.778702 22.5 0 1 0.783134,1.8928 84.742467,84.778702 22.5 0 1 0.737831,1.91061 84.742467,84.778702 22.5 0 1 0.691357,1.92834 84.742467,84.778702 22.5 0 1 0.644432,1.94415 84.742467,84.778702 22.5 0 1 0.597065,1.95959 84.742467,84.778702 22.5 0 1 0.549257,1.97328 84.742467,84.778702 22.5 0 1 0.502422,1.986 84.742467,84.778702 22.5 0 1 0.453007,1.99767 84.742467,84.778702 22.5 0 1 0.405798,2.00801 84.742467,84.778702 22.5 0 1 0.356794,2.01686 84.742467,84.778702 22.5 0 1 0.307638,2.02496 84.742467,84.778702 22.5 0 1 0.258354,2.0324 84.742467,84.778702 22.5 0 1 0.209676,2.03767 84.742467,84.778702 22.5 0 1 0.160493,2.04207 84.742467,84.778702 22.5 0 1 0.11088,2.04562 84.742467,84.778702 22.5 0 1 0.0616,2.04789 84.742467,84.778702 22.5 0 1 0.008,1.43049 84.742467,84.778702 22.5 0 1 3.334307,-3.21355 84.742467,84.778702 22.5 0 1 4.880554,-4.04525 84.742467,84.778702 22.5 0 1 5.16974,-3.66945 84.742467,84.778702 22.5 0 1 5.42898,-3.27245 84.742467,84.778702 22.5 0 1 5.65771,-2.85814 84.742467,84.778702 22.5 0 1 5.85542,-2.42663 84.742467,84.778702 22.5 0 1 6.02064,-1.9826 84.742467,84.778702 22.5 0 1 6.15179,-1.52636 84.742467,84.778702 22.5 0 1 6.24799,-1.06339 84.742467,84.778702 22.5 0 1 6.30981,-0.59271 84.742467,84.778702 22.5 0 1 4.68474,-0.0883 84.742467,84.778702 22.5 0 1 -3.25013,-3.37506 84.742467,84.778702 22.5 0 1 -4.04256,-4.88089 84.742467,84.778702 22.5 0 1 -3.66637,-5.16926 84.742467,84.778702 22.5 0 1 -3.27042,-5.42986 84.742467,84.778702 22.5 0 1 -2.85532,-5.6592 84.742467,84.778702 22.5 0 1 -2.42455,-5.8563 84.742467,84.778702 22.5 0 1 -1.97959,-6.0216 84.742467,84.778702 22.5 0 1 -1.52486,-6.15283 84.742467,84.778702 22.5 0 1 -1.06089,-6.25021 84.742467,84.778702 22.5 0 1 -0.59064,-6.31152 84.742467,84.778702 22.5 0 1 -0.11733,-4.655816 84.742467,84.778702 22.5 0 1 -3.34365,3.222046 84.742467,84.778702 22.5 0 1 -4.88116,4.04506 84.742467,84.778702 22.5 0 1 -5.1691,3.6697 84.742467,84.778702 22.5 0 1 -5.429,3.27245 84.742467,84.778702 22.5 0 1 -5.65828,2.85785 84.742467,84.778702 22.5 0 1 -5.855422,2.42664 84.742467,84.778702 22.5 0 1 -6.020711,1.98262 84.742467,84.778702 22.5 0 1 -6.151389,1.5272 84.742467,84.778702 22.5 0 1 -6.247768,1.06274 84.742467,84.778702 22.5 0 1 -6.310437,0.59245 84.742467,84.778702 22.5 0 1 -4.628289,0.0877 z" />
    </g>
  </g>
</svg>
