<?xml version="1.0" encoding="UTF-8" standalone="no"?>
<!-- Created with Inkscape (http://www.inkscape.org/) -->

<svg
   width="119.99777mm"
   height="120mm"
   viewBox="0 0 119.99777 120"
   version="1.1"
   id="svg5"
   inkscape:version="1.2.2 (b0a8486541, 2022-12-01)"
   sodipodi:docname="logo.svg"
   xmlns:inkscape="http://www.inkscape.org/namespaces/inkscape"
   xmlns:sodipodi="http://sodipodi.sourceforge.net/DTD/sodipodi-0.dtd"
   xmlns:xlink="http://www.w3.org/1999/xlink"
   xmlns="http://www.w3.org/2000/svg"
   xmlns:svg="http://www.w3.org/2000/svg">
  <sodipodi:namedview
     id="namedview7"
     pagecolor="#ffffff"
     bordercolor="#111111"
     borderopacity="1"
     inkscape:showpageshadow="0"
     inkscape:pageopacity="0"
     inkscape:pagecheckerboard="1"
     inkscape:deskcolor="#d1d1d1"
     inkscape:document-units="mm"
     showgrid="false"
     inkscape:zoom="0.5946522"
     inkscape:cx="227.02346"
     inkscape:cy="381.73574"
     inkscape:window-width="2248"
     inkscape:window-height="1488"
     inkscape:window-x="0"
     inkscape:window-y="20"
     inkscape:window-maximized="1"
     inkscape:current-layer="layer1">
    <inkscape:grid
       type="xygrid"
       id="grid686"
       dotted="true"
       originx="-45.001118"
       originy="-85.001024" />
  </sodipodi:namedview>
  <defs
     id="defs2">
    <linearGradient
       inkscape:collect="always"
       id="linearGradient966">
      <stop
         style="stop-color:#000038;stop-opacity:1;"
         offset="0"
         id="stop962" />
      <stop
         style="stop-color:#310038;stop-opacity:1;"
         offset="1"
         id="stop964" />
    </linearGradient>
    <linearGradient
       inkscape:collect="always"
       xlink:href="#linearGradient966"
       id="linearGradient1128"
       gradientUnits="userSpaceOnUse"
       x1="70"
       y1="190"
       x2="140"
       y2="90"
       gradientTransform="translate(73.048884,-126.3293)" />
    <linearGradient
       inkscape:collect="always"
       xlink:href="#linearGradient966"
       id="linearGradient1451"
       gradientUnits="userSpaceOnUse"
       gradientTransform="matrix(0.81,0,0,0.81,92.998883,-98.779301)"
       x1="70"
       y1="190"
       x2="140"
       y2="90" />
    <linearGradient
       inkscape:collect="always"
       xlink:href="#linearGradient966"
       id="linearGradient1487"
       gradientUnits="userSpaceOnUse"
       gradientTransform="matrix(0.729,0,0,0.729,101.50388,-87.034302)"
       x1="70"
       y1="190"
       x2="140"
       y2="90" />
    <linearGradient
       inkscape:collect="always"
       xlink:href="#linearGradient966"
       id="linearGradient1596"
       gradientUnits="userSpaceOnUse"
       gradientTransform="matrix(0.40868665,0,0,0.40868665,135.13678,-40.588867)"
       x1="70"
       y1="190"
       x2="140"
       y2="90" />
  </defs>
  <g
     inkscape:label="Layer 1"
     inkscape:groupmode="layer"
     id="layer1"
     transform="translate(-45.001119,-85.001023)">
    <g
       id="g1616"
       transform="matrix(1.0908889,0,0,1.0908889,-9.5433357,-13.178985)">
      <circle
         style="fill:url(#linearGradient1128);fill-opacity:1;stroke:none;stroke-width:0.1;stop-color:#000000"
         id="path790-3"
         cx="178.04889"
         cy="18.670694"
         r="54.999996"
         transform="rotate(48.103962)" />
      <path
         id="path1131"
         style="opacity:1;fill:#ffffff;fill-opacity:0.121003;stroke:none;stroke-width:0.1;stroke-opacity:1;stop-color:#000000"
         d="m 99.774516,163.67383 a 19.4041,19.4041 79.303045 0 1 -0.804304,-0.23025 19.4041,19.4041 79.303045 0 1 -1.361517,-0.50235 19.4041,19.4041 79.303045 0 1 -1.319882,-0.60219 19.4041,19.4041 79.303045 0 1 -1.271397,-0.69983 19.4041,19.4041 79.303045 0 1 -1.215509,-0.79232 19.4041,19.4041 79.303045 0 1 -1.152886,-0.88114 19.4041,19.4041 79.303045 0 1 -1.083921,-0.96522 19.4041,19.4041 79.303045 0 1 -1.008698,-1.04312 19.4041,19.4041 79.303045 0 1 -0.92792,-1.11558 19.4041,19.4041 79.303045 0 1 -0.842,-1.18155 19.4041,19.4041 79.303045 0 1 -0.751299,-1.2414 19.4041,19.4041 79.303045 0 1 -0.656233,-1.29407 19.4041,19.4041 79.303045 0 1 -0.558245,-1.33962 19.4041,19.4041 79.303045 0 1 -0.456277,-1.37764 19.4041,19.4041 79.303045 0 1 -0.351827,-1.40748 19.4041,19.4041 79.303045 0 1 -0.141925,-0.82448 l -35.09119,5.82474 a 54.999996,54.999996 45 0 0 13.28055,27.72761 54.999996,54.999996 45 0 0 26.119695,16.23569 z" />
      <path
         id="path1166"
         style="opacity:1;fill:#ffffff;fill-opacity:0.121003;stroke:none;stroke-width:0.1;stroke-opacity:1;stop-color:#000000"
         d="m 119.81329,92.060129 -9.58803,34.266381 a 19.4041,19.4041 79.303045 0 1 0.80431,0.23024 19.4041,19.4041 79.303045 0 1 1.36156,0.50163 19.4041,19.4041 79.303045 0 1 1.31983,0.60292 19.4041,19.4041 79.303045 0 1 1.27179,0.69948 19.4041,19.4041 79.303045 0 1 1.21551,0.79233 19.4041,19.4041 79.303045 0 1 1.15288,0.88113 19.4041,19.4041 79.303045 0 1 1.08358,0.96483 19.4041,19.4041 79.303045 0 1 1.00869,1.04312 19.4041,19.4041 79.303045 0 1 0.32909,0.3761 19.4041,19.4041 79.303045 0 1 0.31873,0.3847 19.4041,19.4041 79.303045 0 1 0.30916,0.39259 19.4041,19.4041 79.303045 0 1 0.29885,0.40045 19.4041,19.4041 79.303045 0 1 0.28854,0.4083 19.4041,19.4041 79.303045 0 1 0.27794,0.41504 19.4041,19.4041 79.303045 0 1 0.26694,0.42214 19.4041,19.4041 79.303045 0 1 0.25594,0.42923 19.4041,19.4041 79.303045 0 1 0.24498,0.43558 19.4041,19.4041 79.303045 0 1 0.23368,0.44157 19.4041,19.4041 79.303045 0 1 0.22238,0.44752 19.4041,19.4041 79.303045 0 1 0.21073,0.45313 19.4041,19.4041 79.303045 0 1 0.19873,0.45833 19.4041,19.4041 79.303045 0 1 0.18675,0.46353 19.4041,19.4041 79.303045 0 1 0.17518,0.46766 19.4041,19.4041 79.303045 0 1 0.16285,0.47248 19.4041,19.4041 79.303045 0 1 0.15054,0.47657 19.4041,19.4041 79.303045 0 1 0.13828,0.47994 19.4041,19.4041 79.303045 0 1 0.12637,0.48368 19.4041,19.4041 79.303045 0 1 0.11303,0.48661 19.4041,19.4041 79.303045 0 1 0.10083,0.48925 19.4041,19.4041 79.303045 0 1 0.0886,0.49187 19.4041,19.4041 79.303045 0 1 5e-4,0.004 L 159.2203,136 a 54.999996,54.999996 45 0 0 -13.28091,-27.72799 54.999996,54.999996 45 0 0 -26.1261,-16.211881 z" />
      <circle
         style="fill:url(#linearGradient1451);fill-opacity:1;stroke:none;stroke-width:0.081;stop-color:#000000"
         id="path790-3-5"
         cx="178.04889"
         cy="18.670694"
         r="44.549995"
         transform="rotate(48.103962)" />
      <path
         id="path1131-6"
         style="fill:#ffffff;fill-opacity:0.121003;stroke:none;stroke-width:0.1;stroke-opacity:1;stop-color:#000000"
         d="m 101.42151,164.05859 a 19.4041,19.4041 79.303045 0 1 -0.8213,-0.15928 19.4041,19.4041 79.303045 0 1 -1.400122,-0.38177 19.4041,19.4041 79.303045 0 1 -1.367345,-0.48487 19.4041,19.4041 79.303045 0 1 -1.32756,-0.58636 19.4041,19.4041 79.303045 0 1 -1.279931,-0.68336 19.4041,19.4041 79.303045 0 1 -1.225301,-0.77731 19.4041,19.4041 79.303045 0 1 -1.163925,-0.86707 19.4041,19.4041 79.303045 0 1 -1.095792,-0.9512 19.4041,19.4041 79.303045 0 1 -1.021605,-1.03049 19.4041,19.4041 79.303045 0 1 -0.941773,-1.10368 19.4041,19.4041 79.303045 0 1 -0.856632,-1.17119 19.4041,19.4041 79.303045 0 1 -0.766519,-1.23195 19.4041,19.4041 79.303045 0 1 -0.672882,-1.28587 19.4041,19.4041 79.303045 0 1 -0.574603,-1.33263 19.4041,19.4041 79.303045 0 1 -0.473161,-1.37146 19.4041,19.4041 79.303045 0 1 -0.213242,-0.80897 l -34.450003,8.86098 a 54.999996,54.999996 45 0 0 15.646638,26.46461 54.999996,54.999996 45 0 0 27.435335,13.89743 z" />
      <path
         id="path1166-2"
         style="fill:#ffffff;fill-opacity:0.121003;stroke:none;stroke-width:0.1;stroke-opacity:1;stop-color:#000000"
         d="m 115.14249,90.970902 -6.56503,34.971638 a 19.4041,19.4041 79.303045 0 1 0.82132,0.15927 19.4041,19.4041 79.303045 0 1 1.40009,0.38105 19.4041,19.4041 79.303045 0 1 1.36736,0.48559 19.4041,19.4041 79.303045 0 1 1.32791,0.58598 19.4041,19.4041 79.303045 0 1 1.27995,0.68337 19.4041,19.4041 79.303045 0 1 1.22528,0.7773 19.4041,19.4041 79.303045 0 1 1.16354,0.86672 19.4041,19.4041 79.303045 0 1 1.09581,0.9512 19.4041,19.4041 79.303045 0 1 0.36076,0.34583 19.4041,19.4041 79.303045 0 1 0.35109,0.35541 19.4041,19.4041 79.303045 0 1 0.34224,0.36412 19.4041,19.4041 79.303045 0 1 0.33293,0.3726 19.4041,19.4041 79.303045 0 1 0.32302,0.38162 19.4041,19.4041 79.303045 0 1 0.31305,0.38923 19.4041,19.4041 79.303045 0 1 0.30269,0.3973 19.4041,19.4041 79.303045 0 1 0.29238,0.40528 19.4041,19.4041 79.303045 0 1 0.282,0.41258 19.4041,19.4041 79.303045 0 1 0.2713,0.4195 19.4041,19.4041 79.303045 0 1 0.26056,0.42642 19.4041,19.4041 79.303045 0 1 0.24943,0.43304 19.4041,19.4041 79.303045 0 1 0.23791,0.43925 19.4041,19.4041 79.303045 0 1 0.22644,0.44549 19.4041,19.4041 79.303045 0 1 0.21527,0.45062 19.4041,19.4041 79.303045 0 1 0.20341,0.4565 19.4041,19.4041 79.303045 0 1 0.1915,0.46163 19.4041,19.4041 79.303045 0 1 0.17958,0.46605 19.4041,19.4041 79.303045 0 1 0.16805,0.47084 19.4041,19.4041 79.303045 0 1 0.15502,0.4749 19.4041,19.4041 79.303045 0 1 0.14308,0.4786 19.4041,19.4041 79.303045 0 1 0.13112,0.48228 19.4041,19.4041 79.303045 0 1 4.4e-4,0.005 l 34.43717,-8.85807 A 54.999996,54.999996 45 0 0 142.58213,104.84406 54.999996,54.999996 45 0 0 115.14249,90.970902 Z" />
      <circle
         style="fill:url(#linearGradient1487);fill-opacity:1;stroke:none;stroke-width:0.0729;stop-color:#000000"
         id="path790-3-5-2"
         cx="178.04889"
         cy="18.670694"
         r="40.094997"
         transform="rotate(48.103962)" />
      <path
         id="path1131-6-2"
         style="fill:#ffffff;fill-opacity:0.121003;stroke:none;stroke-width:0.1;stroke-opacity:1;stop-color:#000000"
         d="m 106.47449,164.33673 a 19.4041,19.4041 79.303045 0 1 -0.83454,0.0587 19.4041,19.4041 79.303045 0 1 -1.45122,-0.006 19.4041,19.4041 79.303045 0 1 -1.44625,-0.11445 19.4041,19.4041 79.303045 0 1 -1.43408,-0.22279 19.4041,19.4041 79.303045 0 1 -1.413179,-0.3288 19.4041,19.4041 79.303045 0 1 -1.384742,-0.43371 19.4041,19.4041 79.303045 0 1 -1.348674,-0.53627 19.4041,19.4041 79.303045 0 1 -1.304638,-0.63518 19.4041,19.4041 79.303045 0 1 -1.253507,-0.73095 19.4041,19.4041 79.303045 0 1 -1.19538,-0.82229 19.4041,19.4041 79.303045 0 1 -1.130552,-0.90959 19.4041,19.4041 79.303045 0 1 -1.059242,-0.99159 19.4041,19.4041 79.303045 0 1 -0.98276,-1.0679 19.4041,19.4041 79.303045 0 1 -0.899938,-1.13851 19.4041,19.4041 79.303045 0 1 -0.811999,-1.20226 19.4041,19.4041 79.303045 0 1 -0.415347,-0.72623 l -30.982754,17.47537 a 54.999996,54.999996 45 0 0 21.963036,21.51321 54.999996,54.999996 45 0 0 30.097406,6.3231 z" />
      <path
         id="path1166-2-7"
         style="fill:#ffffff;fill-opacity:0.121003;stroke:none;stroke-width:0.1;stroke-opacity:1;stop-color:#000000"
         d="m 100.81146,90.188197 2.70999,35.479163 a 19.4041,19.4041 79.303045 0 1 0.83455,-0.0587 19.4041,19.4041 79.303045 0 1 1.45101,0.006 19.4041,19.4041 79.303045 0 1 1.44645,0.11515 19.4041,19.4041 79.303045 0 1 1.43433,0.22232 19.4041,19.4041 79.303045 0 1 1.4132,0.32881 19.4041,19.4041 79.303045 0 1 1.38471,0.43369 19.4041,19.4041 79.303045 0 1 1.34823,0.53605 19.4041,19.4041 79.303045 0 1 1.30465,0.63517 19.4041,19.4041 79.303045 0 1 0.43798,0.24066 19.4041,19.4041 79.303045 0 1 0.43112,0.25243 19.4041,19.4041 79.303045 0 1 0.42484,0.26311 19.4041,19.4041 79.303045 0 1 0.41796,0.27381 19.4041,19.4041 79.303045 0 1 0.41078,0.28501 19.4041,19.4041 79.303045 0 1 0.40318,0.29489 19.4041,19.4041 79.303045 0 1 0.39543,0.30511 19.4041,19.4041 79.303045 0 1 0.38762,0.31541 19.4041,19.4041 79.303045 0 1 0.37913,0.32557 19.4041,19.4041 79.303045 0 1 0.37085,0.33476 19.4041,19.4041 79.303045 0 1 0.36214,0.34436 19.4041,19.4041 79.303045 0 1 0.35303,0.35368 19.4041,19.4041 79.303045 0 1 0.34351,0.36269 19.4041,19.4041 79.303045 0 1 0.334,0.37175 19.4041,19.4041 79.303045 0 1 0.32453,0.37958 19.4041,19.4041 79.303045 0 1 0.31464,0.3883 19.4041,19.4041 79.303045 0 1 0.30448,0.3963 19.4041,19.4041 79.303045 0 1 0.29407,0.40372 19.4041,19.4041 79.303045 0 1 0.2842,0.41128 19.4041,19.4041 79.303045 0 1 0.27263,0.41861 19.4041,19.4041 79.303045 0 1 0.26209,0.42526 19.4041,19.4041 79.303045 0 1 0.25148,0.43189 19.4041,19.4041 79.303045 0 1 4.3e-4,0.005 l 30.97098,-17.46865 A 54.999996,54.999996 45 0 0 130.9066,96.486532 54.999996,54.999996 45 0 0 100.8113,90.187995 Z" />
      <path
         id="path1131-6-2-0"
         style="fill:#ffffff;fill-opacity:0.121003;stroke:none;stroke-width:0.1;stroke-opacity:1;stop-color:#000000"
         d="m 109.80827,163.78778 a 19.4041,19.4041 79.303045 0 1 -0.81167,0.20274 19.4041,19.4041 79.303045 0 1 -1.43028,0.24572 19.4041,19.4041 79.303045 0 1 -1.44416,0.13843 19.4041,19.4041 79.303045 0 1 -1.45098,0.0296 19.4041,19.4041 79.303045 0 1 -1.4488,-0.0784 19.4041,19.4041 79.303045 0 1 -1.43902,-0.18667 19.4041,19.4041 79.303045 0 1 -1.4213,-0.29393 19.4041,19.4041 79.303045 0 1 -1.395126,-0.39897 19.4041,19.4041 79.303045 0 1 -1.361385,-0.50219 19.4041,19.4041 79.303045 0 1 -1.320015,-0.60222 19.4041,19.4041 79.303045 0 1 -1.271319,-0.69944 19.4041,19.4041 79.303045 0 1 -1.215338,-0.79259 19.4041,19.4041 79.303045 0 1 -1.153274,-0.88104 19.4041,19.4041 79.303045 0 1 -1.083972,-0.96493 19.4041,19.4041 79.303045 0 1 -1.008473,-1.04295 19.4041,19.4041 79.303045 0 1 -0.535136,-0.64308 l -27.4775,22.58998 a 54.999996,54.999996 45 0 0 25.365105,17.37254 54.999996,54.999996 45 0 0 30.738153,1.00068 z" />
      <path
         id="path1166-2-7-9"
         style="fill:#ffffff;fill-opacity:0.121003;stroke:none;stroke-width:0.1;stroke-opacity:1;stop-color:#000000"
         d="m 91.355502,91.749109 8.829718,34.469571 a 19.4041,19.4041 79.303045 0 1 0.81167,-0.20276 19.4041,19.4041 79.303045 0 1 1.42995,-0.24635 19.4041,19.4041 79.303045 0 1 1.44448,-0.13778 19.4041,19.4041 79.303045 0 1 1.45114,-0.0301 19.4041,19.4041 79.303045 0 1 1.44883,0.0784 19.4041,19.4041 79.303045 0 1 1.43898,0.18665 19.4041,19.4041 79.303045 0 1 1.42083,0.29378 19.4041,19.4041 79.303045 0 1 1.39513,0.39897 19.4041,19.4041 79.303045 0 1 0.47312,0.16095 19.4041,19.4041 79.303045 0 1 0.46841,0.17373 19.4041,19.4041 79.303045 0 1 0.46406,0.18535 19.4041,19.4041 79.303045 0 1 0.45916,0.19707 19.4041,19.4041 79.303045 0 1 0.45403,0.20935 19.4041,19.4041 79.303045 0 1 0.44826,0.2204 19.4041,19.4041 79.303045 0 1 0.4424,0.2318 19.4041,19.4041 79.303045 0 1 0.43651,0.24331 19.4041,19.4041 79.303045 0 1 0.42991,0.25479 19.4041,19.4041 79.303045 0 1 0.42334,0.26528 19.4041,19.4041 79.303045 0 1 0.41646,0.27621 19.4041,19.4041 79.303045 0 1 0.40909,0.28701 19.4041,19.4041 79.303045 0 1 0.40129,0.29751 19.4041,19.4041 79.303045 0 1 0.39345,0.30813 19.4041,19.4041 79.303045 0 1 0.38553,0.31743 19.4041,19.4041 79.303045 0 1 0.37732,0.32774 19.4041,19.4041 79.303045 0 1 0.36893,0.33712 19.4041,19.4041 79.303045 0 1 0.35988,0.34633 19.4041,19.4041 79.303045 0 1 0.35132,0.35567 19.4041,19.4041 79.303045 0 1 0.34119,0.36489 19.4041,19.4041 79.303045 0 1 0.33209,0.37317 19.4041,19.4041 79.303045 0 1 0.32266,0.38167 19.4041,19.4041 79.303045 0 1 4.4e-4,0.005 l 27.46706,-22.58129 A 54.999996,54.999996 45 0 0 122.08713,92.725791 54.999996,54.999996 45 0 0 91.355319,91.748935 Z" />
      <circle
         style="opacity:0.778047;fill:url(#linearGradient1596);fill-opacity:1;stroke:none;stroke-width:0.0408687;stop-color:#000000"
         id="path790-3-5-2-2"
         cx="178.04889"
         cy="18.670694"
         r="22.477764"
         transform="rotate(48.103962)" />
      <circle
         style="opacity:0.295555;fill:#2e2aee;fill-opacity:1;stroke:none;stroke-width:0.1;stop-color:#000000"
         id="path792-3"
         cx="175.05988"
         cy="18.832781"
         r="15"
         transform="rotate(48.103962)" />
      <circle
         style="opacity:0.295555;fill:#ee642a;fill-opacity:1;stroke:none;stroke-width:0.1;stop-color:#000000"
         id="path792-3-0"
         cx="177.88678"
         cy="15.681672"
         r="15"
         transform="rotate(48.103962)" />
      <circle
         style="opacity:0.290667;fill:#2aee79;fill-opacity:1;stroke:none;stroke-width:0.1;stop-color:#000000"
         id="path792-3-6-2"
         cx="178.211"
         cy="21.659716"
         r="15"
         transform="rotate(48.103962)" />
      <circle
         style="opacity:0.290667;fill:#ee2aec;fill-opacity:1;stroke:none;stroke-width:0.1;stop-color:#000000"
         id="path792-3-6"
         cx="181.0379"
         cy="18.508608"
         r="15"
         transform="rotate(48.103962)" />
      <circle
         style="opacity:0.663823;fill:#fff319;fill-opacity:1;stroke:none;stroke-width:0.1;stop-color:#000000"
         id="path792"
         cx="178.04889"
         cy="18.670694"
         r="15"
         transform="rotate(48.103962)" />
    </g>
  </g>
</svg>
