<?xml version="1.0" encoding="UTF-8" standalone="no"?>
<!-- Created with Inkscape (http://www.inkscape.org/) -->

<svg
   width="120mm"
   height="120mm"
   viewBox="0 0 120 120"
   version="1.1"
   id="svg5"
   inkscape:version="1.2.2 (b0a8486541, 2022-12-01)"
   sodipodi:docname="logo.svg"
   xmlns:inkscape="http://www.inkscape.org/namespaces/inkscape"
   xmlns:sodipodi="http://sodipodi.sourceforge.net/DTD/sodipodi-0.dtd"
   xmlns:xlink="http://www.w3.org/1999/xlink"
   xmlns="http://www.w3.org/2000/svg"
   xmlns:svg="http://www.w3.org/2000/svg">
  <sodipodi:namedview
     id="namedview7"
     pagecolor="#ffffff"
     bordercolor="#111111"
     borderopacity="1"
     inkscape:showpageshadow="0"
     inkscape:pageopacity="0"
     inkscape:pagecheckerboard="1"
     inkscape:deskcolor="#d1d1d1"
     inkscape:document-units="mm"
     showgrid="false"
     inkscape:zoom="0.2973261"
     inkscape:cx="334.6494"
     inkscape:cy="284.19974"
     inkscape:window-width="1903"
     inkscape:window-height="1489"
     inkscape:window-x="0"
     inkscape:window-y="17"
     inkscape:window-maximized="1"
     inkscape:current-layer="layer1">
    <inkscape:grid
       type="xygrid"
       id="grid132"
       dotted="true"
       originx="-40"
       originy="-49.999993" />
  </sodipodi:namedview>
  <defs
     id="defs2">
    <linearGradient
       inkscape:collect="always"
       id="linearGradient1373">
      <stop
         style="stop-color:#fff19b;stop-opacity:1;"
         offset="0"
         id="stop1369" />
      <stop
         style="stop-color:#ffe54c;stop-opacity:1;"
         offset="1"
         id="stop1371" />
    </linearGradient>
    <linearGradient
       inkscape:collect="always"
       xlink:href="#linearGradient1373"
       id="linearGradient1375"
       x1="40"
       y1="110"
       x2="170"
       y2="90"
       gradientUnits="userSpaceOnUse" />
  </defs>
  <g
     inkscape:label="Layer 1"
     inkscape:groupmode="layer"
     id="layer1"
     transform="translate(-40,-49.999993)">
    <g
       id="g1538"
       transform="matrix(0.99987502,0,0,0.99987502,0.01249844,0.01374828)">
      <circle
         style="opacity:1;fill:url(#linearGradient1375);fill-opacity:1;stroke:#b7a9cb;stroke-width:0.015;stop-color:#000000"
         id="path1130"
         cx="100"
         cy="109.99999"
         r="60" />
      <path
         id="path236"
         style="opacity:0.293104;fill:#f17900;fill-opacity:1;stroke:#b7a9cb;stroke-width:0.015;stop-color:#000000"
         d="M 50.199003,114.23334 H 40.154655 a 60,60 0 0 0 55.612109,55.61211 V 159.8011 a 50,50 0 0 1 -1.364774,-0.11524 50,50 0 0 1 -2.777092,-0.39222 50,50 0 0 1 -2.750736,-0.54726 50,50 0 0 1 -2.716113,-0.70073 50,50 0 0 1 -2.672189,-0.85163 50,50 0 0 1 -2.619995,-0.99994 50,50 0 0 1 -2.56005,-1.14566 50,50 0 0 1 -2.491838,-1.28726 50,50 0 0 1 -2.415356,-1.42472 50,50 0 0 1 -2.332158,-1.55856 50,50 0 0 1 -2.241207,-1.68621 50,50 0 0 1 -2.142505,-1.8097 50,50 0 0 1 -2.038118,-1.9265 50,50 0 0 1 -1.926497,-2.03812 50,50 0 0 1 -1.809709,-2.14302 50,50 0 0 1 -1.686719,-2.24069 50,50 0 0 1 -1.558044,-2.33216 50,50 0 0 1 -1.42472,-2.41536 50,50 0 0 1 -1.287259,-2.49183 50,50 0 0 1 -1.145667,-2.56005 50,50 0 0 1 -0.999939,-2.62052 50,50 0 0 1 -0.852144,-2.67218 50,50 0 0 1 -0.700216,-2.7156 50,50 0 0 1 -0.547253,-2.75074 50,50 0 0 1 -0.392224,-2.77709 50,50 0 0 1 -0.115239,-1.36477 z" />
      <path
         id="path1300"
         style="opacity:0.293104;fill:#f19500;fill-opacity:1;stroke:#b7a9cb;stroke-width:0.015;stop-color:#000000"
         d="M 95.766764,50.154561 A 60,60 0 0 0 40.154655,105.76667 h 10.044348 a 50,50 0 0 1 0.115239,-1.36477 50,50 0 0 1 0.392224,-2.7771 50,50 0 0 1 0.547253,-2.750732 50,50 0 0 1 0.700216,-2.715596 50,50 0 0 1 0.852144,-2.672189 50,50 0 0 1 0.999939,-2.620512 50,50 0 0 1 1.145667,-2.56005 50,50 0 0 1 1.287259,-2.491838 50,50 0 0 1 1.42472,-2.415356 50,50 0 0 1 1.558044,-2.332157 50,50 0 0 1 1.686719,-2.24069 50,50 0 0 1 1.809709,-2.143022 50,50 0 0 1 1.926497,-2.038119 50,50 0 0 1 2.038118,-1.926497 50,50 0 0 1 2.142505,-1.809709 50,50 0 0 1 2.241207,-1.686202 50,50 0 0 1 2.332158,-1.558561 50,50 0 0 1 2.415356,-1.424719 50,50 0 0 1 2.491838,-1.28726 50,50 0 0 1 2.56005,-1.145667 50,50 0 0 1 2.619995,-0.999938 50,50 0 0 1 2.672189,-0.851628 50,50 0 0 1 2.716113,-0.700733 50,50 0 0 1 2.750736,-0.547253 50,50 0 0 1 2.777092,-0.392224 50,50 0 0 1 1.364774,-0.115238 z" />
      <path
         id="path1072"
         style="opacity:0.293104;fill:#f18d00;fill-opacity:1;stroke:#b7a9cb;stroke-width:0.015;stop-color:#000000"
         d="m 104.23343,159.8042 v 10.03711 a 60,60 0 0 0 55.61159,-55.60797 h -10.04073 a 50,50 0 0 1 -0.36277,3.21892 50,50 0 0 1 -0.69504,3.67368 50,50 0 0 1 -0.9679,3.61167 50,50 0 0 1 -1.23507,3.5295 50,50 0 0 1 -1.495,3.42718 50,50 0 0 1 -1.74718,3.30574 50,50 0 0 1 -1.98954,3.16621 50,50 0 0 1 -2.22002,3.00809 50,50 0 0 1 -2.43913,2.83445 50,50 0 0 1 -2.64377,2.64377 50,50 0 0 1 -2.83445,2.43912 50,50 0 0 1 -3.0086,2.22002 50,50 0 0 1 -3.1657,1.98955 50,50 0 0 1 -3.30574,1.74718 50,50 0 0 1 -3.42718,1.49551 50,50 0 0 1 -3.5295,1.23455 50,50 0 0 1 -3.61167,0.9679 50,50 0 0 1 -3.67367,0.69505 50,50 0 0 1 -3.21893,0.36277 z" />
      <path
         id="path1297"
         style="opacity:0.293104;fill:#f1aa00;fill-opacity:1;stroke:#b7a9cb;stroke-width:0.015;stop-color:#000000"
         d="m 104.23343,50.153528 v 10.028328 a 50,50 0 0 1 0.54829,0.04754 50,50 0 0 1 0.95239,0.100252 50,50 0 0 1 0.95033,0.119372 50,50 0 0 1 0.94827,0.136943 50,50 0 0 1 0.94464,0.155029 50,50 0 0 1 0.94206,0.173633 50,50 0 0 1 0.93845,0.191203 50,50 0 0 1 0.93482,0.209289 50,50 0 0 1 0.9307,0.227377 50,50 0 0 1 0.92552,0.244946 50,50 0 0 1 0.92139,0.262516 50,50 0 0 1 0.91571,0.280087 50,50 0 0 1 0.91054,0.297656 50,50 0 0 1 0.90433,0.315226 50,50 0 0 1 0.89814,0.33228 50,50 0 0 1 0.89194,0.349849 50,50 0 0 1 0.8847,0.366386 50,50 0 0 1 0.87798,0.383439 50,50 0 0 1 0.87023,0.399976 50,50 0 0 1 0.86196,0.417028 50,50 0 0 1 0.85421,0.433049 50,50 0 0 1 0.84595,0.449585 50,50 0 0 1 0.83716,0.465605 50,50 0 0 1 0.82785,0.481624 50,50 0 0 1 0.81856,0.497127 50,50 0 0 1 0.80873,0.51263 50,50 0 0 1 0.79892,0.52865 50,50 0 0 1 0.78858,0.54312 50,50 0 0 1 0.77825,0.558622 50,50 0 0 1 0.7674,0.573608 50,50 0 0 1 0.75602,0.587561 50,50 0 0 1 0.74466,0.602547 50,50 0 0 1 0.73329,0.6165 50,50 0 0 1 0.72088,0.630453 50,50 0 0 1 0.709,0.643888 50,50 0 0 1 0.6966,0.657324 50,50 0 0 1 0.68368,0.67076 50,50 0 0 1 0.67076,0.68368 50,50 0 0 1 0.65733,0.696598 50,50 0 0 1 0.64388,0.709001 50,50 0 0 1 0.63046,0.720886 50,50 0 0 1 0.6165,0.733288 50,50 0 0 1 0.60203,0.744658 50,50 0 0 1 0.58808,0.756026 50,50 0 0 1 0.5736,0.767395 50,50 0 0 1 0.55811,0.77773 50,50 0 0 1 0.54364,0.789099 50,50 0 0 1 0.52813,0.798918 50,50 0 0 1 0.51315,0.808736 50,50 0 0 1 0.49712,0.818555 50,50 0 0 1 0.48163,0.827856 50,50 0 0 1 0.4656,0.837159 50,50 0 0 1 0.44959,0.845426 50,50 0 0 1 0.43305,0.854211 50,50 0 0 1 0.41702,0.86248 50,50 0 0 1 0.39998,0.870231 50,50 0 0 1 0.38344,0.877983 50,50 0 0 1 0.36638,0.8847 50,50 0 0 1 0.34934,0.891935 50,50 0 0 1 0.33279,0.898137 50,50 0 0 1 0.31471,0.904337 50,50 0 0 1 0.29818,0.910539 50,50 0 0 1 0.28008,0.915707 50,50 0 0 1 0.26252,0.920874 50,50 0 0 1 0.24494,0.926041 50,50 0 0 1 0.22738,0.930693 50,50 0 0 1 0.20929,0.93431 50,50 0 0 1 0.1912,0.938965 50,50 0 0 1 0.17312,0.94154 50,50 0 0 1 0.15555,0.94517 50,50 0 0 1 0.13694,0.94826 50,50 0 0 1 0.11885,0.95033 50,50 0 0 1 0.10077,0.95239 50,50 0 0 1 0.0476,0.54829 h 10.02264 A 60,60 0 0 0 104.23343,50.153528 Z" />
      <path
         id="path952"
         style="opacity:0.654031;fill:#ff5f3d;fill-opacity:1;stroke:#b7a9cb;stroke-width:0.015;stop-color:#000000"
         d="m 86.692383,114.23335 h -6.568591 a 20,20 0 0 0 19.876308,17.88315 20,20 0 0 0 19.87579,-17.88315 h -6.56859 a 13.478489,13.478489 0 0 1 -0.0124,0.1018 13.478489,13.478489 0 0 1 -0.22892,1.09038 13.478489,13.478489 0 0 1 -0.31781,1.06763 13.478489,13.478489 0 0 1 -0.40515,1.03766 13.478489,13.478489 0 0 1 -0.48886,1.00098 13.478489,13.478489 0 0 1 -0.5705,0.95704 13.478489,13.478489 0 0 1 -0.64699,0.90641 13.478489,13.478489 0 0 1 -0.72037,0.85008 13.478489,13.478489 0 0 1 -0.78755,0.78754 13.478489,13.478489 0 0 1 -0.85008,0.72037 13.478489,13.478489 0 0 1 -0.9064,0.64699 13.478489,13.478489 0 0 1 -0.95705,0.57051 13.478489,13.478489 0 0 1 -1.00097,0.48938 13.478489,13.478489 0 0 1 -1.03767,0.40462 13.478489,13.478489 0 0 1 -1.06763,0.31781 13.478489,13.478489 0 0 1 -1.09037,0.22893 13.478489,13.478489 0 0 1 -1.10536,0.13746 13.478489,13.478489 0 0 1 -1.11311,0.046 13.478489,13.478489 0 0 1 -1.113117,-0.046 13.478489,13.478489 0 0 1 -1.10536,-0.13746 13.478489,13.478489 0 0 1 -1.09037,-0.22893 13.478489,13.478489 0 0 1 -1.06763,-0.31781 13.478489,13.478489 0 0 1 -1.037665,-0.40462 13.478489,13.478489 0 0 1 -1.000973,-0.48938 13.478489,13.478489 0 0 1 -0.957047,-0.57051 13.478489,13.478489 0 0 1 -0.906405,-0.64699 13.478489,13.478489 0 0 1 -0.850077,-0.72037 13.478489,13.478489 0 0 1 -0.788066,-0.78754 13.478489,13.478489 0 0 1 -0.719852,-0.85008 13.478489,13.478489 0 0 1 -0.647506,-0.90641 13.478489,13.478489 0 0 1 -0.569991,-0.95704 13.478489,13.478489 0 0 1 -0.489376,-1.00098 13.478489,13.478489 0 0 1 -0.404626,-1.03766 13.478489,13.478489 0 0 1 -0.318327,-1.06763 13.478489,13.478489 0 0 1 -0.22841,-1.09038 13.478489,13.478489 0 0 1 -0.01292,-0.1018 z" />
      <path
         id="path1243"
         style="opacity:0.654031;fill:#ff5f3d;fill-opacity:1;stroke:#b7a9cb;stroke-width:0.015;stop-color:#000000"
         d="M 100.0001,87.883523 A 20,20 0 0 0 80.127926,105.76666 h 6.564457 a 13.478489,13.478489 0 0 1 0.01292,-0.10181 13.478489,13.478489 0 0 1 0.22841,-1.09037 13.478489,13.478489 0 0 1 0.318327,-1.06763 13.478489,13.478489 0 0 1 0.404626,-1.03767 13.478489,13.478489 0 0 1 0.489376,-1.00097 13.478489,13.478489 0 0 1 0.569991,-0.95705 13.478489,13.478489 0 0 1 0.647506,-0.906397 13.478489,13.478489 0 0 1 0.719852,-0.850074 13.478489,13.478489 0 0 1 0.788066,-0.788057 13.478489,13.478489 0 0 1 0.850077,-0.719856 13.478489,13.478489 0 0 1 0.906405,-0.646989 13.478489,13.478489 0 0 1 0.957047,-0.570508 13.478489,13.478489 0 0 1 1.000973,-0.489376 13.478489,13.478489 0 0 1 1.037663,-0.404626 13.478489,13.478489 0 0 1 1.067635,-0.31781 13.478489,13.478489 0 0 1 1.090372,-0.228927 13.478489,13.478489 0 0 1 1.105359,-0.137459 13.478489,13.478489 0 0 1 1.113112,-0.04599 13.478489,13.478489 0 0 1 0.37103,0.0047 13.478489,13.478489 0 0 1 0.37156,0.0155 13.478489,13.478489 0 0 1 0.37052,0.02584 13.478489,13.478489 0 0 1 0.36948,0.03566 13.478489,13.478489 0 0 1 0.36846,0.04599 13.478489,13.478489 0 0 1 0.36742,0.05581 13.478489,13.478489 0 0 1 0.36535,0.06615 13.478489,13.478489 0 0 1 0.3638,0.07648 13.478489,13.478489 0 0 1 0.36122,0.0863 13.478489,13.478489 0 0 1 0.35863,0.09612 13.478489,13.478489 0 0 1 0.35605,0.105937 13.478489,13.478489 0 0 1 0.35295,0.115755 13.478489,13.478489 0 0 1 0.34934,0.125057 13.478489,13.478489 0 0 1 0.34623,0.135392 13.478489,13.478489 0 0 1 0.3421,0.144177 13.478489,13.478489 0 0 1 0.33796,0.153996 13.478489,13.478489 0 0 1 0.33383,0.163298 13.478489,13.478489 0 0 1 0.32918,0.172082 13.478489,13.478489 0 0 1 0.32401,0.181385 13.478489,13.478489 0 0 1 0.31884,0.190169 13.478489,13.478489 0 0 1 0.3142,0.198954 13.478489,13.478489 0 0 1 0.30799,0.207223 13.478489,13.478489 0 0 1 0.30231,0.216007 13.478489,13.478489 0 0 1 0.2961,0.223759 13.478489,13.478489 0 0 1 0.28991,0.232027 13.478489,13.478489 0 0 1 0.2837,0.240296 13.478489,13.478489 0 0 1 0.27647,0.247533 13.478489,13.478489 0 0 1 0.26975,0.2558 13.478489,13.478489 0 0 1 0.26252,0.262507 13.478489,13.478489 0 0 1 0.25528,0.26975 13.478489,13.478489 0 0 1 0.24805,0.276471 13.478489,13.478489 0 0 1 0.23977,0.2837 13.478489,13.478489 0 0 1 0.23255,0.289907 13.478489,13.478489 0 0 1 0.22376,0.29611 13.478489,13.478489 0 0 1 0.216,0.302297 13.478489,13.478489 0 0 1 0.20723,0.30799 13.478489,13.478489 0 0 1 0.19895,0.31368 13.478489,13.478489 0 0 1 0.19017,0.31936 13.478489,13.478489 0 0 1 0.18138,0.32401 13.478489,13.478489 0 0 1 0.17209,0.32918 13.478489,13.478489 0 0 1 0.16329,0.33383 13.478489,13.478489 0 0 1 0.15348,0.33796 13.478489,13.478489 0 0 1 0.1447,0.3421 13.478489,13.478489 0 0 1 0.13487,0.34572 13.478489,13.478489 0 0 1 0.12558,0.34985 13.478489,13.478489 0 0 1 0.11575,0.35295 13.478489,13.478489 0 0 1 0.10594,0.35605 13.478489,13.478489 0 0 1 0.0961,0.35863 13.478489,13.478489 0 0 1 0.0863,0.36122 13.478489,13.478489 0 0 1 0.076,0.3638 13.478489,13.478489 0 0 1 0.0667,0.36535 13.478489,13.478489 0 0 1 0.0155,0.10181 h 6.57272 A 20,20 0 0 0 100.0001,87.883523 Z" />
      <path
         id="path236-9"
         style="opacity:0.574027;fill:#f17900;fill-opacity:1;stroke:#b7a9cb;stroke-width:0.0138412;stop-color:#000000"
         d="m 53.885724,110.69128 -9.245791,-0.64652 a 55.364682,55.364682 3.2229747 0 0 47.611168,54.77038 l 0.646529,-9.24579 a 46.137235,46.137235 0 0 1 -1.248853,-0.19393 46.137235,46.137235 0 0 1 -2.531058,-0.53979 46.137235,46.137235 0 0 1 -2.496819,-0.68081 46.137235,46.137235 0 0 1 -2.455069,-0.81985 46.137235,46.137235 0 0 1 -2.404925,-0.95592 46.137235,46.137235 0 0 1 -2.347334,-1.08909 46.137235,46.137235 0 0 1 -2.282775,-1.21936 46.137235,46.137235 0 0 1 -2.210871,-1.34531 46.137235,46.137235 0 0 1 -2.131623,-1.46692 46.137235,46.137235 0 0 1 -2.046423,-1.58476 46.137235,46.137235 0 0 1 -1.954488,-1.69642 46.137235,46.137235 0 0 1 -1.855683,-1.80373 46.137235,46.137235 0 0 1 -1.752078,-1.90452 46.137235,46.137235 0 0 1 -1.642146,-2.00009 46.137235,46.137235 0 0 1 -1.527891,-2.08913 46.137235,46.137235 0 0 1 -1.408392,-2.17112 46.137235,46.137235 0 0 1 -1.28406,-2.24703 46.137235,46.137235 0 0 1 -1.155979,-2.31504 46.137235,46.137235 0 0 1 -1.024526,-2.37658 46.137235,46.137235 0 0 1 -0.889799,-2.43026 46.137235,46.137235 0 0 1 -0.751765,-2.47654 46.137235,46.137235 0 0 1 -0.612394,-2.51459 46.137235,46.137235 0 0 1 -0.469751,-2.54477 46.137235,46.137235 0 0 1 -0.326686,-2.56727 46.137235,46.137235 0 0 1 -0.182287,-2.58155 46.137235,46.137235 0 0 1 -0.01823,-1.26369 z" />
      <path
         id="path1300-1"
         style="opacity:0.574027;fill:#f19500;fill-opacity:1;stroke:#b7a9cb;stroke-width:0.0138412;stop-color:#000000"
         d="M 99.955295,54.640043 A 55.364682,55.364682 3.2229747 0 0 45.18491,102.25121 l 9.245792,0.64653 a 46.137235,46.137235 0 0 1 0.193924,-1.24885 46.137235,46.137235 0 0 1 0.539796,-2.531064 46.137235,46.137235 0 0 1 0.680802,-2.496815 46.137235,46.137235 0 0 1 0.819342,-2.454627 46.137235,46.137235 0 0 1 0.956398,-2.404892 46.137235,46.137235 0 0 1 1.089117,-2.347809 46.137235,46.137235 0 0 1 1.219366,-2.282775 46.137235,46.137235 0 0 1 1.345312,-2.210872 46.137235,46.137235 0 0 1 1.46692,-2.131622 46.137235,46.137235 0 0 1 1.58429,-2.046456 46.137235,46.137235 0 0 1 1.696847,-1.953978 46.137235,46.137235 0 0 1 1.803772,-1.856159 46.137235,46.137235 0 0 1 1.904523,-1.752079 46.137235,46.137235 0 0 1 2.000085,-1.642146 46.137235,46.137235 0 0 1 2.088656,-1.527924 46.137235,46.137235 0 0 1 2.171561,-1.407883 46.137235,46.137235 0 0 1 2.247065,-1.284536 46.137235,46.137235 0 0 1 2.315033,-1.155979 46.137235,46.137235 0 0 1 2.376587,-1.024526 46.137235,46.137235 0 0 1 2.430262,-0.889799 46.137235,46.137235 0 0 1 2.47606,-0.751798 46.137235,46.137235 0 0 1 2.514559,-0.611919 46.137235,46.137235 0 0 1 2.545278,-0.470193 46.137235,46.137235 0 0 1 2.56727,-0.326687 46.137235,46.137235 0 0 1 2.581551,-0.182287 46.137235,46.137235 0 0 1 1.263688,-0.01823 z" />
      <path
         id="path1072-2"
         style="opacity:0.574027;fill:#f18d00;fill-opacity:1;stroke:#b7a9cb;stroke-width:0.0138412;stop-color:#000000"
         d="m 100.69097,156.11718 -0.64606,9.23913 a 55.364682,55.364682 3.2229747 0 0 54.76964,-47.60739 l -9.24246,-0.6463 a 46.137235,46.137235 0 0 1 -0.54113,2.93966 46.137235,46.137235 0 0 1 -0.87624,3.33687 46.137235,46.137235 0 0 1 -1.12343,3.26223 46.137235,46.137235 0 0 1 -1.36406,3.16939 46.137235,46.137235 0 0 1 -1.59674,3.05848 46.137235,46.137235 0 0 1 -1.82106,2.93047 46.137235,46.137235 0 0 1 -2.03516,2.78642 46.137235,46.137235 0 0 1 -2.23715,2.62604 46.137235,46.137235 0 0 1 -2.42766,2.4521 46.137235,46.137235 0 0 1 -2.60375,2.26341 46.137235,46.137235 0 0 1 -2.7661,2.06276 46.137235,46.137235 0 0 1 -2.91231,1.84986 46.137235,46.137235 0 0 1 -3.04208,1.62761 46.137235,46.137235 0 0 1 -3.15538,1.39549 46.137235,46.137235 0 0 1 -3.25097,1.15602 46.137235,46.137235 0 0 1 -3.32836,0.90921 46.137235,46.137235 0 0 1 -3.38683,0.65848 46.137235,46.137235 0 0 1 -3.42634,0.40332 46.137235,46.137235 0 0 1 -2.98637,0.12674 z" />
      <path
         id="path1297-7"
         style="opacity:0.574027;fill:#f1aa00;fill-opacity:1;stroke:#b7a9cb;stroke-width:0.0138412;stop-color:#000000"
         d="m 107.7489,55.18407 -0.6455,9.231045 a 46.137235,46.137235 0 0 1 0.50164,0.07905 46.137235,46.137235 0 0 1 0.87022,0.153584 46.137235,46.137235 0 0 1 0.86709,0.171052 46.137235,46.137235 0 0 1 0.86407,0.187093 46.137235,46.137235 0 0 1 0.85956,0.203508 46.137235,46.137235 0 0 1 0.85599,0.220467 46.137235,46.137235 0 0 1 0.85153,0.236407 46.137235,46.137235 0 0 1 0.84703,0.252822 46.137235,46.137235 0 0 1 0.84207,0.269207 46.137235,46.137235 0 0 1 0.83617,0.285045 46.137235,46.137235 0 0 1 0.83124,0.300953 46.137235,46.137235 0 0 1 0.82488,0.316761 46.137235,46.137235 0 0 1 0.81899,0.3326 46.137235,46.137235 0 0 1 0.81214,0.348374 46.137235,46.137235 0 0 1 0.80535,0.363674 46.137235,46.137235 0 0 1 0.79851,0.379447 46.137235,46.137235 0 0 1 0.79078,0.394203 46.137235,46.137235 0 0 1 0.78349,0.409468 46.137235,46.137235 0 0 1 0.7753,0.424191 46.137235,46.137235 0 0 1 0.76659,0.439355 46.137235,46.137235 0 0 1 0.75842,0.453603 46.137235,46.137235 0 0 1 0.74976,0.468294 46.137235,46.137235 0 0 1 0.74063,0.482473 46.137235,46.137235 0 0 1 0.73104,0.49662 46.137235,46.137235 0 0 1 0.72148,0.510293 46.137235,46.137235 0 0 1 0.71144,0.52393 46.137235,46.137235 0 0 1 0.70137,0.538045 46.137235,46.137235 0 0 1 0.69093,0.550699 46.137235,46.137235 0 0 1 0.68042,0.564304 46.137235,46.137235 0 0 1 0.66947,0.5774 46.137235,46.137235 0 0 1 0.65809,0.589511 46.137235,46.137235 0 0 1 0.64667,0.602575 46.137235,46.137235 0 0 1 0.63531,0.614686 46.137235,46.137235 0 0 1 0.62299,0.626731 46.137235,46.137235 0 0 1 0.61119,0.638334 46.137235,46.137235 0 0 1 0.5989,0.649903 46.137235,46.137235 0 0 1 0.58615,0.661439 46.137235,46.137235 0 0 1 0.57343,0.672501 46.137235,46.137235 0 0 1 0.56023,0.683527 46.137235,46.137235 0 0 1 0.54705,0.694078 46.137235,46.137235 0 0 1 0.53394,0.704154 46.137235,46.137235 0 0 1 0.52029,0.714672 46.137235,46.137235 0 0 1 0.50623,0.724207 46.137235,46.137235 0 0 1 0.49266,0.733772 46.137235,46.137235 0 0 1 0.47861,0.743306 46.137235,46.137235 0 0 1 0.46367,0.751822 46.137235,46.137235 0 0 1 0.44963,0.761356 46.137235,46.137235 0 0 1 0.43472,0.769396 46.137235,46.137235 0 0 1 0.42029,0.777469 46.137235,46.137235 0 0 1 0.40491,0.785476 46.137235,46.137235 0 0 1 0.39006,0.79304 46.137235,46.137235 0 0 1 0.37469,0.800572 46.137235,46.137235 0 0 1 0.35943,0.807151 46.137235,46.137235 0 0 1 0.34364,0.814173 46.137235,46.137235 0 0 1 0.32835,0.820753 46.137235,46.137235 0 0 1 0.31217,0.82679 46.137235,46.137235 0 0 1 0.29644,0.832862 46.137235,46.137235 0 0 1 0.2803,0.837947 46.137235,46.137235 0 0 1 0.26416,0.843509 46.137235,46.137235 0 0 1 0.24852,0.848153 46.137235,46.137235 0 0 1 0.23148,0.852697 46.137235,46.137235 0 0 1 0.21586,0.857341 46.137235,46.137235 0 0 1 0.19887,0.86094 46.137235,46.137235 0 0 1 0.18238,0.86456 46.137235,46.137235 0 0 1 0.16586,0.86818 46.137235,46.137235 0 0 1 0.1494,0.87134 46.137235,46.137235 0 0 1 0.13251,0.8735 46.137235,46.137235 0 0 1 0.11556,0.87662 46.137235,46.137235 0 0 1 0.0987,0.87783 46.137235,46.137235 0 0 1 0.0823,0.88004 46.137235,46.137235 0 0 1 0.065,0.88168 46.137235,46.137235 0 0 1 0.0482,0.88243 46.137235,46.137235 0 0 1 0.0315,0.88315 46.137235,46.137235 0 0 1 0.009,0.50777 l 9.22581,0.64513 A 55.364682,55.364682 3.2229747 0 0 107.7489,55.18407 Z" />
      <path
         id="path952-0"
         style="opacity:0.574027;fill:#ff5f3d;fill-opacity:1;stroke:#b7a9cb;stroke-width:0.0138412;stop-color:#000000"
         d="m 87.614013,111.09188 -6.046367,-0.4228 a 18.454894,18.454894 0 0 0 17.144987,17.74077 18.454894,18.454894 0 0 0 19.446697,-15.18203 l -6.04637,-0.42281 a 12.437204,12.437204 0 0 1 -0.018,0.0929 12.437204,12.437204 0 0 1 -0.28091,0.98896 12.437204,12.437204 0 0 1 -0.36126,0.96229 12.437204,12.437204 0 0 1 -0.43973,0.92909 12.437204,12.437204 0 0 1 -0.51443,0.88993 12.437204,12.437204 0 0 1 -0.58674,0.84423 12.437204,12.437204 0 0 1 -0.6539,0.7927 12.437204,12.437204 0 0 1 -0.71782,0.73613 12.437204,12.437204 0 0 1 -0.77562,0.67424 12.437204,12.437204 0 0 1 -0.82887,0.60838 12.437204,12.437204 0 0 1 -0.87598,0.53721 12.437204,12.437204 0 0 1 -0.91769,0.46355 12.437204,12.437204 0 0 1 -0.95289,0.38604 12.437204,12.437204 0 0 1 -0.98121,0.30566 12.437204,12.437204 0 0 1 -1.00321,0.22382 12.437204,12.437204 0 0 1 -1.01842,0.14055 12.437204,12.437204 0 0 1 -1.02633,0.0554 12.437204,12.437204 0 0 1 -1.027567,-0.0293 12.437204,12.437204 0 0 1 -1.02166,-0.11399 12.437204,12.437204 0 0 1 -1.00863,-0.19768 12.437204,12.437204 0 0 1 -0.98895,-0.28091 12.437204,12.437204 0 0 1 -0.9623,-0.36127 12.437204,12.437204 0 0 1 -0.929119,-0.43924 12.437204,12.437204 0 0 1 -0.889893,-0.5149 12.437204,12.437204 0 0 1 -0.844237,-0.58676 12.437204,12.437204 0 0 1 -0.792697,-0.65389 12.437204,12.437204 0 0 1 -0.736125,-0.71782 12.437204,12.437204 0 0 1 -0.674721,-0.77565 12.437204,12.437204 0 0 1 -0.607904,-0.82883 12.437204,12.437204 0 0 1 -0.537684,-0.87603 12.437204,12.437204 0 0 1 -0.463073,-0.91764 12.437204,12.437204 0 0 1 -0.386038,-0.9529 12.437204,12.437204 0 0 1 -0.305666,-0.98121 12.437204,12.437204 0 0 1 -0.224298,-1.00324 12.437204,12.437204 0 0 1 -0.140066,-1.01839 12.437204,12.437204 0 0 1 -0.0053,-0.0945 z" />
      <path
         id="path1243-9"
         style="opacity:0.574027;fill:#ff5f3d;fill-opacity:1;stroke:#b7a9cb;stroke-width:0.0138412;stop-color:#000000"
         d="M 101.28731,91.590313 A 18.454894,18.454894 0 0 0 81.843939,106.77258 l 6.042563,0.42253 a 12.437204,12.437204 0 0 1 0.01845,-0.0929 12.437204,12.437204 0 0 1 0.280435,-0.98898 12.437204,12.437204 0 0 1 0.36174,-0.96226 12.437204,12.437204 0 0 1 0.439249,-0.92913 12.437204,12.437204 0 0 1 0.514899,-0.88989 12.437204,12.437204 0 0 1 0.586278,-0.84427 12.437204,12.437204 0 0 1 0.65437,-0.79266 12.437204,12.437204 0 0 1 0.717339,-0.73616 12.437204,12.437204 0 0 1 0.776137,-0.67468 12.437204,12.437204 0 0 1 0.828829,-0.607911 12.437204,12.437204 0 0 1 0.875988,-0.537209 12.437204,12.437204 0 0 1 0.917681,-0.463548 12.437204,12.437204 0 0 1 0.952892,-0.386039 12.437204,12.437204 0 0 1 0.981211,-0.305665 12.437204,12.437204 0 0 1 1.003211,-0.223823 12.437204,12.437204 0 0 1 1.01842,-0.140542 12.437204,12.437204 0 0 1 1.026327,-0.05538 12.437204,12.437204 0 0 1 1.027572,0.02931 12.437204,12.437204 0 0 1 0.34123,0.02821 12.437204,12.437204 0 0 1 0.34102,0.03818 12.437204,12.437204 0 0 1 0.3394,0.04763 12.437204,12.437204 0 0 1 0.33781,0.05661 12.437204,12.437204 0 0 1 0.33621,0.06605 12.437204,12.437204 0 0 1 0.33461,0.07502 12.437204,12.437204 0 0 1 0.33205,0.08441 12.437204,12.437204 0 0 1 0.32995,0.09382 12.437204,12.437204 0 0 1 0.32695,0.102689 12.437204,12.437204 0 0 1 0.32393,0.111563 12.437204,12.437204 0 0 1 0.32093,0.120432 12.437204,12.437204 0 0 1 0.31743,0.129271 12.437204,12.437204 0 0 1 0.31352,0.137601 12.437204,12.437204 0 0 1 0.30999,0.146913 12.437204,12.437204 0 0 1 0.30562,0.154735 12.437204,12.437204 0 0 1 0.30118,0.163506 12.437204,12.437204 0 0 1 0.29678,0.171804 12.437204,12.437204 0 0 1 0.29193,0.179589 12.437204,12.437204 0 0 1 0.28658,0.18782 12.437204,12.437204 0 0 1 0.28125,0.195573 12.437204,12.437204 0 0 1 0.27641,0.203361 12.437204,12.437204 0 0 1 0.27017,0.21057 12.437204,12.437204 0 0 1 0.26437,0.21829 12.437204,12.437204 0 0 1 0.25815,0.22503 12.437204,12.437204 0 0 1 0.25193,0.23224 12.437204,12.437204 0 0 1 0.24568,0.23945 12.437204,12.437204 0 0 1 0.23855,0.24566 12.437204,12.437204 0 0 1 0.23184,0.25282 12.437204,12.437204 0 0 1 0.22476,0.25854 12.437204,12.437204 0 0 1 0.21762,0.26474 12.437204,12.437204 0 0 1 0.21053,0.27045 12.437204,12.437204 0 0 1 0.20245,0.27658 12.437204,12.437204 0 0 1 0.1954,0.28183 12.437204,12.437204 0 0 1 0.18691,0.28697 12.437204,12.437204 0 0 1 0.17937,0.29217 12.437204,12.437204 0 0 1 0.17093,0.29684 12.437204,12.437204 0 0 1 0.16294,0.30155 12.437204,12.437204 0 0 1 0.15449,0.30621 12.437204,12.437204 0 0 1 0.14611,0.30993 12.437204,12.437204 0 0 1 0.13722,0.31408 12.437204,12.437204 0 0 1 0.12882,0.3178 12.437204,12.437204 0 0 1 0.11952,0.32097 12.437204,12.437204 0 0 1 0.11118,0.32422 12.437204,12.437204 0 0 1 0.10189,0.32691 12.437204,12.437204 0 0 1 0.0931,0.33012 12.437204,12.437204 0 0 1 0.0838,0.33234 12.437204,12.437204 0 0 1 0.0746,0.33457 12.437204,12.437204 0 0 1 0.0654,0.3363 12.437204,12.437204 0 0 1 0.0562,0.33806 12.437204,12.437204 0 0 1 0.0465,0.33976 12.437204,12.437204 0 0 1 0.0379,0.3406 12.437204,12.437204 0 0 1 0.008,0.0947 l 6.05017,0.42307 a 18.454894,18.454894 0 0 0 -17.1515,-17.741217 z" />
    </g>
  </g>
</svg>
