<?xml version="1.0" encoding="UTF-8" standalone="no"?>
<!-- Created with Inkscape (http://www.inkscape.org/) -->

<svg
   width="120mm"
   height="120mm"
   viewBox="0 0 120 120"
   version="1.1"
   id="svg5"
   xmlns:xlink="http://www.w3.org/1999/xlink"
   xmlns="http://www.w3.org/2000/svg"
   xmlns:svg="http://www.w3.org/2000/svg">
  <defs
     id="defs2">
    <linearGradient
       id="linearGradient1295">
      <stop
         style="stop-color:#d16b0c;stop-opacity:1;"
         offset="0"
         id="stop1291" />
      <stop
         style="stop-color:#f7dc7d;stop-opacity:1;"
         offset="1"
         id="stop1293" />
    </linearGradient>
    <radialGradient
       xlink:href="#linearGradient1295"
       id="radialGradient1297"
       cx="-52.704678"
       cy="143.43465"
       fx="-52.704678"
       fy="143.43465"
       r="87.5"
       gradientUnits="userSpaceOnUse"
       gradientTransform="matrix(2.1469409,-0.68663044,0.68664542,2.146936,-56.914315,-194.64449)" />
    <clipPath
       clipPathUnits="userSpaceOnUse"
       id="clipPath1477">
      <circle
         style="fill:none;fill-opacity:1;stroke:#000000;stroke-width:0.0598683;stroke-opacity:1;stop-color:#000000"
         id="circle1479"
         cx="35.670574"
         cy="130.50305"
         r="87.5"
         transform="rotate(-12.729929)" />
    </clipPath>
  </defs>
  <g
     id="layer1"
     transform="translate(-3.5508745,-59.435015)">
    <g
       id="g1453"
       clip-path="url(#clipPath1477)"
       transform="matrix(0.68571429,0,0,0.68571429,19.973132,37.536719)">
      <circle
         style="opacity:1;fill:url(#radialGradient1297);fill-opacity:1;stroke:none;stroke-width:0.0598683;stroke-opacity:1;stop-color:#000000"
         id="path1163"
         cx="35.670574"
         cy="130.50305"
         r="87.5"
         transform="rotate(-12.729929)" />
      <circle
         style="mix-blend-mode:normal;fill:#5d0092;fill-opacity:0.368043;stroke:none;stroke-width:0.0349259;stop-color:#000000"
         id="path1163-7-3"
         cx="32.730453"
         cy="82.970482"
         r="51.04578"
         transform="rotate(-12.729929)" />
      <circle
         style="mix-blend-mode:normal;fill:#5d0092;fill-opacity:0.368043;stroke:none;stroke-width:0.0349259;stop-color:#000000"
         id="path1163-7"
         cx="82.730453"
         cy="132.97047"
         r="51.04578"
         transform="rotate(-12.729929)" />
      <circle
         style="mix-blend-mode:normal;fill:#5d0092;fill-opacity:0.368043;stroke:none;stroke-width:0.0291049;stop-color:#000000"
         id="path1163-7-5"
         cx="32.730453"
         cy="182.97047"
         r="42.538155"
         transform="rotate(-12.729929)" />
      <path
         id="path790"
         style="opacity:1;fill:#5b0d21;fill-opacity:1;stroke:none;stroke-width:0.0865494;stop-color:#000000"
         d="M 12.132412,41.312753 4.5813403,53.270508 30.67349,69.745779 a 19.972975,19.972975 0 0 0 0.0796,8.368012 19.972975,19.972975 0 0 0 16.661208,15.365097 l 13.810281,61.132142 a 20,20 0 0 0 -8.52109,21.10857 20,20 0 0 0 23.915282,15.10113 20,20 0 0 0 15.10164,-23.9154 A 20,20 0 0 0 75.042236,151.5144 L 61.230816,90.377218 a 19.972975,19.972975 0 0 0 0.995622,-0.707555 l 28.168523,17.786807 a 20,20 0 0 0 0.06175,8.4743 20,20 0 0 0 23.915289,15.10113 20,20 0 0 0 15.10164,-23.91539 20,20 0 0 0 -23.91579,-15.101022 20,20 0 0 0 -7.572163,3.508706 L 69.789982,77.720215 a 19.972975,19.972975 0 0 0 -0.0729,-8.408729 19.972975,19.972975 0 0 0 -23.88315,-15.080845 19.972975,19.972975 0 0 0 -7.62285,3.549303 z" />
      <path
         id="path790-6"
         style="fill:#000000;fill-opacity:0.229865;stroke:none;stroke-width:0.0865494;stop-color:#000000"
         d="M 4.2065504,39.848265 -3.344521,51.80602 22.747629,68.281291 a 19.972975,19.972975 0 0 0 0.0796,8.368013 19.972975,19.972975 0 0 0 16.661208,15.365096 l 13.810284,61.13215 a 20,20 0 0 0 -8.521091,21.10857 20,20 0 0 0 23.915283,15.10113 20,20 0 0 0 15.10164,-23.9154 20,20 0 0 0 -16.678172,-15.39093 L 53.304954,88.91273 a 19.972975,19.972975 0 0 0 0.995622,-0.707555 L 82.469101,105.992 a 20,20 0 0 0 0.06175,8.47429 20,20 0 0 0 23.915299,15.10113 20,20 0 0 0 15.10164,-23.91539 A 20,20 0 0 0 97.632,90.550998 20,20 0 0 0 90.059825,94.059706 L 61.864121,76.255728 a 19.972975,19.972975 0 0 0 -0.0729,-8.408729 19.972975,19.972975 0 0 0 -23.88315,-15.080845 19.972975,19.972975 0 0 0 -7.622849,3.549302 z" />
    </g>
  </g>
</svg>
