<?xml version="1.0" encoding="UTF-8" standalone="no"?>
<!-- Created with Inkscape (http://www.inkscape.org/) -->

<svg
   width="120mm"
   height="120mm"
   viewBox="0 0 120 120"
   version="1.1"
   id="svg5"
   xmlns:xlink="http://www.w3.org/1999/xlink"
   xmlns="http://www.w3.org/2000/svg"
   xmlns:svg="http://www.w3.org/2000/svg">
  <defs
     id="defs2">
    <linearGradient
       id="linearGradient1212">
      <stop
         style="stop-color:#652270;stop-opacity:1;"
         offset="0"
         id="stop1208" />
      <stop
         style="stop-color:#182d4e;stop-opacity:1;"
         offset="1"
         id="stop1210" />
    </linearGradient>
    <linearGradient
       xlink:href="#linearGradient1212"
       id="linearGradient1214"
       x1="122.64797"
       y1="189.15187"
       x2="74.791687"
       y2="75.57428"
       gradientUnits="userSpaceOnUse"
       gradientTransform="translate(0,3.1750001)" />
  </defs>
  <g
     id="layer1"
     transform="translate(-35.639786,-78.749237)">
    <g
       id="g1308">
      <circle
         style="font-variation-settings:normal;opacity:1;vector-effect:none;fill:url(#linearGradient1214);fill-opacity:1;stroke:none;stroke-width:0.128;stroke-linecap:butt;stroke-linejoin:miter;stroke-miterlimit:4;stroke-dasharray:none;stroke-dashoffset:0;stroke-opacity:1;-inkscape-stroke:none;stop-color:#000000;stop-opacity:1"
         id="path1117"
         cx="95.639786"
         cy="138.74924"
         r="60" />
      <path
         id="path1020"
         style="fill:#f9e000;fill-opacity:1;stroke:none;stroke-width:0.0666235;stroke-dasharray:none;stroke-opacity:1;stop-color:#000000"
         d="m 76.519904,137.16292 a 33.816999,28.840444 0 0 0 -5.605829,-0.42682 33.816999,28.840444 0 0 0 -10.341989,1.31841 33.816999,28.840444 0 0 0 0.09322,0.097 33.816999,28.840444 0 0 0 1.743325,1.56264 33.816999,28.840444 0 0 0 1.874891,1.44698 33.816999,28.840444 0 0 0 1.996823,1.32357 33.816999,28.840444 0 0 0 2.107009,1.19258 33.816999,28.840444 0 0 0 2.205823,1.05509 33.816999,28.840444 0 0 0 2.292016,0.91143 33.816999,28.840444 0 0 0 1.818518,0.58673 33.816999,28.840444 0 0 0 0.752542,0.005 33.816999,28.840444 0 0 0 1.608272,-0.0543 33.816999,28.840444 0 0 0 1.603485,-0.11981 33.816999,28.840444 0 0 0 1.594955,-0.1844 33.816999,28.840444 0 0 0 1.582644,-0.24931 33.816999,28.840444 0 0 0 1.567109,-0.31293 33.816999,28.840444 0 0 0 1.547982,-0.37635 33.816999,28.840444 0 0 0 0.05268,-0.0145 33.816999,28.840444 0 0 0 1.472372,-0.42404 33.816999,28.840444 0 0 0 1.499018,-0.49998 33.816999,28.840444 0 0 0 1.469227,-0.56046 33.816999,28.840444 0 0 0 1.436407,-0.61912 33.816999,28.840444 0 0 0 0.294427,-0.14238 33.816999,28.840444 0 0 0 -14.664934,-5.51501 z" />
      <path
         id="path1020-3"
         style="fill:#f9e000;fill-opacity:1;stroke:none;stroke-width:0.0666235;stroke-dasharray:none;stroke-opacity:1;stop-color:#000000"
         d="m 114.71522,136.98518 a 33.816999,28.840444 0 0 0 -5.43893,1.23407 33.816999,28.840444 0 0 0 -9.18956,4.25554 33.816999,28.840444 0 0 0 0.1265,0.064 33.816999,28.840444 0 0 0 2.26487,0.9599 33.816999,28.840444 0 0 0 2.34212,0.81283 33.816999,28.840444 0 0 0 2.40719,0.66129 33.816999,28.840444 0 0 0 2.45821,0.50608 33.816999,28.840444 0 0 0 2.49593,0.34805 33.816999,28.840444 0 0 0 2.5193,0.1879 33.816999,28.840444 0 0 0 1.94415,0.0209 33.816999,28.840444 0 0 0 0.70915,-0.21487 33.816999,28.840444 0 0 0 1.48953,-0.5201 33.816999,28.840444 0 0 0 1.45873,-0.58031 33.816999,28.840444 0 0 0 1.42481,-0.6385 33.816999,28.840444 0 0 0 1.38722,-0.69591 33.816999,28.840444 0 0 0 1.34711,-0.75117 33.816999,28.840444 0 0 0 1.30369,-0.80518 33.816999,28.840444 0 0 0 0.0437,-0.029 33.816999,28.840444 0 0 0 1.21352,-0.82793 33.816999,28.840444 0 0 0 1.2081,-0.90708 33.816999,28.840444 0 0 0 1.15586,-0.95522 33.816999,28.840444 0 0 0 1.10149,-1.00076 33.816999,28.840444 0 0 0 0.21958,-0.21967 33.816999,28.840444 0 0 0 -15.99226,-0.90483 z" />
      <path
         id="path1020-5"
         style="fill:#f95700;fill-opacity:0.264874;stroke:none;stroke-width:0.112264;stroke-dasharray:none;stroke-opacity:1;stop-color:#000000"
         d="m 67.00678,128.50252 a 56.98361,48.597825 5 0 0 -9.347519,-1.53975 56.98361,48.597825 5 0 0 -17.554165,0.69429 56.98361,48.597825 5 0 0 0.14224,0.17651 56.98361,48.597825 5 0 0 2.69693,2.87916 56.98361,48.597825 5 0 0 2.934771,2.70432 56.98361,48.597825 5 0 0 3.15758,2.51505 56.98361,48.597825 5 0 0 3.361773,2.31138 56.98361,48.597825 5 0 0 3.547845,2.09505 56.98361,48.597825 5 0 0 3.713627,1.8666 56.98361,48.597825 5 0 0 2.966482,1.25197 56.98361,48.597825 5 0 0 1.262378,0.12048 56.98361,48.597825 5 0 0 2.707703,0.14495 56.98361,48.597825 5 0 0 2.70928,0.0344 56.98361,48.597825 5 0 0 2.704446,-0.0753 56.98361,48.597825 5 0 0 2.693313,-0.18607 56.98361,48.597825 5 0 0 2.67658,-0.29517 56.98361,48.597825 5 0 0 2.653784,-0.40439 56.98361,48.597825 5 0 0 0.09057,-0.0167 56.98361,48.597825 5 0 0 2.533865,-0.49557 56.98361,48.597825 5 0 0 2.589749,-0.61915 56.98361,48.597825 5 0 0 2.548624,-0.72504 56.98361,48.597825 5 0 0 2.502145,-0.82834 56.98361,48.597825 5 0 0 0.51515,-0.19577 56.98361,48.597825 5 0 0 -23.807287,-11.41148 z" />
      <path
         id="path1020-3-6"
         style="fill:#f95700;fill-opacity:0.264874;stroke:none;stroke-width:0.112264;stroke-dasharray:none;stroke-opacity:1;stop-color:#000000"
         d="m 124.20253,128.33819 a 48.597825,56.98361 85 0 0 -8.94879,2.87034 48.597825,56.98361 85 0 0 -14.80104,8.49315 48.597825,56.98361 85 0 0 0.22173,0.0888 48.597825,56.98361 85 0 0 3.94291,1.27871 48.597825,56.98361 85 0 0 4.05095,1.02047 48.597825,56.98361 85 0 0 4.13794,0.75656 48.597825,56.98361 85 0 0 4.2008,0.48851 48.597825,56.98361 85 0 0 4.24089,0.21768 48.597825,56.98361 85 0 0 4.25662,-0.0546 48.597825,56.98361 85 0 0 3.26661,-0.25035 48.597825,56.98361 85 0 0 1.15884,-0.46484 48.597825,56.98361 85 0 0 2.42402,-1.09183 48.597825,56.98361 85 0 0 2.36347,-1.18836 48.597825,56.98361 85 0 0 2.29798,-1.28106 48.597825,56.98361 85 0 0 2.22645,-1.37191 48.597825,56.98361 85 0 0 2.151,-1.4588 48.597825,56.98361 85 0 0 2.07017,-1.54309 48.597825,56.98361 85 0 0 0.0691,-0.0549 48.597825,56.98361 85 0 0 1.91549,-1.56804 48.597825,56.98361 85 0 0 1.89476,-1.70008 48.597825,56.98361 85 0 0 1.79998,-1.77323 48.597825,56.98361 85 0 0 1.70207,-1.8417 48.597825,56.98361 85 0 0 0.33632,-0.40099 48.597825,56.98361 85 0 0 -26.97824,0.82978 z" />
    </g>
  </g>
</svg>
