<?xml version="1.0" encoding="UTF-8" standalone="no"?>
<!-- Created with Inkscape (http://www.inkscape.org/) -->

<svg
   width="120mm"
   height="120mm"
   viewBox="0 0 120 120"
   version="1.1"
   id="svg5"
   inkscape:version="1.2.2 (b0a8486541, 2022-12-01)"
   sodipodi:docname="logo.svg"
   xmlns:inkscape="http://www.inkscape.org/namespaces/inkscape"
   xmlns:sodipodi="http://sodipodi.sourceforge.net/DTD/sodipodi-0.dtd"
   xmlns:xlink="http://www.w3.org/1999/xlink"
   xmlns="http://www.w3.org/2000/svg"
   xmlns:svg="http://www.w3.org/2000/svg">
  <sodipodi:namedview
     id="namedview7"
     pagecolor="#ffffff"
     bordercolor="#111111"
     borderopacity="1"
     inkscape:showpageshadow="0"
     inkscape:pageopacity="0"
     inkscape:pagecheckerboard="1"
     inkscape:deskcolor="#d1d1d1"
     inkscape:document-units="mm"
     showgrid="false"
     inkscape:zoom="0.5946522"
     inkscape:cx="208.52525"
     inkscape:cy="159.75725"
     inkscape:window-width="2248"
     inkscape:window-height="1488"
     inkscape:window-x="0"
     inkscape:window-y="20"
     inkscape:window-maximized="1"
     inkscape:current-layer="layer1">
    <inkscape:grid
       type="xygrid"
       id="grid790"
       dotted="true"
       originx="-49.999996"
       originy="-70.000002" />
  </sodipodi:namedview>
  <defs
     id="defs2">
    <linearGradient
       inkscape:collect="always"
       id="linearGradient1331">
      <stop
         style="stop-color:#004662;stop-opacity:1;"
         offset="0"
         id="stop1327" />
      <stop
         style="stop-color:#410053;stop-opacity:1;"
         offset="1"
         id="stop1329" />
    </linearGradient>
    <linearGradient
       inkscape:collect="always"
       xlink:href="#linearGradient1331"
       id="linearGradient1333"
       x1="144.72458"
       y1="-120.99151"
       x2="33.796005"
       y2="-177.51244"
       gradientUnits="userSpaceOnUse" />
  </defs>
  <g
     inkscape:label="Layer 1"
     inkscape:groupmode="layer"
     id="layer1"
     transform="translate(-49.999996,-70.000002)">
    <g
       id="g1477">
      <g
         id="g1452"
         transform="rotate(-48,110,130)">
        <circle
           style="opacity:1;fill:url(#linearGradient1333);fill-opacity:1;stroke-width:0.1;stop-color:#000000"
           id="path792"
           cx="89.645477"
           cy="-144.78842"
           r="60"
           transform="rotate(108)" />
        <path
           id="path794"
           style="opacity:0.49664;mix-blend-mode:screen;fill:#0bffc5;fill-opacity:0.613334;stroke-width:0.0940393;stop-color:#000000"
           d="m 151.97855,132.13227 c -6.59619,3.22363 -12.61583,4.09912 -17.25109,-10.16672 -4.63524,-14.26584 0.74934,-17.09584 7.98058,-18.365 7.03747,-1.23514 14.86499,5.68473 16.41005,10.44 1.5451,4.75529 -0.72011,14.95446 -7.13954,18.09172 z"
           sodipodi:nodetypes="sssss" />
        <path
           id="path794-6"
           style="opacity:0.49664;mix-blend-mode:screen;fill:#0bffc5;fill-opacity:0.613334;stroke-width:0.0940393;stop-color:#000000"
           d="m 124.99999,90.734916 c 1.02753,7.269522 0,13.265054 -14.99998,13.265074 C 94.999989,104 93.972429,98.004428 95.000003,90.734921 96.00001,83.660188 104.99998,78.354167 109.99998,78.354152 c 5.00002,1e-5 14.00001,5.306035 15.00001,12.380764 z"
           sodipodi:nodetypes="sssss" />
        <path
           id="path794-5"
           style="opacity:0.49664;mix-blend-mode:screen;fill:#0bffc5;fill-opacity:0.613334;stroke-width:0.0940394;stop-color:#000000"
           d="m 77.291942,103.60057 c 7.231259,1.26917 12.615847,4.09913 7.980601,18.36498 -4.635232,14.26584 -10.654906,13.39039 -17.251121,10.16671 -6.419423,-3.13726 -8.684619,-13.33642 -7.139545,-18.09172 1.54508,-4.75526 9.372571,-11.67513 16.410065,-10.43997 z"
           sodipodi:nodetypes="sssss" />
        <path
           id="path794-6-3"
           style="opacity:0.49664;mix-blend-mode:screen;fill:#0bffc5;fill-opacity:0.613334;stroke-width:0.0940393;stop-color:#000000"
           d="m 74.785324,152.94934 c 3.441603,-6.48514 7.796995,-10.73169 19.932249,-1.9149 12.135257,8.81678 9.442467,14.27126 4.338235,19.54845 -4.967438,5.13579 -15.367392,4.13838 -19.412489,1.19947 -4.045086,-2.93895 -8.207436,-12.52166 -4.857995,-18.83302 z"
           sodipodi:nodetypes="sssss" />
        <path
           id="path794-6-3-6"
           style="opacity:0.49664;mix-blend-mode:screen;fill:#0bffc5;fill-opacity:0.613334;stroke-width:0.0940393;stop-color:#000000"
           d="m 120.94417,170.58288 c -5.10421,-5.2772 -7.79701,-10.73166 4.33825,-19.54844 12.13524,-8.81678 16.49065,-4.57025 19.93225,1.9149 3.34941,6.31135 -0.81294,15.89408 -4.85802,18.83302 -4.0451,2.93892 -14.44504,3.93631 -19.41248,-1.19948 z"
           sodipodi:nodetypes="sssss" />
        <circle
           style="opacity:1;mix-blend-mode:screen;fill:#2affcc;fill-opacity:0.172598;stroke-width:0.1;stop-color:#000000"
           id="path1139"
           cx="109.99999"
           cy="130"
           r="10" />
        <circle
           style="opacity:1;mix-blend-mode:screen;fill:#0bffc5;fill-opacity:0.613334;stroke-width:0.1;stop-color:#000000"
           id="path1141"
           cx="12.579782"
           cy="150.2411"
           r="5"
           transform="rotate(-36)" />
        <circle
           style="mix-blend-mode:screen;fill:#0bffc5;fill-opacity:0.613334;stroke-width:0.1;stop-color:#000000"
           id="path1141-2"
           cx="-157.62921"
           cy="44.856525"
           r="5"
           transform="rotate(-108)" />
        <circle
           style="mix-blend-mode:screen;fill:#0bffc5;fill-opacity:0.613334;stroke-width:0.1;stop-color:#000000"
           id="path1141-2-9"
           cx="-109.99999"
           cy="-149.58748"
           r="5"
           transform="scale(-1)" />
        <circle
           style="mix-blend-mode:screen;fill:#0bffc5;fill-opacity:0.613334;stroke-width:0.1;stop-color:#000000"
           id="path1141-2-0"
           cx="89.645477"
           cy="-164.3759"
           r="5"
           transform="rotate(108)" />
        <circle
           style="mix-blend-mode:screen;fill:#0bffc5;fill-opacity:0.613334;stroke-width:0.1;stop-color:#000000"
           id="path1141-2-9-6"
           cx="165.40395"
           cy="20.928358"
           r="5"
           transform="rotate(36)" />
        <path
           id="path794-2"
           style="opacity:0.49664;mix-blend-mode:screen;fill:#fffe05;fill-opacity:0.79756;stroke-width:0.0940393;stop-color:#000000"
           d="m 152.36004,127.71227 c -6.22309,3.89546 -12.11824,5.39538 -18.2193,-8.3078 -6.10103,-13.70317 -1.04176,-17.08051 6.0172,-19.09859 6.86981,-1.963987 15.37777,4.09978 17.41143,8.66749 2.0337,4.56774 0.847,14.94781 -5.20933,18.7389 z"
           sodipodi:nodetypes="sssss" />
        <path
           id="path794-6-6"
           style="opacity:0.49664;mix-blend-mode:screen;fill:#fffe05;fill-opacity:0.79756;stroke-width:0.0940393;stop-color:#000000"
           d="m 121.20207,89.361723 c 1.78177,7.122293 1.38658,13.192387 -13.53123,14.760327 -14.917849,1.56794 -16.566488,-4.287375 -16.304413,-11.624469 0.255018,-7.140506 8.651053,-13.358214 13.623663,-13.880871 4.97263,-0.522634 14.47795,3.813569 16.21198,10.745013 z"
           sodipodi:nodetypes="sssss" />
        <path
           id="path794-5-1"
           style="opacity:0.49664;mix-blend-mode:screen;fill:#fffe05;fill-opacity:0.79756;stroke-width:0.0940394;stop-color:#000000"
           d="m 75.100199,107.14375 c 7.32431,0.50634 12.975212,2.75796 9.856546,17.43017 -3.118654,14.67221 -9.196861,14.43078 -16.093907,11.91425 -6.71219,-2.44906 -10.03108,-12.35557 -8.991534,-17.24633 1.039556,-4.89071 8.100844,-12.59087 15.228895,-12.09809 z"
           sodipodi:nodetypes="sssss" />
        <path
           id="path794-6-3-8"
           style="opacity:0.49664;mix-blend-mode:screen;fill:#fffe05;fill-opacity:0.79756;stroke-width:0.0940393;stop-color:#000000"
           d="m 77.765664,156.48419 c 2.744867,-6.80936 6.632515,-11.48791 19.622896,-3.9879 12.99038,7.50001 10.88249,13.20608 6.35784,18.9879 -4.40339,5.62689 -14.85063,5.72204 -19.180767,3.22205 -4.330131,-2.50002 -9.471345,-11.59515 -6.799969,-18.22205 z"
           sodipodi:nodetypes="sssss" />
        <path
           id="path794-6-3-6-7"
           style="opacity:0.49664;mix-blend-mode:screen;fill:#fffe05;fill-opacity:0.79756;stroke-width:0.0940393;stop-color:#000000"
           d="m 125.51485,169.19622 c -5.62786,-4.71476 -8.87606,-9.85786 2.27112,-19.89482 11.14716,-10.03696 15.92259,-6.26896 20.02322,-0.17908 3.99078,5.92667 0.8529,15.89199 -2.86282,19.23765 -3.71574,3.34565 -13.95445,5.42467 -19.43152,0.83625 z"
           sodipodi:nodetypes="sssss" />
        <circle
           style="mix-blend-mode:screen;fill:#fffe05;fill-opacity:0.79756;stroke-width:0.1;stop-color:#000000"
           id="path1141-20"
           cx="-4.9386616"
           cy="150.87057"
           r="5"
           transform="rotate(-42)" />
        <circle
           style="mix-blend-mode:screen;fill:#fffe05;fill-opacity:0.79756;stroke-width:0.1;stop-color:#000000"
           id="path1141-2-2"
           cx="-163.64137"
           cy="28.390015"
           r="5"
           transform="rotate(-114)" />
        <circle
           style="mix-blend-mode:screen;fill:#fffe05;fill-opacity:0.79756;stroke-width:0.1;stop-color:#000000"
           id="path1141-2-9-3"
           cx="-96.197273"
           cy="-160.39381"
           r="5"
           transform="rotate(174)" />
        <circle
           style="mix-blend-mode:screen;fill:#fffe05;fill-opacity:0.79756;stroke-width:0.1;stop-color:#000000"
           id="path1141-2-0-7"
           cx="104.18819"
           cy="-154.58807"
           r="5"
           transform="rotate(102)" />
        <circle
           style="mix-blend-mode:screen;fill:#fffe05;fill-opacity:0.79756;stroke-width:0.1;stop-color:#000000"
           id="path1141-2-9-6-5"
           cx="160.58911"
           cy="37.783905"
           r="5"
           transform="rotate(30)" />
      </g>
    </g>
  </g>
</svg>
