<?xml version="1.0" encoding="UTF-8" standalone="no"?>
<svg 

   xmlns:dc="http://purl.org/dc/elements/1.1/"
   xmlns:cc="http://creativecommons.org/ns#"
   xmlns:rdf="http://www.w3.org/1999/02/22-rdf-syntax-ns#"
   xmlns:svg="http://www.w3.org/2000/svg"
   xmlns="http://www.w3.org/2000/svg"
   xmlns:sodipodi="http://sodipodi.sourceforge.net/DTD/sodipodi-0.dtd"
   xmlns:inkscape="http://www.inkscape.org/namespaces/inkscape"
   sodipodi:docname="logo.svg"
   inkscape:version="1.0 (4035a4fb49, 2020-05-01)"
   id="svg8"
   version="1.1"
   viewBox="0 0 120.0001 120"
   height="120mm"
   width="120.0001mm">
  <defs
     id="defs2">
    <clipPath
       id="clipPath1432"
       clipPathUnits="userSpaceOnUse">
      <ellipse
         style="fill:none;fill-opacity:1;stroke:#000000;stroke-width:0.117726;stroke-miterlimit:10.433;stroke-opacity:1;stop-color:#000000"
         id="ellipse1434"
         cx="108.88142"
         cy="139.71114"
         rx="59.999981"
         ry="59.999996" />
    </clipPath>
    <clipPath
       id="clipPath1481"
       clipPathUnits="userSpaceOnUse">
      <ellipse
         style="fill:none;fill-opacity:1;stroke:#000000;stroke-width:0.117726;stroke-miterlimit:10.433;stroke-opacity:1;stop-color:#000000"
         id="ellipse1483"
         cx="108.88142"
         cy="139.71114"
         rx="59.999981"
         ry="59.999996" />
    </clipPath>
  </defs>
  <sodipodi:namedview
     inkscape:window-maximized="1"
     inkscape:window-y="23"
     inkscape:window-x="0"
     inkscape:window-height="2977"
     inkscape:window-width="4500"
     fit-margin-bottom="0"
     fit-margin-right="0"
     fit-margin-left="0"
     fit-margin-top="0"
     inkscape:pagecheckerboard="true"
     showgrid="false"
     inkscape:document-rotation="0"
     inkscape:current-layer="layer1"
     inkscape:document-units="mm"
     inkscape:cy="68.992751"
     inkscape:cx="141.2916"
     inkscape:zoom="0.7"
     inkscape:pageshadow="2"
     inkscape:pageopacity="0.0"
     borderopacity="1.0"
     bordercolor="#666666"
     pagecolor="#ffffff"
     id="base" />
  <metadata
     id="metadata5">
    <rdf:RDF>
      <cc:Work
         rdf:about="">
        <dc:format>image/svg+xml</dc:format>
        <dc:type
           rdf:resource="http://purl.org/dc/dcmitype/StillImage" />
        <dc:title></dc:title>
      </cc:Work>
    </rdf:RDF>
  </metadata>
  <g
     transform="translate(-48.881442,-79.711123)"
     id="layer1"
     inkscape:groupmode="layer"
     inkscape:label="Layer 1">
    <g
       clip-path="url(#clipPath1481)"
       id="g1479">
      <ellipse
         style="fill:#ffbc0e;fill-opacity:1;stroke:none;stroke-width:0.117726;stroke-miterlimit:10.433;stroke-opacity:1;stop-color:#000000"
         id="path1028-1-2"
         cx="108.88142"
         cy="139.71114"
         rx="59.999977"
         ry="59.999996" />
      <path
         d="m 91.748973,82.209475 a 59.999999,59.999979 70 0 0 -0.03759,0.03181 59.999999,59.999979 70 0 0 -0.275658,0.236935 59.999999,59.999979 70 0 0 -0.274262,0.239015 59.999999,59.999979 70 0 0 -0.272283,0.240886 59.999999,59.999979 70 0 0 -0.271085,0.242391 59.999999,59.999979 70 0 0 -0.269324,0.243694 59.999999,59.999979 70 0 0 -0.268118,0.245196 59.999999,59.999979 70 0 0 -0.266721,0.247278 59.999999,59.999979 70 0 0 -0.264961,0.248577 59.999999,59.999979 70 0 0 -0.263545,0.250654 59.999999,59.999979 70 0 0 -0.262357,0.252163 59.999999,59.999979 70 0 0 -0.260587,0.253461 59.999999,59.999979 70 0 0 -0.258815,0.254759 59.999999,59.999979 70 0 0 -0.257411,0.256836 59.999999,59.999979 70 0 0 -0.256222,0.258347 59.999999,59.999979 70 0 0 -0.253879,0.259435 59.999999,59.999979 70 0 0 -0.253254,0.261151 59.999999,59.999979 70 0 0 -0.250702,0.262811 59.999999,59.999979 70 0 0 -0.249515,0.264322 59.999999,59.999979 70 0 0 -0.248317,0.265828 59.999999,59.999979 70 0 0 -0.246338,0.267696 59.999999,59.999979 70 0 0 -0.244577,0.268999 59.999999,59.999979 70 0 0 -0.243005,0.269721 59.999999,59.999979 70 0 0 -0.241609,0.271803 59.999999,59.999979 70 0 0 -0.239639,0.273675 59.999999,59.999979 70 0 0 -0.238068,0.274398 59.999999,59.999979 70 0 0 -0.236671,0.276479 59.999999,59.999979 70 0 0 -0.234536,0.276997 59.999999,59.999979 70 0 0 -0.233139,0.279079 59.999999,59.999979 70 0 0 -0.23137,0.280376 59.999999,59.999979 70 0 0 -0.229598,0.281674 59.999999,59.999979 70 0 0 -0.228401,0.283181 59.999999,59.999979 70 0 0 -0.225858,0.284844 59.999999,59.999979 70 0 0 -0.224869,0.285779 59.999999,59.999979 70 0 0 -0.222525,0.286869 59.999999,59.999979 70 0 0 -0.221129,0.28895 59.999999,59.999979 70 0 0 -0.219567,0.289676 59.999999,59.999979 70 0 0 -0.217587,0.291545 59.999999,59.999979 70 0 0 -0.215253,0.292639 59.999999,59.999979 70 0 0 -0.214261,0.29357 59.999999,59.999979 70 0 0 -0.212286,0.295443 59.999999,59.999979 70 0 0 -0.210728,0.29617 59.999999,59.999979 70 0 0 -0.208181,0.297833 59.999999,59.999979 70 0 0 -0.207192,0.298768 59.999999,59.999979 70 0 0 -0.204646,0.30043 59.999999,59.999979 70 0 0 -0.203086,0.301158 59.999999,59.999979 70 0 0 -0.20168,0.303235 59.999999,59.999979 70 0 0 -0.199552,0.303757 59.999999,59.999979 70 0 0 -0.197212,0.304846 59.999999,59.999979 70 0 0 -0.196015,0.306353 59.999999,59.999979 70 0 0 -0.194248,0.307652 59.999999,59.999979 70 0 0 -0.191909,0.308743 59.999999,59.999979 70 0 0 -0.190349,0.309469 59.999999,59.999979 70 0 0 -0.188008,0.310561 59.999999,59.999979 70 0 0 -0.186607,0.31264 59.999999,59.999979 70 0 0 -0.184474,0.313159 59.999999,59.999979 70 0 0 -0.182917,0.313886 59.999999,59.999979 70 0 0 -0.180367,0.315548 59.999999,59.999979 70 0 0 -0.179382,0.316484 59.999999,59.999979 70 0 0 -0.17647,0.317366 59.999999,59.999979 70 0 0 -0.175271,0.318873 59.999999,59.999979 70 0 0 -0.172935,0.319964 59.999999,59.999979 70 0 0 -0.170804,0.320484 59.999999,59.999979 70 0 0 -0.169605,0.321994 59.999999,59.999979 70 0 0 -0.166697,0.32287 59.999999,59.999979 70 0 0 -0.165708,0.32381 59.999999,59.999979 70 0 0 -0.162799,0.32469 59.999999,59.999979 70 0 0 -0.161809,0.32563 59.999999,59.999979 70 0 0 -0.159468,0.32671 59.999999,59.999979 70 0 0 -0.157133,0.32781 59.999999,59.999979 70 0 0 -0.155573,0.32854 59.999999,59.999979 70 0 0 -0.153232,0.32962 59.999999,59.999979 70 0 0 -0.150893,0.33072 59.999999,59.999979 70 0 0 -0.149541,0.33087 59.999999,59.999979 70 0 0 -0.147567,0.33275 59.999999,59.999979 70 0 0 -0.145433,0.33326 59.999999,59.999979 70 0 0 -0.143304,0.33378 59.999999,59.999979 70 0 0 -0.140965,0.33487 59.999999,59.999979 70 0 0 -0.139196,0.33617 59.999999,59.999979 70 0 0 -0.137847,0.33633 59.999999,59.999979 70 0 0 -0.134725,0.33778 59.999999,59.999979 70 0 0 -0.133376,0.33793 59.999999,59.999979 70 0 0 -0.131036,0.33903 59.999999,59.999979 70 0 0 -0.128697,0.34012 59.999999,59.999979 70 0 0 -0.127136,0.34084 59.999999,59.999979 70 0 0 -0.125005,0.34137 59.999999,59.999979 70 0 0 -0.122876,0.34188 59.999999,59.999979 70 0 0 -0.120534,0.34297 59.999999,59.999979 70 0 0 -0.118977,0.34371 59.999999,59.999979 70 0 0 -0.116272,0.34401 59.999999,59.999979 70 0 0 -0.114505,0.34531 59.999999,59.999979 70 0 0 -0.112374,0.34583 59.999999,59.999979 70 0 0 -0.110243,0.34635 59.999999,59.999979 70 0 0 -0.108115,0.34687 59.999999,59.999979 70 0 0 -0.106554,0.34758 59.999999,59.999979 70 0 0 -0.103639,0.34849 59.999999,59.999979 70 0 0 -0.102293,0.34863 59.999999,59.999979 70 0 0 -0.09938,0.34952 59.999999,59.999979 70 0 0 -0.09782,0.35024 59.999999,59.999979 70 0 0 -0.09569,0.35077 59.999999,59.999979 70 0 0 -0.09335,0.35185 59.999999,59.999979 70 0 0 -0.09086,0.35159 59.999999,59.999979 70 0 0 -0.08929,0.35233 59.999999,59.999979 70 0 0 -0.08717,0.35283 59.999999,59.999979 70 0 0 -0.08482,0.35393 59.999999,59.999979 70 0 0 -0.0829,0.35388 59.999999,59.999979 70 0 0 -0.0802,0.35419 59.999999,59.999979 70 0 0 -0.07864,0.35492 59.999999,59.999979 70 0 0 -0.07651,0.35543 59.999999,59.999979 70 0 0 -0.07381,0.35575 59.999999,59.999979 70 0 0 -0.07225,0.35647 59.999999,59.999979 70 0 0 -0.06954,0.35679 59.999999,59.999979 70 0 0 -0.06741,0.3573 59.999999,59.999979 70 0 0 -0.06606,0.35745 59.999999,59.999979 70 0 0 -0.06315,0.35835 59.999999,59.999979 70 0 0 -0.06065,0.35808 59.999999,59.999979 70 0 0 -0.05909,0.35881 59.999999,59.999979 70 0 0 -0.05697,0.35933 59.999999,59.999979 70 0 0 -0.05447,0.35907 59.999999,59.999979 70 0 0 -0.05234,0.35958 59.999999,59.999979 70 0 0 -0.0502,0.36011 59.999999,59.999979 70 0 0 -0.04807,0.36063 59.999999,59.999979 70 0 0 -0.04615,0.36057 59.999999,59.999979 70 0 0 -0.04345,0.36088 59.999999,59.999979 70 0 0 -0.04153,0.36083 59.999999,59.999979 70 0 0 -0.03939,0.36135 59.999999,59.999979 70 0 0 -0.03726,0.36187 59.999999,59.999979 70 0 0 -0.03477,0.36161 59.999999,59.999979 70 0 0 -0.03264,0.36212 59.999999,59.999979 70 0 0 -0.03071,0.36208 59.999999,59.999979 70 0 0 -0.02859,0.3626 59.999999,59.999979 70 0 0 -0.02588,0.36289 59.999999,59.999979 70 0 0 -0.02417,0.36229 59.999999,59.999979 70 0 0 -0.02183,0.36337 59.999999,59.999979 70 0 0 -0.01954,0.36253 59.999999,59.999979 70 0 0 -0.0172,0.36364 59.999999,59.999979 70 0 0 -0.01491,0.3628 59.999999,59.999979 70 0 0 -0.01336,0.36352 59.999999,59.999979 70 0 0 -0.01086,0.36327 59.999999,59.999979 70 0 0 -0.0082,0.36357 59.999999,59.999979 70 0 0 -0.0064,0.36296 59.999999,59.999979 70 0 0 -0.0041,0.36403 59.999999,59.999979 70 0 0 -0.0024,0.36343 59.999999,59.999979 70 0 0 3.15e-4,0.36372 59.999999,59.999979 70 0 0 0.0028,0.36347 59.999999,59.999979 70 0 0 0.0047,0.36341 59.999999,59.999979 70 0 0 0.0067,0.36337 59.999999,59.999979 70 0 0 0.0092,0.3631 59.999999,59.999979 70 0 0 0.01129,0.36363 59.999999,59.999979 70 0 0 0.0132,0.36357 59.999999,59.999979 70 0 0 0.01549,0.36272 59.999999,59.999979 70 0 0 0.0182,0.36306 59.999999,59.999979 70 0 0 0.02012,0.363 59.999999,59.999979 70 0 0 0.02204,0.36294 59.999999,59.999979 70 0 0 0.02454,0.36268 59.999999,59.999979 70 0 0 0.02646,0.36262 59.999999,59.999979 70 0 0 0.02895,0.36237 59.999999,59.999979 70 0 0 0.03145,0.36212 59.999999,59.999979 70 0 0 0.0328,0.36226 59.999999,59.999979 70 0 0 0.03587,0.3618 59.999999,59.999979 70 0 0 0.03757,0.36117 59.999999,59.999979 70 0 0 0.03971,0.36169 59.999999,59.999979 70 0 0 0.042,0.36086 59.999999,59.999979 70 0 0 0.04392,0.3608 59.999999,59.999979 70 0 0 0.04641,0.36054 59.999999,59.999979 70 0 0 0.04892,0.36029 59.999999,59.999979 70 0 0 0.05083,0.36023 59.999999,59.999979 70 0 0 0.05255,0.35961 59.999999,59.999979 70 0 0 0.05504,0.35935 59.999999,59.999979 70 0 0 0.05754,0.35908 59.999999,59.999979 70 0 0 0.05925,0.35846 59.999999,59.999979 70 0 0 0.06175,0.35821 59.999999,59.999979 70 0 0 0.06368,0.35815 59.999999,59.999979 70 0 0 0.06596,0.35731 59.999999,59.999979 70 0 0 0.06845,0.35706 59.999999,59.999979 70 0 0 0.07017,0.35643 59.999999,59.999979 70 0 0 0.0721,0.35638 59.999999,59.999979 70 0 0 0.07459,0.35612 59.999999,59.999979 70 0 0 0.07687,0.35528 59.999999,59.999979 70 0 0 0.07916,0.35445 59.999999,59.999979 70 0 0 0.08108,0.35441 59.999999,59.999979 70 0 0 0.08279,0.35377 59.999999,59.999979 70 0 0 0.08529,0.35352 59.999999,59.999979 70 0 0 0.08758,0.35269 59.999999,59.999979 70 0 0 0.08951,0.35263 59.999999,59.999979 70 0 0 0.09179,0.3518 59.999999,59.999979 70 0 0 0.09407,0.35097 59.999999,59.999979 70 0 0 0.096,0.35091 59.999999,59.999979 70 0 0 0.09828,0.35008 59.999999,59.999979 70 0 0 0.100013,0.34946 59.999999,59.999979 70 0 0 0.102297,0.34863 59.999999,59.999979 70 0 0 0.104785,0.34836 59.999999,59.999979 70 0 0 0.106309,0.34717 59.999999,59.999979 70 0 0 0.108789,0.3469 59.999999,59.999979 70 0 0 0.111085,0.34608 59.999999,59.999979 70 0 0 0.112776,0.34546 59.999999,59.999979 70 0 0 0.11471,0.3454 59.999999,59.999979 70 0 0 0.117359,0.34378 59.999999,59.999979 70 0 0 0.119262,0.34375 59.999999,59.999979 70 0 0 0.120835,0.34252 59.999999,59.999979 70 0 0 0.1233,0.34227 59.999999,59.999979 70 0 0 0.03284,0.0884 59.999999,59.999979 70 0 0 0.125554,0.34145 59.999999,59.999979 70 0 0 0.128259,0.33981 59.999999,59.999979 70 0 0 0.130163,0.33979 59.999999,59.999979 70 0 0 0.131642,0.33858 59.999999,59.999979 70 0 0 0.133934,0.33775 59.999999,59.999979 70 0 0 0.136431,0.3375 59.999999,59.999979 70 0 0 0.138501,0.33609 59.999999,59.999979 70 0 0 0.140231,0.33546 59.999999,59.999979 70 0 0 0.142309,0.33407 59.999999,59.999979 70 0 0 0.144243,0.33399 59.999999,59.999979 70 0 0 0.146312,0.33261 59.999999,59.999979 70 0 0 0.148009,0.33198 59.999999,59.999979 70 0 0 0.150879,0.33094 59.999999,59.999979 70 0 0 0.151817,0.32996 59.999999,59.999979 70 0 0 0.142617,0.30287 59.999999,59.999979 70 0 0 -0.0016,0.001 59.999999,59.999979 70 0 0 -0.255648,0.25813 59.999999,59.999979 70 0 0 -0.254449,0.25965 59.999999,59.999979 70 0 0 -0.252684,0.26094 59.999999,59.999979 70 0 0 -0.251277,0.26302 59.999999,59.999979 70 0 0 -0.249512,0.26432 59.999999,59.999979 70 0 0 -0.247745,0.26562 59.999999,59.999979 70 0 0 -0.246338,0.2677 59.999999,59.999979 70 0 0 -0.244784,0.26842 59.999999,59.999979 70 0 0 -0.243377,0.2705 59.999999,59.999979 70 0 0 -0.241606,0.27181 59.999999,59.999979 70 0 0 -0.239842,0.2731 59.999999,59.999979 70 0 0 -0.237863,0.27498 59.999999,59.999979 70 0 0 -0.236312,0.27568 59.999999,59.999979 70 0 0 -0.234899,0.27779 59.999999,59.999979 70 0 0 -0.233134,0.27907 59.999999,59.999979 70 0 0 -0.231365,0.28038 59.999999,59.999979 70 0 0 -0.229603,0.28167 59.999999,59.999979 70 0 0 -0.22783,0.28298 59.999999,59.999979 70 0 0 -0.226636,0.28448 59.999999,59.999979 70 0 0 -0.22409,0.28614 59.999999,59.999979 70 0 0 -0.223101,0.28708 59.999999,59.999979 70 0 0 -0.221122,0.28895 59.999999,59.999979 70 0 0 -0.218994,0.28947 59.999999,59.999979 70 0 0 -0.217592,0.29154 59.999999,59.999979 70 0 0 -0.21603,0.29227 59.999999,59.999979 70 0 0 -0.214056,0.29414 59.999999,59.999979 70 0 0 -0.211716,0.29524 59.999999,59.999979 70 0 0 -0.210727,0.29617 59.999999,59.999979 70 0 0 -0.208752,0.29805 59.999999,59.999979 70 0 0 -0.206619,0.29856 59.999999,59.999979 70 0 0 -0.205221,0.30063 59.999999,59.999979 70 0 0 -0.203084,0.30116 59.999999,59.999979 70 0 0 -0.201318,0.30246 59.999999,59.999979 70 0 0 -0.199341,0.30433 59.999999,59.999979 70 0 0 -0.197784,0.30505 59.999999,59.999979 70 0 0 -0.196018,0.30635 59.999999,59.999979 70 0 0 -0.193677,0.30744 59.999999,59.999979 70 0 0 -0.192116,0.30817 59.999999,59.999979 70 0 0 -0.190142,0.31004 59.999999,59.999979 70 0 0 -0.188581,0.31077 59.999999,59.999979 70 0 0 -0.18624,0.31187 59.999999,59.999979 70 0 0 -0.185046,0.31337 59.999999,59.999979 70 0 0 -0.182137,0.31424 59.999999,59.999979 70 0 0 -0.180939,0.31576 59.999999,59.999979 70 0 0 -0.178811,0.31627 59.999999,59.999979 70 0 0 -0.177038,0.31758 59.999999,59.999979 70 0 0 -0.174703,0.31866 59.999999,59.999979 70 0 0 -0.172935,0.31997 59.999999,59.999979 70 0 0 -0.171373,0.32069 59.999999,59.999979 70 0 0 -0.169037,0.32178 59.999999,59.999979 70 0 0 -0.167475,0.32251 59.999999,59.999979 70 0 0 -0.164927,0.32418 59.999999,59.999979 70 0 0 -0.163577,0.32432 59.999999,59.999979 70 0 0 -0.161032,0.32599 59.999999,59.999979 70 0 0 -0.159471,0.32671 59.999999,59.999979 70 0 0 -0.15713,0.32782 59.999999,59.999979 70 0 0 -0.155573,0.32853 59.999999,59.999979 70 0 0 -0.153231,0.32962 59.999999,59.999979 70 0 0 -0.151671,0.33036 59.999999,59.999979 70 0 0 -0.149334,0.33145 59.999999,59.999979 70 0 0 -0.146996,0.33253 59.999999,59.999979 70 0 0 -0.145435,0.33326 59.999999,59.999979 70 0 0 -0.143304,0.33378 59.999999,59.999979 70 0 0 -0.141534,0.33508 59.999999,59.999979 70 0 0 -0.139406,0.3356 59.999999,59.999979 70 0 0 -0.137067,0.33669 59.999999,59.999979 70 0 0 -0.135299,0.33798 59.999999,59.999979 70 0 0 -0.132803,0.33773 59.999999,59.999979 70 0 0 -0.131033,0.33903 59.999999,59.999979 70 0 0 -0.129268,0.34033 59.999999,59.999979 70 0 0 -0.126776,0.34006 59.999999,59.999979 70 0 0 -0.125003,0.34137 59.999999,59.999979 70 0 0 -0.12267,0.34245 59.999999,59.999979 70 0 0 -0.121106,0.34319 59.999999,59.999979 70 0 0 -0.118404,0.34349 59.999999,59.999979 70 0 0 -0.116844,0.34422 59.999999,59.999979 70 0 0 -0.114507,0.34531 59.999999,59.999979 70 0 0 -0.0089,0.0272 59.999999,59.999979 70 0 0 0.04481,0.0555 59.999999,59.999979 70 0 1 0.28149,-0.0733 59.999999,59.999979 70 0 1 0.352631,-0.0895 59.999999,59.999979 70 0 1 0.352675,-0.0876 59.999999,59.999979 70 0 1 0.35353,-0.0853 59.999999,59.999979 70 0 1 0.353573,-0.0833 59.999999,59.999979 70 0 1 0.354395,-0.0811 59.999999,59.999979 70 0 1 0.35525,-0.0788 59.999999,59.999979 70 0 1 0.355294,-0.0769 59.999999,59.999979 70 0 1 0.355542,-0.0744 59.999999,59.999979 70 0 1 0.356159,-0.0727 59.999999,59.999979 70 0 1 0.357014,-0.0704 59.999999,59.999979 70 0 1 0.357263,-0.0679 59.999999,59.999979 70 0 1 0.357307,-0.066 59.999999,59.999979 70 0 1 0.35735,-0.0641 59.999999,59.999979 70 0 1 0.358411,-0.0612 59.999999,59.999979 70 0 1 0.358822,-0.06 59.999999,59.999979 70 0 1 0.35931,-0.0569 59.999999,59.999979 70 0 1 0.359354,-0.055 59.999999,59.999979 70 0 1 0.359398,-0.0531 59.999999,59.999979 70 0 1 0.359647,-0.0507 59.999999,59.999979 70 0 1 0.360502,-0.0483 59.999999,59.999979 70 0 1 0.360546,-0.0464 59.999999,59.999979 70 0 1 0.36059,-0.0445 59.999999,59.999979 70 0 1 0.361446,-0.0422 59.999999,59.999979 70 0 1 0.361122,-0.0395 59.999999,59.999979 70 0 1 0.361738,-0.0378 59.999999,59.999979 70 0 1 0.361987,-0.0353 59.999999,59.999979 70 0 1 0.361495,-0.0331 59.999999,59.999979 70 0 1 0.362314,-0.0309 59.999999,59.999979 70 0 1 0.362358,-0.029 59.999999,59.999979 70 0 1 0.362643,-0.0264 59.999999,59.999979 70 0 1 0.362683,-0.0245 59.999999,59.999979 70 0 1 0.362737,-0.0226 59.999999,59.999979 70 0 1 0.362992,-0.0201 59.999999,59.999979 70 0 1 0.363256,-0.0176 59.999999,59.999979 70 0 1 0.36331,-0.0157 59.999999,59.999979 70 0 1 0.363361,-0.0138 59.999999,59.999979 70 0 1 0.363051,-0.0111 59.999999,59.999979 70 0 1 0.36388,-0.009 59.999999,59.999979 70 0 1 0.363157,-0.007 59.999999,59.999979 70 0 1 0.363413,-0.005 59.999999,59.999979 70 0 1 0.36368,-0.002 59.999999,59.999979 70 0 1 0.363154,-1.2e-4 59.999999,59.999979 70 0 1 0.363785,0.002 59.999999,59.999979 70 0 1 0.363468,0.004 59.999999,59.999979 70 0 1 0.363523,0.006 59.999999,59.999979 70 0 1 0.36321,0.009 59.999999,59.999979 70 0 1 0.363837,0.0107 59.999999,59.999979 70 0 1 0.362747,0.013 59.999999,59.999979 70 0 1 0.363574,0.0153 59.999999,59.999979 70 0 1 0.36306,0.0174 59.999999,59.999979 70 0 1 0.363109,0.0193 59.999999,59.999979 70 0 1 0.362802,0.022 59.999999,59.999979 70 0 1 0.362645,0.0234 59.999999,59.999979 70 0 1 0.362541,0.0267 59.999999,59.999979 70 0 1 0.362386,0.028 59.999999,59.999979 70 0 1 0.362075,0.0307 59.999999,59.999979 70 0 1 0.362125,0.0326 59.999999,59.999979 70 0 1 0.361819,0.0353 59.999999,59.999979 70 0 1 0.361658,0.0367 59.999999,59.999979 70 0 1 0.361348,0.0394 59.999999,59.999979 70 0 1 0.361407,0.0413 59.999999,59.999979 70 0 1 0.361088,0.044 59.999999,59.999979 70 0 1 0.360366,0.0456 59.999999,59.999979 70 0 1 0.36005,0.0483 59.999999,59.999979 70 0 1 0.360108,0.0502 59.999999,59.999979 70 0 1 0.359585,0.0523 59.999999,59.999979 70 0 1 0.359847,0.0548 59.999999,59.999979 70 0 1 0.359119,0.0564 59.999999,59.999979 70 0 1 0.358238,0.0593 59.999999,59.999979 70 0 1 0.358861,0.061 59.999999,59.999979 70 0 1 0.357771,0.0634 59.999999,59.999979 70 0 1 0.35725,0.0655 59.999999,59.999979 70 0 1 0.357304,0.0674 59.999999,59.999979 70 0 1 0.356991,0.0701 59.999999,59.999979 70 0 1 0.356267,0.0717 59.999999,59.999979 70 0 1 0.355954,0.0744 59.999999,59.999979 70 0 1 0.35523,0.0759 59.999999,59.999979 70 0 1 0.354912,0.0786 59.999999,59.999979 70 0 1 0.354972,0.0806 59.999999,59.999979 70 0 1 0.353878,0.0829 59.999999,59.999979 70 0 1 0.353149,0.0845 59.999999,59.999979 70 0 1 0.352841,0.0872 59.999999,59.999979 70 0 1 0.352892,0.0891 59.999999,59.999979 70 0 1 0.351803,0.0914 59.999999,59.999979 70 0 1 0.351279,0.0935 59.999999,59.999979 70 0 1 0.350554,0.0951 59.999999,59.999979 70 0 1 0.350248,0.0978 59.999999,59.999979 70 0 1 0.349722,0.0999 59.999999,59.999979 70 0 1 0.348997,0.1015 59.999999,59.999979 70 0 1 0.348118,0.10443 59.999999,59.999979 70 0 1 0.347957,0.10577 59.999999,59.999979 70 0 1 0.346871,0.10811 59.999999,59.999979 70 0 1 0.346349,0.11025 59.999999,59.999979 70 0 1 0.345826,0.11237 59.999999,59.999979 70 0 1 0.344744,0.11472 59.999999,59.999979 70 0 1 0.34479,0.11663 59.999999,59.999979 70 0 1 0.343494,0.11841 59.999999,59.999979 70 0 1 0.342611,0.12131 59.999999,59.999979 70 0 1 0.342454,0.12266 59.999999,59.999979 70 0 1 0.341361,0.12501 59.999999,59.999979 70 0 1 0.340638,0.12657 59.999999,59.999979 70 0 1 0.339756,0.12947 59.999999,59.999979 70 0 1 0.339026,0.13104 59.999999,59.999979 70 0 1 0.338507,0.13317 59.999999,59.999979 70 0 1 0.337209,0.13493 59.999999,59.999979 70 0 1 0.336697,0.13707 59.999999,59.999979 70 0 1 0.3356,0.13941 59.999999,59.999979 70 0 1 0.33508,0.14153 59.999999,59.999979 70 0 1 0.33435,0.14309 59.999999,59.999979 70 0 1 0.33326,0.14544 59.999999,59.999979 70 0 1 0.33196,0.1472 59.999999,59.999979 70 0 1 0.33145,0.14934 59.999999,59.999979 70 0 1 0.33035,0.15167 59.999999,59.999979 70 0 1 0.0601,0.028 59.999999,59.999979 70 0 0 0.19821,0.10524 59.999999,59.999979 70 0 0 0.32199,0.16961 59.999999,59.999979 70 0 0 0.3223,0.1669 59.999999,59.999979 70 0 0 0.32381,0.16571 59.999999,59.999979 70 0 0 0.3249,0.16337 59.999999,59.999979 70 0 0 0.32599,0.16103 59.999999,59.999979 70 0 0 0.32672,0.15947 59.999999,59.999979 70 0 0 0.32781,0.15713 59.999999,59.999979 70 0 0 0.32853,0.15558 59.999999,59.999979 70 0 0 0.32963,0.15323 59.999999,59.999979 70 0 0 0.33035,0.15167 59.999999,59.999979 70 0 0 0.33144,0.14933 59.999999,59.999979 70 0 0 0.33254,0.14699 59.999999,59.999979 70 0 0 0.33326,0.14544 59.999999,59.999979 70 0 0 0.33378,0.14331 59.999999,59.999979 70 0 0 0.33508,0.14154 59.999999,59.999979 70 0 0 0.33539,0.13883 59.999999,59.999979 70 0 0 0.3369,0.13763 59.999999,59.999979 70 0 0 0.33721,0.13494 59.999999,59.999979 70 0 0 0.3385,0.13316 59.999999,59.999979 70 0 0 0.33903,0.13104 59.999999,59.999979 70 0 0 0.33955,0.1289 59.999999,59.999979 70 0 0 0.34084,0.12715 59.999999,59.999979 70 0 0 0.34137,0.125 59.999999,59.999979 70 0 0 0.34245,0.12266 59.999999,59.999979 70 0 0 0.3424,0.12075 59.999999,59.999979 70 0 0 0.34428,0.11877 59.999999,59.999979 70 0 0 0.34401,0.11627 59.999999,59.999979 70 0 0 0.34474,0.11471 59.999999,59.999979 70 0 0 0.34583,0.11238 59.999999,59.999979 70 0 0 0.34635,0.11024 59.999999,59.999979 70 0 0 0.34708,0.10869 59.999999,59.999979 70 0 0 0.34795,0.10577 59.999999,59.999979 70 0 0 0.34791,0.10385 59.999999,59.999979 70 0 0 0.34921,0.10208 59.999999,59.999979 70 0 0 0.34972,0.1 59.999999,59.999979 70 0 0 0.35004,0.0973 59.999999,59.999979 70 0 0 0.35076,0.0957 59.999999,59.999979 70 0 0 0.35128,0.0935 59.999999,59.999979 70 0 0 0.3518,0.0914 59.999999,59.999979 70 0 0 0.35269,0.0885 59.999999,59.999979 70 0 0 0.35285,0.0872 59.999999,59.999979 70 0 0 0.35335,0.085 59.999999,59.999979 70 0 0 0.35387,0.0829 59.999999,59.999979 70 0 0 0.35498,0.0806 59.999999,59.999979 70 0 0 0.35471,0.0781 59.999999,59.999979 70 0 0 0.35543,0.0765 59.999999,59.999979 70 0 0 0.35575,0.0738 59.999999,59.999979 70 0 0 0.35647,0.0722 59.999999,59.999979 70 0 0 0.35679,0.0696 59.999999,59.999979 70 0 0 0.35751,0.068 59.999999,59.999979 70 0 0 0.35725,0.0655 59.999999,59.999979 70 0 0 0.35777,0.0634 59.999999,59.999979 70 0 0 0.35886,0.061 59.999999,59.999979 70 0 0 0.3586,0.0585 59.999999,59.999979 70 0 0 0.35876,0.0572 59.999999,59.999979 70 0 0 0.35964,0.0543 59.999999,59.999979 70 0 0 0.35979,0.0529 59.999999,59.999979 70 0 0 0.3601,0.0502 59.999999,59.999979 70 0 0 0.35985,0.0477 59.999999,59.999979 70 0 0 0.36057,0.0461 59.999999,59.999979 70 0 0 0.36089,0.0435 59.999999,59.999979 70 0 0 0.3616,0.0419 59.999999,59.999979 70 0 0 0.36115,0.0388 59.999999,59.999979 70 0 0 0.36187,0.0373 59.999999,59.999979 70 0 0 0.36161,0.0348 59.999999,59.999979 70 0 0 0.36233,0.0332 59.999999,59.999979 70 0 0 0.36187,0.0302 59.999999,59.999979 70 0 0 0.36259,0.0286 59.999999,59.999979 70 0 0 0.36234,0.0261 59.999999,59.999979 70 0 0 0.36285,0.024 59.999999,59.999979 70 0 0 0.36279,0.022 59.999999,59.999979 70 0 0 0.36312,0.0193 59.999999,59.999979 70 0 0 0.36305,0.0174 59.999999,59.999979 70 0 0 0.36358,0.0153 59.999999,59.999979 70 0 0 0.36332,0.0128 59.999999,59.999979 70 0 0 0.36327,0.0109 59.999999,59.999979 70 0 0 0.363,0.008 59.999999,59.999979 70 0 0 0.36352,0.006 59.999999,59.999979 70 0 0 0.36347,0.004 59.999999,59.999979 70 0 0 0.36399,0.002 59.999999,59.999979 70 0 0 0.36316,-1.1e-4 59.999999,59.999979 70 0 0 0.36347,-0.003 59.999999,59.999979 70 0 0 0.36341,-0.005 59.999999,59.999979 70 0 0 0.36394,-0.007 59.999999,59.999979 70 0 0 0.3631,-0.009 59.999999,59.999979 70 0 0 0.36362,-0.0113 59.999999,59.999979 70 0 0 0.363,-0.013 59.999999,59.999979 70 0 0 0.3633,-0.0157 59.999999,59.999979 70 0 0 0.36305,-0.0182 59.999999,59.999979 70 0 0 0.363,-0.0201 59.999999,59.999979 70 0 0 0.36294,-0.022 59.999999,59.999979 70 0 0 0.36269,-0.0245 59.999999,59.999979 70 0 0 0.36264,-0.0264 59.999999,59.999979 70 0 0 0.36236,-0.029 59.999999,59.999979 70 0 0 0.36231,-0.0309 59.999999,59.999979 70 0 0 0.36149,-0.0331 59.999999,59.999979 70 0 0 0.36178,-0.0359 59.999999,59.999979 70 0 0 0.36194,-0.0372 59.999999,59.999979 70 0 0 0.36093,-0.0401 59.999999,59.999979 70 0 0 0.36145,-0.0422 59.999999,59.999979 70 0 0 0.36078,-0.0439 59.999999,59.999979 70 0 0 0.36055,-0.0464 59.999999,59.999979 70 0 0 0.36051,-0.0483 59.999999,59.999979 70 0 0 0.35964,-0.0507 59.999999,59.999979 70 0 0 0.35997,-0.0533 59.999999,59.999979 70 0 0 0.35936,-0.055 59.999999,59.999979 70 0 0 0.3585,-0.0574 59.999999,59.999979 70 0 0 0.35903,-0.0595 59.999999,59.999979 70 0 0 0.35819,-0.0617 59.999999,59.999979 70 0 0 0.3576,-0.0634 59.999999,59.999979 70 0 0 0.35788,-0.0662 59.999999,59.999979 70 0 0 0.35669,-0.0677 59.999999,59.999979 70 0 0 0.35701,-0.0703 59.999999,59.999979 70 0 0 0.35616,-0.0727 59.999999,59.999979 70 0 0 0.35555,-0.0744 59.999999,59.999979 70 0 0 0.35529,-0.0768 59.999999,59.999979 70 0 0 0.35521,-0.0789 59.999999,59.999979 70 0 0 0.3544,-0.0811 59.999999,59.999979 70 0 0 0.35357,-0.0834 59.999999,59.999979 70 0 0 0.35353,-0.0853 59.999999,59.999979 70 0 0 0.35268,-0.0876 59.999999,59.999979 70 0 0 0.35262,-0.0895 59.999999,59.999979 70 0 0 0.35182,-0.0918 59.999999,59.999979 70 0 0 0.35095,-0.0941 59.999999,59.999979 70 0 0 0.35035,-0.0958 59.999999,59.999979 70 0 0 0.35008,-0.0983 59.999999,59.999979 70 0 0 0.34944,-0.10004 59.999999,59.999979 70 0 0 0.34919,-0.10252 59.999999,59.999979 70 0 0 0.0631,-0.0187 59.999999,59.999979 70 0 0 17.39507,-66.12854 59.999999,59.999979 70 0 0 -73.514047,-36.980463 z"
         style="opacity:0.26965873;fill:#53005e;fill-opacity:1;stroke:none;stroke-width:0.117726;stroke-miterlimit:10.433;stroke-opacity:1;stop-color:#000000"
         id="path1278-0" />
      <path
         id="path1278"
         style="opacity:0.26965873;fill:#d60067;fill-opacity:1;stroke:none;stroke-width:0.117726;stroke-miterlimit:10.433;stroke-opacity:1;stop-color:#000000"
         d="m 126.01388,82.209472 a 59.999979,59.999999 20 0 1 0.0376,0.03178 59.999979,59.999999 20 0 1 0.27566,0.236929 59.999979,59.999999 20 0 1 0.27426,0.239018 59.999979,59.999999 20 0 1 0.27229,0.240883 59.999979,59.999999 20 0 1 0.27109,0.242398 59.999979,59.999999 20 0 1 0.26932,0.243688 59.999979,59.999999 20 0 1 0.26812,0.245202 59.999979,59.999999 20 0 1 0.26672,0.247276 59.999979,59.999999 20 0 1 0.26495,0.24858 59.999979,59.999999 20 0 1 0.26355,0.250654 59.999979,59.999999 20 0 1 0.26236,0.252159 59.999979,59.999999 20 0 1 0.26058,0.253461 59.999979,59.999999 20 0 1 0.25882,0.254754 59.999979,59.999999 20 0 1 0.25742,0.256842 59.999979,59.999999 20 0 1 0.25621,0.25835 59.999979,59.999999 20 0 1 0.25388,0.259428 59.999979,59.999999 20 0 1 0.25325,0.261157 59.999979,59.999999 20 0 1 0.25072,0.262808 59.999979,59.999999 20 0 1 0.2495,0.264326 59.999979,59.999999 20 0 1 0.24832,0.265821 59.999979,59.999999 20 0 1 0.24634,0.267697 59.999979,59.999999 20 0 1 0.24457,0.269002 59.999979,59.999999 20 0 1 0.24302,0.269723 59.999979,59.999999 20 0 1 0.24161,0.271806 59.999979,59.999999 20 0 1 0.23963,0.273673 59.999979,59.999999 20 0 1 0.23807,0.274396 59.999979,59.999999 20 0 1 0.23667,0.276477 59.999979,59.999999 20 0 1 0.23454,0.277004 59.999979,59.999999 20 0 1 0.23313,0.279075 59.999979,59.999999 20 0 1 0.23137,0.280372 59.999979,59.999999 20 0 1 0.2296,0.281674 59.999979,59.999999 20 0 1 0.2284,0.283186 59.999979,59.999999 20 0 1 0.22586,0.284836 59.999979,59.999999 20 0 1 0.22487,0.285784 59.999979,59.999999 20 0 1 0.22253,0.286872 59.999979,59.999999 20 0 1 0.22112,0.288943 59.999979,59.999999 20 0 1 0.21957,0.289676 59.999979,59.999999 20 0 1 0.21758,0.291552 59.999979,59.999999 20 0 1 0.21526,0.292639 59.999979,59.999999 20 0 1 0.21426,0.293567 59.999979,59.999999 20 0 1 0.21229,0.295443 59.999979,59.999999 20 0 1 0.21073,0.296176 59.999979,59.999999 20 0 1 0.20818,0.297824 59.999979,59.999999 20 0 1 0.20719,0.298771 59.999979,59.999999 20 0 1 0.20465,0.300432 59.999979,59.999999 20 0 1 0.20308,0.301161 59.999979,59.999999 20 0 1 0.20168,0.303236 59.999979,59.999999 20 0 1 0.19956,0.30375 59.999979,59.999999 20 0 1 0.19721,0.304845 59.999979,59.999999 20 0 1 0.19601,0.306355 59.999979,59.999999 20 0 1 0.19425,0.307652 59.999979,59.999999 20 0 1 0.19191,0.308745 59.999979,59.999999 20 0 1 0.19034,0.309465 59.999979,59.999999 20 0 1 0.18801,0.310563 59.999979,59.999999 20 0 1 0.18661,0.312637 59.999979,59.999999 20 0 1 0.18448,0.313161 59.999979,59.999999 20 0 1 0.18291,0.31389 59.999979,59.999999 20 0 1 0.18037,0.315548 59.999979,59.999999 20 0 1 0.17938,0.31648 59.999979,59.999999 20 0 1 0.17647,0.317364 59.999979,59.999999 20 0 1 0.17528,0.31888 59.999979,59.999999 20 0 1 0.17293,0.319963 59.999979,59.999999 20 0 1 0.1708,0.320484 59.999979,59.999999 20 0 1 0.16961,0.321985 59.999979,59.999999 20 0 1 0.16669,0.32288 59.999979,59.999999 20 0 1 0.16571,0.3238 59.999979,59.999999 20 0 1 0.1628,0.32469 59.999979,59.999999 20 0 1 0.1618,0.32563 59.999979,59.999999 20 0 1 0.15948,0.32671 59.999979,59.999999 20 0 1 0.15713,0.32782 59.999979,59.999999 20 0 1 0.15557,0.32853 59.999979,59.999999 20 0 1 0.15324,0.32963 59.999979,59.999999 20 0 1 0.15089,0.33071 59.999979,59.999999 20 0 1 0.14954,0.33087 59.999979,59.999999 20 0 1 0.14756,0.33275 59.999979,59.999999 20 0 1 0.14544,0.33326 59.999979,59.999999 20 0 1 0.1433,0.33378 59.999979,59.999999 20 0 1 0.14097,0.33487 59.999979,59.999999 20 0 1 0.13919,0.33617 59.999979,59.999999 20 0 1 0.13785,0.33633 59.999979,59.999999 20 0 1 0.13473,0.33778 59.999979,59.999999 20 0 1 0.13337,0.33793 59.999979,59.999999 20 0 1 0.13104,0.33903 59.999979,59.999999 20 0 1 0.1287,0.34011 59.999979,59.999999 20 0 1 0.12714,0.34086 59.999979,59.999999 20 0 1 0.12499,0.34135 59.999979,59.999999 20 0 1 0.12288,0.34189 59.999979,59.999999 20 0 1 0.12053,0.34298 59.999979,59.999999 20 0 1 0.11899,0.3437 59.999979,59.999999 20 0 1 0.11626,0.34401 59.999979,59.999999 20 0 1 0.11451,0.34531 59.999979,59.999999 20 0 1 0.11238,0.34583 59.999979,59.999999 20 0 1 0.11024,0.34635 59.999979,59.999999 20 0 1 0.10811,0.34687 59.999979,59.999999 20 0 1 0.10655,0.34759 59.999979,59.999999 20 0 1 0.10365,0.34848 59.999979,59.999999 20 0 1 0.10229,0.34864 59.999979,59.999999 20 0 1 0.0994,0.34951 59.999979,59.999999 20 0 1 0.0978,0.35025 59.999979,59.999999 20 0 1 0.0957,0.35076 59.999979,59.999999 20 0 1 0.0934,0.35185 59.999979,59.999999 20 0 1 0.0909,0.35159 59.999979,59.999999 20 0 1 0.0893,0.35233 59.999979,59.999999 20 0 1 0.0872,0.35284 59.999979,59.999999 20 0 1 0.0848,0.35393 59.999979,59.999999 20 0 1 0.0829,0.35387 59.999979,59.999999 20 0 1 0.0802,0.35419 59.999979,59.999999 20 0 1 0.0786,0.35492 59.999979,59.999999 20 0 1 0.0765,0.35543 59.999979,59.999999 20 0 1 0.0738,0.35575 59.999979,59.999999 20 0 1 0.0722,0.35648 59.999979,59.999999 20 0 1 0.0695,0.35678 59.999979,59.999999 20 0 1 0.0674,0.3573 59.999979,59.999999 20 0 1 0.0661,0.35747 59.999979,59.999999 20 0 1 0.0631,0.35833 59.999979,59.999999 20 0 1 0.0607,0.35809 59.999979,59.999999 20 0 1 0.0591,0.35881 59.999979,59.999999 20 0 1 0.057,0.35932 59.999979,59.999999 20 0 1 0.0545,0.35907 59.999979,59.999999 20 0 1 0.0523,0.35959 59.999979,59.999999 20 0 1 0.0502,0.36009 59.999979,59.999999 20 0 1 0.0481,0.36064 59.999979,59.999999 20 0 1 0.0462,0.36057 59.999979,59.999999 20 0 1 0.0435,0.36088 59.999979,59.999999 20 0 1 0.0415,0.36083 59.999979,59.999999 20 0 1 0.0394,0.36135 59.999979,59.999999 20 0 1 0.0373,0.36187 59.999979,59.999999 20 0 1 0.0348,0.36161 59.999979,59.999999 20 0 1 0.0326,0.36212 59.999979,59.999999 20 0 1 0.0307,0.36208 59.999979,59.999999 20 0 1 0.0286,0.3626 59.999979,59.999999 20 0 1 0.0259,0.3629 59.999979,59.999999 20 0 1 0.0242,0.36228 59.999979,59.999999 20 0 1 0.0218,0.36337 59.999979,59.999999 20 0 1 0.0195,0.36254 59.999979,59.999999 20 0 1 0.0172,0.36363 59.999979,59.999999 20 0 1 0.0149,0.3628 59.999979,59.999999 20 0 1 0.0134,0.36353 59.999979,59.999999 20 0 1 0.0109,0.36326 59.999979,59.999999 20 0 1 0.008,0.36358 59.999979,59.999999 20 0 1 0.006,0.36295 59.999979,59.999999 20 0 1 0.004,0.36403 59.999979,59.999999 20 0 1 0.002,0.36343 59.999979,59.999999 20 0 1 -3.1e-4,0.36373 59.999979,59.999999 20 0 1 -0.003,0.36346 59.999979,59.999999 20 0 1 -0.005,0.36342 59.999979,59.999999 20 0 1 -0.007,0.36336 59.999979,59.999999 20 0 1 -0.009,0.36311 59.999979,59.999999 20 0 1 -0.0113,0.36362 59.999979,59.999999 20 0 1 -0.0132,0.36357 59.999979,59.999999 20 0 1 -0.0155,0.36273 59.999979,59.999999 20 0 1 -0.0182,0.36304 59.999979,59.999999 20 0 1 -0.0201,0.36301 59.999979,59.999999 20 0 1 -0.022,0.36293 59.999979,59.999999 20 0 1 -0.0245,0.36269 59.999979,59.999999 20 0 1 -0.0264,0.36264 59.999979,59.999999 20 0 1 -0.029,0.36236 59.999979,59.999999 20 0 1 -0.0315,0.36211 59.999979,59.999999 20 0 1 -0.0328,0.36227 59.999979,59.999999 20 0 1 -0.0359,0.36179 59.999979,59.999999 20 0 1 -0.0376,0.36116 59.999979,59.999999 20 0 1 -0.0397,0.36169 59.999979,59.999999 20 0 1 -0.042,0.36088 59.999979,59.999999 20 0 1 -0.0439,0.36079 59.999979,59.999999 20 0 1 -0.0464,0.36055 59.999979,59.999999 20 0 1 -0.0489,0.3603 59.999979,59.999999 20 0 1 -0.0509,0.36021 59.999979,59.999999 20 0 1 -0.0526,0.35961 59.999979,59.999999 20 0 1 -0.055,0.35935 59.999979,59.999999 20 0 1 -0.0576,0.35907 59.999979,59.999999 20 0 1 -0.0593,0.35846 59.999979,59.999999 20 0 1 -0.0617,0.35821 59.999979,59.999999 20 0 1 -0.0636,0.35816 59.999979,59.999999 20 0 1 -0.066,0.3573 59.999979,59.999999 20 0 1 -0.0685,0.35706 59.999979,59.999999 20 0 1 -0.0701,0.35644 59.999979,59.999999 20 0 1 -0.0721,0.35637 59.999979,59.999999 20 0 1 -0.0746,0.35611 59.999979,59.999999 20 0 1 -0.0769,0.35529 59.999979,59.999999 20 0 1 -0.0792,0.35444 59.999979,59.999999 20 0 1 -0.0811,0.35439 59.999979,59.999999 20 0 1 -0.0828,0.35379 59.999979,59.999999 20 0 1 -0.0853,0.35352 59.999979,59.999999 20 0 1 -0.0876,0.35268 59.999979,59.999999 20 0 1 -0.0895,0.35263 59.999979,59.999999 20 0 1 -0.0918,0.35182 59.999979,59.999999 20 0 1 -0.0941,0.35096 59.999979,59.999999 20 0 1 -0.096,0.3509 59.999979,59.999999 20 0 1 -0.0983,0.35009 59.999979,59.999999 20 0 1 -0.10005,0.34944 59.999979,59.999999 20 0 1 -0.10231,0.34862 59.999979,59.999999 20 0 1 -0.10477,0.34837 59.999979,59.999999 20 0 1 -0.10625,0.34719 59.999979,59.999999 20 0 1 -0.10881,0.34689 59.999979,59.999999 20 0 1 -0.11106,0.34609 59.999979,59.999999 20 0 1 -0.11276,0.34546 59.999979,59.999999 20 0 1 -0.11475,0.34538 59.999979,59.999999 20 0 1 -0.11764,0.3437 59.999979,59.999999 20 0 1 -0.11973,0.34357 59.999979,59.999999 20 0 1 -0.12046,0.34266 59.999979,59.999999 20 0 1 -0.12349,0.3422 59.999979,59.999999 20 0 1 -0.0328,0.0884 59.999979,59.999999 20 0 1 -0.12537,0.34152 59.999979,59.999999 20 0 1 -0.12798,0.33993 59.999979,59.999999 20 0 1 -0.13007,0.3398 59.999979,59.999999 20 0 1 -0.13173,0.33856 59.999979,59.999999 20 0 1 -0.1339,0.33777 59.999979,59.999999 20 0 1 -0.13646,0.33748 59.999979,59.999999 20 0 1 -0.1385,0.33609 59.999979,59.999999 20 0 1 -0.14019,0.33548 59.999979,59.999999 20 0 1 -0.14234,0.33405 59.999979,59.999999 20 0 1 -0.14424,0.33401 59.999979,59.999999 20 0 1 -0.14628,0.33261 59.999979,59.999999 20 0 1 -0.14797,0.332 59.999979,59.999999 20 0 1 -0.15089,0.33093 59.999979,59.999999 20 0 1 -0.1518,0.32996 59.999979,59.999999 20 0 1 -0.14259,0.30287 59.999979,59.999999 20 0 1 0.002,10e-4 59.999979,59.999999 20 0 1 0.25565,0.25814 59.999979,59.999999 20 0 1 0.25445,0.25964 59.999979,59.999999 20 0 1 0.25268,0.26094 59.999979,59.999999 20 0 1 0.25128,0.26302 59.999979,59.999999 20 0 1 0.24951,0.26432 59.999979,59.999999 20 0 1 0.24775,0.26562 59.999979,59.999999 20 0 1 0.24634,0.2677 59.999979,59.999999 20 0 1 0.24478,0.26843 59.999979,59.999999 20 0 1 0.24338,0.2705 59.999979,59.999999 20 0 1 0.2416,0.2718 59.999979,59.999999 20 0 1 0.23985,0.2731 59.999979,59.999999 20 0 1 0.23786,0.27498 59.999979,59.999999 20 0 1 0.23631,0.2757 59.999979,59.999999 20 0 1 0.2349,0.27777 59.999979,59.999999 20 0 1 0.23313,0.27908 59.999979,59.999999 20 0 1 0.23137,0.28038 59.999979,59.999999 20 0 1 0.2296,0.28167 59.999979,59.999999 20 0 1 0.22783,0.28297 59.999979,59.999999 20 0 1 0.22664,0.28448 59.999979,59.999999 20 0 1 0.22409,0.28614 59.999979,59.999999 20 0 1 0.2231,0.28708 59.999979,59.999999 20 0 1 0.22112,0.28895 59.999979,59.999999 20 0 1 0.219,0.28947 59.999979,59.999999 20 0 1 0.21758,0.29154 59.999979,59.999999 20 0 1 0.21604,0.29228 59.999979,59.999999 20 0 1 0.21405,0.29415 59.999979,59.999999 20 0 1 0.21171,0.29523 59.999979,59.999999 20 0 1 0.21074,0.29617 59.999979,59.999999 20 0 1 0.20875,0.29804 59.999979,59.999999 20 0 1 0.20662,0.29856 59.999979,59.999999 20 0 1 0.20521,0.30064 59.999979,59.999999 20 0 1 0.20309,0.30115 59.999979,59.999999 20 0 1 0.20132,0.30246 59.999979,59.999999 20 0 1 0.19935,0.30433 59.999979,59.999999 20 0 1 0.19778,0.30505 59.999979,59.999999 20 0 1 0.19601,0.30636 59.999979,59.999999 20 0 1 0.19368,0.30744 59.999979,59.999999 20 0 1 0.19211,0.30818 59.999979,59.999999 20 0 1 0.19014,0.31003 59.999979,59.999999 20 0 1 0.18858,0.31077 59.999979,59.999999 20 0 1 0.18625,0.31186 59.999979,59.999999 20 0 1 0.18505,0.31337 59.999979,59.999999 20 0 1 0.18213,0.31425 59.999979,59.999999 20 0 1 0.18094,0.31575 59.999979,59.999999 20 0 1 0.17881,0.31628 59.999979,59.999999 20 0 1 0.17704,0.31758 59.999979,59.999999 20 0 1 0.17471,0.31866 59.999979,59.999999 20 0 1 0.17293,0.31997 59.999979,59.999999 20 0 1 0.17137,0.32068 59.999979,59.999999 20 0 1 0.16904,0.32178 59.999979,59.999999 20 0 1 0.16748,0.32251 59.999979,59.999999 20 0 1 0.16492,0.32418 59.999979,59.999999 20 0 1 0.16358,0.32433 59.999979,59.999999 20 0 1 0.16103,0.32598 59.999979,59.999999 20 0 1 0.15947,0.32672 59.999979,59.999999 20 0 1 0.15713,0.32781 59.999979,59.999999 20 0 1 0.15557,0.32853 59.999979,59.999999 20 0 1 0.15324,0.32963 59.999979,59.999999 20 0 1 0.15166,0.33035 59.999979,59.999999 20 0 1 0.14934,0.33145 59.999979,59.999999 20 0 1 0.14699,0.33253 59.999979,59.999999 20 0 1 0.14544,0.33327 59.999979,59.999999 20 0 1 0.1433,0.33377 59.999979,59.999999 20 0 1 0.14153,0.33508 59.999979,59.999999 20 0 1 0.13941,0.3356 59.999979,59.999999 20 0 1 0.13707,0.3367 59.999979,59.999999 20 0 1 0.1353,0.33799 59.999979,59.999999 20 0 1 0.1328,0.33773 59.999979,59.999999 20 0 1 0.13104,0.33902 59.999979,59.999999 20 0 1 0.12927,0.34033 59.999979,59.999999 20 0 1 0.12676,0.34006 59.999979,59.999999 20 0 1 0.12502,0.34136 59.999979,59.999999 20 0 1 0.12266,0.34246 59.999979,59.999999 20 0 1 0.12111,0.34318 59.999979,59.999999 20 0 1 0.1184,0.34349 59.999979,59.999999 20 0 1 0.11684,0.34422 59.999979,59.999999 20 0 1 0.11452,0.34531 59.999979,59.999999 20 0 1 0.009,0.0272 59.999979,59.999999 20 0 1 -0.0448,0.0555 59.999979,59.999999 20 0 0 -0.28149,-0.0733 59.999979,59.999999 20 0 0 -0.35263,-0.0895 59.999979,59.999999 20 0 0 -0.35268,-0.0876 59.999979,59.999999 20 0 0 -0.35353,-0.0853 59.999979,59.999999 20 0 0 -0.35357,-0.0834 59.999979,59.999999 20 0 0 -0.3544,-0.0811 59.999979,59.999999 20 0 0 -0.35525,-0.0788 59.999979,59.999999 20 0 0 -0.35529,-0.0769 59.999979,59.999999 20 0 0 -0.35554,-0.0744 59.999979,59.999999 20 0 0 -0.35616,-0.0727 59.999979,59.999999 20 0 0 -0.35702,-0.0703 59.999979,59.999999 20 0 0 -0.35725,-0.0679 59.999979,59.999999 20 0 0 -0.35731,-0.066 59.999979,59.999999 20 0 0 -0.35739,-0.064 59.999979,59.999999 20 0 0 -0.35841,-0.0612 59.999979,59.999999 20 0 0 -0.35882,-0.0601 59.999979,59.999999 20 0 0 -0.35931,-0.0569 59.999979,59.999999 20 0 0 -0.35936,-0.055 59.999979,59.999999 20 0 0 -0.35939,-0.0531 59.999979,59.999999 20 0 0 -0.35965,-0.0507 59.999979,59.999999 20 0 0 -0.3605,-0.0483 59.999979,59.999999 20 0 0 -0.36055,-0.0464 59.999979,59.999999 20 0 0 -0.36059,-0.0445 59.999979,59.999999 20 0 0 -0.36141,-0.0423 59.999979,59.999999 20 0 0 -0.36112,-0.0395 59.999979,59.999999 20 0 0 -0.36174,-0.0378 59.999979,59.999999 20 0 0 -0.36202,-0.0353 59.999979,59.999999 20 0 0 -0.3615,-0.0331 59.999979,59.999999 20 0 0 -0.36231,-0.0309 59.999979,59.999999 20 0 0 -0.36236,-0.029 59.999979,59.999999 20 0 0 -0.36264,-0.0264 59.999979,59.999999 20 0 0 -0.36269,-0.0245 59.999979,59.999999 20 0 0 -0.36273,-0.0226 59.999979,59.999999 20 0 0 -0.36299,-0.0201 59.999979,59.999999 20 0 0 -0.36326,-0.0176 59.999979,59.999999 20 0 0 -0.36331,-0.0157 59.999979,59.999999 20 0 0 -0.36336,-0.0138 59.999979,59.999999 20 0 0 -0.36305,-0.0111 59.999979,59.999999 20 0 0 -0.36388,-0.009 59.999979,59.999999 20 0 0 -0.36316,-0.007 59.999979,59.999999 20 0 0 -0.36341,-0.005 59.999979,59.999999 20 0 0 -0.36368,-0.002 59.999979,59.999999 20 0 0 -0.36315,-1.1e-4 59.999979,59.999999 20 0 0 -0.36379,0.002 59.999979,59.999999 20 0 0 -0.36347,0.004 59.999979,59.999999 20 0 0 -0.36352,0.006 59.999979,59.999999 20 0 0 -0.36322,0.009 59.999979,59.999999 20 0 0 -0.36383,0.0106 59.999979,59.999999 20 0 0 -0.36274,0.013 59.999979,59.999999 20 0 0 -0.36358,0.0153 59.999979,59.999999 20 0 0 -0.36306,0.0174 59.999979,59.999999 20 0 0 -0.36311,0.0193 59.999979,59.999999 20 0 0 -0.3628,0.022 59.999979,59.999999 20 0 0 -0.36264,0.0234 59.999979,59.999999 20 0 0 -0.36255,0.0267 59.999979,59.999999 20 0 0 -0.36238,0.028 59.999979,59.999999 20 0 0 -0.36207,0.0307 59.999979,59.999999 20 0 0 -0.36213,0.0326 59.999979,59.999999 20 0 0 -0.36182,0.0353 59.999979,59.999999 20 0 0 -0.36166,0.0367 59.999979,59.999999 20 0 0 -0.36135,0.0394 59.999979,59.999999 20 0 0 -0.36141,0.0413 59.999979,59.999999 20 0 0 -0.36108,0.044 59.999979,59.999999 20 0 0 -0.36036,0.0456 59.999979,59.999999 20 0 0 -0.36006,0.0483 59.999979,59.999999 20 0 0 -0.3601,0.0502 59.999979,59.999999 20 0 0 -0.3596,0.0523 59.999979,59.999999 20 0 0 -0.35984,0.0548 59.999979,59.999999 20 0 0 -0.35912,0.0564 59.999979,59.999999 20 0 0 -0.35823,0.0593 59.999979,59.999999 20 0 0 -0.35886,0.061 59.999979,59.999999 20 0 0 -0.35778,0.0634 59.999979,59.999999 20 0 0 -0.35724,0.0655 59.999979,59.999999 20 0 0 -0.35731,0.0674 59.999979,59.999999 20 0 0 -0.35699,0.0701 59.999979,59.999999 20 0 0 -0.35626,0.0717 59.999979,59.999999 20 0 0 -0.35596,0.0744 59.999979,59.999999 20 0 0 -0.35523,0.0759 59.999979,59.999999 20 0 0 -0.35492,0.0787 59.999979,59.999999 20 0 0 -0.35497,0.0806 59.999979,59.999999 20 0 0 -0.35387,0.0829 59.999979,59.999999 20 0 0 -0.35316,0.0845 59.999979,59.999999 20 0 0 -0.35283,0.0872 59.999979,59.999999 20 0 0 -0.3529,0.0891 59.999979,59.999999 20 0 0 -0.3518,0.0914 59.999979,59.999999 20 0 0 -0.35128,0.0935 59.999979,59.999999 20 0 0 -0.35055,0.0951 59.999979,59.999999 20 0 0 -0.35025,0.0978 59.999979,59.999999 20 0 0 -0.34972,0.1 59.999979,59.999999 20 0 0 -0.349,0.10151 59.999979,59.999999 20 0 0 -0.34812,0.10442 59.999979,59.999999 20 0 0 -0.34795,0.10577 59.999979,59.999999 20 0 0 -0.34687,0.10811 59.999979,59.999999 20 0 0 -0.34635,0.11025 59.999979,59.999999 20 0 0 -0.34583,0.11238 59.999979,59.999999 20 0 0 -0.34474,0.11471 59.999979,59.999999 20 0 0 -0.3448,0.11664 59.999979,59.999999 20 0 0 -0.34349,0.1184 59.999979,59.999999 20 0 0 -0.34261,0.12131 59.999979,59.999999 20 0 0 -0.34245,0.12267 59.999979,59.999999 20 0 0 -0.34137,0.12501 59.999979,59.999999 20 0 0 -0.34063,0.12656 59.999979,59.999999 20 0 0 -0.33976,0.12947 59.999979,59.999999 20 0 0 -0.33902,0.13104 59.999979,59.999999 20 0 0 -0.33851,0.13318 59.999979,59.999999 20 0 0 -0.33721,0.13492 59.999979,59.999999 20 0 0 -0.33669,0.13707 59.999979,59.999999 20 0 0 -0.3356,0.13941 59.999979,59.999999 20 0 0 -0.33508,0.14153 59.999979,59.999999 20 0 0 -0.33435,0.1431 59.999979,59.999999 20 0 0 -0.33326,0.14543 59.999979,59.999999 20 0 0 -0.33197,0.1472 59.999979,59.999999 20 0 0 -0.33144,0.14934 59.999979,59.999999 20 0 0 -0.33036,0.15168 59.999979,59.999999 20 0 0 -0.06,0.028 59.999979,59.999999 20 0 1 -0.19821,0.10524 59.999979,59.999999 20 0 1 -0.322,0.16961 59.999979,59.999999 20 0 1 -0.3223,0.1669 59.999979,59.999999 20 0 1 -0.32381,0.16571 59.999979,59.999999 20 0 1 -0.3249,0.16337 59.999979,59.999999 20 0 1 -0.32598,0.16104 59.999979,59.999999 20 0 1 -0.32673,0.15946 59.999979,59.999999 20 0 1 -0.3278,0.15714 59.999979,59.999999 20 0 1 -0.32854,0.15556 59.999979,59.999999 20 0 1 -0.32963,0.15324 59.999979,59.999999 20 0 1 -0.33034,0.15167 59.999979,59.999999 20 0 1 -0.33145,0.14933 59.999979,59.999999 20 0 1 -0.33253,0.147 59.999979,59.999999 20 0 1 -0.33327,0.14543 59.999979,59.999999 20 0 1 -0.33377,0.14331 59.999979,59.999999 20 0 1 -0.33509,0.14154 59.999979,59.999999 20 0 1 -0.33539,0.13883 59.999979,59.999999 20 0 1 -0.3369,0.13763 59.999979,59.999999 20 0 1 -0.33721,0.13494 59.999979,59.999999 20 0 1 -0.3385,0.13317 59.999979,59.999999 20 0 1 -0.33903,0.13103 59.999979,59.999999 20 0 1 -0.33954,0.1289 59.999979,59.999999 20 0 1 -0.34085,0.12714 59.999979,59.999999 20 0 1 -0.34136,0.12501 59.999979,59.999999 20 0 1 -0.34246,0.12266 59.999979,59.999999 20 0 1 -0.3424,0.12076 59.999979,59.999999 20 0 1 -0.34427,0.11876 59.999979,59.999999 20 0 1 -0.34402,0.11627 59.999979,59.999999 20 0 1 -0.34474,0.11471 59.999979,59.999999 20 0 1 -0.34583,0.11238 59.999979,59.999999 20 0 1 -0.34634,0.11024 59.999979,59.999999 20 0 1 -0.34709,0.10868 59.999979,59.999999 20 0 1 -0.34795,0.10578 59.999979,59.999999 20 0 1 -0.34791,0.10385 59.999979,59.999999 20 0 1 -0.3492,0.10208 59.999979,59.999999 20 0 1 -0.34973,0.1 59.999979,59.999999 20 0 1 -0.35004,0.0973 59.999979,59.999999 20 0 1 -0.35076,0.0957 59.999979,59.999999 20 0 1 -0.35128,0.0936 59.999979,59.999999 20 0 1 -0.3518,0.0914 59.999979,59.999999 20 0 1 -0.35269,0.0885 59.999979,59.999999 20 0 1 -0.35283,0.0872 59.999979,59.999999 20 0 1 -0.35336,0.085 59.999979,59.999999 20 0 1 -0.35388,0.0829 59.999979,59.999999 20 0 1 -0.35497,0.0806 59.999979,59.999999 20 0 1 -0.354707,0.0781 59.999979,59.999999 20 0 1 -0.355439,0.0765 59.999979,59.999999 20 0 1 -0.355748,0.0738 59.999979,59.999999 20 0 1 -0.356467,0.0722 59.999979,59.999999 20 0 1 -0.356784,0.0695 59.999979,59.999999 20 0 1 -0.357521,0.068 59.999979,59.999999 20 0 1 -0.357242,0.0655 59.999979,59.999999 20 0 1 -0.357775,0.0634 59.999979,59.999999 20 0 1 -0.358863,0.061 59.999979,59.999999 20 0 1 -0.358601,0.0585 59.999979,59.999999 20 0 1 -0.358752,0.0572 59.999979,59.999999 20 0 1 -0.359636,0.0543 59.999979,59.999999 20 0 1 -0.359796,0.0529 59.999979,59.999999 20 0 1 -0.360108,0.0502 59.999979,59.999999 20 0 1 -0.35985,0.0477 59.999979,59.999999 20 0 1 -0.360569,0.0461 59.999979,59.999999 20 0 1 -0.360885,0.0435 59.999979,59.999999 20 0 1 -0.361605,0.0419 59.999979,59.999999 20 0 1 -0.361138,0.0388 59.999979,59.999999 20 0 1 -0.361868,0.0373 59.999979,59.999999 20 0 1 -0.361609,0.0348 59.999979,59.999999 20 0 1 -0.362342,0.0332 59.999979,59.999999 20 0 1 -0.361863,0.0302 59.999979,59.999999 20 0 1 -0.362592,0.0286 59.999979,59.999999 20 0 1 -0.362334,0.0261 59.999979,59.999999 20 0 1 -0.362857,0.024 59.999979,59.999999 20 0 1 -0.362796,0.022 59.999979,59.999999 20 0 1 -0.363111,0.0193 59.999979,59.999999 20 0 1 -0.363059,0.0174 59.999979,59.999999 20 0 1 -0.363582,0.0153 59.999979,59.999999 20 0 1 -0.363312,0.0128 59.999979,59.999999 20 0 1 -0.363262,0.0109 59.999979,59.999999 20 0 1 -0.363014,0.008 59.999979,59.999999 20 0 1 -0.363516,0.006 59.999979,59.999999 20 0 1 -0.363472,0.004 59.999979,59.999999 20 0 1 -0.363987,0.002 59.999979,59.999999 20 0 1 -0.363156,-1e-4 59.999979,59.999999 20 0 1 -0.363468,-0.003 59.999979,59.999999 20 0 1 -0.363418,-0.005 59.999979,59.999999 20 0 1 -0.36393,-0.007 59.999979,59.999999 20 0 1 -0.363108,-0.009 59.999979,59.999999 20 0 1 -0.363619,-0.0113 59.999979,59.999999 20 0 1 -0.362996,-0.013 59.999979,59.999999 20 0 1 -0.363312,-0.0157 59.999979,59.999999 20 0 1 -0.363051,-0.0182 59.999979,59.999999 20 0 1 -0.362991,-0.0201 59.999979,59.999999 20 0 1 -0.362949,-0.022 59.999979,59.999999 20 0 1 -0.362681,-0.0245 59.999979,59.999999 20 0 1 -0.362643,-0.0264 59.999979,59.999999 20 0 1 -0.362351,-0.029 59.999979,59.999999 20 0 1 -0.362319,-0.0309 59.999979,59.999999 20 0 1 -0.361492,-0.0331 59.999979,59.999999 20 0 1 -0.361783,-0.0359 59.999979,59.999999 20 0 1 -0.361942,-0.0372 59.999979,59.999999 20 0 1 -0.360919,-0.04 59.999979,59.999999 20 0 1 -0.361412,-0.0423 59.999979,59.999999 20 0 1 -0.360793,-0.044 59.999979,59.999999 20 0 1 -0.360548,-0.0464 59.999979,59.999999 20 0 1 -0.360501,-0.0483 59.999979,59.999999 20 0 1 -0.359648,-0.0507 59.999979,59.999999 20 0 1 -0.35997,-0.0533 59.999979,59.999999 20 0 1 -0.359353,-0.055 59.999979,59.999999 20 0 1 -0.358499,-0.0574 59.999979,59.999999 20 0 1 -0.359027,-0.0595 59.999979,59.999999 20 0 1 -0.358204,-0.0617 59.999979,59.999999 20 0 1 -0.35759,-0.0634 59.999979,59.999999 20 0 1 -0.357881,-0.0662 59.999979,59.999999 20 0 1 -0.356691,-0.0677 59.999979,59.999999 20 0 1 -0.357012,-0.0703 59.999979,59.999999 20 0 1 -0.356159,-0.0727 59.999979,59.999999 20 0 1 -0.355544,-0.0744 59.999979,59.999999 20 0 1 -0.355294,-0.0769 59.999979,59.999999 20 0 1 -0.355215,-0.0788 59.999979,59.999999 20 0 1 -0.354393,-0.0811 59.999979,59.999999 20 0 1 -0.353576,-0.0834 59.999979,59.999999 20 0 1 -0.353528,-0.0853 59.999979,59.999999 20 0 1 -0.352676,-0.0876 59.999979,59.999999 20 0 1 -0.352631,-0.0895 59.999979,59.999999 20 0 1 -0.351811,-0.0918 59.999979,59.999999 20 0 1 -0.350955,-0.0941 59.999979,59.999999 20 0 1 -0.350339,-0.0958 59.999979,59.999999 20 0 1 -0.35009,-0.0983 59.999979,59.999999 20 0 1 -0.349474,-0.1 59.999979,59.999999 20 0 1 -0.349193,-0.10252 59.999979,59.999999 20 0 1 -0.06311,-0.0187 A 59.999979,59.999999 20 0 1 52.499788,119.1902 59.999979,59.999999 20 0 1 126.01382,82.209736 Z" />
      <path
         id="path1278-0-2"
         style="opacity:0.443846;fill:#53005e;fill-opacity:1;stroke:none;stroke-width:0.117726;stroke-miterlimit:10.433;stroke-opacity:1;stop-color:#000000"
         d="m 112.45742,76.388684 a 59.999999,59.999981 70 0 0 -0.0376,0.03181 59.999999,59.999981 70 0 0 -0.27566,0.236935 59.999999,59.999981 70 0 0 -0.27426,0.239015 59.999999,59.999981 70 0 0 -0.27229,0.240886 59.999999,59.999981 70 0 0 -0.27109,0.242391 59.999999,59.999981 70 0 0 -0.26932,0.243694 59.999999,59.999981 70 0 0 -0.26812,0.245196 59.999999,59.999981 70 0 0 -0.26672,0.247278 59.999999,59.999981 70 0 0 -0.26497,0.248577 59.999999,59.999981 70 0 0 -0.26354,0.250654 59.999999,59.999981 70 0 0 -0.26236,0.252163 59.999999,59.999981 70 0 0 -0.26059,0.253461 59.999999,59.999981 70 0 0 -0.25881,0.254759 59.999999,59.999981 70 0 0 -0.25742,0.256836 59.999999,59.999981 70 0 0 -0.25622,0.258347 59.999999,59.999981 70 0 0 -0.25388,0.259435 59.999999,59.999981 70 0 0 -0.25326,0.261152 59.999999,59.999981 70 0 0 -0.2507,0.26281 59.999999,59.999981 70 0 0 -0.24952,0.264322 59.999999,59.999981 70 0 0 -0.24832,0.265828 59.999999,59.999981 70 0 0 -0.24634,0.267696 59.999999,59.999981 70 0 0 -0.24457,0.268999 59.999999,59.999981 70 0 0 -0.24301,0.269721 59.999999,59.999981 70 0 0 -0.24161,0.271803 59.999999,59.999981 70 0 0 -0.23964,0.273675 59.999999,59.999981 70 0 0 -0.23807,0.274398 59.999999,59.999981 70 0 0 -0.23667,0.276479 59.999999,59.999981 70 0 0 -0.23454,0.276998 59.999999,59.999981 70 0 0 -0.23314,0.279079 59.999999,59.999981 70 0 0 -0.23137,0.280375 59.999999,59.999981 70 0 0 -0.2296,0.281674 59.999999,59.999981 70 0 0 -0.2284,0.283181 59.999999,59.999981 70 0 0 -0.22586,0.284844 59.999999,59.999981 70 0 0 -0.22487,0.28578 59.999999,59.999981 70 0 0 -0.22253,0.286868 59.999999,59.999981 70 0 0 -0.22113,0.288951 59.999999,59.999981 70 0 0 -0.21957,0.289675 59.999999,59.999981 70 0 0 -0.21758,0.291545 59.999999,59.999981 70 0 0 -0.21526,0.29264 59.999999,59.999981 70 0 0 -0.21426,0.29357 59.999999,59.999981 70 0 0 -0.21229,0.295443 59.999999,59.999981 70 0 0 -0.21073,0.296169 59.999999,59.999981 70 0 0 -0.20818,0.297833 59.999999,59.999981 70 0 0 -0.20719,0.298768 59.999999,59.999981 70 0 0 -0.20465,0.300431 59.999999,59.999981 70 0 0 -0.20309,0.301158 59.999999,59.999981 70 0 0 -0.20168,0.303235 59.999999,59.999981 70 0 0 -0.19955,0.303757 59.999999,59.999981 70 0 0 -0.19722,0.304846 59.999999,59.999981 70 0 0 -0.19601,0.306352 59.999999,59.999981 70 0 0 -0.19425,0.307652 59.999999,59.999981 70 0 0 -0.19191,0.308744 59.999999,59.999981 70 0 0 -0.19035,0.309469 59.999999,59.999981 70 0 0 -0.188,0.310561 59.999999,59.999981 70 0 0 -0.186603,0.31264 59.999999,59.999981 70 0 0 -0.184474,0.313159 59.999999,59.999981 70 0 0 -0.182917,0.313886 59.999999,59.999981 70 0 0 -0.180367,0.315547 59.999999,59.999981 70 0 0 -0.179382,0.316484 59.999999,59.999981 70 0 0 -0.17647,0.317367 59.999999,59.999981 70 0 0 -0.175271,0.318873 59.999999,59.999981 70 0 0 -0.172935,0.319964 59.999999,59.999981 70 0 0 -0.170804,0.320484 59.999999,59.999981 70 0 0 -0.169605,0.321997 59.999999,59.999981 70 0 0 -0.166697,0.32287 59.999999,59.999981 70 0 0 -0.165708,0.323807 59.999999,59.999981 70 0 0 -0.162799,0.32469 59.999999,59.999981 70 0 0 -0.161809,0.325627 59.999999,59.999981 70 0 0 -0.159468,0.326707 59.999999,59.999981 70 0 0 -0.157133,0.32781 59.999999,59.999981 70 0 0 -0.155573,0.328537 59.999999,59.999981 70 0 0 -0.153232,0.329617 59.999999,59.999981 70 0 0 -0.150893,0.33072 59.999999,59.999981 70 0 0 -0.149541,0.330867 59.999999,59.999981 70 0 0 -0.147567,0.33275 59.999999,59.999981 70 0 0 -0.145433,0.333257 59.999999,59.999981 70 0 0 -0.143304,0.333777 59.999999,59.999981 70 0 0 -0.140965,0.33487 59.999999,59.999981 70 0 0 -0.139196,0.336167 59.999999,59.999981 70 0 0 -0.137847,0.336327 59.999999,59.999981 70 0 0 -0.134725,0.33778 59.999999,59.999981 70 0 0 -0.133376,0.337927 59.999999,59.999981 70 0 0 -0.131036,0.33903 59.999999,59.999981 70 0 0 -0.128697,0.34012 59.999999,59.999981 70 0 0 -0.127136,0.34084 59.999999,59.999981 70 0 0 -0.125005,0.34137 59.999999,59.999981 70 0 0 -0.122876,0.34188 59.999999,59.999981 70 0 0 -0.120534,0.34297 59.999999,59.999981 70 0 0 -0.118977,0.34371 59.999999,59.999981 70 0 0 -0.116272,0.34401 59.999999,59.999981 70 0 0 -0.114505,0.34531 59.999999,59.999981 70 0 0 -0.112374,0.34583 59.999999,59.999981 70 0 0 -0.110243,0.34635 59.999999,59.999981 70 0 0 -0.108115,0.34687 59.999999,59.999981 70 0 0 -0.106554,0.34758 59.999999,59.999981 70 0 0 -0.103639,0.34849 59.999999,59.999981 70 0 0 -0.102293,0.34863 59.999999,59.999981 70 0 0 -0.09938,0.34952 59.999999,59.999981 70 0 0 -0.09782,0.35024 59.999999,59.999981 70 0 0 -0.09569,0.35077 59.999999,59.999981 70 0 0 -0.09335,0.35185 59.999999,59.999981 70 0 0 -0.09086,0.35159 59.999999,59.999981 70 0 0 -0.08929,0.35233 59.999999,59.999981 70 0 0 -0.08717,0.35283 59.999999,59.999981 70 0 0 -0.08482,0.35393 59.999999,59.999981 70 0 0 -0.0829,0.35388 59.999999,59.999981 70 0 0 -0.0802,0.35419 59.999999,59.999981 70 0 0 -0.07864,0.35492 59.999999,59.999981 70 0 0 -0.07651,0.35543 59.999999,59.999981 70 0 0 -0.07381,0.35575 59.999999,59.999981 70 0 0 -0.07225,0.35647 59.999999,59.999981 70 0 0 -0.06954,0.35679 59.999999,59.999981 70 0 0 -0.06741,0.3573 59.999999,59.999981 70 0 0 -0.06606,0.35745 59.999999,59.999981 70 0 0 -0.06315,0.35835 59.999999,59.999981 70 0 0 -0.06065,0.35808 59.999999,59.999981 70 0 0 -0.05909,0.35881 59.999999,59.999981 70 0 0 -0.05697,0.35933 59.999999,59.999981 70 0 0 -0.05447,0.35907 59.999999,59.999981 70 0 0 -0.05234,0.35958 59.999999,59.999981 70 0 0 -0.0502,0.36011 59.999999,59.999981 70 0 0 -0.04807,0.36063 59.999999,59.999981 70 0 0 -0.04615,0.36057 59.999999,59.999981 70 0 0 -0.04345,0.36088 59.999999,59.999981 70 0 0 -0.04153,0.36083 59.999999,59.999981 70 0 0 -0.03939,0.36135 59.999999,59.999981 70 0 0 -0.03726,0.36187 59.999999,59.999981 70 0 0 -0.03477,0.36161 59.999999,59.999981 70 0 0 -0.03264,0.36212 59.999999,59.999981 70 0 0 -0.03071,0.36208 59.999999,59.999981 70 0 0 -0.02859,0.3626 59.999999,59.999981 70 0 0 -0.02588,0.36289 59.999999,59.999981 70 0 0 -0.02417,0.36229 59.999999,59.999981 70 0 0 -0.02183,0.36337 59.999999,59.999981 70 0 0 -0.01954,0.36253 59.999999,59.999981 70 0 0 -0.0172,0.36364 59.999999,59.999981 70 0 0 -0.01491,0.3628 59.999999,59.999981 70 0 0 -0.01336,0.36352 59.999999,59.999981 70 0 0 -0.01086,0.36327 59.999999,59.999981 70 0 0 -0.0082,0.36357 59.999999,59.999981 70 0 0 -0.0064,0.36296 59.999999,59.999981 70 0 0 -0.0041,0.36403 59.999999,59.999981 70 0 0 -0.0024,0.36343 59.999999,59.999981 70 0 0 3.17e-4,0.36372 59.999999,59.999981 70 0 0 0.0028,0.36347 59.999999,59.999981 70 0 0 0.0047,0.36341 59.999999,59.999981 70 0 0 0.0067,0.36337 59.999999,59.999981 70 0 0 0.0092,0.3631 59.999999,59.999981 70 0 0 0.01129,0.36363 59.999999,59.999981 70 0 0 0.0132,0.36357 59.999999,59.999981 70 0 0 0.01549,0.36272 59.999999,59.999981 70 0 0 0.0182,0.36306 59.999999,59.999981 70 0 0 0.02012,0.363 59.999999,59.999981 70 0 0 0.02204,0.36294 59.999999,59.999981 70 0 0 0.02454,0.36268 59.999999,59.999981 70 0 0 0.02646,0.36262 59.999999,59.999981 70 0 0 0.02895,0.36237 59.999999,59.999981 70 0 0 0.03145,0.36212 59.999999,59.999981 70 0 0 0.0328,0.36226 59.999999,59.999981 70 0 0 0.03587,0.3618 59.999999,59.999981 70 0 0 0.03757,0.36117 59.999999,59.999981 70 0 0 0.03971,0.36169 59.999999,59.999981 70 0 0 0.042,0.36086 59.999999,59.999981 70 0 0 0.04392,0.3608 59.999999,59.999981 70 0 0 0.04641,0.36054 59.999999,59.999981 70 0 0 0.04892,0.36029 59.999999,59.999981 70 0 0 0.05083,0.36023 59.999999,59.999981 70 0 0 0.05255,0.35961 59.999999,59.999981 70 0 0 0.05504,0.35935 59.999999,59.999981 70 0 0 0.05754,0.35908 59.999999,59.999981 70 0 0 0.05925,0.35846 59.999999,59.999981 70 0 0 0.06175,0.35821 59.999999,59.999981 70 0 0 0.06368,0.35815 59.999999,59.999981 70 0 0 0.06596,0.35731 59.999999,59.999981 70 0 0 0.06845,0.35706 59.999999,59.999981 70 0 0 0.07017,0.35643 59.999999,59.999981 70 0 0 0.0721,0.35638 59.999999,59.999981 70 0 0 0.07459,0.35612 59.999999,59.999981 70 0 0 0.07687,0.35528 59.999999,59.999981 70 0 0 0.07916,0.35445 59.999999,59.999981 70 0 0 0.08108,0.35441 59.999999,59.999981 70 0 0 0.08279,0.35377 59.999999,59.999981 70 0 0 0.08529,0.35352 59.999999,59.999981 70 0 0 0.08758,0.35269 59.999999,59.999981 70 0 0 0.08951,0.35263 59.999999,59.999981 70 0 0 0.09179,0.3518 59.999999,59.999981 70 0 0 0.09407,0.35097 59.999999,59.999981 70 0 0 0.096,0.35091 59.999999,59.999981 70 0 0 0.09828,0.35008 59.999999,59.999981 70 0 0 0.100013,0.34946 59.999999,59.999981 70 0 0 0.102297,0.34863 59.999999,59.999981 70 0 0 0.104785,0.34836 59.999999,59.999981 70 0 0 0.106309,0.34717 59.999999,59.999981 70 0 0 0.108789,0.3469 59.999999,59.999981 70 0 0 0.111085,0.34608 59.999999,59.999981 70 0 0 0.112776,0.34546 59.999999,59.999981 70 0 0 0.11471,0.3454 59.999999,59.999981 70 0 0 0.117359,0.34378 59.999999,59.999981 70 0 0 0.119262,0.34375 59.999999,59.999981 70 0 0 0.120835,0.34252 59.999999,59.999981 70 0 0 0.1233,0.34227 59.999999,59.999981 70 0 0 0.03284,0.0884 59.999999,59.999981 70 0 0 0.125554,0.34145 59.999999,59.999981 70 0 0 0.128259,0.33981 59.999999,59.999981 70 0 0 0.130163,0.33979 59.999999,59.999981 70 0 0 0.131642,0.33858 59.999999,59.999981 70 0 0 0.133934,0.33775 59.999999,59.999981 70 0 0 0.136431,0.3375 59.999999,59.999981 70 0 0 0.138501,0.33609 59.999999,59.999981 70 0 0 0.140231,0.33546 59.999999,59.999981 70 0 0 0.142309,0.33407 59.999999,59.999981 70 0 0 0.144243,0.33399 59.999999,59.999981 70 0 0 0.146312,0.33261 59.999999,59.999981 70 0 0 0.148009,0.33198 59.999999,59.999981 70 0 0 0.150879,0.33094 59.999999,59.999981 70 0 0 0.151817,0.32996 59.999999,59.999981 70 0 0 0.142617,0.30287 59.999999,59.999981 70 0 0 -0.0016,0.001 59.999999,59.999981 70 0 0 -0.255648,0.25813 59.999999,59.999981 70 0 0 -0.254449,0.25965 59.999999,59.999981 70 0 0 -0.252684,0.26094 59.999999,59.999981 70 0 0 -0.251277,0.26302 59.999999,59.999981 70 0 0 -0.249512,0.26432 59.999999,59.999981 70 0 0 -0.247745,0.26562 59.999999,59.999981 70 0 0 -0.246338,0.2677 59.999999,59.999981 70 0 0 -0.244784,0.26842 59.999999,59.999981 70 0 0 -0.243377,0.2705 59.999999,59.999981 70 0 0 -0.241606,0.27181 59.999999,59.999981 70 0 0 -0.239842,0.2731 59.999999,59.999981 70 0 0 -0.237863,0.27498 59.999999,59.999981 70 0 0 -0.236312,0.27568 59.999999,59.999981 70 0 0 -0.234899,0.27779 59.999999,59.999981 70 0 0 -0.233134,0.27907 59.999999,59.999981 70 0 0 -0.231365,0.28038 59.999999,59.999981 70 0 0 -0.229603,0.28167 59.999999,59.999981 70 0 0 -0.22783,0.28298 59.999999,59.999981 70 0 0 -0.226636,0.28448 59.999999,59.999981 70 0 0 -0.22409,0.28614 59.999999,59.999981 70 0 0 -0.223101,0.28708 59.999999,59.999981 70 0 0 -0.221122,0.28895 59.999999,59.999981 70 0 0 -0.218994,0.28947 59.999999,59.999981 70 0 0 -0.217592,0.29154 59.999999,59.999981 70 0 0 -0.21603,0.29227 59.999999,59.999981 70 0 0 -0.214056,0.29414 59.999999,59.999981 70 0 0 -0.211716,0.29524 59.999999,59.999981 70 0 0 -0.210727,0.29617 59.999999,59.999981 70 0 0 -0.208752,0.29805 59.999999,59.999981 70 0 0 -0.206619,0.29856 59.999999,59.999981 70 0 0 -0.205221,0.30063 59.999999,59.999981 70 0 0 -0.203084,0.30116 59.999999,59.999981 70 0 0 -0.201318,0.30246 59.999999,59.999981 70 0 0 -0.199341,0.30433 59.999999,59.999981 70 0 0 -0.197784,0.30505 59.999999,59.999981 70 0 0 -0.196018,0.30635 59.999999,59.999981 70 0 0 -0.193677,0.30744 59.999999,59.999981 70 0 0 -0.192116,0.30817 59.999999,59.999981 70 0 0 -0.190142,0.31004 59.999999,59.999981 70 0 0 -0.188581,0.31077 59.999999,59.999981 70 0 0 -0.18624,0.31187 59.999999,59.999981 70 0 0 -0.185046,0.31337 59.999999,59.999981 70 0 0 -0.182137,0.31424 59.999999,59.999981 70 0 0 -0.180939,0.31576 59.999999,59.999981 70 0 0 -0.178811,0.31627 59.999999,59.999981 70 0 0 -0.177038,0.31758 59.999999,59.999981 70 0 0 -0.174704,0.31866 59.999999,59.999981 70 0 0 -0.172934,0.31997 59.999999,59.999981 70 0 0 -0.171373,0.32069 59.999999,59.999981 70 0 0 -0.169037,0.32178 59.999999,59.999981 70 0 0 -0.167476,0.32251 59.999999,59.999981 70 0 0 -0.164926,0.32418 59.999999,59.999981 70 0 0 -0.163578,0.32432 59.999999,59.999981 70 0 0 -0.161031,0.32599 59.999999,59.999981 70 0 0 -0.159471,0.32671 59.999999,59.999981 70 0 0 -0.157131,0.32782 59.999999,59.999981 70 0 0 -0.155572,0.32853 59.999999,59.999981 70 0 0 -0.153231,0.32962 59.999999,59.999981 70 0 0 -0.151671,0.33036 59.999999,59.999981 70 0 0 -0.149334,0.33145 59.999999,59.999981 70 0 0 -0.146996,0.33253 59.999999,59.999981 70 0 0 -0.145435,0.33326 59.999999,59.999981 70 0 0 -0.143304,0.33378 59.999999,59.999981 70 0 0 -0.141534,0.33508 59.999999,59.999981 70 0 0 -0.139406,0.3356 59.999999,59.999981 70 0 0 -0.137067,0.33669 59.999999,59.999981 70 0 0 -0.135299,0.33798 59.999999,59.999981 70 0 0 -0.132803,0.33773 59.999999,59.999981 70 0 0 -0.131033,0.33903 59.999999,59.999981 70 0 0 -0.129268,0.34033 59.999999,59.999981 70 0 0 -0.126776,0.34006 59.999999,59.999981 70 0 0 -0.125003,0.34137 59.999999,59.999981 70 0 0 -0.12267,0.34245 59.999999,59.999981 70 0 0 -0.121106,0.34319 59.999999,59.999981 70 0 0 -0.118404,0.34349 59.999999,59.999981 70 0 0 -0.116844,0.34422 59.999999,59.999981 70 0 0 -0.114513,0.34525 59.999999,59.999981 70 0 0 -0.0089,0.0272 59.999999,59.999981 70 0 0 0.04481,0.0555 59.999999,59.999981 70 0 1 0.28149,-0.0733 59.999999,59.999981 70 0 1 0.352631,-0.0895 59.999999,59.999981 70 0 1 0.352675,-0.0876 59.999999,59.999981 70 0 1 0.35353,-0.0853 59.999999,59.999981 70 0 1 0.353573,-0.0833 59.999999,59.999981 70 0 1 0.354395,-0.0811 59.999999,59.999981 70 0 1 0.35525,-0.0788 59.999999,59.999981 70 0 1 0.355294,-0.0769 59.999999,59.999981 70 0 1 0.355542,-0.0744 59.999999,59.999981 70 0 1 0.356159,-0.0727 59.999999,59.999981 70 0 1 0.357014,-0.0704 59.999999,59.999981 70 0 1 0.357263,-0.0679 59.999999,59.999981 70 0 1 0.357307,-0.066 59.999999,59.999981 70 0 1 0.35735,-0.0641 59.999999,59.999981 70 0 1 0.358411,-0.0612 59.999999,59.999981 70 0 1 0.358822,-0.06 59.999999,59.999981 70 0 1 0.35931,-0.0569 59.999999,59.999981 70 0 1 0.359354,-0.055 59.999999,59.999981 70 0 1 0.359398,-0.0531 59.999999,59.999981 70 0 1 0.359647,-0.0507 59.999999,59.999981 70 0 1 0.360502,-0.0483 59.999999,59.999981 70 0 1 0.360546,-0.0464 59.999999,59.999981 70 0 1 0.36059,-0.0445 59.999999,59.999981 70 0 1 0.361446,-0.0422 59.999999,59.999981 70 0 1 0.361122,-0.0395 59.999999,59.999981 70 0 1 0.361738,-0.0378 59.999999,59.999981 70 0 1 0.361987,-0.0353 59.999999,59.999981 70 0 1 0.361495,-0.0331 59.999999,59.999981 70 0 1 0.362314,-0.0309 59.999999,59.999981 70 0 1 0.362358,-0.029 59.999999,59.999981 70 0 1 0.362643,-0.0264 59.999999,59.999981 70 0 1 0.362683,-0.0245 59.999999,59.999981 70 0 1 0.362737,-0.0226 59.999999,59.999981 70 0 1 0.362992,-0.0201 59.999999,59.999981 70 0 1 0.363256,-0.0176 59.999999,59.999981 70 0 1 0.36331,-0.0157 59.999999,59.999981 70 0 1 0.363361,-0.0138 59.999999,59.999981 70 0 1 0.363051,-0.0111 59.999999,59.999981 70 0 1 0.36388,-0.009 59.999999,59.999981 70 0 1 0.363157,-0.007 59.999999,59.999981 70 0 1 0.363413,-0.005 59.999999,59.999981 70 0 1 0.36368,-0.002 59.999999,59.999981 70 0 1 0.363154,-1.2e-4 59.999999,59.999981 70 0 1 0.363785,0.002 59.999999,59.999981 70 0 1 0.363468,0.004 59.999999,59.999981 70 0 1 0.363523,0.006 59.999999,59.999981 70 0 1 0.36321,0.009 59.999999,59.999981 70 0 1 0.363837,0.0107 59.999999,59.999981 70 0 1 0.362735,0.013 59.999999,59.999981 70 0 1 0.36358,0.0153 59.999999,59.999981 70 0 1 0.36306,0.0174 59.999999,59.999981 70 0 1 0.36311,0.0193 59.999999,59.999981 70 0 1 0.3628,0.022 59.999999,59.999981 70 0 1 0.36265,0.0234 59.999999,59.999981 70 0 1 0.36254,0.0267 59.999999,59.999981 70 0 1 0.36239,0.028 59.999999,59.999981 70 0 1 0.36208,0.0307 59.999999,59.999981 70 0 1 0.36212,0.0326 59.999999,59.999981 70 0 1 0.36183,0.0353 59.999999,59.999981 70 0 1 0.36165,0.0367 59.999999,59.999981 70 0 1 0.36136,0.0394 59.999999,59.999981 70 0 1 0.36141,0.0413 59.999999,59.999981 70 0 1 0.36108,0.044 59.999999,59.999981 70 0 1 0.36037,0.0456 59.999999,59.999981 70 0 1 0.36006,0.0483 59.999999,59.999981 70 0 1 0.36011,0.0502 59.999999,59.999981 70 0 1 0.35958,0.0523 59.999999,59.999981 70 0 1 0.35985,0.0548 59.999999,59.999981 70 0 1 0.35912,0.0564 59.999999,59.999981 70 0 1 0.35824,0.0593 59.999999,59.999981 70 0 1 0.35887,0.061 59.999999,59.999981 70 0 1 0.35777,0.0634 59.999999,59.999981 70 0 1 0.35725,0.0655 59.999999,59.999981 70 0 1 0.35731,0.0674 59.999999,59.999981 70 0 1 0.35699,0.0701 59.999999,59.999981 70 0 1 0.35627,0.0717 59.999999,59.999981 70 0 1 0.35595,0.0744 59.999999,59.999981 70 0 1 0.35524,0.0759 59.999999,59.999981 70 0 1 0.35491,0.0786 59.999999,59.999981 70 0 1 0.35497,0.0806 59.999999,59.999981 70 0 1 0.35389,0.0829 59.999999,59.999981 70 0 1 0.35315,0.0845 59.999999,59.999981 70 0 1 0.35284,0.0872 59.999999,59.999981 70 0 1 0.35289,0.0891 59.999999,59.999981 70 0 1 0.35181,0.0914 59.999999,59.999981 70 0 1 0.35128,0.0935 59.999999,59.999981 70 0 1 0.35056,0.0951 59.999999,59.999981 70 0 1 0.35024,0.0978 59.999999,59.999981 70 0 1 0.34973,0.0999 59.999999,59.999981 70 0 1 0.349,0.1015 59.999999,59.999981 70 0 1 0.34812,0.10443 59.999999,59.999981 70 0 1 0.34796,0.10577 59.999999,59.999981 70 0 1 0.34687,0.10811 59.999999,59.999981 70 0 1 0.34635,0.11025 59.999999,59.999981 70 0 1 0.34583,0.11237 59.999999,59.999981 70 0 1 0.34475,0.11472 59.999999,59.999981 70 0 1 0.34479,0.11663 59.999999,59.999981 70 0 1 0.34349,0.11841 59.999999,59.999981 70 0 1 0.34261,0.12131 59.999999,59.999981 70 0 1 0.34246,0.12266 59.999999,59.999981 70 0 1 0.34136,0.12501 59.999999,59.999981 70 0 1 0.34064,0.12658 59.999999,59.999981 70 0 1 0.33976,0.12946 59.999999,59.999981 70 0 1 0.33903,0.13104 59.999999,59.999981 70 0 1 0.33851,0.13317 59.999999,59.999981 70 0 1 0.33721,0.13493 59.999999,59.999981 70 0 1 0.3367,0.13707 59.999999,59.999981 70 0 1 0.3356,0.13942 59.999999,59.999981 70 0 1 0.33508,0.14152 59.999999,59.999981 70 0 1 0.33435,0.14309 59.999999,59.999981 70 0 1 0.33326,0.14544 59.999999,59.999981 70 0 1 0.33196,0.14721 59.999999,59.999981 70 0 1 0.33145,0.14933 59.999999,59.999981 70 0 1 0.33035,0.15167 59.999999,59.999981 70 0 1 0.0601,0.028 59.999999,59.999981 70 0 0 0.19821,0.10525 59.999999,59.999981 70 0 0 0.32199,0.1696 59.999999,59.999981 70 0 0 0.3223,0.1669 59.999999,59.999981 70 0 0 0.32381,0.16571 59.999999,59.999981 70 0 0 0.3249,0.16337 59.999999,59.999981 70 0 0 0.32599,0.16103 59.999999,59.999981 70 0 0 0.32672,0.15947 59.999999,59.999981 70 0 0 0.32781,0.15713 59.999999,59.999981 70 0 0 0.32853,0.15559 59.999999,59.999981 70 0 0 0.32963,0.15322 59.999999,59.999981 70 0 0 0.33035,0.15167 59.999999,59.999981 70 0 0 0.33144,0.14933 59.999999,59.999981 70 0 0 0.33254,0.14699 59.999999,59.999981 70 0 0 0.33326,0.14544 59.999999,59.999981 70 0 0 0.33378,0.14331 59.999999,59.999981 70 0 0 0.33508,0.14154 59.999999,59.999981 70 0 0 0.33539,0.13883 59.999999,59.999981 70 0 0 0.3369,0.13763 59.999999,59.999981 70 0 0 0.33721,0.13494 59.999999,59.999981 70 0 0 0.3385,0.13317 59.999999,59.999981 70 0 0 0.33903,0.13103 59.999999,59.999981 70 0 0 0.33955,0.1289 59.999999,59.999981 70 0 0 0.34084,0.12715 59.999999,59.999981 70 0 0 0.34137,0.125 59.999999,59.999981 70 0 0 0.34245,0.12266 59.999999,59.999981 70 0 0 0.3424,0.12075 59.999999,59.999981 70 0 0 0.34428,0.11877 59.999999,59.999981 70 0 0 0.34401,0.11627 59.999999,59.999981 70 0 0 0.34474,0.11471 59.999999,59.999981 70 0 0 0.34583,0.11238 59.999999,59.999981 70 0 0 0.34635,0.11024 59.999999,59.999981 70 0 0 0.34708,0.10869 59.999999,59.999981 70 0 0 0.34796,0.10577 59.999999,59.999981 70 0 0 0.34791,0.10385 59.999999,59.999981 70 0 0 0.34921,0.10208 59.999999,59.999981 70 0 0 0.34972,0.10001 59.999999,59.999981 70 0 0 0.35004,0.0973 59.999999,59.999981 70 0 0 0.35075,0.0957 59.999999,59.999981 70 0 0 0.35129,0.0935 59.999999,59.999981 70 0 0 0.35179,0.0914 59.999999,59.999981 70 0 0 0.3527,0.0885 59.999999,59.999981 70 0 0 0.35284,0.0872 59.999999,59.999981 70 0 0 0.35336,0.085 59.999999,59.999981 70 0 0 0.35387,0.0829 59.999999,59.999981 70 0 0 0.35498,0.0806 59.999999,59.999981 70 0 0 0.3547,0.0781 59.999999,59.999981 70 0 0 0.35544,0.0765 59.999999,59.999981 70 0 0 0.35575,0.0738 59.999999,59.999981 70 0 0 0.35647,0.0722 59.999999,59.999981 70 0 0 0.35678,0.0696 59.999999,59.999981 70 0 0 0.35751,0.068 59.999999,59.999981 70 0 0 0.35726,0.0655 59.999999,59.999981 70 0 0 0.35777,0.0634 59.999999,59.999981 70 0 0 0.35886,0.061 59.999999,59.999981 70 0 0 0.3586,0.0585 59.999999,59.999981 70 0 0 0.35875,0.0572 59.999999,59.999981 70 0 0 0.35964,0.0543 59.999999,59.999981 70 0 0 0.3598,0.0529 59.999999,59.999981 70 0 0 0.3601,0.0502 59.999999,59.999981 70 0 0 0.35985,0.0477 59.999999,59.999981 70 0 0 0.36056,0.0461 59.999999,59.999981 70 0 0 0.3609,0.0435 59.999999,59.999981 70 0 0 0.3616,0.0419 59.999999,59.999981 70 0 0 0.36115,0.0388 59.999999,59.999981 70 0 0 0.36187,0.0373 59.999999,59.999981 70 0 0 0.3616,0.0348 59.999999,59.999981 70 0 0 0.36234,0.0332 59.999999,59.999981 70 0 0 0.36187,0.0302 59.999999,59.999981 70 0 0 0.36259,0.0286 59.999999,59.999981 70 0 0 0.36234,0.0261 59.999999,59.999981 70 0 0 0.36285,0.024 59.999999,59.999981 70 0 0 0.36279,0.022 59.999999,59.999981 70 0 0 0.36312,0.0193 59.999999,59.999981 70 0 0 0.36305,0.0174 59.999999,59.999981 70 0 0 0.36358,0.0153 59.999999,59.999981 70 0 0 0.36332,0.0128 59.999999,59.999981 70 0 0 0.36326,0.0109 59.999999,59.999981 70 0 0 0.363,0.008 59.999999,59.999981 70 0 0 0.36353,0.006 59.999999,59.999981 70 0 0 0.36347,0.004 59.999999,59.999981 70 0 0 0.36399,0.002 59.999999,59.999981 70 0 0 0.36316,-1.1e-4 59.999999,59.999981 70 0 0 0.36347,-0.003 59.999999,59.999981 70 0 0 0.36341,-0.005 59.999999,59.999981 70 0 0 0.36394,-0.007 59.999999,59.999981 70 0 0 0.3631,-0.009 59.999999,59.999981 70 0 0 0.36362,-0.0113 59.999999,59.999981 70 0 0 0.363,-0.013 59.999999,59.999981 70 0 0 0.3633,-0.0157 59.999999,59.999981 70 0 0 0.36305,-0.0182 59.999999,59.999981 70 0 0 0.36299,-0.0201 59.999999,59.999981 70 0 0 0.36295,-0.022 59.999999,59.999981 70 0 0 0.36268,-0.0245 59.999999,59.999981 70 0 0 0.36265,-0.0264 59.999999,59.999981 70 0 0 0.36236,-0.029 59.999999,59.999981 70 0 0 0.36231,-0.0309 59.999999,59.999981 70 0 0 0.36148,-0.0331 59.999999,59.999981 70 0 0 0.36179,-0.0359 59.999999,59.999981 70 0 0 0.36194,-0.0372 59.999999,59.999981 70 0 0 0.36093,-0.0401 59.999999,59.999981 70 0 0 0.36145,-0.0422 59.999999,59.999981 70 0 0 0.36078,-0.0439 59.999999,59.999981 70 0 0 0.36054,-0.0464 59.999999,59.999981 70 0 0 0.36052,-0.0483 59.999999,59.999981 70 0 0 0.35964,-0.0507 59.999999,59.999981 70 0 0 0.35997,-0.0533 59.999999,59.999981 70 0 0 0.35936,-0.055 59.999999,59.999981 70 0 0 0.3585,-0.0574 59.999999,59.999981 70 0 0 0.35902,-0.0595 59.999999,59.999981 70 0 0 0.3582,-0.0617 59.999999,59.999981 70 0 0 0.3576,-0.0634 59.999999,59.999981 70 0 0 0.35788,-0.0662 59.999999,59.999981 70 0 0 0.35669,-0.0677 59.999999,59.999981 70 0 0 0.35701,-0.0703 59.999999,59.999981 70 0 0 0.35615,-0.0727 59.999999,59.999981 70 0 0 0.35556,-0.0744 59.999999,59.999981 70 0 0 0.35528,-0.0768 59.999999,59.999981 70 0 0 0.35522,-0.0789 59.999999,59.999981 70 0 0 0.35439,-0.0811 59.999999,59.999981 70 0 0 0.35358,-0.0834 59.999999,59.999981 70 0 0 0.35353,-0.0853 59.999999,59.999981 70 0 0 0.35268,-0.0876 59.999999,59.999981 70 0 0 0.35262,-0.0895 59.999999,59.999981 70 0 0 0.35182,-0.0918 59.999999,59.999981 70 0 0 0.35095,-0.0941 59.999999,59.999981 70 0 0 0.35035,-0.0958 59.999999,59.999981 70 0 0 0.35008,-0.0983 59.999999,59.999981 70 0 0 0.34944,-0.10004 59.999999,59.999981 70 0 0 0.34919,-0.10252 59.999999,59.999981 70 0 0 0.0631,-0.0187 59.999999,59.999981 70 0 0 17.39507,-66.12857 59.999999,59.999981 70 0 0 -73.5141,-36.980434 z" />
      <path
         d="m 105.30538,76.38863 a 59.999981,59.999999 20 0 1 0.0376,0.03178 59.999981,59.999999 20 0 1 0.27566,0.236929 59.999981,59.999999 20 0 1 0.27426,0.239018 59.999981,59.999999 20 0 1 0.27229,0.240883 59.999981,59.999999 20 0 1 0.27109,0.242398 59.999981,59.999999 20 0 1 0.26932,0.243688 59.999981,59.999999 20 0 1 0.26812,0.245202 59.999981,59.999999 20 0 1 0.26672,0.247276 59.999981,59.999999 20 0 1 0.26495,0.24858 59.999981,59.999999 20 0 1 0.26355,0.250654 59.999981,59.999999 20 0 1 0.26236,0.252159 59.999981,59.999999 20 0 1 0.26058,0.253461 59.999981,59.999999 20 0 1 0.25882,0.254754 59.999981,59.999999 20 0 1 0.25742,0.256842 59.999981,59.999999 20 0 1 0.25621,0.25835 59.999981,59.999999 20 0 1 0.25388,0.259428 59.999981,59.999999 20 0 1 0.25325,0.261157 59.999981,59.999999 20 0 1 0.25072,0.262808 59.999981,59.999999 20 0 1 0.2495,0.264326 59.999981,59.999999 20 0 1 0.24832,0.265821 59.999981,59.999999 20 0 1 0.24634,0.267697 59.999981,59.999999 20 0 1 0.24457,0.269002 59.999981,59.999999 20 0 1 0.24302,0.269723 59.999981,59.999999 20 0 1 0.24161,0.271806 59.999981,59.999999 20 0 1 0.23963,0.273673 59.999981,59.999999 20 0 1 0.23807,0.274396 59.999981,59.999999 20 0 1 0.23667,0.276477 59.999981,59.999999 20 0 1 0.23454,0.277004 59.999981,59.999999 20 0 1 0.23313,0.279075 59.999981,59.999999 20 0 1 0.23137,0.280372 59.999981,59.999999 20 0 1 0.2296,0.281674 59.999981,59.999999 20 0 1 0.2284,0.283186 59.999981,59.999999 20 0 1 0.22586,0.284836 59.999981,59.999999 20 0 1 0.22487,0.285784 59.999981,59.999999 20 0 1 0.22253,0.286872 59.999981,59.999999 20 0 1 0.22112,0.288943 59.999981,59.999999 20 0 1 0.21957,0.289676 59.999981,59.999999 20 0 1 0.21758,0.291552 59.999981,59.999999 20 0 1 0.21526,0.292639 59.999981,59.999999 20 0 1 0.21426,0.293567 59.999981,59.999999 20 0 1 0.21229,0.295443 59.999981,59.999999 20 0 1 0.21073,0.296176 59.999981,59.999999 20 0 1 0.20818,0.297824 59.999981,59.999999 20 0 1 0.20719,0.298771 59.999981,59.999999 20 0 1 0.20465,0.300432 59.999981,59.999999 20 0 1 0.20308,0.301161 59.999981,59.999999 20 0 1 0.20168,0.303236 59.999981,59.999999 20 0 1 0.19956,0.30375 59.999981,59.999999 20 0 1 0.19721,0.304845 59.999981,59.999999 20 0 1 0.19601,0.306355 59.999981,59.999999 20 0 1 0.19425,0.307652 59.999981,59.999999 20 0 1 0.19191,0.308745 59.999981,59.999999 20 0 1 0.19034,0.309465 59.999981,59.999999 20 0 1 0.18801,0.310563 59.999981,59.999999 20 0 1 0.18661,0.312637 59.999981,59.999999 20 0 1 0.18449,0.313161 59.999981,59.999999 20 0 1 0.1829,0.31389 59.999981,59.999999 20 0 1 0.18037,0.315548 59.999981,59.999999 20 0 1 0.17938,0.31648 59.999981,59.999999 20 0 1 0.17647,0.317364 59.999981,59.999999 20 0 1 0.17528,0.31888 59.999981,59.999999 20 0 1 0.17293,0.319963 59.999981,59.999999 20 0 1 0.1708,0.320484 59.999981,59.999999 20 0 1 0.16962,0.32199 59.999981,59.999999 20 0 1 0.16668,0.32288 59.999981,59.999999 20 0 1 0.16571,0.323797 59.999981,59.999999 20 0 1 0.1628,0.32469 59.999981,59.999999 20 0 1 0.1618,0.325627 59.999981,59.999999 20 0 1 0.15948,0.326707 59.999981,59.999999 20 0 1 0.15713,0.32782 59.999981,59.999999 20 0 1 0.15557,0.328527 59.999981,59.999999 20 0 1 0.15324,0.329627 59.999981,59.999999 20 0 1 0.15089,0.33071 59.999981,59.999999 20 0 1 0.14954,0.330867 59.999981,59.999999 20 0 1 0.14756,0.33275 59.999981,59.999999 20 0 1 0.14544,0.333257 59.999981,59.999999 20 0 1 0.1433,0.333777 59.999981,59.999999 20 0 1 0.14097,0.33487 59.999981,59.999999 20 0 1 0.13919,0.336167 59.999981,59.999999 20 0 1 0.13785,0.336327 59.999981,59.999999 20 0 1 0.13473,0.33778 59.999981,59.999999 20 0 1 0.13337,0.337927 59.999981,59.999999 20 0 1 0.13104,0.33903 59.999981,59.999999 20 0 1 0.1287,0.34011 59.999981,59.999999 20 0 1 0.12714,0.34086 59.999981,59.999999 20 0 1 0.12499,0.34135 59.999981,59.999999 20 0 1 0.12289,0.34189 59.999981,59.999999 20 0 1 0.12052,0.34298 59.999981,59.999999 20 0 1 0.11899,0.3437 59.999981,59.999999 20 0 1 0.11627,0.34401 59.999981,59.999999 20 0 1 0.1145,0.34531 59.999981,59.999999 20 0 1 0.11238,0.34583 59.999981,59.999999 20 0 1 0.11024,0.34635 59.999981,59.999999 20 0 1 0.10811,0.34687 59.999981,59.999999 20 0 1 0.10655,0.34759 59.999981,59.999999 20 0 1 0.10365,0.34848 59.999981,59.999999 20 0 1 0.10229,0.34864 59.999981,59.999999 20 0 1 0.0994,0.34951 59.999981,59.999999 20 0 1 0.0978,0.35025 59.999981,59.999999 20 0 1 0.0957,0.35076 59.999981,59.999999 20 0 1 0.0934,0.35185 59.999981,59.999999 20 0 1 0.0909,0.35159 59.999981,59.999999 20 0 1 0.0893,0.35233 59.999981,59.999999 20 0 1 0.0872,0.35284 59.999981,59.999999 20 0 1 0.0848,0.35393 59.999981,59.999999 20 0 1 0.0829,0.35387 59.999981,59.999999 20 0 1 0.0802,0.35419 59.999981,59.999999 20 0 1 0.0786,0.35492 59.999981,59.999999 20 0 1 0.0765,0.35543 59.999981,59.999999 20 0 1 0.0738,0.35575 59.999981,59.999999 20 0 1 0.0722,0.35648 59.999981,59.999999 20 0 1 0.0695,0.35678 59.999981,59.999999 20 0 1 0.0674,0.3573 59.999981,59.999999 20 0 1 0.0661,0.35747 59.999981,59.999999 20 0 1 0.0631,0.35833 59.999981,59.999999 20 0 1 0.0607,0.35809 59.999981,59.999999 20 0 1 0.0591,0.35881 59.999981,59.999999 20 0 1 0.057,0.35932 59.999981,59.999999 20 0 1 0.0545,0.35907 59.999981,59.999999 20 0 1 0.0523,0.35959 59.999981,59.999999 20 0 1 0.0502,0.36009 59.999981,59.999999 20 0 1 0.0481,0.36064 59.999981,59.999999 20 0 1 0.0462,0.36057 59.999981,59.999999 20 0 1 0.0435,0.36088 59.999981,59.999999 20 0 1 0.0415,0.36083 59.999981,59.999999 20 0 1 0.0394,0.36135 59.999981,59.999999 20 0 1 0.0373,0.36187 59.999981,59.999999 20 0 1 0.0348,0.36161 59.999981,59.999999 20 0 1 0.0326,0.36212 59.999981,59.999999 20 0 1 0.0307,0.36208 59.999981,59.999999 20 0 1 0.0286,0.3626 59.999981,59.999999 20 0 1 0.0259,0.3629 59.999981,59.999999 20 0 1 0.0242,0.36228 59.999981,59.999999 20 0 1 0.0218,0.36337 59.999981,59.999999 20 0 1 0.0195,0.36254 59.999981,59.999999 20 0 1 0.0172,0.36363 59.999981,59.999999 20 0 1 0.0149,0.3628 59.999981,59.999999 20 0 1 0.0134,0.36353 59.999981,59.999999 20 0 1 0.0109,0.36326 59.999981,59.999999 20 0 1 0.008,0.36358 59.999981,59.999999 20 0 1 0.006,0.36295 59.999981,59.999999 20 0 1 0.004,0.36403 59.999981,59.999999 20 0 1 0.002,0.36343 59.999981,59.999999 20 0 1 -2.7e-4,0.36373 59.999981,59.999999 20 0 1 -0.003,0.36346 59.999981,59.999999 20 0 1 -0.005,0.36342 59.999981,59.999999 20 0 1 -0.007,0.36336 59.999981,59.999999 20 0 1 -0.009,0.36311 59.999981,59.999999 20 0 1 -0.0113,0.36362 59.999981,59.999999 20 0 1 -0.0132,0.36357 59.999981,59.999999 20 0 1 -0.0155,0.36273 59.999981,59.999999 20 0 1 -0.0182,0.36304 59.999981,59.999999 20 0 1 -0.0201,0.36301 59.999981,59.999999 20 0 1 -0.022,0.36293 59.999981,59.999999 20 0 1 -0.0245,0.36269 59.999981,59.999999 20 0 1 -0.0264,0.36264 59.999981,59.999999 20 0 1 -0.029,0.36236 59.999981,59.999999 20 0 1 -0.0315,0.36211 59.999981,59.999999 20 0 1 -0.0328,0.36227 59.999981,59.999999 20 0 1 -0.0359,0.36179 59.999981,59.999999 20 0 1 -0.0376,0.36116 59.999981,59.999999 20 0 1 -0.0397,0.36169 59.999981,59.999999 20 0 1 -0.042,0.36088 59.999981,59.999999 20 0 1 -0.0439,0.36079 59.999981,59.999999 20 0 1 -0.0464,0.36055 59.999981,59.999999 20 0 1 -0.0489,0.3603 59.999981,59.999999 20 0 1 -0.0509,0.36021 59.999981,59.999999 20 0 1 -0.0526,0.35961 59.999981,59.999999 20 0 1 -0.055,0.35935 59.999981,59.999999 20 0 1 -0.0576,0.35907 59.999981,59.999999 20 0 1 -0.0593,0.35846 59.999981,59.999999 20 0 1 -0.0617,0.35821 59.999981,59.999999 20 0 1 -0.0636,0.35816 59.999981,59.999999 20 0 1 -0.066,0.3573 59.999981,59.999999 20 0 1 -0.0685,0.35706 59.999981,59.999999 20 0 1 -0.0701,0.35644 59.999981,59.999999 20 0 1 -0.0721,0.35637 59.999981,59.999999 20 0 1 -0.0746,0.35611 59.999981,59.999999 20 0 1 -0.0769,0.35529 59.999981,59.999999 20 0 1 -0.0792,0.35444 59.999981,59.999999 20 0 1 -0.0811,0.35439 59.999981,59.999999 20 0 1 -0.0828,0.35379 59.999981,59.999999 20 0 1 -0.0853,0.35352 59.999981,59.999999 20 0 1 -0.0876,0.35268 59.999981,59.999999 20 0 1 -0.0895,0.35263 59.999981,59.999999 20 0 1 -0.0918,0.35182 59.999981,59.999999 20 0 1 -0.0941,0.35096 59.999981,59.999999 20 0 1 -0.096,0.3509 59.999981,59.999999 20 0 1 -0.0983,0.35009 59.999981,59.999999 20 0 1 -0.10005,0.34944 59.999981,59.999999 20 0 1 -0.10231,0.34862 59.999981,59.999999 20 0 1 -0.10477,0.34837 59.999981,59.999999 20 0 1 -0.10625,0.34719 59.999981,59.999999 20 0 1 -0.10881,0.34689 59.999981,59.999999 20 0 1 -0.11106,0.34609 59.999981,59.999999 20 0 1 -0.11276,0.34546 59.999981,59.999999 20 0 1 -0.11475,0.34538 59.999981,59.999999 20 0 1 -0.11764,0.3437 59.999981,59.999999 20 0 1 -0.11973,0.34357 59.999981,59.999999 20 0 1 -0.12046,0.34266 59.999981,59.999999 20 0 1 -0.12349,0.3422 59.999981,59.999999 20 0 1 -0.0328,0.0884 59.999981,59.999999 20 0 1 -0.12537,0.34152 59.999981,59.999999 20 0 1 -0.12798,0.33993 59.999981,59.999999 20 0 1 -0.13007,0.3398 59.999981,59.999999 20 0 1 -0.13173,0.33856 59.999981,59.999999 20 0 1 -0.1339,0.33777 59.999981,59.999999 20 0 1 -0.13646,0.33748 59.999981,59.999999 20 0 1 -0.1385,0.33609 59.999981,59.999999 20 0 1 -0.14019,0.33548 59.999981,59.999999 20 0 1 -0.14234,0.33405 59.999981,59.999999 20 0 1 -0.14424,0.33401 59.999981,59.999999 20 0 1 -0.14628,0.33261 59.999981,59.999999 20 0 1 -0.14797,0.332 59.999981,59.999999 20 0 1 -0.15089,0.33093 59.999981,59.999999 20 0 1 -0.1518,0.32996 59.999981,59.999999 20 0 1 -0.14259,0.30287 59.999981,59.999999 20 0 1 0.002,0.001 59.999981,59.999999 20 0 1 0.25565,0.25815 59.999981,59.999999 20 0 1 0.25445,0.25964 59.999981,59.999999 20 0 1 0.25268,0.26094 59.999981,59.999999 20 0 1 0.25128,0.26302 59.999981,59.999999 20 0 1 0.24951,0.26431 59.999981,59.999999 20 0 1 0.24775,0.26562 59.999981,59.999999 20 0 1 0.24634,0.2677 59.999981,59.999999 20 0 1 0.24478,0.26844 59.999981,59.999999 20 0 1 0.24338,0.27049 59.999981,59.999999 20 0 1 0.2416,0.27181 59.999981,59.999999 20 0 1 0.23985,0.2731 59.999981,59.999999 20 0 1 0.23786,0.27498 59.999981,59.999999 20 0 1 0.23631,0.2757 59.999981,59.999999 20 0 1 0.2349,0.27777 59.999981,59.999999 20 0 1 0.23313,0.27908 59.999981,59.999999 20 0 1 0.23137,0.28038 59.999981,59.999999 20 0 1 0.2296,0.28167 59.999981,59.999999 20 0 1 0.22783,0.28296 59.999981,59.999999 20 0 1 0.22664,0.28448 59.999981,59.999999 20 0 1 0.22409,0.28615 59.999981,59.999999 20 0 1 0.2231,0.28707 59.999981,59.999999 20 0 1 0.22112,0.28896 59.999981,59.999999 20 0 1 0.219,0.28947 59.999981,59.999999 20 0 1 0.21758,0.29153 59.999981,59.999999 20 0 1 0.21604,0.29228 59.999981,59.999999 20 0 1 0.21405,0.29416 59.999981,59.999999 20 0 1 0.21171,0.29523 59.999981,59.999999 20 0 1 0.21074,0.29616 59.999981,59.999999 20 0 1 0.20875,0.29804 59.999981,59.999999 20 0 1 0.20662,0.29857 59.999981,59.999999 20 0 1 0.20521,0.30064 59.999981,59.999999 20 0 1 0.20309,0.30115 59.999981,59.999999 20 0 1 0.20132,0.30246 59.999981,59.999999 20 0 1 0.19935,0.30433 59.999981,59.999999 20 0 1 0.19778,0.30504 59.999981,59.999999 20 0 1 0.19601,0.30637 59.999981,59.999999 20 0 1 0.19368,0.30744 59.999981,59.999999 20 0 1 0.19211,0.30817 59.999981,59.999999 20 0 1 0.19014,0.31004 59.999981,59.999999 20 0 1 0.18858,0.31076 59.999981,59.999999 20 0 1 0.18625,0.31187 59.999981,59.999999 20 0 1 0.18505,0.31337 59.999981,59.999999 20 0 1 0.18213,0.31424 59.999981,59.999999 20 0 1 0.18094,0.31576 59.999981,59.999999 20 0 1 0.17881,0.31628 59.999981,59.999999 20 0 1 0.17704,0.31757 59.999981,59.999999 20 0 1 0.17471,0.31867 59.999981,59.999999 20 0 1 0.17293,0.31996 59.999981,59.999999 20 0 1 0.17137,0.32069 59.999981,59.999999 20 0 1 0.16904,0.32178 59.999981,59.999999 20 0 1 0.16748,0.3225 59.999981,59.999999 20 0 1 0.16492,0.32419 59.999981,59.999999 20 0 1 0.16358,0.32432 59.999981,59.999999 20 0 1 0.16103,0.32598 59.999981,59.999999 20 0 1 0.15947,0.32672 59.999981,59.999999 20 0 1 0.15713,0.32782 59.999981,59.999999 20 0 1 0.15557,0.32853 59.999981,59.999999 20 0 1 0.15324,0.32962 59.999981,59.999999 20 0 1 0.15166,0.33036 59.999981,59.999999 20 0 1 0.14934,0.33144 59.999981,59.999999 20 0 1 0.14699,0.33254 59.999981,59.999999 20 0 1 0.14544,0.33326 59.999981,59.999999 20 0 1 0.1433,0.33378 59.999981,59.999999 20 0 1 0.14153,0.33508 59.999981,59.999999 20 0 1 0.13941,0.3356 59.999981,59.999999 20 0 1 0.13707,0.3367 59.999981,59.999999 20 0 1 0.1353,0.33799 59.999981,59.999999 20 0 1 0.1328,0.33773 59.999981,59.999999 20 0 1 0.13104,0.33901 59.999981,59.999999 20 0 1 0.12927,0.34034 59.999981,59.999999 20 0 1 0.12676,0.34006 59.999981,59.999999 20 0 1 0.12502,0.34136 59.999981,59.999999 20 0 1 0.12266,0.34245 59.999981,59.999999 20 0 1 0.12111,0.34318 59.999981,59.999999 20 0 1 0.1184,0.34349 59.999981,59.999999 20 0 1 0.11684,0.34423 59.999981,59.999999 20 0 1 0.11452,0.34531 59.999981,59.999999 20 0 1 0.009,0.0272 59.999981,59.999999 20 0 1 -0.0448,0.0555 59.999981,59.999999 20 0 0 -0.28149,-0.0733 59.999981,59.999999 20 0 0 -0.35263,-0.0895 59.999981,59.999999 20 0 0 -0.35268,-0.0876 59.999981,59.999999 20 0 0 -0.35353,-0.0853 59.999981,59.999999 20 0 0 -0.35357,-0.0834 59.999981,59.999999 20 0 0 -0.3544,-0.0811 59.999981,59.999999 20 0 0 -0.35525,-0.0788 59.999981,59.999999 20 0 0 -0.35529,-0.0769 59.999981,59.999999 20 0 0 -0.35554,-0.0744 59.999981,59.999999 20 0 0 -0.35616,-0.0727 59.999981,59.999999 20 0 0 -0.35702,-0.0703 59.999981,59.999999 20 0 0 -0.35725,-0.0679 59.999981,59.999999 20 0 0 -0.35731,-0.066 59.999981,59.999999 20 0 0 -0.35739,-0.064 59.999981,59.999999 20 0 0 -0.35841,-0.0612 59.999981,59.999999 20 0 0 -0.35882,-0.0601 59.999981,59.999999 20 0 0 -0.35931,-0.0569 59.999981,59.999999 20 0 0 -0.35936,-0.055 59.999981,59.999999 20 0 0 -0.35939,-0.0531 59.999981,59.999999 20 0 0 -0.35965,-0.0507 59.999981,59.999999 20 0 0 -0.3605,-0.0483 59.999981,59.999999 20 0 0 -0.36055,-0.0464 59.999981,59.999999 20 0 0 -0.36059,-0.0445 59.999981,59.999999 20 0 0 -0.36141,-0.0423 59.999981,59.999999 20 0 0 -0.36112,-0.0395 59.999981,59.999999 20 0 0 -0.36174,-0.0378 59.999981,59.999999 20 0 0 -0.36202,-0.0353 59.999981,59.999999 20 0 0 -0.3615,-0.0331 59.999981,59.999999 20 0 0 -0.36231,-0.0309 59.999981,59.999999 20 0 0 -0.36236,-0.029 59.999981,59.999999 20 0 0 -0.36264,-0.0264 59.999981,59.999999 20 0 0 -0.36269,-0.0245 59.999981,59.999999 20 0 0 -0.36273,-0.0226 59.999981,59.999999 20 0 0 -0.36299,-0.0201 59.999981,59.999999 20 0 0 -0.36326,-0.0176 59.999981,59.999999 20 0 0 -0.36331,-0.0157 59.999981,59.999999 20 0 0 -0.36336,-0.0138 59.999981,59.999999 20 0 0 -0.36305,-0.0111 59.999981,59.999999 20 0 0 -0.36388,-0.009 59.999981,59.999999 20 0 0 -0.36316,-0.007 59.999981,59.999999 20 0 0 -0.36341,-0.005 59.999981,59.999999 20 0 0 -0.36368,-0.002 59.999981,59.999999 20 0 0 -0.36315,-1.1e-4 59.999981,59.999999 20 0 0 -0.36379,0.002 59.999981,59.999999 20 0 0 -0.36347,0.004 59.999981,59.999999 20 0 0 -0.36352,0.006 59.999981,59.999999 20 0 0 -0.36322,0.009 59.999981,59.999999 20 0 0 -0.36383,0.0106 59.999981,59.999999 20 0 0 -0.36274,0.013 59.999981,59.999999 20 0 0 -0.36358,0.0153 59.999981,59.999999 20 0 0 -0.36306,0.0174 59.999981,59.999999 20 0 0 -0.36311,0.0193 59.999981,59.999999 20 0 0 -0.3628,0.022 59.999981,59.999999 20 0 0 -0.36264,0.0234 59.999981,59.999999 20 0 0 -0.36255,0.0267 59.999981,59.999999 20 0 0 -0.36238,0.028 59.999981,59.999999 20 0 0 -0.36207,0.0307 59.999981,59.999999 20 0 0 -0.36213,0.0326 59.999981,59.999999 20 0 0 -0.36182,0.0353 59.999981,59.999999 20 0 0 -0.36166,0.0367 59.999981,59.999999 20 0 0 -0.36135,0.0394 59.999981,59.999999 20 0 0 -0.36141,0.0413 59.999981,59.999999 20 0 0 -0.36108,0.044 59.999981,59.999999 20 0 0 -0.36036,0.0456 59.999981,59.999999 20 0 0 -0.36006,0.0483 59.999981,59.999999 20 0 0 -0.3601,0.0502 59.999981,59.999999 20 0 0 -0.3596,0.0523 59.999981,59.999999 20 0 0 -0.35984,0.0548 59.999981,59.999999 20 0 0 -0.35912,0.0564 59.999981,59.999999 20 0 0 -0.35823,0.0593 59.999981,59.999999 20 0 0 -0.35886,0.061 59.999981,59.999999 20 0 0 -0.35778,0.0634 59.999981,59.999999 20 0 0 -0.35724,0.0655 59.999981,59.999999 20 0 0 -0.35731,0.0674 59.999981,59.999999 20 0 0 -0.35699,0.0701 59.999981,59.999999 20 0 0 -0.35626,0.0717 59.999981,59.999999 20 0 0 -0.35596,0.0744 59.999981,59.999999 20 0 0 -0.35523,0.0759 59.999981,59.999999 20 0 0 -0.35492,0.0787 59.999981,59.999999 20 0 0 -0.35497,0.0806 59.999981,59.999999 20 0 0 -0.35387,0.0829 59.999981,59.999999 20 0 0 -0.35316,0.0845 59.999981,59.999999 20 0 0 -0.35283,0.0872 59.999981,59.999999 20 0 0 -0.3529,0.0891 59.999981,59.999999 20 0 0 -0.3518,0.0914 59.999981,59.999999 20 0 0 -0.35128,0.0935 59.999981,59.999999 20 0 0 -0.35055,0.0951 59.999981,59.999999 20 0 0 -0.35025,0.0978 59.999981,59.999999 20 0 0 -0.34972,0.1 59.999981,59.999999 20 0 0 -0.349,0.10151 59.999981,59.999999 20 0 0 -0.34812,0.10442 59.999981,59.999999 20 0 0 -0.34795,0.10577 59.999981,59.999999 20 0 0 -0.34687,0.10811 59.999981,59.999999 20 0 0 -0.34635,0.11025 59.999981,59.999999 20 0 0 -0.34583,0.11238 59.999981,59.999999 20 0 0 -0.34474,0.11471 59.999981,59.999999 20 0 0 -0.3448,0.11664 59.999981,59.999999 20 0 0 -0.34349,0.1184 59.999981,59.999999 20 0 0 -0.342619,0.12131 59.999981,59.999999 20 0 0 -0.342447,0.12267 59.999981,59.999999 20 0 0 -0.34137,0.12501 59.999981,59.999999 20 0 0 -0.340627,0.12656 59.999981,59.999999 20 0 0 -0.339757,0.12947 59.999981,59.999999 20 0 0 -0.33902,0.13104 59.999981,59.999999 20 0 0 -0.338507,0.13318 59.999981,59.999999 20 0 0 -0.33721,0.13492 59.999981,59.999999 20 0 0 -0.336687,0.13707 59.999981,59.999999 20 0 0 -0.335597,0.13941 59.999981,59.999999 20 0 0 -0.33508,0.14153 59.999981,59.999999 20 0 0 -0.334347,0.1431 59.999981,59.999999 20 0 0 -0.333257,0.14543 59.999981,59.999999 20 0 0 -0.33197,0.1472 59.999981,59.999999 20 0 0 -0.331437,0.14934 59.999981,59.999999 20 0 0 -0.33036,0.15168 59.999981,59.999999 20 0 0 -0.06,0.028 59.999981,59.999999 20 0 1 -0.19821,0.10524 59.999981,59.999999 20 0 1 -0.321997,0.16961 59.999981,59.999999 20 0 1 -0.3223,0.1669 59.999981,59.999999 20 0 1 -0.323807,0.16571 59.999981,59.999999 20 0 1 -0.3249,0.16337 59.999981,59.999999 20 0 1 -0.325977,0.16104 59.999981,59.999999 20 0 1 -0.326727,0.15946 59.999981,59.999999 20 0 1 -0.3278,0.15714 59.999981,59.999999 20 0 1 -0.328537,0.15556 59.999981,59.999999 20 0 1 -0.32963,0.15324 59.999981,59.999999 20 0 1 -0.330337,0.15167 59.999981,59.999999 20 0 1 -0.331447,0.14933 59.999981,59.999999 20 0 1 -0.33253,0.147 59.999981,59.999999 20 0 1 -0.333267,0.14543 59.999981,59.999999 20 0 1 -0.333767,0.14331 59.999981,59.999999 20 0 1 -0.33509,0.14154 59.999981,59.999999 20 0 1 -0.335387,0.13883 59.999981,59.999999 20 0 1 -0.336897,0.13763 59.999981,59.999999 20 0 1 -0.33721,0.13494 59.999981,59.999999 20 0 1 -0.338497,0.13317 59.999981,59.999999 20 0 1 -0.33903,0.13103 59.999981,59.999999 20 0 1 -0.339537,0.1289 59.999981,59.999999 20 0 1 -0.340847,0.12714 59.999981,59.999999 20 0 1 -0.34136,0.12501 59.999981,59.999999 20 0 1 -0.342457,0.12266 59.999981,59.999999 20 0 1 -0.342397,0.12076 59.999981,59.999999 20 0 1 -0.34427,0.11876 59.999981,59.999999 20 0 1 -0.344017,0.11627 59.999981,59.999999 20 0 1 -0.344737,0.11471 59.999981,59.999999 20 0 1 -0.34583,0.11238 59.999981,59.999999 20 0 1 -0.346337,0.11024 59.999981,59.999999 20 0 1 -0.347087,0.10868 59.999981,59.999999 20 0 1 -0.34795,0.10578 59.999981,59.999999 20 0 1 -0.347907,0.10385 59.999981,59.999999 20 0 1 -0.349197,0.10208 59.999981,59.999999 20 0 1 -0.34973,0.1 59.999981,59.999999 20 0 1 -0.350037,0.0973 59.999981,59.999999 20 0 1 -0.350757,0.0957 59.999981,59.999999 20 0 1 -0.35128,0.0936 59.999981,59.999999 20 0 1 -0.351797,0.0914 59.999981,59.999999 20 0 1 -0.352687,0.0885 59.999981,59.999999 20 0 1 -0.35283,0.0872 59.999981,59.999999 20 0 1 -0.353357,0.085 59.999981,59.999999 20 0 1 -0.353877,0.0829 59.999981,59.999999 20 0 1 -0.35497,0.0806 59.999981,59.999999 20 0 1 -0.354712,0.0781 59.999981,59.999999 20 0 1 -0.355438,0.0765 59.999981,59.999999 20 0 1 -0.355748,0.0738 59.999981,59.999999 20 0 1 -0.356468,0.0722 59.999981,59.999999 20 0 1 -0.356783,0.0695 59.999981,59.999999 20 0 1 -0.357521,0.068 59.999981,59.999999 20 0 1 -0.357243,0.0655 59.999981,59.999999 20 0 1 -0.357775,0.0634 59.999981,59.999999 20 0 1 -0.358862,0.061 59.999981,59.999999 20 0 1 -0.3586,0.0585 59.999981,59.999999 20 0 1 -0.358754,0.0572 59.999981,59.999999 20 0 1 -0.359635,0.0543 59.999981,59.999999 20 0 1 -0.359796,0.0529 59.999981,59.999999 20 0 1 -0.360109,0.0502 59.999981,59.999999 20 0 1 -0.359849,0.0477 59.999981,59.999999 20 0 1 -0.360569,0.0461 59.999981,59.999999 20 0 1 -0.360886,0.0435 59.999981,59.999999 20 0 1 -0.361604,0.0419 59.999981,59.999999 20 0 1 -0.361138,0.0388 59.999981,59.999999 20 0 1 -0.361868,0.0373 59.999981,59.999999 20 0 1 -0.361611,0.0348 59.999981,59.999999 20 0 1 -0.362341,0.0332 59.999981,59.999999 20 0 1 -0.361863,0.0302 59.999981,59.999999 20 0 1 -0.36259,0.0286 59.999981,59.999999 20 0 1 -0.362337,0.0261 59.999981,59.999999 20 0 1 -0.362855,0.024 59.999981,59.999999 20 0 1 -0.362796,0.022 59.999981,59.999999 20 0 1 -0.363112,0.0193 59.999981,59.999999 20 0 1 -0.363058,0.0174 59.999981,59.999999 20 0 1 -0.363583,0.0153 59.999981,59.999999 20 0 1 -0.363312,0.0128 59.999981,59.999999 20 0 1 -0.363263,0.0109 59.999981,59.999999 20 0 1 -0.363013,0.008 59.999981,59.999999 20 0 1 -0.363517,0.006 59.999981,59.999999 20 0 1 -0.363471,0.004 59.999981,59.999999 20 0 1 -0.363987,0.002 59.999981,59.999999 20 0 1 -0.363157,-1.1e-4 59.999981,59.999999 20 0 1 -0.363466,-0.003 59.999981,59.999999 20 0 1 -0.363418,-0.005 59.999981,59.999999 20 0 1 -0.363929,-0.007 59.999981,59.999999 20 0 1 -0.363109,-0.009 59.999981,59.999999 20 0 1 -0.36362,-0.0113 59.999981,59.999999 20 0 1 -0.362995,-0.013 59.999981,59.999999 20 0 1 -0.363313,-0.0157 59.999981,59.999999 20 0 1 -0.36305,-0.0182 59.999981,59.999999 20 0 1 -0.362993,-0.0201 59.999981,59.999999 20 0 1 -0.362947,-0.022 59.999981,59.999999 20 0 1 -0.362683,-0.0245 59.999981,59.999999 20 0 1 -0.362641,-0.0264 59.999981,59.999999 20 0 1 -0.362352,-0.029 59.999981,59.999999 20 0 1 -0.362318,-0.0309 59.999981,59.999999 20 0 1 -0.361492,-0.0331 59.999981,59.999999 20 0 1 -0.361783,-0.0359 59.999981,59.999999 20 0 1 -0.361942,-0.0372 59.999981,59.999999 20 0 1 -0.360921,-0.04 59.999981,59.999999 20 0 1 -0.36141,-0.0423 59.999981,59.999999 20 0 1 -0.360794,-0.044 59.999981,59.999999 20 0 1 -0.360548,-0.0464 59.999981,59.999999 20 0 1 -0.3605,-0.0483 59.999981,59.999999 20 0 1 -0.359648,-0.0507 59.999981,59.999999 20 0 1 -0.359971,-0.0533 59.999981,59.999999 20 0 1 -0.359352,-0.055 59.999981,59.999999 20 0 1 -0.358499,-0.0574 59.999981,59.999999 20 0 1 -0.359027,-0.0595 59.999981,59.999999 20 0 1 -0.358206,-0.0617 59.999981,59.999999 20 0 1 -0.35759,-0.0634 59.999981,59.999999 20 0 1 -0.35788,-0.0662 59.999981,59.999999 20 0 1 -0.35669,-0.0677 59.999981,59.999999 20 0 1 -0.357013,-0.0703 59.999981,59.999999 20 0 1 -0.356159,-0.0727 59.999981,59.999999 20 0 1 -0.355544,-0.0744 59.999981,59.999999 20 0 1 -0.355294,-0.0769 59.999981,59.999999 20 0 1 -0.355215,-0.0788 59.999981,59.999999 20 0 1 -0.354393,-0.0811 59.999981,59.999999 20 0 1 -0.353576,-0.0834 59.999981,59.999999 20 0 1 -0.353528,-0.0853 59.999981,59.999999 20 0 1 -0.352676,-0.0876 59.999981,59.999999 20 0 1 -0.352631,-0.0895 59.999981,59.999999 20 0 1 -0.351811,-0.0918 59.999981,59.999999 20 0 1 -0.350955,-0.0941 59.999981,59.999999 20 0 1 -0.350339,-0.0958 59.999981,59.999999 20 0 1 -0.35009,-0.0983 59.999981,59.999999 20 0 1 -0.349474,-0.1 A 59.999981,59.999999 20 0 1 49.24842,179.5147 59.999981,59.999999 20 0 1 49.18531,179.496 59.999981,59.999999 20 0 1 31.791394,113.36933 59.999981,59.999999 20 0 1 105.30532,76.388894 Z"
         style="opacity:0.443846;fill:#d60067;fill-opacity:1;stroke:none;stroke-width:0.117726;stroke-miterlimit:10.433;stroke-opacity:1;stop-color:#000000"
         id="path1278-7" />
    </g>
  </g>
</svg>
