<?xml version="1.0" encoding="UTF-8" standalone="no"?>
<!-- Created with Inkscape (http://www.inkscape.org/) -->

<svg
   width="120mm"
   height="120mm"
   viewBox="0 0 120 120"
   version="1.1"
   id="svg5"
   inkscape:version="1.2.2 (b0a8486541, 2022-12-01)"
   sodipodi:docname="logo.svg"
   xmlns:inkscape="http://www.inkscape.org/namespaces/inkscape"
   xmlns:sodipodi="http://sodipodi.sourceforge.net/DTD/sodipodi-0.dtd"
   xmlns:xlink="http://www.w3.org/1999/xlink"
   xmlns="http://www.w3.org/2000/svg"
   xmlns:svg="http://www.w3.org/2000/svg">
  <sodipodi:namedview
     id="namedview7"
     pagecolor="#ffffff"
     bordercolor="#111111"
     borderopacity="1"
     inkscape:showpageshadow="0"
     inkscape:pageopacity="0"
     inkscape:pagecheckerboard="1"
     inkscape:deskcolor="#d1d1d1"
     inkscape:document-units="mm"
     showgrid="false"
     inkscape:zoom="1.6819304"
     inkscape:cx="283.6027"
     inkscape:cy="231.57914"
     inkscape:window-width="4498"
     inkscape:window-height="2981"
     inkscape:window-x="0"
     inkscape:window-y="17"
     inkscape:window-maximized="1"
     inkscape:current-layer="layer1">
    <inkscape:grid
       type="xygrid"
       id="grid132"
       dotted="true"
       originx="-30.019578"
       originy="-151.07324" />
  </sodipodi:namedview>
  <defs
     id="defs2">
    <linearGradient
       inkscape:collect="always"
       id="linearGradient1473">
      <stop
         style="stop-color:#11474f;stop-opacity:1;"
         offset="0"
         id="stop1469" />
      <stop
         style="stop-color:#570027;stop-opacity:1;"
         offset="1"
         id="stop1471" />
    </linearGradient>
    <linearGradient
       inkscape:collect="always"
       xlink:href="#linearGradient1473"
       id="linearGradient1541"
       gradientUnits="userSpaceOnUse"
       x1="20"
       y1="260"
       x2="160"
       y2="154.81131"
       gradientTransform="rotate(75,90.000056,210.99995)" />
    <clipPath
       clipPathUnits="userSpaceOnUse"
       id="clipPath1933">
      <circle
         style="opacity:0.498251;fill:none;fill-opacity:1;stroke:#737373;stroke-width:0.015;stroke-opacity:1;stop-color:#000000"
         id="circle1935"
         cx="90.019577"
         cy="211.07324"
         r="77.78511" />
    </clipPath>
  </defs>
  <g
     inkscape:label="Layer 1"
     inkscape:groupmode="layer"
     id="layer1"
     transform="translate(-30.019577,-151.07324)">
    <g
       id="g1918"
       clip-path="url(#clipPath1933)"
       transform="matrix(0.77135585,0,0,0.77135585,20.58245,48.260662)">
      <g
         id="g1839">
        <path
           id="path1131-9-5"
           style="fill:#000222;fill-opacity:1;stroke:none;stroke-width:1.23044;stroke-opacity:1;stop-color:#000000"
           d="M 169.25418,189.84269 C 157.52881,146.08259 112.54886,120.1134 68.788825,131.83898 25.028718,143.56435 -0.94046173,188.5443 10.785108,232.30433 c 11.7256,43.75981 56.705407,69.72871 100.465222,58.00319 43.75989,-11.72531 69.72908,-56.70492 58.00385,-100.46483 z"
           sodipodi:nodetypes="ccccc" />
        <path
           id="path1131-9"
           style="fill:url(#linearGradient1541);fill-opacity:1;stroke:none;stroke-width:1.23044;stroke-opacity:1;stop-color:#000000"
           d="M 169.23455,189.76929 A 82.029427,82.029427 0 0 0 68.769182,131.76558 82.029427,82.029427 0 0 0 10.765488,232.23093 82.029427,82.029427 0 0 0 111.2307,290.23412 82.029427,82.029427 0 0 0 169.23455,189.76929 Z m -41.07057,11.0048 a 39.510159,39.510159 0.16299651 0 1 0.34788,1.40049 39.510159,39.510159 0.16299651 0 1 0.2966,1.41263 39.510159,39.510159 0.16299651 0 1 0.24469,1.42224 39.510159,39.510159 0.16299651 0 1 0.19279,1.43028 39.510159,39.510159 0.16299651 0 1 0.14032,1.4363 39.510159,39.510159 0.16299651 0 1 0.0881,1.44069 39.510159,39.510159 0.16299651 0 1 0.0351,1.44258 39.510159,39.510159 0.16299651 0 1 -0.0177,1.44334 39.510159,39.510159 0.16299651 0 1 -0.0701,1.44135 39.510159,39.510159 0.16299651 0 1 -0.12298,1.43785 39.510159,39.510159 0.16299651 0 1 -0.17522,1.43258 39.510159,39.510159 0.16299651 0 1 -0.22747,1.42519 39.510159,39.510159 0.16299651 0 1 -0.27966,1.41615 39.510159,39.510159 0.16299651 0 1 -0.33085,1.40476 39.510159,39.510159 0.16299651 0 1 -0.38197,1.39168 39.510159,39.510159 0.16299651 0 1 -0.43249,1.37685 39.510159,39.510159 0.16299651 0 1 -0.48242,1.3603 39.510159,39.510159 0.16299651 0 1 -0.53236,1.34154 39.510159,39.510159 0.16299651 0 1 -0.58059,1.32132 39.510159,39.510159 0.16299651 0 1 -0.62822,1.29931 39.510159,39.510159 0.16299651 0 1 -0.67539,1.27503 39.510159,39.510159 0.16299651 0 1 -0.72168,1.24998 39.510159,39.510159 0.16299651 0 1 -0.76687,1.22306 39.510159,39.510159 0.16299651 0 1 -0.81113,1.19371 39.510159,39.510159 0.16299651 0 1 -0.8535,1.16332 39.510159,39.510159 0.16299651 0 1 -0.89628,1.13145 39.510159,39.510159 0.16299651 0 1 -0.93632,1.0978 39.510159,39.510159 0.16299651 0 1 -0.97602,1.06348 39.510159,39.510159 0.16299651 0 1 -1.01476,1.02677 39.510159,39.510159 0.16299651 0 1 -1.05111,0.98892 39.510159,39.510159 0.16299651 0 1 -1.08625,0.94964 39.510159,39.510159 0.16299651 0 1 -1.1205,0.90957 39.510159,39.510159 0.16299651 0 1 -1.15292,0.86856 39.510159,39.510159 0.16299651 0 1 -1.18385,0.82488 39.510159,39.510159 0.16299651 0 1 -1.21352,0.78206 39.510159,39.510159 0.16299651 0 1 -1.24076,0.7364 39.510159,39.510159 0.16299651 0 1 -1.26734,0.69106 39.510159,39.510159 0.16299651 0 1 -1.29155,0.6446 39.510159,39.510159 0.16299651 0 1 -1.31406,0.59659 39.510159,39.510159 0.16299651 0 1 -1.33505,0.54818 39.510159,39.510159 0.16299651 0 1 -1.35418,0.49875 39.510159,39.510159 0.16299651 0 1 -1.37166,0.44942 39.510159,39.510159 0.16299651 0 1 -1.38682,0.39893 39.510159,39.510159 0.16299651 0 1 -4.04516,0.86027 39.510159,39.510159 0.16299651 0 1 -4.112781,0.4322 39.510159,39.510159 0.16299651 0 1 -4.135603,-3.7e-4 39.510159,39.510159 0.16299651 0 1 -4.113295,-0.43222 39.510159,39.510159 0.16299651 0 1 -4.04489,-0.85978 39.510159,39.510159 0.16299651 0 1 -3.933343,-1.2781 39.510159,39.510159 0.16299651 0 1 -3.777807,-1.68197 39.510159,39.510159 0.16299651 0 1 -3.581591,-2.06785 39.510159,39.510159 0.16299651 0 1 -3.346037,-2.43057 39.510159,39.510159 0.16299651 0 1 -3.07306,-2.76745 39.510159,39.510159 0.16299651 0 1 -2.767667,-3.07344 39.510159,39.510159 0.16299651 0 1 -2.430821,-3.34558 39.510159,39.510159 0.16299651 0 1 -2.067638,-3.58152 39.510159,39.510159 0.16299651 0 1 -1.682083,-3.77786 39.510159,39.510159 0.16299651 0 1 -1.278075,-3.93321 39.510159,39.510159 0.16299651 0 1 -0.859779,-4.0453 39.510159,39.510159 0.16299651 0 1 -0.432331,-4.11329 39.510159,39.510159 0.16299651 0 1 -1.14e-4,-4.13547 39.510159,39.510159 0.16299651 0 1 0.432332,-4.11278 39.510159,39.510159 0.16299651 0 1 0.860177,-4.04552 39.510159,39.510159 0.16299651 0 1 1.277602,-3.9332 39.510159,39.510159 0.16299651 0 1 1.682485,-3.77796 39.510159,39.510159 0.16299651 0 1 2.067842,-3.5816 39.510159,39.510159 0.16299651 0 1 2.430684,-3.34553 39.510159,39.510159 0.16299651 0 1 2.767319,-3.07354 39.510159,39.510159 0.16299651 0 1 3.073075,-2.76706 39.510159,39.510159 0.16299651 0 1 3.346117,-2.43094 39.510159,39.510159 0.16299651 0 1 3.581472,-2.06764 39.510159,39.510159 0.16299651 0 1 3.777883,-1.68209 39.510159,39.510159 0.16299651 0 1 3.933203,-1.27806 39.510159,39.510159 0.16299651 0 1 4.045308,-0.85977 39.510159,39.510159 0.16299651 0 1 4.112772,-0.4322 39.510159,39.510159 0.16299651 0 1 4.135979,-2.5e-4 39.510159,39.510159 0.16299651 0 1 4.112788,0.43235 39.510159,39.510159 0.16299651 0 1 4.045387,0.85966 39.510159,39.510159 0.16299651 0 1 3.93284,1.27826 39.510159,39.510159 0.16299651 0 1 3.77831,1.68182 39.510159,39.510159 0.16299651 0 1 3.5816,2.06785 39.510159,39.510159 0.16299651 0 1 3.34554,2.43068 39.510159,39.510159 0.16299651 0 1 3.07353,2.76733 39.510159,39.510159 0.16299651 0 1 2.76721,3.07357 39.510159,39.510159 0.16299651 0 1 2.43081,3.34562 39.510159,39.510159 0.16299651 0 1 2.06763,3.58148 39.510159,39.510159 0.16299651 0 1 1.68221,3.77836 39.510159,39.510159 0.16299651 0 1 1.27807,3.93322 z" />
        <path
           id="path1544"
           style="opacity:0.811956;mix-blend-mode:soft-light;fill:#ffdc1a;fill-opacity:1;stroke:none;stroke-width:1.23044;stroke-opacity:1;stop-color:#000000"
           d="m 61.924386,133.96702 c -0.262763,0.1998 -0.52773,0.39709 -0.788066,0.59996 -0.500134,0.38973 -0.995785,0.78507 -1.486731,1.18597 -0.490946,0.4009 -0.976852,0.80716 -1.458309,1.21905 -0.481457,0.41189 -0.958222,0.82942 -1.429887,1.25212 -0.471665,0.4227 -0.938343,0.85032 -1.399914,1.28364 -0.461571,0.43333 -0.918251,0.87243 -1.369426,1.3162 -0.451174,0.44378 -0.89691,0.89265 -1.337386,1.34669 -0.440476,0.45404 -0.875355,0.91305 -1.30483,1.37718 -0.429475,0.46412 -0.853585,0.93312 -1.271757,1.40715 -0.418172,0.47403 -0.830567,0.95285 -1.237134,1.4366 -0.406566,0.48376 -0.807334,0.97276 -1.201993,1.46606 -0.394659,0.4933 -0.783372,0.99131 -1.165821,1.49397 -0.382449,0.50266 -0.758676,1.00951 -1.128613,1.52135 -0.369937,0.51184 -0.73325,1.02842 -1.090373,1.54926 -0.357122,0.52085 -0.708126,1.04647 -1.052132,1.57613 -0.344006,0.52967 -0.681238,1.06367 -1.011824,1.60197 -0.330587,0.53831 -0.654135,1.08053 -0.971001,1.62729 -0.316865,0.54677 -0.626817,1.09809 -0.929659,1.65313 -0.302842,0.55504 -0.598768,1.11376 -0.887284,1.6769 -0.288516,0.56314 -0.569988,1.13065 -0.843876,1.70171 -0.273888,0.57105 -0.540477,1.14565 -0.799434,1.72444 -0.258958,0.57879 -0.510234,1.16135 -0.75396,1.7477 -0.243725,0.58634 -0.479776,1.17671 -0.707967,1.77043 -0.22819,0.59372 -0.448588,1.19123 -0.660941,1.79214 -0.212354,0.60091 -0.416669,1.2054 -0.612883,1.81333 -0.196214,0.60792 -0.384017,1.21923 -0.56379,1.83399 -0.128692,0.44008 -0.252318,0.88186 -0.371036,1.3255 -0.118719,0.44364 -0.232824,0.88891 -0.341582,1.33584 -0.108758,0.44693 -0.21228,0.89571 -0.311092,1.34565 -0.09881,0.44995 -0.192757,0.90123 -0.281636,1.35392 -0.177759,0.90538 -0.335762,1.81587 -0.473873,2.73059 -0.138112,0.91472 -0.256442,1.8335 -0.355017,2.75538 -0.09857,0.92189 -0.177529,1.84712 -0.236678,2.774 -0.05915,0.92687 -0.09851,1.85567 -0.118339,2.78536 -0.01984,0.92968 -0.01989,1.8602 -5.17e-4,2.79052 0.01937,0.93033 0.05832,1.8602 0.116789,2.78898 0.05846,0.92878 0.136131,1.85616 0.233577,2.78123 0.09745,0.92506 0.214565,1.8481 0.350883,2.76727 0.136318,0.91917 0.292075,1.83447 0.467155,2.74557 0.17508,0.9111 0.369697,1.81784 0.583427,2.71869 0.21373,0.90086 0.446395,1.79617 0.698665,2.6846 0.126135,0.44421 0.257508,0.88686 0.393258,1.32756 0.135749,0.4407 0.275813,0.87929 0.421163,1.3162 0.14535,0.43691 0.295682,0.87198 0.450618,1.30483 0.154937,0.43285 0.314532,0.86339 0.479041,1.29191 0.164509,0.42852 0.333911,0.85507 0.507979,1.27899 0.174068,0.42392 0.352788,0.84548 0.536402,1.26453 0.183613,0.41904 0.372195,0.83563 0.56534,1.24953 0.193144,0.4139 0.3911,0.82504 0.593762,1.23352 0.202662,0.40848 0.410019,0.81419 0.622184,1.21698 0.212165,0.40279 0.428951,0.80258 0.650606,1.19941 0.221655,0.39682 0.448415,0.79073 0.679546,1.18132 0.23113,0.39059 0.466857,0.77812 0.70745,1.1622 0.240593,0.38409 0.485831,0.76475 0.735872,1.14205 0.250041,0.37731 0.504819,0.75113 0.764295,1.12138 0.259475,0.37025 0.52382,0.73675 0.792716,1.09968 0.268896,0.36292 0.542319,0.72212 0.820622,1.07745 0.278303,0.35533 0.561348,0.70674 0.849044,1.0542 0.287695,0.34746 0.579874,0.6911 0.876949,1.03043 0.297074,0.33932 0.598931,0.67419 0.905371,1.0051 0.306439,0.33092 0.617485,0.65756 0.933276,0.97979 0.315791,0.32223 0.63657,0.64016 0.961699,0.95343 0.325128,0.31327 0.654634,0.622 0.989087,0.92604 0.334452,0.30404 0.673747,0.6036 1.017509,0.89814 0.343761,0.29454 0.692356,0.58443 1.045414,0.8692 0.353058,0.28476 0.710462,0.5645 1.072802,0.83922 0.36234,0.27473 0.729617,0.54433 1.101225,0.80874 0.371609,0.2644 0.747751,0.52339 1.128614,0.77721 0.380862,0.25382 0.766415,0.50222 1.156518,0.74517 0.390103,0.24296 0.784577,0.48028 1.183907,0.71211 0.39933,0.23182 0.803269,0.45809 1.211812,0.67851 0.408544,0.22042 0.821976,0.43514 1.239718,0.64389 0.417742,0.20874 0.839662,0.41143 1.266589,0.60823 0.426928,0.19679 0.858396,0.388 1.294495,0.57257 0.436099,0.18457 0.877143,0.36278 1.3224,0.53485 0.445257,0.17208 0.894871,0.33782 1.349272,0.49713 0.4544,0.15931 0.913646,0.3121 1.377177,0.45837 0.46353,0.14628 0.931402,0.28613 1.404048,0.4191 0.348444,0.098 0.701842,0.18839 1.055233,0.27905 a 39.510159,39.510159 0 0 1 -2.106848,-1.418 39.510159,39.510159 0 0 1 -3.213758,-2.60294 39.510159,39.510159 0 0 1 -2.924369,-2.92437 39.510159,39.510159 0 0 1 -2.602425,-3.21376 39.510159,39.510159 0 0 1 -2.252576,-3.46852 39.510159,39.510159 0 0 1 -1.877404,-3.68453 39.510159,39.510159 0 0 1 -1.48208,-3.86127 39.510159,39.510159 0 0 1 -0.959632,-3.53466 c -0.186007,-0.31436 -0.372555,-0.62858 -0.549837,-0.94465 -0.240191,-0.42823 -0.472265,-0.85813 -0.696598,-1.28933 -0.224334,-0.43119 -0.440914,-0.86415 -0.649573,-1.29811 -0.208659,-0.43396 -0.409381,-0.86882 -0.602547,-1.30534 -0.193167,-0.43653 -0.378699,-0.87422 -0.556556,-1.3131 -0.177856,-0.43888 -0.347833,-0.8793 -0.510563,-1.32034 -0.162729,-0.44103 -0.318336,-0.88302 -0.466121,-1.32601 -0.147785,-0.44299 -0.288139,-0.88696 -0.421163,-1.3317 -0.133024,-0.44475 -0.258277,-0.89006 -0.376721,-1.33636 -0.118445,-0.44629 -0.229782,-0.89336 -0.33383,-1.341 -0.104048,-0.44764 -0.201104,-0.89583 -0.290938,-1.34462 -0.08983,-0.44879 -0.172761,-0.89799 -0.248564,-1.34772 -0.0758,-0.44973 -0.144235,-0.90035 -0.206189,-1.35082 -0.06195,-0.45048 -0.117077,-0.90085 -0.165364,-1.35186 -0.04829,-0.45101 -0.08974,-0.90257 -0.124541,-1.35392 -0.0348,-0.45135 -0.06325,-0.90244 -0.08475,-1.35392 -0.0215,-0.45149 -0.03606,-0.90303 -0.04444,-1.35444 -0.0084,-0.45142 -0.01023,-0.90278 -0.0057,-1.35393 0.0046,-0.45114 0.01525,-0.90221 0.03256,-1.35289 0.0173,-0.45067 0.04092,-0.90133 0.0708,-1.35133 0.02987,-0.45001 0.06626,-0.89963 0.10852,-1.34876 0.04226,-0.44912 0.09023,-0.89761 0.144694,-1.34565 0.05447,-0.44805 0.115411,-0.89527 0.181901,-1.34204 0.06649,-0.44677 0.138712,-0.89314 0.217041,-1.33842 0.07833,-0.44528 0.162711,-0.88965 0.252698,-1.33325 0.08999,-0.4436 0.185859,-0.88637 0.287321,-1.32809 0.101462,-0.44171 0.208157,-0.88226 0.320911,-1.32188 0.112754,-0.43962 0.231153,-0.87835 0.355017,-1.31568 0.123863,-0.43733 0.253299,-0.87361 0.38809,-1.30845 0.13479,-0.43484 0.275111,-0.86804 0.420646,-1.30018 0.145535,-0.43214 0.296589,-0.86318 0.452685,-1.29243 0.156097,-0.42924 0.317216,-0.85698 0.483692,-1.28312 0.166475,-0.42614 0.338025,-0.85047 0.514697,-1.27331 0.176672,-0.42284 0.358501,-0.84415 0.545186,-1.26349 0.186686,-0.41933 0.378126,-0.837 0.574642,-1.25263 0.196517,-0.41563 0.397932,-0.82903 0.604098,-1.24075 0.206165,-0.41173 0.417405,-0.82126 0.633036,-1.22887 0.215632,-0.40761 0.436027,-0.81317 0.660942,-1.21646 0.449829,-0.8066 0.917664,-1.60449 1.403532,-2.39262 0.485867,-0.78813 0.989541,-1.5667 1.509985,-2.33474 0.520444,-0.76805 1.057711,-1.52587 1.611271,-2.27222 0.55356,-0.74634 1.123208,-1.48097 1.708423,-2.204 0.585215,-0.72302 1.186031,-1.43408 1.80144,-2.13217 0.61541,-0.69808 1.245665,-1.38363 1.889808,-2.05517 0.644142,-0.67153 1.302108,-1.32912 1.973523,-1.97249 0.671414,-0.64336 1.356395,-1.27209 2.053621,-1.88567 0.697226,-0.61358 1.406976,-1.21204 2.128552,-1.79421 0.721577,-0.58217 1.454883,-1.14842 2.199349,-1.69757 0.744466,-0.54914 1.500117,-1.08126 2.266012,-1.59576 0.382947,-0.25726 0.768488,-0.50981 1.156518,-0.7581 0.388031,-0.24829 0.778574,-0.4921 1.171505,-0.73122 0.392931,-0.23912 0.788325,-0.47356 1.185974,-0.70332 0.397649,-0.22975 0.797226,-0.45522 1.19941,-0.67541 0.602359,-0.32977 1.208854,-0.6498 1.819011,-0.96066 0.610156,-0.31086 1.224215,-0.61228 1.841748,-0.90434 0.617532,-0.29205 1.238447,-0.57466 1.862935,-0.84801 0.624488,-0.27335 1.252584,-0.53744 1.883606,-0.7922 0.631022,-0.25475 1.265074,-0.50012 1.902209,-0.73639 0.637136,-0.23626 1.277469,-0.46373 1.920297,-0.68161 0.642827,-0.21788 1.288217,-0.4262 1.936316,-0.6258 0.648098,-0.1996 1.298869,-0.39011 1.951818,-0.57154 0.65295,-0.18143 1.307876,-0.35392 1.965255,-0.51728 0.657379,-0.16337 1.317304,-0.31762 1.978691,-0.46303 0.661387,-0.1454 1.324568,-0.28173 1.989542,-0.40927 0.664975,-0.12755 1.331735,-0.24626 1.999875,-0.35605 0.66814,-0.1098 1.33778,-0.21119 2.00866,-0.30334 0.67089,-0.0922 1.34269,-0.1755 2.0159,-0.25012 0.67321,-0.0746 1.3475,-0.14022 2.02262,-0.1974 0.67511,-0.0572 1.35118,-0.10587 2.02778,-0.14573 0.6766,-0.0399 1.35374,-0.0709 2.0314,-0.0935 0.67766,-0.0226 1.35569,-0.0369 2.03399,-0.0424 0.67829,-0.006 1.35701,-0.002 2.03553,0.009 0.67852,0.0115 1.35722,0.031 2.03553,0.0594 0.67832,0.0284 1.35629,0.0654 2.03399,0.11059 0.67769,0.0452 1.35475,0.0988 2.0314,0.16071 0.67665,0.0619 1.3526,0.13187 2.02778,0.21033 0.57965,0.0674 1.15857,0.14424 1.73685,0.22375 a 82.029427,82.029427 0 0 0 -34.730697,-7.71994 82.029427,82.029427 0 0 0 -28.075805,4.9966 z" />
        <path
           id="path1544-0"
           style="opacity:0.811956;mix-blend-mode:soft-light;fill:#ffdc1a;fill-opacity:1;stroke:none;stroke-width:1.23044;stroke-opacity:1;stop-color:#000000"
           d="m 12.967023,239.07554 c 0.1998,0.26276 0.39709,0.52773 0.599958,0.78806 0.389729,0.50014 0.785074,0.99579 1.185973,1.48674 0.400902,0.49094 0.807163,0.97685 1.219051,1.45831 0.41189,0.48145 0.829415,0.95822 1.252116,1.42988 0.422702,0.47166 0.850325,0.93834 1.28364,1.39992 0.433329,0.46157 0.872428,0.91824 1.316201,1.36943 0.443795,0.45115 0.892659,0.8969 1.346699,1.33736 0.454048,0.44047 0.913052,0.87537 1.377183,1.30483 0.464123,0.42948 0.933119,0.85359 1.407156,1.27176 0.47403,0.41817 0.952848,0.83057 1.436597,1.23713 0.48376,0.40658 0.972762,0.80734 1.46606,1.202 0.493299,0.39466 0.991311,0.78337 1.493973,1.16582 0.502654,0.38245 1.009506,0.75867 1.521346,1.12861 0.511839,0.36994 1.02842,0.73325 1.549258,1.09037 0.52085,0.35712 1.046472,0.70813 1.576135,1.05214 0.529669,0.344 1.063666,0.68123 1.60197,1.01182 0.538307,0.33059 1.080527,0.65414 1.62729,0.971 0.546768,0.31687 1.098087,0.62682 1.653124,0.92966 0.555045,0.30284 1.113761,0.59877 1.676906,0.88729 0.563139,0.28851 1.130648,0.56998 1.701709,0.84387 0.571049,0.27389 1.145649,0.54048 1.724441,0.79944 0.578786,0.25895 1.161345,0.51023 1.7477,0.75396 0.586337,0.24372 1.176708,0.47977 1.770429,0.70796 0.593721,0.2282 1.191226,0.44859 1.79214,0.66094 0.600906,0.21236 1.205396,0.41667 1.813329,0.61289 0.607921,0.19621 1.219232,0.38402 1.833992,0.56379 0.440079,0.12869 0.881856,0.25231 1.325499,0.37103 0.443641,0.11872 0.888906,0.23282 1.335843,0.34159 0.446928,0.10876 0.895704,0.21227 1.345647,0.31109 0.449948,0.0988 0.901226,0.19275 1.353918,0.28163 0.905384,0.17776 1.815867,0.33576 2.730592,0.47388 0.914717,0.1381 1.833498,0.25644 2.755378,0.35501 0.921894,0.0986 1.847118,0.17753 2.773999,0.23668 0.926869,0.0591 1.855674,0.0985 2.785363,0.11834 0.929679,0.0198 1.860198,0.0199 2.79052,5.2e-4 0.930325,-0.0194 1.860198,-0.0583 2.788976,-0.11679 0.928781,-0.0585 1.856164,-0.13613 2.781235,-0.23358 0.925054,-0.0974 1.848098,-0.21456 2.767268,-0.35088 0.91917,-0.13632 1.834471,-0.29208 2.745568,-0.46716 0.911104,-0.17508 1.817839,-0.3697 2.718691,-0.58343 0.900864,-0.21372 1.796173,-0.44639 2.684601,-0.69866 0.444208,-0.12614 0.886861,-0.25751 1.327559,-0.39326 0.440698,-0.13575 0.879288,-0.27581 1.316202,-0.42116 0.436907,-0.14535 0.871978,-0.29568 1.304832,-0.45062 0.432846,-0.15494 0.863388,-0.31453 1.291906,-0.47904 0.428524,-0.16451 0.855073,-0.33391 1.278992,-0.50798 0.423918,-0.17407 0.845475,-0.35279 1.264527,-0.5364 0.419045,-0.18361 0.835631,-0.3722 1.249533,-0.56534 0.413901,-0.19314 0.825039,-0.3911 1.233522,-0.59376 0.408476,-0.20267 0.814188,-0.41002 1.216977,-0.62219 0.402788,-0.21216 0.802583,-0.42894 1.199403,-0.6506 0.39682,-0.22166 0.79074,-0.44842 1.18133,-0.67955 0.39059,-0.23113 0.77812,-0.46685 1.1622,-0.70745 0.38409,-0.24059 0.76474,-0.48583 1.14205,-0.73587 0.37731,-0.25004 0.75113,-0.50482 1.12138,-0.76429 0.37023,-0.2595 0.73675,-0.52383 1.09968,-0.79272 0.36293,-0.26889 0.72212,-0.54232 1.07745,-0.82062 0.35535,-0.27828 0.70673,-0.56135 1.05419,-0.84905 0.34749,-0.28767 0.69114,-0.57984 1.03044,-0.87695 0.33933,-0.29705 0.67417,-0.59894 1.00508,-0.90538 0.33091,-0.30645 0.65754,-0.61751 0.9798,-0.93327 0.32255,-0.31548 0.64048,-0.63625 0.95332,-0.96181 0.31354,-0.32485 0.62198,-0.65465 0.92603,-0.9891 0.30404,-0.33445 0.6036,-0.67374 0.89814,-1.0175 0.29455,-0.34376 0.58444,-0.69235 0.8692,-1.04542 0.28475,-0.35307 0.5645,-0.71046 0.83922,-1.0728 0.27477,-0.3623 0.54433,-0.72962 0.80874,-1.10123 0.26441,-0.3716 0.52339,-0.74775 0.77721,-1.12861 0.25384,-0.38084 0.50222,-0.76642 0.74517,-1.15652 0.24296,-0.3901 0.48028,-0.78458 0.71211,-1.18391 0.23182,-0.39933 0.45809,-0.80327 0.67851,-1.21181 0.22042,-0.40854 0.43514,-0.82197 0.64389,-1.23971 0.20874,-0.41775 0.41143,-0.83967 0.60823,-1.26659 0.19679,-0.42694 0.388,-0.8584 0.57257,-1.2945 0.18457,-0.4361 0.36278,-0.87714 0.53485,-1.3224 0.17208,-0.44526 0.33782,-0.89487 0.49713,-1.34927 0.15931,-0.4544 0.3121,-0.91365 0.45837,-1.37718 0.14628,-0.46353 0.28613,-0.9314 0.4191,-1.40405 0.098,-0.34844 0.18839,-0.70184 0.27905,-1.05523 a 39.510159,39.510159 0 0 1 -1.418,2.10685 39.510159,39.510159 0 0 1 -2.60294,3.21376 39.510159,39.510159 0 0 1 -2.92437,2.92437 39.510159,39.510159 0 0 1 -3.21376,2.60242 39.510159,39.510159 0 0 1 -3.46852,2.25258 39.510159,39.510159 0 0 1 -3.68453,1.8774 39.510159,39.510159 0 0 1 -3.86127,1.48208 39.510159,39.510159 0 0 1 -3.534658,0.95963 c -0.314389,0.18598 -0.628582,0.37256 -0.944653,0.54984 -0.428228,0.24019 -0.858132,0.47226 -1.289327,0.6966 -0.431191,0.22433 -0.864155,0.44091 -1.298113,0.64957 -0.433959,0.20866 -0.868819,0.40938 -1.305341,0.60255 -0.436527,0.19317 -0.874215,0.3787 -1.313101,0.55655 -0.438879,0.17786 -0.879298,0.34784 -1.320334,0.51057 -0.441031,0.16273 -0.883026,0.31833 -1.326015,0.46612 -0.442989,0.14778 -0.88696,0.28814 -1.331695,0.42116 -0.444754,0.13302 -0.890061,0.25828 -1.336362,0.37672 -0.446289,0.11845 -0.89336,0.22978 -1.341002,0.33383 -0.447636,0.10405 -0.895827,0.20111 -1.344616,0.29094 -0.448795,0.0898 -0.897995,0.17276 -1.347727,0.24856 -0.449724,0.0758 -0.900347,0.14424 -1.350815,0.20619 -0.450479,0.0619 -0.900849,0.11708 -1.351861,0.16537 -0.451013,0.0483 -0.902572,0.0897 -1.353918,0.12454 -0.451353,0.0348 -0.902442,0.0633 -1.353921,0.0848 -0.451491,0.0215 -0.90303,0.0361 -1.35444,0.0444 -0.451418,0.008 -0.902782,0.0102 -1.353929,0.006 -0.451141,-0.005 -0.902215,-0.0153 -1.352896,-0.0326 -0.450666,-0.0173 -0.901329,-0.0409 -1.351325,-0.0708 -0.450012,-0.0299 -0.899631,-0.0663 -1.348765,-0.10853 -0.449114,-0.0422 -0.897604,-0.0902 -1.345648,-0.14469 -0.448046,-0.0545 -0.89527,-0.11541 -1.342041,-0.1819 -0.44677,-0.0665 -0.89314,-0.13871 -1.338415,-0.21704 -0.445281,-0.0783 -0.889655,-0.16271 -1.333253,-0.2527 -0.443597,-0.09 -0.88637,-0.18586 -1.328092,-0.28732 -0.441709,-0.10146 -0.882259,-0.20816 -1.321881,-0.32091 -0.439614,-0.11275 -0.878345,-0.23115 -1.315679,-0.35502 -0.437327,-0.12386 -0.873607,-0.25329 -1.308446,-0.38809 -0.434841,-0.13479 -0.86804,-0.27511 -1.300182,-0.42064 -0.432141,-0.14554 -0.86318,-0.29659 -1.292428,-0.45269 -0.429243,-0.1561 -0.856979,-0.31721 -1.283124,-0.48369 -0.426138,-0.16647 -0.850468,-0.33802 -1.273308,-0.5147 -0.422842,-0.17667 -0.844149,-0.3585 -1.263493,-0.54519 -0.419324,-0.18668 -0.836997,-0.37812 -1.252625,-0.57463 -0.415635,-0.19652 -0.829035,-0.39794 -1.240754,-0.6041 -0.411724,-0.20616 -0.821254,-0.4174 -1.228865,-0.63304 -0.407611,-0.21563 -0.813174,-0.43603 -1.216465,-0.66094 -0.8066,-0.44983 -1.604488,-0.91766 -2.392617,-1.40353 -0.788128,-0.48587 -1.566703,-0.98954 -2.334738,-1.50999 -0.768056,-0.52044 -1.525873,-1.05771 -2.272226,-1.61127 -0.746334,-0.55356 -1.480969,-1.12321 -2.203999,-1.70842 -0.723017,-0.58522 -1.434074,-1.18603 -2.132168,-1.80144 -0.698085,-0.61541 -1.383632,-1.24566 -2.05517,-1.88981 -0.671532,-0.64414 -1.329121,-1.30211 -1.972488,-1.97352 -0.643361,-0.67142 -1.272092,-1.35639 -1.885671,-2.05362 -0.613577,-0.69723 -1.212044,-1.40698 -1.794209,-2.12855 -0.582168,-0.72158 -1.148425,-1.45489 -1.697571,-2.19935 -0.549142,-0.74447 -1.081261,-1.50012 -1.595764,-2.26602 -0.257259,-0.38294 -0.509808,-0.76848 -0.7581,-1.15652 -0.248286,-0.38802 -0.492099,-0.77857 -0.731213,-1.1715 -0.239122,-0.39293 -0.473562,-0.78832 -0.703325,-1.18597 -0.229752,-0.39765 -0.455218,-0.79723 -0.675412,-1.19942 -0.329767,-0.60235 -0.649795,-1.20885 -0.960657,-1.819 -0.310862,-0.61016 -0.612281,-1.22422 -0.904342,-1.84175 -0.292048,-0.61754 -0.574659,-1.23845 -0.848004,-1.86293 -0.273352,-0.62449 -0.537441,-1.25259 -0.792207,-1.88362 -0.254746,-0.63101 -0.50012,-1.26507 -0.736389,-1.9022 -0.236257,-0.63714 -0.463728,-1.27747 -0.681606,-1.9203 -0.217878,-0.64282 -0.426202,-1.28822 -0.6258,-1.93631 -0.199605,-0.64811 -0.390111,-1.29887 -0.571545,-1.95183 -0.181426,-0.65294 -0.353915,-1.30787 -0.517275,-1.96525 -0.163372,-0.65738 -0.317622,-1.3173 -0.463032,-1.97869 -0.145403,-0.66139 -0.281726,-1.32456 -0.409272,-1.98954 -0.12755,-0.66498 -0.246259,-1.33174 -0.35605,-1.99988 -0.109795,-0.66813 -0.211184,-1.33777 -0.303339,-2.00866 -0.0922,-0.67088 -0.175498,-1.34269 -0.250121,-2.0159 -0.0746,-0.67321 -0.140215,-1.34749 -0.197399,-2.02262 -0.0572,-0.67511 -0.105871,-1.35118 -0.145728,-2.02777 -0.0399,-0.6766 -0.0709,-1.35374 -0.0935,-2.0314 -0.0226,-0.67767 -0.0369,-1.35569 -0.0424,-2.03399 -0.006,-0.6783 -0.002,-1.35702 0.009,-2.03553 0.0115,-0.67853 0.031,-1.35722 0.0594,-2.03554 0.0284,-0.67831 0.0654,-1.35629 0.110589,-2.03399 0.0452,-0.67769 0.0988,-1.35475 0.160708,-2.0314 0.0619,-0.67665 0.131874,-1.35259 0.210331,-2.02778 0.0674,-0.57964 0.14424,-1.15857 0.223752,-1.73685 a 82.029427,82.029427 0 0 0 -7.7199391,34.7307 82.029427,82.029427 0 0 0 4.9965981,28.07581 z" />
        <path
           id="path1544-0-6"
           style="opacity:0.811956;mix-blend-mode:soft-light;fill:#ffdc1a;fill-opacity:1;stroke:none;stroke-width:1.23044;stroke-opacity:1;stop-color:#000000"
           d="m 118.07551,288.03286 c 0.26275,-0.19982 0.52775,-0.39708 0.78806,-0.59996 0.50016,-0.38971 0.99579,-0.78507 1.48675,-1.18597 0.49096,-0.40088 0.97684,-0.80717 1.45831,-1.21905 0.48146,-0.41188 0.95823,-0.8294 1.42988,-1.25212 0.47164,-0.42271 0.93831,-0.85035 1.3999,-1.28365 0.46159,-0.43331 0.91825,-0.87242 1.3694,-1.31623 0.45101,-0.44394 0.8969,-0.89266 1.33708,-1.34698 0.44019,-0.45433 0.87541,-0.91302 1.30481,-1.37721 0.42947,-0.46412 0.85361,-0.93309 1.27178,-1.40713 0.41817,-0.47403 0.83055,-0.95287 1.23714,-1.43659 0.40656,-0.48378 0.80734,-0.97276 1.202,-1.46606 0.39469,-0.49327 0.78336,-0.99131 1.16582,-1.49397 0.38244,-0.50266 0.75866,-1.00951 1.1286,-1.52135 0.36995,-0.51184 0.73326,-1.02842 1.09037,-1.54926 0.35713,-0.52085 0.70814,-1.04647 1.05215,-1.57613 0.34399,-0.52967 0.68123,-1.06367 1.01181,-1.60198 0.33059,-0.5383 0.65414,-1.08052 0.971,-1.62729 0.31687,-0.54676 0.62683,-1.09808 0.92967,-1.65312 0.30283,-0.55504 0.59876,-1.11376 0.88728,-1.67691 0.28851,-0.56314 0.56998,-1.13064 0.84387,-1.7017 0.2739,-0.57105 0.54048,-1.14565 0.79945,-1.72444 0.25895,-0.57879 0.51023,-1.16135 0.75396,-1.7477 0.24372,-0.58634 0.47977,-1.17671 0.70796,-1.77043 0.22819,-0.59373 0.44858,-1.19123 0.66094,-1.79214 0.21235,-0.60091 0.41666,-1.2054 0.61288,-1.81333 0.19622,-0.60792 0.38403,-1.21923 0.5638,-1.834 0.12869,-0.44007 0.25231,-0.88186 0.37103,-1.3255 0.11872,-0.44363 0.23282,-0.8889 0.34159,-1.33583 0.10876,-0.44693 0.21227,-0.89571 0.31108,-1.34566 0.0988,-0.44994 0.19276,-0.90122 0.28164,-1.35391 0.17776,-0.90539 0.33576,-1.81587 0.47388,-2.73059 0.1381,-0.91473 0.25644,-1.8335 0.35501,-2.75538 0.0986,-0.9219 0.17752,-1.84712 0.23667,-2.774 0.0591,-0.92687 0.0985,-1.85568 0.11834,-2.78537 0.0198,-0.92967 0.0199,-1.86019 5.3e-4,-2.79051 -0.0194,-0.93033 -0.0583,-1.8602 -0.1168,-2.78898 -0.0585,-0.92878 -0.13613,-1.85617 -0.23357,-2.78124 -0.0974,-0.92505 -0.21457,-1.84809 -0.35088,-2.76726 -0.13632,-0.91917 -0.29209,-1.83447 -0.46716,-2.74557 -0.17508,-0.91111 -0.36971,-1.81784 -0.58343,-2.71869 -0.21372,-0.90086 -0.44639,-1.79618 -0.69866,-2.6846 -0.12614,-0.44421 -0.25751,-0.88686 -0.39326,-1.32756 -0.13575,-0.4407 -0.27581,-0.87929 -0.42116,-1.3162 -0.14535,-0.43691 -0.29568,-0.87198 -0.45062,-1.30484 -0.15494,-0.43284 -0.31453,-0.86338 -0.47904,-1.2919 -0.16451,-0.42853 -0.33391,-0.85507 -0.50798,-1.27899 -0.17407,-0.42393 -0.3528,-0.84548 -0.5364,-1.26453 -0.18361,-0.41904 -0.3722,-0.83564 -0.56534,-1.24953 -0.19314,-0.4139 -0.3911,-0.82504 -0.59376,-1.23352 -0.20268,-0.40848 -0.41002,-0.81419 -0.62219,-1.21698 -0.21217,-0.40279 -0.42895,-0.80258 -0.6506,-1.19941 -0.22166,-0.39682 -0.44843,-0.79073 -0.67955,-1.18132 -0.23113,-0.3906 -0.46686,-0.77812 -0.70745,-1.1622 -0.24059,-0.3841 -0.48583,-0.76475 -0.73587,-1.14205 -0.25004,-0.37732 -0.50483,-0.75114 -0.76429,-1.12138 -0.2595,-0.37024 -0.52383,-0.73676 -0.79272,-1.09968 -0.2689,-0.36294 -0.54233,-0.72213 -0.82062,-1.07745 -0.27829,-0.35536 -0.56135,-0.70674 -0.84905,-1.0542 -0.28767,-0.34749 -0.57984,-0.69113 -0.87695,-1.03043 -0.29705,-0.33934 -0.59894,-0.67418 -0.90538,-1.00508 -0.30645,-0.33092 -0.61752,-0.65754 -0.93328,-0.97981 -0.31547,-0.32254 -0.63624,-0.64048 -0.9618,-0.95332 -0.32485,-0.31354 -0.65465,-0.62198 -0.9891,-0.92602 -0.33445,-0.30405 -0.67375,-0.60361 -1.0175,-0.89814 -0.34377,-0.29456 -0.69235,-0.58445 -1.04542,-0.8692 -0.35307,-0.28476 -0.71047,-0.5645 -1.07281,-0.83923 -0.3623,-0.27476 -0.72961,-0.54432 -1.10122,-0.80874 -0.37161,-0.26441 -0.74775,-0.52339 -1.12862,-0.77721 -0.38083,-0.25384 -0.76641,-0.50221 -1.15652,-0.74517 -0.39009,-0.24296 -0.78458,-0.48028 -1.1839,-0.71211 -0.39933,-0.23181 -0.80327,-0.45809 -1.21181,-0.67851 -0.40854,-0.22042 -0.82197,-0.43514 -1.23971,-0.64389 -0.41775,-0.20874 -0.83967,-0.41143 -1.2666,-0.60823 -0.42693,-0.19679 -0.85839,-0.38799 -1.29449,-0.57257 -0.4361,-0.18456 -0.87714,-0.36278 -1.32241,-0.53484 -0.44525,-0.17209 -0.89486,-0.33782 -1.34926,-0.49714 -0.45441,-0.15931 -0.91366,-0.3121 -1.37719,-0.45836 -0.46353,-0.14628 -0.93139,-0.28613 -1.40404,-0.41911 -0.34844,-0.098 -0.70185,-0.18838 -1.05523,-0.27905 a 39.510159,39.510159 0 0 1 2.10685,1.41801 39.510159,39.510159 0 0 1 3.21375,2.60293 39.510159,39.510159 0 0 1 2.92438,2.92438 39.510159,39.510159 0 0 1 2.60242,3.21376 39.510159,39.510159 0 0 1 2.25258,3.46852 39.510159,39.510159 0 0 1 1.8774,3.68452 39.510159,39.510159 0 0 1 1.48207,3.86128 39.510159,39.510159 0 0 1 0.95964,3.53466 c 0.18597,0.31439 0.37256,0.62857 0.54983,0.94464 0.24019,0.42823 0.47227,0.85814 0.6966,1.28933 0.22434,0.43119 0.44091,0.86415 0.64957,1.29811 0.20866,0.43396 0.40939,0.86882 0.60256,1.30535 0.19316,0.43653 0.3787,0.87421 0.55655,1.3131 0.17786,0.43888 0.34784,0.8793 0.51056,1.32033 0.16274,0.44104 0.31834,0.88303 0.46612,1.32601 0.14779,0.44299 0.28815,0.88697 0.42117,1.3317 0.13302,0.44475 0.25828,0.89006 0.37672,1.33636 0.11844,0.44629 0.22977,0.89337 0.33383,1.34101 0.10405,0.44763 0.20111,0.89582 0.29094,1.34461 0.0898,0.44879 0.17276,0.898 0.24856,1.34773 0.0758,0.44973 0.14424,0.90035 0.20619,1.35081 0.0619,0.45048 0.11708,0.90085 0.16537,1.35187 0.0483,0.45101 0.0897,0.90257 0.12454,1.35391 0.0348,0.45136 0.0633,0.90244 0.0848,1.35393 0.0215,0.45148 0.0361,0.90303 0.0444,1.35443 0.008,0.45142 0.0102,0.90278 0.006,1.35393 -0.005,0.45114 -0.0153,0.90221 -0.0326,1.3529 -0.0173,0.45067 -0.0409,0.90133 -0.0708,1.35132 -0.0299,0.45001 -0.0663,0.89964 -0.10853,1.34877 -0.0422,0.44912 -0.0902,0.89761 -0.14469,1.34564 -0.0545,0.44806 -0.11541,0.89528 -0.1819,1.34205 -0.0665,0.44677 -0.13871,0.89314 -0.21704,1.33841 -0.0783,0.44528 -0.16271,0.88966 -0.25271,1.33325 -0.09,0.4436 -0.18585,0.88637 -0.28731,1.3281 -0.10147,0.44171 -0.20816,0.88225 -0.32092,1.32188 -0.11275,0.43961 -0.23114,0.87834 -0.35501,1.31567 -0.12386,0.43734 -0.2533,0.87361 -0.3881,1.30845 -0.13479,0.43484 -0.2751,0.86805 -0.42064,1.30018 -0.14553,0.43215 -0.29659,0.86318 -0.45268,1.29244 -0.1561,0.42924 -0.31722,0.85697 -0.4837,1.28312 -0.16646,0.42614 -0.33801,0.85047 -0.51469,1.27331 -0.17667,0.42284 -0.35851,0.84414 -0.54519,1.26349 -0.18668,0.41932 -0.37813,0.83699 -0.57464,1.25262 -0.19651,0.41564 -0.39794,0.82904 -0.6041,1.24076 -0.20615,0.41172 -0.4174,0.82125 -0.63303,1.22887 -0.21563,0.40761 -0.43603,0.81317 -0.66094,1.21646 -0.44983,0.8066 -0.91767,1.60448 -1.40354,2.39261 -0.48586,0.78813 -0.98953,1.56671 -1.50998,2.33475 -0.52044,0.76805 -1.05771,1.52587 -1.61128,2.27222 -0.55356,0.74633 -1.1232,1.48097 -1.70841,2.204 -0.58525,0.72299 -1.18604,1.43407 -1.80144,2.13217 -0.61539,0.69811 -1.24564,1.38366 -1.88981,2.05517 -0.64412,0.67155 -1.30211,1.32912 -1.97352,1.97249 -0.67139,0.64339 -1.35639,1.27209 -2.05362,1.88567 -0.69727,0.61354 -1.40698,1.21204 -2.12856,1.7942 -0.72159,0.58215 -1.45489,1.14843 -2.19935,1.69757 -0.74446,0.54915 -1.50012,1.08126 -2.26601,1.59577 -0.38297,0.25724 -0.76849,0.50981 -1.15653,0.7581 -0.38801,0.24829 -0.77856,0.4921 -1.1715,0.73121 -0.39292,0.23913 -0.78831,0.47357 -1.18597,0.70332 -0.39765,0.22976 -0.79723,0.45522 -1.19942,0.67542 -0.60234,0.32977 -1.20885,0.64979 -1.819,0.96065 -0.610153,0.31087 -1.224213,0.61229 -1.841742,0.90435 -0.617541,0.29205 -1.238456,0.57465 -1.862936,0.848 -0.624489,0.27335 -1.252585,0.53744 -1.883617,0.79221 -0.63101,0.25474 -1.265068,0.50012 -1.902197,0.73639 -0.637143,0.23626 -1.277476,0.46372 -1.920301,0.68161 -0.642821,0.21787 -1.288221,0.4262 -1.93631,0.6258 -0.648109,0.1996 -1.29887,0.39011 -1.95183,0.57154 -0.65294,0.18143 -1.307872,0.35391 -1.965248,0.51728 -0.657383,0.16337 -1.317301,0.31762 -1.978696,0.46302 -0.661384,0.14541 -1.324556,0.28173 -1.989534,0.40928 -0.664987,0.12754 -1.331747,0.24625 -1.999885,0.35605 -0.668128,0.10979 -1.337765,0.21119 -2.008657,0.30334 -0.670881,0.0922 -1.34269,0.1755 -2.015904,0.25012 -0.673209,0.0746 -1.347488,0.14021 -2.022616,0.1974 -0.675111,0.0572 -1.351182,0.10587 -2.027773,0.14572 -0.676597,0.0399 -1.353737,0.0709 -2.031399,0.0935 -0.677667,0.0226 -1.355694,0.0369 -2.033992,0.0424 -0.678294,0.006 -1.357017,0.002 -2.035529,-0.009 -0.678527,-0.0115 -1.35722,-0.031 -2.035536,-0.0594 -0.67831,-0.0284 -1.356292,-0.0654 -2.033993,-0.11059 -0.677689,-0.0452 -1.354753,-0.0988 -2.031396,-0.16071 -0.676655,-0.0619 -1.352595,-0.13188 -2.027785,-0.21033 -0.579636,-0.0674 -1.158566,-0.14424 -1.736846,-0.22375 a 82.029427,82.029427 0 0 0 34.730696,7.71993 82.029427,82.029427 0 0 0 28.075816,-4.99659 z" />
        <path
           id="path1544-0-6-7"
           style="opacity:0.811956;mix-blend-mode:soft-light;fill:#ffdc1a;fill-opacity:1;stroke:none;stroke-width:1.23044;stroke-opacity:1;stop-color:#000000"
           d="m 167.03296,182.92433 c -0.19982,-0.26275 -0.39709,-0.52776 -0.59996,-0.78806 -0.38971,-0.50016 -0.78507,-0.99579 -1.18598,-1.48675 -0.40087,-0.49096 -0.80716,-0.97684 -1.21905,-1.45831 -0.41188,-0.48146 -0.82939,-0.95823 -1.25211,-1.42988 -0.42271,-0.47164 -0.85035,-0.93831 -1.28366,-1.39991 -0.4333,-0.46158 -0.87242,-0.91824 -1.31622,-1.36939 -0.44394,-0.45102 -0.89266,-0.8969 -1.34698,-1.33709 -0.45433,-0.44018 -0.91303,-0.8754 -1.37721,-1.3048 -0.46413,-0.42947 -0.93309,-0.85361 -1.40713,-1.27179 -0.47403,-0.41817 -0.95288,-0.83054 -1.43659,-1.23714 -0.48378,-0.40656 -0.97276,-0.80734 -1.46606,-1.202 -0.49327,-0.39469 -0.99131,-0.78336 -1.49396,-1.16582 -0.50266,-0.38245 -1.00952,-0.75866 -1.52136,-1.1286 -0.51184,-0.36995 -1.02841,-0.73326 -1.54926,-1.09037 -0.52084,-0.35713 -1.04647,-0.70814 -1.57613,-1.05214 -0.52966,-0.344 -1.06366,-0.68124 -1.60198,-1.01182 -0.5383,-0.33059 -1.08051,-0.65414 -1.62729,-0.971 -0.54676,-0.31687 -1.09808,-0.62683 -1.65312,-0.92967 -0.55503,-0.30283 -1.11375,-0.59876 -1.6769,-0.88728 -0.56315,-0.28851 -1.13064,-0.56998 -1.7017,-0.84387 -0.57106,-0.27389 -1.14566,-0.54048 -1.72445,-0.79944 -0.57879,-0.25896 -1.16135,-0.51024 -1.7477,-0.75397 -0.58634,-0.24372 -1.17671,-0.47977 -1.77043,-0.70796 -0.59373,-0.22819 -1.19123,-0.44858 -1.79214,-0.66094 -0.60091,-0.21235 -1.2054,-0.41666 -1.81332,-0.61288 -0.60793,-0.19622 -1.21924,-0.38403 -1.83401,-0.5638 -0.44007,-0.12869 -0.88186,-0.25231 -1.3255,-0.37103 -0.44363,-0.11872 -0.88889,-0.23282 -1.33583,-0.34158 -0.44693,-0.10877 -0.8957,-0.21228 -1.34566,-0.31109 -0.44994,-0.0988 -0.90122,-0.19276 -1.35391,-0.28163 -0.90539,-0.17777 -1.81587,-0.33577 -2.73059,-0.47389 -0.91473,-0.1381 -1.8335,-0.25644 -2.75538,-0.355 -0.9219,-0.0986 -1.84711,-0.17753 -2.774,-0.23668 -0.92687,-0.0591 -1.85568,-0.0985 -2.78537,-0.11833 -0.92967,-0.0198 -1.86019,-0.0199 -2.79051,-5.4e-4 -0.93033,0.0194 -1.86019,0.0583 -2.78898,0.11681 -0.92878,0.0585 -1.85617,0.13613 -2.78124,0.23356 -0.92504,0.0974 -1.84809,0.21457 -2.76726,0.35088 -0.91917,0.13632 -1.834463,0.29209 -2.745571,0.46716 -0.911107,0.17508 -1.817837,0.36971 -2.718684,0.58343 -0.900861,0.21372 -1.796185,0.44639 -2.684601,0.69867 -0.444212,0.12614 -0.886861,0.2575 -1.327558,0.39325 -0.440704,0.13575 -0.879294,0.27581 -1.316201,0.42116 -0.436915,0.14535 -0.871983,0.29568 -1.304846,0.45062 -0.432834,0.15494 -0.863377,0.31454 -1.291898,0.47904 -0.428528,0.16451 -0.855069,0.33391 -1.278986,0.50798 -0.423932,0.17407 -0.845481,0.3528 -1.264534,0.5364 -0.419038,0.18361 -0.835637,0.3722 -1.249528,0.56535 -0.413898,0.19314 -0.825045,0.39109 -1.23352,0.59375 -0.408481,0.20267 -0.814191,0.41003 -1.21698,0.62219 -0.402789,0.21217 -0.80258,0.42895 -1.199409,0.6506 -0.396821,0.22166 -0.790729,0.44843 -1.18132,0.67956 -0.390606,0.23112 -0.778122,0.46685 -1.162201,0.70744 -0.3841,0.24059 -0.76475,0.48583 -1.142048,0.73587 -0.377319,0.25004 -0.751139,0.50483 -1.12138,0.7643 -0.370234,0.2595 -0.736763,0.52382 -1.099685,0.79271 -0.362944,0.2689 -0.722133,0.54233 -1.077447,0.82063 -0.355356,0.27828 -0.706739,0.56134 -1.054204,0.84904 -0.347487,0.28767 -0.691133,0.57984 -1.030425,0.87696 -0.339333,0.29704 -0.674176,0.59894 -1.005081,0.90537 -0.330919,0.30646 -0.657539,0.61752 -0.97981,0.93329 -0.322539,0.31547 -0.640476,0.63623 -0.953314,0.9618 -0.313538,0.32485 -0.621985,0.65465 -0.926027,0.9891 -0.304042,0.33444 -0.603608,0.67375 -0.898139,1.0175 -0.294559,0.34377 -0.584446,0.69235 -0.869203,1.04541 -0.284761,0.35307 -0.564497,0.71047 -0.839227,1.07281 -0.27476,0.3623 -0.544319,0.72961 -0.808743,1.10122 -0.264412,0.37161 -0.523387,0.74775 -0.777206,1.12862 -0.253837,0.38084 -0.502209,0.76641 -0.745169,1.15652 -0.242965,0.39009 -0.480282,0.78458 -0.712114,1.1839 -0.231806,0.39933 -0.45809,0.80327 -0.67851,1.21181 -0.220421,0.40854 -0.43514,0.82197 -0.643889,1.23971 -0.208742,0.41775 -0.411431,0.83967 -0.608229,1.2666 -0.196792,0.42693 -0.387992,0.85839 -0.572573,1.29449 -0.184556,0.4361 -0.362778,0.87714 -0.534837,1.32241 -0.172092,0.44525 -0.337818,0.89486 -0.49714,1.34926 -0.159308,0.45441 -0.312098,0.91366 -0.45836,1.37719 -0.14628,0.46353 -0.286129,0.93139 -0.419111,1.40404 -0.098,0.34844 -0.188379,0.70185 -0.279052,1.05523 a 39.510159,39.510159 0 0 1 1.418013,-2.10685 39.510159,39.510159 0 0 1 2.602927,-3.21375 39.510159,39.510159 0 0 1 2.92438,-2.92438 39.510159,39.510159 0 0 1 3.213765,-2.60242 39.510159,39.510159 0 0 1 3.468519,-2.25257 39.510159,39.510159 0 0 1 3.684514,-1.87741 39.510159,39.510159 0 0 1 3.861284,-1.48207 39.510159,39.510159 0 0 1 3.534657,-0.95964 c 0.314387,-0.18598 0.628576,-0.37256 0.944645,-0.54982 0.428231,-0.2402 0.858138,-0.47227 1.289332,-0.69661 0.431186,-0.22434 0.864141,-0.44091 1.298106,-0.64956 0.433959,-0.20866 0.868815,-0.4094 1.305348,-0.60257 0.436532,-0.19316 0.87421,-0.3787 1.313097,-0.55655 0.43888,-0.17786 0.879301,-0.34784 1.320338,-0.51056 0.441037,-0.16273 0.883021,-0.31834 1.326002,-0.46612 0.442995,-0.14779 0.886974,-0.28815 1.331701,-0.42117 0.444756,-0.13302 0.890064,-0.25828 1.336362,-0.37672 0.446297,-0.11844 0.893372,-0.22977 1.341013,-0.33382 0.447627,-0.10406 0.89582,-0.20112 1.344606,-0.29095 0.448794,-0.0898 0.898005,-0.17275 1.347732,-0.24856 0.449727,-0.0758 0.900345,-0.14424 1.350807,-0.20619 0.450484,-0.0619 0.900854,-0.11708 1.351875,-0.16536 0.451007,-0.0483 0.902567,-0.0897 1.353907,-0.12455 0.45136,-0.0348 0.90244,-0.0633 1.35393,-0.0848 0.45148,-0.0215 0.90303,-0.0361 1.35443,-0.0444 0.45142,-0.008 0.90278,-0.0102 1.35393,-0.006 0.45114,0.005 0.90221,0.0153 1.3529,0.0326 0.45067,0.0173 0.90134,0.0409 1.35132,0.0708 0.45001,0.0299 0.89964,0.0663 1.34878,0.10853 0.44911,0.0422 0.8976,0.0902 1.34563,0.14469 0.44806,0.0545 0.89528,0.11541 1.34205,0.1819 0.44677,0.0665 0.89314,0.13871 1.33841,0.21704 0.44528,0.0783 0.88966,0.16271 1.33325,0.25272 0.4436,0.09 0.88637,0.18584 1.3281,0.2873 0.44171,0.10147 0.88225,0.20816 1.32188,0.32092 0.43961,0.11276 0.87834,0.23114 1.31567,0.35501 0.43734,0.12387 0.87361,0.2533 1.30845,0.3881 0.43484,0.13479 0.86805,0.2751 1.30018,0.42064 0.43215,0.14554 0.86318,0.2966 1.29244,0.45268 0.42924,0.1561 0.85697,0.31723 1.28312,0.4837 0.42614,0.16646 0.85047,0.33801 1.27331,0.5147 0.42284,0.17667 0.84415,0.3585 1.2635,0.54518 0.41931,0.18668 0.83698,0.37813 1.25261,0.57465 0.41564,0.1965 0.82904,0.39793 1.24076,0.60409 0.41172,0.20615 0.82125,0.41741 1.22887,0.63303 0.40761,0.21563 0.81317,0.43603 1.21646,0.66094 0.8066,0.44983 1.60448,0.91767 2.39261,1.40355 0.78813,0.48585 1.56671,0.98952 2.33475,1.50997 0.76805,0.52044 1.52587,1.05771 2.27222,1.61128 0.74633,0.55356 1.48098,1.1232 2.204,1.70841 0.72299,0.58525 1.43408,1.18604 2.13217,1.80144 0.69812,0.61539 1.38366,1.24564 2.05517,1.88982 0.67156,0.64411 1.32912,1.3021 1.97249,1.97352 0.64339,0.67139 1.27209,1.35638 1.88567,2.05362 0.61354,0.69726 1.21204,1.40697 1.79421,2.12855 0.58215,0.72159 1.14842,1.45489 1.69756,2.19935 0.54915,0.74446 1.08127,1.50012 1.59577,2.26601 0.25724,0.38297 0.50981,0.76849 0.7581,1.15653 0.24829,0.38801 0.4921,0.77856 0.73121,1.1715 0.23913,0.39292 0.47357,0.78832 0.70332,1.18597 0.22977,0.39765 0.45523,0.79723 0.67542,1.19942 0.32977,0.60234 0.64979,1.20885 0.96065,1.819 0.31087,0.61015 0.6123,1.22422 0.90435,1.84174 0.29205,0.61754 0.57465,1.23845 0.848,1.86294 0.27335,0.62448 0.53744,1.25258 0.79221,1.88362 0.25475,0.631 0.50013,1.26507 0.73639,1.90219 0.23626,0.63715 0.46372,1.27747 0.68161,1.9203 0.21787,0.64282 0.4262,1.28823 0.6258,1.93632 0.19961,0.6481 0.39011,1.29887 0.57154,1.95182 0.18143,0.65295 0.35392,1.30788 0.51728,1.96525 0.16337,0.65739 0.31762,1.3173 0.46303,1.9787 0.1454,0.66138 0.28172,1.32455 0.40927,1.98953 0.12754,0.66498 0.24626,1.33175 0.35605,1.99989 0.10979,0.66812 0.21119,1.33777 0.30334,2.00865 0.0922,0.67089 0.1755,1.34269 0.25012,2.01591 0.0746,0.67321 0.14021,1.34748 0.1974,2.02261 0.0572,0.67511 0.10587,1.35119 0.14572,2.02777 0.0399,0.67661 0.0709,1.35375 0.0935,2.0314 0.0226,0.67767 0.0369,1.3557 0.0424,2.034 0.006,0.67829 0.002,1.35701 -0.009,2.03552 -0.0115,0.67853 -0.031,1.35722 -0.0594,2.03554 -0.0284,0.67832 -0.0654,1.35629 -0.11059,2.034 -0.0452,0.67769 -0.0988,1.35475 -0.16071,2.03139 -0.0619,0.67666 -0.13188,1.35259 -0.21033,2.02779 -0.0674,0.57963 -0.14424,1.15856 -0.22375,1.73684 a 82.029427,82.029427 0 0 0 7.71993,-34.73069 82.029427,82.029427 0 0 0 -4.99658,-28.07582 z" />
        <path
           id="path1544-9"
           style="opacity:0.811956;mix-blend-mode:soft-light;fill:#ffdc1a;fill-opacity:1;stroke:none;stroke-width:1.23044;stroke-opacity:1;stop-color:#000000"
           d="m 42.943474,143.85833 c -0.202099,0.261 -0.406974,0.52015 -0.605932,0.78348 -0.382223,0.5059 -0.758665,1.01605 -1.129122,1.53035 -0.370455,0.51432 -0.734657,1.03249 -1.093103,1.55496 -0.358448,0.52246 -0.710903,1.04915 -1.057094,1.57953 -0.346191,0.53037 -0.68629,1.06421 -1.019981,1.60223 -0.33369,0.53803 -0.661162,1.08036 -0.982108,1.62578 -0.32094,0.54544 -0.635313,1.09438 -0.943266,1.64695 -0.307953,0.55257 -0.609213,1.10849 -0.903929,1.66796 -0.294716,0.55947 -0.582989,1.12226 -0.864225,1.68836 -0.281236,0.56611 -0.555651,1.13535 -0.82316,1.70785 -0.267506,0.5725 -0.528056,1.14856 -0.781593,1.7272 -0.253535,0.57864 -0.500108,1.16028 -0.739428,1.7448 -0.23932,0.58452 -0.471545,1.17147 -0.696401,1.76162 -0.22486,0.59015 -0.442091,1.18316 -0.652243,1.77868 -0.210146,0.59553 -0.41315,1.19409 -0.608349,1.79474 -0.195196,0.60065 -0.382726,1.20374 -0.562726,1.80926 -0.179998,0.60553 -0.352183,1.21302 -0.516741,1.82315 -0.164553,0.61016 -0.321253,1.22291 -0.47012,1.83742 -0.148868,0.61451 -0.290104,1.23078 -0.423036,1.84941 -0.132936,0.61862 -0.257934,1.23964 -0.374688,1.86213 -0.116757,0.62248 -0.225544,1.2465 -0.325877,1.87259 -0.100331,0.62609 -0.192268,1.25383 -0.275929,1.88329 -0.08366,0.62945 -0.158875,1.26079 -0.225623,1.89334 -0.06675,0.63255 -0.124991,1.26674 -0.17458,1.90214 -0.04959,0.63539 -0.09049,1.27216 -0.122677,1.91017 -0.03219,0.63799 -0.05537,1.27707 -0.06991,1.91741 -0.01041,0.4584 -0.01548,0.91712 -0.01533,1.37638 1.45e-4,0.45923 0.0052,0.91886 0.0158,1.37872 0.01062,0.45985 0.02678,0.92013 0.04778,1.38032 0.02101,0.4602 0.04707,0.92041 0.07838,1.38068 0.06263,0.92053 0.145659,1.84089 0.249014,2.76019 0.103346,0.9193 0.226833,1.83739 0.370225,2.75338 0.143389,0.91599 0.306585,1.83012 0.489357,2.74073 0.18276,0.91059 0.385132,1.81793 0.606597,2.72107 0.221452,0.90314 0.462244,1.80197 0.721741,2.69558 0.259497,0.89361 0.537788,1.78172 0.834651,2.66372 0.296854,0.882 0.611901,1.75768 0.945454,2.62601 0.333551,0.86831 0.685575,1.72959 1.055149,2.58216 0.369571,0.85257 0.756918,1.69637 1.161841,2.5311 0.404926,0.83475 0.827592,1.66021 1.267196,2.47506 0.439608,0.81484 0.896068,1.61943 1.369685,2.41229 0.236808,0.39643 0.478269,0.78999 0.723456,1.18054 0.245184,0.39055 0.493992,0.77795 0.747471,1.16236 0.253477,0.3844 0.51129,0.76573 0.772977,1.14373 0.261687,0.378 0.527276,0.75257 0.797089,1.12391 0.269812,0.37133 0.543843,0.73951 0.821696,1.10393 0.277858,0.36443 0.559595,0.72537 0.84541,1.08261 0.285812,0.35724 0.57579,0.71083 0.869479,1.06064 0.293687,0.3498 0.591308,0.6957 0.892789,1.03781 0.301479,0.34211 0.606774,0.68032 0.915961,1.01448 0.309186,0.33416 0.622058,0.66421 0.938867,0.99015 0.316806,0.32593 0.637792,0.64773 0.962139,0.96519 0.324347,0.31746 0.652342,0.63077 0.984144,0.93949 0.331805,0.30874 0.667209,0.61296 1.006382,0.91268 0.339176,0.29974 0.682025,0.59488 1.028487,0.88536 0.34646,0.29047 0.696655,0.57607 1.050322,0.85703 0.353664,0.28097 0.710739,0.55716 1.071525,0.82835 0.360785,0.27119 0.72514,0.53738 1.092961,0.79853 0.367821,0.26116 0.738984,0.51747 1.113762,0.76835 0.374774,0.25087 0.753015,0.4962 1.134662,0.73653 0.381644,0.24033 0.766632,0.47533 1.155063,0.70485 0.388429,0.22952 0.780564,0.45359 1.175695,0.67204 0.395129,0.21844 0.793313,0.43137 1.195061,0.63848 0.401748,0.20713 0.807012,0.40866 1.215294,0.60419 0.40828,0.19553 0.820027,0.38533 1.234758,0.56901 0.41473,0.18368 0.832357,0.36138 1.253454,0.53297 0.421098,0.17158 0.845639,0.33694 1.273018,0.49616 0.42738,0.15922 0.857735,0.31202 1.291315,0.45862 0.433578,0.1466 0.870284,0.28674 1.309976,0.42046 0.439692,0.1337 0.882147,0.26085 1.327872,0.38142 0.445724,0.12057 0.894462,0.23458 1.346132,0.34174 0.451672,0.10718 0.906591,0.20758 1.364128,0.3011 0.457532,0.0935 0.917536,0.18009 1.380852,0.25969 0.463313,0.0796 0.929568,0.1526 1.398578,0.21801 0.46901,0.0654 0.941149,0.1234 1.415769,0.17436 0.474627,0.051 0.951814,0.0947 1.431963,0.13098 0.480151,0.0363 0.963291,0.065 1.448887,0.0863 0.485599,0.0214 0.973721,0.0353 1.464676,0.0414 0.361948,0.005 0.72669,3.7e-4 1.091503,-0.004 a 39.510159,39.510159 0.16299651 0 1 -2.402065,-0.8244 39.510159,39.510159 0.16299651 0 1 -3.777942,-1.68246 39.510159,39.510159 0.16299651 0 1 -3.581606,-2.06784 39.510159,39.510159 0.16299651 0 1 -3.345532,-2.4307 39.510159,39.510159 0.16299651 0 1 -3.073541,-2.76732 39.510159,39.510159 0.16299651 0 1 -2.767059,-3.07308 39.510159,39.510159 0.16299651 0 1 -2.430949,-3.3461 39.510159,39.510159 0.16299651 0 1 -1.84177,-3.16585 c -0.261033,-0.25552 -0.522549,-0.51074 -0.775597,-0.77016 -0.342842,-0.35148 -0.678272,-0.70665 -1.006565,-1.06511 -0.32829,-0.35844 -0.649547,-0.72058 -0.963415,-1.08575 -0.313865,-0.36517 -0.620298,-0.73326 -0.919861,-1.1049 -0.299569,-0.37168 -0.59206,-0.74642 -0.877447,-1.12432 -0.285387,-0.37789 -0.563563,-0.75932 -0.834897,-1.14321 -0.271331,-0.38388 -0.53603,-0.77054 -0.793435,-1.16018 -0.257403,-0.38965 -0.507882,-0.78217 -0.75148,-1.17732 -0.243603,-0.39517 -0.479841,-0.79289 -0.70976,-1.19332 -0.229919,-0.40044 -0.453172,-0.80346 -0.669531,-1.20891 -0.216361,-0.40545 -0.42611,-0.81325 -0.629038,-1.2235 -0.202924,-0.41024 -0.399293,-0.82269 -0.588911,-1.23747 -0.189615,-0.41478 -0.372347,-0.83234 -0.548781,-1.25142 -0.176431,-0.4191 -0.346245,-0.83986 -0.509616,-1.263 -0.16338,-0.42314 -0.320286,-0.8486 -0.470717,-1.27555 -0.150436,-0.42696 -0.294665,-0.85532 -0.432285,-1.28586 -0.137627,-0.43053 -0.268552,-0.86293 -0.393479,-1.29678 -0.12495,-0.43387 -0.243534,-0.86937 -0.355928,-1.30632 -0.112321,-0.43695 -0.218779,-0.87542 -0.318708,-1.31522 -0.09993,-0.43979 -0.193754,-0.88121 -0.281367,-1.32361 -0.08765,-0.4424 -0.168834,-0.88613 -0.244217,-1.33089 -0.07538,-0.44477 -0.145155,-0.89039 -0.208522,-1.33724 -0.06335,-0.44689 -0.120241,-0.89465 -0.171648,-1.3434 -0.05141,-0.44876 -0.09718,-0.89861 -0.136763,-1.34899 -0.03959,-0.45038 -0.07314,-0.90145 -0.100986,-1.35323 -0.02789,-0.45177 -0.04988,-0.90426 -0.0662,-1.35719 -0.01632,-0.45293 -0.02728,-0.90608 -0.03215,-1.3599 -0.0049,-0.45383 -0.0041,-0.90825 0.0024,-1.36274 0.0065,-0.45448 0.01856,-0.9094 0.03622,-1.36431 0.01765,-0.45491 0.04107,-0.90967 0.0698,-1.36474 0.02873,-0.45509 0.06307,-0.91054 0.102754,-1.36556 0.03968,-0.45501 0.08461,-0.90988 0.135115,-1.3646 0.05051,-0.45469 0.10639,-0.90897 0.167604,-1.36312 0.06121,-0.45416 0.127802,-0.90817 0.199593,-1.36155 0.07179,-0.45335 0.148609,-0.90634 0.230857,-1.35867 0.08225,-0.45233 0.169804,-0.90378 0.262385,-1.35482 0.09258,-0.45107 0.190624,-0.90132 0.29341,-1.35084 0.102788,-0.44953 0.210705,-0.89832 0.323576,-1.34609 0.22574,-0.89553 0.471124,-1.78732 0.736453,-2.67435 0.26533,-0.88702 0.550333,-1.76942 0.854259,-2.64599 0.303926,-0.87658 0.626746,-1.74764 0.968275,-2.61182 0.34153,-0.86419 0.701632,-1.72122 1.079773,-2.57107 0.378142,-0.84986 0.77445,-1.69219 1.188209,-2.52578 0.413765,-0.83357 0.845112,-1.65888 1.293499,-2.47425 0.448388,-0.81537 0.913738,-1.62084 1.395759,-2.41607 0.482022,-0.79521 0.980936,-1.5798 1.495598,-2.35293 0.514662,-0.77313 1.045336,-1.53489 1.591647,-2.28398 0.546315,-0.74909 1.108077,-1.48584 1.685046,-2.20896 0.57697,-0.72312 1.169151,-1.43268 1.775786,-2.12788 0.303314,-0.34761 0.610353,-0.69134 0.920899,-1.0316 0.310547,-0.34026 0.624679,-0.67685 0.942333,-1.00951 0.317654,-0.33267 0.638897,-0.66146 0.963531,-0.98631 0.324636,-0.32484 0.652242,-0.64604 0.983731,-0.96283 0.496485,-0.47443 0.999484,-0.94052 1.508393,-1.39872 0.508911,-0.45818 1.024033,-0.90825 1.544932,-1.35019 0.520903,-0.44193 1.047514,-0.87562 1.579977,-1.30128 0.532461,-0.42567 1.070803,-0.84333 1.614386,-1.25273 0.543587,-0.40939 1.092528,-0.81049 1.646802,-1.20362 0.554278,-0.39311 1.113917,-0.77857 1.678451,-1.15539 0.564531,-0.37684 1.134011,-0.7451 1.708369,-1.10563 0.574353,-0.36054 1.153642,-0.71299 1.737385,-1.05724 0.583743,-0.34425 1.17171,-0.68036 1.764409,-1.0083 0.592695,-0.32795 1.190211,-0.64774 1.791427,-0.95938 0.601219,-0.31162 1.206517,-0.61495 1.815823,-0.91025 0.609305,-0.29531 1.22262,-0.58255 1.839578,-0.86153 0.616956,-0.27898 1.237536,-0.55023 1.861706,-0.81288 0.624168,-0.2627 1.251518,-0.51703 1.882476,-0.76335 0.630962,-0.24629 1.265293,-0.4842 1.902608,-0.71416 0.637305,-0.22999 1.277737,-0.45197 1.920974,-0.66559 0.643213,-0.21365 1.289253,-0.41886 1.93798,-0.61609 0.648715,-0.19724 1.299942,-0.38651 1.953705,-0.56739 0.653632,-0.18136 1.310248,-0.35315 1.968503,-0.51814 0.658376,-0.16452 1.319004,-0.32132 1.981545,-0.46945 0.662553,-0.14811 1.326997,-0.28791 1.993304,-0.41961 0.666309,-0.13167 1.334169,-0.25515 2.003777,-0.37058 0.66966,-0.115 1.34063,-0.22268 2.01311,-0.32166 0.57735,-0.0849 1.15642,-0.1606 1.73557,-0.23345 a 82.029427,82.029427 0 0 0 -35.545335,1.53207 82.029427,82.029427 0 0 0 -25.825931,12.09289 z" />
        <path
           id="path1544-0-2"
           style="opacity:0.811956;mix-blend-mode:soft-light;fill:#ffdc1a;fill-opacity:1;stroke:none;stroke-width:1.23044;stroke-opacity:1;stop-color:#000000"
           d="m 22.858378,258.05646 c 0.261,0.2021 0.520147,0.40697 0.783481,0.60593 0.505895,0.38223 1.016053,0.75866 1.530358,1.12913 0.514307,0.37045 1.032488,0.73465 1.554952,1.0931 0.522464,0.35844 1.049158,0.7109 1.579531,1.05709 0.530372,0.34618 1.064212,0.68629 1.602227,1.01999 0.538027,0.33369 1.080359,0.66114 1.625788,0.98211 0.545438,0.32091 1.094375,0.63529 1.646945,0.94324 0.552579,0.30795 1.108503,0.60922 1.667972,0.90392 0.559465,0.29472 1.122249,0.583 1.688364,0.86423 0.566107,0.28123 1.135346,0.55565 1.707839,0.82317 0.572507,0.26752 1.14857,0.52805 1.727206,0.78159 0.578634,0.25354 1.160284,0.50011 1.744802,0.73942 0.584513,0.23933 1.171467,0.47154 1.761613,0.6964 0.590146,0.22486 1.183158,0.4421 1.778678,0.65224 0.595532,0.21015 1.194092,0.41316 1.794742,0.60836 0.600655,0.19519 1.203739,0.38272 1.809263,0.56272 0.605529,0.18 1.213014,0.35219 1.823155,0.51674 0.61015,0.16456 1.222904,0.32126 1.837408,0.47012 0.614515,0.14887 1.230784,0.2901 1.849414,0.42304 0.618624,0.13294 1.239645,0.25793 1.862136,0.37469 0.62248,0.11676 1.246497,0.22554 1.872591,0.32587 0.626086,0.10033 1.253831,0.19228 1.88329,0.27594 0.629436,0.0837 1.260786,0.15887 1.893335,0.22561 0.632553,0.0668 1.266741,0.125 1.902138,0.17458 0.635393,0.0496 1.272165,0.0905 1.910169,0.12268 0.637993,0.0322 1.27708,0.0554 1.91742,0.0699 0.458403,0.0105 0.917106,0.0154 1.376363,0.0153 0.459252,-1.3e-4 0.918874,-0.005 1.378736,-0.0158 0.45985,-0.0106 0.920122,-0.0268 1.380311,-0.0478 0.46019,-0.021 0.920403,-0.0471 1.380681,-0.0783 0.920549,-0.0626 1.840891,-0.14569 2.760241,-0.24851 0.919281,-0.10342 1.837401,-0.22681 2.753374,-0.37023 0.916001,-0.14338 1.830133,-0.30656 2.740733,-0.48936 0.910584,-0.18279 1.817938,-0.38514 2.721083,-0.60659 0.903125,-0.2215 1.801963,-0.46223 2.69557,-0.72174 0.893604,-0.25952 1.781723,-0.53778 2.663716,-0.83465 0.881992,-0.2969 1.757684,-0.61191 2.626013,-0.94546 0.868323,-0.33351 1.729592,-0.68557 2.582161,-1.05514 0.852567,-0.36958 1.696367,-0.75692 2.531103,-1.16185 0.834746,-0.40493 1.660214,-0.82759 2.475051,-1.26721 0.814849,-0.43959 1.619439,-0.89605 2.412299,-1.36968 0.39643,-0.2368 0.78999,-0.47826 1.18054,-0.72344 0.39055,-0.24519 0.77794,-0.49399 1.16235,-0.74747 0.3844,-0.25348 0.76574,-0.5113 1.14374,-0.77299 0.378,-0.26169 0.75257,-0.52727 1.12391,-0.79709 0.37134,-0.26981 0.73951,-0.54384 1.10393,-0.8217 0.36442,-0.27785 0.72536,-0.55959 1.08261,-0.8454 0.35724,-0.28581 0.71083,-0.57579 1.06063,-0.86948 0.34981,-0.29368 0.69571,-0.59131 1.03782,-0.89279 0.34211,-0.30148 0.68032,-0.60677 1.01447,-0.91597 0.33416,-0.30917 0.66422,-0.62204 0.99014,-0.93886 0.32593,-0.3168 0.64775,-0.63779 0.96521,-0.96213 0.31746,-0.32436 0.63077,-0.65234 0.93949,-0.98415 0.30874,-0.3318 0.61295,-0.6672 0.91268,-1.00639 0.29974,-0.33917 0.59488,-0.68202 0.88536,-1.02847 0.29045,-0.34648 0.57606,-0.69667 0.85704,-1.05034 0.28097,-0.35365 0.55715,-0.71073 0.82834,-1.07151 0.27122,-0.36077 0.53737,-0.72514 0.79852,-1.09296 0.2612,-0.36781 0.51752,-0.73897 0.76836,-1.11377 0.25089,-0.37476 0.49617,-0.75302 0.73651,-1.13468 0.24032,-0.38164 0.4753,-0.76664 0.70486,-1.15504 0.22991,-0.38822 0.45398,-0.78035 0.6719,-1.17579 0.21878,-0.39493 0.43135,-0.79331 0.63847,-1.19506 0.20713,-0.40175 0.40867,-0.807 0.6042,-1.21529 0.19553,-0.40828 0.38533,-0.82002 0.569,-1.23477 0.18367,-0.41473 0.36138,-0.83234 0.53297,-1.25345 0.17164,-0.42106 0.33694,-0.84563 0.49616,-1.27302 0.15923,-0.42737 0.31202,-0.85772 0.45862,-1.29131 0.14662,-0.43356 0.28674,-0.87028 0.42046,-1.30997 0.1337,-0.4397 0.26085,-0.88215 0.38142,-1.32788 0.12057,-0.44572 0.23458,-0.89447 0.34176,-1.34613 0.10716,-0.45166 0.20756,-0.90659 0.30108,-1.36413 0.0935,-0.45753 0.18009,-0.91753 0.25969,-1.38085 0.0796,-0.46331 0.1526,-0.92957 0.21801,-1.39857 0.0654,-0.46901 0.12341,-0.94115 0.17436,-1.41578 0.051,-0.47463 0.0947,-0.95181 0.13098,-1.43196 0.0363,-0.48015 0.065,-0.96329 0.0863,-1.44888 0.0214,-0.4856 0.0353,-0.97373 0.0414,-1.46468 0.004,-0.36194 3.7e-4,-0.72669 -0.004,-1.0915 a 39.510159,39.510159 0.16299651 0 1 -0.8244,2.40206 39.510159,39.510159 0.16299651 0 1 -1.68246,3.77794 39.510159,39.510159 0.16299651 0 1 -2.06784,3.58162 39.510159,39.510159 0.16299651 0 1 -2.4307,3.34553 39.510159,39.510159 0.16299651 0 1 -2.76732,3.07354 39.510159,39.510159 0.16299651 0 1 -3.07308,2.76706 39.510159,39.510159 0.16299651 0 1 -3.3461,2.43094 39.510159,39.510159 0.16299651 0 1 -3.16585,1.84177 c -0.25554,0.26101 -0.51074,0.52255 -0.77016,0.77559 -0.35147,0.34284 -0.70665,0.67827 -1.0651,1.00657 -0.35844,0.32828 -0.7206,0.64955 -1.08576,0.96341 -0.36516,0.31387 -0.73326,0.62031 -1.10491,0.91987 -0.37166,0.29957 -0.74641,0.59207 -1.12431,0.87744 -0.37789,0.2854 -0.75931,0.56357 -1.1432,0.83491 -0.38389,0.27133 -0.77055,0.53603 -1.16019,0.79343 -0.38965,0.2574 -0.78217,0.50788 -1.177319,0.75147 -0.39517,0.24361 -0.792883,0.47986 -1.193323,0.70976 -0.400425,0.22993 -0.803448,0.45317 -1.208907,0.66953 -0.405452,0.21638 -0.81325,0.42613 -1.2235,0.62904 -0.410259,0.20291 -0.822682,0.39929 -1.237471,0.58892 -0.414781,0.18961 -0.832336,0.37235 -1.251422,0.54877 -0.419108,0.17638 -0.839851,0.34625 -1.262995,0.50963 -0.423149,0.16336 -0.848603,0.32024 -1.275552,0.47071 -0.426966,0.15044 -0.855308,0.29472 -1.285838,0.43234 -0.430538,0.13764 -0.862919,0.26859 -1.296798,0.39344 -0.433964,0.12459 -0.869372,0.24356 -1.306243,0.35621 -0.437067,0.11192 -0.875432,0.21874 -1.31524,0.31863 -0.439794,0.0999 -0.881205,0.19376 -1.323613,0.28131 -0.442489,0.0872 -0.886127,0.16888 -1.330972,0.24383 -0.444753,0.0753 -0.890356,0.14526 -1.337254,0.20845 -0.446876,0.0634 -0.894632,0.12023 -1.343389,0.17163 -0.448757,0.0514 -0.898604,0.0972 -1.348993,0.1367 -0.450376,0.0396 -0.901471,0.0728 -1.353232,0.10092 -0.451776,0.0279 -0.904271,0.0499 -1.357201,0.0662 -0.452917,0.0163 -0.906071,0.0273 -1.359897,0.0322 -0.453815,0.005 -0.90824,0.004 -1.362733,-0.002 -0.454491,-0.007 -0.909392,-0.0185 -1.364307,-0.0362 -0.454918,-0.0177 -0.909666,-0.0411 -1.364749,-0.0698 -0.455086,-0.0288 -0.910531,-0.0631 -1.365556,-0.10277 -0.455018,-0.0397 -0.909877,-0.0846 -1.364588,-0.1351 -0.454701,-0.0505 -0.908976,-0.10638 -1.363136,-0.1676 -0.454159,-0.0612 -0.908172,-0.12781 -1.361546,-0.1996 -0.453353,-0.0718 -0.906342,-0.14861 -1.358668,-0.23085 -0.452336,-0.0822 -0.90378,-0.16981 -1.35483,-0.26239 -0.451053,-0.0926 -0.901301,-0.19062 -1.350834,-0.29341 -0.449533,-0.10279 -0.898319,-0.21071 -1.34608,-0.32358 -0.895541,-0.22574 -1.787324,-0.47112 -2.674351,-0.73645 -0.887025,-0.26533 -1.76943,-0.55033 -2.645996,-0.85426 -0.876585,-0.30391 -1.747636,-0.62674 -2.611831,-0.96827 -0.864175,-0.34154 -1.721214,-0.70164 -2.57107,-1.07977 -0.849847,-0.37815 -1.692177,-0.77445 -2.525764,-1.18822 -0.833577,-0.41375 -1.658886,-0.8451 -2.47426,-1.29349 -0.815367,-0.4484 -1.620843,-0.91374 -2.416062,-1.39576 -0.795215,-0.48203 -1.579805,-0.98092 -2.352934,-1.4956 -0.773126,-0.51467 -1.534898,-1.04533 -2.283983,-1.59164 -0.749089,-0.54632 -1.485847,-1.10809 -2.208959,-1.68504 -0.723116,-0.57699 -1.43268,-1.16917 -2.12788,-1.7758 -0.347605,-0.30331 -0.691334,-0.61034 -1.031598,-0.92091 -0.340253,-0.31052 -0.676841,-0.62467 -1.009504,-0.94232 -0.332672,-0.31765 -0.661458,-0.6389 -0.986312,-0.96353 -0.324843,-0.32464 -0.646044,-0.65225 -0.962831,-0.98374 -0.474429,-0.49647 -0.940525,-0.99947 -1.398714,-1.50838 -0.458189,-0.50891 -0.90827,-1.02404 -1.350208,-1.54494 -0.441928,-0.52091 -0.87561,-1.04751 -1.30127,-1.57996 -0.425667,-0.53246 -0.843323,-1.07082 -1.25273,-1.61441 -0.409384,-0.54357 -0.810503,-1.09252 -1.203623,-1.64679 -0.393112,-0.55429 -0.778559,-1.11391 -1.155392,-1.67846 -0.376826,-0.56451 -0.745095,-1.13401 -1.105629,-1.70836 -0.360548,-0.57437 -0.712992,-1.15364 -1.057241,-1.73739 -0.344239,-0.58374 -0.680359,-1.17171 -1.008294,-1.76441 -0.327949,-0.5927 -0.64774,-1.1902 -0.959377,-1.79142 -0.311629,-0.60123 -0.614948,-1.20651 -0.910257,-1.81583 -0.295314,-0.60931 -0.582548,-1.22263 -0.861526,-1.83958 -0.278978,-0.61695 -0.550227,-1.23752 -0.812883,-1.86171 -0.262694,-0.62416 -0.517029,-1.25151 -0.763351,-1.88247 -0.246296,-0.63096 -0.484193,-1.26528 -0.714164,-1.90261 -0.229982,-0.6373 -0.451976,-1.27775 -0.665589,-1.92096 -0.21366,-0.64322 -0.418859,-1.28927 -0.61608,-1.93798 -0.197225,-0.64872 -0.386519,-1.29994 -0.567389,-1.95371 -0.181348,-0.65364 -0.353154,-1.31025 -0.518141,-1.9685 -0.164506,-0.65839 -0.321332,-1.31899 -0.46946,-1.98155 -0.148129,-0.66256 -0.287864,-1.327 -0.419618,-1.99331 -0.131743,-0.66629 -0.2552026,-1.33416 -0.3705324,-2.00378 -0.1153298,-0.66961 -0.2226904,-1.34062 -0.3216606,-2.01311 -0.084911,-0.57734 -0.1605312,-1.15644 -0.233405,-1.7356 a 82.029427,82.029427 0 0 0 1.532079,35.54536 82.029427,82.029427 0 0 0 12.092898,25.82594 z" />
        <path
           id="path1544-0-6-0"
           style="opacity:0.811956;mix-blend-mode:soft-light;fill:#ffdc1a;fill-opacity:1;stroke:none;stroke-width:1.23044;stroke-opacity:1;stop-color:#000000"
           d="m 137.05647,278.14153 c 0.20208,-0.26103 0.40699,-0.52015 0.60593,-0.78348 0.38225,-0.50589 0.75866,-1.01605 1.12912,-1.53037 0.37049,-0.51428 0.73466,-1.03249 1.09312,-1.55495 0.35845,-0.52245 0.71091,-1.04915 1.05709,-1.57954 0.34616,-0.53037 0.68625,-1.06422 1.01996,-1.60222 0.33372,-0.53801 0.66116,-1.08035 0.98207,-1.62581 0.32075,-0.54554 0.6353,-1.09438 0.9429,-1.64715 0.30761,-0.55278 0.60927,-1.10848 0.9039,-1.66798 0.29472,-0.55947 0.58303,-1.12224 0.86425,-1.68835 0.28124,-0.56611 0.55563,-1.13536 0.82317,-1.70784 0.2675,-0.57252 0.52806,-1.14856 0.7816,-1.7272 0.25358,-0.57861 0.5001,-1.16028 0.73943,-1.7448 0.23931,-0.58452 0.47153,-1.17147 0.69639,-1.76162 0.22487,-0.59015 0.44209,-1.18316 0.65224,-1.77869 0.21016,-0.59552 0.41316,-1.19408 0.60836,-1.79473 0.19518,-0.60064 0.38273,-1.20374 0.56272,-1.80927 0.18,-0.60552 0.35219,-1.21301 0.51674,-1.82315 0.16455,-0.61015 0.32126,-1.2229 0.47013,-1.83741 0.14885,-0.61451 0.2901,-1.23079 0.42304,-1.84942 0.13292,-0.61861 0.25792,-1.23963 0.37467,-1.86212 0.11677,-0.62248 0.22556,-1.2465 0.3259,-1.8726 0.10032,-0.62608 0.19226,-1.25383 0.27593,-1.88328 0.0836,-0.62945 0.15886,-1.2608 0.22561,-1.89334 0.0667,-0.63255 0.12499,-1.26674 0.17459,-1.90214 0.0496,-0.63539 0.0905,-1.27217 0.12266,-1.91016 0.0322,-0.638 0.0554,-1.27709 0.0699,-1.91743 0.0105,-0.4584 0.0154,-0.91712 0.0153,-1.37638 -1.2e-4,-0.45923 -0.005,-0.91886 -0.0158,-1.37872 -0.0106,-0.45984 -0.0268,-0.92012 -0.0478,-1.38031 -0.021,-0.46019 -0.0471,-0.9204 -0.0784,-1.38067 -0.0626,-0.92055 -0.1457,-1.8409 -0.24851,-2.76024 -0.10342,-0.91929 -0.22681,-1.8374 -0.37023,-2.75338 -0.14338,-0.916 -0.30656,-1.83013 -0.48936,-2.74073 -0.1828,-0.91058 -0.38513,-1.81794 -0.60661,-2.72109 -0.22148,-0.90311 -0.46222,-1.80195 -0.72171,-2.69556 -0.25954,-0.89361 -0.53777,-1.78173 -0.83467,-2.66372 -0.29689,-0.882 -0.6119,-1.75768 -0.94545,-2.62602 -0.3335,-0.86832 -0.68558,-1.72959 -1.05514,-2.58215 -0.36958,-0.85257 -0.75693,-1.69637 -1.16185,-2.5311 -0.40492,-0.83476 -0.8276,-1.66021 -1.26719,-2.47506 -0.43959,-0.81485 -0.89607,-1.61944 -1.36968,-2.41229 -0.23682,-0.39643 -0.47828,-0.78999 -0.72347,-1.18055 -0.24518,-0.39055 -0.49399,-0.77794 -0.74745,-1.16235 -0.25349,-0.3844 -0.5113,-0.76573 -0.77299,-1.14374 -0.2617,-0.37799 -0.52728,-0.75256 -0.79709,-1.1239 -0.26982,-0.37135 -0.54384,-0.73951 -0.8217,-1.10393 -0.27786,-0.36444 -0.55961,-0.72537 -0.8454,-1.08262 -0.28581,-0.35723 -0.57581,-0.71083 -0.86948,-1.06062 -0.29369,-0.34982 -0.59131,-0.69572 -0.89279,-1.03782 -0.30149,-0.34211 -0.60677,-0.68033 -0.91596,-1.01448 -0.30919,-0.33416 -0.62206,-0.66421 -0.93886,-0.99015 -0.31682,-0.32594 -0.63781,-0.64773 -0.96215,-0.96519 -0.32435,-0.31747 -0.65235,-0.63077 -0.98415,-0.9395 -0.3318,-0.30874 -0.6672,-0.61295 -1.00638,-0.91267 -0.33917,-0.29975 -0.68203,-0.59489 -1.02847,-0.88536 -0.34649,-0.29046 -0.69667,-0.57608 -1.05034,-0.85704 -0.35366,-0.28098 -0.71074,-0.55716 -1.07152,-0.82834 -0.36077,-0.27123 -0.72513,-0.53738 -1.09297,-0.79853 -0.3678,-0.2612 -0.73895,-0.51751 -1.11376,-0.76835 -0.37475,-0.2509 -0.75302,-0.49618 -1.13466,-0.73651 -0.38166,-0.24033 -0.76666,-0.4753 -1.15508,-0.70487 -0.38819,-0.2299 -0.78032,-0.45399 -1.17575,-0.6719 -0.39493,-0.21878 -0.79332,-0.43135 -1.19507,-0.63846 -0.40175,-0.20714 -0.80702,-0.40868 -1.21529,-0.6042 -0.40829,-0.19554 -0.82003,-0.38534 -1.23476,-0.569 -0.41475,-0.18368 -0.83237,-0.36138 -1.25347,-0.53298 -0.42106,-0.17163 -0.84563,-0.33693 -1.27302,-0.49616 -0.42737,-0.15923 -0.85773,-0.31203 -1.29131,-0.45862 -0.43356,-0.14662 -0.87029,-0.28673 -1.30998,-0.42046 -0.43968,-0.13371 -0.88215,-0.26085 -1.32787,-0.38142 -0.44571,-0.12056 -0.89445,-0.23458 -1.34613,-0.34176 -0.45167,-0.10717 -0.90658,-0.20756 -1.36411,-0.30108 -0.45755,-0.0935 -0.91756,-0.18009 -1.38087,-0.25969 -0.46332,-0.0796 -0.92955,-0.15259 -1.39857,-0.21801 -0.46902,-0.0654 -0.94115,-0.12341 -1.41577,-0.17435 -0.47464,-0.051 -0.95181,-0.0947 -1.43197,-0.13099 -0.48015,-0.0363 -0.9633,-0.065 -1.44889,-0.0863 -0.48559,-0.0214 -0.97371,-0.0353 -1.46467,-0.0414 -0.36194,-0.004 -0.72669,-2.7e-4 -1.0915,0.004 a 39.510159,39.510159 0.16299651 0 1 2.40208,0.8244 39.510159,39.510159 0.16299651 0 1 3.77792,1.68246 39.510159,39.510159 0.16299651 0 1 3.58161,2.06785 39.510159,39.510159 0.16299651 0 1 3.34553,2.4307 39.510159,39.510159 0.16299651 0 1 3.07355,2.76731 39.510159,39.510159 0.16299651 0 1 2.76705,3.07308 39.510159,39.510159 0.16299651 0 1 2.43095,3.34611 39.510159,39.510159 0.16299651 0 1 1.84178,3.16585 c 0.26099,0.25555 0.52255,0.51073 0.77558,0.77015 0.34285,0.35147 0.67828,0.70666 1.00657,1.06511 0.3283,0.35843 0.64955,0.72058 0.96342,1.08574 0.31386,0.36518 0.62029,0.73327 0.91987,1.10492 0.29956,0.37166 0.59205,0.74641 0.87745,1.12432 0.28538,0.37789 0.56356,0.75931 0.83488,1.1432 0.27134,0.38388 0.53604,0.77055 0.79342,1.16018 0.25742,0.38965 0.50791,0.78217 0.7515,1.17732 0.24359,0.39516 0.47985,0.79288 0.70976,1.19332 0.22991,0.40042 0.45316,0.80346 0.66953,1.20892 0.21636,0.40544 0.42611,0.81324 0.62905,1.22349 0.20289,0.41024 0.39928,0.82268 0.5889,1.23748 0.18962,0.41478 0.37234,0.83233 0.54878,1.25141 0.17638,0.41911 0.34625,0.83985 0.50962,1.263 0.16336,0.42314 0.32025,0.84861 0.47072,1.27555 0.15043,0.42697 0.29471,0.8553 0.43233,1.28584 0.13765,0.43053 0.2686,0.86293 0.39344,1.2968 0.1245,0.43397 0.24347,0.86938 0.35623,1.30623 0.11191,0.43707 0.21873,0.87543 0.31862,1.31525 0.10001,0.43978 0.19377,0.88121 0.28142,1.32358 0.0872,0.4425 0.16887,0.88615 0.24382,1.33099 0.0754,0.44476 0.14525,0.89036 0.20854,1.33723 0.0634,0.44689 0.12033,0.89463 0.17174,1.34339 0.0514,0.44875 0.0972,0.89861 0.13669,1.34899 0.0396,0.45037 0.0728,0.90148 0.10093,1.35323 0.0279,0.45178 0.0499,0.90427 0.0662,1.3572 0.0163,0.45292 0.0273,0.90606 0.0321,1.3599 0.005,0.45381 0.004,0.90824 -0.002,1.36272 -0.007,0.4545 -0.0185,0.90939 -0.0362,1.36432 -0.0176,0.4549 -0.041,0.90967 -0.0698,1.36474 -0.0287,0.45509 -0.0631,0.91054 -0.10274,1.36556 -0.0397,0.45503 -0.0846,0.90987 -0.13513,1.36459 -0.0505,0.4547 -0.10637,0.90898 -0.1676,1.36314 -0.0612,0.45415 -0.12781,0.90816 -0.19959,1.36154 -0.0718,0.45336 -0.14861,0.90634 -0.23085,1.35867 -0.0822,0.45235 -0.16982,0.90378 -0.26239,1.35483 -0.0926,0.45105 -0.19063,0.9013 -0.2934,1.35084 -0.10279,0.44953 -0.21072,0.89832 -0.32358,1.34607 -0.22574,0.89555 -0.47113,1.78733 -0.73647,2.67435 -0.26532,0.88703 -0.55031,1.76944 -0.85425,2.64601 -0.30392,0.87658 -0.62675,1.74763 -0.96828,2.61183 -0.34153,0.86417 -0.70163,1.72121 -1.07977,2.57106 -0.37818,0.84984 -0.77445,1.69218 -1.1882,2.52576 -0.41374,0.8336 -0.84508,1.65892 -1.2935,2.47427 -0.44836,0.81537 -0.91374,1.62085 -1.39576,2.41607 -0.48199,0.79523 -0.98093,1.57979 -1.4956,2.35292 -0.51471,0.7731 -1.04534,1.5349 -1.59165,2.28398 -0.54633,0.74908 -1.10808,1.48586 -1.68505,2.20896 -0.57696,0.72312 -1.16915,1.43268 -1.77578,2.12788 -0.30334,0.3476 -0.61036,0.69134 -0.9209,1.0316 -0.31054,0.34026 -0.62468,0.67684 -0.94235,1.00951 -0.31763,0.33267 -0.63887,0.66145 -0.96352,0.9863 -0.32463,0.32486 -0.65225,0.64605 -0.98374,0.96284 -0.49647,0.47442 -0.99948,0.94053 -1.50839,1.39871 -0.50889,0.4582 -1.02403,0.90828 -1.54491,1.35021 -0.52092,0.44193 -1.04753,0.8756 -1.57999,1.30128 -0.53246,0.42567 -1.07081,0.8433 -1.61439,1.25272 -0.54358,0.40938 -1.09252,0.81051 -1.64678,1.20363 -0.55429,0.39311 -1.11394,0.77854 -1.67846,1.15539 -0.56454,0.37682 -1.13402,0.74509 -1.70837,1.10563 -0.57436,0.36054 -1.15364,0.71299 -1.7374,1.05724 -0.58373,0.34423 -1.1717,0.68035 -1.7644,1.00829 -0.5927,0.32795 -1.19021,0.64774 -1.79143,0.95937 -0.60122,0.31163 -1.20651,0.61495 -1.81582,0.91026 -0.60931,0.29532 -1.222629,0.58255 -1.839583,0.86153 -0.616947,0.27897 -1.237522,0.55023 -1.861705,0.81288 -0.624157,0.2627 -1.251515,0.51704 -1.882476,0.76335 -0.630963,0.2463 -1.265284,0.4842 -1.902606,0.71417 -0.637303,0.22998 -1.27774,0.45198 -1.920964,0.66559 -0.643218,0.21363 -1.289259,0.41885 -1.93798,0.61607 -0.648723,0.19725 -1.29995,0.38653 -1.953713,0.56739 -0.653627,0.18135 -1.310259,0.35316 -1.968501,0.51813 -0.658378,0.16453 -1.318997,0.32134 -1.981548,0.46947 -0.662552,0.14811 -1.326997,0.28791 -1.993311,0.41961 -0.666305,0.13167 -1.334153,0.25525 -2.003763,0.37058 -0.669676,0.115 -1.340641,0.22268 -2.013127,0.32167 -0.577326,0.0849 -1.156423,0.1605 -1.73557,0.23345 a 82.029427,82.029427 0 0 0 35.545347,-1.53208 82.029427,82.029427 0 0 0 25.82594,-12.09289 z" />
        <path
           id="path1544-0-6-7-2"
           style="opacity:0.811956;mix-blend-mode:soft-light;fill:#ffdc1a;fill-opacity:1;stroke:none;stroke-width:1.23044;stroke-opacity:1;stop-color:#000000"
           d="m 157.14164,163.94336 c -0.26101,-0.20208 -0.52015,-0.407 -0.78348,-0.60593 -0.50588,-0.38225 -1.01605,-0.75866 -1.53036,-1.12914 -0.51429,-0.37047 -1.03249,-0.73464 -1.55495,-1.0931 -0.52246,-0.35845 -1.04914,-0.71091 -1.57953,-1.05709 -0.53038,-0.34616 -1.06422,-0.68625 -1.60225,-1.01997 -0.538,-0.33371 -1.08035,-0.66115 -1.6258,-0.98207 -0.54554,-0.32075 -1.09437,-0.6353 -1.64714,-0.94291 -0.55277,-0.30759 -1.10848,-0.60925 -1.66799,-0.90388 -0.55947,-0.29472 -1.12222,-0.58303 -1.68835,-0.86426 -0.56611,-0.28124 -1.13537,-0.55562 -1.70782,-0.82318 -0.57254,-0.26749 -1.14858,-0.52805 -1.72722,-0.78159 -0.57861,-0.25358 -1.16028,-0.5001 -1.74478,-0.73944 -0.58452,-0.23932 -1.17149,-0.47152 -1.76163,-0.69638 -0.59015,-0.22487 -1.18315,-0.4421 -1.77867,-0.65224 -0.59553,-0.21016 -1.19411,-0.41316 -1.79475,-0.60836 -0.60064,-0.1952 -1.20373,-0.38273 -1.80927,-0.56272 -0.60552,-0.18 -1.213,-0.35219 -1.82316,-0.51674 -0.61014,-0.16456 -1.22289,-0.32127 -1.8374,-0.47014 -0.6145,-0.14886 -1.23077,-0.29009 -1.8494,-0.42303 -0.61864,-0.13292 -1.23964,-0.25793 -1.86213,-0.37467 -0.6225,-0.11676 -1.24651,-0.22556 -1.8726,-0.32589 -0.6261,-0.10034 -1.25384,-0.19227 -1.88329,-0.27593 -0.62944,-0.0837 -1.26079,-0.15887 -1.89334,-0.22563 -0.63256,-0.0667 -1.26674,-0.12498 -1.90213,-0.17458 -0.63541,-0.0496 -1.27218,-0.0905 -1.91016,-0.12266 -0.63801,-0.0322 -1.2771,-0.0554 -1.91745,-0.0699 -0.45839,-0.0105 -0.91711,-0.0154 -1.37636,-0.0153 -0.45924,1.2e-4 -0.91886,0.005 -1.37872,0.0158 -0.45986,0.0106 -0.92012,0.0268 -1.38032,0.0478 -0.46018,0.021 -0.9204,0.0471 -1.38067,0.0784 -0.92056,0.0626 -1.84091,0.1456 -2.76024,0.24851 -0.91929,0.10342 -1.8374,0.22681 -2.75337,0.37023 -0.91601,0.14338 -1.83013,0.30656 -2.740742,0.48937 -0.910583,0.1828 -1.817942,0.38513 -2.721086,0.6066 -0.903113,0.22149 -1.801959,0.46223 -2.695566,0.72171 -0.893609,0.25953 -1.781717,0.53777 -2.663708,0.83468 -0.881996,0.29688 -1.757693,0.6119 -2.626027,0.94543 -0.868311,0.3335 -1.729582,0.68559 -2.582152,1.05515 -0.852568,0.36957 -1.696357,0.75693 -2.531109,1.16184 -0.834749,0.40493 -1.660207,0.82761 -2.475044,1.2672 -0.814851,0.43959 -1.619448,0.89607 -2.412296,1.36969 -0.396428,0.23682 -0.789996,0.47827 -1.180542,0.72345 -0.390554,0.24518 -0.777947,0.494 -1.162349,0.74746 -0.384408,0.25349 -0.765744,0.5113 -1.143755,0.77299 -0.377984,0.26169 -0.752551,0.52727 -1.123894,0.79709 -0.371346,0.26982 -0.73951,0.54384 -1.103931,0.82169 -0.364433,0.27787 -0.72536,0.55961 -1.082614,0.84541 -0.357237,0.28581 -0.71083,0.5758 -1.060629,0.86949 -0.349807,0.29368 -0.695712,0.59129 -1.037815,0.89277 -0.342107,0.30149 -0.680325,0.60679 -1.014477,0.91597 -0.334151,0.30919 -0.664212,0.62206 -0.990153,0.93886 -0.32593,0.31681 -0.647723,0.63781 -0.965183,0.96216 -0.31748,0.32434 -0.630779,0.65233 -0.939502,0.98413 -0.308742,0.33181 -0.612949,0.66721 -0.912676,1.00638 -0.299747,0.33918 -0.594885,0.68204 -0.885355,1.02849 -0.290454,0.34649 -0.576083,0.69666 -0.857045,1.05033 -0.280982,0.35366 -0.557162,0.71074 -0.82834,1.07153 -0.271224,0.36076 -0.537372,0.72512 -0.798535,1.09295 -0.261193,0.36781 -0.51751,0.73896 -0.76834,1.11378 -0.250892,0.37473 -0.496187,0.75302 -0.736507,1.13465 -0.240325,0.38166 -0.475308,0.76666 -0.70487,1.15508 -0.229899,0.3882 -0.453983,0.78032 -0.671899,1.17576 -0.218777,0.39493 -0.431357,0.79332 -0.638476,1.19507 -0.207123,0.40173 -0.408661,0.80702 -0.604187,1.21529 -0.195548,0.40829 -0.385338,0.82002 -0.569014,1.23475 -0.183675,0.41474 -0.361378,0.83237 -0.532968,1.25346 -0.171627,0.42107 -0.336934,0.84563 -0.496169,1.27302 -0.159222,0.42738 -0.312019,0.85773 -0.458614,1.29132 -0.146618,0.43356 -0.286734,0.87028 -0.420447,1.30998 -0.133725,0.43968 -0.260854,0.88214 -0.381435,1.32787 -0.120553,0.44571 -0.234579,0.89446 -0.341751,1.34613 -0.107171,0.45167 -0.207571,0.90658 -0.301089,1.36411 -0.09351,0.45755 -0.180088,0.91756 -0.259683,1.38087 -0.07959,0.46332 -0.152605,0.92955 -0.218024,1.39857 -0.0654,0.46901 -0.123397,0.94115 -0.174349,1.41577 -0.05099,0.47462 -0.0947,0.95181 -0.130985,1.43196 -0.03627,0.48016 -0.06499,0.9633 -0.0863,1.44889 -0.02133,0.4856 -0.03532,0.97372 -0.04144,1.46468 -0.0045,0.36194 -3.06e-4,0.72669 0.0036,1.0915 a 39.510159,39.510159 0.16299651 0 1 0.824401,-2.40208 39.510159,39.510159 0.16299651 0 1 1.682455,-3.77793 39.510159,39.510159 0.16299651 0 1 2.067851,-3.58161 39.510159,39.510159 0.16299651 0 1 2.430701,-3.34554 39.510159,39.510159 0.16299651 0 1 2.767324,-3.07353 39.510159,39.510159 0.16299651 0 1 3.073059,-2.76706 39.510159,39.510159 0.16299651 0 1 3.346124,-2.43095 39.510159,39.510159 0.16299651 0 1 3.165845,-1.84177 c 0.25554,-0.26101 0.510731,-0.52256 0.770153,-0.77558 0.35147,-0.34285 0.706666,-0.67828 1.065103,-1.00658 0.358429,-0.32829 0.72058,-0.64954 1.085755,-0.9634 0.365168,-0.31386 0.733252,-0.62031 1.104914,-0.91988 0.371664,-0.29956 0.746407,-0.59206 1.124307,-0.87745 0.377894,-0.28538 0.759312,-0.56356 1.143207,-0.83488 0.38389,-0.27135 0.77054,-0.53604 1.16018,-0.79343 0.389648,-0.25742 0.782172,-0.5079 1.177315,-0.7515 0.395175,-0.24359 0.79289,-0.47984 1.193324,-0.70977 0.400437,-0.2299 0.803464,-0.45315 1.208923,-0.66951 0.405441,-0.21637 0.813241,-0.42612 1.223485,-0.62905 0.41026,-0.20289 0.822696,-0.39928 1.237478,-0.5889 0.414784,-0.18962 0.832334,-0.37236 1.251412,-0.54879 0.419114,-0.17637 0.839856,-0.34625 1.263014,-0.50961 0.423142,-0.16335 0.848597,-0.32024 1.275537,-0.47073 0.426975,-0.15042 0.855307,-0.2947 1.285848,-0.43233 0.430527,-0.13765 0.862917,-0.26859 1.296787,-0.39344 0.433971,-0.1246 0.869389,-0.24347 1.306247,-0.35622 0.437057,-0.11192 0.875426,-0.21874 1.315242,-0.31862 0.439777,-0.10001 0.88121,-0.19377 1.323592,-0.28142 0.442488,-0.0872 0.886127,-0.16888 1.330977,-0.24383 0.444756,-0.0754 0.890359,-0.14526 1.337242,-0.20845 0.446896,-0.0634 0.894646,-0.12023 1.343403,-0.17163 0.448757,-0.0514 0.898597,-0.0972 1.348977,-0.1367 0.45037,-0.0396 0.90149,-0.0728 1.35324,-0.10092 0.45177,-0.0279 0.90426,-0.0499 1.35719,-0.0662 0.45293,-0.0163 0.90608,-0.0273 1.35991,-0.0322 0.45381,-0.005 0.90824,-0.004 1.36272,0.002 0.45451,0.007 0.9094,0.0185 1.36431,0.0362 0.45492,0.0176 0.90968,0.041 1.36476,0.0698 0.45509,0.0288 0.91052,0.0631 1.36555,0.10275 0.45502,0.0397 0.90988,0.0846 1.3646,0.13512 0.4547,0.0505 0.90897,0.10637 1.36313,0.16761 0.45416,0.0612 0.90817,0.1278 1.36156,0.19958 0.45333,0.0718 0.90632,0.14862 1.35865,0.23087 0.45234,0.0822 0.90378,0.1698 1.35483,0.26237 0.45105,0.0926 0.90131,0.19064 1.35084,0.29341 0.44952,0.10278 0.89832,0.21071 1.34608,0.32357 0.89553,0.22574 1.78731,0.47114 2.67434,0.73648 0.88702,0.26531 1.76944,0.55031 2.64601,0.85423 0.87657,0.30393 1.74764,0.62675 2.61183,0.96829 0.86417,0.34154 1.72121,0.70162 2.57106,1.07976 0.84983,0.37819 1.69219,0.77446 2.52578,1.18821 0.83359,0.41374 1.6589,0.84508 2.47425,1.29351 0.81539,0.44835 1.62084,0.91373 2.41606,1.39576 0.79525,0.48199 1.57981,0.98092 2.35293,1.4956 0.77311,0.5147 1.53489,1.04533 2.284,1.59164 0.74906,0.54634 1.48584,1.10808 2.20893,1.68505 0.72313,0.57696 1.43269,1.16915 2.1279,1.77578 0.34759,0.30334 0.69134,0.61036 1.03159,0.92091 0.34026,0.31053 0.67684,0.62466 1.0095,0.94234 0.33269,0.31763 0.66147,0.63888 0.98631,0.96352 0.32486,0.32464 0.64606,0.65225 0.96284,0.98373 0.47443,0.49647 0.94052,0.99949 1.39871,1.50839 0.4582,0.50891 0.90829,1.02403 1.35021,1.54493 0.44193,0.52091 0.8756,1.04752 1.30127,1.57997 0.42567,0.53246 0.84332,1.07081 1.25273,1.6144 0.40939,0.54357 0.81052,1.09253 1.20362,1.64679 0.39312,0.55429 0.77856,1.11392 1.15539,1.67846 0.37683,0.56452 0.74511,1.13402 1.10565,1.70837 0.36055,0.57435 0.71297,1.15363 1.05722,1.73739 0.34425,0.58374 0.68037,1.1717 1.0083,1.7644 0.32795,0.5927 0.64775,1.19021 0.95938,1.79144 0.31163,0.60121 0.61495,1.20649 0.91025,1.8158 0.29531,0.60932 0.58255,1.22265 0.86153,1.8396 0.27897,0.61693 0.55025,1.23753 0.81288,1.8617 0.2627,0.62415 0.51704,1.25151 0.76336,1.88248 0.24629,0.63096 0.48419,1.26527 0.71416,1.90259 0.22999,0.63731 0.45198,1.27775 0.66557,1.92097 0.21365,0.64323 0.41887,1.28926 0.61608,1.93799 0.19726,0.64872 0.38653,1.29994 0.5674,1.95371 0.18136,0.65363 0.35315,1.31025 0.51814,1.96849 0.16453,0.65839 0.32133,1.319 0.46946,1.98155 0.14811,0.66257 0.2879,1.327 0.4196,1.99333 0.13168,0.6663 0.25525,1.33414 0.37058,2.00376 0.11501,0.66968 0.22269,1.34063 0.32167,2.01312 0.0849,0.57732 0.1606,1.15641 0.23346,1.73557 a 82.029427,82.029427 0 0 0 -1.53209,-35.54533 82.029427,82.029427 0 0 0 -12.09288,-25.82596 z" />
        <rect
           style="opacity:1;fill:none;stroke:none;stroke-width:0.015;stroke-opacity:1;stop-color:#000000"
           id="rect1405"
           width="140"
           height="109.99999"
           x="30.000002"
           y="160"
           rx="1.2660351e-13" />
        <rect
           style="opacity:1;fill:none;stroke:none;stroke-width:0.015;stroke-opacity:1;stop-color:#000000"
           id="rect1407"
           width="130"
           height="130"
           x="10"
           y="150"
           rx="1.2660351e-13" />
        <path
           id="path1131-9-5-9"
           style="opacity:0.498251;fill:#000222;fill-opacity:1;stroke:none;stroke-width:0.702856;stroke-opacity:1;stop-color:#000000"
           d="m 135.28013,198.94588 c -6.69779,-24.99674 -32.39133,-39.83091 -57.388029,-33.133 -24.996746,6.69778 -39.830917,32.39134 -33.133012,57.38804 6.697922,24.99657 32.391388,39.83056 57.387981,33.1327 24.99661,-6.69774 39.83078,-32.39111 33.13306,-57.38774 z"
           sodipodi:nodetypes="ccccc" />
      </g>
    </g>
  </g>
</svg>
