<?xml version="1.0" encoding="UTF-8" standalone="no"?>
<!-- Created with Inkscape (http://www.inkscape.org/) -->

<svg
   width="120mm"
   height="120mm"
   viewBox="0 0 120 120"
   version="1.1"
   id="svg5"
   inkscape:version="1.2.2 (b0a8486541, 2022-12-01)"
   sodipodi:docname="logo.svg"
   xmlns:inkscape="http://www.inkscape.org/namespaces/inkscape"
   xmlns:sodipodi="http://sodipodi.sourceforge.net/DTD/sodipodi-0.dtd"
   xmlns:xlink="http://www.w3.org/1999/xlink"
   xmlns="http://www.w3.org/2000/svg"
   xmlns:svg="http://www.w3.org/2000/svg">
  <sodipodi:namedview
     id="namedview7"
     pagecolor="#ffffff"
     bordercolor="#111111"
     borderopacity="1"
     inkscape:showpageshadow="0"
     inkscape:pageopacity="0"
     inkscape:pagecheckerboard="1"
     inkscape:deskcolor="#d1d1d1"
     inkscape:document-units="mm"
     showgrid="false"
     inkscape:zoom="0.84096521"
     inkscape:cx="246.14574"
     inkscape:cy="-200.95956"
     inkscape:window-width="2248"
     inkscape:window-height="1488"
     inkscape:window-x="0"
     inkscape:window-y="20"
     inkscape:window-maximized="1"
     inkscape:current-layer="layer1">
    <inkscape:grid
       type="xygrid"
       id="grid686"
       dotted="true"
       originx="-40"
       originy="-160" />
  </sodipodi:namedview>
  <defs
     id="defs2">
    <linearGradient
       inkscape:collect="always"
       id="linearGradient1538">
      <stop
         style="stop-color:#d20056;stop-opacity:1;"
         offset="0"
         id="stop1534" />
      <stop
         style="stop-color:#be2b00;stop-opacity:1;"
         offset="1"
         id="stop1536" />
    </linearGradient>
    <linearGradient
       inkscape:collect="always"
       xlink:href="#linearGradient1538"
       id="linearGradient1540"
       x1="50"
       y1="270"
       x2="150"
       y2="170"
       gradientUnits="userSpaceOnUse" />
  </defs>
  <g
     inkscape:label="Layer 1"
     inkscape:groupmode="layer"
     id="layer1"
     transform="translate(-40,-160)">
    <g
       id="g1748">
      <g
         id="g1736">
        <circle
           style="opacity:1;fill:url(#linearGradient1540);fill-opacity:1;stroke:none;stroke-width:0.1;stop-color:#000000"
           id="path1465"
           cx="100"
           cy="220"
           r="60" />
        <path
           style="fill:#ffaa09;fill-opacity:0.505026;stroke:none;stroke-width:0.305514px;stroke-linecap:butt;stroke-linejoin:miter;stroke-opacity:1"
           d="M 69.999999,170 C 70,180 110,200 110,220 c 0,20 -39.999998,40.00001 -40,50 2e-6,-19.99999 22.105658,-30 22.105658,-50 0,-20 -22.105658,-30 -22.105659,-50 z"
           id="path1469"
           sodipodi:nodetypes="ccccc" />
        <path
           style="fill:#ffaa09;fill-opacity:0.505026;stroke:none;stroke-width:0.305513px;stroke-linecap:butt;stroke-linejoin:miter;stroke-opacity:1"
           d="m 130,170 c 0,10 -40,30 -40,50 0,20 40,40.00001 40,50 0,-19.99999 -22.3994,-30 -22.3994,-50 0,-20 22.3994,-30 22.3994,-50 z"
           id="path1469-6"
           sodipodi:nodetypes="ccccc" />
        <path
           style="fill:#ffea54;fill-opacity:0.505026;stroke:none;stroke-width:0.305514px;stroke-linecap:butt;stroke-linejoin:miter;stroke-opacity:1"
           d="m 50.000005,250 c 10.000003,0 30,-40 49.999993,-40.00001 20.000012,1e-5 40.000022,40 50.000002,40 -20,-1e-5 -30.00001,-22.10565 -50,-22.10566 -20,1e-5 -29.999999,22.10566 -49.999995,22.10567 z"
           id="path1469-2"
           sodipodi:nodetypes="ccccc" />
        <path
           style="fill:#ffea54;fill-opacity:0.505026;stroke:none;stroke-width:0.305513px;stroke-linecap:butt;stroke-linejoin:miter;stroke-opacity:1"
           d="m 50.000001,190 c 10.000001,0 29.999997,39.99999 49.999999,40 20.00001,0 40.00001,-40.00001 50,-40.00002 C 130.00003,190 120.00001,212.39939 99.999998,212.39939 79.999996,212.3994 70.000007,190.00001 50.000001,190 Z"
           id="path1469-6-3"
           sodipodi:nodetypes="ccccc" />
        <path
           style="opacity:0.450936;fill:#ffaa09;fill-opacity:0.505026;stroke:none;stroke-width:0.257532px;stroke-linecap:butt;stroke-linejoin:miter;stroke-opacity:1"
           d="m 52.315931,208.07897 c 5.960511,5.96053 41.72356,-5.96051 53.644569,5.96052 11.92103,11.921 0,47.68405 5.96051,53.64455 -11.921,-11.92099 -4.70542,-31.05758 -16.626438,-42.9786 C 83.373553,212.78438 64.23695,219.99999 52.315931,208.07897 Z"
           id="path1469-7"
           sodipodi:nodetypes="ccccc" />
        <path
           style="opacity:0.450936;fill:#ffaa09;fill-opacity:0.505026;stroke:none;stroke-width:0.257531px;stroke-linecap:butt;stroke-linejoin:miter;stroke-opacity:1"
           d="m 88.07898,172.31593 c 5.96051,5.96051 -5.960508,41.72356 5.96051,53.64456 11.92101,11.92102 47.68406,0 53.64457,5.96051 -11.92099,-11.92101 -31.23269,-4.53033 -43.15371,-16.45136 -11.92103,-11.92101 -4.530354,-31.23272 -16.45137,-43.15371 z"
           id="path1469-6-5"
           sodipodi:nodetypes="ccccc" />
        <path
           style="opacity:0.450936;fill:#ffea54;fill-opacity:0.505026;stroke:none;stroke-width:0.257532px;stroke-linecap:butt;stroke-linejoin:miter;stroke-opacity:1"
           d="m 88.078987,267.68404 c 5.960506,-5.96052 -5.960511,-41.72356 5.960498,-53.64455 11.921025,-11.92103 47.684065,-1e-5 53.644565,-5.96053 -11.92101,11.92101 -31.05758,4.70544 -42.97861,16.62647 -11.921028,11.92103 -4.705443,31.05761 -16.626453,42.97861 z"
           id="path1469-2-9"
           sodipodi:nodetypes="ccccc" />
        <path
           style="opacity:0.450936;fill:#ffea54;fill-opacity:0.505026;stroke:none;stroke-width:0.257531px;stroke-linecap:butt;stroke-linejoin:miter;stroke-opacity:1"
           d="m 52.315933,231.92101 c 5.960511,-5.96052 41.723552,5.9605 53.644567,-5.96052 11.92103,-11.92102 0,-47.68406 5.96049,-53.64458 -11.92097,11.92101 -4.53031,31.2327 -16.451345,43.15373 -11.921009,11.92103 -31.232687,4.53035 -43.153712,16.45137 z"
           id="path1469-6-3-2"
           sodipodi:nodetypes="ccccc" />
      </g>
    </g>
  </g>
</svg>
