<?xml version="1.0" encoding="UTF-8" standalone="no"?>
<!-- Created with Inkscape (http://www.inkscape.org/) -->

<svg
   width="120mm"
   height="120mm"
   viewBox="0 0 120 120"
   version="1.1"
   id="svg5"
   inkscape:version="1.2.2 (b0a8486541, 2022-12-01)"
   sodipodi:docname="logo.svg"
   xmlns:inkscape="http://www.inkscape.org/namespaces/inkscape"
   xmlns:sodipodi="http://sodipodi.sourceforge.net/DTD/sodipodi-0.dtd"
   xmlns:xlink="http://www.w3.org/1999/xlink"
   xmlns="http://www.w3.org/2000/svg"
   xmlns:svg="http://www.w3.org/2000/svg">
  <sodipodi:namedview
     id="namedview7"
     pagecolor="#ffffff"
     bordercolor="#111111"
     borderopacity="1"
     inkscape:showpageshadow="0"
     inkscape:pageopacity="0"
     inkscape:pagecheckerboard="1"
     inkscape:deskcolor="#d1d1d1"
     inkscape:document-units="mm"
     showgrid="true"
     inkscape:zoom="0.84096521"
     inkscape:cx="92.750567"
     inkscape:cy="397.75724"
     inkscape:window-width="1768"
     inkscape:window-height="1489"
     inkscape:window-x="0"
     inkscape:window-y="17"
     inkscape:window-maximized="1"
     inkscape:current-layer="layer1">
    <inkscape:grid
       type="xygrid"
       id="grid132"
       dotted="true"
       originx="-80"
       originy="-45" />
  </sodipodi:namedview>
  <defs
     id="defs2">
    <linearGradient
       inkscape:collect="always"
       id="linearGradient1335">
      <stop
         style="stop-color:#7ddbc9;stop-opacity:1;"
         offset="0"
         id="stop1331" />
      <stop
         style="stop-color:#b5eec4;stop-opacity:1;"
         offset="1"
         id="stop1333" />
    </linearGradient>
    <linearGradient
       inkscape:collect="always"
       xlink:href="#linearGradient1335"
       id="linearGradient1337"
       x1="200"
       y1="60"
       x2="75"
       y2="163.18323"
       gradientUnits="userSpaceOnUse" />
    <clipPath
       clipPathUnits="userSpaceOnUse"
       id="clipPath1702">
      <g
         id="g1706">
        <circle
           style="fill:none;fill-opacity:1;stroke:#000000;stroke-width:0.01625;stroke-opacity:1;stop-color:#000000"
           id="circle1704"
           cx="140"
           cy="105"
           r="65" />
      </g>
    </clipPath>
    <clipPath
       clipPathUnits="userSpaceOnUse"
       id="clipPath1708">
      <g
         id="g1712">
        <circle
           style="fill:none;fill-opacity:1;stroke:#000000;stroke-width:0.01625;stroke-opacity:1;stop-color:#000000"
           id="circle1710"
           cx="140"
           cy="105"
           r="65" />
      </g>
    </clipPath>
    <clipPath
       clipPathUnits="userSpaceOnUse"
       id="clipPath1714">
      <g
         id="g1718">
        <circle
           style="fill:none;fill-opacity:1;stroke:#000000;stroke-width:0.01625;stroke-opacity:1;stop-color:#000000"
           id="circle1716"
           cx="140"
           cy="105"
           r="65" />
      </g>
    </clipPath>
    <clipPath
       clipPathUnits="userSpaceOnUse"
       id="clipPath1720">
      <g
         id="g1724">
        <circle
           style="fill:none;fill-opacity:1;stroke:#000000;stroke-width:0.01625;stroke-opacity:1;stop-color:#000000"
           id="circle1722"
           cx="140"
           cy="105"
           r="65" />
      </g>
    </clipPath>
    <clipPath
       clipPathUnits="userSpaceOnUse"
       id="clipPath1726">
      <g
         id="g1730">
        <circle
           style="fill:none;fill-opacity:1;stroke:#000000;stroke-width:0.01625;stroke-opacity:1;stop-color:#000000"
           id="circle1728"
           cx="140"
           cy="105"
           r="65" />
      </g>
    </clipPath>
    <clipPath
       clipPathUnits="userSpaceOnUse"
       id="clipPath1732">
      <g
         id="g1736">
        <circle
           style="fill:none;fill-opacity:1;stroke:#000000;stroke-width:0.01625;stroke-opacity:1;stop-color:#000000"
           id="circle1734"
           cx="140"
           cy="105"
           r="65" />
      </g>
    </clipPath>
    <clipPath
       clipPathUnits="userSpaceOnUse"
       id="clipPath1738">
      <g
         id="g1742">
        <circle
           style="fill:none;fill-opacity:1;stroke:#000000;stroke-width:0.01625;stroke-opacity:1;stop-color:#000000"
           id="circle1740"
           cx="140"
           cy="105"
           r="65" />
      </g>
    </clipPath>
    <clipPath
       clipPathUnits="userSpaceOnUse"
       id="clipPath1744">
      <g
         id="g1748">
        <circle
           style="fill:none;fill-opacity:1;stroke:#000000;stroke-width:0.01625;stroke-opacity:1;stop-color:#000000"
           id="circle1746"
           cx="140"
           cy="105"
           r="65" />
      </g>
    </clipPath>
    <clipPath
       clipPathUnits="userSpaceOnUse"
       id="clipPath1750">
      <g
         id="g1754">
        <circle
           style="fill:none;fill-opacity:1;stroke:#000000;stroke-width:0.01625;stroke-opacity:1;stop-color:#000000"
           id="circle1752"
           cx="140"
           cy="105"
           r="65" />
      </g>
    </clipPath>
    <clipPath
       clipPathUnits="userSpaceOnUse"
       id="clipPath1756">
      <g
         id="g1760">
        <circle
           style="fill:none;fill-opacity:1;stroke:#000000;stroke-width:0.01625;stroke-opacity:1;stop-color:#000000"
           id="circle1758"
           cx="140"
           cy="105"
           r="65" />
      </g>
    </clipPath>
    <clipPath
       clipPathUnits="userSpaceOnUse"
       id="clipPath1762">
      <g
         id="g1766">
        <circle
           style="fill:none;fill-opacity:1;stroke:#000000;stroke-width:0.01625;stroke-opacity:1;stop-color:#000000"
           id="circle1764"
           cx="140"
           cy="105"
           r="65" />
      </g>
    </clipPath>
  </defs>
  <g
     inkscape:label="Layer 1"
     inkscape:groupmode="layer"
     id="layer1"
     transform="translate(-80,-45)">
    <g
       id="g1779"
       transform="matrix(0.92307692,0,0,0.92307692,10.769231,8.0769231)">
      <circle
         style="fill:url(#linearGradient1337);fill-opacity:1;stroke-width:0.01625;stop-color:#000000"
         id="path236"
         cx="140"
         cy="105"
         r="65"
         clip-path="url(#clipPath1762)" />
      <path
         id="path1572-6"
         style="opacity:0.802972;fill:#003949;fill-opacity:0.627334;stroke:none;stroke-width:0.264583px;stroke-linecap:butt;stroke-linejoin:miter;stroke-opacity:1"
         d="m 135.29149,32.062642 -29.99972,2.645833 v 89.999675 a 20,20 0 0 1 -0.14573,2.4107 20,20 0 0 1 -0.43564,2.37557 20,20 0 0 1 -0.7183,2.3058 20,20 0 0 1 -0.99115,2.20245 20,20 0 0 1 -1.24954,2.06706 20,20 0 0 1 -1.48931,1.90117 20,20 0 0 1 -1.707907,1.70739 20,20 0 0 1 -1.90118,1.48983 20,20 0 0 1 -2.067057,1.24954 20,20 0 0 1 -2.20245,0.99115 20,20 0 0 1 -2.30528,0.71831 20,20 0 0 1 -2.375567,0.43563 20,20 0 0 1 -2.41122,0.14573 v 9.9999 h 70.000381 v -9.9999 a 20,20 0 0 1 -2.41071,-0.14573 20,20 0 0 1 -2.37556,-0.43563 20,20 0 0 1 -2.30581,-0.71831 20,20 0 0 1 -2.20245,-0.99115 20,20 0 0 1 -2.06705,-1.24954 20,20 0 0 1 -1.90118,-1.48983 20,20 0 0 1 -1.70739,-1.70739 20,20 0 0 1 -1.48983,-1.90117 20,20 0 0 1 -1.24954,-2.06706 20,20 0 0 1 -0.99115,-2.20245 20,20 0 0 1 -0.7183,-2.3058 20,20 0 0 1 -0.43512,-2.37557 20,20 0 0 1 -0.14624,-2.4107 V 64.708195 h 20.00033 c 0.11371,1.28e-4 0.22742,0.0022 0.34106,0.0062 0.11378,0.0037 0.22749,0.0094 0.34107,0.01705 0.11367,0.0079 0.2272,0.0177 0.34054,0.02946 0.11322,0.01168 0.22624,0.02529 0.339,0.04082 0.11277,0.01548 0.22527,0.03288 0.33745,0.05219 0.11215,0.01928 0.22396,0.04047 0.33538,0.06356 0.11135,0.02308 0.22229,0.04806 0.33279,0.07493 0.11073,0.02705 0.22099,0.05599 0.33073,0.08682 0.10958,0.03069 0.21864,0.06325 0.32711,0.09767 0.10845,0.0345 0.21629,0.07085 0.3235,0.109037 0.1073,0.03797 0.21394,0.07776 0.31988,0.119373 0.10581,0.04178 0.2109,0.08537 0.31522,0.130741 0.1045,0.04542 0.20821,0.09263 0.31109,0.141594 0.10283,0.0489 0.20483,0.09955 0.30593,0.151928 0.101,0.05238 0.20109,0.106472 0.30024,0.162264 0.0992,0.05568 0.19738,0.113051 0.29455,0.172083 0.0973,0.05916 0.19363,0.119971 0.28888,0.182418 0.0951,0.06247 0.1892,0.126556 0.28215,0.192236 0.093,0.06561 0.1848,0.132797 0.27543,0.201538 0.0908,0.06892 0.18036,0.139379 0.26872,0.211357 0.0882,0.07172 0.17523,0.144938 0.26097,0.219624 0.0859,0.07486 0.17046,0.151178 0.25373,0.228927 0.0832,0.07766 0.165,0.156739 0.24546,0.237195 0.0805,0.08047 0.15954,0.162298 0.2372,0.245463 0.0777,0.08327 0.15406,0.167856 0.22892,0.253731 0.0749,0.08573 0.14826,0.172731 0.22015,0.260966 0.0718,0.08837 0.14209,0.177952 0.21084,0.268718 0.0687,0.09066 0.13593,0.182484 0.20153,0.275435 0.0657,0.09295 0.12977,0.187015 0.19224,0.282153 0.0625,0.09524 0.12326,0.19155 0.18242,0.288872 0.059,0.0972 0.1164,0.195399 0.17208,0.294555 0.0558,0.09932 0.10989,0.199588 0.16226,0.300757 0.0524,0.100931 0.10303,0.202749 0.15193,0.305408 0.049,0.102883 0.0962,0.206596 0.1416,0.311092 0.0454,0.104324 0.089,0.209415 0.13074,0.315226 0.0418,0.105935 0.0817,0.212576 0.11989,0.319877 0.038,0.107207 0.0742,0.215054 0.10852,0.323495 0.0344,0.108645 0.067,0.21787 0.0977,0.327628 0.0308,0.109569 0.0598,0.219656 0.0868,0.330213 0.0269,0.110498 0.0519,0.221446 0.0749,0.332796 0.0233,0.11142 0.0446,0.22323 0.0641,0.33538 0.0193,0.112177 0.0367,0.224676 0.0522,0.337447 0.0154,0.112933 0.0288,0.226121 0.0403,0.339514 0.0118,0.113168 0.0216,0.226528 0.0295,0.340031 0.008,0.11358 0.0137,0.227285 0.0176,0.341065 0.004,0.113644 0.006,0.227352 0.006,0.341064 h 7.35407 V 42.062548 h -7.35459 c 4e-5,0.327357 -0.016,0.65452 -0.0481,0.980302 -0.0322,0.325657 -0.0803,0.649543 -0.14417,0.970484 -0.0638,0.320999 -0.14329,0.638676 -0.23823,0.95188 -0.0951,0.313217 -0.20543,0.621583 -0.33073,0.923974 -0.12526,0.30245 -0.2653,0.59857 -0.41961,0.887285 -0.15425,0.288686 -0.32257,0.569629 -0.50437,0.841809 -0.18197,0.272103 -0.3772,0.535111 -0.58497,0.788065 -0.2076,0.252997 -0.42749,0.495653 -0.65888,0.727088 -0.23142,0.231564 -0.47407,0.451629 -0.72708,0.659391 -0.25297,0.207598 -0.51598,0.402654 -0.78807,0.58446 -0.27218,0.181796 -0.55312,0.350121 -0.84181,0.504362 -0.28871,0.15431 -0.58483,0.294351 -0.88728,0.419613 -0.30239,0.125299 -0.61076,0.235674 -0.92398,0.330729 -0.3132,0.09494 -0.63088,0.174444 -0.95188,0.238229 -0.32111,0.06393 -0.64517,0.112043 -0.971,0.144177 -0.32561,0.03204 -0.6526,0.04808 -0.97978,0.04806 h -20.00033 z"
         clip-path="url(#clipPath1756)" />
      <circle
         style="opacity:0.596284;fill:#fbff00;fill-opacity:0.683521;stroke-width:0.02;stop-color:#000000"
         id="path896-2"
         cx="85.291664"
         cy="124.70834"
         r="20"
         clip-path="url(#clipPath1750)" />
      <circle
         style="opacity:0.596284;fill:#fbff00;fill-opacity:0.683521;stroke-width:0.02;stop-color:#000000"
         id="path896-3-6"
         cx="155.29167"
         cy="124.70834"
         r="20"
         clip-path="url(#clipPath1744)" />
      <circle
         style="opacity:0.596284;fill:#fbff00;fill-opacity:0.683521;stroke-width:0.00999997;stop-color:#000000"
         id="path896-3-1-1"
         cx="155.29167"
         cy="74.708336"
         r="10"
         clip-path="url(#clipPath1738)" />
      <circle
         style="opacity:0.596284;fill:#fbff00;fill-opacity:0.683521;stroke-width:0.00999997;stop-color:#000000"
         id="path896-3-1-2-8"
         cx="155.29167"
         cy="42.062496"
         r="10"
         clip-path="url(#clipPath1732)" />
      <path
         id="path1572"
         style="opacity:0.802972;fill:#003949;fill-opacity:1;stroke:none;stroke-width:0.264583px;stroke-linecap:butt;stroke-linejoin:miter;stroke-opacity:1"
         d="m 129.99982,37.354309 -29.99972,2.645833 v 89.999678 a 20,20 0 0 1 -0.14573,2.4107 20,20 0 0 1 -0.435632,2.37557 20,20 0 0 1 -0.718303,2.3058 20,20 0 0 1 -0.991154,2.20245 20,20 0 0 1 -1.249536,2.06706 20,20 0 0 1 -1.489314,1.90117 20,20 0 0 1 -1.707907,1.70739 20,20 0 0 1 -1.901176,1.48983 20,20 0 0 1 -2.067057,1.24954 20,20 0 0 1 -2.202449,0.99115 20,20 0 0 1 -2.305286,0.71831 20,20 0 0 1 -2.375566,0.43563 20,20 0 0 1 -2.411222,0.14573 v 9.9999 h 70.000382 v -9.9999 a 20,20 0 0 1 -2.41071,-0.14573 20,20 0 0 1 -2.37556,-0.43563 20,20 0 0 1 -2.30581,-0.71831 20,20 0 0 1 -2.20245,-0.99115 20,20 0 0 1 -2.06705,-1.24954 20,20 0 0 1 -1.90118,-1.48983 20,20 0 0 1 -1.70739,-1.70739 20,20 0 0 1 -1.48983,-1.90117 20,20 0 0 1 -1.24954,-2.06706 20,20 0 0 1 -0.99115,-2.20245 20,20 0 0 1 -0.7183,-2.3058 20,20 0 0 1 -0.43512,-2.37557 20,20 0 0 1 -0.14624,-2.4107 V 69.999862 h 20.00033 c 0.11371,1.28e-4 0.22742,0.0022 0.34106,0.0062 0.11378,0.0037 0.22749,0.0094 0.34107,0.01705 0.11367,0.0079 0.2272,0.0177 0.34054,0.02946 0.11322,0.01168 0.22624,0.02529 0.339,0.04082 0.11277,0.01548 0.22527,0.03288 0.33745,0.05219 0.11215,0.01928 0.22396,0.04047 0.33538,0.06356 0.11135,0.02308 0.22229,0.04806 0.33279,0.07493 0.11073,0.02705 0.22099,0.05599 0.33073,0.08682 0.10958,0.03069 0.21864,0.06325 0.32711,0.09767 0.10845,0.0345 0.21629,0.07085 0.3235,0.109037 0.1073,0.03797 0.21394,0.07776 0.31988,0.119373 0.10581,0.04178 0.2109,0.08537 0.31522,0.130741 0.1045,0.04542 0.20821,0.09263 0.31109,0.141594 0.10283,0.0489 0.20483,0.09955 0.30593,0.151928 0.101,0.05238 0.20109,0.106472 0.30024,0.162264 0.0992,0.05568 0.19738,0.113051 0.29455,0.172083 0.0973,0.05916 0.19363,0.119971 0.28888,0.182418 0.0951,0.06247 0.1892,0.126556 0.28215,0.192236 0.093,0.06561 0.1848,0.132797 0.27543,0.201538 0.0908,0.06892 0.18036,0.139379 0.26872,0.211357 0.0882,0.07172 0.17523,0.144938 0.26097,0.219624 0.0859,0.07486 0.17046,0.151178 0.25373,0.228927 0.0832,0.07766 0.165,0.156739 0.24546,0.237195 0.0805,0.08047 0.15954,0.162298 0.2372,0.245463 0.0777,0.08327 0.15406,0.167856 0.22892,0.253731 0.0749,0.08573 0.14826,0.172731 0.22015,0.260966 0.0718,0.08837 0.14209,0.177952 0.21084,0.268718 0.0687,0.09066 0.13593,0.182484 0.20153,0.275435 0.0657,0.09295 0.12977,0.187015 0.19224,0.282153 0.0625,0.09524 0.12326,0.19155 0.18242,0.288872 0.059,0.0972 0.1164,0.195399 0.17208,0.294555 0.0558,0.09932 0.10989,0.199588 0.16226,0.300757 0.0524,0.100931 0.10303,0.202749 0.15193,0.305408 0.049,0.102883 0.0962,0.206596 0.1416,0.311092 0.0454,0.104324 0.089,0.209415 0.13074,0.315226 0.0418,0.105935 0.0817,0.212576 0.11989,0.319877 0.038,0.107207 0.0742,0.215054 0.10852,0.323495 0.0344,0.108645 0.067,0.21787 0.0977,0.327628 0.0308,0.109569 0.0598,0.219656 0.0868,0.330213 0.0269,0.110498 0.0519,0.221446 0.0749,0.332796 0.0233,0.11142 0.0446,0.22323 0.0641,0.33538 0.0193,0.112177 0.0367,0.224676 0.0522,0.337447 0.0154,0.112933 0.0288,0.226121 0.0403,0.339514 0.0118,0.113168 0.0216,0.226528 0.0295,0.340031 0.008,0.11358 0.0137,0.227285 0.0176,0.341065 0.004,0.113644 0.006,0.227352 0.006,0.341064 h 7.35407 V 47.354215 h -7.35459 c 4e-5,0.327357 -0.016,0.65452 -0.0481,0.980302 -0.0322,0.325657 -0.0803,0.649543 -0.14417,0.970484 -0.0638,0.320999 -0.14329,0.638676 -0.23823,0.95188 -0.0951,0.313217 -0.20543,0.621583 -0.33073,0.923974 -0.12526,0.30245 -0.2653,0.59857 -0.41961,0.887285 -0.15425,0.288686 -0.32257,0.569629 -0.50437,0.841809 -0.18197,0.272103 -0.3772,0.535111 -0.58497,0.788065 -0.2076,0.252997 -0.42749,0.495653 -0.65888,0.727088 -0.23142,0.231564 -0.47407,0.451629 -0.72708,0.659391 -0.25297,0.207598 -0.51598,0.402654 -0.78807,0.58446 -0.27218,0.181796 -0.55312,0.350121 -0.84181,0.504362 -0.28871,0.15431 -0.58483,0.294351 -0.88728,0.419613 -0.30239,0.125299 -0.61076,0.235674 -0.92398,0.330729 -0.3132,0.09494 -0.63088,0.174444 -0.95188,0.238229 -0.32111,0.06393 -0.64517,0.112043 -0.971,0.144177 -0.32561,0.03204 -0.6526,0.04808 -0.97978,0.04806 h -20.00033 z"
         clip-path="url(#clipPath1726)" />
      <circle
         style="opacity:0.596284;fill:#008f5b;fill-opacity:0.620858;stroke-width:0.02;stop-color:#000000"
         id="path896"
         cx="80"
         cy="130"
         r="20"
         clip-path="url(#clipPath1720)" />
      <circle
         style="opacity:0.596284;fill:#008f5b;fill-opacity:0.620858;stroke-width:0.02;stop-color:#000000"
         id="path896-3"
         cx="150"
         cy="130"
         r="20"
         clip-path="url(#clipPath1714)" />
      <circle
         style="opacity:0.596284;fill:#008f5b;fill-opacity:0.620858;stroke-width:0.00999997;stop-color:#000000"
         id="path896-3-1"
         cx="150"
         cy="80"
         r="10"
         clip-path="url(#clipPath1708)" />
      <circle
         style="opacity:0.596284;fill:#008f5b;fill-opacity:0.620858;stroke-width:0.00999997;stop-color:#000000"
         id="path896-3-1-2"
         cx="150"
         cy="47.354164"
         r="10"
         clip-path="url(#clipPath1702)" />
    </g>
  </g>
</svg>
