<?xml version="1.0" encoding="UTF-8" standalone="no"?>
<!-- Created with Inkscape (http://www.inkscape.org/) -->

<svg
   width="120mm"
   height="120mm"
   viewBox="0 0 120 120"
   version="1.1"
   id="svg5"
   inkscape:version="1.2.2 (b0a8486541, 2022-12-01)"
   sodipodi:docname="inimitable.svg"
   xmlns:inkscape="http://www.inkscape.org/namespaces/inkscape"
   xmlns:sodipodi="http://sodipodi.sourceforge.net/DTD/sodipodi-0.dtd"
   xmlns:xlink="http://www.w3.org/1999/xlink"
   xmlns="http://www.w3.org/2000/svg"
   xmlns:svg="http://www.w3.org/2000/svg">
  <sodipodi:namedview
     id="namedview7"
     pagecolor="#ffffff"
     bordercolor="#111111"
     borderopacity="1"
     inkscape:showpageshadow="0"
     inkscape:pageopacity="0"
     inkscape:pagecheckerboard="1"
     inkscape:deskcolor="#d1d1d1"
     inkscape:document-units="mm"
     showgrid="false"
     inkscape:zoom="0.84096521"
     inkscape:cx="298.46657"
     inkscape:cy="280.62992"
     inkscape:window-width="4500"
     inkscape:window-height="2980"
     inkscape:window-x="0"
     inkscape:window-y="20"
     inkscape:window-maximized="1"
     inkscape:current-layer="layer1">
    <inkscape:grid
       type="xygrid"
       id="grid686"
       dotted="true"
       originx="-26.085866"
       originy="-82.324242" />
  </sodipodi:namedview>
  <defs
     id="defs2">
    <linearGradient
       inkscape:collect="always"
       id="linearGradient2660">
      <stop
         style="stop-color:#dfbb00;stop-opacity:1;"
         offset="0"
         id="stop2656" />
      <stop
         style="stop-color:#df8b00;stop-opacity:1;"
         offset="1"
         id="stop2658" />
    </linearGradient>
    <linearGradient
       inkscape:collect="always"
       id="linearGradient2565">
      <stop
         style="stop-color:#ad0053;stop-opacity:1;"
         offset="0"
         id="stop2561" />
      <stop
         style="stop-color:#5a003a;stop-opacity:1;"
         offset="1"
         id="stop2563" />
    </linearGradient>
    <linearGradient
       inkscape:collect="always"
       xlink:href="#linearGradient2565"
       id="linearGradient2567"
       x1="-20.63427"
       y1="-17.248596"
       x2="290.4671"
       y2="275.58441"
       gradientUnits="userSpaceOnUse"
       gradientTransform="matrix(-0.11479053,0.06627438,-0.06627438,-0.11479053,107.98803,151.11625)" />
    <linearGradient
       inkscape:collect="always"
       xlink:href="#linearGradient2660"
       id="linearGradient2662"
       x1="-64.036415"
       y1="270.05084"
       x2="308.62442"
       y2="25.001581"
       gradientUnits="userSpaceOnUse"
       gradientTransform="matrix(0.13254872,0,0,0.13254872,-17.962358,-184.86473)" />
  </defs>
  <g
     inkscape:label="Layer 1"
     inkscape:groupmode="layer"
     id="layer1"
     transform="translate(-26.085866,-82.324241)">
    <g
       id="g2666"
       transform="matrix(2.1397171,0,0,2.1393259,-98.11353,-162.15371)">
      <ellipse
         style="fill:url(#linearGradient2662);fill-opacity:1;stroke:none;stroke-width:0.0205118;-inkscape-stroke:none;stop-color:#000000"
         id="path2498"
         cx="-3.3904216"
         cy="-166.29935"
         rx="28.038527"
         ry="28.04878"
         transform="rotate(150)" />
      <path
         id="path790"
         style="fill:url(#linearGradient2567);fill-opacity:1;stroke:none;stroke-width:0.0169662;-inkscape-stroke:none;stop-color:#000000"
         d="m 104.23986,157.86214 a 1.3254872,1.3254872 3.2370624 0 0 0.48515,-1.81065 1.3254872,1.3254872 3.2370624 0 0 -1.81067,-0.48521 1.3254872,1.3254872 3.2370624 0 0 -0.48512,1.81068 1.3254872,1.3254872 3.2370624 0 0 1.81064,0.48518 z m -4.591634,2.65099 a 1.3254872,1.3254872 3.2370624 0 0 0.485164,-1.81066 1.3254872,1.3254872 3.2370624 0 0 -1.810695,-0.48518 1.3254872,1.3254872 3.2370624 0 0 -0.485116,1.81066 1.3254872,1.3254872 3.2370624 0 0 1.810647,0.48518 z m -4.591642,2.65094 a 1.3254872,1.3254872 3.2370624 0 0 0.485215,-1.81065 1.3254872,1.3254872 3.2370624 0 0 -1.810728,-0.48517 1.3254872,1.3254872 3.2370624 0 0 -0.485102,1.81068 1.3254872,1.3254872 3.2370624 0 0 1.810615,0.48514 z m -4.591578,2.65099 a 1.3254872,1.3254872 3.2370624 0 0 0.485155,-1.81064 1.3254872,1.3254872 3.2370624 0 0 -1.810663,-0.48523 1.3254872,1.3254872 3.2370624 0 0 -0.485124,1.8107 1.3254872,1.3254872 3.2370624 0 0 1.810632,0.48517 z m 19.336764,-14.22524 a 1.3254872,1.3254872 3.2370624 0 0 0.48517,-1.81064 1.3254872,1.3254872 3.2370624 0 0 -1.81064,-0.48515 1.3254872,1.3254872 3.2370624 0 0 -0.48515,1.81063 1.3254872,1.3254872 3.2370624 0 0 1.81062,0.48516 z m -4.59164,2.65098 a 1.3254872,1.3254872 3.2370624 0 0 0.48516,-1.81063 1.3254872,1.3254872 3.2370624 0 0 -1.81062,-0.48515 1.3254872,1.3254872 3.2370624 0 0 -0.48516,1.81062 1.3254872,1.3254872 3.2370624 0 0 1.81062,0.48516 z m -4.59155,2.65095 a 1.3254872,1.3254872 3.2370624 0 0 0.48514,-1.81062 1.3254872,1.3254872 3.2370624 0 0 -1.810645,-0.48516 1.3254872,1.3254872 3.2370624 0 0 -0.485208,1.81067 1.3254872,1.3254872 3.2370624 0 0 1.810713,0.48511 z m -4.591654,2.65098 a 1.3254872,1.3254872 3.2370624 0 0 0.485152,-1.81065 1.3254872,1.3254872 3.2370624 0 0 -1.810622,-0.48512 1.3254872,1.3254872 3.2370624 0 0 -0.485173,1.81062 1.3254872,1.3254872 3.2370624 0 0 1.810643,0.48515 z m -4.591637,2.651 a 1.3254872,1.3254872 3.2370624 0 0 0.48514,-1.81062 1.3254872,1.3254872 3.2370624 0 0 -1.810616,-0.48519 1.3254872,1.3254872 3.2370624 0 0 -0.485169,1.81063 1.3254872,1.3254872 3.2370624 0 0 1.810645,0.48518 z m -4.591656,2.65098 a 1.3254872,1.3254872 3.2370624 0 0 0.485223,-1.81067 1.3254872,1.3254872 3.2370624 0 0 -1.810685,-0.48512 1.3254872,1.3254872 3.2370624 0 0 -0.485153,1.81064 1.3254872,1.3254872 3.2370624 0 0 1.810615,0.48515 z m -4.591569,2.65095 a 1.3254872,1.3254872 3.2370624 0 0 0.485155,-1.81064 1.3254872,1.3254872 3.2370624 0 0 -1.810642,-0.48515 1.3254872,1.3254872 3.2370624 0 0 -0.4852,1.81066 1.3254872,1.3254872 3.2370624 0 0 1.810687,0.48513 z m 28.520056,-19.52709 a 1.3254872,1.3254872 3.2370624 0 0 0.4852,-1.8107 1.3254872,1.3254872 3.2370624 0 0 -1.81073,-0.48509 1.3254872,1.3254872 3.2370624 0 0 -0.48512,1.81063 1.3254872,1.3254872 3.2370624 0 0 1.81065,0.48516 z m -4.59163,2.65094 a 1.3254872,1.3254872 3.2370624 0 0 0.48517,-1.81064 1.3254872,1.3254872 3.2370624 0 0 -1.81063,-0.48516 1.3254872,1.3254872 3.2370624 0 0 -0.48522,1.81067 1.3254872,1.3254872 3.2370624 0 0 1.81068,0.48513 z m -4.59161,2.65099 a 1.3254872,1.3254872 3.2370624 0 0 0.48515,-1.81065 1.3254872,1.3254872 3.2370624 0 0 -1.81062,-0.48514 1.3254872,1.3254872 3.2370624 0 0 -0.485158,1.81063 1.3254872,1.3254872 3.2370624 0 0 1.810628,0.48516 z m -4.591645,2.65097 a 1.3254872,1.3254872 3.2370624 0 0 0.485166,-1.81061 1.3254872,1.3254872 3.2370624 0 0 -1.810648,-0.48517 1.3254872,1.3254872 3.2370624 0 0 -0.485148,1.81062 1.3254872,1.3254872 3.2370624 0 0 1.81063,0.48516 z m -4.591629,2.65097 a 1.3254872,1.3254872 3.2370624 0 0 0.485221,-1.81064 1.3254872,1.3254872 3.2370624 0 0 -1.810693,-0.48514 1.3254872,1.3254872 3.2370624 0 0 -0.485165,1.81066 1.3254872,1.3254872 3.2370624 0 0 1.810637,0.48512 z m -4.591586,2.65096 a 1.3254872,1.3254872 3.2370624 0 0 0.48515,-1.81063 1.3254872,1.3254872 3.2370624 0 0 -1.810626,-0.48515 1.3254872,1.3254872 3.2370624 0 0 -0.485167,1.81063 1.3254872,1.3254872 3.2370624 0 0 1.810643,0.48515 z m -4.591637,2.65099 a 1.3254872,1.3254872 3.2370624 0 0 0.485149,-1.81062 1.3254872,1.3254872 3.2370624 0 0 -1.810632,-0.48517 1.3254872,1.3254872 3.2370624 0 0 -0.485138,1.81063 1.3254872,1.3254872 3.2370624 0 0 1.810621,0.48516 z m -4.59165,2.65098 a 1.3254872,1.3254872 3.2370624 0 0 0.48515,-1.81061 1.3254872,1.3254872 3.2370624 0 0 -1.810613,-0.48517 1.3254872,1.3254872 3.2370624 0 0 -0.485166,1.81063 1.3254872,1.3254872 3.2370624 0 0 1.810629,0.48515 z m 28.520107,-19.52713 a 1.3254872,1.3254872 3.2370624 0 0 0.48512,-1.81072 1.3254872,1.3254872 3.2370624 0 0 -1.81066,-0.48513 1.3254872,1.3254872 3.2370624 0 0 -0.48513,1.81064 1.3254872,1.3254872 3.2370624 0 0 1.81067,0.48521 z m -4.59165,2.65099 a 1.3254872,1.3254872 3.2370624 0 0 0.48512,-1.81069 1.3254872,1.3254872 3.2370624 0 0 -1.81064,-0.48517 1.3254872,1.3254872 3.2370624 0 0 -0.48516,1.81064 1.3254872,1.3254872 3.2370624 0 0 1.81068,0.48522 z m -4.591595,2.65094 a 1.3254872,1.3254872 3.2370624 0 0 0.485151,-1.81067 1.3254872,1.3254872 3.2370624 0 0 -1.810627,-0.48518 1.3254872,1.3254872 3.2370624 0 0 -0.485229,1.81068 1.3254872,1.3254872 3.2370624 0 0 1.810705,0.48517 z m -4.591627,2.651 a 1.3254872,1.3254872 3.2370624 0 0 0.485122,-1.81069 1.3254872,1.3254872 3.2370624 0 0 -1.810633,-0.48516 1.3254872,1.3254872 3.2370624 0 0 -0.485146,1.81064 1.3254872,1.3254872 3.2370624 0 0 1.810657,0.48521 z m -4.591639,2.65098 a 1.3254872,1.3254872 3.2370624 0 0 0.48513,-1.81069 1.3254872,1.3254872 3.2370624 0 0 -1.810616,-0.48516 1.3254872,1.3254872 3.2370624 0 0 -0.485186,1.81062 1.3254872,1.3254872 3.2370624 0 0 1.810672,0.48523 z m -4.591637,2.65098 a 1.3254872,1.3254872 3.2370624 0 0 0.485194,-1.81071 1.3254872,1.3254872 3.2370624 0 0 -1.810704,-0.48515 1.3254872,1.3254872 3.2370624 0 0 -0.48515,1.81063 1.3254872,1.3254872 3.2370624 0 0 1.81066,0.48523 z m -4.591577,2.65095 a 1.3254872,1.3254872 3.2370624 0 0 0.485122,-1.81069 1.3254872,1.3254872 3.2370624 0 0 -1.810631,-0.48516 1.3254872,1.3254872 3.2370624 0 0 -0.485221,1.81069 1.3254872,1.3254872 3.2370624 0 0 1.81073,0.48516 z M 108.12112,143.3769 a 1.3254872,1.3254872 3.2370624 0 0 0.48522,-1.81064 1.3254872,1.3254872 3.2370624 0 0 -1.81068,-0.48511 1.3254872,1.3254872 3.2370624 0 0 -0.48517,1.81061 1.3254872,1.3254872 3.2370624 0 0 1.81063,0.48514 z m -4.59158,2.65096 a 1.3254872,1.3254872 3.2370624 0 0 0.48514,-1.81062 1.3254872,1.3254872 3.2370624 0 0 -1.81063,-0.48517 1.3254872,1.3254872 3.2370624 0 0 -0.4852,1.81067 1.3254872,1.3254872 3.2370624 0 0 1.81069,0.48512 z m -4.591655,2.651 a 1.3254872,1.3254872 3.2370624 0 0 0.485161,-1.81065 1.3254872,1.3254872 3.2370624 0 0 -1.810632,-0.48515 1.3254872,1.3254872 3.2370624 0 0 -0.485155,1.81064 1.3254872,1.3254872 3.2370624 0 0 1.810626,0.48516 z m -4.591635,2.65098 a 1.3254872,1.3254872 3.2370624 0 0 0.485174,-1.81061 1.3254872,1.3254872 3.2370624 0 0 -1.810648,-0.48518 1.3254872,1.3254872 3.2370624 0 0 -0.485132,1.81064 1.3254872,1.3254872 3.2370624 0 0 1.810606,0.48515 z m -4.591639,2.65097 a 1.3254872,1.3254872 3.2370624 0 0 0.485233,-1.81064 1.3254872,1.3254872 3.2370624 0 0 -1.810718,-0.48515 1.3254872,1.3254872 3.2370624 0 0 -0.485137,1.81065 1.3254872,1.3254872 3.2370624 0 0 1.810622,0.48514 z m -4.591574,2.65096 a 1.3254872,1.3254872 3.2370624 0 0 0.485154,-1.81062 1.3254872,1.3254872 3.2370624 0 0 -1.810633,-0.48518 1.3254872,1.3254872 3.2370624 0 0 -0.485153,1.81064 1.3254872,1.3254872 3.2370624 0 0 1.810632,0.48516 z m -4.591644,2.65098 a 1.3254872,1.3254872 3.2370624 0 0 0.485171,-1.81063 1.3254872,1.3254872 3.2370624 0 0 -1.810634,-0.48515 1.3254872,1.3254872 3.2370624 0 0 -0.485173,1.81064 1.3254872,1.3254872 3.2370624 0 0 1.810636,0.48514 z m -4.591645,2.65099 a 1.3254872,1.3254872 3.2370624 0 0 0.485167,-1.81066 1.3254872,1.3254872 3.2370624 0 0 -1.810653,-0.48515 1.3254872,1.3254872 3.2370624 0 0 -0.485129,1.81064 1.3254872,1.3254872 3.2370624 0 0 1.810615,0.48517 z m 33.111732,-22.17812 a 1.3254872,1.3254872 3.2370624 0 0 0.48519,-1.81065 1.3254872,1.3254872 3.2370624 0 0 -1.81066,-0.48514 1.3254872,1.3254872 3.2370624 0 0 -0.48516,1.81063 1.3254872,1.3254872 3.2370624 0 0 1.81063,0.48516 z m -4.59164,2.65098 a 1.3254872,1.3254872 3.2370624 0 0 0.48517,-1.81062 1.3254872,1.3254872 3.2370624 0 0 -1.81066,-0.48517 1.3254872,1.3254872 3.2370624 0 0 -0.48514,1.81064 1.3254872,1.3254872 3.2370624 0 0 1.81063,0.48515 z m -4.591633,2.65099 a 1.3254872,1.3254872 3.2370624 0 0 0.485143,-1.81063 1.3254872,1.3254872 3.2370624 0 0 -1.810621,-0.48516 1.3254872,1.3254872 3.2370624 0 0 -0.485164,1.81063 1.3254872,1.3254872 3.2370624 0 0 1.810642,0.48516 z m -4.591597,2.65094 a 1.3254872,1.3254872 3.2370624 0 0 0.485183,-1.81062 1.3254872,1.3254872 3.2370624 0 0 -1.81064,-0.48515 1.3254872,1.3254872 3.2370624 0 0 -0.48522,1.81065 1.3254872,1.3254872 3.2370624 0 0 1.810677,0.48512 z m -4.591629,2.65098 a 1.3254872,1.3254872 3.2370624 0 0 0.485159,-1.81062 1.3254872,1.3254872 3.2370624 0 0 -1.810644,-0.48515 1.3254872,1.3254872 3.2370624 0 0 -0.485132,1.81062 1.3254872,1.3254872 3.2370624 0 0 1.810617,0.48515 z m -4.591629,2.65101 a 1.3254872,1.3254872 3.2370624 0 0 0.485146,-1.81064 1.3254872,1.3254872 3.2370624 0 0 -1.810638,-0.48517 1.3254872,1.3254872 3.2370624 0 0 -0.485136,1.81063 1.3254872,1.3254872 3.2370624 0 0 1.810628,0.48518 z m -4.591648,2.65095 a 1.3254872,1.3254872 3.2370624 0 0 0.485226,-1.81065 1.3254872,1.3254872 3.2370624 0 0 -1.810691,-0.48511 1.3254872,1.3254872 3.2370624 0 0 -0.485148,1.81064 1.3254872,1.3254872 3.2370624 0 0 1.810613,0.48512 z m -4.591569,2.65097 a 1.3254872,1.3254872 3.2370624 0 0 0.48516,-1.81064 1.3254872,1.3254872 3.2370624 0 0 -1.810625,-0.48516 1.3254872,1.3254872 3.2370624 0 0 -0.485231,1.81067 1.3254872,1.3254872 3.2370624 0 0 1.810696,0.48513 z m -4.591651,2.65099 a 1.3254872,1.3254872 3.2370624 0 0 0.485169,-1.81061 1.3254872,1.3254872 3.2370624 0 0 -1.810629,-0.48519 1.3254872,1.3254872 3.2370624 0 0 -0.485168,1.81063 1.3254872,1.3254872 3.2370624 0 0 1.810628,0.48517 z m 33.111666,-22.1781 a 1.3254872,1.3254872 3.2370624 0 0 0.48519,-1.81072 1.3254872,1.3254872 3.2370624 0 0 -1.81069,-0.48511 1.3254872,1.3254872 3.2370624 0 0 -0.48517,1.81063 1.3254872,1.3254872 3.2370624 0 0 1.81067,0.4852 z m -4.59158,2.65096 a 1.3254872,1.3254872 3.2370624 0 0 0.48514,-1.81069 1.3254872,1.3254872 3.2370624 0 0 -1.810625,-0.48516 1.3254872,1.3254872 3.2370624 0 0 -0.485248,1.81068 1.3254872,1.3254872 3.2370624 0 0 1.810733,0.48517 z m -4.591628,2.65097 a 1.3254872,1.3254872 3.2370624 0 0 0.485138,-1.81069 1.3254872,1.3254872 3.2370624 0 0 -1.810658,-0.48514 1.3254872,1.3254872 3.2370624 0 0 -0.485141,1.81063 1.3254872,1.3254872 3.2370624 0 0 1.810661,0.4852 z m -4.59164,2.651 a 1.3254872,1.3254872 3.2370624 0 0 0.485122,-1.8107 1.3254872,1.3254872 3.2370624 0 0 -1.810626,-0.48514 1.3254872,1.3254872 3.2370624 0 0 -0.485165,1.81063 1.3254872,1.3254872 3.2370624 0 0 1.810669,0.48521 z m -4.591635,2.65099 a 1.3254872,1.3254872 3.2370624 0 0 0.48516,-1.81072 1.3254872,1.3254872 3.2370624 0 0 -1.810669,-0.48515 1.3254872,1.3254872 3.2370624 0 0 -0.485158,1.81064 1.3254872,1.3254872 3.2370624 0 0 1.810667,0.48523 z m -4.591584,2.65095 a 1.3254872,1.3254872 3.2370624 0 0 0.485126,-1.8107 1.3254872,1.3254872 3.2370624 0 0 -1.810622,-0.48515 1.3254872,1.3254872 3.2370624 0 0 -0.485167,1.81062 1.3254872,1.3254872 3.2370624 0 0 1.810663,0.48523 z m -4.591659,2.65096 a 1.3254872,1.3254872 3.2370624 0 0 0.485146,-1.81069 1.3254872,1.3254872 3.2370624 0 0 -1.810623,-0.48516 1.3254872,1.3254872 3.2370624 0 0 -0.485151,1.81065 1.3254872,1.3254872 3.2370624 0 0 1.810628,0.4852 z m -4.591616,2.651 a 1.3254872,1.3254872 3.2370624 0 0 0.485132,-1.8107 1.3254872,1.3254872 3.2370624 0 0 -1.810647,-0.48515 1.3254872,1.3254872 3.2370624 0 0 -0.485169,1.81063 1.3254872,1.3254872 3.2370624 0 0 1.810684,0.48522 z m 33.111672,-22.17819 a 1.3254872,1.3254872 3.2370624 0 0 0.48519,-1.81061 1.3254872,1.3254872 3.2370624 0 0 -1.81065,-0.48517 1.3254872,1.3254872 3.2370624 0 0 -0.48516,1.81063 1.3254872,1.3254872 3.2370624 0 0 1.81062,0.48515 z m -4.59163,2.651 a 1.3254872,1.3254872 3.2370624 0 0 0.48518,-1.81064 1.3254872,1.3254872 3.2370624 0 0 -1.81065,-0.48516 1.3254872,1.3254872 3.2370624 0 0 -0.48516,1.81065 1.3254872,1.3254872 3.2370624 0 0 1.81063,0.48515 z m -4.591641,2.65098 a 1.3254872,1.3254872 3.2370624 0 0 0.485184,-1.81065 1.3254872,1.3254872 3.2370624 0 0 -1.810641,-0.48515 1.3254872,1.3254872 3.2370624 0 0 -0.485158,1.81064 1.3254872,1.3254872 3.2370624 0 0 1.810615,0.48516 z m -4.591572,2.65094 a 1.3254872,1.3254872 3.2370624 0 0 0.48516,-1.81062 1.3254872,1.3254872 3.2370624 0 0 -1.810615,-0.48515 1.3254872,1.3254872 3.2370624 0 0 -0.485229,1.81065 1.3254872,1.3254872 3.2370624 0 0 1.810684,0.48512 z m -4.59164,2.65099 a 1.3254872,1.3254872 3.2370624 0 0 0.48517,-1.81062 1.3254872,1.3254872 3.2370624 0 0 -1.810655,-0.48519 1.3254872,1.3254872 3.2370624 0 0 -0.485143,1.81065 1.3254872,1.3254872 3.2370624 0 0 1.810628,0.48516 z m -4.591626,2.65098 a 1.3254872,1.3254872 3.2370624 0 0 0.485167,-1.81061 1.3254872,1.3254872 3.2370624 0 0 -1.810657,-0.48519 1.3254872,1.3254872 3.2370624 0 0 -0.485145,1.81065 1.3254872,1.3254872 3.2370624 0 0 1.810635,0.48515 z m -4.591641,2.65098 a 1.3254872,1.3254872 3.2370624 0 0 0.4852,-1.81066 1.3254872,1.3254872 3.2370624 0 0 -1.810676,-0.48511 1.3254872,1.3254872 3.2370624 0 0 -0.48515,1.81064 1.3254872,1.3254872 3.2370624 0 0 1.810626,0.48513 z m -4.591592,2.65097 a 1.3254872,1.3254872 3.2370624 0 0 0.485144,-1.81065 1.3254872,1.3254872 3.2370624 0 0 -1.810597,-0.48516 1.3254872,1.3254872 3.2370624 0 0 -0.485233,1.81066 1.3254872,1.3254872 3.2370624 0 0 1.810686,0.48515 z m -4.591624,2.65096 a 1.3254872,1.3254872 3.2370624 0 0 0.485165,-1.8106 1.3254872,1.3254872 3.2370624 0 0 -1.810645,-0.48518 1.3254872,1.3254872 3.2370624 0 0 -0.485176,1.81063 1.3254872,1.3254872 3.2370624 0 0 1.810656,0.48515 z m 33.111666,-22.17806 a 1.3254872,1.3254872 3.2370624 0 0 0.48521,-1.81069 1.3254872,1.3254872 3.2370624 0 0 -1.8107,-0.48514 1.3254872,1.3254872 3.2370624 0 0 -0.48515,1.81067 1.3254872,1.3254872 3.2370624 0 0 1.81064,0.48516 z m -4.591568,2.65094 a 1.3254872,1.3254872 3.2370624 0 0 0.485145,-1.81062 1.3254872,1.3254872 3.2370624 0 0 -1.810682,-0.48523 1.3254872,1.3254872 3.2370624 0 0 -0.485172,1.81071 1.3254872,1.3254872 3.2370624 0 0 1.810709,0.48514 z m -4.591653,2.65096 a 1.3254872,1.3254872 3.2370624 0 0 0.485154,-1.8106 1.3254872,1.3254872 3.2370624 0 0 -1.810664,-0.48522 1.3254872,1.3254872 3.2370624 0 0 -0.485114,1.81069 1.3254872,1.3254872 3.2370624 0 0 1.810624,0.48513 z m -4.591655,2.65101 a 1.3254872,1.3254872 3.2370624 0 0 0.485166,-1.81064 1.3254872,1.3254872 3.2370624 0 0 -1.810647,-0.48522 1.3254872,1.3254872 3.2370624 0 0 -0.485139,1.81071 1.3254872,1.3254872 3.2370624 0 0 1.81062,0.48515 z m -4.591616,2.65099 a 1.3254872,1.3254872 3.2370624 0 0 0.485201,-1.81068 1.3254872,1.3254872 3.2370624 0 0 -1.810708,-0.48517 1.3254872,1.3254872 3.2370624 0 0 -0.485122,1.81068 1.3254872,1.3254872 3.2370624 0 0 1.810629,0.48517 z m -4.591596,2.65095 a 1.3254872,1.3254872 3.2370624 0 0 0.485162,-1.81065 1.3254872,1.3254872 3.2370624 0 0 -1.810667,-0.48521 1.3254872,1.3254872 3.2370624 0 0 -0.485107,1.81071 1.3254872,1.3254872 3.2370624 0 0 1.810612,0.48515 z m -4.591641,2.65097 a 1.3254872,1.3254872 3.2370624 0 0 0.485177,-1.81062 1.3254872,1.3254872 3.2370624 0 0 -1.810684,-0.48522 1.3254872,1.3254872 3.2370624 0 0 -0.485116,1.81068 1.3254872,1.3254872 3.2370624 0 0 1.810623,0.48516 z m -4.591621,2.65096 a 1.3254872,1.3254872 3.2370624 0 0 0.485133,-1.81061 1.3254872,1.3254872 3.2370624 0 0 -1.810647,-0.48521 1.3254872,1.3254872 3.2370624 0 0 -0.485128,1.8107 1.3254872,1.3254872 3.2370624 0 0 1.810642,0.48512 z m 33.11167,-22.17813 a 1.3254872,1.3254872 3.2370624 0 0 0.48518,-1.81066 1.3254872,1.3254872 3.2370624 0 0 -1.81063,-0.48514 1.3254872,1.3254872 3.2370624 0 0 -0.48514,1.8106 1.3254872,1.3254872 3.2370624 0 0 1.81059,0.4852 z m -4.591615,2.65097 a 1.3254872,1.3254872 3.2370624 0 0 0.485148,-1.81064 1.3254872,1.3254872 3.2370624 0 0 -1.81064,-0.48516 1.3254872,1.3254872 3.2370624 0 0 -0.485148,1.81062 1.3254872,1.3254872 3.2370624 0 0 1.81064,0.48518 z m -4.591637,2.65101 a 1.3254872,1.3254872 3.2370624 0 0 0.485142,-1.81064 1.3254872,1.3254872 3.2370624 0 0 -1.81063,-0.48517 1.3254872,1.3254872 3.2370624 0 0 -0.48513,1.81063 1.3254872,1.3254872 3.2370624 0 0 1.810618,0.48518 z m -4.591591,2.65094 a 1.3254872,1.3254872 3.2370624 0 0 0.485158,-1.81066 1.3254872,1.3254872 3.2370624 0 0 -1.810624,-0.48515 1.3254872,1.3254872 3.2370624 0 0 -0.48523,1.81067 1.3254872,1.3254872 3.2370624 0 0 1.810696,0.48514 z m -4.591639,2.65097 a 1.3254872,1.3254872 3.2370624 0 0 0.485159,-1.81063 1.3254872,1.3254872 3.2370624 0 0 -1.810619,-0.48516 1.3254872,1.3254872 3.2370624 0 0 -0.485179,1.81062 1.3254872,1.3254872 3.2370624 0 0 1.810639,0.48517 z m -4.591637,2.65097 a 1.3254872,1.3254872 3.2370624 0 0 0.485162,-1.81061 1.3254872,1.3254872 3.2370624 0 0 -1.81063,-0.48516 1.3254872,1.3254872 3.2370624 0 0 -0.48517,1.81063 1.3254872,1.3254872 3.2370624 0 0 1.810638,0.48514 z m -4.591632,2.65099 a 1.3254872,1.3254872 3.2370624 0 0 0.485214,-1.81067 1.3254872,1.3254872 3.2370624 0 0 -1.810686,-0.48512 1.3254872,1.3254872 3.2370624 0 0 -0.485168,1.81065 1.3254872,1.3254872 3.2370624 0 0 1.81064,0.48514 z m -4.591588,2.65096 a 1.3254872,1.3254872 3.2370624 0 0 0.485153,-1.81066 1.3254872,1.3254872 3.2370624 0 0 -1.81061,-0.48515 1.3254872,1.3254872 3.2370624 0 0 -0.485244,1.81067 1.3254872,1.3254872 3.2370624 0 0 1.810701,0.48514 z m -4.591627,2.65098 a 1.3254872,1.3254872 3.2370624 0 0 0.48514,-1.81062 1.3254872,1.3254872 3.2370624 0 0 -1.810616,-0.48517 1.3254872,1.3254872 3.2370624 0 0 -0.485171,1.81062 1.3254872,1.3254872 3.2370624 0 0 1.810647,0.48517 z m 33.111636,-22.17808 a 1.3254872,1.3254872 3.2370624 0 0 0.48523,-1.81069 1.3254872,1.3254872 3.2370624 0 0 -1.810685,-0.4851 1.3254872,1.3254872 3.2370624 0 0 -0.485161,1.81061 1.3254872,1.3254872 3.2370624 0 0 1.810616,0.48518 z m -4.591556,2.65095 a 1.3254872,1.3254872 3.2370624 0 0 0.48514,-1.81063 1.3254872,1.3254872 3.2370624 0 0 -1.810618,-0.48516 1.3254872,1.3254872 3.2370624 0 0 -0.485218,1.81064 1.3254872,1.3254872 3.2370624 0 0 1.810696,0.48515 z m -4.591642,2.65097 a 1.3254872,1.3254872 3.2370624 0 0 0.485147,-1.81063 1.3254872,1.3254872 3.2370624 0 0 -1.810614,-0.48515 1.3254872,1.3254872 3.2370624 0 0 -0.485174,1.81064 1.3254872,1.3254872 3.2370624 0 0 1.810641,0.48514 z m -4.59164,2.651 a 1.3254872,1.3254872 3.2370624 0 0 0.485158,-1.81065 1.3254872,1.3254872 3.2370624 0 0 -1.810632,-0.48516 1.3254872,1.3254872 3.2370624 0 0 -0.485162,1.81062 1.3254872,1.3254872 3.2370624 0 0 1.810636,0.48519 z m -4.591624,2.65097 a 1.3254872,1.3254872 3.2370624 0 0 0.485207,-1.81066 1.3254872,1.3254872 3.2370624 0 0 -1.810697,-0.48512 1.3254872,1.3254872 3.2370624 0 0 -0.485141,1.81064 1.3254872,1.3254872 3.2370624 0 0 1.810631,0.48514 z m -4.591581,2.65097 a 1.3254872,1.3254872 3.2370624 0 0 0.485137,-1.81066 1.3254872,1.3254872 3.2370624 0 0 -1.810627,-0.48515 1.3254872,1.3254872 3.2370624 0 0 -0.485166,1.81063 1.3254872,1.3254872 3.2370624 0 0 1.810656,0.48518 z m -4.59165,2.65096 a 1.3254872,1.3254872 3.2370624 0 0 0.485166,-1.81061 1.3254872,1.3254872 3.2370624 0 0 -1.810638,-0.48518 1.3254872,1.3254872 3.2370624 0 0 -0.485172,1.81063 1.3254872,1.3254872 3.2370624 0 0 1.810644,0.48516 z m -4.591634,2.65099 a 1.3254872,1.3254872 3.2370624 0 0 0.485163,-1.81062 1.3254872,1.3254872 3.2370624 0 0 -1.810628,-0.48519 1.3254872,1.3254872 3.2370624 0 0 -0.48519,1.81065 1.3254872,1.3254872 3.2370624 0 0 1.810655,0.48516 z m 33.111717,-22.17812 a 1.3254872,1.3254872 3.2370624 0 0 0.48515,-1.81061 1.3254872,1.3254872 3.2370624 0 0 -1.810649,-0.48525 1.3254872,1.3254872 3.2370624 0 0 -0.485114,1.81071 1.3254872,1.3254872 3.2370624 0 0 1.810613,0.48515 z m -4.59163,2.651 a 1.3254872,1.3254872 3.2370624 0 0 0.485134,-1.81063 1.3254872,1.3254872 3.2370624 0 0 -1.810652,-0.48525 1.3254872,1.3254872 3.2370624 0 0 -0.485111,1.8107 1.3254872,1.3254872 3.2370624 0 0 1.810629,0.48518 z m -4.591645,2.65099 a 1.3254872,1.3254872 3.2370624 0 0 0.485165,-1.81065 1.3254872,1.3254872 3.2370624 0 0 -1.81066,-0.48522 1.3254872,1.3254872 3.2370624 0 0 -0.485134,1.81069 1.3254872,1.3254872 3.2370624 0 0 1.810629,0.48518 z m -4.591556,2.65093 a 1.3254872,1.3254872 3.2370624 0 0 0.485137,-1.81063 1.3254872,1.3254872 3.2370624 0 0 -1.810672,-0.48522 1.3254872,1.3254872 3.2370624 0 0 -0.485163,1.81072 1.3254872,1.3254872 3.2370624 0 0 1.810698,0.48513 z m -4.591646,2.651 a 1.3254872,1.3254872 3.2370624 0 0 0.485135,-1.81064 1.3254872,1.3254872 3.2370624 0 0 -1.810665,-0.48522 1.3254872,1.3254872 3.2370624 0 0 -0.485112,1.81069 1.3254872,1.3254872 3.2370624 0 0 1.810642,0.48517 z m -4.591645,2.65097 a 1.3254872,1.3254872 3.2370624 0 0 0.48516,-1.81065 1.3254872,1.3254872 3.2370624 0 0 -1.810667,-0.4852 1.3254872,1.3254872 3.2370624 0 0 -0.485123,1.8107 1.3254872,1.3254872 3.2370624 0 0 1.81063,0.48515 z m -4.591648,2.65097 a 1.3254872,1.3254872 3.2370624 0 0 0.485224,-1.81065 1.3254872,1.3254872 3.2370624 0 0 -1.810737,-0.48521 1.3254872,1.3254872 3.2370624 0 0 -0.485104,1.8107 1.3254872,1.3254872 3.2370624 0 0 1.810617,0.48516 z m -4.591566,2.65095 a 1.3254872,1.3254872 3.2370624 0 0 0.485165,-1.81061 1.3254872,1.3254872 3.2370624 0 0 -1.810668,-0.48523 1.3254872,1.3254872 3.2370624 0 0 -0.485215,1.81074 1.3254872,1.3254872 3.2370624 0 0 1.810718,0.4851 z m -4.591659,2.65099 a 1.3254872,1.3254872 3.2370624 0 0 0.48517,-1.81063 1.3254872,1.3254872 3.2370624 0 0 -1.810683,-0.4852 1.3254872,1.3254872 3.2370624 0 0 -0.485123,1.81069 1.3254872,1.3254872 3.2370624 0 0 1.810636,0.48514 z m 33.111664,-22.17812 a 1.3254872,1.3254872 3.2370624 0 0 0.485208,-1.8107 1.3254872,1.3254872 3.2370624 0 0 -1.810701,-0.48512 1.3254872,1.3254872 3.2370624 0 0 -0.485179,1.81066 1.3254872,1.3254872 3.2370624 0 0 1.810672,0.48516 z m -4.591612,2.65094 a 1.3254872,1.3254872 3.2370624 0 0 0.485171,-1.81064 1.3254872,1.3254872 3.2370624 0 0 -1.810639,-0.48516 1.3254872,1.3254872 3.2370624 0 0 -0.485215,1.81066 1.3254872,1.3254872 3.2370624 0 0 1.810683,0.48514 z m -4.591628,2.65098 a 1.3254872,1.3254872 3.2370624 0 0 0.485168,-1.81063 1.3254872,1.3254872 3.2370624 0 0 -1.810633,-0.48514 1.3254872,1.3254872 3.2370624 0 0 -0.485161,1.8106 1.3254872,1.3254872 3.2370624 0 0 1.810626,0.48517 z m -4.591628,2.65098 a 1.3254872,1.3254872 3.2370624 0 0 0.48514,-1.81064 1.3254872,1.3254872 3.2370624 0 0 -1.810625,-0.48515 1.3254872,1.3254872 3.2370624 0 0 -0.485156,1.81062 1.3254872,1.3254872 3.2370624 0 0 1.810641,0.48517 z m -4.591651,2.65098 a 1.3254872,1.3254872 3.2370624 0 0 0.485219,-1.81068 1.3254872,1.3254872 3.2370624 0 0 -1.810685,-0.48512 1.3254872,1.3254872 3.2370624 0 0 -0.485178,1.81064 1.3254872,1.3254872 3.2370624 0 0 1.810644,0.48516 z m -4.591587,2.65095 a 1.3254872,1.3254872 3.2370624 0 0 0.485165,-1.81063 1.3254872,1.3254872 3.2370624 0 0 -1.810629,-0.48516 1.3254872,1.3254872 3.2370624 0 0 -0.485144,1.81062 1.3254872,1.3254872 3.2370624 0 0 1.810608,0.48517 z m -4.591656,2.65099 a 1.3254872,1.3254872 3.2370624 0 0 0.485184,-1.81062 1.3254872,1.3254872 3.2370624 0 0 -1.810633,-0.48518 1.3254872,1.3254872 3.2370624 0 0 -0.485143,1.81062 1.3254872,1.3254872 3.2370624 0 0 1.810592,0.48518 z m -4.591624,2.65097 a 1.3254872,1.3254872 3.2370624 0 0 0.485163,-1.81062 1.3254872,1.3254872 3.2370624 0 0 -1.810606,-0.48515 1.3254872,1.3254872 3.2370624 0 0 -0.485172,1.81062 1.3254872,1.3254872 3.2370624 0 0 1.810615,0.48515 z m 28.52011,-19.5271 a 1.3254872,1.3254872 3.2370624 0 0 0.48515,-1.81062 1.3254872,1.3254872 3.2370624 0 0 -1.810626,-0.48519 1.3254872,1.3254872 3.2370624 0 0 -0.485183,1.81064 1.3254872,1.3254872 3.2370624 0 0 1.810659,0.48517 z m -4.59165,2.65096 a 1.3254872,1.3254872 3.2370624 0 0 0.485146,-1.81064 1.3254872,1.3254872 3.2370624 0 0 -1.810627,-0.48514 1.3254872,1.3254872 3.2370624 0 0 -0.485162,1.81061 1.3254872,1.3254872 3.2370624 0 0 1.810643,0.48517 z m -4.591577,2.65095 a 1.3254872,1.3254872 3.2370624 0 0 0.485148,-1.81062 1.3254872,1.3254872 3.2370624 0 0 -1.810605,-0.48517 1.3254872,1.3254872 3.2370624 0 0 -0.485248,1.81067 1.3254872,1.3254872 3.2370624 0 0 1.810705,0.48512 z m -4.591633,2.65098 a 1.3254872,1.3254872 3.2370624 0 0 0.485145,-1.81065 1.3254872,1.3254872 3.2370624 0 0 -1.810622,-0.48514 1.3254872,1.3254872 3.2370624 0 0 -0.485186,1.81064 1.3254872,1.3254872 3.2370624 0 0 1.810663,0.48515 z m -4.591649,2.65099 a 1.3254872,1.3254872 3.2370624 0 0 0.485155,-1.81065 1.3254872,1.3254872 3.2370624 0 0 -1.810611,-0.48513 1.3254872,1.3254872 3.2370624 0 0 -0.48518,1.81059 1.3254872,1.3254872 3.2370624 0 0 1.810636,0.48519 z m -4.591625,2.65098 a 1.3254872,1.3254872 3.2370624 0 0 0.485202,-1.81065 1.3254872,1.3254872 3.2370624 0 0 -1.810684,-0.48513 1.3254872,1.3254872 3.2370624 0 0 -0.48516,1.81062 1.3254872,1.3254872 3.2370624 0 0 1.810642,0.48516 z m -4.591608,2.65096 a 1.3254872,1.3254872 3.2370624 0 0 0.485166,-1.81066 1.3254872,1.3254872 3.2370624 0 0 -1.810626,-0.48514 1.3254872,1.3254872 3.2370624 0 0 -0.485215,1.81067 1.3254872,1.3254872 3.2370624 0 0 1.810675,0.48513 z m 28.520052,-19.52709 a 1.3254872,1.3254872 3.2370624 0 0 0.485177,-1.81072 1.3254872,1.3254872 3.2370624 0 0 -1.810699,-0.48518 1.3254872,1.3254872 3.2370624 0 0 -0.485151,1.81067 1.3254872,1.3254872 3.2370624 0 0 1.810673,0.48523 z m -4.591583,2.65091 a 1.3254872,1.3254872 3.2370624 0 0 0.485129,-1.81068 1.3254872,1.3254872 3.2370624 0 0 -1.810643,-0.48515 1.3254872,1.3254872 3.2370624 0 0 -0.485203,1.8107 1.3254872,1.3254872 3.2370624 0 0 1.810717,0.48513 z m -4.591634,2.65099 a 1.3254872,1.3254872 3.2370624 0 0 0.48513,-1.8107 1.3254872,1.3254872 3.2370624 0 0 -1.81066,-0.48514 1.3254872,1.3254872 3.2370624 0 0 -0.485152,1.81062 1.3254872,1.3254872 3.2370624 0 0 1.810682,0.48522 z m -4.591653,2.65101 a 1.3254872,1.3254872 3.2370624 0 0 0.485134,-1.81067 1.3254872,1.3254872 3.2370624 0 0 -1.810629,-0.48519 1.3254872,1.3254872 3.2370624 0 0 -0.485158,1.81062 1.3254872,1.3254872 3.2370624 0 0 1.810653,0.48524 z m -4.591632,2.65099 a 1.3254872,1.3254872 3.2370624 0 0 0.485191,-1.81073 1.3254872,1.3254872 3.2370624 0 0 -1.810698,-0.48514 1.3254872,1.3254872 3.2370624 0 0 -0.485159,1.81067 1.3254872,1.3254872 3.2370624 0 0 1.810666,0.4852 z m -4.59158,2.65093 a 1.3254872,1.3254872 3.2370624 0 0 0.485138,-1.81068 1.3254872,1.3254872 3.2370624 0 0 -1.810654,-0.48516 1.3254872,1.3254872 3.2370624 0 0 -0.485141,1.81064 1.3254872,1.3254872 3.2370624 0 0 1.810657,0.4852 z m -4.59163,2.651 a 1.3254872,1.3254872 3.2370624 0 0 0.485109,-1.81069 1.3254872,1.3254872 3.2370624 0 0 -1.810641,-0.48516 1.3254872,1.3254872 3.2370624 0 0 -0.485124,1.81063 1.3254872,1.3254872 3.2370624 0 0 1.810656,0.48522 z m -4.591651,2.65098 a 1.3254872,1.3254872 3.2370624 0 0 0.485117,-1.8107 1.3254872,1.3254872 3.2370624 0 0 -1.810616,-0.48514 1.3254872,1.3254872 3.2370624 0 0 -0.485143,1.81063 1.3254872,1.3254872 3.2370624 0 0 1.810642,0.48521 z m 28.520069,-19.52722 a 1.3254872,1.3254872 3.2370624 0 0 0.485144,-1.81065 1.3254872,1.3254872 3.2370624 0 0 -1.810626,-0.48511 1.3254872,1.3254872 3.2370624 0 0 -0.485154,1.81065 1.3254872,1.3254872 3.2370624 0 0 1.810636,0.48511 z m -4.591649,2.65099 a 1.3254872,1.3254872 3.2370624 0 0 0.485152,-1.81061 1.3254872,1.3254872 3.2370624 0 0 -1.8106,-0.48517 1.3254872,1.3254872 3.2370624 0 0 -0.48519,1.81061 1.3254872,1.3254872 3.2370624 0 0 1.810638,0.48517 z m -4.591569,2.65095 a 1.3254872,1.3254872 3.2370624 0 0 0.485145,-1.8106 1.3254872,1.3254872 3.2370624 0 0 -1.810631,-0.48518 1.3254872,1.3254872 3.2370624 0 0 -0.485222,1.81068 1.3254872,1.3254872 3.2370624 0 0 1.810708,0.4851 z m -4.591663,2.65099 a 1.3254872,1.3254872 3.2370624 0 0 0.485161,-1.81063 1.3254872,1.3254872 3.2370624 0 0 -1.810614,-0.48514 1.3254872,1.3254872 3.2370624 0 0 -0.485159,1.81064 1.3254872,1.3254872 3.2370624 0 0 1.810612,0.48513 z m -4.591611,2.651 a 1.3254872,1.3254872 3.2370624 0 0 0.485152,-1.81065 1.3254872,1.3254872 3.2370624 0 0 -1.810642,-0.48514 1.3254872,1.3254872 3.2370624 0 0 -0.485155,1.81061 1.3254872,1.3254872 3.2370624 0 0 1.810645,0.48518 z m -4.591656,2.65097 a 1.3254872,1.3254872 3.2370624 0 0 0.485236,-1.81066 1.3254872,1.3254872 3.2370624 0 0 -1.810719,-0.48514 1.3254872,1.3254872 3.2370624 0 0 -0.485157,1.81064 1.3254872,1.3254872 3.2370624 0 0 1.81064,0.48516 z m -4.591571,2.65095 a 1.3254872,1.3254872 3.2370624 0 0 0.485153,-1.81063 1.3254872,1.3254872 3.2370624 0 0 -1.810642,-0.48516 1.3254872,1.3254872 3.2370624 0 0 -0.48522,1.81068 1.3254872,1.3254872 3.2370624 0 0 1.810709,0.48511 z m 19.336815,-14.22518 a 1.3254872,1.3254872 3.2370624 0 0 0.485179,-1.81059 1.3254872,1.3254872 3.2370624 0 0 -1.810665,-0.4852 1.3254872,1.3254872 3.2370624 0 0 -0.485171,1.81064 1.3254872,1.3254872 3.2370624 0 0 1.810657,0.48515 z m -4.591643,2.65101 a 1.3254872,1.3254872 3.2370624 0 0 0.485144,-1.81063 1.3254872,1.3254872 3.2370624 0 0 -1.810631,-0.48516 1.3254872,1.3254872 3.2370624 0 0 -0.485126,1.81066 1.3254872,1.3254872 3.2370624 0 0 1.810613,0.48513 z m -4.591649,2.65095 a 1.3254872,1.3254872 3.2370624 0 0 0.485219,-1.81064 1.3254872,1.3254872 3.2370624 0 0 -1.810673,-0.48511 1.3254872,1.3254872 3.2370624 0 0 -0.48518,1.81062 1.3254872,1.3254872 3.2370624 0 0 1.810634,0.48513 z m -4.591565,2.65098 a 1.3254872,1.3254872 3.2370624 0 0 0.485142,-1.81064 1.3254872,1.3254872 3.2370624 0 0 -1.81061,-0.48516 1.3254872,1.3254872 3.2370624 0 0 -0.485196,1.81064 1.3254872,1.3254872 3.2370624 0 0 1.810664,0.48516 z" />
    </g>
  </g>
</svg>
