<?xml version="1.0" encoding="UTF-8" standalone="no"?>
<!-- Created with Inkscape (http://www.inkscape.org/) -->

<svg
   width="120mm"
   height="120mm"
   viewBox="0 0 120 120"
   version="1.1"
   id="svg5"
   inkscape:version="1.1 (c68e22c387, 2021-05-23)"
   sodipodi:docname="gossamer.svg"
   xmlns:inkscape="http://www.inkscape.org/namespaces/inkscape"
   xmlns:sodipodi="http://sodipodi.sourceforge.net/DTD/sodipodi-0.dtd"
   xmlns:xlink="http://www.w3.org/1999/xlink"
   xmlns="http://www.w3.org/2000/svg"
   xmlns:svg="http://www.w3.org/2000/svg">
  <sodipodi:namedview
     id="namedview7"
     pagecolor="#ffffff"
     bordercolor="#111111"
     borderopacity="1"
     inkscape:pageshadow="0"
     inkscape:pageopacity="0"
     inkscape:pagecheckerboard="1"
     inkscape:document-units="mm"
     showgrid="false"
     inkscape:snap-object-midpoints="true"
     fit-margin-top="0"
     fit-margin-left="0"
     fit-margin-right="0"
     fit-margin-bottom="0"
     inkscape:zoom="0.49071405"
     inkscape:cx="276.12822"
     inkscape:cy="284.27961"
     inkscape:window-width="4498"
     inkscape:window-height="2978"
     inkscape:window-x="0"
     inkscape:window-y="20"
     inkscape:window-maximized="1"
     inkscape:current-layer="layer1">
    <inkscape:grid
       type="xygrid"
       id="grid6609"
       dotted="true"
       originx="-30"
       originy="-90.000001" />
  </sodipodi:namedview>
  <defs
     id="defs2">
    <linearGradient
       inkscape:collect="always"
       id="linearGradient16008">
      <stop
         style="stop-color:#ffcf60;stop-opacity:1;"
         offset="0"
         id="stop16004" />
      <stop
         style="stop-color:#758f00;stop-opacity:1"
         offset="1"
         id="stop16006" />
    </linearGradient>
    <radialGradient
       inkscape:collect="always"
       xlink:href="#linearGradient16008"
       id="radialGradient16010"
       cx="61.046249"
       cy="209.16383"
       fx="61.046249"
       fy="209.16383"
       r="66.330795"
       gradientUnits="userSpaceOnUse"
       gradientTransform="matrix(1.0171605,-1.7956195,2.6568115,1.5049338,-556.7564,4.0019493)" />
    <clipPath
       clipPathUnits="userSpaceOnUse"
       id="clipPath18521">
      <circle
         style="mix-blend-mode:normal;fill:none;fill-opacity:1;stroke-width:0.2;stop-color:#000000"
         id="circle18523"
         cx="90"
         cy="150"
         r="66.330795" />
    </clipPath>
  </defs>
  <g
     inkscape:label="Layer 1"
     inkscape:groupmode="layer"
     id="layer1"
     transform="translate(-30,-90)">
    <g
       id="g18479"
       clip-path="url(#clipPath18521)"
       transform="matrix(0.90455722,0,0,0.90455722,8.5898499,14.316417)">
      <circle
         style="mix-blend-mode:normal;fill:url(#radialGradient16010);fill-opacity:1;stroke-width:0.2;stop-color:#000000"
         id="path846"
         cx="90"
         cy="150"
         r="66.330795" />
      <path
         id="path8471-6"
         style="opacity:0.250816;mix-blend-mode:normal;fill:#000000;fill-opacity:0.999653;stroke:none;stroke-width:0.103051px;stroke-linecap:butt;stroke-linejoin:miter;stroke-opacity:1"
         d="m 125.45292,107.12768 c -3.79918,0.0586 -9.46837,2.61917 -18.24695,11.39776 -16.524407,16.52439 -71.606196,71.60574 -68.852134,74.3598 l 5.508191,5.50767 5.507672,5.50819 c 2.754072,2.75407 57.835421,-52.32721 74.359811,-68.85161 16.5244,-16.5244 11.0166,-22.03253 8.26254,-24.7866 -1.29096,-1.29097 -3.18692,-3.18691 -6.53913,-3.13521 z m -10.97453,15.20734 c 0.1071,0.002 0.2131,0.008 0.31833,0.016 0.10523,0.008 0.20976,0.0199 0.31316,0.0346 0.1034,0.0147 0.20586,0.0322 0.30747,0.0532 0.10161,0.0209 0.20244,0.045 0.30231,0.0724 0.0999,0.0272 0.19897,0.0578 0.29714,0.0915 0.0982,0.0336 0.19547,0.0701 0.29197,0.11007 0.0965,0.04 0.19191,0.0838 0.28681,0.13022 0.0949,0.0465 0.18883,0.0959 0.28215,0.14883 0.0933,0.053 0.18624,0.10947 0.27802,0.16898 0.0918,0.0595 0.18256,0.12202 0.27285,0.1881 0.0903,0.0661 0.17989,0.13556 0.26872,0.20826 0.0888,0.0727 0.17714,0.14853 0.26458,0.22789 0.0874,0.0794 0.17386,0.16251 0.25993,0.24857 0.086,0.086 0.16876,0.1726 0.24805,0.25993 0.0794,0.0874 0.1557,0.17574 0.22841,0.26458 0.0727,0.0888 0.14217,0.17843 0.20826,0.26872 0.0661,0.0903 0.12859,0.18107 0.1881,0.27285 0.0595,0.0918 0.11601,0.18419 0.16898,0.2775 0.053,0.0933 0.10234,0.18777 0.14883,0.28268 0.0465,0.0949 0.0897,0.1903 0.12971,0.2868 0.04,0.0965 0.0769,0.1938 0.11058,0.29197 0.0336,0.0982 0.0643,0.19727 0.0915,0.29714 0.0273,0.0999 0.0509,0.2007 0.0718,0.30231 0.0209,0.10162 0.0391,0.20407 0.0537,0.30747 0.0146,0.1034 0.0262,0.20793 0.0346,0.31316 0.008,0.10523 0.0133,0.21123 0.0155,0.31833 0.002,0.1071 0.001,0.215 -0.003,0.32401 -0.004,0.109 -0.0111,0.21925 -0.0212,0.33021 -0.0101,0.11096 -0.0231,0.22242 -0.0393,0.33538 -0.0161,0.11296 -0.0353,0.2271 -0.0574,0.3421 -0.0222,0.115 -0.0478,0.23123 -0.076,0.3483 -0.0281,0.11708 -0.0589,0.2353 -0.093,0.3545 -0.0341,0.1192 -0.0716,0.23934 -0.11162,0.3607 -0.04,0.12137 -0.0828,0.24385 -0.12867,0.36742 -0.0459,0.12357 -0.0946,0.24832 -0.14625,0.37414 -0.0517,0.12582 -0.10634,0.25274 -0.16381,0.38085 -0.0575,0.12811 -0.11767,0.25714 -0.18087,0.38758 -0.0632,0.13045 -0.12954,0.26198 -0.19844,0.39481 -0.0689,0.13281 -0.14042,0.2668 -0.21497,0.40204 -0.0746,0.13523 -0.15187,0.2721 -0.23203,0.40979 -0.0802,0.13769 -0.16284,0.27631 -0.24856,0.41651 -0.17146,0.28038 -0.3543,0.56616 -0.54777,0.8568 -0.19348,0.29064 -0.39772,0.58605 -0.61288,0.88728 -0.21516,0.30123 -0.44149,0.60821 -0.678,0.92036 -0.23651,0.31215 -0.48351,0.6295 -0.74104,0.95291 -0.25752,0.32341 -0.52537,0.65253 -0.80357,0.98754 -0.2782,0.33502 -0.56653,0.67624 -0.86506,1.02319 -0.29854,0.34694 -0.60699,0.69963 -0.92553,1.05885 -0.31854,0.35922 -0.64725,0.72476 -0.98547,1.09658 -0.3382,0.37183 -0.68632,0.75005 -1.04386,1.13481 -0.35753,0.38478 -0.72418,0.77605 -1.10071,1.17409 -0.37653,0.39806 -0.76288,0.80273 -1.15807,1.2144 -0.39519,0.41166 -0.79933,0.83064 -1.21284,1.25625 -0.82703,0.85123 -1.69069,1.73057 -2.58899,2.63963 -0.89829,0.90907 -1.83139,1.84784 -2.79828,2.8174 -0.96684,0.96961 -1.967557,1.97014 -3.000334,3.00292 -0.516386,0.51639 -1.029738,1.02426 -1.540479,1.52445 -0.510781,0.50014 -1.018802,0.99262 -1.523421,1.4764 -0.504621,0.48378 -1.005806,0.95905 -1.503786,1.42627 -0.49798,0.46721 -0.992788,0.92617 -1.48363,1.37666 -0.490839,0.45049 -0.977701,0.89242 -1.460891,1.32602 -0.48319,0.4336 -0.962599,0.85884 -1.43764,1.27537 -0.47503,0.41654 -0.945946,0.82439 -1.412317,1.2237 -0.466378,0.39931 -0.928224,0.79011 -1.385443,1.17202 -0.45721,0.38192 -0.909992,0.75497 -1.35754,1.11931 -0.447551,0.36435 -0.889672,0.71999 -1.327052,1.0666 -0.43738,0.34661 -0.869863,0.68415 -1.296561,1.01286 -0.42671,0.32872 -0.847958,0.64846 -1.263489,0.95911 -0.415541,0.31064 -0.825542,0.61246 -1.229384,0.90486 -0.403849,0.2924 -0.801547,0.57557 -1.193207,0.84956 -0.39166,0.27399 -0.777023,0.53885 -1.156002,0.79427 -0.37897,0.25542 -0.751464,0.50127 -1.117245,0.73794 -0.365771,0.23668 -0.724855,0.46384 -1.076936,0.68161 -0.352071,0.21776 -0.69722,0.42608 -1.035079,0.62477 -0.337871,0.19869 -0.66851,0.38796 -0.991672,0.5674 -0.323159,0.17944 -0.638762,0.34899 -0.946711,0.50902 -0.307951,0.16003 -0.607973,0.31018 -0.900205,0.45061 -0.29223,0.14046 -0.576641,0.27154 -0.85266,0.39223 -0.276,0.12069 -0.543761,0.23099 -0.803052,0.33176 -0.259289,0.10078 -0.51035,0.19166 -0.752409,0.27234 -0.121021,0.0404 -0.239419,0.0784 -0.35605,0.11369 -0.11662,0.0353 -0.231489,0.068 -0.343649,0.0982 -0.112159,0.0302 -0.222054,0.0581 -0.329694,0.0832 -0.10763,0.0251 -0.212694,0.0477 -0.315743,0.0677 -0.10304,0.02 -0.203917,0.0374 -0.302308,0.0522 -0.0984,0.0149 -0.194686,0.027 -0.288354,0.0367 -0.0937,0.01 -0.18447,0.0166 -0.27337,0.0212 -0.0889,0.005 -0.175881,0.007 -0.259932,0.006 -0.084,-6.7e-4 -0.16529,-0.004 -0.24443,-0.01 -0.0791,-0.006 -0.155789,-0.0147 -0.22996,-0.0258 -0.0742,-0.0111 -0.145833,-0.0249 -0.214974,-0.0413 -0.0691,-0.0164 -0.135937,-0.0351 -0.199988,-0.0568 -0.064,-0.0217 -0.125087,-0.0464 -0.183967,-0.0734 -0.0589,-0.027 -0.115321,-0.0565 -0.168981,-0.0889 -0.0537,-0.0323 -0.105101,-0.0673 -0.15348,-0.1049 -0.0483,-0.0376 -0.09345,-0.078 -0.136424,-0.12092 -0.043,-0.043 -0.08383,-0.0886 -0.121441,-0.13695 -0.0377,-0.0484 -0.0721,-0.0993 -0.104387,-0.15296 -0.0323,-0.0537 -0.0624,-0.11009 -0.0894,-0.16898 -0.027,-0.0589 -0.05117,-0.12045 -0.07286,-0.18449 -0.0217,-0.064 -0.04044,-0.13083 -0.05684,-0.19998 -0.0164,-0.0691 -0.03014,-0.1408 -0.04134,-0.21498 -0.0111,-0.0742 -0.01994,-0.15082 -0.02584,-0.22996 -0.006,-0.0791 -0.0088,-0.16089 -0.0098,-0.24494 -6.7e-4,-0.084 6.85e-4,-0.17053 0.0057,-0.25942 0.004,-0.0889 0.01211,-0.18022 0.02171,-0.27389 0.01,-0.0937 0.02179,-0.18944 0.03669,-0.28783 0.0149,-0.0984 0.03219,-0.19926 0.05219,-0.30231 0.02,-0.10304 0.0426,-0.20811 0.0677,-0.31574 0.0251,-0.10763 0.053,-0.21754 0.0832,-0.3297 0.0302,-0.11217 0.06289,-0.2265 0.09819,-0.34313 0.0353,-0.11662 0.07284,-0.23554 0.11317,-0.35657 0.0807,-0.24206 0.171556,-0.49312 0.272336,-0.75241 0.100769,-0.25929 0.211579,-0.52704 0.33228,-0.80305 0.120689,-0.27601 0.251267,-0.56043 0.391707,-0.85266 0.140439,-0.29224 0.291116,-0.59225 0.451136,-0.9002 0.160028,-0.30795 0.329573,-0.62355 0.509011,-0.94671 0.179451,-0.32316 0.368718,-0.65381 0.567409,-0.99168 0.198689,-0.33787 0.407006,-0.683 0.624766,-1.03507 0.217771,-0.35208 0.444416,-0.71116 0.681096,-1.07694 0.23668,-0.36577 0.483047,-0.73827 0.738457,-1.11725 0.255429,-0.37896 0.520266,-0.76433 0.794266,-1.156 0.274011,-0.39164 0.55716,-0.78936 0.849561,-1.19321 0.29241,-0.40385 0.593699,-0.81385 0.904338,-1.22938 0.31064,-0.41553 0.63092,-0.83678 0.959631,-1.26349 0.32871,-0.42671 0.666239,-0.85918 1.012859,-1.29656 0.34661,-0.43739 0.70226,-0.87949 1.066602,-1.32705 0.36435,-0.44755 0.737401,-0.90031 1.119309,-1.35754 0.381921,-0.45721 0.772205,-0.91906 1.171506,-1.38544 0.399309,-0.46637 0.807675,-0.93728 1.224214,-1.41232 0.416541,-0.47503 0.841775,-0.95446 1.275374,-1.43764 0.433601,-0.4832 0.875527,-0.97005 1.326017,-1.46089 0.450501,-0.49083 0.909442,-0.98565 1.376662,-1.48363 0.467219,-0.49798 0.942498,-0.99917 1.426268,-1.50379 0.48378,-0.50462 0.97572,-1.01267 1.47588,-1.52342 0.50015,-0.51078 1.008592,-1.02408 1.524971,-1.54047 1.03278,-1.03277 2.033318,-2.03348 3.002918,-3.00034 0.969539,-0.96691 1.908328,-1.89999 2.817399,-2.79828 0.909069,-0.89827 1.788401,-1.76195 2.639632,-2.58899 0.425619,-0.4135 0.844068,-0.81766 1.255736,-1.21284 0.41166,-0.3952 0.816864,-0.78102 1.214914,-1.15755 0.398048,-0.37653 0.789315,-0.74369 1.174092,-1.10123 0.38477,-0.35754 0.76299,-0.70565 1.13481,-1.04386 0.37183,-0.3382 0.73684,-0.66641 1.09606,-0.98495 0.35922,-0.31854 0.71242,-0.62751 1.05937,-0.92605 0.34695,-0.29854 0.68817,-0.58686 1.02319,-0.86506 0.33501,-0.27819 0.66413,-0.54605 0.98754,-0.80357 0.32342,-0.25752 0.64076,-0.50453 0.95291,-0.74104 0.31215,-0.23651 0.61913,-0.46283 0.92036,-0.67799 0.30122,-0.21516 0.59664,-0.41941 0.88728,-0.61289 0.29063,-0.19347 0.57642,-0.37632 0.8568,-0.54777 0.14019,-0.0857 0.27883,-0.16839 0.41651,-0.24856 0.1377,-0.0802 0.27405,-0.15748 0.40928,-0.23202 0.13523,-0.0745 0.26922,-0.14608 0.40204,-0.21498 0.13281,-0.0689 0.26489,-0.13523 0.39533,-0.19844 0.13045,-0.0632 0.25946,-0.12339 0.38757,-0.18087 0.1281,-0.0575 0.25504,-0.11212 0.38085,-0.16381 0.12583,-0.0517 0.25058,-0.10037 0.37414,-0.14624 0.12358,-0.0459 0.24606,-0.0892 0.36742,-0.1292 0.12137,-0.04 0.2415,-0.0769 0.3607,-0.1111 0.11921,-0.0341 0.23743,-0.0654 0.3545,-0.0935 0.11708,-0.0281 0.23331,-0.0533 0.3483,-0.0755 0.115,-0.0222 0.22862,-0.0407 0.34158,-0.0568 0.11295,-0.0161 0.22493,-0.0298 0.3359,-0.0398 0.11096,-0.0101 0.2212,-0.0168 0.33021,-0.0207 0.10901,-0.004 0.21691,-0.005 0.32401,-0.003 z" />
      <path
         id="path8471"
         style="opacity:1;mix-blend-mode:normal;fill:#49a1e1;fill-opacity:1;stroke:none;stroke-width:0.103051px;stroke-linecap:butt;stroke-linejoin:miter;stroke-opacity:1"
         d="m 128.13014,111.86985 c -2.75406,-2.75407 -8.26211,-8.26214 -24.7865,8.26226 -16.524401,16.52439 -71.605787,71.60574 -68.851727,74.3598 l 5.508085,5.50808 22.032608,-22.0326 c -0.04304,-0.043 -0.08346,-0.0887 -0.121116,-0.13706 -0.03767,-0.0484 -0.07258,-0.0993 -0.104888,-0.15299 -0.03232,-0.0537 -0.06196,-0.11005 -0.08895,-0.16894 -0.02699,-0.0589 -0.05132,-0.12026 -0.07301,-0.1843 -0.02168,-0.064 -0.04067,-0.13082 -0.05707,-0.19997 -0.0164,-0.0691 -0.03013,-0.14072 -0.04127,-0.2149 -0.01113,-0.0742 -0.01972,-0.15085 -0.02562,-0.22999 -0.0059,-0.0791 -0.0093,-0.16074 -0.01,-0.24479 -6.71e-4,-0.084 0.0013,-0.17056 0.0058,-0.25945 0.0045,-0.0889 0.01165,-0.18015 0.02135,-0.27382 0.0097,-0.0937 0.02214,-0.18967 0.03701,-0.28806 0.01487,-0.0984 0.03222,-0.1991 0.05223,-0.30215 0.02,-0.10304 0.04248,-0.20846 0.0676,-0.31609 0.02513,-0.10763 0.0529,-0.21745 0.08312,-0.32961 0.03021,-0.11217 0.06291,-0.22665 0.0982,-0.34328 0.03529,-0.11662 0.07309,-0.23548 0.113428,-0.35651 0.08068,-0.24206 0.171485,-0.49288 0.272264,-0.75216 0.10077,-0.25929 0.211618,-0.52711 0.332315,-0.80312 0.12069,-0.27601 0.25122,-0.56026 0.391666,-0.85249 0.140439,-0.29224 0.290843,-0.59237 0.45087,-0.90032 0.160027,-0.30795 0.329779,-0.62356 0.509218,-0.94672 0.179447,-0.32316 0.368461,-0.65396 0.567152,-0.99183 0.198683,-0.33787 0.407017,-0.68288 0.624782,-1.03495 0.217766,-0.35208 0.4449,-0.71116 0.681572,-1.07694 0.236679,-0.36577 0.482941,-0.73824 0.738358,-1.11722 0.255425,-0.37896 0.520009,-0.7644 0.794003,-1.15607 0.274009,-0.39164 0.557394,-0.7895 0.849797,-1.19335 0.292402,-0.40385 0.593805,-0.81369 0.904446,-1.22922 0.310642,-0.41553 0.630533,-0.83681 0.959239,-1.26352 0.328712,-0.42671 0.666425,-0.85887 1.01304,-1.29625 0.346607,-0.43739 0.702058,-0.87987 1.0664,-1.32743 0.364348,-0.44755 0.737586,-0.90022 1.119492,-1.35745 0.381914,-0.45721 0.77242,-0.9191 1.171723,-1.38549 0.39931,-0.46637 0.807279,-0.9372 1.223817,-1.41224 0.416539,-0.47503 0.841727,-0.95439 1.275331,-1.43757 0.433598,-0.4832 0.875645,-0.97023 1.326139,-1.46107 0.450497,-0.49083 0.90945,-0.98542 1.376666,-1.4834 0.467218,-0.49798 0.942702,-0.99928 1.426474,-1.5039 0.483778,-0.50462 0.975842,-1.0125 1.476004,-1.52325 0.500142,-0.51078 1.008432,-1.02438 1.524819,-1.54077 1.032775,-1.03277 2.033251,-2.03336 3.002847,-3.00022 0.969538,-0.96691 1.908313,-1.90001 2.817376,-2.7983 0.90907,-0.89828 1.788523,-1.76178 2.639756,-2.58881 0.425613,-0.41351 0.844168,-0.81795 1.255837,-1.21313 0.411662,-0.3952 0.816506,-0.78111 1.21456,-1.15764 0.398045,-0.37653 0.789227,-0.74359 1.174,-1.10113 0.384765,-0.35754 0.763035,-0.70557 1.134862,-1.04378 0.371827,-0.3382 0.737214,-0.6666 1.096438,-0.98514 0.359216,-0.31854 0.71234,-0.62725 1.059289,-0.92579 0.346949,-0.29854 0.687838,-0.58697 1.022858,-0.86517 0.33501,-0.27819 0.66414,-0.54616 0.98755,-0.80368 0.32342,-0.25752 0.64098,-0.50455 0.95313,-0.74106 0.31215,-0.23651 0.61887,-0.46243 0.9201,-0.67759 0.30122,-0.21516 0.59701,-0.4195 0.88765,-0.61297 0.29063,-0.19348 0.5761,-0.3762 0.85648,-0.54765 0.14019,-0.0857 0.27903,-0.16861 0.41671,-0.24878 0.1377,-0.0802 0.27423,-0.15757 0.40946,-0.23212 0.13523,-0.0745 0.26924,-0.14615 0.40206,-0.21505 0.13281,-0.0689 0.2645,-0.13504 0.39493,-0.19825 0.13045,-0.0632 0.25958,-0.12356 0.38769,-0.18103 0.1281,-0.0575 0.25517,-0.11212 0.38098,-0.16381 0.12583,-0.0517 0.25046,-0.10044 0.37402,-0.14631 0.12358,-0.0459 0.24597,-0.0888 0.36733,-0.1288 0.12137,-0.04 0.24158,-0.077 0.36078,-0.11115 0.11921,-0.0341 0.23745,-0.0654 0.35452,-0.0935 0.11708,-0.0281 0.23313,-0.0532 0.34812,-0.0754 0.115,-0.0222 0.22904,-0.0412 0.342,-0.0573 0.11295,-0.0161 0.22476,-0.0294 0.33573,-0.0394 0.11096,-0.0101 0.22103,-0.017 0.33004,-0.0209 0.10901,-0.004 0.21696,-0.005 0.32406,-0.003 0.1071,0.002 0.21329,0.008 0.31852,0.016 0.10523,0.008 0.20956,0.0199 0.31296,0.0346 0.1034,0.0147 0.20594,0.0324 0.30755,0.0534 0.10161,0.0209 0.20228,0.0449 0.30215,0.0722 0.0999,0.0272 0.199,0.0577 0.29717,0.0914 0.0982,0.0336 0.19539,0.0703 0.29189,0.11029 0.0965,0.04 0.19217,0.0835 0.28707,0.12994 0.0949,0.0465 0.18904,0.0962 0.28236,0.14915 0.0933,0.053 0.18588,0.10914 0.27766,0.16865 0.0918,0.0595 0.18268,0.12235 0.27297,0.18843 0.0903,0.0661 0.17987,0.13538 0.2687,0.20808 0.0888,0.0727 0.177,0.14863 0.26444,0.22799 0.0874,0.0794 0.17409,0.16215 0.26016,0.24821 z" />
      <path
         style="opacity:0.648613;mix-blend-mode:normal;fill:#520000;fill-opacity:1;stroke:none;stroke-width:0.404401px;stroke-linecap:butt;stroke-linejoin:miter;stroke-opacity:1"
         d="M 52.443557,85.735177 C 125.14718,98.588143 88.795377,188.55887 161.499,201.41184 L 143.32309,214.2648 C 70.619467,201.41184 106.97127,111.44108 34.267647,98.588143 Z"
         id="path8745-7"
         sodipodi:nodetypes="ccccc" />
      <path
         style="opacity:0.648613;mix-blend-mode:normal;fill:#f50000;fill-opacity:1;stroke:none;stroke-width:0.404401px;stroke-linecap:butt;stroke-linejoin:miter;stroke-opacity:1"
         d="M 36.147726,85.735177 C 108.85138,98.588143 72.499546,188.55889 145.2032,201.41186 l -18.17591,12.85296 C 54.323636,201.41186 90.675466,111.44111 17.971816,98.588143 Z"
         id="path8745-3"
         sodipodi:nodetypes="ccccc" />
      <path
         style="opacity:0.648613;mix-blend-mode:normal;fill:#aa0000;stroke:none;stroke-width:0.404401px;stroke-linecap:butt;stroke-linejoin:miter;stroke-opacity:1"
         d="M 44.560225,85.735177 C 117.26387,98.588143 80.912045,188.55889 153.61569,201.41186 l -18.17591,12.85296 C 62.736135,201.41186 99.087965,111.44111 26.384315,98.588143 Z"
         id="path8745"
         sodipodi:nodetypes="ccccc" />
      <path
         id="path8669"
         style="opacity:1;mix-blend-mode:normal;fill:#103f61;fill-opacity:1;stroke:none;stroke-width:0.103051px;stroke-linecap:butt;stroke-linejoin:miter;stroke-opacity:1"
         d="m 128.13014,111.86985 -13.77034,13.77034 c 0.0861,0.0861 0.16884,0.17274 0.24821,0.26016 0.0794,0.0874 0.15529,0.17559 0.228,0.26443 0.0727,0.0888 0.14212,0.17855 0.20821,0.26884 0.0661,0.0903 0.12892,0.18119 0.18843,0.27297 0.0595,0.0918 0.11568,0.18436 0.16865,0.27767 0.053,0.0933 0.10267,0.18747 0.14916,0.28237 0.0465,0.0949 0.0898,0.19041 0.12979,0.28691 0.04,0.0965 0.0768,0.19388 0.11044,0.29205 0.0336,0.0982 0.064,0.19714 0.0912,0.29701 0.0273,0.0999 0.0514,0.20068 0.0723,0.30229 0.0209,0.10162 0.0387,0.20416 0.0534,0.30756 0.0146,0.1034 0.0262,0.20773 0.0346,0.31296 0.008,0.10523 0.0136,0.21127 0.0158,0.31837 0.002,0.1071 10e-4,0.2152 -0.003,0.32421 -0.004,0.109 -0.011,0.21894 -0.0211,0.3299 -0.0101,0.11096 -0.0231,0.22291 -0.0393,0.33587 -0.0161,0.11296 -0.0352,0.227 -0.0573,0.342 -0.0222,0.115 -0.0474,0.2309 -0.0756,0.34797 -0.0281,0.11708 -0.0594,0.23532 -0.0935,0.35452 -0.0341,0.1192 -0.0711,0.23942 -0.11116,0.36078 -0.04,0.12137 -0.0829,0.24376 -0.1288,0.36733 -0.0459,0.12357 -0.0945,0.24834 -0.14616,0.37416 -0.0517,0.12582 -0.10648,0.25274 -0.16395,0.38085 -0.0575,0.12811 -0.11769,0.25738 -0.18089,0.38782 -0.0632,0.13045 -0.12935,0.26212 -0.19825,0.39494 -0.0689,0.13282 -0.1405,0.26682 -0.21505,0.40206 -0.0746,0.13523 -0.1521,0.27162 -0.23226,0.40931 -0.0802,0.13769 -0.16291,0.27666 -0.24863,0.41686 -0.17146,0.28038 -0.35418,0.56584 -0.54765,0.85648 -0.19348,0.29064 -0.39782,0.58642 -0.61298,0.88765 -0.21516,0.30123 -0.44122,0.60781 -0.67773,0.91996 -0.23651,0.31215 -0.48339,0.62985 -0.74092,0.95326 -0.25752,0.32341 -0.52548,0.65255 -0.80368,0.98756 -0.2782,0.33502 -0.56663,0.67591 -0.86516,1.02286 -0.29854,0.34694 -0.60726,0.70007 -0.9258,1.05929 -0.31854,0.35922 -0.64693,0.72461 -0.98514,1.09643 -0.33821,0.37183 -0.68624,0.7501 -1.04378,1.13486 -0.35753,0.38478 -0.7246,0.77596 -1.10113,1.174 -0.37653,0.39806 -0.76244,0.8029 -1.15763,1.21457 -0.39519,0.41166 -0.79963,0.83022 -1.21314,1.25583 -0.82703,0.85123 -1.69051,1.7307 -2.58881,2.63976 -0.898287,0.90907 -1.831553,1.84767 -2.798446,2.81723 -0.966842,0.96961 -1.967303,1.97021 -3.000078,3.00299 -0.516387,0.51639 -1.030025,1.02463 -1.540762,1.52482 -0.510779,0.50014 -1.018633,0.99222 -1.523252,1.476 -0.504619,0.48378 -1.006059,0.95912 -1.504041,1.42634 -0.497982,0.46721 -0.992567,0.92617 -1.483403,1.37666 -0.490842,0.45049 -0.977877,0.89254 -1.461062,1.32614 -0.483191,0.4336 -0.962542,0.8588 -1.437579,1.27533 -0.475036,0.41654 -0.945869,0.8245 -1.412246,1.22381 -0.466378,0.39931 -0.928127,0.78996 -1.385343,1.17187 -0.457215,0.38192 -0.909901,0.75515 -1.35745,1.11949 -0.447557,0.36435 -0.890041,0.7198 -1.327421,1.06641 -0.437386,0.34661 -0.86955,0.68432 -1.296256,1.01303 -0.426705,0.32872 -0.848131,0.64846 -1.263659,0.95911 -0.415535,0.31063 -0.825234,0.61218 -1.229081,0.90458 -0.403847,0.2924 -0.801839,0.57566 -1.1935,0.84965 -0.391661,0.27399 -0.776951,0.53873 -1.155924,0.79415 -0.378972,0.25542 -0.75158,0.50154 -1.117359,0.73821 -0.365773,0.23668 -0.724717,0.46395 -1.076793,0.68172 -0.352076,0.21776 -0.697227,0.42595 -1.035095,0.62464 -0.337869,0.19869 -0.668523,0.38785 -0.991688,0.56729 -0.323163,0.17944 -0.638769,0.34919 -0.946717,0.50922 -0.307949,0.16003 -0.608228,0.31029 -0.900459,0.45073 -0.29223,0.14045 -0.576344,0.27112 -0.852359,0.39181 -0.276008,0.12069 -0.543967,0.2314 -0.803254,0.33217 -0.259289,0.10078 -0.510108,0.19158 -0.752166,0.27226 -0.121025,0.0404 -0.239743,0.0783 -0.356369,0.11357 -0.116625,0.0353 -0.231111,0.068 -0.343273,0.0982 -0.112162,0.0302 -0.222125,0.0579 -0.329759,0.083 -0.107634,0.0251 -0.212906,0.0477 -0.31595,0.0677 -0.103042,0.02 -0.203754,0.0374 -0.302142,0.0522 -0.09839,0.0149 -0.194529,0.0271 -0.288206,0.0368 -0.09366,0.01 -0.184929,0.0168 -0.273822,0.0214 -0.08888,0.005 -0.175402,0.007 -0.259448,0.006 -0.08404,-6.7e-4 -0.165507,-0.004 -0.244649,-0.01 -0.07914,-0.006 -0.155814,-0.0145 -0.229989,-0.0256 -0.07417,-0.0111 -0.145766,-0.0249 -0.214903,-0.0413 -0.06914,-0.0164 -0.135914,-0.0354 -0.199962,-0.0571 -0.06404,-0.0217 -0.125421,-0.046 -0.184303,-0.073 -0.05889,-0.027 -0.115272,-0.0566 -0.168932,-0.089 -0.05367,-0.0323 -0.104758,-0.0674 -0.153138,-0.10503 -0.04838,-0.0377 -0.09403,-0.0781 -0.137055,-0.12112 l -22.032607,22.03261 5.508223,5.50822 c 2.754068,2.75407 57.835407,-52.32732 74.359797,-68.85172 16.5244,-16.5244 11.01619,-22.03258 8.26213,-24.78665 z" />
    </g>
  </g>
</svg>
