<?xml version="1.0" encoding="UTF-8" standalone="no"?>
<!-- Created with Inkscape (http://www.inkscape.org/) -->

<svg
   width="120mm"
   height="120mm"
   viewBox="0 0 120 120"
   version="1.1"
   id="svg5"
   inkscape:version="1.2.2 (b0a8486541, 2022-12-01)"
   sodipodi:docname="logo.svg"
   xmlns:inkscape="http://www.inkscape.org/namespaces/inkscape"
   xmlns:sodipodi="http://sodipodi.sourceforge.net/DTD/sodipodi-0.dtd"
   xmlns:xlink="http://www.w3.org/1999/xlink"
   xmlns="http://www.w3.org/2000/svg"
   xmlns:svg="http://www.w3.org/2000/svg">
  <sodipodi:namedview
     id="namedview7"
     pagecolor="#ffffff"
     bordercolor="#111111"
     borderopacity="1"
     inkscape:showpageshadow="0"
     inkscape:pageopacity="0"
     inkscape:pagecheckerboard="1"
     inkscape:deskcolor="#d1d1d1"
     inkscape:document-units="mm"
     showgrid="false"
     inkscape:zoom="0.5946522"
     inkscape:cx="208.52525"
     inkscape:cy="234.59091"
     inkscape:window-width="4500"
     inkscape:window-height="2983"
     inkscape:window-x="0"
     inkscape:window-y="17"
     inkscape:window-maximized="1"
     inkscape:current-layer="layer1">
    <inkscape:grid
       type="xygrid"
       id="grid132"
       dotted="true"
       originx="-51.587487"
       originy="-87.354204" />
  </sodipodi:namedview>
  <defs
     id="defs2">
    <linearGradient
       inkscape:collect="always"
       id="linearGradient1270">
      <stop
         style="stop-color:#5f0134;stop-opacity:1;"
         offset="0"
         id="stop1266" />
      <stop
         style="stop-color:#013253;stop-opacity:1;"
         offset="1"
         id="stop1268" />
    </linearGradient>
    <linearGradient
       inkscape:collect="always"
       xlink:href="#linearGradient1270"
       id="linearGradient1297"
       x1="48.073395"
       y1="181.80278"
       x2="171.59499"
       y2="117.49001"
       gradientUnits="userSpaceOnUse" />
  </defs>
  <g
     inkscape:label="Layer 1"
     inkscape:groupmode="layer"
     id="layer1"
     transform="translate(-51.587487,-87.354203)">
    <g
       id="g1394"
       transform="matrix(0.99987502,0,0,0.99987502,0.01394718,0.01841761)">
      <circle
         style="opacity:1;fill:url(#linearGradient1297);fill-opacity:1;stroke:#000000;stroke-width:0.015;stop-color:#000000"
         id="path236"
         cx="111.58749"
         cy="147.3542"
         r="60" />
      <g
         id="g1305"
         style="fill:#ff336a;fill-opacity:0.728458"
         transform="rotate(2.7260155,111.40431,161.46376)">
        <path
           id="path1072"
           style="opacity:1;fill:#ff336a;fill-opacity:0.728458;stroke:none;stroke-width:0.015;stroke-opacity:1;stop-color:#000000"
           d="m 96.220281,112.34167 a 40,40 1.6800712 0 0 -26.418671,36.23261 40,40 1.6800712 0 0 38.59411,41.35789 40,40 1.6800712 0 0 41.3584,-38.59358 40,40 1.6800712 0 0 -23.84697,-37.98447 l -4.03258,9.15083 a 30.000002,30.000002 0 0 1 0.13196,0.0568 30.000002,30.000002 0 0 1 0.80661,0.37433 30.000002,30.000002 0 0 1 0.79494,0.39822 30.000002,30.000002 0 0 1 0.78275,0.42159 30.000002,30.000002 0 0 1 0.77006,0.44443 30.000002,30.000002 0 0 1 0.75636,0.46721 30.000002,30.000002 0 0 1 0.74214,0.48948 30.000002,30.000002 0 0 1 0.72743,0.51119 30.000002,30.000002 0 0 1 0.71222,0.5324 30.000002,30.000002 0 0 1 0.69597,0.55354 30.000002,30.000002 0 0 1 0.67925,0.57365 30.000002,30.000002 0 0 1 0.66201,0.59374 30.000002,30.000002 0 0 1 0.64376,0.61275 30.000002,30.000002 0 0 1 0.62553,0.63178 30.000002,30.000002 0 0 1 0.60683,0.64974 30.000002,30.000002 0 0 1 0.58704,0.66819 30.000002,30.000002 0 0 1 0.56682,0.68455 30.000002,30.000002 0 0 1 0.5466,0.70143 30.000002,30.000002 0 0 1 0.52537,0.71725 30.000002,30.000002 0 0 1 0.50415,0.73254 30.000002,30.000002 0 0 1 0.48195,0.74678 30.000002,30.000002 0 0 1 0.45973,0.76099 30.000002,30.000002 0 0 1 0.43704,0.77469 30.000002,30.000002 0 0 1 0.41335,0.78681 30.000002,30.000002 0 0 1 0.39068,0.79893 30.000002,30.000002 0 0 1 0.36652,0.81 30.000002,30.000002 0 0 1 0.34186,0.82052 30.000002,30.000002 0 0 1 0.31824,0.83057 30.000002,30.000002 0 0 1 0.29313,0.83901 30.000002,30.000002 0 0 1 0.26799,0.84795 30.000002,30.000002 0 0 1 0.24241,0.85535 30.000002,30.000002 0 0 1 0.21736,0.86223 30.000002,30.000002 0 0 1 0.1918,0.86808 30.000002,30.000002 0 0 1 0.16629,0.8734 30.000002,30.000002 0 0 1 0.13975,0.87816 30.000002,30.000002 0 0 1 0.1138,0.88141 30.000002,30.000002 0 0 1 0.0878,0.88516 30.000002,30.000002 0 0 1 0.0614,0.88684 30.000002,30.000002 0 0 1 0.0355,0.88852 30.000002,30.000002 0 0 1 0.009,0.88864 30.000002,30.000002 0 0 1 -0.0173,0.88928 30.000002,30.000002 0 0 1 -0.20447,2.6088 30.000002,30.000002 0 0 1 -0.43106,2.58184 30.000002,30.000002 0 0 1 -0.65483,2.53377 30.000002,30.000002 0 0 1 -0.87281,2.46728 30.000002,30.000002 0 0 1 -1.08444,2.38189 30.000002,30.000002 0 0 1 -1.28768,2.27818 30.000002,30.000002 0 0 1 -1.48156,2.1577 30.000002,30.000002 0 0 1 -1.66397,2.02007 30.000002,30.000002 0 0 1 -1.83399,1.86734 30.000002,30.000002 0 0 1 -1.98954,1.70012 30.000002,30.000002 0 0 1 -2.13017,1.5205 30.000002,30.000002 0 0 1 -2.25438,1.32952 30.000002,30.000002 0 0 1 -2.36219,1.12724 30.000002,30.000002 0 0 1 -2.4511,0.91735 30.000002,30.000002 0 0 1 -2.52167,0.70032 30.000002,30.000002 0 0 1 -2.57293,0.47775 30.000002,30.000002 0 0 1 -2.60493,0.25172 30.000002,30.000002 0 0 1 -2.61722,0.0238 30.000002,30.000002 0 0 1 -2.60931,-0.20449 30.000002,30.000002 0 0 1 -2.58132,-0.43104 30.000002,30.000002 0 0 1 -2.53379,-0.65431 30.000002,30.000002 0 0 1 -2.467801,-0.87283 30.000002,30.000002 0 0 1 -2.381892,-1.08444 30.000002,30.000002 0 0 1 -2.278171,-1.28768 30.000002,30.000002 0 0 1 -2.157177,-1.48206 30.000002,30.000002 0 0 1 -2.020068,-1.66398 30.000002,30.000002 0 0 1 -1.86736,-1.83347 30.000002,30.000002 0 0 1 -1.700637,-1.98955 30.000002,30.000002 0 0 1 -1.520486,-2.13017 30.000002,30.000002 0 0 1 -1.328995,-2.25488 30.000002,30.000002 0 0 1 -1.127263,-2.36167 30.000002,30.000002 0 0 1 -0.917859,-2.45112 30.000002,30.000002 0 0 1 -0.6998,-2.52166 30.000002,30.000002 0 0 1 -0.478271,-2.57294 30.000002,30.000002 0 0 1 -0.251704,-2.60544 30.000002,30.000002 0 0 1 -0.0238,-2.6167 30.000002,30.000002 0 0 1 0.204489,-2.60932 30.000002,30.000002 0 0 1 0.431033,-2.58132 30.000002,30.000002 0 0 1 0.654852,-2.53428 30.000002,30.000002 0 0 1 0.872291,-2.46732 30.000002,30.000002 0 0 1 1.084957,-2.38187 30.000002,30.000002 0 0 1 1.287683,-2.27817 30.000002,30.000002 0 0 1 1.48154,-2.15719 30.000002,30.000002 0 0 1 1.663979,-2.02007 30.000002,30.000002 0 0 1 1.833987,-1.86734 30.000002,30.000002 0 0 1 1.98955,-1.70064 30.000002,30.000002 0 0 1 2.130169,-1.52049 30.000002,30.000002 0 0 1 2.254369,-1.32901 30.000002,30.000002 0 0 1 2.361685,-1.12778 30.000002,30.000002 0 0 1 1.560808,-0.60634 z" />
        <path
           style="opacity:1;fill:#ff336a;fill-opacity:0.728458;stroke:none;stroke-width:0.264583px;stroke-linecap:butt;stroke-linejoin:miter;stroke-opacity:1"
           d="m 106.50854,99.813374 -1.7277,49.970146 9.99403,0.34553 1.72769,-49.97014 z"
           id="path1070" />
      </g>
      <g
         id="g1301"
         style="fill:#ffe908;fill-opacity:0.461816"
         transform="rotate(2.7260155,111.40431,161.46376)">
        <path
           id="path1072-3"
           style="fill:#ffe908;fill-opacity:0.461816;stroke:none;stroke-width:0.015;stroke-opacity:1;stop-color:#000000"
           d="m 93.3452,112.06889 a 40,40 1.6800712 0 0 -20.926826,39.65874 40,40 1.6800712 0 0 44.146506,35.3704 40,40 1.6800712 0 0 35.37098,-44.14607 40,40 1.6800712 0 0 -29.06734,-34.15535 l -2.67307,9.63609 a 30.000002,30.000002 0 0 1 0.13876,0.0372 30.000002,30.000002 0 0 1 0.8521,0.25428 30.000002,30.000002 0 0 1 0.84399,0.27963 30.000002,30.000002 0 0 1 0.83529,0.30449 30.000002,30.000002 0 0 1 0.82602,0.32893 30.000002,30.000002 0 0 1 0.81575,0.35345 30.000002,30.000002 0 0 1 0.80488,0.37753 30.000002,30.000002 0 0 1 0.79345,0.40114 30.000002,30.000002 0 0 1 0.78145,0.4243 30.000002,30.000002 0 0 1 0.76842,0.44757 30.000002,30.000002 0 0 1 0.75476,0.46988 30.000002,30.000002 0 0 1 0.7406,0.49225 30.000002,30.000002 0 0 1 0.72528,0.51367 30.000002,30.000002 0 0 1 0.70997,0.53514 30.000002,30.000002 0 0 1 0.69405,0.5556 30.000002,30.000002 0 0 1 0.67712,0.57671 30.000002,30.000002 0 0 1 0.65948,0.59581 30.000002,30.000002 0 0 1 0.6419,0.61543 30.000002,30.000002 0 0 1 0.62316,0.63413 30.000002,30.000002 0 0 1 0.60436,0.65232 30.000002,30.000002 0 0 1 0.58445,0.66962 30.000002,30.000002 0 0 1 0.5645,0.68687 30.000002,30.000002 0 0 1 0.54402,0.70369 30.000002,30.000002 0 0 1 0.52233,0.7191 30.000002,30.000002 0 0 1 0.50164,0.73436 30.000002,30.000002 0 0 1 0.47932,0.74879 30.000002,30.000002 0 0 1 0.45643,0.76276 30.000002,30.000002 0 0 1 0.4345,0.77609 30.000002,30.000002 0 0 1 0.41088,0.78807 30.000002,30.000002 0 0 1 0.38728,0.80054 30.000002,30.000002 0 0 1 0.36303,0.81152 30.000002,30.000002 0 0 1 0.33923,0.82197 30.000002,30.000002 0 0 1 0.3148,0.83141 30.000002,30.000002 0 0 1 0.2903,0.84035 30.000002,30.000002 0 0 1 0.26473,0.8489 30.000002,30.000002 0 0 1 0.2395,0.85584 30.000002,30.000002 0 0 1 0.21434,0.8633 30.000002,30.000002 0 0 1 0.18844,0.86877 30.000002,30.000002 0 0 1 0.16297,0.87415 30.000002,30.000002 0 0 1 0.13646,0.87814 30.000002,30.000002 0 0 1 0.11087,0.88252 30.000002,30.000002 0 0 1 0.17327,2.61105 30.000002,30.000002 0 0 1 -0.0549,2.617 30.000002,30.000002 0 0 1 -0.28321,2.60165 30.000002,30.000002 0 0 1 -0.50849,2.56724 30.000002,30.000002 0 0 1 -0.73021,2.51321 30.000002,30.000002 0 0 1 -0.94626,2.43983 30.000002,30.000002 0 0 1 -1.15547,2.34854 30.000002,30.000002 0 0 1 -1.35579,2.2386 30.000002,30.000002 0 0 1 -1.54604,2.11193 30.000002,30.000002 0 0 1 -1.72403,1.96885 30.000002,30.000002 0 0 1 -1.88906,1.81134 30.000002,30.000002 0 0 1 -2.03948,1.64025 30.000002,30.000002 0 0 1 -2.17528,1.45559 30.000002,30.000002 0 0 1 -2.29349,1.26068 30.000002,30.000002 0 0 1 -2.39457,1.05609 30.000002,30.000002 0 0 1 -2.47733,0.84321 30.000002,30.000002 0 0 1 -2.54155,0.62415 30.000002,30.000002 0 0 1 -2.58653,0.40035 30.000002,30.000002 0 0 1 -2.61157,0.17332 30.000002,30.000002 0 0 1 -2.61648,-0.0548 30.000002,30.000002 0 0 1 -2.6016,-0.28269 30.000002,30.000002 0 0 1 -2.56775,-0.50844 30.000002,30.000002 0 0 1 -2.51321,-0.73021 30.000002,30.000002 0 0 1 -2.43983,-0.94626 30.000002,30.000002 0 0 1 -2.34807,-1.15603 30.000002,30.000002 0 0 1 -2.238588,-1.35582 30.000002,30.000002 0 0 1 -2.111879,-1.5455 30.000002,30.000002 0 0 1 -1.969364,-1.72398 30.000002,30.000002 0 0 1 -1.811337,-1.88906 30.000002,30.000002 0 0 1 -1.639795,-2.04005 30.000002,30.000002 0 0 1 -1.455541,-2.17476 30.000002,30.000002 0 0 1 -1.261196,-2.29344 30.000002,30.000002 0 0 1 -1.055565,-2.39462 30.000002,30.000002 0 0 1 -0.843728,-2.47729 30.000002,30.000002 0 0 1 -0.624201,-2.54205 30.000002,30.000002 0 0 1 -0.400294,-2.58601 30.000002,30.000002 0 0 1 -0.173319,-2.61158 30.000002,30.000002 0 0 1 0.05489,-2.61647 30.000002,30.000002 0 0 1 0.283155,-2.60217 30.000002,30.000002 0 0 1 0.507971,-2.56719 30.000002,30.000002 0 0 1 0.730722,-2.51326 30.000002,30.000002 0 0 1 0.946268,-2.43983 30.000002,30.000002 0 0 1 1.155521,-2.34803 30.000002,30.000002 0 0 1 1.355803,-2.2386 30.000002,30.000002 0 0 1 1.546027,-2.11193 30.000002,30.000002 0 0 1 1.723972,-1.96936 30.000002,30.000002 0 0 1 1.889064,-1.81134 30.000002,30.000002 0 0 1 2.039533,-1.63975 30.000002,30.000002 0 0 1 2.174705,-1.45604 30.000002,30.000002 0 0 1 1.457244,-0.82475 z" />
        <path
           style="fill:#ffe908;fill-opacity:0.461816;stroke:none;stroke-width:0.264583px;stroke-linecap:butt;stroke-linejoin:miter;stroke-opacity:1"
           d="m 101.72248,98.189876 5.48477,49.698254 9.93965,-1.09696 -5.48477,-49.698236 z"
           id="path1070-6" />
      </g>
    </g>
  </g>
</svg>
