<?xml version="1.0" encoding="UTF-8" standalone="no"?>
<!-- Created with Inkscape (http://www.inkscape.org/) -->

<svg
   width="120mm"
   height="120mm"
   viewBox="0 0 120 120"
   version="1.1"
   id="svg5"
   xmlns:xlink="http://www.w3.org/1999/xlink"
   xmlns="http://www.w3.org/2000/svg"
   xmlns:svg="http://www.w3.org/2000/svg">
  <defs
     id="defs2">
    <linearGradient
       id="linearGradient1678">
      <stop
         style="stop-color:#003a11;stop-opacity:1;"
         offset="0"
         id="stop1674" />
      <stop
         style="stop-color:#005a1d;stop-opacity:1;"
         offset="1"
         id="stop1676" />
    </linearGradient>
    <linearGradient
       xlink:href="#linearGradient1678"
       id="linearGradient1680"
       x1="31.305218"
       y1="184.89441"
       x2="173.57056"
       y2="35.616833"
       gradientUnits="userSpaceOnUse" />
    <clipPath
       clipPathUnits="userSpaceOnUse"
       id="clipPath1816">
      <circle
         style="fill:none;fill-opacity:1;stroke:#000000;stroke-width:0.01;stroke-opacity:1;stop-color:#000000"
         id="circle1818"
         cx="98.096275"
         cy="108.02618"
         r="98.096275" />
    </clipPath>
  </defs>
  <g
     id="layer1"
     transform="translate(-38.096275,-48.026177)">
    <g
       id="g1814"
       clip-path="url(#clipPath1816)"
       transform="matrix(0.61164402,0,0,0.61164402,38.096275,41.952612)">
      <circle
         style="fill:url(#linearGradient1680);fill-opacity:1;stroke:none;stroke-width:0.01;stroke-opacity:1;stop-color:#000000"
         id="path1604"
         cx="98.096275"
         cy="108.02618"
         r="98.096275" />
      <path
         id="path1082-7"
         style="opacity:0.75437;mix-blend-mode:screen;fill:#ed0000;fill-opacity:1;stroke-width:0.01;stop-color:#000000"
         d="M 113.36046,48.02623 H 83.360744 v 69.99986 a 20,20 0 0 1 -0.14573,2.41071 20,20 0 0 1 -0.43563,2.37556 20,20 0 0 1 -0.7183,2.30581 20,20 0 0 1 -0.99116,2.20244 20,20 0 0 1 -1.24953,2.06706 20,20 0 0 1 -1.48932,1.90066 20,20 0 0 1 -1.7079,1.70791 20,20 0 0 1 -1.90118,1.48983 20,20 0 0 1 -2.06706,1.24902 20,20 0 0 1 -2.20193,0.99115 20,20 0 0 1 -2.3058,0.71882 20,20 0 0 1 -2.37557,0.43512 20,20 0 0 1 -2.4107,0.14572 20,20 0 0 1 -2.41123,-0.14572 20,20 0 0 1 -2.37556,-0.43512 20,20 0 0 1 -2.3058,-0.71882 20,20 0 0 1 -2.20194,-0.99115 20,20 0 0 1 -2.06705,-1.24902 20,20 0 0 1 -1.90118,-1.48983 20,20 0 0 1 -1.70791,-1.70791 20,20 0 0 1 -1.48931,-1.90066 20,20 0 0 1 -1.24954,-2.06706 20,20 0 0 1 -0.99115,-2.20244 20,20 0 0 1 -0.7183,-2.30581 20,20 0 0 1 -0.43564,-2.37556 20,20 0 0 1 -0.14572,-2.41071 V 48.02623 H 13.360882 v 69.99986 a 50,50 0 0 0 50.000052,50.00005 50,50 0 0 0 49.999526,-50.00005 v -13.33355 z" />
      <path
         id="path1082-6"
         style="opacity:0.75437;mix-blend-mode:screen;fill:#dade25;fill-opacity:1;stroke-width:0.01;stop-color:#000000"
         d="m 72.77741,109.6488 v 45.73623 c 18.221176,-7.95251 29.99971,-25.94464 29.99971,-45.82563 V 96.225871 l 39.47097,63.250899 v 0.0827 h 30.00024 V 150.88453 79.559703 H 142.24809 V 102.81046 L 102.77712,39.559561 H 72.77741 V 109.5594 c 7e-5,0.0298 7e-5,0.0596 0,0.0894 z" />
      <path
         id="path1082-3"
         style="opacity:0.75437;mix-blend-mode:screen;fill:#24edff;fill-opacity:1;stroke-width:0.01;stop-color:#000000"
         d="M 170.4774,44.322061 A 15,15 0 0 0 155.47728,59.322179 15,15 0 0 0 170.4774,74.32178 15,15 0 0 0 185.47752,59.322179 15,15 0 0 0 170.4774,44.322061 Z m -15.00012,40.000142 v 23.250757 56.66631 0.0827 h 30.00024 v -8.67492 -71.324827 z" />
    </g>
  </g>
</svg>
