<?xml version="1.0" encoding="UTF-8" standalone="no"?>
<!-- Created with Inkscape (http://www.inkscape.org/) -->

<svg
   width="120mm"
   height="120mm"
   viewBox="0 0 120 120"
   version="1.1"
   id="svg5"
   inkscape:version="1.2.1 (9c6d41e410, 2022-07-14)"
   sodipodi:docname="logo.svg"
   xmlns:inkscape="http://www.inkscape.org/namespaces/inkscape"
   xmlns:sodipodi="http://sodipodi.sourceforge.net/DTD/sodipodi-0.dtd"
   xmlns:xlink="http://www.w3.org/1999/xlink"
   xmlns="http://www.w3.org/2000/svg"
   xmlns:svg="http://www.w3.org/2000/svg">
  <sodipodi:namedview
     id="namedview7"
     pagecolor="#ffffff"
     bordercolor="#111111"
     borderopacity="1"
     inkscape:showpageshadow="0"
     inkscape:pageopacity="0"
     inkscape:pagecheckerboard="1"
     inkscape:deskcolor="#d1d1d1"
     inkscape:document-units="mm"
     showgrid="false"
     inkscape:zoom="1.269069"
     inkscape:cx="354.98464"
     inkscape:cy="413.6891"
     inkscape:window-width="4498"
     inkscape:window-height="2978"
     inkscape:window-x="0"
     inkscape:window-y="20"
     inkscape:window-maximized="1"
     inkscape:current-layer="layer1">
    <inkscape:grid
       type="xygrid"
       id="grid686"
       dotted="true"
       originx="-40.000107"
       originy="-138.68323" />
  </sodipodi:namedview>
  <defs
     id="defs2">
    <linearGradient
       inkscape:collect="always"
       id="linearGradient2511">
      <stop
         style="stop-color:#0ad698;stop-opacity:1;"
         offset="0"
         id="stop2507" />
      <stop
         style="stop-color:#3ca3f5;stop-opacity:1;"
         offset="1"
         id="stop2509" />
    </linearGradient>
    <inkscape:path-effect
       effect="fill_between_many"
       method="originald"
       linkedpaths="#path790-5-1,0,1|#path790-3-7-1-6-8-3-8-9,0,1"
       id="path-effect1475"
       is_visible="true"
       lpeversion="0"
       join="true"
       close="true"
       autoreverse="true" />
    <linearGradient
       inkscape:collect="always"
       xlink:href="#linearGradient2511"
       id="linearGradient2505"
       x1="222.06477"
       y1="78.366699"
       x2="222.06477"
       y2="-52.888737"
       gradientUnits="userSpaceOnUse" />
    <clipPath
       clipPathUnits="userSpaceOnUse"
       id="clipPath2620">
      <ellipse
         style="fill:none;fill-opacity:1;stroke:#000000;stroke-width:0.0162783;stroke-opacity:1;stop-color:#000000"
         id="ellipse2622"
         cx="222.06477"
         cy="12.73898"
         rx="64.874603"
         ry="65.627716"
         transform="rotate(60)" />
    </clipPath>
  </defs>
  <g
     inkscape:label="Layer 1"
     inkscape:groupmode="layer"
     id="layer1"
     transform="translate(-40.000106,-138.68322)">
    <g
       id="g2618"
       clip-path="url(#clipPath2620)"
       transform="matrix(0.91686691,0,0,0.92217321,8.3133181,15.462877)">
      <path
         inkscape:original-d="M 0,0"
         inkscape:path-effect="#path-effect1475"
         d="M 0,0"
         id="path1477"
         class="UnoptimicedTransforms"
         transform="rotate(60,-51.229634,111.37071)"
         style="fill:#982c71;fill-opacity:0.593537" />
      <ellipse
         style="fill:url(#linearGradient2505);fill-opacity:1;stroke:none;stroke-width:0.0162783;stop-color:#000000"
         id="path1702-0-6-5-47"
         cx="222.06477"
         cy="12.73898"
         rx="64.874603"
         ry="65.627716"
         transform="rotate(60)" />
      <ellipse
         style="mix-blend-mode:normal;fill:#027f35;fill-opacity:0.855099;stroke:none;stroke-width:0.0111184;stop-color:#000000"
         id="path1702-0-6-5"
         cx="222.06477"
         cy="12.73898"
         rx="44.310223"
         ry="44.824615"
         transform="rotate(60)" />
      <path
         id="path790-5-1"
         style="opacity:0.656217;fill:#982c71;fill-opacity:0.593537;stroke:none;stroke-width:0.01;stop-color:#000000"
         class="UnoptimicedTransforms"
         d="m 117.81555,40.186694 a 30.000002,30.000002 0 0 0 -22.334556,9.999907 h 0.03979 a 30.000002,30.000002 0 0 0 22.315956,9.980269 30.000002,30.000002 0 0 0 22.33455,-9.999906 h -0.0398 a 30.000002,30.000002 0 0 0 -22.31595,-9.98027 z"
         transform="rotate(60,13.808839,128.32469)" />
      <path
         id="path790-5-1-4"
         style="opacity:0.656217;fill:#982c71;fill-opacity:0.593537;stroke:none;stroke-width:0.01;stop-color:#000000"
         class="UnoptimicedTransforms"
         d="m 117.81555,40.186694 a 30.000002,30.000002 0 0 0 -22.334556,9.999907 h 0.03979 a 30.000002,30.000002 0 0 0 22.315956,9.980269 30.000002,30.000002 0 0 0 22.33455,-9.999906 h -0.0398 a 30.000002,30.000002 0 0 0 -22.31595,-9.98027 z"
         transform="rotate(60,-53.214698,89.67459)" />
      <path
         id="path790-5-1-7"
         style="fill:#982c71;fill-opacity:0.593537;stroke:none;stroke-width:0.01;stop-color:#000000"
         class="UnoptimicedTransforms"
         d="m 117.81555,40.186694 a 30.000002,30.000002 0 0 0 -22.334556,9.999907 h 0.03979 a 30.000002,30.000002 0 0 0 22.315956,9.980269 30.000002,30.000002 0 0 0 22.33455,-9.999906 h -0.0398 a 30.000002,30.000002 0 0 0 -22.31595,-9.98027 z"
         transform="rotate(60,-53.223361,167.03877)" />
      <path
         id="path790-5-1-8"
         style="fill:#982c71;fill-opacity:0.593537;stroke:none;stroke-width:0.01;stop-color:#000000"
         class="UnoptimicedTransforms"
         d="m 117.81555,40.186694 a 30.000002,30.000002 0 0 0 -22.334556,9.999907 h 0.03979 a 30.000002,30.000002 0 0 0 22.315956,9.980269 30.000002,30.000002 0 0 0 22.33455,-9.999906 h -0.0398 a 30.000002,30.000002 0 0 0 -22.31595,-9.98027 z"
         transform="rotate(60,13.767863,51.00219)" />
      <path
         id="path790-5-1-45"
         style="fill:#982c71;fill-opacity:0.593537;stroke:none;stroke-width:0.01;stop-color:#000000"
         class="UnoptimicedTransforms"
         d="m 117.81555,40.186694 a 30.000002,30.000002 0 0 0 -22.334556,9.999907 h 0.03979 a 30.000002,30.000002 0 0 0 22.315956,9.980269 30.000002,30.000002 0 0 0 22.33455,-9.999906 h -0.0398 a 30.000002,30.000002 0 0 0 -22.31595,-9.98027 z"
         transform="translate(-84.840526,148.53789)" />
      <path
         id="path790-5-1-0"
         style="opacity:0.656217;fill:#982c71;fill-opacity:0.593537;stroke:none;stroke-width:0.01;stop-color:#000000"
         class="UnoptimicedTransforms"
         d="m 117.81555,40.186694 a 30.000002,30.000002 0 0 0 -22.334556,9.999907 h 0.03979 a 30.000002,30.000002 0 0 0 22.315956,9.980269 30.000002,30.000002 0 0 0 22.33455,-9.999906 h -0.0398 a 30.000002,30.000002 0 0 0 -22.31595,-9.98027 z"
         transform="translate(-17.785847,187.26193)" />
      <path
         id="path790-5-1-0-3"
         style="opacity:0.656217;fill:#982c71;fill-opacity:0.593537;stroke:none;stroke-width:0.01;stop-color:#000000"
         class="UnoptimicedTransforms"
         d="m 117.81555,40.186694 a 30.000002,30.000002 0 0 0 -22.334556,9.999907 h 0.03979 a 30.000002,30.000002 0 0 0 22.315956,9.980269 30.000002,30.000002 0 0 0 22.33455,-9.999906 h -0.0398 a 30.000002,30.000002 0 0 0 -22.31595,-9.98027 z"
         transform="translate(-17.797101,109.85329)" />
      <path
         id="path790-5-1-0-6"
         style="fill:#982c71;fill-opacity:0.593537;stroke:none;stroke-width:0.01;stop-color:#000000"
         class="UnoptimicedTransforms"
         d="m 117.81555,40.186694 a 30.000002,30.000002 0 0 0 -22.334556,9.999907 h 0.03979 a 30.000002,30.000002 0 0 0 22.315956,9.980269 30.000002,30.000002 0 0 0 22.33455,-9.999906 h -0.0398 a 30.000002,30.000002 0 0 0 -22.31595,-9.98027 z"
         transform="translate(49.205623,148.51695)" />
      <path
         id="path790-5-1-0-1"
         style="opacity:0.656217;fill:#982c71;fill-opacity:0.593537;stroke:none;stroke-width:0.01;stop-color:#000000"
         class="UnoptimicedTransforms"
         d="m 117.81555,40.186694 a 30.000002,30.000002 0 0 0 -22.334556,9.999907 h 0.03979 a 30.000002,30.000002 0 0 0 22.315956,9.980269 30.000002,30.000002 0 0 0 22.33455,-9.999906 h -0.0398 a 30.000002,30.000002 0 0 0 -22.31595,-9.98027 z"
         transform="rotate(-60,271.06541,120.45596)" />
      <path
         id="path790-5-1-0-1-0"
         style="fill:#982c71;fill-opacity:0.593537;stroke:none;stroke-width:0.01;stop-color:#000000"
         class="UnoptimicedTransforms"
         d="m 117.81555,40.186694 a 30.000002,30.000002 0 0 0 -22.334556,9.999907 h 0.03979 a 30.000002,30.000002 0 0 0 22.315956,9.980269 30.000002,30.000002 0 0 0 22.33455,-9.999906 h -0.0398 a 30.000002,30.000002 0 0 0 -22.31595,-9.98027 z"
         transform="rotate(-60,270.99811,197.85804)" />
      <path
         id="path790-5-1-0-1-6"
         style="opacity:0.656217;fill:#982c71;fill-opacity:0.593537;stroke:none;stroke-width:0.01;stop-color:#000000"
         class="UnoptimicedTransforms"
         d="m 117.81555,40.186694 a 30.000002,30.000002 0 0 0 -22.334556,9.999907 h 0.03979 a 30.000002,30.000002 0 0 0 22.315956,9.980269 30.000002,30.000002 0 0 0 22.33455,-9.999906 h -0.0398 a 30.000002,30.000002 0 0 0 -22.31595,-9.98027 z"
         transform="rotate(-60,204.08035,159.15019)" />
      <path
         id="path790-5-1-0-1-3"
         style="fill:#982c71;fill-opacity:0.593537;stroke:none;stroke-width:0.01;stop-color:#000000"
         class="UnoptimicedTransforms"
         d="m 117.81555,40.186694 a 30.000002,30.000002 0 0 0 -22.334556,9.999907 h 0.03979 a 30.000002,30.000002 0 0 0 22.315956,9.980269 30.000002,30.000002 0 0 0 22.33455,-9.999906 h -0.0398 a 30.000002,30.000002 0 0 0 -22.31595,-9.98027 z"
         transform="rotate(-60,204.01554,81.812124)" />
      <ellipse
         style="opacity:0.810595;mix-blend-mode:normal;fill:#f5f524;fill-opacity:0.510187;stroke:none;stroke-width:0.0111184;stop-color:#000000"
         id="path1702-0-6-5-4-7"
         cx="122.06467"
         cy="-108.52856"
         rx="44.310223"
         ry="44.824615"
         transform="rotate(120)" />
      <ellipse
         style="opacity:0.810595;mix-blend-mode:normal;fill:#f5af24;fill-opacity:0.510187;stroke:none;stroke-width:0.0111184;stop-color:#000000"
         id="path1702-0-6-5-4-7-6"
         cx="-100.00011"
         cy="-121.26755"
         rx="44.310223"
         ry="44.824615"
         transform="scale(-1)" />
      <ellipse
         style="opacity:0.810595;mix-blend-mode:normal;fill:#f5af24;fill-opacity:0.510187;stroke:none;stroke-width:0.0111184;stop-color:#000000"
         id="path1702-0-6-5-4-7-6-5"
         cx="-222.06477"
         cy="64.676697"
         rx="44.310223"
         ry="44.824615"
         transform="rotate(-120)" />
      <ellipse
         style="opacity:0.810595;mix-blend-mode:normal;fill:#f5f524;fill-opacity:0.510187;stroke:none;stroke-width:0.0111184;stop-color:#000000"
         id="path1702-0-6-5-4-7-6-5-6"
         cx="-122.06467"
         cy="263.35992"
         rx="44.310223"
         ry="44.824615"
         transform="rotate(-60)" />
      <ellipse
         style="opacity:0.810595;mix-blend-mode:normal;fill:#aff524;fill-opacity:0.510187;stroke:none;stroke-width:0.0111184;stop-color:#000000"
         id="path1702-0-6-5-4-7-6-5-6-9"
         cx="100.0001"
         cy="276.09891"
         rx="44.310223"
         ry="44.824615" />
      <ellipse
         style="opacity:0.810595;mix-blend-mode:normal;fill:#aff524;fill-opacity:0.510187;stroke:none;stroke-width:0.0111184;stop-color:#000000"
         id="path1702-0-6-5-4"
         cx="222.06477"
         cy="90.154671"
         rx="44.310223"
         ry="44.824615"
         transform="rotate(60)" />
    </g>
  </g>
</svg>
