<?xml version="1.0" encoding="UTF-8" standalone="no"?>
<!-- Created with Inkscape (http://www.inkscape.org/) -->

<svg
   width="120mm"
   height="120mm"
   viewBox="0 0 120 120"
   version="1.1"
   id="svg5"
   xmlns:xlink="http://www.w3.org/1999/xlink"
   xmlns="http://www.w3.org/2000/svg"
   xmlns:svg="http://www.w3.org/2000/svg">
  <defs
     id="defs2">
    <linearGradient
       id="linearGradient1528">
      <stop
         style="stop-color:#1b383b;stop-opacity:1;"
         offset="0"
         id="stop1524" />
      <stop
         style="stop-color:#185a3c;stop-opacity:1;"
         offset="1"
         id="stop1526" />
    </linearGradient>
    <linearGradient
       xlink:href="#linearGradient1528"
       id="linearGradient1530"
       x1="10"
       y1="190"
       x2="193.4678"
       y2="50"
       gradientUnits="userSpaceOnUse"
       gradientTransform="matrix(1.0615201,0,0,1.0615201,-6.767216,-7.9976196)" />
  </defs>
  <g
     id="layer1"
     transform="translate(-49.999993,-70)">
    <g
       id="g1572"
       transform="matrix(0.51384294,0,0,0.51384294,53.477273,63.200417)">
      <circle
         style="fill:url(#linearGradient1530);fill-opacity:1;stroke:none;stroke-width:0.0689988;stroke-opacity:1;stop-color:#000000"
         id="path1150"
         cx="109.99999"
         cy="130"
         r="116.7672" />
      <path
         id="path846"
         style="mix-blend-mode:color-dodge;fill:#f96623;fill-opacity:0.71378;stroke:none;stroke-width:0.0649999;stroke-opacity:1;stop-color:#000000"
         d="M 103.38539,32.354281 A 20,20 0 0 0 83.385072,52.354094 20,20 0 0 0 93.390662,69.677585 V 103.22541 L 69.668596,79.503341 a 20,20 0 0 0 -5.174361,-19.324401 20,20 0 0 0 -28.284578,5.16e-4 20,20 0 0 0 0,28.284062 20,20 0 0 0 19.323885,5.173331 L 79.256125,117.35943 H 45.708818 A 20,20 0 0 0 28.385328,107.35436 20,20 0 0 0 8.3855149,127.35365 20,20 0 0 0 28.385328,147.3545 20,20 0 0 0 45.708818,137.34891 h 33.547307 l -23.72155,23.72155 a 20,20 0 0 0 -19.324918,5.17436 20,20 0 0 0 0,28.28406 20,20 0 0 0 28.284578,5.2e-4 20,20 0 0 0 5.174361,-19.32441 l 23.722066,-23.72206 v 33.54782 a 20,20 0 0 0 -10.00559,17.32349 20,20 0 0 0 20.000318,19.99981 20,20 0 0 0 19.99981,-19.99981 20,20 0 0 0 -10.00559,-17.32194 v -33.54937 l 23.72207,23.72206 a 20,20 0 0 0 5.17436,19.32441 20,20 0 0 0 28.28406,0 20,20 0 0 0 5.2e-4,-28.28458 20,20 0 0 0 -19.32492,-5.17436 l -23.72207,-23.72207 h 33.54783 a 20,20 0 0 0 17.324,10.00559 20,20 0 0 0 19.99982,-20.00033 20,20 0 0 0 -19.99982,-19.99981 20,20 0 0 0 -17.32194,10.00559 H 127.51415 L 151.2357,93.637879 a 20,20 0 0 0 19.32492,-5.174361 20,20 0 0 0 -5.2e-4,-28.284578 20,20 0 0 0 -28.28406,0 20,20 0 0 0 -5.17333,19.323368 l -23.7231,23.723102 V 69.677585 A 20,20 0 0 0 123.3852,52.354094 20,20 0 0 0 103.38539,32.354281 Z" />
      <path
         id="path846-2"
         style="mix-blend-mode:color-dodge;fill:#f87b0f;fill-opacity:0.669678;stroke:none;stroke-width:0.0649999;stroke-opacity:1;stop-color:#000000"
         d="M 116.61458,37.645948 A 20,20 0 0 0 96.61423,57.645761 20,20 0 0 0 106.61984,74.969252 V 108.51708 L 82.897765,84.795008 a 20,20 0 0 0 -5.174361,-19.324401 20,20 0 0 0 -28.284578,5.16e-4 20,20 0 0 0 0,28.284066 20,20 0 0 0 19.323885,5.17333 L 92.485281,122.6511 H 58.937987 a 20,20 0 0 0 -17.32349,-10.00507 20,20 0 0 0 -19.999813,19.99929 20,20 0 0 0 19.999813,20.00085 20,20 0 0 0 17.32349,-10.00559 h 33.547294 l -23.721537,23.72155 a 20,20 0 0 0 -19.324918,5.17436 20,20 0 0 0 0,28.28406 20,20 0 0 0 28.284578,5.2e-4 20,20 0 0 0 5.174361,-19.32441 L 106.61984,156.7746 v 33.54782 a 20,20 0 0 0 -10.00561,17.32349 20,20 0 0 0 20.00035,19.99981 20,20 0 0 0 19.99981,-19.99981 20,20 0 0 0 -10.00559,-17.32194 V 156.7746 l 23.72207,23.72206 a 20,20 0 0 0 5.17436,19.32441 20,20 0 0 0 28.28406,0 20,20 0 0 0 5.2e-4,-28.28458 20,20 0 0 0 -19.32492,-5.17436 l -23.72207,-23.72207 h 33.54783 a 20,20 0 0 0 17.324,10.00559 20,20 0 0 0 19.99982,-20.00033 20,20 0 0 0 -19.99982,-19.99981 20,20 0 0 0 -17.32194,10.00559 h -33.54937 l 23.72155,-23.721551 a 20,20 0 0 0 19.32492,-5.17436 20,20 0 0 0 -5.2e-4,-28.284582 20,20 0 0 0 -28.28406,0 20,20 0 0 0 -5.17333,19.323368 L 126.6088,108.51708 V 74.969252 A 20,20 0 0 0 136.61439,57.645761 20,20 0 0 0 116.61458,37.645948 Z" />
    </g>
  </g>
</svg>
