<?xml version="1.0" encoding="UTF-8" standalone="no"?>
<!-- Created with Inkscape (http://www.inkscape.org/) -->

<svg
   width="120mm"
   height="120mm"
   viewBox="0 0 120 120"
   version="1.1"
   id="svg5"
   inkscape:version="1.2.2 (b0a8486541, 2022-12-01)"
   sodipodi:docname="logo.svg"
   xmlns:inkscape="http://www.inkscape.org/namespaces/inkscape"
   xmlns:sodipodi="http://sodipodi.sourceforge.net/DTD/sodipodi-0.dtd"
   xmlns:xlink="http://www.w3.org/1999/xlink"
   xmlns="http://www.w3.org/2000/svg"
   xmlns:svg="http://www.w3.org/2000/svg">
  <sodipodi:namedview
     id="namedview7"
     pagecolor="#ffffff"
     bordercolor="#111111"
     borderopacity="1"
     inkscape:showpageshadow="0"
     inkscape:pageopacity="0"
     inkscape:pagecheckerboard="1"
     inkscape:deskcolor="#d1d1d1"
     inkscape:document-units="mm"
     showgrid="false"
     inkscape:zoom="1.1893044"
     inkscape:cx="217.77436"
     inkscape:cy="439.33244"
     inkscape:window-width="2788"
     inkscape:window-height="2981"
     inkscape:window-x="0"
     inkscape:window-y="17"
     inkscape:window-maximized="1"
     inkscape:current-layer="layer1">
    <inkscape:grid
       type="xygrid"
       id="grid132"
       dotted="true"
       originx="-49.999993"
       originy="-60.000003" />
  </sodipodi:namedview>
  <defs
     id="defs2">
    <linearGradient
       inkscape:collect="always"
       id="linearGradient1264">
      <stop
         style="stop-color:#ea0077;stop-opacity:1;"
         offset="0"
         id="stop1260" />
      <stop
         style="stop-color:#a3003a;stop-opacity:1;"
         offset="1"
         id="stop1262" />
    </linearGradient>
    <linearGradient
       inkscape:collect="always"
       id="linearGradient1192">
      <stop
         style="stop-color:#80004e;stop-opacity:1;"
         offset="0"
         id="stop1188" />
      <stop
         style="stop-color:#420029;stop-opacity:1;"
         offset="1"
         id="stop1190" />
    </linearGradient>
    <linearGradient
       inkscape:collect="always"
       xlink:href="#linearGradient1192"
       id="linearGradient1194"
       x1="49.999992"
       y1="120"
       x2="197.1913"
       y2="87.378929"
       gradientUnits="userSpaceOnUse" />
    <linearGradient
       inkscape:collect="always"
       xlink:href="#linearGradient1264"
       id="linearGradient1266"
       x1="50.153011"
       y1="124.28027"
       x2="170.00749"
       y2="120"
       gradientUnits="userSpaceOnUse" />
  </defs>
  <g
     inkscape:label="Layer 1"
     inkscape:groupmode="layer"
     id="layer1"
     transform="translate(-49.999993,-60.000002)">
    <g
       id="g1332"
       transform="matrix(0.70701917,0.70701917,-0.70701917,0.70701917,117.07019,-42.614401)">
      <circle
         style="fill:url(#linearGradient1194);fill-opacity:1;stroke:#b7a9cb;stroke-width:0.015;stop-color:#000000"
         id="path236"
         cx="109.99999"
         cy="120"
         r="60" />
      <path
         id="path1081-2"
         style="fill:#00ccb7;fill-opacity:0.688057;stroke:#b7a9cb;stroke-width:0.0116507;stop-color:#000000"
         d="m 112.64582,78.688264 a 46.603271,46.603267 0 0 0 -46.603299,46.603316 46.603271,46.603267 0 0 0 46.603299,46.60331 46.603271,46.603267 0 0 0 46.60331,-46.60331 46.603271,46.603267 0 0 0 -46.60331,-46.603316 z m -0.003,9.325384 a 37.28087,37.277954 0 0 1 1.06447,0.01541 37.28087,37.277954 0 0 1 1.06398,0.04527 37.28087,37.277954 0 0 1 1.06206,0.0761 37.28087,37.277954 0 0 1 1.05916,0.106447 37.28087,37.277954 0 0 1 1.0558,0.13631 37.28087,37.277954 0 0 1 1.05194,0.166653 37.28087,37.277954 0 0 1 1.04617,0.196516 37.28087,37.277954 0 0 1 1.04039,0.225897 37.28087,37.277954 0 0 1 1.03363,0.256242 37.28087,37.277954 0 0 1 1.02545,0.285143 37.28087,37.277954 0 0 1 1.01725,0.314522 37.28087,37.277954 0 0 1 1.00812,0.343422 37.28087,37.277954 0 0 1 0.99749,0.372323 37.28087,37.277954 0 0 1 0.98645,0.400256 37.28087,37.277954 0 0 1 0.97487,0.428194 37.28087,37.277954 0 0 1 0.96187,0.45613 37.28087,37.277954 0 0 1 0.94887,0.483104 37.28087,37.277954 0 0 1 0.93442,0.510558 37.28087,37.277954 0 0 1 0.91948,0.536566 37.28087,37.277954 0 0 1 0.90361,0.562578 37.28087,37.277954 0 0 1 0.8872,0.588586 37.28087,37.277954 0 0 1 0.87037,0.613152 37.28087,37.277954 0 0 1 0.85252,0.638197 37.28087,37.277954 0 0 1 0.83376,0.661796 37.28087,37.277954 0 0 1 0.81449,0.685882 37.28087,37.277954 0 0 1 0.79473,0.708519 37.28087,37.277954 0 0 1 0.77402,0.731158 37.28087,37.277954 0 0 1 0.75284,0.752833 37.28087,37.277954 0 0 1 0.73116,0.774018 37.28087,37.277954 0 0 1 0.7085,0.79426 37.28087,37.277954 0 0 1 0.68541,0.81448 37.28087,37.277954 0 0 1 0.66229,0.83375 37.28087,37.277954 0 0 1 0.63819,0.85254 37.28087,37.277954 0 0 1 0.61315,0.86987 37.28087,37.277954 0 0 1 0.58859,0.88722 37.28087,37.277954 0 0 1 0.56257,0.90406 37.28087,37.277954 0 0 1 0.53706,0.919 37.28087,37.277954 0 0 1 0.51005,0.93442 37.28087,37.277954 0 0 1 0.4836,0.94886 37.28087,37.277954 0 0 1 0.45565,0.96187 37.28087,37.277954 0 0 1 0.42867,0.97489 37.28087,37.277954 0 0 1 0.40025,0.98642 37.28087,37.277954 0 0 1 0.37233,0.99753 37.28087,37.277954 0 0 1 0.34343,1.00762 37.28087,37.277954 0 0 1 0.31452,1.01678 37.28087,37.277954 0 0 1 0.28514,1.02593 37.28087,37.277954 0 0 1 0.25624,1.03317 37.28087,37.277954 0 0 1 0.2259,1.04038 37.28087,37.277954 0 0 1 0.19652,1.04665 37.28087,37.277954 0 0 1 0.16664,1.05146 37.28087,37.277954 0 0 1 0.1368,1.05577 37.28087,37.277954 0 0 1 0.10597,1.05918 37.28087,37.277954 0 0 1 0.076,1.06205 37.28087,37.277954 0 0 1 0.0451,1.0635 37.28087,37.277954 0 0 1 0.0153,1.06447 37.28087,37.277954 0 0 1 -0.12717,3.07827 37.28087,37.277954 0 0 1 -0.38146,3.05757 37.28087,37.277954 0 0 1 -0.63194,3.01566 37.28087,37.277954 0 0 1 -0.8795,2.95257 37.28087,37.277954 0 0 1 -1.11985,2.87019 37.28087,37.277954 0 0 1 -1.35346,2.76809 37.28087,37.277954 0 0 1 -1.57695,2.64673 37.28087,37.277954 0 0 1 -1.7908,2.50751 37.28087,37.277954 0 0 1 -1.99119,2.35096 37.28087,37.277954 0 0 1 -2.17902,2.17902 37.28087,37.277954 0 0 1 -2.35096,1.99119 37.28087,37.277954 0 0 1 -2.508,1.79032 37.28087,37.277954 0 0 1 -2.64673,1.57693 37.28087,37.277954 0 0 1 -2.76808,1.353 37.28087,37.277954 0 0 1 -2.87067,1.12033 37.28087,37.277954 0 0 1 -2.95306,0.87902 37.28087,37.277954 0 0 1 -3.01566,0.63243 37.28087,37.277954 0 0 1 -3.05756,0.38098 37.28087,37.277954 0 0 1 -3.07877,0.12717 37.28087,37.277954 0 0 1 -3.07875,-0.12717 37.28087,37.277954 0 0 1 -3.05755,-0.38098 37.28087,37.277954 0 0 1 -3.01567,-0.63243 37.28087,37.277954 0 0 1 -2.95305,-0.87902 37.28087,37.277954 0 0 1 -2.870675,-1.12033 37.28087,37.277954 0 0 1 -2.768082,-1.353 37.28087,37.277954 0 0 1 -2.646713,-1.57693 37.28087,37.277954 0 0 1 -2.507993,-1.79032 37.28087,37.277954 0 0 1 -2.350974,-1.99119 37.28087,37.277954 0 0 1 -2.17902,-2.17902 37.28087,37.277954 0 0 1 -1.991174,-2.35096 37.28087,37.277954 0 0 1 -1.790807,-2.50751 37.28087,37.277954 0 0 1 -1.576948,-2.64673 37.28087,37.277954 0 0 1 -1.353458,-2.76809 37.28087,37.277954 0 0 1 -1.119855,-2.87019 37.28087,37.277954 0 0 1 -0.879509,-2.95257 37.28087,37.277954 0 0 1 -0.632417,-3.01566 37.28087,37.277954 0 0 1 -0.380993,-3.05757 37.28087,37.277954 0 0 1 -0.127155,-3.07827 37.28087,37.277954 0 0 1 0.127155,-3.07827 37.28087,37.277954 0 0 1 0.380993,-3.05757 37.28087,37.277954 0 0 1 0.632417,-3.01518 37.28087,37.277954 0 0 1 0.879509,-2.95305 37.28087,37.277954 0 0 1 1.119855,-2.87019 37.28087,37.277954 0 0 1 1.353458,-2.76809 37.28087,37.277954 0 0 1 1.576948,-2.64671 37.28087,37.277954 0 0 1 1.790807,-2.50751 37.28087,37.277954 0 0 1 1.991174,-2.35098 37.28087,37.277954 0 0 1 2.17902,-2.178538 37.28087,37.277954 0 0 1 2.350974,-1.991174 37.28087,37.277954 0 0 1 2.507993,-1.790324 37.28087,37.277954 0 0 1 2.646713,-1.577429 37.28087,37.277954 0 0 1 2.768082,-1.352979 37.28087,37.277954 0 0 1 2.870675,-1.119855 37.28087,37.277954 0 0 1 2.95305,-0.879507 37.28087,37.277954 0 0 1 3.01567,-0.631935 37.28087,37.277954 0 0 1 3.05755,-0.381474 37.28087,37.277954 0 0 1 3.07875,-0.127157 z" />
      <path
         id="path1081-2-9"
         style="fill:#00ccb7;fill-opacity:0.688057;stroke:#b7a9cb;stroke-width:0.0116507;stop-color:#000000"
         d="m 105.76664,78.688264 a 46.603271,46.603267 0 0 0 -46.603287,46.603316 46.603271,46.603267 0 0 0 46.603287,46.60331 46.603271,46.603267 0 0 0 46.60331,-46.60331 46.603271,46.603267 0 0 0 -46.60331,-46.603316 z m -0.003,9.325384 a 37.28087,37.277954 0 0 1 1.06447,0.01541 37.28087,37.277954 0 0 1 1.06398,0.04527 37.28087,37.277954 0 0 1 1.06206,0.0761 37.28087,37.277954 0 0 1 1.05916,0.106447 37.28087,37.277954 0 0 1 1.0558,0.13631 37.28087,37.277954 0 0 1 1.05194,0.166653 37.28087,37.277954 0 0 1 1.04617,0.196516 37.28087,37.277954 0 0 1 1.04039,0.225897 37.28087,37.277954 0 0 1 1.03363,0.256242 37.28087,37.277954 0 0 1 1.02545,0.285143 37.28087,37.277954 0 0 1 1.01725,0.314522 37.28087,37.277954 0 0 1 1.00812,0.343422 37.28087,37.277954 0 0 1 0.99749,0.372323 37.28087,37.277954 0 0 1 0.98645,0.400256 37.28087,37.277954 0 0 1 0.97487,0.428194 37.28087,37.277954 0 0 1 0.96187,0.45613 37.28087,37.277954 0 0 1 0.94887,0.483104 37.28087,37.277954 0 0 1 0.93442,0.510558 37.28087,37.277954 0 0 1 0.91948,0.536566 37.28087,37.277954 0 0 1 0.90361,0.562578 37.28087,37.277954 0 0 1 0.8872,0.588586 37.28087,37.277954 0 0 1 0.87037,0.613152 37.28087,37.277954 0 0 1 0.85252,0.638197 37.28087,37.277954 0 0 1 0.83376,0.661796 37.28087,37.277954 0 0 1 0.81449,0.685882 37.28087,37.277954 0 0 1 0.79473,0.708519 37.28087,37.277954 0 0 1 0.77402,0.731158 37.28087,37.277954 0 0 1 0.75284,0.752833 37.28087,37.277954 0 0 1 0.73116,0.774018 37.28087,37.277954 0 0 1 0.7085,0.79426 37.28087,37.277954 0 0 1 0.68541,0.81448 37.28087,37.277954 0 0 1 0.66229,0.83375 37.28087,37.277954 0 0 1 0.63819,0.85254 37.28087,37.277954 0 0 1 0.61315,0.86987 37.28087,37.277954 0 0 1 0.58859,0.88722 37.28087,37.277954 0 0 1 0.56257,0.90406 37.28087,37.277954 0 0 1 0.53706,0.919 37.28087,37.277954 0 0 1 0.51005,0.93442 37.28087,37.277954 0 0 1 0.4836,0.94886 37.28087,37.277954 0 0 1 0.45565,0.96187 37.28087,37.277954 0 0 1 0.42867,0.97489 37.28087,37.277954 0 0 1 0.40025,0.98642 37.28087,37.277954 0 0 1 0.37233,0.99753 37.28087,37.277954 0 0 1 0.34343,1.00762 37.28087,37.277954 0 0 1 0.31452,1.01678 37.28087,37.277954 0 0 1 0.28514,1.02593 37.28087,37.277954 0 0 1 0.25624,1.03317 37.28087,37.277954 0 0 1 0.2259,1.04038 37.28087,37.277954 0 0 1 0.19652,1.04665 37.28087,37.277954 0 0 1 0.16664,1.05146 37.28087,37.277954 0 0 1 0.1368,1.05577 37.28087,37.277954 0 0 1 0.10597,1.05918 37.28087,37.277954 0 0 1 0.076,1.06205 37.28087,37.277954 0 0 1 0.0451,1.0635 37.28087,37.277954 0 0 1 0.0153,1.06447 37.28087,37.277954 0 0 1 -0.12717,3.07827 37.28087,37.277954 0 0 1 -0.38146,3.05757 37.28087,37.277954 0 0 1 -0.63194,3.01566 37.28087,37.277954 0 0 1 -0.8795,2.95257 37.28087,37.277954 0 0 1 -1.11985,2.87019 37.28087,37.277954 0 0 1 -1.35346,2.76809 37.28087,37.277954 0 0 1 -1.57695,2.64673 37.28087,37.277954 0 0 1 -1.7908,2.50751 37.28087,37.277954 0 0 1 -1.99119,2.35096 37.28087,37.277954 0 0 1 -2.17902,2.17902 37.28087,37.277954 0 0 1 -2.35096,1.99119 37.28087,37.277954 0 0 1 -2.508,1.79032 37.28087,37.277954 0 0 1 -2.64673,1.57693 37.28087,37.277954 0 0 1 -2.76808,1.353 37.28087,37.277954 0 0 1 -2.87067,1.12033 37.28087,37.277954 0 0 1 -2.95306,0.87902 37.28087,37.277954 0 0 1 -3.01566,0.63243 37.28087,37.277954 0 0 1 -3.05756,0.38098 37.28087,37.277954 0 0 1 -3.07877,0.12717 37.28087,37.277954 0 0 1 -3.07875,-0.12717 37.28087,37.277954 0 0 1 -3.057547,-0.38098 37.28087,37.277954 0 0 1 -3.015661,-0.63243 37.28087,37.277954 0 0 1 -2.95305,-0.87902 37.28087,37.277954 0 0 1 -2.870677,-1.12033 37.28087,37.277954 0 0 1 -2.76808,-1.353 37.28087,37.277954 0 0 1 -2.646717,-1.57693 37.28087,37.277954 0 0 1 -2.50799,-1.79032 37.28087,37.277954 0 0 1 -2.350973,-1.99119 37.28087,37.277954 0 0 1 -2.17902,-2.17902 37.28087,37.277954 0 0 1 -1.991174,-2.35096 37.28087,37.277954 0 0 1 -1.790807,-2.50751 37.28087,37.277954 0 0 1 -1.576948,-2.64673 37.28087,37.277954 0 0 1 -1.353458,-2.76809 37.28087,37.277954 0 0 1 -1.119855,-2.87019 37.28087,37.277954 0 0 1 -0.879509,-2.95257 37.28087,37.277954 0 0 1 -0.632417,-3.01566 37.28087,37.277954 0 0 1 -0.380993,-3.05757 37.28087,37.277954 0 0 1 -0.127155,-3.07827 37.28087,37.277954 0 0 1 0.127155,-3.07827 37.28087,37.277954 0 0 1 0.380993,-3.05757 37.28087,37.277954 0 0 1 0.632417,-3.01518 37.28087,37.277954 0 0 1 0.879509,-2.95305 37.28087,37.277954 0 0 1 1.119855,-2.87019 37.28087,37.277954 0 0 1 1.353458,-2.76809 37.28087,37.277954 0 0 1 1.576948,-2.64671 37.28087,37.277954 0 0 1 1.790807,-2.50751 37.28087,37.277954 0 0 1 1.991174,-2.35098 37.28087,37.277954 0 0 1 2.17902,-2.178538 37.28087,37.277954 0 0 1 2.350973,-1.991174 37.28087,37.277954 0 0 1 2.50799,-1.790324 37.28087,37.277954 0 0 1 2.646717,-1.577429 37.28087,37.277954 0 0 1 2.76808,-1.352979 37.28087,37.277954 0 0 1 2.870677,-1.119855 37.28087,37.277954 0 0 1 2.95305,-0.879507 37.28087,37.277954 0 0 1 3.015661,-0.631935 37.28087,37.277954 0 0 1 3.057547,-0.381474 37.28087,37.277954 0 0 1 3.07875,-0.127157 z" />
      <path
         id="path1051"
         style="fill:#f1aa00;fill-opacity:1;stroke:#b7a9cb;stroke-width:0.015;stop-color:#000000"
         d="m 50.000049,119.99991 a 60,60 0 0 0 0.152962,4.28036 60,60 0 0 0 0.457853,4.25865 60,60 0 0 0 0.760161,4.21525 60,60 0 0 0 1.059366,4.14962 60,60 0 0 0 1.352373,4.06383 60,60 0 0 0 1.639176,3.95738 60,60 0 0 0 1.917196,3.82974 60,60 0 0 0 2.185396,3.6835 60,60 0 0 0 2.442745,3.51865 60,60 0 0 0 2.687691,3.33468 60,60 0 0 0 2.918685,3.13469 60,60 0 0 0 3.134693,2.91869 60,60 0 0 0 3.335196,2.68769 60,60 0 0 0 3.518132,2.44274 60,60 0 0 0 3.683496,2.1854 60,60 0 0 0 3.82974,1.91719 60,60 0 0 0 3.957382,1.63918 60,60 0 0 0 4.063834,1.35237 60,60 0 0 0 4.150135,1.05937 60,60 0 0 0 4.214729,0.76016 60,60 0 0 0 4.25866,0.45785 60,60 0 0 0 4.28035,0.15297 60,60 0 0 0 4.28036,-0.15297 60,60 0 0 0 4.25866,-0.45785 60,60 0 0 0 4.21473,-0.76016 60,60 0 0 0 4.15013,-1.05937 60,60 0 0 0 4.06384,-1.35237 60,60 0 0 0 3.95738,-1.63918 60,60 0 0 0 3.82974,-1.91719 60,60 0 0 0 3.68349,-2.1854 60,60 0 0 0 3.51814,-2.44274 60,60 0 0 0 3.33519,-2.68769 60,60 0 0 0 3.13469,-2.91869 60,60 0 0 0 2.91869,-3.13469 60,60 0 0 0 2.68717,-3.33468 60,60 0 0 0 2.44275,-3.51865 60,60 0 0 0 2.18591,-3.6835 60,60 0 0 0 1.9172,-3.82974 60,60 0 0 0 1.63866,-3.95738 60,60 0 0 0 1.35289,-4.06383 60,60 0 0 0 1.05936,-4.14962 60,60 0 0 0 0.76016,-4.21525 60,60 0 0 0 0.45786,-4.25865 60,60 0 0 0 0.15296,-4.28036 z" />
      <path
         id="path1081"
         style="fill:#00ccb7;fill-opacity:0.688057;stroke:#b7a9cb;stroke-width:0.0116507;stop-color:#000000"
         d="M 110,73.396597 A 46.603271,46.603267 0 0 0 63.396689,119.99991 46.603271,46.603267 0 0 0 110,166.60322 46.603271,46.603267 0 0 0 156.60331,119.99991 46.603271,46.603267 0 0 0 110,73.396597 Z m -0.003,9.325384 a 37.28087,37.277954 0 0 1 1.06447,0.01541 37.28087,37.277954 0 0 1 1.06398,0.04527 37.28087,37.277954 0 0 1 1.06206,0.0761 37.28087,37.277954 0 0 1 1.05916,0.106447 37.28087,37.277954 0 0 1 1.0558,0.13631 37.28087,37.277954 0 0 1 1.05194,0.166653 37.28087,37.277954 0 0 1 1.04617,0.196516 37.28087,37.277954 0 0 1 1.04039,0.225897 37.28087,37.277954 0 0 1 1.03363,0.256242 37.28087,37.277954 0 0 1 1.02545,0.285143 37.28087,37.277954 0 0 1 1.01725,0.314522 37.28087,37.277954 0 0 1 1.00812,0.343422 37.28087,37.277954 0 0 1 0.99749,0.372323 37.28087,37.277954 0 0 1 0.98645,0.400256 37.28087,37.277954 0 0 1 0.97487,0.428194 37.28087,37.277954 0 0 1 0.96187,0.45613 37.28087,37.277954 0 0 1 0.94887,0.483104 37.28087,37.277954 0 0 1 0.93442,0.510558 37.28087,37.277954 0 0 1 0.91948,0.536566 37.28087,37.277954 0 0 1 0.90361,0.562578 37.28087,37.277954 0 0 1 0.8872,0.588586 37.28087,37.277954 0 0 1 0.87037,0.613152 37.28087,37.277954 0 0 1 0.85252,0.638197 37.28087,37.277954 0 0 1 0.83376,0.661796 37.28087,37.277954 0 0 1 0.81449,0.685882 37.28087,37.277954 0 0 1 0.79473,0.708519 37.28087,37.277954 0 0 1 0.77402,0.731158 37.28087,37.277954 0 0 1 0.75284,0.752833 37.28087,37.277954 0 0 1 0.73116,0.774022 37.28087,37.277954 0 0 1 0.7085,0.794256 37.28087,37.277954 0 0 1 0.68541,0.814483 37.28087,37.277954 0 0 1 0.66229,0.83375 37.28087,37.277954 0 0 1 0.63819,0.852534 37.28087,37.277954 0 0 1 0.61315,0.869876 37.28087,37.277954 0 0 1 0.58859,0.887213 37.28087,37.277954 0 0 1 0.56257,0.904061 37.28087,37.277954 0 0 1 0.53706,0.919 37.28087,37.277954 0 0 1 0.51005,0.93442 37.28087,37.277954 0 0 1 0.4836,0.94886 37.28087,37.277954 0 0 1 0.45565,0.96187 37.28087,37.277954 0 0 1 0.42867,0.97489 37.28087,37.277954 0 0 1 0.40025,0.98642 37.28087,37.277954 0 0 1 0.37233,0.99753 37.28087,37.277954 0 0 1 0.34343,1.00762 37.28087,37.277954 0 0 1 0.31452,1.01678 37.28087,37.277954 0 0 1 0.28514,1.02593 37.28087,37.277954 0 0 1 0.25624,1.03317 37.28087,37.277954 0 0 1 0.2259,1.04038 37.28087,37.277954 0 0 1 0.19652,1.04665 37.28087,37.277954 0 0 1 0.16664,1.05146 37.28087,37.277954 0 0 1 0.1368,1.05577 37.28087,37.277954 0 0 1 0.10597,1.05918 37.28087,37.277954 0 0 1 0.076,1.06205 37.28087,37.277954 0 0 1 0.0451,1.0635 37.28087,37.277954 0 0 1 0.0153,1.06447 37.28087,37.277954 0 0 1 -0.12717,3.07827 37.28087,37.277954 0 0 1 -0.38146,3.05757 37.28087,37.277954 0 0 1 -0.63194,3.01566 37.28087,37.277954 0 0 1 -0.8795,2.95257 37.28087,37.277954 0 0 1 -1.11985,2.87019 37.28087,37.277954 0 0 1 -1.35346,2.76809 37.28087,37.277954 0 0 1 -1.57695,2.64673 37.28087,37.277954 0 0 1 -1.7908,2.50751 37.28087,37.277954 0 0 1 -1.99119,2.35096 37.28087,37.277954 0 0 1 -2.17902,2.17902 37.28087,37.277954 0 0 1 -2.35096,1.99119 37.28087,37.277954 0 0 1 -2.508,1.79032 37.28087,37.277954 0 0 1 -2.64673,1.57693 37.28087,37.277954 0 0 1 -2.76808,1.353 37.28087,37.277954 0 0 1 -2.87067,1.12033 37.28087,37.277954 0 0 1 -2.95306,0.87902 37.28087,37.277954 0 0 1 -3.01566,0.63243 37.28087,37.277954 0 0 1 -3.05756,0.38098 37.28087,37.277954 0 0 1 -3.07877,0.12717 37.28087,37.277954 0 0 1 -3.07875,-0.12717 37.28087,37.277954 0 0 1 -3.05755,-0.38098 37.28087,37.277954 0 0 1 -3.01567,-0.63243 37.28087,37.277954 0 0 1 -2.953048,-0.87902 37.28087,37.277954 0 0 1 -2.870684,-1.12033 37.28087,37.277954 0 0 1 -2.768087,-1.353 37.28087,37.277954 0 0 1 -2.646713,-1.57693 37.28087,37.277954 0 0 1 -2.507993,-1.79032 37.28087,37.277954 0 0 1 -2.350974,-1.99119 37.28087,37.277954 0 0 1 -2.17902,-2.17902 37.28087,37.277954 0 0 1 -1.991174,-2.35096 37.28087,37.277954 0 0 1 -1.790807,-2.50751 37.28087,37.277954 0 0 1 -1.576948,-2.64673 37.28087,37.277954 0 0 1 -1.353458,-2.76809 37.28087,37.277954 0 0 1 -1.119855,-2.87019 37.28087,37.277954 0 0 1 -0.879509,-2.95257 37.28087,37.277954 0 0 1 -0.632417,-3.01566 37.28087,37.277954 0 0 1 -0.380993,-3.05757 37.28087,37.277954 0 0 1 -0.127155,-3.07827 37.28087,37.277954 0 0 1 0.127155,-3.07827 37.28087,37.277954 0 0 1 0.380993,-3.05757 37.28087,37.277954 0 0 1 0.632417,-3.01518 37.28087,37.277954 0 0 1 0.879509,-2.95305 37.28087,37.277954 0 0 1 1.119855,-2.87019 37.28087,37.277954 0 0 1 1.353458,-2.76809 37.28087,37.277954 0 0 1 1.576948,-2.64671 37.28087,37.277954 0 0 1 1.790807,-2.507511 37.28087,37.277954 0 0 1 1.991174,-2.350973 37.28087,37.277954 0 0 1 2.17902,-2.178541 37.28087,37.277954 0 0 1 2.350974,-1.991174 37.28087,37.277954 0 0 1 2.507993,-1.790324 37.28087,37.277954 0 0 1 2.646713,-1.577429 37.28087,37.277954 0 0 1 2.768087,-1.352979 37.28087,37.277954 0 0 1 2.870684,-1.119855 37.28087,37.277954 0 0 1 2.953048,-0.879507 37.28087,37.277954 0 0 1 3.01567,-0.631935 37.28087,37.277954 0 0 1 3.05755,-0.381474 37.28087,37.277954 0 0 1 3.07875,-0.127157 z" />
      <path
         id="path1051-6"
         style="opacity:0.536299;fill:url(#linearGradient1266);fill-opacity:1;stroke:#b7a9cb;stroke-width:0.015;stop-color:#000000"
         d="m 50.000049,119.99991 a 60,60 0 0 0 0.152962,4.28036 60,60 0 0 0 0.457853,4.25865 60,60 0 0 0 0.760161,4.21525 60,60 0 0 0 1.059366,4.14962 60,60 0 0 0 1.352373,4.06383 60,60 0 0 0 1.639176,3.95738 60,60 0 0 0 1.917196,3.82974 60,60 0 0 0 2.185396,3.6835 60,60 0 0 0 2.442745,3.51865 60,60 0 0 0 2.687691,3.33468 60,60 0 0 0 2.918685,3.13469 60,60 0 0 0 3.134693,2.91869 60,60 0 0 0 3.335196,2.68769 60,60 0 0 0 3.518132,2.44274 60,60 0 0 0 3.683496,2.1854 60,60 0 0 0 3.82974,1.91719 60,60 0 0 0 3.957382,1.63918 60,60 0 0 0 4.063834,1.35237 60,60 0 0 0 4.150135,1.05937 60,60 0 0 0 4.214729,0.76016 60,60 0 0 0 4.25866,0.45785 60,60 0 0 0 4.28035,0.15297 60,60 0 0 0 4.28036,-0.15297 60,60 0 0 0 4.25866,-0.45785 60,60 0 0 0 4.21473,-0.76016 60,60 0 0 0 4.15013,-1.05937 60,60 0 0 0 4.06384,-1.35237 60,60 0 0 0 3.95738,-1.63918 60,60 0 0 0 3.82974,-1.91719 60,60 0 0 0 3.68349,-2.1854 60,60 0 0 0 3.51814,-2.44274 60,60 0 0 0 3.33519,-2.68769 60,60 0 0 0 3.13469,-2.91869 60,60 0 0 0 2.91869,-3.13469 60,60 0 0 0 2.68717,-3.33468 60,60 0 0 0 2.44275,-3.51865 60,60 0 0 0 2.18591,-3.6835 60,60 0 0 0 1.9172,-3.82974 60,60 0 0 0 1.63866,-3.95738 60,60 0 0 0 1.35289,-4.06383 60,60 0 0 0 1.05936,-4.14962 60,60 0 0 0 0.76016,-4.21525 60,60 0 0 0 0.45786,-4.25865 60,60 0 0 0 0.15296,-4.28036 z" />
    </g>
  </g>
</svg>
