<?xml version="1.0" encoding="UTF-8" standalone="no"?>
<!-- Created with Inkscape (http://www.inkscape.org/) -->

<svg
   width="120mm"
   height="120mm"
   viewBox="0 0 120 120"
   version="1.1"
   id="svg5"
   inkscape:version="1.2.1 (9c6d41e410, 2022-07-14)"
   xmlns:inkscape="http://www.inkscape.org/namespaces/inkscape"
   xmlns:sodipodi="http://sodipodi.sourceforge.net/DTD/sodipodi-0.dtd"
   xmlns="http://www.w3.org/2000/svg"
   xmlns:svg="http://www.w3.org/2000/svg">
  <sodipodi:namedview
     id="namedview7"
     pagecolor="#ffffff"
     bordercolor="#111111"
     borderopacity="1"
     inkscape:showpageshadow="0"
     inkscape:pageopacity="0"
     inkscape:pagecheckerboard="1"
     inkscape:deskcolor="#d1d1d1"
     inkscape:document-units="mm"
     showgrid="true"
     inkscape:zoom="1.1893044"
     inkscape:cx="-37.41683"
     inkscape:cy="-5.0449658"
     inkscape:window-width="2038"
     inkscape:window-height="2978"
     inkscape:window-x="0"
     inkscape:window-y="20"
     inkscape:window-maximized="1"
     inkscape:current-layer="layer1">
    <inkscape:grid
       type="xygrid"
       id="grid132"
       dotted="true"
       originx="-26.902356"
       originy="-74.995928" />
  </sodipodi:namedview>
  <defs
     id="defs2">
    <clipPath
       clipPathUnits="userSpaceOnUse"
       id="clipPath1450">
      <circle
         style="opacity:0.3658;fill:none;fill-opacity:1;stroke:#000000;stroke-width:0.00760791;stop-color:#000000"
         id="circle1452"
         cx="86.902351"
         cy="134.99593"
         r="42.794552" />
    </clipPath>
  </defs>
  <g
     inkscape:label="Layer 1"
     inkscape:groupmode="layer"
     id="layer1"
     transform="translate(-26.902356,-74.995927)">
    <g
       id="g1444"
       clip-path="url(#clipPath1450)"
       transform="matrix(-0.70102382,1.2142089,-1.2142089,-0.70102382,311.73623,124.11368)">
      <rect
         style="opacity:1;fill:#001b3a;fill-opacity:1;stroke:#000000;stroke-width:0.00799999;stop-color:#000000"
         id="rect1158"
         width="160"
         height="160"
         x="10"
         y="60" />
      <g
         id="g1377">
        <path
           id="path987"
           style="opacity:0.3658;mix-blend-mode:lighten;fill:#ccff00;fill-opacity:1;stroke:#000000;stroke-width:0.00799999;stop-color:#000000"
           d="m 108.55314,140.62164 a 25,25 0 0 0 -9.150641,-34.15067 25,25 0 0 0 -34.150673,9.15064 25,25 0 0 0 9.15065,34.15067 25,25 0 0 0 34.150664,-9.15064 z m -8.660177,-4.99996 a 15,15 0 0 1 -0.252391,0.42115 15,15 0 0 1 -0.266249,0.41256 15,15 0 0 1 -0.278897,0.40347 15,15 0 0 1 -0.29267,0.39432 15,15 0 0 1 -0.30506,0.38478 15,15 0 0 1 -0.317366,0.37409 15,15 0 0 1 -0.329991,0.36382 15,15 0 0 1 -0.340906,0.35275 15,15 0 0 1 -0.352704,0.34116 15,15 0 0 1 -0.364068,0.32982 15,15 0 0 1 -0.374209,0.31741 15,15 0 0 1 -0.384339,0.30499 15,15 0 0 1 -0.39447,0.29259 15,15 0 0 1 -0.403651,0.27952 15,15 0 0 1 -0.412298,0.26558 15,15 0 0 1 -0.421029,0.25279 15,15 0 0 1 -0.429168,0.23794 15,15 0 0 1 -0.43648,0.22476 15,15 0 0 1 -0.443912,0.20974 15,15 0 0 1 -0.450449,0.19522 15,15 0 0 1 -0.456279,0.18052 15,15 0 0 1 -0.4623,0.16511 15,15 0 0 1 -0.467421,0.15021 15,15 0 0 1 -0.471592,0.13468 15,15 0 0 1 -0.476454,0.11935 15,15 0 0 1 -0.479458,0.10388 15,15 0 0 1 -0.483111,0.0875 15,15 0 0 1 -0.485665,0.0722 15,15 0 0 1 -0.487709,0.0562 15,15 0 0 1 -0.489046,0.0399 15,15 0 0 1 -0.490199,0.0243 15,15 0 0 1 -0.490825,0.008 15,15 0 0 1 -0.490829,-0.008 15,15 0 0 1 -0.490296,-0.0241 15,15 0 0 1 -0.489341,-0.0403 15,15 0 0 1 -0.487466,-0.0559 15,15 0 0 1 -0.485343,-0.072 15,15 0 0 1 -0.483219,-0.088 15,15 0 0 1 -0.479503,-0.10379 15,15 0 0 1 -0.476028,-0.1191 15,15 0 0 1 -0.472313,-0.13485 15,15 0 0 1 -0.466988,-0.15027 15,15 0 0 1 -0.462363,-0.16551 15,15 0 0 1 -0.456405,-0.17996 15,15 0 0 1 -0.450378,-0.19558 15,15 0 0 1 -0.44397,-0.20978 15,15 0 0 1 -0.436403,-0.22391 15,15 0 0 1 -0.429049,-0.23871 15,15 0 0 1 -1.237055,-0.79775 15,15 0 0 1 -1.153138,-0.91519 15,15 0 0 1 -1.057728,-1.0236 15,15 0 0 1 -0.952488,-1.12217 15,15 0 0 1 -0.837684,-1.21042 15,15 0 0 1 -0.715234,-1.28712 15,15 0 0 1 -0.58548,-1.35064 15,15 0 0 1 -0.450003,-1.40131 15,15 0 0 1 -0.31094,-1.43858 15,15 0 0 1 -0.168282,-1.46243 15,15 0 0 1 -0.0237,-1.47203 15,15 0 0 1 0.12024,-1.4671 15,15 0 0 1 0.263346,-1.44833 15,15 0 0 1 0.404219,-1.41533 15,15 0 0 1 0.541051,-1.36915 15,15 0 0 1 0.672483,-1.30937 15,15 0 0 1 0.797711,-1.23708 15,15 0 0 1 0.915191,-1.15314 15,15 0 0 1 1.023601,-1.05773 15,15 0 0 1 1.122616,-0.95222 15,15 0 0 1 1.210428,-0.83769 15,15 0 0 1 1.28641,-0.71504 15,15 0 0 1 1.35064,-0.58548 15,15 0 0 1 1.401571,-0.45045 15,15 0 0 1 1.438573,-0.31095 15,15 0 0 1 1.462429,-0.16828 15,15 0 0 1 1.472035,-0.0237 15,15 0 0 1 1.467104,0.12025 15,15 0 0 1 1.448323,0.26335 15,15 0 0 1 1.415329,0.40422 15,15 0 0 1 1.369145,0.54105 15,15 0 0 1 1.309145,0.67289 15,15 0 0 1 1.237307,0.7973 15,15 0 0 1 1.153137,0.91519 15,15 0 0 1 1.057728,1.0236 15,15 0 0 1 0.95223,1.12261 15,15 0 0 1 0.837684,1.21043 15,15 0 0 1 0.715053,1.28641 15,15 0 0 1 0.58547,1.35064 15,15 0 0 1 0.45045,1.40157 15,15 0 0 1 0.31069,1.43903 15,15 0 0 1 0.16828,1.46242 15,15 0 0 1 0.024,1.47159 15,15 0 0 1 -0.12025,1.4671 15,15 0 0 1 -0.26334,1.44833 15,15 0 0 1 -0.40422,1.41533 15,15 0 0 1 -0.54105,1.36915 15,15 0 0 1 -0.672488,1.30937 z" />
        <path
           id="path984"
           style="opacity:0.3658;mix-blend-mode:lighten;fill:#ccff00;fill-opacity:1;stroke:#000000;stroke-width:0.00799999;stop-color:#000000"
           d="M 125.87348,150.62154 A 45,45 0 0 0 109.40241,89.150623 45,45 0 0 0 47.931483,105.62171 45,45 0 0 0 64.402311,167.09307 45,45 0 0 0 125.87348,150.62154 Z m -8.66017,-4.99995 a 35,35 0 0 1 -0.522,0.87414 35,35 0 0 1 -0.54695,0.85854 35,35 0 0 1 -0.57172,0.84244 35,35 0 0 1 -0.59593,0.82549 35,35 0 0 1 -0.61964,0.80762 35,35 0 0 1 -0.64307,0.78932 35,35 0 0 1 -0.66556,0.77037 35,35 0 0 1 -0.68823,0.75072 35,35 0 0 1 -0.70922,0.73024 35,35 0 0 1 -0.72996,0.70932 35,35 0 0 1 -0.75088,0.68769 35,35 0 0 1 -0.7704,0.66569 35,35 0 0 1 -0.78895,0.64304 35,35 0 0 1 -0.8077,0.61968 35,35 0 0 1 -0.82573,0.59615 35,35 0 0 1 -0.84209,0.57178 35,35 0 0 1 -0.85891,0.54715 35,35 0 0 1 -0.87404,0.52171 35,35 0 0 1 -0.8892,0.49625 35,35 0 0 1 -0.90265,0.46999 35,35 0 0 1 -0.91658,0.44344 35,35 0 0 1 -0.92864,0.4168 35,35 0 0 1 -0.940441,0.38968 35,35 0 0 1 -0.951985,0.36215 35,35 0 0 1 -0.961408,0.33403 35,35 0 0 1 -0.971099,0.30635 35,35 0 0 1 -0.979107,0.27786 35,35 0 0 1 -0.987561,0.24911 35,35 0 0 1 -0.993723,0.2205 35,35 0 0 1 -1.000068,0.19117 35,35 0 0 1 -1.004805,0.16217 35,35 0 0 1 -1.009289,0.13274 35,35 0 0 1 -1.01288,0.10382 35,35 0 0 1 -1.015249,0.0738 35,35 0 0 1 -1.01742,0.0445 35,35 0 0 1 -1.017936,0.0144 35,35 0 0 1 -1.018081,-0.0144 35,35 0 0 1 -1.016709,-0.0446 35,35 0 0 1 -1.01587,-0.0739 35,35 0 0 1 -1.012472,-0.10361 35,35 0 0 1 -1.009325,-0.13281 35,35 0 0 1 -1.005027,-0.16197 35,35 0 0 1 -1.000032,-0.19129 35,35 0 0 1 -0.993876,-0.22056 35,35 0 0 1 -0.987519,-0.24912 35,35 0 0 1 -0.979324,-0.2778 35,35 0 0 1 -0.97068,-0.30622 35,35 0 0 1 -0.961573,-0.33438 35,35 0 0 1 -0.951581,-0.36204 35,35 0 0 1 -0.940432,-0.3896 35,35 0 0 1 -0.929098,-0.41648 35,35 0 0 1 -0.916347,-0.44372 35,35 0 0 1 -0.902939,-0.47004 35,35 0 0 1 -0.888881,-0.49645 35,35 0 0 1 -2.575371,-1.64025 35,35 0 0 1 -2.422171,-1.8591 35,35 0 0 1 -2.251588,-2.06255 35,35 0 0 1 -2.062695,-2.25125 35,35 0 0 1 -1.858875,-2.42237 35,35 0 0 1 -1.640384,-2.5755 35,35 0 0 1 -1.409945,-2.70798 35,35 0 0 1 -1.168624,-2.82106 35,35 0 0 1 -0.91798,-2.91205 35,35 0 0 1 -0.661035,-2.98092 35,35 0 0 1 -0.398473,-3.02742 35,35 0 0 1 -0.132945,-3.05016 35,35 0 0 1 0.132869,-3.05063 35,35 0 0 1 0.398644,-3.02727 35,35 0 0 1 0.661171,-2.98073 35,35 0 0 1 0.918208,-2.91228 35,35 0 0 1 1.16811,-2.8211 35,35 0 0 1 1.410213,-2.70818 35,35 0 0 1 1.640247,-2.57538 35,35 0 0 1 1.859095,-2.42216 35,35 0 0 1 2.062748,-2.25089 35,35 0 0 1 2.250795,-2.06295 35,35 0 0 1 2.422373,-1.85887 35,35 0 0 1 2.575493,-1.640386 35,35 0 0 1 2.70824,-1.410389 35,35 0 0 1 2.820805,-1.168178 35,35 0 0 1 2.912063,-0.91798 35,35 0 0 1 2.980902,-0.661034 35,35 0 0 1 3.027425,-0.398474 35,35 0 0 1 3.050413,-0.133391 35,35 0 0 1 3.050375,0.133315 35,35 0 0 1 3.027277,0.398643 35,35 0 0 1 2.980986,0.660721 35,35 0 0 1 2.912274,0.918214 35,35 0 0 1 2.820857,1.168559 35,35 0 0 1 2.70844,1.409766 35,35 0 0 1 2.5751,1.640689 35,35 0 0 1 2.42243,1.858655 35,35 0 0 1 2.25089,2.06274 35,35 0 0 1 2.06314,2.2515 35,35 0 0 1 1.85842,2.42212 35,35 0 0 1 1.64064,2.57504 35,35 0 0 1 1.41014,2.70869 35,35 0 0 1 1.16817,2.82081 35,35 0 0 1 0.91843,2.91231 35,35 0 0 1 0.66059,2.98065 35,35 0 0 1 0.39873,3.02698 35,35 0 0 1 0.13313,3.05086 35,35 0 0 1 -0.13331,3.05037 35,35 0 0 1 -0.39865,3.02728 35,35 0 0 1 -0.66072,2.98098 35,35 0 0 1 -0.91795,2.91183 35,35 0 0 1 -1.16856,2.82085 35,35 0 0 1 -1.40976,2.70844 z" />
        <circle
           style="opacity:0.3658;mix-blend-mode:lighten;fill:#aad400;fill-opacity:1;stroke:#000000;stroke-width:0.00799999;stop-color:#000000"
           id="path236"
           cx="67.505501"
           cy="-139.3205"
           r="5"
           transform="rotate(120)" />
        <path
           id="path987-5"
           style="opacity:0.3658;mix-blend-mode:lighten;fill:#2a7fff;fill-opacity:1;stroke:#000000;stroke-width:0.00799999;stop-color:#000000"
           d="m 100.61564,154.36979 a 25,25 0 0 0 -9.150641,-34.15067 25,25 0 0 0 -34.150673,9.15064 25,25 0 0 0 9.150645,34.15068 25,25 0 0 0 34.150669,-9.15065 z m -8.660177,-4.99996 a 15,15 0 0 1 -0.252391,0.42116 15,15 0 0 1 -0.26625,0.41256 15,15 0 0 1 -0.278897,0.40346 15,15 0 0 1 -0.29267,0.39432 15,15 0 0 1 -0.30506,0.38478 15,15 0 0 1 -0.317366,0.37409 15,15 0 0 1 -0.329991,0.36382 15,15 0 0 1 -0.340906,0.35275 15,15 0 0 1 -0.352703,0.34116 15,15 0 0 1 -0.364069,0.32983 15,15 0 0 1 -0.374208,0.3174 15,15 0 0 1 -0.384339,0.305 15,15 0 0 1 -0.39447,0.29258 15,15 0 0 1 -0.403651,0.27953 15,15 0 0 1 -0.412298,0.26558 15,15 0 0 1 -0.42103,0.25278 15,15 0 0 1 -0.429167,0.23794 15,15 0 0 1 -0.436481,0.22477 15,15 0 0 1 -0.443911,0.20973 15,15 0 0 1 -0.450449,0.19523 15,15 0 0 1 -0.456278,0.18051 15,15 0 0 1 -0.462301,0.16511 15,15 0 0 1 -0.46742,0.15022 15,15 0 0 1 -0.471596,0.13468 15,15 0 0 1 -0.476453,0.11934 15,15 0 0 1 -0.479455,0.10388 15,15 0 0 1 -0.483115,0.0875 15,15 0 0 1 -0.485661,0.0722 15,15 0 0 1 -0.48771,0.0562 15,15 0 0 1 -0.489044,0.0399 15,15 0 0 1 -0.490202,0.0243 15,15 0 0 1 -0.490825,0.008 15,15 0 0 1 -0.490826,-0.008 15,15 0 0 1 -0.490298,-0.0241 15,15 0 0 1 -0.489343,-0.0403 15,15 0 0 1 -0.487463,-0.0559 15,15 0 0 1 -0.485342,-0.072 15,15 0 0 1 -0.483222,-0.088 15,15 0 0 1 -0.479502,-0.1038 15,15 0 0 1 -0.476031,-0.11909 15,15 0 0 1 -0.472311,-0.13485 15,15 0 0 1 -0.466987,-0.15028 15,15 0 0 1 -0.462387,-0.16546 15,15 0 0 1 -0.45643,-0.17992 15,15 0 0 1 -0.450373,-0.19559 15,15 0 0 1 -0.443966,-0.20979 15,15 0 0 1 -0.436407,-0.2239 15,15 0 0 1 -0.429149,-0.23853 15,15 0 0 1 -1.237031,-0.7978 15,15 0 0 1 -1.153141,-0.91519 15,15 0 0 1 -1.057723,-1.02361 15,15 0 0 1 -0.952492,-1.12215 15,15 0 0 1 -0.837684,-1.21043 15,15 0 0 1 -0.715234,-1.28712 15,15 0 0 1 -0.585479,-1.35064 15,15 0 0 1 -0.450003,-1.40131 15,15 0 0 1 -0.310941,-1.43857 15,15 0 0 1 -0.168281,-1.46243 15,15 0 0 1 -0.0237,-1.47204 15,15 0 0 1 0.120241,-1.4671 15,15 0 0 1 0.263345,-1.44833 15,15 0 0 1 0.404219,-1.41533 15,15 0 0 1 0.541051,-1.36915 15,15 0 0 1 0.672484,-1.30937 15,15 0 0 1 0.797711,-1.23708 15,15 0 0 1 0.915191,-1.15313 15,15 0 0 1 1.0236,-1.05773 15,15 0 0 1 1.122617,-0.95223 15,15 0 0 1 1.210427,-0.83768 15,15 0 0 1 1.286411,-0.71505 15,15 0 0 1 1.350639,-0.58548 15,15 0 0 1 1.401571,-0.45045 15,15 0 0 1 1.438574,-0.31094 15,15 0 0 1 1.462428,-0.16828 15,15 0 0 1 1.472036,-0.0237 15,15 0 0 1 1.467103,0.12024 15,15 0 0 1 1.448323,0.26335 15,15 0 0 1 1.415329,0.40422 15,15 0 0 1 1.369145,0.54105 15,15 0 0 1 1.309146,0.67289 15,15 0 0 1 1.237307,0.7973 15,15 0 0 1 1.153136,0.91519 15,15 0 0 1 1.057728,1.0236 15,15 0 0 1 0.95223,1.12261 15,15 0 0 1 0.837685,1.21043 15,15 0 0 1 0.715051,1.28642 15,15 0 0 1 0.585471,1.35063 15,15 0 0 1 0.450452,1.40157 15,15 0 0 1 0.310683,1.43903 15,15 0 0 1 0.168282,1.46242 15,15 0 0 1 0.02396,1.4716 15,15 0 0 1 -0.120249,1.46709 15,15 0 0 1 -0.263346,1.44833 15,15 0 0 1 -0.404219,1.41533 15,15 0 0 1 -0.541051,1.36915 15,15 0 0 1 -0.672483,1.30937 z" />
        <path
           id="path984-6"
           style="opacity:0.3658;mix-blend-mode:lighten;fill:#2a7fff;fill-opacity:1;stroke:#000000;stroke-width:0.00799999;stop-color:#000000"
           d="m 117.93598,164.36969 a 45,45 0 0 0 -16.47107,-61.47091 45,45 0 0 0 -61.470928,16.47108 45,45 0 0 0 16.470824,61.47138 45,45 0 0 0 61.471174,-16.47155 z m -8.66017,-4.99995 a 35,35 0 0 1 -0.522,0.87414 35,35 0 0 1 -0.54695,0.85854 35,35 0 0 1 -0.57172,0.84245 35,35 0 0 1 -0.59593,0.82548 35,35 0 0 1 -0.61964,0.80763 35,35 0 0 1 -0.64307,0.78932 35,35 0 0 1 -0.66557,0.77036 35,35 0 0 1 -0.68822,0.75072 35,35 0 0 1 -0.70922,0.73025 35,35 0 0 1 -0.72995,0.70931 35,35 0 0 1 -0.75089,0.68769 35,35 0 0 1 -0.7704,0.66569 35,35 0 0 1 -0.78896,0.64304 35,35 0 0 1 -0.807689,0.61969 35,35 0 0 1 -0.825729,0.59614 35,35 0 0 1 -0.842093,0.57179 35,35 0 0 1 -0.858907,0.54715 35,35 0 0 1 -0.874042,0.5217 35,35 0 0 1 -0.889198,0.49626 35,35 0 0 1 -0.902657,0.46999 35,35 0 0 1 -0.916578,0.44344 35,35 0 0 1 -0.928644,0.4168 35,35 0 0 1 -0.94044,0.38969 35,35 0 0 1 -0.951984,0.36214 35,35 0 0 1 -0.961408,0.33403 35,35 0 0 1 -0.9711,0.30635 35,35 0 0 1 -0.979107,0.27787 35,35 0 0 1 -0.98756,0.2491 35,35 0 0 1 -0.993723,0.2205 35,35 0 0 1 -1.000068,0.19117 35,35 0 0 1 -1.004805,0.16217 35,35 0 0 1 -1.009289,0.13274 35,35 0 0 1 -1.01288,0.10382 35,35 0 0 1 -1.015249,0.0738 35,35 0 0 1 -1.01742,0.0445 35,35 0 0 1 -1.017936,0.0144 35,35 0 0 1 -1.018081,-0.0144 35,35 0 0 1 -1.016709,-0.0446 35,35 0 0 1 -1.01587,-0.0739 35,35 0 0 1 -1.012472,-0.1036 35,35 0 0 1 -1.009325,-0.13282 35,35 0 0 1 -1.005027,-0.16196 35,35 0 0 1 -1.000032,-0.1913 35,35 0 0 1 -0.993876,-0.22055 35,35 0 0 1 -0.987519,-0.24913 35,35 0 0 1 -0.979324,-0.2778 35,35 0 0 1 -0.97068,-0.30622 35,35 0 0 1 -0.961573,-0.33438 35,35 0 0 1 -0.951581,-0.36204 35,35 0 0 1 -0.940432,-0.3896 35,35 0 0 1 -0.929098,-0.41647 35,35 0 0 1 -0.916347,-0.44373 35,35 0 0 1 -0.902939,-0.47004 35,35 0 0 1 -0.888881,-0.49645 35,35 0 0 1 -2.575371,-1.64025 35,35 0 0 1 -2.422171,-1.8591 35,35 0 0 1 -2.251588,-2.06255 35,35 0 0 1 -2.062695,-2.25125 35,35 0 0 1 -1.858875,-2.42237 35,35 0 0 1 -1.640384,-2.57549 35,35 0 0 1 -1.409945,-2.70799 35,35 0 0 1 -1.168624,-2.82106 35,35 0 0 1 -0.917981,-2.91205 35,35 0 0 1 -0.661035,-2.98092 35,35 0 0 1 -0.398468,-3.02743 35,35 0 0 1 -0.132943,-3.05015 35,35 0 0 1 0.132868,-3.05064 35,35 0 0 1 0.398645,-3.02727 35,35 0 0 1 0.66117,-2.98072 35,35 0 0 1 0.918207,-2.91228 35,35 0 0 1 1.168111,-2.82111 35,35 0 0 1 1.410213,-2.70818 35,35 0 0 1 1.640247,-2.57537 35,35 0 0 1 1.859094,-2.42217 35,35 0 0 1 2.062748,-2.25088 35,35 0 0 1 2.250796,-2.06295 35,35 0 0 1 2.422372,-1.85888 35,35 0 0 1 2.575493,-1.64038 35,35 0 0 1 2.70824,-1.41039 35,35 0 0 1 2.820806,-1.16818 35,35 0 0 1 2.912062,-0.91798 35,35 0 0 1 2.980902,-0.66103 35,35 0 0 1 3.027425,-0.39848 35,35 0 0 1 3.050414,-0.13339 35,35 0 0 1 3.050375,0.13332 35,35 0 0 1 3.027277,0.39864 35,35 0 0 1 2.980985,0.66072 35,35 0 0 1 2.912274,0.91821 35,35 0 0 1 2.820854,1.16856 35,35 0 0 1 2.708439,1.40977 35,35 0 0 1 2.575104,1.64069 35,35 0 0 1 2.422431,1.85865 35,35 0 0 1 2.25089,2.06274 35,35 0 0 1 2.06313,2.2515 35,35 0 0 1 1.85843,2.42212 35,35 0 0 1 1.64064,2.57505 35,35 0 0 1 1.41014,2.70869 35,35 0 0 1 1.16817,2.8208 35,35 0 0 1 0.91843,2.91232 35,35 0 0 1 0.66059,2.98065 35,35 0 0 1 0.39873,3.02697 35,35 0 0 1 0.13313,3.05086 35,35 0 0 1 -0.13332,3.05038 35,35 0 0 1 -0.39864,3.02727 35,35 0 0 1 -0.66072,2.98098 35,35 0 0 1 -0.91795,2.91184 35,35 0 0 1 -1.16856,2.82084 35,35 0 0 1 -1.40979,2.70843 z" />
        <circle
           style="opacity:0.3658;mix-blend-mode:lighten;fill:#2a7fff;fill-opacity:1;stroke:#000000;stroke-width:0.00799999;stop-color:#000000"
           id="path236-2"
           cx="83.380493"
           cy="-139.3205"
           r="5"
           transform="rotate(120)" />
        <path
           id="path987-5-9"
           style="opacity:0.3658;mix-blend-mode:lighten;fill:#ff6600;fill-opacity:1;stroke:#000000;stroke-width:0.00799999;stop-color:#000000"
           d="m 116.49065,154.36979 a 25,25 0 0 0 -9.15065,-34.15067 25,25 0 0 0 -34.150673,9.15064 25,25 0 0 0 9.150645,34.15068 25,25 0 0 0 34.150678,-9.15065 z m -8.66018,-4.99996 a 15,15 0 0 1 -0.25239,0.42116 15,15 0 0 1 -0.26625,0.41256 15,15 0 0 1 -0.2789,0.40346 15,15 0 0 1 -0.29267,0.39432 15,15 0 0 1 -0.30506,0.38478 15,15 0 0 1 -0.31737,0.37409 15,15 0 0 1 -0.32999,0.36382 15,15 0 0 1 -0.3409,0.35275 15,15 0 0 1 -0.35271,0.34116 15,15 0 0 1 -0.36407,0.32983 15,15 0 0 1 -0.37421,0.3174 15,15 0 0 1 -0.38434,0.305 15,15 0 0 1 -0.39447,0.29258 15,15 0 0 1 -0.40365,0.27953 15,15 0 0 1 -0.4123,0.26558 15,15 0 0 1 -0.42103,0.25278 15,15 0 0 1 -0.42916,0.23794 15,15 0 0 1 -0.43648,0.22477 15,15 0 0 1 -0.44391,0.20973 15,15 0 0 1 -0.45045,0.19523 15,15 0 0 1 -0.45628,0.18051 15,15 0 0 1 -0.462307,0.16511 15,15 0 0 1 -0.46742,0.15022 15,15 0 0 1 -0.47159,0.13468 15,15 0 0 1 -0.47645,0.11934 15,15 0 0 1 -0.47946,0.10388 15,15 0 0 1 -0.48311,0.0875 15,15 0 0 1 -0.48567,0.0722 15,15 0 0 1 -0.48771,0.0562 15,15 0 0 1 -0.48904,0.0399 15,15 0 0 1 -0.4902,0.0243 15,15 0 0 1 -0.49083,0.008 15,15 0 0 1 -0.490822,-0.008 15,15 0 0 1 -0.490298,-0.0241 15,15 0 0 1 -0.489343,-0.0403 15,15 0 0 1 -0.487463,-0.0559 15,15 0 0 1 -0.485342,-0.072 15,15 0 0 1 -0.483222,-0.088 15,15 0 0 1 -0.479502,-0.1038 15,15 0 0 1 -0.476031,-0.11909 15,15 0 0 1 -0.472311,-0.13485 15,15 0 0 1 -0.466987,-0.15028 15,15 0 0 1 -0.462387,-0.16546 15,15 0 0 1 -0.45643,-0.17992 15,15 0 0 1 -0.450373,-0.19559 15,15 0 0 1 -0.443966,-0.20979 15,15 0 0 1 -0.436407,-0.2239 15,15 0 0 1 -0.429149,-0.23853 15,15 0 0 1 -1.237031,-0.7978 15,15 0 0 1 -1.153141,-0.91519 15,15 0 0 1 -1.057723,-1.02361 15,15 0 0 1 -0.952492,-1.12215 15,15 0 0 1 -0.837684,-1.21043 15,15 0 0 1 -0.715234,-1.28712 15,15 0 0 1 -0.585479,-1.35064 15,15 0 0 1 -0.450003,-1.40131 15,15 0 0 1 -0.310941,-1.43857 15,15 0 0 1 -0.168281,-1.46243 15,15 0 0 1 -0.0237,-1.47204 15,15 0 0 1 0.120241,-1.4671 15,15 0 0 1 0.263345,-1.44833 15,15 0 0 1 0.404219,-1.41533 15,15 0 0 1 0.541051,-1.36915 15,15 0 0 1 0.672484,-1.30937 15,15 0 0 1 0.797711,-1.23708 15,15 0 0 1 0.915191,-1.15313 15,15 0 0 1 1.0236,-1.05773 15,15 0 0 1 1.122617,-0.95223 15,15 0 0 1 1.210427,-0.83768 15,15 0 0 1 1.286411,-0.71505 15,15 0 0 1 1.350639,-0.58548 15,15 0 0 1 1.401571,-0.45045 15,15 0 0 1 1.438574,-0.31094 15,15 0 0 1 1.462428,-0.16828 15,15 0 0 1 1.472033,-0.0237 15,15 0 0 1 1.46711,0.12024 15,15 0 0 1 1.44832,0.26335 15,15 0 0 1 1.41533,0.40422 15,15 0 0 1 1.369147,0.54105 15,15 0 0 1 1.30914,0.67289 15,15 0 0 1 1.23731,0.7973 15,15 0 0 1 1.15313,0.91519 15,15 0 0 1 1.05774,1.0236 15,15 0 0 1 0.95223,1.12261 15,15 0 0 1 0.83768,1.21043 15,15 0 0 1 0.71505,1.28642 15,15 0 0 1 0.58547,1.35063 15,15 0 0 1 0.45045,1.40157 15,15 0 0 1 0.31069,1.43903 15,15 0 0 1 0.16828,1.46242 15,15 0 0 1 0.024,1.4716 15,15 0 0 1 -0.12025,1.46709 15,15 0 0 1 -0.26335,1.44833 15,15 0 0 1 -0.40421,1.41533 15,15 0 0 1 -0.54106,1.36915 15,15 0 0 1 -0.67248,1.30937 z" />
        <path
           id="path984-6-1"
           style="opacity:0.3658;mix-blend-mode:lighten;fill:#ff6600;fill-opacity:1;stroke:#000000;stroke-width:0.00799999;stop-color:#000000"
           d="m 133.81099,164.36969 a 45,45 0 0 0 -16.47107,-61.47091 45,45 0 0 0 -61.470937,16.47108 45,45 0 0 0 16.470824,61.47138 45,45 0 0 0 61.471183,-16.47155 z m -8.66017,-4.99995 a 35,35 0 0 1 -0.522,0.87414 35,35 0 0 1 -0.54695,0.85854 35,35 0 0 1 -0.57172,0.84245 35,35 0 0 1 -0.59593,0.82548 35,35 0 0 1 -0.61964,0.80763 35,35 0 0 1 -0.64307,0.78932 35,35 0 0 1 -0.66557,0.77036 35,35 0 0 1 -0.68822,0.75072 35,35 0 0 1 -0.70922,0.73025 35,35 0 0 1 -0.72995,0.70931 35,35 0 0 1 -0.75089,0.68769 35,35 0 0 1 -0.7704,0.66569 35,35 0 0 1 -0.78896,0.64304 35,35 0 0 1 -0.80769,0.61969 35,35 0 0 1 -0.82573,0.59614 35,35 0 0 1 -0.84209,0.57179 35,35 0 0 1 -0.85891,0.54715 35,35 0 0 1 -0.87404,0.5217 35,35 0 0 1 -0.8892,0.49626 35,35 0 0 1 -0.90266,0.46999 35,35 0 0 1 -0.91658,0.44344 35,35 0 0 1 -0.92864,0.4168 35,35 0 0 1 -0.94044,0.38969 35,35 0 0 1 -0.95199,0.36214 35,35 0 0 1 -0.96141,0.33403 35,35 0 0 1 -0.9711,0.30635 35,35 0 0 1 -0.97911,0.27787 35,35 0 0 1 -0.98756,0.2491 35,35 0 0 1 -0.99372,0.2205 35,35 0 0 1 -1.00007,0.19117 35,35 0 0 1 -1.004797,0.16217 35,35 0 0 1 -1.00929,0.13274 35,35 0 0 1 -1.01288,0.10382 35,35 0 0 1 -1.01525,0.0738 35,35 0 0 1 -1.01742,0.0445 35,35 0 0 1 -1.01794,0.0144 35,35 0 0 1 -1.018079,-0.0144 35,35 0 0 1 -1.016709,-0.0446 35,35 0 0 1 -1.01587,-0.0739 35,35 0 0 1 -1.012472,-0.1036 35,35 0 0 1 -1.009325,-0.13282 35,35 0 0 1 -1.005027,-0.16196 35,35 0 0 1 -1.000032,-0.1913 35,35 0 0 1 -0.993876,-0.22055 35,35 0 0 1 -0.987519,-0.24913 35,35 0 0 1 -0.979324,-0.2778 35,35 0 0 1 -0.97068,-0.30622 35,35 0 0 1 -0.961573,-0.33438 35,35 0 0 1 -0.951581,-0.36204 35,35 0 0 1 -0.940432,-0.3896 35,35 0 0 1 -0.929098,-0.41647 35,35 0 0 1 -0.916347,-0.44373 35,35 0 0 1 -0.902939,-0.47004 35,35 0 0 1 -0.888881,-0.49645 35,35 0 0 1 -2.575371,-1.64025 35,35 0 0 1 -2.422171,-1.8591 35,35 0 0 1 -2.251588,-2.06255 35,35 0 0 1 -2.062695,-2.25125 35,35 0 0 1 -1.858875,-2.42237 35,35 0 0 1 -1.640384,-2.57549 35,35 0 0 1 -1.409945,-2.70799 35,35 0 0 1 -1.168624,-2.82106 35,35 0 0 1 -0.917981,-2.91205 35,35 0 0 1 -0.661035,-2.98092 35,35 0 0 1 -0.398468,-3.02743 35,35 0 0 1 -0.132943,-3.05015 35,35 0 0 1 0.132868,-3.05064 35,35 0 0 1 0.398645,-3.02727 35,35 0 0 1 0.66117,-2.98072 35,35 0 0 1 0.918207,-2.91228 35,35 0 0 1 1.168111,-2.82111 35,35 0 0 1 1.410213,-2.70818 35,35 0 0 1 1.640247,-2.57537 35,35 0 0 1 1.859094,-2.42217 35,35 0 0 1 2.062748,-2.25088 35,35 0 0 1 2.250796,-2.06295 35,35 0 0 1 2.422372,-1.85888 35,35 0 0 1 2.575493,-1.64038 35,35 0 0 1 2.70824,-1.41039 35,35 0 0 1 2.820806,-1.16818 35,35 0 0 1 2.912062,-0.91798 35,35 0 0 1 2.980902,-0.66103 35,35 0 0 1 3.027425,-0.39848 35,35 0 0 1 3.050415,-0.13339 35,35 0 0 1 3.05037,0.13332 35,35 0 0 1 3.027277,0.39864 35,35 0 0 1 2.98099,0.66072 35,35 0 0 1 2.91228,0.91821 35,35 0 0 1 2.82085,1.16856 35,35 0 0 1 2.70844,1.40977 35,35 0 0 1 2.57511,1.64069 35,35 0 0 1 2.42243,1.85865 35,35 0 0 1 2.25089,2.06274 35,35 0 0 1 2.06313,2.2515 35,35 0 0 1 1.85843,2.42212 35,35 0 0 1 1.64064,2.57505 35,35 0 0 1 1.41014,2.70869 35,35 0 0 1 1.16817,2.8208 35,35 0 0 1 0.91843,2.91232 35,35 0 0 1 0.66059,2.98065 35,35 0 0 1 0.39873,3.02697 35,35 0 0 1 0.13313,3.05086 35,35 0 0 1 -0.13332,3.05038 35,35 0 0 1 -0.39864,3.02727 35,35 0 0 1 -0.66072,2.98098 35,35 0 0 1 -0.91795,2.91184 35,35 0 0 1 -1.16856,2.82084 35,35 0 0 1 -1.40979,2.70843 z" />
        <circle
           style="opacity:0.3658;mix-blend-mode:lighten;fill:#ff6600;fill-opacity:1;stroke:#000000;stroke-width:0.00799999;stop-color:#000000"
           id="path236-2-2"
           cx="75.442986"
           cy="-153.06865"
           r="5"
           transform="rotate(120)" />
      </g>
    </g>
  </g>
</svg>
