<?xml version="1.0" encoding="UTF-8" standalone="no"?>
<svg
   xmlns:dc="http://purl.org/dc/elements/1.1/"
   xmlns:cc="http://creativecommons.org/ns#"
   xmlns:rdf="http://www.w3.org/1999/02/22-rdf-syntax-ns#"
   xmlns:svg="http://www.w3.org/2000/svg"
   xmlns="http://www.w3.org/2000/svg"
   xmlns:xlink="http://www.w3.org/1999/xlink"
   xmlns:sodipodi="http://sodipodi.sourceforge.net/DTD/sodipodi-0.dtd"
   xmlns:inkscape="http://www.inkscape.org/namespaces/inkscape"
   width="120mm"
   height="120mm"
   viewBox="0 0 120 120"
   version="1.1"
   id="svg8"
   inkscape:version="1.0.2 (e86c870879, 2021-01-15)"
   sodipodi:docname="logo.svg">
  <defs
     id="defs2">
    <linearGradient
       inkscape:collect="always"
       id="linearGradient1078">
      <stop
         style="stop-color:#2083a8;stop-opacity:1"
         offset="0"
         id="stop1074" />
      <stop
         style="stop-color:#33d9a8;stop-opacity:1"
         offset="1"
         id="stop1076" />
    </linearGradient>
    <linearGradient
       inkscape:collect="always"
       xlink:href="#linearGradient1078"
       id="linearGradient1080"
       x1="45.56319"
       y1="105.07899"
       x2="138.13261"
       y2="123.66053"
       gradientUnits="userSpaceOnUse" />
    <clipPath
       clipPathUnits="userSpaceOnUse"
       id="clipPath1333">
      <circle
         style="opacity:0.675454;fill:none;fill-opacity:0.735008;stroke:#dbaa00;stroke-width:0.148;stroke-miterlimit:4;stroke-dasharray:none;stroke-opacity:1"
         id="circle1335"
         cx="89.52729"
         cy="114.84027"
         r="38.958405" />
    </clipPath>
  </defs>
  <sodipodi:namedview
     id="base"
     pagecolor="#ffffff"
     bordercolor="#666666"
     borderopacity="1.0"
     inkscape:pageopacity="0.0"
     inkscape:pageshadow="2"
     inkscape:zoom="2.8284271"
     inkscape:cx="305.40363"
     inkscape:cy="292.60924"
     inkscape:document-units="mm"
     inkscape:current-layer="layer1"
     inkscape:document-rotation="0"
     showgrid="false"
     fit-margin-top="0"
     fit-margin-left="0"
     fit-margin-right="0"
     fit-margin-bottom="0"
     inkscape:pagecheckerboard="true"
     inkscape:window-width="4500"
     inkscape:window-height="2980"
     inkscape:window-x="0"
     inkscape:window-y="20"
     inkscape:window-maximized="0" />
  <metadata
     id="metadata5">
    <rdf:RDF>
      <cc:Work
         rdf:about="">
        <dc:format>image/svg+xml</dc:format>
        <dc:type
           rdf:resource="http://purl.org/dc/dcmitype/StillImage" />
        <dc:title></dc:title>
      </cc:Work>
    </rdf:RDF>
  </metadata>
  <g
     inkscape:label="Layer 1"
     inkscape:groupmode="layer"
     id="layer1"
     transform="translate(-53.424737,-11.947844)">
    <g
       id="g1318"
       clip-path="url(#clipPath1333)"
       transform="matrix(1.5401041,0,0,1.5401041,-24.456611,-104.91813)">
      <circle
         style="opacity:1;fill:url(#linearGradient1080);fill-opacity:1;stroke:none;stroke-width:0.01;stroke-opacity:1"
         id="path833-9"
         cx="91.159279"
         cy="113.05322"
         r="47.645229" />
      <path
         id="path1043"
         style="opacity:0.34103;fill:#ffd42a;fill-opacity:1;stroke:none;stroke-width:0.01;stroke-opacity:1"
         d="M 91.159292,65.407894 A 47.645229,47.645229 0 0 0 46.288647,97.032319 l 92.497193,17.351401 a 47.645229,47.645229 0 0 0 0.0186,-1.33067 47.645229,47.645229 0 0 0 -47.645151,-47.645156 z" />
      <path
         id="path920"
         style="opacity:0.62346;fill:#000000;fill-opacity:1;stroke:#dbaa00;stroke-width:0.002375"
         d="m 91.11405,88.955158 a 12.538956,10.211831 62.512439 0 0 -10.704762,9.902825 12.538956,10.211831 62.512439 0 0 0.824556,4.729597 l 19.850886,3.72383 a 12.538956,10.211831 62.512439 0 0 0.82456,-4.42024 12.538956,10.211831 62.512439 0 0 -10.750003,-13.927526 12.538956,10.211831 62.512439 0 0 -0.04524,-0.0085 z" />
      <g
         id="g1117"
         style="opacity:0.828182">
        <path
           id="path920-5-6"
           style="opacity:1;mix-blend-mode:normal;fill:#ffb845;fill-opacity:0.910144;stroke:#dbaa00;stroke-width:0.00392181"
           d="M 105.92074,153.17149 A 36.47959,9.5710804 70.521828 0 1 84.547524,116.68391 36.47959,9.5710804 70.521828 0 1 81.274379,103.59519 l 19.850891,3.72382 a 36.47959,9.5710804 70.521828 0 1 4.92226,13.39809 36.47959,9.5710804 70.521828 0 1 -0.0816,32.46286 36.47959,9.5710804 70.521828 0 1 -0.0452,-0.008 z"
           inkscape:transform-center-y="22.599879"
           inkscape:transform-center-x="-4.699247" />
        <path
           id="path920-5-6-2"
           style="opacity:0.675454;mix-blend-mode:normal;fill:#ff4040;fill-opacity:0.94111;stroke:#dbaa00;stroke-width:0.00392181"
           d="m 76.307362,147.61631 a 10.796658,32.338626 20.391859 0 1 -0.03631,-32.48498 10.796658,32.338626 20.391859 0 1 4.922257,-11.55135 l 19.850891,3.72383 a 10.796658,32.338626 20.391859 0 1 -3.273149,11.86071 10.796658,32.338626 20.391859 0 1 -21.418482,28.46027 10.796658,32.338626 20.391859 0 1 -0.04522,-0.008 z"
           inkscape:transform-center-y="22.599879"
           inkscape:transform-center-x="4.6992875" />
        <g
           id="g1110">
          <path
             id="path920-5-6-2-0"
             style="opacity:0.675454;mix-blend-mode:normal;fill:#ff4040;fill-opacity:0.94111;stroke:#dbaa00;stroke-width:0.00392181"
             d="m 76.307362,147.61631 a 10.796658,32.338626 20.391859 0 1 -0.03631,-32.48498 10.796658,32.338626 20.391859 0 1 4.922257,-11.55135 l 19.850891,3.72383 a 10.796658,32.338626 20.391859 0 1 -3.273149,11.86071 10.796658,32.338626 20.391859 0 1 -21.418482,28.46027 10.796658,32.338626 20.391859 0 1 -0.04522,-0.008 z"
             inkscape:transform-center-y="22.599879"
             inkscape:transform-center-x="4.6992875" />
          <path
             id="path920-5-6-27"
             style="mix-blend-mode:normal;fill:#ffb845;fill-opacity:0.513188;stroke:#dbaa00;stroke-width:0.00392181"
             d="M 105.92074,153.17149 A 36.47959,9.5710804 70.521828 0 1 84.547524,116.68391 36.47959,9.5710804 70.521828 0 1 81.274379,103.59519 l 19.850891,3.72382 a 36.47959,9.5710804 70.521828 0 1 4.92226,13.39809 36.47959,9.5710804 70.521828 0 1 -0.0816,32.46286 36.47959,9.5710804 70.521828 0 1 -0.0452,-0.008 z"
             inkscape:transform-center-y="22.599879"
             inkscape:transform-center-x="-4.699247" />
        </g>
      </g>
    </g>
  </g>
</svg>
