<?xml version="1.0" encoding="UTF-8" standalone="no"?>
<!-- Created with Inkscape (http://www.inkscape.org/) -->

<svg
   width="120mm"
   height="119.99999mm"
   viewBox="0 0 120 119.99999"
   version="1.1"
   id="svg5"
   inkscape:version="1.2.2 (b0a8486541, 2022-12-01)"
   sodipodi:docname="logo.svg"
   xmlns:inkscape="http://www.inkscape.org/namespaces/inkscape"
   xmlns:sodipodi="http://sodipodi.sourceforge.net/DTD/sodipodi-0.dtd"
   xmlns:xlink="http://www.w3.org/1999/xlink"
   xmlns="http://www.w3.org/2000/svg"
   xmlns:svg="http://www.w3.org/2000/svg">
  <sodipodi:namedview
     id="namedview7"
     pagecolor="#ffffff"
     bordercolor="#111111"
     borderopacity="1"
     inkscape:showpageshadow="0"
     inkscape:pageopacity="0"
     inkscape:pagecheckerboard="1"
     inkscape:deskcolor="#d1d1d1"
     inkscape:document-units="mm"
     showgrid="true"
     inkscape:zoom="0.84096521"
     inkscape:cx="227.11998"
     inkscape:cy="353.16562"
     inkscape:window-width="1566"
     inkscape:window-height="2978"
     inkscape:window-x="1365"
     inkscape:window-y="20"
     inkscape:window-maximized="1"
     inkscape:current-layer="layer1">
    <inkscape:grid
       type="xygrid"
       id="grid686"
       dotted="true"
       originx="-45.000002"
       originy="-55.000001" />
  </sodipodi:namedview>
  <defs
     id="defs2">
    <linearGradient
       inkscape:collect="always"
       id="linearGradient1249">
      <stop
         style="stop-color:#3278ff;stop-opacity:1;"
         offset="0"
         id="stop1245" />
      <stop
         style="stop-color:#4000c1;stop-opacity:1;"
         offset="1"
         id="stop1247" />
    </linearGradient>
    <linearGradient
       inkscape:collect="always"
       xlink:href="#linearGradient1249"
       id="linearGradient1251"
       x1="100"
       y1="60"
       x2="100"
       y2="180"
       gradientUnits="userSpaceOnUse" />
    <clipPath
       clipPathUnits="userSpaceOnUse"
       id="clipPath1368">
      <circle
         style="fill:none;fill-opacity:1;stroke:#000000;stroke-width:0.0280001;stroke-opacity:1;stop-color:#000000"
         id="circle1370"
         cx="105"
         cy="115.00001"
         r="54.999996" />
    </clipPath>
  </defs>
  <g
     inkscape:label="Layer 1"
     inkscape:groupmode="layer"
     id="layer1"
     transform="translate(-45.000002,-55.000001)">
    <g
       id="g1353"
       clip-path="url(#clipPath1368)"
       transform="matrix(1.0909092,0,0,1.0909092,-9.5454625,-10.454563)">
      <circle
         style="opacity:1;fill:url(#linearGradient1251);fill-opacity:1;stroke-width:0.0280001;stop-color:#000000"
         id="path790"
         cx="105"
         cy="115"
         r="54.999996" />
      <ellipse
         style="opacity:0.692131;fill:#e5ad3d;fill-opacity:1;stroke-width:0.0306725;stop-color:#000000"
         id="path844"
         cx="90"
         cy="130"
         rx="30"
         ry="10" />
      <ellipse
         style="opacity:0.692131;fill:#e5e53d;fill-opacity:1;stroke-width:0.0306725;stop-color:#000000"
         id="path844-3"
         cx="120"
         cy="130"
         rx="30"
         ry="10" />
      <path
         id="path1182"
         style="fill:#f5ad3d;fill-opacity:0.283422;stroke:none;stroke-width:0.229136px;stroke-linecap:butt;stroke-linejoin:miter;stroke-opacity:1"
         d="m 69.999862,59.999955 -9.87485,69.123425 a 30,10 0 0 1 0.24443,-0.68781 30,10 0 0 1 0.459403,-0.76998 30,10 0 0 1 0.639238,-0.75551 30,10 0 0 1 0.815454,-0.7369 30,10 0 0 1 0.986503,-0.71314 30,10 0 0 1 1.150834,-0.68523 30,10 0 0 1 1.308447,-0.65267 30,10 0 0 1 1.458309,-0.6165 30,10 0 0 1 1.599386,-0.57671 30,10 0 0 1 1.72961,-0.53278 30,10 0 0 1 1.850016,-0.48628 30,10 0 0 1 1.958537,-0.43615 30,10 0 0 1 2.055172,-0.38395 30,10 0 0 1 2.139404,-0.32867 30,10 0 0 1 2.209684,-0.27181 30,10 0 0 1 2.267045,-0.21291 30,10 0 0 1 2.310454,-0.15348 30,10 0 0 1 2.339392,-0.092 30,10 0 0 1 2.353861,-0.031 30,10 0 0 1 0.798401,0.004 30,10 0 0 1 0.797884,0.0109 30,10 0 0 1 0.796851,0.0176 30,10 0 0 1 0.7953,0.0248 30,10 0 0 1 0.793233,0.0315 30,10 0 0 1 0.790133,0.0393 30,10 0 0 1 0.786515,0.0455 30,10 0 0 1 0.782898,0.0527 30,10 0 0 1 0.778247,0.0599 30,10 0 0 1 0.773597,0.0667 30,10 0 0 1 0.767395,0.0734 30,10 0 0 1 0.76171,0.0801 30,10 0 0 1 0.754995,0.0873 30,10 0 0 1 0.74724,0.0935 30,10 0 0 1 0.74001,0.10025 30,10 0 0 1 0.73173,0.10646 30,10 0 0 1 0.72296,0.11368 30,10 0 0 1 0.71365,0.11938 30,10 0 0 1 0.70383,0.12609 30,10 0 0 1 0.69298,0.13177 30,10 0 0 1 0.68265,0.13849 30,10 0 0 1 0.67179,0.14418 30,10 0 0 1 0.65939,0.14986 30,10 0 0 1 0.64751,0.15607 30,10 0 0 1 0.63459,0.16174 30,10 0 0 1 0.62166,0.16692 30,10 0 0 1 0.60823,0.1726 30,10 0 0 1 0.59377,0.17828 30,10 0 0 1 0.57981,0.18294 30,10 0 0 1 0.5643,0.1881 30,10 0 0 1 0.54984,0.19327 30,10 0 0 1 0.53382,0.19792 30,10 0 0 1 0.5178,0.20309 30,10 0 0 1 0.50177,0.20722 30,10 0 0 1 0.48473,0.21136 30,10 0 0 1 0.46767,0.216 30,10 0 0 1 0.4501,0.21963 30,10 0 0 1 0.43305,0.22376 30,10 0 0 1 0.41445,0.22737 30,10 0 0 1 0.39635,0.23151 30,10 0 0 1 0.37776,0.23462 30,10 0 0 1 0.16278,0.108 z" />
      <path
         id="path1157"
         style="fill:#f5ad3d;fill-opacity:0.283422;stroke:none;stroke-width:0.229136px;stroke-linecap:butt;stroke-linejoin:miter;stroke-opacity:1"
         d="M 140.00024,59.999955 93.213949,125.50035 a 30,10 0 0 1 0.05581,-0.0403 30,10 0 0 1 1.150834,-0.68523 30,10 0 0 1 1.308964,-0.65267 30,10 0 0 1 1.458309,-0.6165 30,10 0 0 1 1.598869,-0.57671 30,10 0 0 1 1.729615,-0.53278 30,10 0 0 1 1.85001,-0.48628 30,10 0 0 1 1.95854,-0.43615 30,10 0 0 1 2.05517,-0.38395 30,10 0 0 1 2.1394,-0.32867 30,10 0 0 1 2.21021,-0.27181 30,10 0 0 1 2.26704,-0.21291 30,10 0 0 1 2.31045,-0.15348 30,10 0 0 1 2.33888,-0.092 30,10 0 0 1 2.35386,-0.031 30,10 0 0 1 0.79892,0.004 30,10 0 0 1 0.79788,0.0109 30,10 0 0 1 0.79685,0.0176 30,10 0 0 1 0.7953,0.0248 30,10 0 0 1 0.79272,0.0315 30,10 0 0 1 0.79013,0.0393 30,10 0 0 1 0.78703,0.0455 30,10 0 0 1 0.7829,0.0527 30,10 0 0 1 0.77825,0.0599 30,10 0 0 1 0.77308,0.0667 30,10 0 0 1 0.76791,0.0734 30,10 0 0 1 0.76119,0.0801 30,10 0 0 1 0.755,0.0873 30,10 0 0 1 0.74776,0.0935 30,10 0 0 1 0.74,0.10025 30,10 0 0 1 0.73174,0.10646 30,10 0 0 1 0.72244,0.11368 30,10 0 0 1 0.71365,0.11938 30,10 0 0 1 0.70383,0.12609 30,10 0 0 1 0.6935,0.13177 30,10 0 0 1 0.68264,0.13849 30,10 0 0 1 0.67128,0.14418 30,10 0 0 1 0.65991,0.14986 30,10 0 0 1 0.64699,0.15607 30,10 0 0 1 0.6351,0.16174 30,10 0 0 1 0.62167,0.16692 30,10 0 0 1 0.60771,0.1726 30,10 0 0 1 0.59428,0.17828 30,10 0 0 1 0.5793,0.18294 30,10 0 0 1 0.56482,0.1881 30,10 0 0 1 0.54932,0.19327 30,10 0 0 1 0.53433,0.19792 30,10 0 0 1 0.5178,0.20309 30,10 0 0 1 0.50126,0.20722 30,10 0 0 1 0.48473,0.21136 30,10 0 0 1 0.46819,0.216 30,10 0 0 1 0.4501,0.21963 30,10 0 0 1 0.43253,0.22376 30,10 0 0 1 0.41444,0.22737 30,10 0 0 1 0.39636,0.23151 30,10 0 0 1 0.37776,0.23462 30,10 0 0 1 0.35863,0.23771 30,10 0 0 1 0.34003,0.24081 30,10 0 0 1 0.3204,0.24391 30,10 0 0 1 0.30075,0.2465 30,10 0 0 1 0.28061,0.2496 30,10 0 0 1 0.26096,0.25166 30,10 0 0 1 0.24082,0.25373 30,10 0 0 1 0.22014,0.2558 30,10 0 0 1 0.19998,0.25787 30,10 0 0 1 0.17932,0.25941 30,10 0 0 1 0.15813,0.26097 30,10 0 0 1 0.13798,0.262 30,10 0 0 1 0.11627,0.26355 30,10 0 0 1 0.0956,0.26406 30,10 0 0 1 0.0372,0.13178 z" />
    </g>
  </g>
</svg>
