<?xml version="1.0" encoding="UTF-8" standalone="no"?>

<svg
   width="120mm"
   height="120mm"
   viewBox="0 0 120 120"
   version="1.1"
   id="svg5"
   inkscape:version="1.2.1 (9c6d41e410, 2022-07-14)"
   sodipodi:docname="logo.svg"
   xmlns:inkscape="http://www.inkscape.org/namespaces/inkscape"
   xmlns:sodipodi="http://sodipodi.sourceforge.net/DTD/sodipodi-0.dtd"
   xmlns:xlink="http://www.w3.org/1999/xlink"
   xmlns="http://www.w3.org/2000/svg"
   xmlns:svg="http://www.w3.org/2000/svg">
  <sodipodi:namedview
     id="namedview7"
     pagecolor="#ffffff"
     bordercolor="#111111"
     borderopacity="1"
     inkscape:showpageshadow="0"
     inkscape:pageopacity="0"
     inkscape:pagecheckerboard="1"
     inkscape:deskcolor="#d1d1d1"
     inkscape:document-units="mm"
     showgrid="false"
     inkscape:zoom="0.2973261"
     inkscape:cx="240.4767"
     inkscape:cy="20.179863"
     inkscape:window-width="4498"
     inkscape:window-height="2978"
     inkscape:window-x="0"
     inkscape:window-y="20"
     inkscape:window-maximized="1"
     inkscape:current-layer="layer1">
    <inkscape:grid
       type="xygrid"
       id="grid686"
       dotted="true"
       originx="-49.999993"
       originy="-70" />
  </sodipodi:namedview>
  <defs
     id="defs2">
    <linearGradient
       inkscape:collect="always"
       id="linearGradient1119">
      <stop
         style="stop-color:#b6047b;stop-opacity:1;"
         offset="0"
         id="stop1115" />
      <stop
         style="stop-color:#b44904;stop-opacity:1;"
         offset="1"
         id="stop1117" />
    </linearGradient>
    <linearGradient
       inkscape:collect="always"
       xlink:href="#linearGradient1119"
       id="linearGradient1113"
       x1="50"
       y1="70"
       x2="170"
       y2="190"
       gradientUnits="userSpaceOnUse" />
    <linearGradient
       inkscape:collect="always"
       xlink:href="#linearGradient1119"
       id="linearGradient1113-6"
       x1="50"
       y1="70"
       x2="170"
       y2="190"
       gradientUnits="userSpaceOnUse"
       gradientTransform="translate(5.2916664,4.233333)" />
    <clipPath
       clipPathUnits="userSpaceOnUse"
       id="clipPath1396">
      <circle
         style="opacity:0.340959;fill:none;fill-opacity:1;stroke:#000000;stroke-width:0.0352777;stroke-opacity:1;stop-color:#000000"
         id="circle1398"
         cx="109.99999"
         cy="130"
         r="60" />
    </clipPath>
  </defs>
  <g
     inkscape:label="Layer 1"
     inkscape:groupmode="layer"
     id="layer1"
     transform="translate(-49.999992,-70)">
    <g
       id="g1381"
       clip-path="url(#clipPath1396)">
      <path
         id="path790"
         style="fill:#8e0e0e;fill-opacity:0.962958;stroke:none;stroke-width:0.0352777;stop-color:#000000"
         d="m 110,90.000191 a 40,40 0 0 0 -3.69073,0.170532 40,40 0 0 0 -3.6592,0.510564 40,40 0 0 0 -3.596685,0.845943 40,40 0 0 0 -3.503145,1.174088 40,40 0 0 0 -3.379639,1.491899 40,40 0 0 0 -3.22771,1.79834 40,40 0 0 0 -3.048392,2.087728 40,40 0 0 0 -2.842204,2.360575 40,40 0 0 0 -2.61276,2.61225 40,40 0 0 0 -2.360063,2.84272 40,40 0 0 0 -2.088245,3.04787 40,40 0 0 0 -1.797823,3.22771 40,40 0 0 0 -1.492415,3.38016 40,40 0 0 0 -1.174089,3.50315 40,40 0 0 0 -0.845943,3.59616 40,40 0 0 0 -0.510563,3.65921 40,40 0 0 0 -0.170532,3.69073 40,40 0 0 0 0.170532,3.69073 40,40 0 0 0 0.510563,3.65921 40,40 0 0 0 0.845943,3.59668 40,40 0 0 0 1.174089,3.50314 40,40 0 0 0 1.492415,3.38016 40,40 0 0 0 1.797823,3.22771 40,40 0 0 0 2.088245,3.04787 40,40 0 0 0 2.360063,2.84272 40,40 0 0 0 2.61276,2.61225 40,40 0 0 0 2.842204,2.36058 40,40 0 0 0 3.048392,2.08772 40,40 0 0 0 3.22771,1.79783 40,40 0 0 0 3.379639,1.49241 40,40 0 0 0 3.503145,1.17409 40,40 0 0 0 3.596685,0.84594 40,40 0 0 0 3.6592,0.51057 40,40 0 0 0 3.69073,0.17053 40,40 0 0 0 3.69073,-0.17053 40,40 0 0 0 3.65921,-0.51057 40,40 0 0 0 3.59668,-0.84594 40,40 0 0 0 3.50315,-1.17409 40,40 0 0 0 3.37964,-1.49241 40,40 0 0 0 3.22771,-1.79783 40,40 0 0 0 3.04839,-2.08772 40,40 0 0 0 2.8422,-2.36058 40,40 0 0 0 2.61276,-2.61225 40,40 0 0 0 2.36007,-2.84272 40,40 0 0 0 2.08824,-3.04787 40,40 0 0 0 1.79782,-3.22771 40,40 0 0 0 1.49242,-3.38016 40,40 0 0 0 1.17409,-3.50314 40,40 0 0 0 0.84594,-3.59668 40,40 0 0 0 0.51056,-3.65921 40,40 0 0 0 0.17054,-3.69073 40,40 0 0 0 -0.0196,-1.25626 40,40 0 0 0 -0.0594,-1.25522 40,40 0 0 0 -0.0987,-1.25263 40,40 0 0 0 -0.13798,-1.24902 40,40 0 0 0 -0.17673,-1.24386 40,40 0 0 0 -0.21601,-1.23816 40,40 0 0 0 -0.25476,-1.23042 40,40 0 0 0 -0.29352,-1.22163 40,40 0 0 0 -0.33177,-1.21233 40,40 0 0 0 -0.36948,-1.20096 40,40 0 0 0 -0.4067,-1.18907 40,40 0 0 0 -0.44441,-1.17513 40,40 0 0 0 -0.4806,-1.16117 40,40 0 0 0 -0.51728,-1.14514 40,40 0 0 0 -0.55293,-1.12862 40,40 0 0 0 -0.58808,-1.11052 40,40 0 0 0 -0.6227,-1.09141 40,40 0 0 0 -0.65629,-1.07125 40,40 0 0 0 -0.68988,-1.05059 40,40 0 0 0 -0.72244,-1.02784 40,40 0 0 0 -0.75448,-1.00511 40,40 0 0 0 -0.78599,-0.9803 40,40 0 0 0 -0.81598,-0.9555 40,40 0 0 0 -0.84542,-0.92965 40,40 0 0 0 -0.87488,-0.90227 40,40 0 0 0 -0.90227,-0.87437 40,40 0 0 0 -0.92915,-0.845943 40,40 0 0 0 -0.95549,-0.815971 40,40 0 0 0 -0.98082,-0.785482 40,40 0 0 0 -1.00511,-0.754476 40,40 0 0 0 -1.02784,-0.722953 40,40 0 0 0 -1.05007,-0.68988 40,40 0 0 0 -1.07177,-0.656291 40,40 0 0 0 -1.0914,-0.622701 40,40 0 0 0 -1.11053,-0.588078 40,40 0 0 0 -1.12861,-0.552938 40,40 0 0 0 -1.14515,-0.516764 40,40 0 0 0 -1.16066,-0.481108 40,40 0 0 0 -1.17564,-0.4439 40,40 0 0 0 -1.18907,-0.407211 40,40 0 0 0 -1.20096,-0.369486 40,40 0 0 0 -1.21181,-0.331763 40,40 0 0 0 -1.22215,-0.293005 40,40 0 0 0 -1.23042,-0.254765 40,40 0 0 0 -1.23765,-0.216007 40,40 0 0 0 -1.24437,-0.177251 40,40 0 0 0 -1.24901,-0.137976 40,40 0 0 0 -1.25264,-0.0987 40,40 0 0 0 -1.25522,-0.05891 A 40,40 0 0 0 110,90.000191 Z" />
      <path
         id="path1022"
         style="fill:#8e0e0e;fill-opacity:0.962958;stroke:none;stroke-width:0.0352777;stop-color:#000000"
         d="M 110,69.999862 A 60,60 0 0 0 50.000049,129.99982 60,60 0 0 0 110,189.99977 60,60 0 0 0 169.99996,129.99982 60,60 0 0 0 110,69.999862 Z m 0,20.000329 a 40,40 0 0 1 1.25626,0.01964 40,40 0 0 1 1.25522,0.05891 40,40 0 0 1 1.25264,0.0987 40,40 0 0 1 1.24901,0.137976 40,40 0 0 1 1.24437,0.177251 40,40 0 0 1 1.23765,0.216007 40,40 0 0 1 1.23042,0.254765 40,40 0 0 1 1.22215,0.293005 40,40 0 0 1 1.21181,0.331763 40,40 0 0 1 1.20096,0.369486 40,40 0 0 1 1.18907,0.407211 40,40 0 0 1 1.17564,0.4439 40,40 0 0 1 1.16066,0.481108 40,40 0 0 1 1.14515,0.516764 40,40 0 0 1 1.12861,0.552938 40,40 0 0 1 1.11053,0.588078 40,40 0 0 1 1.0914,0.622701 40,40 0 0 1 1.07177,0.656291 40,40 0 0 1 1.05007,0.68988 40,40 0 0 1 1.02784,0.722953 40,40 0 0 1 1.00511,0.754476 40,40 0 0 1 0.98082,0.785482 40,40 0 0 1 0.95549,0.815971 40,40 0 0 1 0.92915,0.845943 40,40 0 0 1 0.90227,0.87437 40,40 0 0 1 0.87488,0.90227 40,40 0 0 1 0.84542,0.92965 40,40 0 0 1 0.81598,0.9555 40,40 0 0 1 0.78599,0.9803 40,40 0 0 1 0.75448,1.00511 40,40 0 0 1 0.72244,1.02784 40,40 0 0 1 0.68988,1.05059 40,40 0 0 1 0.65629,1.07125 40,40 0 0 1 0.6227,1.09141 40,40 0 0 1 0.58808,1.11052 40,40 0 0 1 0.55293,1.12862 40,40 0 0 1 0.51728,1.14514 40,40 0 0 1 0.4806,1.16117 40,40 0 0 1 0.44441,1.17513 40,40 0 0 1 0.4067,1.18907 40,40 0 0 1 0.36948,1.20096 40,40 0 0 1 0.33177,1.21233 40,40 0 0 1 0.29352,1.22163 40,40 0 0 1 0.25476,1.23042 40,40 0 0 1 0.21601,1.23816 40,40 0 0 1 0.17673,1.24386 40,40 0 0 1 0.13798,1.24902 40,40 0 0 1 0.0987,1.25263 40,40 0 0 1 0.0594,1.25522 40,40 0 0 1 0.0196,1.25626 40,40 0 0 1 -0.17054,3.69073 40,40 0 0 1 -0.51056,3.65921 40,40 0 0 1 -0.84594,3.59668 40,40 0 0 1 -1.17409,3.50314 40,40 0 0 1 -1.49242,3.38016 40,40 0 0 1 -1.79782,3.22771 40,40 0 0 1 -2.08824,3.04787 40,40 0 0 1 -2.36007,2.84272 40,40 0 0 1 -2.61276,2.61225 40,40 0 0 1 -2.8422,2.36058 40,40 0 0 1 -3.04839,2.08772 40,40 0 0 1 -3.22771,1.79783 40,40 0 0 1 -3.37964,1.49241 40,40 0 0 1 -3.50315,1.17409 40,40 0 0 1 -3.59668,0.84594 40,40 0 0 1 -3.65921,0.51057 40,40 0 0 1 -3.69073,0.17053 40,40 0 0 1 -3.69073,-0.17053 40,40 0 0 1 -3.6592,-0.51057 40,40 0 0 1 -3.596685,-0.84594 40,40 0 0 1 -3.503145,-1.17409 40,40 0 0 1 -3.379639,-1.49241 40,40 0 0 1 -3.22771,-1.79783 40,40 0 0 1 -3.048392,-2.08772 40,40 0 0 1 -2.842204,-2.36058 40,40 0 0 1 -2.61276,-2.61225 40,40 0 0 1 -2.360063,-2.84272 40,40 0 0 1 -2.088245,-3.04787 40,40 0 0 1 -1.797823,-3.22771 40,40 0 0 1 -1.492415,-3.38016 40,40 0 0 1 -1.174089,-3.50314 40,40 0 0 1 -0.845943,-3.59668 40,40 0 0 1 -0.510563,-3.65921 40,40 0 0 1 -0.170532,-3.69073 40,40 0 0 1 0.170532,-3.69073 40,40 0 0 1 0.510563,-3.65921 40,40 0 0 1 0.845943,-3.59616 40,40 0 0 1 1.174089,-3.50315 40,40 0 0 1 1.492415,-3.38016 40,40 0 0 1 1.797823,-3.22771 40,40 0 0 1 2.088245,-3.04787 40,40 0 0 1 2.360063,-2.84272 40,40 0 0 1 2.61276,-2.61225 40,40 0 0 1 2.842204,-2.360575 40,40 0 0 1 3.048392,-2.087728 40,40 0 0 1 3.22771,-1.79834 A 40,40 0 0 1 95.55017,92.701318 40,40 0 0 1 99.053315,91.52723 40,40 0 0 1 102.65,90.681287 40,40 0 0 1 106.3092,90.170723 40,40 0 0 1 110,90.000191 Z" />
      <circle
         style="fill:#380650;fill-opacity:1;stroke:none;stroke-width:0.0352777;stop-color:#000000"
         id="path792"
         cx="109.99999"
         cy="130"
         r="40" />
      <path
         style="opacity:0.340959;fill:#fcf88b;fill-opacity:0.191164;stroke:none;stroke-width:0.264583px;stroke-linecap:butt;stroke-linejoin:miter;stroke-opacity:1"
         d="M 110,130 180,59.999998 V 200 Z"
         id="path960" />
      <path
         style="opacity:0.340959;fill:#fcf88b;fill-opacity:0.191164;stroke:none;stroke-width:0.175005px;stroke-linecap:butt;stroke-linejoin:miter;stroke-opacity:1"
         d="m 110,130 70,-20 v 40 z"
         id="path962" />
      <path
         style="opacity:0.340959;fill:#fcf88b;fill-opacity:0.191164;stroke:none;stroke-width:0.354974px;stroke-linecap:butt;stroke-linejoin:miter;stroke-opacity:1"
         d="M 110,130 180,-50 V 310 Z"
         id="path966" />
      <path
         id="path1022-3"
         style="fill:url(#linearGradient1113);fill-opacity:1;stroke:none;stroke-width:0.0352777;stop-color:#000000"
         d="M 110,69.999862 A 60,60 0 0 0 50.000049,129.99982 60,60 0 0 0 110,189.99977 60,60 0 0 0 169.99996,129.99982 60,60 0 0 0 110,69.999862 Z m 0,20.000329 a 40,40 0 0 1 1.25626,0.01964 40,40 0 0 1 1.25522,0.05891 40,40 0 0 1 1.25264,0.0987 40,40 0 0 1 1.24901,0.137976 40,40 0 0 1 1.24437,0.177251 40,40 0 0 1 1.23765,0.216007 40,40 0 0 1 1.23042,0.254765 40,40 0 0 1 1.22215,0.293005 40,40 0 0 1 1.21181,0.331763 40,40 0 0 1 1.20096,0.369486 40,40 0 0 1 1.18907,0.407211 40,40 0 0 1 1.17564,0.4439 40,40 0 0 1 1.16066,0.481108 40,40 0 0 1 1.14515,0.516764 40,40 0 0 1 1.12861,0.552938 40,40 0 0 1 1.11053,0.588078 40,40 0 0 1 1.0914,0.622701 40,40 0 0 1 1.07177,0.656291 40,40 0 0 1 1.05007,0.68988 40,40 0 0 1 1.02784,0.722953 40,40 0 0 1 1.00511,0.754476 40,40 0 0 1 0.98082,0.785482 40,40 0 0 1 0.95549,0.815971 40,40 0 0 1 0.92915,0.845943 40,40 0 0 1 0.90227,0.87437 40,40 0 0 1 0.87488,0.90227 40,40 0 0 1 0.84542,0.92965 40,40 0 0 1 0.81598,0.9555 40,40 0 0 1 0.78599,0.9803 40,40 0 0 1 0.75448,1.00511 40,40 0 0 1 0.72244,1.02784 40,40 0 0 1 0.68988,1.05059 40,40 0 0 1 0.65629,1.07125 40,40 0 0 1 0.6227,1.09141 40,40 0 0 1 0.58808,1.11052 40,40 0 0 1 0.55293,1.12862 40,40 0 0 1 0.51728,1.14514 40,40 0 0 1 0.4806,1.16117 40,40 0 0 1 0.44441,1.17513 40,40 0 0 1 0.4067,1.18907 40,40 0 0 1 0.36948,1.20096 40,40 0 0 1 0.33177,1.21233 40,40 0 0 1 0.29352,1.22163 40,40 0 0 1 0.25476,1.23042 40,40 0 0 1 0.21601,1.23816 40,40 0 0 1 0.17673,1.24386 40,40 0 0 1 0.13798,1.24902 40,40 0 0 1 0.0987,1.25263 40,40 0 0 1 0.0594,1.25522 40,40 0 0 1 0.0196,1.25626 40,40 0 0 1 -0.17054,3.69073 40,40 0 0 1 -0.51056,3.65921 40,40 0 0 1 -0.84594,3.59668 40,40 0 0 1 -1.17409,3.50314 40,40 0 0 1 -1.49242,3.38016 40,40 0 0 1 -1.79782,3.22771 40,40 0 0 1 -2.08824,3.04787 40,40 0 0 1 -2.36007,2.84272 40,40 0 0 1 -2.61276,2.61225 40,40 0 0 1 -2.8422,2.36058 40,40 0 0 1 -3.04839,2.08772 40,40 0 0 1 -3.22771,1.79783 40,40 0 0 1 -3.37964,1.49241 40,40 0 0 1 -3.50315,1.17409 40,40 0 0 1 -3.59668,0.84594 40,40 0 0 1 -3.65921,0.51057 40,40 0 0 1 -3.69073,0.17053 40,40 0 0 1 -3.69073,-0.17053 40,40 0 0 1 -3.6592,-0.51057 40,40 0 0 1 -3.596685,-0.84594 40,40 0 0 1 -3.503145,-1.17409 40,40 0 0 1 -3.379639,-1.49241 40,40 0 0 1 -3.22771,-1.79783 40,40 0 0 1 -3.048392,-2.08772 40,40 0 0 1 -2.842204,-2.36058 40,40 0 0 1 -2.61276,-2.61225 40,40 0 0 1 -2.360063,-2.84272 40,40 0 0 1 -2.088245,-3.04787 40,40 0 0 1 -1.797823,-3.22771 40,40 0 0 1 -1.492415,-3.38016 40,40 0 0 1 -1.174089,-3.50314 40,40 0 0 1 -0.845943,-3.59668 40,40 0 0 1 -0.510563,-3.65921 40,40 0 0 1 -0.170532,-3.69073 40,40 0 0 1 0.170532,-3.69073 40,40 0 0 1 0.510563,-3.65921 40,40 0 0 1 0.845943,-3.59616 40,40 0 0 1 1.174089,-3.50315 40,40 0 0 1 1.492415,-3.38016 40,40 0 0 1 1.797823,-3.22771 40,40 0 0 1 2.088245,-3.04787 40,40 0 0 1 2.360063,-2.84272 40,40 0 0 1 2.61276,-2.61225 40,40 0 0 1 2.842204,-2.360575 40,40 0 0 1 3.048392,-2.087728 40,40 0 0 1 3.22771,-1.79834 A 40,40 0 0 1 95.55017,92.701318 40,40 0 0 1 99.053315,91.52723 40,40 0 0 1 102.65,90.681287 40,40 0 0 1 106.3092,90.170723 40,40 0 0 1 110,90.000191 Z" />
      <path
         style="fill:#fcf88b;fill-opacity:0.191164;stroke:none;stroke-width:0.264583px;stroke-linecap:butt;stroke-linejoin:miter;stroke-opacity:1"
         d="M 110,130 40,59.999998 V 200 Z"
         id="path960-3" />
      <path
         id="path1022-3-1"
         style="opacity:0.387584;fill:url(#linearGradient1113-6);fill-opacity:1;stroke:none;stroke-width:0.0352777;stop-color:#000000"
         d="M 115.29164,74.233192 A 60,60 0 0 0 55.291713,134.23312 60,60 0 0 0 115.29164,194.23307 60,60 0 0 0 175.2916,134.23312 60,60 0 0 0 115.29164,74.233192 Z m 0,20.000329 a 40,40 0 0 1 1.25626,0.01964 40,40 0 0 1 1.25522,0.05891 40,40 0 0 1 1.25264,0.0987 40,40 0 0 1 1.24901,0.137976 40,40 0 0 1 1.24437,0.177251 40,40 0 0 1 1.23765,0.216007 40,40 0 0 1 1.23042,0.254765 40,40 0 0 1 1.22215,0.293007 40,40 0 0 1 1.21181,0.331757 40,40 0 0 1 1.20096,0.36949 40,40 0 0 1 1.18907,0.407207 40,40 0 0 1 1.17564,0.443897 40,40 0 0 1 1.16066,0.481107 40,40 0 0 1 1.14515,0.516757 40,40 0 0 1 1.12861,0.552937 40,40 0 0 1 1.11053,0.588077 40,40 0 0 1 1.0914,0.622687 40,40 0 0 1 1.07177,0.656287 40,40 0 0 1 1.05007,0.68988 40,40 0 0 1 1.02784,0.72295 40,40 0 0 1 1.00511,0.75448 40,40 0 0 1 0.98082,0.78548 40,40 0 0 1 0.95549,0.81597 40,40 0 0 1 0.92915,0.84595 40,40 0 0 1 0.90227,0.87437 40,40 0 0 1 0.87488,0.90227 40,40 0 0 1 0.84542,0.92965 40,40 0 0 1 0.81598,0.9555 40,40 0 0 1 0.78599,0.9803 40,40 0 0 1 0.75448,1.00511 40,40 0 0 1 0.72244,1.02784 40,40 0 0 1 0.68988,1.05059 40,40 0 0 1 0.65629,1.07125 40,40 0 0 1 0.6227,1.09141 40,40 0 0 1 0.58808,1.11052 40,40 0 0 1 0.55293,1.12862 40,40 0 0 1 0.51728,1.14514 40,40 0 0 1 0.4806,1.16117 40,40 0 0 1 0.44441,1.17513 40,40 0 0 1 0.4067,1.18907 40,40 0 0 1 0.36948,1.20096 40,40 0 0 1 0.33177,1.21233 40,40 0 0 1 0.29352,1.22163 40,40 0 0 1 0.25476,1.23042 40,40 0 0 1 0.21601,1.23816 40,40 0 0 1 0.17673,1.24386 40,40 0 0 1 0.13798,1.24902 40,40 0 0 1 0.0987,1.25263 40,40 0 0 1 0.0594,1.25522 40,40 0 0 1 0.0196,1.25626 40,40 0 0 1 -0.17054,3.69073 40,40 0 0 1 -0.51056,3.65921 40,40 0 0 1 -0.84594,3.59668 40,40 0 0 1 -1.17409,3.50314 40,40 0 0 1 -1.49242,3.38016 40,40 0 0 1 -1.79782,3.22771 40,40 0 0 1 -2.08824,3.04787 40,40 0 0 1 -2.36007,2.84272 40,40 0 0 1 -2.61276,2.61225 40,40 0 0 1 -2.8422,2.36058 40,40 0 0 1 -3.04839,2.08772 40,40 0 0 1 -3.22771,1.79783 40,40 0 0 1 -3.37964,1.49241 40,40 0 0 1 -3.50315,1.17409 40,40 0 0 1 -3.59668,0.84594 40,40 0 0 1 -3.65921,0.51057 40,40 0 0 1 -3.69073,0.17053 40,40 0 0 1 -3.69073,-0.17053 40,40 0 0 1 -3.6592,-0.51057 40,40 0 0 1 -3.59669,-0.84594 40,40 0 0 1 -3.50313,-1.17409 40,40 0 0 1 -3.379625,-1.49241 40,40 0 0 1 -3.22771,-1.79783 40,40 0 0 1 -3.048392,-2.08772 40,40 0 0 1 -2.842204,-2.36058 40,40 0 0 1 -2.61276,-2.61225 40,40 0 0 1 -2.360063,-2.84272 40,40 0 0 1 -2.088245,-3.04787 40,40 0 0 1 -1.797823,-3.22771 40,40 0 0 1 -1.492415,-3.38016 40,40 0 0 1 -1.174089,-3.50314 40,40 0 0 1 -0.845943,-3.59668 40,40 0 0 1 -0.510563,-3.65921 40,40 0 0 1 -0.170532,-3.69073 40,40 0 0 1 0.170532,-3.69073 40,40 0 0 1 0.510563,-3.65921 40,40 0 0 1 0.845943,-3.59616 40,40 0 0 1 1.174089,-3.50315 40,40 0 0 1 1.492415,-3.38016 40,40 0 0 1 1.797823,-3.22771 40,40 0 0 1 2.088245,-3.04787 40,40 0 0 1 2.360063,-2.84272 40,40 0 0 1 2.61276,-2.61225 40,40 0 0 1 2.842204,-2.36058 40,40 0 0 1 3.048392,-2.08773 40,40 0 0 1 3.22771,-1.798321 40,40 0 0 1 3.379625,-1.491891 40,40 0 0 1 3.50313,-1.174081 40,40 0 0 1 3.59669,-0.84594 40,40 0 0 1 3.6592,-0.510564 40,40 0 0 1 3.6908,-0.170532 z" />
      <path
         style="fill:#fcf88b;fill-opacity:0.191164;stroke:none;stroke-width:0.175005px;stroke-linecap:butt;stroke-linejoin:miter;stroke-opacity:1"
         d="M 110,130 40,110 v 40 z"
         id="path962-6" />
      <circle
         style="opacity:0.439484;fill:#009885;fill-opacity:1;stroke:none;stroke-width:0.0352777;stop-color:#000000"
         id="path794-5"
         cx="115.29166"
         cy="134.23343"
         r="10" />
      <path
         style="fill:#fcf88b;fill-opacity:0.191164;stroke:none;stroke-width:0.354974px;stroke-linecap:butt;stroke-linejoin:miter;stroke-opacity:1"
         d="M 110,130 40,-50 v 360 z"
         id="path966-7" />
      <circle
         style="fill:#009885;fill-opacity:1;stroke:none;stroke-width:0.0352777;stop-color:#000000"
         id="path794"
         cx="109.99999"
         cy="130"
         r="10" />
    </g>
  </g>
</svg>
