<?xml version="1.0" encoding="UTF-8" standalone="no"?>
<!-- Created with Inkscape (http://www.inkscape.org/) -->

<svg
   xmlns:dc="http://purl.org/dc/elements/1.1/"
   xmlns:cc="http://creativecommons.org/ns#"
   xmlns:rdf="http://www.w3.org/1999/02/22-rdf-syntax-ns#"
   xmlns:svg="http://www.w3.org/2000/svg"
   xmlns="http://www.w3.org/2000/svg"
   xmlns:xlink="http://www.w3.org/1999/xlink"
   xmlns:sodipodi="http://sodipodi.sourceforge.net/DTD/sodipodi-0.dtd"
   xmlns:inkscape="http://www.inkscape.org/namespaces/inkscape"
   width="120mm"
   height="120mm"
   viewBox="0 0 120 120"
   version="1.1"
   id="svg8"
   sodipodi:docname="gastronomy.svg"
   inkscape:version="0.92.4 (5da689c313, 2019-01-14)">
  <defs
     id="defs2">
    <linearGradient
       inkscape:collect="always"
       id="linearGradient974">
      <stop
         style="stop-color:#6e0000;stop-opacity:1;"
         offset="0"
         id="stop970" />
      <stop
         style="stop-color:#227a07;stop-opacity:1"
         offset="1"
         id="stop972" />
    </linearGradient>
    <linearGradient
       inkscape:collect="always"
       id="linearGradient1135">
      <stop
         style="stop-color:#f9ef27;stop-opacity:1"
         offset="0"
         id="stop1131" />
      <stop
         style="stop-color:#d6f851;stop-opacity:1"
         offset="1"
         id="stop1133" />
    </linearGradient>
    <radialGradient
       inkscape:collect="always"
       xlink:href="#linearGradient1135"
       id="radialGradient1364"
       cx="68.020088"
       cy="122.74026"
       fx="68.020088"
       fy="122.74026"
       r="45.304459"
       gradientUnits="userSpaceOnUse"
       gradientTransform="matrix(0.96115593,0,0,0.96115593,3.4571525,5.733262)" />
    <filter
       inkscape:collect="always"
       style="color-interpolation-filters:sRGB"
       id="filter1890"
       x="-0.156"
       width="1.312"
       y="-0.156"
       height="1.312">
      <feGaussianBlur
         inkscape:collect="always"
         stdDeviation="4.7970992"
         id="feGaussianBlur1892" />
    </filter>
    <filter
       inkscape:collect="always"
       style="color-interpolation-filters:sRGB"
       id="filter2289"
       x="-0.30720001"
       width="1.6144"
       y="-0.30720001"
       height="1.6144">
      <feGaussianBlur
         inkscape:collect="always"
         stdDeviation="4.0027825"
         id="feGaussianBlur2291" />
    </filter>
    <filter
       inkscape:collect="always"
       style="color-interpolation-filters:sRGB"
       id="filter2319"
       x="-0.26193389"
       width="1.5238678"
       y="-0.24728738"
       height="1.4945748">
      <feGaussianBlur
         inkscape:collect="always"
         stdDeviation="2.7352457"
         id="feGaussianBlur2321" />
    </filter>
    <filter
       inkscape:collect="always"
       style="color-interpolation-filters:sRGB"
       id="filter3103"
       x="-0.27485913"
       width="1.5497181"
       y="-0.27485913"
       height="1.5497181">
      <feGaussianBlur
         inkscape:collect="always"
         stdDeviation="3.5813844"
         id="feGaussianBlur3105" />
    </filter>
    <filter
       inkscape:collect="always"
       style="color-interpolation-filters:sRGB"
       id="filter2319-9"
       x="-0.26193389"
       width="1.5238678"
       y="-0.24728738"
       height="1.4945748">
      <feGaussianBlur
         inkscape:collect="always"
         stdDeviation="2.7352457"
         id="feGaussianBlur2321-6" />
    </filter>
    <filter
       inkscape:collect="always"
       style="color-interpolation-filters:sRGB"
       id="filter902"
       x="-0.3504"
       width="1.7007999"
       y="-0.3504"
       height="1.7007999">
      <feGaussianBlur
         inkscape:collect="always"
         stdDeviation="2.2073809"
         id="feGaussianBlur904" />
    </filter>
    <filter
       inkscape:collect="always"
       style="color-interpolation-filters:sRGB"
       id="filter902-1"
       x="-0.3504"
       width="1.7007999"
       y="-0.3504"
       height="1.7007999">
      <feGaussianBlur
         inkscape:collect="always"
         stdDeviation="2.2073809"
         id="feGaussianBlur904-3" />
    </filter>
    <radialGradient
       inkscape:collect="always"
       xlink:href="#linearGradient974"
       id="radialGradient976"
       cx="132.54581"
       cy="98.264839"
       fx="132.54581"
       fy="98.264839"
       r="64.294632"
       gradientUnits="userSpaceOnUse"
       gradientTransform="matrix(0.85562593,-1.0030478,0.67761208,0.57803456,-47.830306,216.39573)" />
    <clipPath
       clipPathUnits="userSpaceOnUse"
       id="clipPath1014">
      <circle
         style="opacity:0.44200003;vector-effect:none;fill:none;fill-opacity:1;stroke:#400000;stroke-width:0.0855855;stroke-linecap:butt;stroke-linejoin:miter;stroke-miterlimit:4;stroke-dasharray:none;stroke-dashoffset:0;stroke-opacity:1"
         id="circle1016"
         cx="103.745"
         cy="125.89965"
         r="26.607281" />
    </clipPath>
  </defs>
  <sodipodi:namedview
     id="base"
     pagecolor="#ffffff"
     bordercolor="#666666"
     borderopacity="1.0"
     inkscape:pageopacity="0.0"
     inkscape:pageshadow="2"
     inkscape:zoom="0.7"
     inkscape:cx="234.66456"
     inkscape:cy="140.09317"
     inkscape:document-units="mm"
     inkscape:current-layer="layer1"
     showgrid="false"
     inkscape:window-width="2256"
     inkscape:window-height="1481"
     inkscape:window-x="-8"
     inkscape:window-y="-8"
     inkscape:window-maximized="1"
     fit-margin-top="0"
     fit-margin-left="0"
     fit-margin-right="0"
     fit-margin-bottom="0"
     inkscape:pagecheckerboard="true" />
  <metadata
     id="metadata5">
    <rdf:RDF>
      <cc:Work
         rdf:about="">
        <dc:format>image/svg+xml</dc:format>
        <dc:type
           rdf:resource="http://purl.org/dc/dcmitype/StillImage" />
        <dc:title></dc:title>
      </cc:Work>
    </rdf:RDF>
  </metadata>
  <g
     inkscape:label="Layer 1"
     inkscape:groupmode="layer"
     id="layer1"
     transform="translate(-43.745002,-65.899648)">
    <g
       id="g998"
       clip-path="url(#clipPath1014)"
       transform="matrix(2.2550219,0,0,2.2550219,-130.20225,-158.00682)">
      <circle
         r="64.294632"
         cy="147.59633"
         cx="89.000748"
         id="path815"
         style="opacity:1;vector-effect:none;fill:url(#radialGradient976);fill-opacity:1;stroke:none;stroke-width:0.13439164;stroke-linecap:butt;stroke-linejoin:miter;stroke-miterlimit:4;stroke-dasharray:none;stroke-dashoffset:0;stroke-opacity:0.37254902" />
      <path
         inkscape:transform-center-y="1.3496019"
         inkscape:transform-center-x="2.8734183"
         d="m 126.78615,169.65066 -0.31022,0.5231 -0.31746,0.51874 -0.32463,0.51428 -0.33176,0.50971 -0.3388,0.50506 -0.3458,0.50029 -0.35271,0.49544 -0.35957,0.49049 -0.36635,0.48544 -0.37306,0.48031 -0.37971,0.47507 -0.38627,0.46975 -0.39276,0.46433 -0.39918,0.45883 -0.40552,0.45323 -0.41178,0.44756 -0.41796,0.44179 -0.42407,0.43593 -0.43008,0.43 -0.43601,0.42398 -0.44187,0.41788 -0.44764,0.41169 -0.45331,0.40543 -0.4589,0.3991 -0.46441,0.39267 -0.46982,0.38618 -0.47515,0.37961 -0.48037,0.37298 -0.48552,0.36625 -0.49056,0.35948 -0.4955,0.35262 -0.50036,0.3457 -0.50512,0.33871 -0.50978,0.33165 -0.51434,0.32454 -0.5188,0.31736 -0.52316,0.31011 -0.52742,0.30281 -0.53158,0.29546 -0.53563,0.28803 -0.53959,0.28056 -0.54344,0.27303 -0.54717,0.26546 -0.55082,0.25782 -0.55434,0.25014 -0.55777,0.24241 -0.56109,0.23463 -0.56429,0.22681 -0.56739,0.21895 -0.57038,0.21104 -0.57325,0.20308 -0.57603,0.1951 -0.57868,0.18708 -0.58122,0.17901 -0.58366,0.17092 -0.58598,0.16278 -0.588181,0.15463 -0.590276,0.14643 -0.592254,0.13822 -0.594118,0.12997 -0.595867,0.1217 -0.597502,0.1134 -0.59902,0.10509 -0.600423,0.0967 -0.60171,0.0884 -0.60288,0.08 -0.603935,0.0716 -0.604872,0.0632 -0.605692,0.0548 -0.606396,0.0464 -0.606982,0.038 -0.607452,0.0295 -0.607802,0.0211 -0.608038,0.0126 -0.608153,0.004 -0.608154,-0.004 -0.608034,-0.0127 -0.607799,-0.0212 -0.607446,-0.0296 -0.606975,-0.0381 -0.606387,-0.0465 -0.605682,-0.0549 -0.604859,-0.0633 -0.603921,-0.0718 -0.602865,-0.0801 -0.601693,-0.0885 -0.600405,-0.0969 -0.599,-0.10521 -0.597479,-0.11351 -0.595845,-0.12182 -0.594093,-0.13008 -0.592228,-0.13833 -0.590247,-0.14655 -0.588154,-0.15473 -0.585945,-0.1629 -0.583625,-0.17103 -0.581191,-0.17912 -0.578645,-0.18719 -0.575987,-0.19521 -0.573218,-0.2032 -0.570338,-0.21115 -0.567348,-0.21905 -0.564248,-0.22692 -0.56104,-0.23474 -0.557722,-0.24252 -0.554297,-0.25024 -0.550765,-0.25793 -0.547127,-0.26556 -0.543382,-0.27314 -0.539534,-0.28066 -0.535579,-0.28814 -0.531523,-0.29555 -0.527363,-0.30291 -0.523102,-0.31022 -0.518739,-0.31745 -0.514276,-0.32464 -0.509713,-0.33175 -0.505054,-0.33881 -0.500294,-0.3458 -0.49544,-0.35271 -0.490489,-0.35957 -0.485443,-0.36635 -0.480304,-0.37306 -0.475072,-0.37971 -0.469748,-0.38627 -0.464333,-0.39276 -0.458829,-0.39918 -0.453235,-0.40552 -0.447555,-0.41178 -0.441788,-0.41796 -0.435936,-0.42407 -0.429998,-0.43008 -0.423979,-0.43601 -0.417877,-0.44187 -0.411694,-0.44763 -0.405433,-0.45332 -0.399092,-0.4589 -0.392674,-0.46441 -0.386181,-0.46982 -0.379613,-0.47515 -0.372972,-0.48037 -0.366258,-0.48552 -0.359474,-0.49055 -0.352621,-0.49551 -0.345698,-0.50036 -0.33871,-0.50512 -0.331656,-0.50978 -0.324537,-0.51434 -0.317357,-0.5188 -0.310115,-0.52316 -0.302812,-0.52742 -0.295452,-0.53158 -0.288034,-0.53563 -0.280561,-0.53959 -0.273033,-0.54343 -0.265453,-0.54718 -0.257821,-0.55082 -0.25014,-0.55434 -0.24241,-0.55777 -0.234633,-0.56108 -0.226812,-0.5643 -0.218945,-0.56739 -0.211038,-0.57037 -0.203088,-0.57326 -0.195101,-0.57603 -0.187074,-0.57868 -0.179013,-0.58122 -0.170916,-0.58366 -0.162787,-0.58598 -0.154625,-0.58818 -0.146435,-0.59028 -0.138215,-0.59225 -0.129969,-0.59412 -0.121699,-0.59587 -0.113404,-0.5975 -0.105087,-0.59902 -0.09675,-0.60042 -0.0884,-0.60171 -0.08002,-0.60288 -0.07164,-0.60393 -0.06323,-0.60488 -0.05482,-0.60569 -0.04639,-0.60639 -0.03796,-0.60699 -0.02952,-0.60745 -0.02107,-0.6078 -0.01262,-0.60804 -0.0042,-0.60815 0.0043,-0.60816 0.01274,-0.60803 0.02119,-0.6078 0.02964,-0.60744 0.03808,-0.60698 0.04651,-0.60639 0.05494,-0.60568 0.06335,-0.60486 0.07175,-0.60392 0.08014,-0.60286 0.08851,-0.6017 0.09687,-0.6004 0.105202,-0.599 0.113518,-0.59748 0.121813,-0.59585 0.130083,-0.59409 0.138329,-0.59223 0.146547,-0.59024 0.154739,-0.58816 0.162898,-0.58594 0.171028,-0.58363 0.179124,-0.58119 0.187186,-0.57864 0.195211,-0.57599 0.203198,-0.57322 0.211147,-0.57034 0.219054,-0.56735 0.22692,-0.56424 0.23474,-0.56104 0.242517,-0.55773 0.250246,-0.55429 0.257927,-0.55077 0.265558,-0.54712 0.273137,-0.54339 0.280664,-0.53953 0.288137,-0.53558 0.295553,-0.53152 0.302914,-0.52737 0.310215,-0.5231 0.317456,-0.51874 0.324636,-0.51427 0.331754,-0.50972 0.338806,-0.50505 0.345795,-0.50029 0.352715,-0.49544 0.359568,-0.49049 0.366351,-0.48544 0.373064,-0.48031 0.379704,-0.47507 0.386271,-0.46975 0.392763,-0.46433 0.39918,-0.45883 0.405519,-0.45324 0.411781,-0.44755 0.417961,-0.44179 0.424063,-0.43593 0.43008,-0.43 0.436017,-0.42398 0.441868,-0.41788 0.447634,-0.41169 0.453313,-0.40544 0.458906,-0.39909 0.464408,-0.39267 0.469822,-0.38618 0.475145,-0.37962 0.480375,-0.37297 0.485514,-0.36626 0.490557,-0.35947 0.495507,-0.35262 0.500361,-0.3457 0.505118,-0.33871 0.509778,-0.33165 0.514338,-0.32454 0.5188,-0.31736 0.52316,-0.31011 0.527422,-0.30282 0.531579,-0.29545 0.535635,-0.28803 0.539587,-0.28056 0.543435,-0.27304 0.547177,-0.26545 0.550815,-0.25782 0.554345,-0.25014 0.557769,-0.24241 0.561084,-0.23463 0.564292,-0.22681 0.567389,-0.21895 0.570379,-0.21104 0.573257,-0.20309 0.576024,-0.1951 0.578681,-0.18707 0.581226,-0.17901 0.583657,-0.17092 0.585977,-0.16279 0.588183,-0.15462 0.590276,-0.14644 0.592254,-0.13821 0.594118,-0.12997 0.595868,-0.1217 0.597501,-0.1134 0.59902,-0.10509 0.600423,-0.0968 0.60171,-0.0884 0.602881,-0.08 0.603934,-0.0716 0.604872,-0.0632 0.605692,-0.0548 0.606396,-0.0464 0.606983,-0.038 0.607451,-0.0295 0.607803,-0.0211 0.608037,-0.0126 0.608154,-0.004 0.608153,0.004 0.608034,0.0127 0.607799,0.0212 0.607446,0.0296 0.606975,0.0381 0.606387,0.0465 0.605682,0.0549 0.60486,0.0633 0.603921,0.0717 0.602865,0.0801 0.601693,0.0885 0.600404,0.0969 0.599,0.1052 0.59748,0.11352 0.595844,0.12181 0.594093,0.13009 0.592228,0.13833 0.590247,0.14654 0.58815,0.15474 0.58595,0.1629 0.58362,0.17103 0.5812,0.17912 0.57864,0.18719 0.57599,0.19521 0.57322,0.2032 0.57033,0.21114 0.56735,0.21906 0.56425,0.22692 0.56104,0.23474 0.55772,0.24252 0.5543,0.25024 0.55076,0.25793 0.54713,0.26556 0.54338,0.27313 0.53954,0.28067 0.53558,0.28813 0.53152,0.29556 0.52736,0.30291 0.5231,0.31022 0.51874,0.31745 0.51428,0.32464 0.50971,0.33175 0.50505,0.33881 0.5003,0.34579 0.49544,0.35272 0.49049,0.35957 0.48544,0.36635 0.48031,0.37306 0.47507,0.3797 0.46975,0.38628 0.46433,0.39276 0.45883,0.39918 0.45323,0.40552 0.44756,0.41178 0.44179,0.41796 0.43593,0.42406 0.43,0.43008 0.42398,0.43602 0.41788,0.44187 0.41169,0.44763 0.40543,0.45332 0.39909,0.4589 0.39268,0.46441 0.38618,0.46982 0.37961,0.47515 0.37297,0.48037 0.36626,0.48551 0.35948,0.49056 0.35262,0.49551 0.3457,0.50036 0.33871,0.50512 0.33165,0.50978 0.32454,0.51433 0.31736,0.5188 0.31011,0.52316 0.30281,0.52743 0.29545,0.53158 0.28804,0.53563 0.28056,0.53959 0.27303,0.54343 0.26546,0.54718 0.25782,0.55081 0.25014,0.55435 0.24241,0.55777 0.23463,0.56108 0.22681,0.56429 0.21895,0.56739 0.21103,0.57038 0.20309,0.57326 0.1951,0.57602 0.18708,0.57868 0.17901,0.58123 0.17092,0.58366 0.16278,0.58597 0.15463,0.58819 0.14643,0.59027 0.13822,0.59226 0.12997,0.59412 0.1217,0.59586 0.1134,0.5975 0.10509,0.59902 0.0968,0.60043 0.0884,0.60171 0.08,0.60288 0.0716,0.60393 0.0632,0.60487 0.0548,0.6057 0.0464,0.60639 0.038,0.60698 0.0295,0.60746 0.0211,0.6078 0.0126,0.60804 0.004,0.60815 -0.004,0.60815 -0.0127,0.60804 -0.0212,0.6078 -0.0296,0.60744 -0.0381,0.60698 -0.0465,0.60638 -0.0549,0.60569 -0.0634,0.60486 -0.0717,0.60392 -0.0801,0.60286 -0.0885,0.60169 -0.0969,0.60041 -0.10521,0.599 -0.11351,0.59748 -0.12182,0.59584 -0.13008,0.5941 -0.13833,0.59222 -0.14655,0.59025 -0.15474,0.58815 -0.16289,0.58595 -0.17103,0.58363 -0.17913,0.58119 -0.18718,0.57864 -0.19521,0.57599 -0.2032,0.57322 -0.21115,0.57033 -0.21905,0.56735 -0.22692,0.56425 -0.23474,0.56104 -0.24252,0.55772 -0.25024,0.5543 -0.25793,0.55076 -0.26556,0.54713 -0.27314,0.54338 -0.28066,0.53954 -0.28814,0.53558 -0.29555,0.53152 z"
         inkscape:randomized="0"
         inkscape:rounded="0"
         inkscape:flatsided="false"
         sodipodi:arg2="0.54222904"
         sodipodi:arg1="0.52832819"
         sodipodi:r2="43.750771"
         sodipodi:r1="43.750771"
         sodipodi:cy="147.59633"
         sodipodi:cx="89.000748"
         sodipodi:sides="226"
         id="path832"
         style="opacity:1;vector-effect:none;fill:url(#radialGradient1364);fill-opacity:1;stroke:none;stroke-width:0.05770435;stroke-linecap:butt;stroke-linejoin:miter;stroke-miterlimit:4;stroke-dasharray:none;stroke-dashoffset:0;stroke-opacity:0.37254902"
         sodipodi:type="star" />
      <path
         transform="matrix(1.040604,0,0,1.040604,-3.6137873,-5.9930029)"
         inkscape:transform-center-y="1.1901212"
         inkscape:transform-center-x="2.5338744"
         d="m 120.70079,166.0988 c -1.2198,2.08987 -0.91104,2.29371 -2.39319,4.20648 -1.48215,1.91278 -1.75662,1.66469 -3.47576,3.36764 -1.71913,1.70295 -1.47365,1.97976 -3.40036,3.44375 -1.9267,1.46399 -2.12762,1.15331 -4.22893,2.35329 -2.10131,1.19998 -1.93584,1.53089 -4.1758,2.44633 -2.23997,0.91543 -2.35362,0.56334 -4.693913,1.17857 -2.340289,0.61523 -2.2661,0.9777 -4.666672,1.2822 -2.400571,0.3045 -2.419229,-0.065 -4.839008,-0.0765 -2.419779,-0.0114 -2.441932,0.35788 -4.839515,0.0307 -2.397584,-0.32719 -2.31997,-0.68893 -4.654336,-1.32627 -2.334365,-0.63734 -2.451348,-0.28634 -4.682553,-1.22293 -2.231205,-0.93658 -2.062609,-1.26591 -4.152477,-2.48571 -2.089868,-1.2198 -2.29371,-0.91104 -4.206483,-2.39319 -1.912774,-1.48215 -1.664684,-1.75662 -3.367634,-3.47576 -1.70295,-1.71913 -1.97976,-1.47365 -3.443749,-3.40036 -1.463989,-1.9267 -1.153314,-2.12762 -2.353292,-4.22893 -1.199979,-2.10131 -1.530892,-1.93584 -2.446328,-4.1758 -0.915437,-2.23996 -0.563347,-2.35362 -1.178578,-4.69391 -0.615231,-2.34029 -0.977696,-2.2661 -1.282194,-4.66667 -0.304498,-2.40058 0.06501,-2.41923 0.07645,-4.83901 0.01144,-2.41978 -0.357872,-2.44193 -0.03068,-4.83952 0.327191,-2.39758 0.688938,-2.31997 1.326277,-4.65433 0.63734,-2.33437 0.286341,-2.45135 1.222923,-4.68256 0.936583,-2.2312 1.265916,-2.0626 2.485717,-4.15247 1.2198,-2.08987 0.911039,-2.29371 2.393187,-4.20649 1.482147,-1.91277 1.756623,-1.66468 3.475758,-3.36763 1.719134,-1.70295 1.473652,-1.97976 3.400359,-3.44375 1.926706,-1.46399 2.127619,-1.15331 4.228932,-2.35329 2.101312,-1.19998 1.935838,-1.53089 4.175802,-2.44633 2.239964,-0.91544 2.353622,-0.56335 4.693911,-1.17858 2.340289,-0.61523 2.266101,-0.97769 4.666672,-1.28219 2.400572,-0.3045 2.419229,0.065 4.839009,0.0764 2.419779,0.0114 2.441931,-0.35787 4.839515,-0.0307 2.397584,0.32719 2.31997,0.68894 4.654335,1.32628 2.334361,0.63734 2.451351,0.28634 4.682551,1.22292 2.23121,0.93659 2.06261,1.26592 4.15248,2.48572 2.08987,1.2198 2.29371,0.91104 4.20648,2.39319 1.91278,1.48214 1.66469,1.75662 3.36764,3.47575 1.70295,1.71914 1.97976,1.47366 3.44375,3.40036 1.46398,1.92671 1.15331,2.12762 2.35329,4.22894 1.19998,2.10131 1.53089,1.93583 2.44633,4.1758 0.91543,2.23996 0.56334,2.35362 1.17857,4.69391 0.61523,2.34029 0.9777,2.2661 1.2822,4.66667 0.3045,2.40057 -0.065,2.41923 -0.0765,4.83901 -0.0114,2.41978 0.35787,2.44193 0.0307,4.83951 -0.32719,2.39759 -0.68893,2.31997 -1.32627,4.65434 -0.63734,2.33437 -0.28634,2.45135 -1.22293,4.68255 -0.93658,2.23121 -1.26591,2.06261 -2.48571,4.15248 z"
         inkscape:randomized="0"
         inkscape:rounded="0.5"
         inkscape:flatsided="false"
         sodipodi:arg2="0.65922788"
         sodipodi:arg1="0.52832819"
         sodipodi:r2="37.075439"
         sodipodi:r1="36.704685"
         sodipodi:cy="147.59633"
         sodipodi:cx="89.000748"
         sodipodi:sides="24"
         id="path832-8"
         style="opacity:1;vector-effect:none;fill:#fbf069;fill-opacity:1;stroke:none;stroke-width:0.04890002;stroke-linecap:butt;stroke-linejoin:miter;stroke-miterlimit:4;stroke-dasharray:none;stroke-dashoffset:0;stroke-opacity:0.37254902;filter:url(#filter1890)"
         sodipodi:type="star" />
      <circle
         r="21.859585"
         cy="150.82159"
         cx="92.778015"
         id="path1358-3"
         style="opacity:0.231;vector-effect:none;fill:#441212;fill-opacity:1;stroke:none;stroke-width:0.10726369;stroke-linecap:butt;stroke-linejoin:miter;stroke-miterlimit:4;stroke-dasharray:none;stroke-dashoffset:0;stroke-opacity:0.37254902" />
      <circle
         r="21.859585"
         cy="147.58565"
         cx="89.002884"
         id="path1358"
         style="opacity:1;vector-effect:none;fill:#915e00;fill-opacity:1;stroke:none;stroke-width:0.10726369;stroke-linecap:butt;stroke-linejoin:miter;stroke-miterlimit:4;stroke-dasharray:none;stroke-dashoffset:0;stroke-opacity:0.37254902" />
      <circle
         transform="matrix(0.99841955,0,0,0.99406425,-0.32405495,0.12071035)"
         r="15.635869"
         cy="145.05727"
         cx="86.19442"
         id="path1358-1"
         style="opacity:0.606;vector-effect:none;fill:#ff9f3e;fill-opacity:1;stroke:none;stroke-width:0.07672426;stroke-linecap:butt;stroke-linejoin:miter;stroke-miterlimit:4;stroke-dasharray:none;stroke-dashoffset:0;stroke-opacity:0.37254902;filter:url(#filter2289)" />
      <circle
         transform="matrix(0.64900195,0,0,0.62262778,28.08778,51.670414)"
         r="15.635869"
         cy="145.05727"
         cx="86.19442"
         id="path1358-1-4"
         style="opacity:0.606;vector-effect:none;fill:#ffd621;fill-opacity:1;stroke:none;stroke-width:0.07672426;stroke-linecap:butt;stroke-linejoin:miter;stroke-miterlimit:4;stroke-dasharray:none;stroke-dashoffset:0;stroke-opacity:0.37254902;filter:url(#filter3103)" />
      <path
         transform="matrix(-1.2512189,-0.0431029,0.04214645,-1.2796132,193.15003,341.91332)"
         inkscape:connector-curvature="0"
         id="path2293"
         d="m 96.541847,138.01387 a 13.888713,13.888715 0 0 1 2.715618,8.22267 13.888713,13.888715 0 0 1 -13.889037,13.88859 13.888713,13.888715 0 0 1 -5.687582,-1.23122 13.888713,13.888715 0 0 0 11.17342,5.66636 13.888713,13.888715 0 0 0 13.888594,-13.88902 13.888713,13.888715 0 0 0 -8.201013,-12.65738 z"
         style="opacity:0.606;vector-effect:none;fill:#ffffff;fill-opacity:1;stroke:none;stroke-width:0.08733647;stroke-linecap:butt;stroke-linejoin:miter;stroke-miterlimit:4;stroke-dasharray:none;stroke-dashoffset:0;stroke-opacity:1;filter:url(#filter2319)" />
      <path
         transform="matrix(1.2512189,0.0431029,-0.04214645,1.2796132,-15.368838,-45.609484)"
         inkscape:connector-curvature="0"
         id="path2293-7"
         d="m 96.541847,138.01387 a 13.888713,13.888715 0 0 1 2.715618,8.22267 13.888713,13.888715 0 0 1 -13.889037,13.88859 13.888713,13.888715 0 0 1 -5.687582,-1.23122 13.888713,13.888715 0 0 0 11.17342,5.66636 13.888713,13.888715 0 0 0 13.888594,-13.88902 13.888713,13.888715 0 0 0 -8.201013,-12.65738 z"
         style="opacity:0.606;vector-effect:none;fill:#620000;fill-opacity:1;stroke:none;stroke-width:0.08733647;stroke-linecap:butt;stroke-linejoin:miter;stroke-miterlimit:4;stroke-dasharray:none;stroke-dashoffset:0;stroke-opacity:1;filter:url(#filter2319-9)" />
      <circle
         transform="matrix(2.7943339,0,0,1.9693339,-213.97372,-94.039144)"
         r="7.5595236"
         cy="107.44493"
         cx="129.83482"
         id="path892"
         style="opacity:0.51300001;vector-effect:none;fill:#ffffff;fill-opacity:1;stroke:#400000;stroke-width:0.1;stroke-linecap:butt;stroke-linejoin:miter;stroke-miterlimit:4;stroke-dasharray:none;stroke-dashoffset:0;stroke-opacity:1;filter:url(#filter902)" />
      <circle
         transform="matrix(2.7943339,0,0,1.9693339,-249.22,-121.34792)"
         r="7.5595236"
         cy="107.44493"
         cx="129.83482"
         id="path892-8"
         style="opacity:0.51300001;vector-effect:none;fill:#ffffff;fill-opacity:1;stroke:#400000;stroke-width:0.1;stroke-linecap:butt;stroke-linejoin:miter;stroke-miterlimit:4;stroke-dasharray:none;stroke-dashoffset:0;stroke-opacity:1;filter:url(#filter902-1)" />
    </g>
  </g>
</svg>
