<?xml version="1.0" encoding="UTF-8" standalone="no"?>
<svg
   xmlns:dc="http://purl.org/dc/elements/1.1/"
   xmlns:cc="http://creativecommons.org/ns#"
   xmlns:rdf="http://www.w3.org/1999/02/22-rdf-syntax-ns#"
   xmlns:svg="http://www.w3.org/2000/svg"
   xmlns="http://www.w3.org/2000/svg"
   xmlns:xlink="http://www.w3.org/1999/xlink"
   xmlns:sodipodi="http://sodipodi.sourceforge.net/DTD/sodipodi-0.dtd"
   xmlns:inkscape="http://www.inkscape.org/namespaces/inkscape"
   width="120.00001mm"
   height="120mm"
   viewBox="0 0 120.00001 120"
   version="1.1"
   id="svg8"
   inkscape:version="1.0.2 (e86c870879, 2021-01-15)"
   sodipodi:docname="bloviate.svg">
  <defs
     id="defs2">
    <linearGradient
       inkscape:collect="always"
       id="linearGradient1639">
      <stop
         style="stop-color:#ffca24;stop-opacity:1;"
         offset="0"
         id="stop1635" />
      <stop
         style="stop-color:#ffca24;stop-opacity:0;"
         offset="1"
         id="stop1637" />
    </linearGradient>
    <linearGradient
       inkscape:collect="always"
       id="linearGradient1534">
      <stop
         style="stop-color:#0098c7;stop-opacity:1"
         offset="0"
         id="stop1530" />
      <stop
         style="stop-color:#009d63;stop-opacity:1"
         offset="1"
         id="stop1532" />
    </linearGradient>
    <linearGradient
       inkscape:collect="always"
       xlink:href="#linearGradient1534"
       id="linearGradient1528"
       x1="-116.89584"
       y1="-165.6579"
       x2="-116.61929"
       y2="-65.470909"
       gradientUnits="userSpaceOnUse"
       gradientTransform="matrix(1.2000027,0,0,1.2000026,30.901547,22.488632)" />
    <clipPath
       clipPathUnits="userSpaceOnUse"
       id="clipPath1631">
      <circle
         style="fill:none;fill-opacity:1;stroke:#009d99;stroke-width:0.0842915;stroke-opacity:1"
         id="circle1633"
         cx="-116.61962"
         cy="-115.70441"
         r="49.999893"
         transform="scale(-1)" />
    </clipPath>
    <linearGradient
       inkscape:collect="always"
       xlink:href="#linearGradient1639"
       id="linearGradient1641"
       x1="35.840183"
       y1="36.839493"
       x2="171.34837"
       y2="208.90941"
       gradientUnits="userSpaceOnUse"
       gradientTransform="matrix(1.2000027,0,0,1.2000026,-30.901547,-22.488632)" />
    <clipPath
       clipPathUnits="userSpaceOnUse"
       id="clipPath1774">
      <ellipse
         style="fill:none;fill-opacity:1;stroke:#ffca24;stroke-width:0.10115;stroke-opacity:0"
         id="ellipse1776"
         cx="-109.04231"
         cy="-116.35696"
         transform="scale(-1)"
         rx="60.000004"
         ry="59.999996" />
    </clipPath>
    <clipPath
       clipPathUnits="userSpaceOnUse"
       id="clipPath1774-6">
      <ellipse
         style="fill:none;fill-opacity:1;stroke:#ffca24;stroke-width:0.10115;stroke-opacity:0"
         id="ellipse1776-5"
         cx="-109.04231"
         cy="-116.35696"
         transform="scale(-1)"
         rx="60.000004"
         ry="59.999996" />
    </clipPath>
    <clipPath
       clipPathUnits="userSpaceOnUse"
       id="clipPath1982">
      <ellipse
         style="fill:none;fill-opacity:1;stroke:#49d3ff;stroke-width:0.10115;stroke-opacity:1"
         id="ellipse1984"
         cx="-109.04231"
         cy="-116.35696"
         transform="scale(-1)"
         rx="60.000004"
         ry="59.999996" />
    </clipPath>
    <clipPath
       clipPathUnits="userSpaceOnUse"
       id="clipPath930">
      <ellipse
         style="fill:none;fill-opacity:1;stroke:#0098c7;stroke-width:0.10115;stroke-opacity:1"
         id="ellipse932"
         cx="-109.04231"
         cy="-116.35696"
         transform="scale(-1)"
         rx="60.000004"
         ry="59.999996" />
    </clipPath>
  </defs>
  <sodipodi:namedview
     id="base"
     pagecolor="#ffffff"
     bordercolor="#666666"
     borderopacity="1.0"
     inkscape:pageopacity="0.0"
     inkscape:pageshadow="2"
     inkscape:zoom="1.979899"
     inkscape:cx="117.41605"
     inkscape:cy="318.42591"
     inkscape:document-units="mm"
     inkscape:current-layer="layer1"
     inkscape:document-rotation="0"
     showgrid="false"
     fit-margin-top="0"
     fit-margin-left="0"
     fit-margin-right="0"
     fit-margin-bottom="0"
     inkscape:pagecheckerboard="true"
     inkscape:window-width="4500"
     inkscape:window-height="2980"
     inkscape:window-x="0"
     inkscape:window-y="20"
     inkscape:window-maximized="0" />
  <metadata
     id="metadata5">
    <rdf:RDF>
      <cc:Work
         rdf:about="">
        <dc:format>image/svg+xml</dc:format>
        <dc:type
           rdf:resource="http://purl.org/dc/dcmitype/StillImage" />
        <dc:title />
      </cc:Work>
    </rdf:RDF>
  </metadata>
  <g
     inkscape:label="Layer 1"
     inkscape:groupmode="layer"
     id="layer1"
     transform="translate(-49.042311,-56.356955)">
    <g
       id="g913"
       clip-path="url(#clipPath930)">
      <path
         id="path833-3-6"
         style="opacity:0.448553;fill:#ffca24;fill-opacity:1;stroke-width:0.0827397;stroke-opacity:0.984314"
         d="m 109.04192,56.076627 c -29.07834,0 -52.650894,20.48299 -52.650894,45.749923 0,25.26692 40.754495,52.51858 52.650894,91.0971 11.89645,-38.57852 52.65197,-65.83017 52.65197,-91.0971 0,-25.266933 -23.57348,-45.749923 -52.65197,-45.749923 z" />
      <ellipse
         style="fill:url(#linearGradient1528);fill-opacity:1;stroke-width:0.10115;stroke-opacity:0.984314"
         id="path833"
         cx="-109.04231"
         cy="-116.35696"
         transform="scale(-1)"
         rx="60.000004"
         ry="59.999996" />
      <path
         id="path833-3-0-4-3"
         style="opacity:0.448553;fill:#ff3332;fill-opacity:1;stroke-width:0.0827395;stroke-opacity:0.984314"
         d="M 109.04214,192.92381 C 97.145761,154.3453 56.39077,127.09338 56.39077,101.82645 c 0,-25.266923 23.573044,-45.749724 52.65137,-45.749724 z" />
      <path
         id="path833-3-8"
         style="opacity:0.448553;fill:#ffca24;fill-opacity:1;stroke-width:0.0827397;stroke-opacity:0.984314"
         d="m 109.04214,192.92381 c 11.89646,-38.57851 52.65168,-65.83043 52.65168,-91.09736 0,-25.266935 -23.57317,-45.749737 -52.65168,-45.749737 z" />
      <path
         id="path833-3-3"
         style="opacity:0.448553;fill:#ffca24;fill-opacity:1;stroke-width:0.0740045;stroke-opacity:0.984314"
         d="m 109.04214,192.92381 c 9.51712,-38.57855 42.12111,-65.83049 42.12111,-91.09742 0,-25.26695 -18.85844,-45.749765 -42.12111,-45.749765 z" />
      <path
         id="path833-3"
         style="opacity:0.448553;fill:#ffca24;fill-opacity:1;stroke-width:0.0827397;stroke-opacity:0.984314"
         d="m 109.04192,56.076627 c -29.07834,0 -52.650894,20.48299 -52.650894,45.749923 0,25.26692 40.754495,52.51858 52.650894,91.0971 11.89645,-38.57852 52.65197,-65.83017 52.65197,-91.0971 0,-25.266933 -23.57348,-45.749923 -52.65197,-45.749923 z" />
      <path
         id="path833-3-3-5"
         style="opacity:0.448553;fill:#ffca24;fill-opacity:1;stroke-width:0.0640899;stroke-opacity:0.984314"
         d="m 109.04192,56.076627 c -17.446903,0 -31.59054,20.482963 -31.59054,45.749923 0,25.26693 24.45274,52.51856 31.59054,91.0971 7.13783,-38.57854 31.59106,-65.83017 31.59106,-91.0971 0,-25.26696 -14.14407,-45.749923 -31.59106,-45.749923 z" />
      <path
         id="path833-3-0-4"
         style="opacity:0.448553;fill:#ff3332;fill-opacity:1;stroke-width:0.0827395;stroke-opacity:0.984314"
         d="M 109.04214,192.92381 C 97.145761,154.3453 56.39077,127.09338 56.39077,101.82645 c 0,-25.266923 23.573044,-45.749724 52.65137,-45.749724 z" />
      <path
         id="path833-3-3-5-6"
         style="opacity:0.448553;fill:#ffca24;fill-opacity:1;stroke-width:0.0523291;stroke-opacity:0.984314"
         d="m 109.04214,192.92381 c 4.75855,-38.57855 21.06056,-65.83046 21.06056,-91.0974 0,-25.266957 -9.42922,-45.749771 -21.06056,-45.749771 z" />
      <path
         id="path833-3-3-5-6-2"
         style="opacity:0.448553;fill:#ffca24;fill-opacity:1;stroke-width:0.0370023;stroke-opacity:0.984314"
         d="m 109.04214,192.92381 c 2.37929,-38.57855 10.53028,-65.83046 10.53028,-91.0974 0,-25.266957 -4.71462,-45.749771 -10.53028,-45.749771 z" />
      <path
         id="path833-3-3-6"
         style="opacity:0.448553;fill:#ff3332;fill-opacity:1;stroke-width:0.0740043;stroke-opacity:0.984314"
         d="m 109.04214,192.92381 c -9.51705,-38.57855 -42.120862,-65.83046 -42.120862,-91.0974 1e-5,-25.266957 18.858334,-45.749771 42.120862,-45.749771 z" />
      <path
         id="path833-3-3-5-6-6"
         style="opacity:0.448553;fill:#ff3332;fill-opacity:1;stroke-width:0.0523288;stroke-opacity:0.984314"
         d="m 109.04214,192.92381 c -4.75851,-38.57855 -21.060426,-65.83045 -21.060426,-91.09739 0,-25.266955 9.429164,-45.749769 21.060426,-45.749769 z" />
      <path
         id="path833-3-3-5-6-2-1"
         style="opacity:0.448553;fill:#ff3332;fill-opacity:1;stroke-width:0.0370022;stroke-opacity:0.984314"
         d="m 109.04214,192.92381 c -2.37925,-38.57855 -10.530212,-65.83045 -10.530212,-91.09739 0,-25.266955 4.714582,-45.749769 10.530212,-45.749769 z" />
      <path
         id="path833-3-3-5-6-1"
         style="opacity:0.448553;fill:#ffca24;fill-opacity:1;stroke-width:0.0523291;stroke-opacity:0.984314"
         d="m 109.04192,56.076627 c -11.631282,0 -21.060362,20.482963 -21.060362,45.749923 0,25.26693 16.301842,52.51856 21.060362,91.0971 4.75855,-38.57854 21.0609,-65.83017 21.0609,-91.0971 0,-25.26696 -9.42958,-45.749923 -21.0609,-45.749923 z" />
      <path
         id="path833-3-3-4"
         style="opacity:0.288387;fill:#ffca24;fill-opacity:1;stroke-width:0.0740044;stroke-opacity:0.984314"
         d="m 109.04192,56.076627 c -23.262541,0 -42.120706,20.482963 -42.120717,45.749923 0,25.26693 32.603659,52.51856 42.120717,91.0971 9.5171,-38.57854 42.12124,-65.83017 42.12124,-91.0971 0,-25.26696 -18.85858,-45.749923 -42.12124,-45.749923 z" />
      <path
         id="path833-3-3-5-6-2-9"
         style="opacity:0.448553;fill:#ffca24;fill-opacity:1;stroke-width:0.0370024;stroke-opacity:0.984314"
         d="m 109.04192,56.076627 c -5.81564,0 -10.530184,20.482963 -10.530184,45.749923 0,25.26693 8.150914,52.51856 10.530184,91.0971 2.37927,-38.57854 10.53072,-65.83017 10.53072,-91.0971 0,-25.26696 -4.71507,-45.749923 -10.53072,-45.749923 z" />
      <path
         id="path833-3-3-5-6-2-9-5"
         style="opacity:0.448553;fill:url(#linearGradient1641);fill-opacity:1;stroke-width:0.0370024;stroke-opacity:0.984314"
         d="m 109.04192,56.076627 c -5.81564,0 -10.530184,20.482963 -10.530184,45.749923 0,25.26693 8.150914,52.51856 10.530184,91.0971 2.37927,-38.57854 10.53072,-65.83017 10.53072,-91.0971 0,-25.26696 -4.71507,-45.749923 -10.53072,-45.749923 z" />
    </g>
  </g>
</svg>
