<?xml version="1.0" encoding="UTF-8" standalone="no"?>
<!-- Created with Inkscape (http://www.inkscape.org/) -->

<svg
   width="120mm"
   height="120mm"
   viewBox="0 0 120 120"
   version="1.1"
   id="svg5"
   inkscape:version="1.2.2 (b0a8486541, 2022-12-01)"
   sodipodi:docname="logo.svg"
   xmlns:inkscape="http://www.inkscape.org/namespaces/inkscape"
   xmlns:sodipodi="http://sodipodi.sourceforge.net/DTD/sodipodi-0.dtd"
   xmlns:xlink="http://www.w3.org/1999/xlink"
   xmlns="http://www.w3.org/2000/svg"
   xmlns:svg="http://www.w3.org/2000/svg">
  <sodipodi:namedview
     id="namedview7"
     pagecolor="#ffffff"
     bordercolor="#111111"
     borderopacity="1"
     inkscape:showpageshadow="0"
     inkscape:pageopacity="0"
     inkscape:pagecheckerboard="1"
     inkscape:deskcolor="#d1d1d1"
     inkscape:document-units="mm"
     showgrid="true"
     inkscape:zoom="1.1893044"
     inkscape:cx="288.40388"
     inkscape:cy="197.17408"
     inkscape:window-width="2248"
     inkscape:window-height="2981"
     inkscape:window-x="0"
     inkscape:window-y="17"
     inkscape:window-maximized="1"
     inkscape:current-layer="layer1">
    <inkscape:grid
       type="xygrid"
       id="grid398"
       dotted="true"
       originx="-28.649993"
       originy="-98.650082" />
  </sodipodi:namedview>
  <defs
     id="defs2">
    <linearGradient
       inkscape:collect="always"
       id="linearGradient3025">
      <stop
         style="stop-color:#9b005c;stop-opacity:1;"
         offset="0"
         id="stop3021" />
      <stop
         style="stop-color:#c6a000;stop-opacity:1;"
         offset="1"
         id="stop3023" />
    </linearGradient>
    <linearGradient
       inkscape:collect="always"
       xlink:href="#linearGradient3025"
       id="linearGradient2990"
       x1="60.025997"
       y1="212.3755"
       x2="140"
       y2="130"
       gradientUnits="userSpaceOnUse"
       gradientTransform="matrix(0.9,0,0,0.9,-1.3500002,5.6499987)" />
    <clipPath
       clipPathUnits="userSpaceOnUse"
       id="clipPath3069">
      <circle
         style="opacity:0.94572;fill:none;fill-opacity:1;fill-rule:evenodd;stroke:#000000;stroke-width:0.0791999;stroke-linecap:round;stroke-opacity:1;stop-color:#000000"
         id="circle3071"
         cx="88.649994"
         cy="158.65009"
         r="45" />
    </clipPath>
  </defs>
  <g
     inkscape:label="Layer 1"
     inkscape:groupmode="layer"
     id="layer1"
     transform="translate(-28.649992,-98.650081)">
    <g
       id="g3044"
       clip-path="url(#clipPath3069)"
       transform="matrix(1.3333333,0,0,1.3333333,-29.549998,-52.883362)">
      <circle
         style="opacity:0.94572;fill:url(#linearGradient2990);fill-opacity:1;fill-rule:evenodd;stroke:none;stroke-width:0.0791999;stroke-linecap:round;stop-color:#000000"
         id="path1050"
         cx="88.649994"
         cy="158.65009"
         r="45" />
      <path
         sodipodi:type="star"
         style="opacity:0.94572;fill:#faf47e;fill-opacity:0.339109;fill-rule:evenodd;stroke:none;stroke-width:0.0879999;stroke-linecap:round;stop-color:#000000"
         id="path288"
         inkscape:flatsided="false"
         sodipodi:sides="26"
         sodipodi:cx="55.816006"
         sodipodi:cy="104.60498"
         sodipodi:r1="71.398636"
         sodipodi:r2="75.156456"
         sodipodi:arg1="0.78539816"
         sodipodi:arg2="0.90622865"
         inkscape:rounded="0.5"
         inkscape:randomized="0"
         d="m 106.30247,155.09144 c -3.39799,3.39799 -0.35326,5.71183 -4.13606,8.67546 -3.782794,2.96363 -5.30075,-0.54636 -9.41319,1.9397 -4.11244,2.48605 -1.709925,5.46131 -6.092042,7.43354 -4.382117,1.97223 -5.015967,-1.79904 -9.60386,-0.36939 -4.587893,1.42964 -2.967216,4.8934 -7.693982,5.75962 -4.726767,0.86621 -4.439675,-2.94716 -9.236388,-2.65702 -4.796713,0.29015 -4.052063,4.04112 -8.848776,3.75097 -4.796713,-0.29015 -3.605364,-3.92401 -8.33213,-4.79022 -4.726766,-0.86621 -4.901419,2.95396 -9.489311,1.52432 -4.587893,-1.42965 -2.561523,-4.6728 -6.94364,-6.64503 -4.382117,-1.97224 -5.465922,1.69513 -9.578362,-0.79092 -4.11244,-2.48606 -1.368815,-5.15003 -5.151609,-8.11366 -3.7827953,-2.96363 -5.712766,0.3378 -9.110754,-3.06019 -3.39798779,-3.39799 -0.096556,-5.32796 -3.06018683,-9.11075 -2.96363057,-3.7828 -5.62760407,-1.03917 -8.11366097,-5.15161 -2.4860572,-4.11244 1.1813133,-5.19625 -0.7909174,-9.57836 -1.9722308,-4.38212 -5.2153868,-2.35575 -6.6450318,-6.94364 -1.429645,-4.5879 2.390529,-4.76255 1.524317,-9.48932 -0.866212,-4.72676 -4.50007,-3.53541 -4.790217,-8.33213 -0.290148,-4.79671 3.460816,-4.05206 3.750964,-8.84877 0.290147,-4.796715 -3.523226,-4.509623 -2.657014,-9.236389 0.866212,-4.726767 4.329974,-3.10609 5.759619,-7.693983 1.429645,-4.587892 -2.341624,-5.221742 -0.369393,-9.603859 1.972231,-4.382117 4.9474884,-1.979602 7.4335451,-6.092043 2.4860569,-4.11244 -1.0239356,-5.630395 1.939695,-9.41319 2.96363045,-3.782795 5.277473,-0.738067 8.6754608,-4.136055 3.397988,-3.397988 0.35326,-5.711831 4.136055,-8.675461 3.7827951,-2.963631 5.3007501,0.546362 9.4131901,-1.939695 4.112441,-2.486057 1.709926,-5.461314 6.092043,-7.433545 4.382117,-1.972231 5.015967,1.799038 9.603859,0.369393 4.587893,-1.429645 2.967216,-4.893407 7.693983,-5.759619 4.726766,-0.866212 4.439674,2.947161 9.236387,2.657014 4.796713,-0.290148 4.052063,-4.041112 8.848777,-3.750965 4.796713,0.290148 3.605363,3.924006 8.332129,4.790218 4.726767,0.866212 4.901419,-2.953962 9.489312,-1.524317 4.587892,1.429645 2.561522,4.672801 6.943639,6.645031 4.382117,1.972231 5.465922,-1.695139 9.578362,0.790918 4.112441,2.486057 1.368815,5.15003 5.15161,8.113661 3.782798,2.96363 5.712768,-0.337801 9.110758,3.060187 3.39798,3.397988 0.0966,5.327958 3.06018,9.110753 2.96363,3.782795 5.62761,1.039169 8.11366,5.15161 2.48606,4.11244 -1.18131,5.196245 0.79092,9.578362 1.97223,4.382117 5.21539,2.355747 6.64503,6.943639 1.42965,4.587893 -2.39053,4.762545 -1.52431,9.489311 0.86621,4.726767 4.50007,3.535417 4.79021,8.332134 0.29015,4.79671 -3.46081,4.05206 -3.75096,8.84877 -0.29015,4.79672 3.52322,4.50962 2.65701,9.23639 -0.86621,4.72677 -4.32997,3.10609 -5.75962,7.69398 -1.42964,4.5879 2.34163,5.22175 0.3694,9.60386 -1.97223,4.38212 -4.94749,1.9796 -7.43355,6.09204 -2.48606,4.11244 1.02394,5.6304 -1.93969,9.4132 -2.96363,3.78279 -5.27748,0.73806 -8.67546,4.13605 z"
         transform="matrix(0.59936623,0,0,0.59936796,71.545409,112.30348)"
         inkscape:transform-center-x="1.1622022e-06"
         inkscape:transform-center-y="-3.4417403e-06" />
      <path
         sodipodi:type="star"
         style="opacity:0.94572;fill:#faf47e;fill-opacity:0.339109;fill-rule:evenodd;stroke:none;stroke-width:0.0879999;stroke-linecap:round;stop-color:#000000"
         id="path288-3"
         inkscape:flatsided="false"
         sodipodi:sides="26"
         sodipodi:cx="55.816006"
         sodipodi:cy="104.60498"
         sodipodi:r1="71.398636"
         sodipodi:r2="75.156456"
         sodipodi:arg1="0.78539816"
         sodipodi:arg2="0.90622865"
         inkscape:rounded="0.5"
         inkscape:randomized="0"
         d="m 106.30247,155.09144 c -3.39799,3.39799 -0.35326,5.71183 -4.13606,8.67546 -3.782794,2.96363 -5.30075,-0.54636 -9.41319,1.9397 -4.11244,2.48605 -1.709925,5.46131 -6.092042,7.43354 -4.382117,1.97223 -5.015967,-1.79904 -9.60386,-0.36939 -4.587893,1.42964 -2.967216,4.8934 -7.693982,5.75962 -4.726767,0.86621 -4.439675,-2.94716 -9.236388,-2.65702 -4.796713,0.29015 -4.052063,4.04112 -8.848776,3.75097 -4.796713,-0.29015 -3.605364,-3.92401 -8.33213,-4.79022 -4.726766,-0.86621 -4.901419,2.95396 -9.489311,1.52432 -4.587893,-1.42965 -2.561523,-4.6728 -6.94364,-6.64503 -4.382117,-1.97224 -5.465922,1.69513 -9.578362,-0.79092 -4.11244,-2.48606 -1.368815,-5.15003 -5.151609,-8.11366 -3.7827953,-2.96363 -5.712766,0.3378 -9.110754,-3.06019 -3.39798779,-3.39799 -0.096556,-5.32796 -3.06018683,-9.11075 -2.96363057,-3.7828 -5.62760407,-1.03917 -8.11366097,-5.15161 -2.4860572,-4.11244 1.1813133,-5.19625 -0.7909174,-9.57836 -1.9722308,-4.38212 -5.2153868,-2.35575 -6.6450318,-6.94364 -1.429645,-4.5879 2.390529,-4.76255 1.524317,-9.48932 -0.866212,-4.72676 -4.50007,-3.53541 -4.790217,-8.33213 -0.290148,-4.79671 3.460816,-4.05206 3.750964,-8.84877 0.290147,-4.796715 -3.523226,-4.509623 -2.657014,-9.236389 0.866212,-4.726767 4.329974,-3.10609 5.759619,-7.693983 1.429645,-4.587892 -2.341624,-5.221742 -0.369393,-9.603859 1.972231,-4.382117 4.9474884,-1.979602 7.4335451,-6.092043 2.4860569,-4.11244 -1.0239356,-5.630395 1.939695,-9.41319 2.96363045,-3.782795 5.277473,-0.738067 8.6754608,-4.136055 3.397988,-3.397988 0.35326,-5.711831 4.136055,-8.675461 3.7827951,-2.963631 5.3007501,0.546362 9.4131901,-1.939695 4.112441,-2.486057 1.709926,-5.461314 6.092043,-7.433545 4.382117,-1.972231 5.015967,1.799038 9.603859,0.369393 4.587893,-1.429645 2.967216,-4.893407 7.693983,-5.759619 4.726766,-0.866212 4.439674,2.947161 9.236387,2.657014 4.796713,-0.290148 4.052063,-4.041112 8.848777,-3.750965 4.796713,0.290148 3.605363,3.924006 8.332129,4.790218 4.726767,0.866212 4.901419,-2.953962 9.489312,-1.524317 4.587892,1.429645 2.561522,4.672801 6.943639,6.645031 4.382117,1.972231 5.465922,-1.695139 9.578362,0.790918 4.112441,2.486057 1.368815,5.15003 5.15161,8.113661 3.782798,2.96363 5.712768,-0.337801 9.110758,3.060187 3.39798,3.397988 0.0966,5.327958 3.06018,9.110753 2.96363,3.782795 5.62761,1.039169 8.11366,5.15161 2.48606,4.11244 -1.18131,5.196245 0.79092,9.578362 1.97223,4.382117 5.21539,2.355747 6.64503,6.943639 1.42965,4.587893 -2.39053,4.762545 -1.52431,9.489311 0.86621,4.726767 4.50007,3.535417 4.79021,8.332134 0.29015,4.79671 -3.46081,4.05206 -3.75096,8.84877 -0.29015,4.79672 3.52322,4.50962 2.65701,9.23639 -0.86621,4.72677 -4.32997,3.10609 -5.75962,7.69398 -1.42964,4.5879 2.34163,5.22175 0.3694,9.60386 -1.97223,4.38212 -4.94749,1.9796 -7.43355,6.09204 -2.48606,4.11244 1.02394,5.6304 -1.93969,9.4132 -2.96363,3.78279 -5.27748,0.73806 -8.67546,4.13605 z"
         transform="matrix(0.59302207,0.08862773,-0.08861898,0.5929634,89.071714,115.89761)" />
      <path
         sodipodi:type="star"
         style="opacity:0.94572;fill:#fcf8b1;fill-opacity:0.339109;fill-rule:evenodd;stroke:none;stroke-width:0.0879999;stroke-linecap:round;stop-color:#000000"
         id="path288-3-6"
         inkscape:flatsided="false"
         sodipodi:sides="26"
         sodipodi:cx="55.816006"
         sodipodi:cy="104.60498"
         sodipodi:r1="71.398636"
         sodipodi:r2="75.156456"
         sodipodi:arg1="0.78539816"
         sodipodi:arg2="0.90622865"
         inkscape:rounded="0.5"
         inkscape:randomized="0"
         d="m 106.30247,155.09144 c -3.39799,3.39799 -0.35326,5.71183 -4.13606,8.67546 -3.782794,2.96363 -5.30075,-0.54636 -9.41319,1.9397 -4.11244,2.48605 -1.709925,5.46131 -6.092042,7.43354 -4.382117,1.97223 -5.015967,-1.79904 -9.60386,-0.36939 -4.587893,1.42964 -2.967216,4.8934 -7.693982,5.75962 -4.726767,0.86621 -4.439675,-2.94716 -9.236388,-2.65702 -4.796713,0.29015 -4.052063,4.04112 -8.848776,3.75097 -4.796713,-0.29015 -3.605364,-3.92401 -8.33213,-4.79022 -4.726766,-0.86621 -4.901419,2.95396 -9.489311,1.52432 -4.587893,-1.42965 -2.561523,-4.6728 -6.94364,-6.64503 -4.382117,-1.97224 -5.465922,1.69513 -9.578362,-0.79092 -4.11244,-2.48606 -1.368815,-5.15003 -5.151609,-8.11366 -3.7827953,-2.96363 -5.712766,0.3378 -9.110754,-3.06019 -3.39798779,-3.39799 -0.096556,-5.32796 -3.06018683,-9.11075 -2.96363057,-3.7828 -5.62760407,-1.03917 -8.11366097,-5.15161 -2.4860572,-4.11244 1.1813133,-5.19625 -0.7909174,-9.57836 -1.9722308,-4.38212 -5.2153868,-2.35575 -6.6450318,-6.94364 -1.429645,-4.5879 2.390529,-4.76255 1.524317,-9.48932 -0.866212,-4.72676 -4.50007,-3.53541 -4.790217,-8.33213 -0.290148,-4.79671 3.460816,-4.05206 3.750964,-8.84877 0.290147,-4.796715 -3.523226,-4.509623 -2.657014,-9.236389 0.866212,-4.726767 4.329974,-3.10609 5.759619,-7.693983 1.429645,-4.587892 -2.341624,-5.221742 -0.369393,-9.603859 1.972231,-4.382117 4.9474884,-1.979602 7.4335451,-6.092043 2.4860569,-4.11244 -1.0239356,-5.630395 1.939695,-9.41319 2.96363045,-3.782795 5.277473,-0.738067 8.6754608,-4.136055 3.397988,-3.397988 0.35326,-5.711831 4.136055,-8.675461 3.7827951,-2.963631 5.3007501,0.546362 9.4131901,-1.939695 4.112441,-2.486057 1.709926,-5.461314 6.092043,-7.433545 4.382117,-1.972231 5.015967,1.799038 9.603859,0.369393 4.587893,-1.429645 2.967216,-4.893407 7.693983,-5.759619 4.726766,-0.866212 4.439674,2.947161 9.236387,2.657014 4.796713,-0.290148 4.052063,-4.041112 8.848777,-3.750965 4.796713,0.290148 3.605363,3.924006 8.332129,4.790218 4.726767,0.866212 4.901419,-2.953962 9.489312,-1.524317 4.587892,1.429645 2.561522,4.672801 6.943639,6.645031 4.382117,1.972231 5.465922,-1.695139 9.578362,0.790918 4.112441,2.486057 1.368815,5.15003 5.15161,8.113661 3.782798,2.96363 5.712768,-0.337801 9.110758,3.060187 3.39798,3.397988 0.0966,5.327958 3.06018,9.110753 2.96363,3.782795 5.62761,1.039169 8.11366,5.15161 2.48606,4.11244 -1.18131,5.196245 0.79092,9.578362 1.97223,4.382117 5.21539,2.355747 6.64503,6.943639 1.42965,4.587893 -2.39053,4.762545 -1.52431,9.489311 0.86621,4.726767 4.50007,3.535417 4.79021,8.332134 0.29015,4.79671 -3.46081,4.05206 -3.75096,8.84877 -0.29015,4.79672 3.52322,4.50962 2.65701,9.23639 -0.86621,4.72677 -4.32997,3.10609 -5.75962,7.69398 -1.42964,4.5879 2.34163,5.22175 0.3694,9.60386 -1.97223,4.38212 -4.94749,1.9796 -7.43355,6.09204 -2.48606,4.11244 1.02394,5.6304 -1.93969,9.4132 -2.96363,3.78279 -5.27748,0.73806 -8.67546,4.13605 z"
         transform="matrix(0.61324586,0,0,0.59936971,85.495679,128.07099)" />
    </g>
  </g>
</svg>
