<?xml version="1.0" encoding="UTF-8" standalone="no"?>
<svg
   xmlns:dc="http://purl.org/dc/elements/1.1/"
   xmlns:cc="http://creativecommons.org/ns#"
   xmlns:rdf="http://www.w3.org/1999/02/22-rdf-syntax-ns#"
   xmlns:svg="http://www.w3.org/2000/svg"
   xmlns="http://www.w3.org/2000/svg"
   xmlns:xlink="http://www.w3.org/1999/xlink"
   xmlns:sodipodi="http://sodipodi.sourceforge.net/DTD/sodipodi-0.dtd"
   xmlns:inkscape="http://www.inkscape.org/namespaces/inkscape"
   sodipodi:docname="guillotine.svg"
   inkscape:version="1.0 (4035a4fb49, 2020-05-01)"
   id="svg8"
   version="1.1"
   viewBox="0 0 120 120"
   height="120mm"
   width="120mm">
  <defs
     id="defs2">
    <linearGradient
       id="linearGradient3958"
       inkscape:collect="always">
      <stop
         id="stop3954"
         offset="0"
         style="stop-color:#087aa1;stop-opacity:1;" />
      <stop
         id="stop3956"
         offset="1"
         style="stop-color:#00cae0;stop-opacity:1" />
    </linearGradient>
    <linearGradient
       id="linearGradient3950"
       inkscape:collect="always">
      <stop
         id="stop3946"
         offset="0"
         style="stop-color:#ffaa10;stop-opacity:1;" />
      <stop
         id="stop3948"
         offset="1"
         style="stop-color:#ffe810;stop-opacity:0.96068209" />
    </linearGradient>
    <linearGradient
       id="linearGradient3942"
       inkscape:collect="always">
      <stop
         id="stop3938"
         offset="0"
         style="stop-color:#d3366d;stop-opacity:1" />
      <stop
         id="stop3940"
         offset="1"
         style="stop-color:#e41a1a;stop-opacity:1" />
    </linearGradient>
    <linearGradient
       id="linearGradient3858"
       inkscape:collect="always">
      <stop
         id="stop3854"
         offset="0"
         style="stop-color:#bdd5f2;stop-opacity:1" />
      <stop
         id="stop3856"
         offset="1"
         style="stop-color:#9dc1ec;stop-opacity:0.85466336" />
    </linearGradient>
    <clipPath
       id="clipPath1227"
       clipPathUnits="userSpaceOnUse">
      <circle
         style="opacity:0.704159;fill:#e7756f;fill-opacity:0;stroke:#212121;stroke-width:0.101;stroke-linecap:round;stroke-linejoin:bevel;stroke-miterlimit:4;stroke-dasharray:none;stroke-dashoffset:0.907087;stroke-opacity:1"
         id="circle1229"
         cx="105.83333"
         cy="79.375"
         r="26.458334" />
    </clipPath>
    <filter
       id="filter3835"
       inkscape:label="Color Shift"
       style="color-interpolation-filters:sRGB">
      <feColorMatrix
         id="feColorMatrix3831"
         result="color1"
         values="31"
         type="hueRotate" />
      <feColorMatrix
         id="feColorMatrix3833"
         result="color2"
         values="1"
         type="saturate" />
    </filter>
    <radialGradient
       gradientUnits="userSpaceOnUse"
       gradientTransform="matrix(0.23775767,-0.5861864,0.41915686,0.17000722,-52.967532,199.12271)"
       r="173.77713"
       fy="227.52261"
       fx="94.539101"
       cy="227.52261"
       cx="94.539101"
       id="radialGradient3860"
       xlink:href="#linearGradient3858"
       inkscape:collect="always" />
    <radialGradient
       gradientUnits="userSpaceOnUse"
       gradientTransform="matrix(-2.3486188,0.76835749,-0.47694802,-1.4579357,2485.195,449.47398)"
       r="214.12598"
       fy="386.85278"
       fx="687.0553"
       cy="386.85278"
       cx="687.0553"
       id="radialGradient3944"
       xlink:href="#linearGradient3942"
       inkscape:collect="always" />
    <radialGradient
       gradientTransform="matrix(-1.4212312,1.19834,-0.64461049,-0.76451108,567.182,52.766006)"
       gradientUnits="userSpaceOnUse"
       r="60.722126"
       fy="175.92139"
       fx="179.84799"
       cy="175.92139"
       cx="179.84799"
       id="radialGradient3952"
       xlink:href="#linearGradient3950"
       inkscape:collect="always" />
    <linearGradient
       gradientUnits="userSpaceOnUse"
       y2="160.49493"
       x2="205.63271"
       y1="163.1129"
       x1="85.313614"
       id="linearGradient3960"
       xlink:href="#linearGradient3958"
       inkscape:collect="always" />
    <clipPath
       id="clipPath4032"
       clipPathUnits="userSpaceOnUse">
      <circle
         style="fill:none;stroke:#000000;stroke-width:0.216;stroke-miterlimit:10.433;stroke-opacity:1;stop-color:#000000"
         id="circle4034"
         cx="142.88803"
         cy="153.30606"
         r="60.722126" />
    </clipPath>
  </defs>
  <sodipodi:namedview
     inkscape:window-maximized="1"
     inkscape:window-y="23"
     inkscape:window-x="0"
     inkscape:window-height="2977"
     inkscape:window-width="4500"
     fit-margin-bottom="0"
     fit-margin-right="0"
     fit-margin-left="0"
     fit-margin-top="0"
     inkscape:pagecheckerboard="true"
     showgrid="false"
     inkscape:document-rotation="0"
     inkscape:current-layer="layer1"
     inkscape:document-units="mm"
     inkscape:cy="324.07609"
     inkscape:cx="217.48001"
     inkscape:zoom="0.49497475"
     inkscape:pageshadow="2"
     inkscape:pageopacity="0.0"
     borderopacity="1.0"
     bordercolor="#666666"
     pagecolor="#ffffff"
     id="base" />
  <metadata
     id="metadata5">
    <rdf:RDF>
      <cc:Work
         rdf:about="">
        <dc:format>image/svg+xml</dc:format>
        <dc:type
           rdf:resource="http://purl.org/dc/dcmitype/StillImage" />
        <dc:title></dc:title>
      </cc:Work>
    </rdf:RDF>
  </metadata>
  <g
     transform="translate(-49.99264,-64.122428)"
     id="layer1"
     inkscape:groupmode="layer"
     inkscape:label="Layer 1">
    <g
       transform="matrix(0.9881077,0,0,0.9881077,-31.196123,-27.360471)"
       clip-path="url(#clipPath4032)"
       id="g4024">
      <circle
         r="60.722126"
         cy="153.30606"
         cx="142.88803"
         id="path833-2-0"
         style="fill:url(#radialGradient3952);fill-opacity:1;stroke:none;stroke-width:0.216;stroke-miterlimit:10.433;stroke-opacity:1;stop-color:#000000" />
      <path
         d="m 144.98239,85.130101 a 70.642105,70.642105 0 0 0 -70.641814,70.641819 70.642105,70.642105 0 0 0 9.463876,35.3209 L 206.15972,120.45101 A 70.642105,70.642105 0 0 0 144.98239,85.130101 Z"
         style="opacity:0.917462;mix-blend-mode:overlay;fill:#000000;fill-opacity:0.392157;stroke:none;stroke-width:0.251287;stroke-miterlimit:10.433;stroke-opacity:1;stop-color:#000000"
         id="path3888-7" />
      <path
         d="m 208.90182,151.18921 h -30.36094 a 30.361062,30.361062 0 0 1 -10e-4,0.23874 30.361062,30.361062 0 0 1 -0.003,0.23823 30.361062,30.361062 0 0 1 -0.005,0.23823 30.361062,30.361062 0 0 1 -0.006,0.23823 30.361062,30.361062 0 0 1 -0.008,0.23822 30.361062,30.361062 0 0 1 -0.0103,0.23823 30.361062,30.361062 0 0 1 -0.0124,0.23771 30.361062,30.361062 0 0 1 -0.0139,0.23823 30.361062,30.361062 0 0 1 -0.016,0.23771 30.361062,30.361062 0 0 1 -0.0176,0.23772 30.361062,30.361062 0 0 1 -0.0196,0.23719 30.361062,30.361062 0 0 1 -0.0217,0.23771 30.361062,30.361062 0 0 1 -0.0233,0.2372 30.361062,30.361062 0 0 1 -0.0253,0.23668 30.361062,30.361062 0 0 1 -0.0269,0.23667 30.361062,30.361062 0 0 1 -0.0289,0.23668 30.361062,30.361062 0 0 1 -0.031,0.23616 30.361062,30.361062 0 0 1 -0.0326,0.23616 30.361062,30.361062 0 0 1 -0.0346,0.23616 30.361062,30.361062 0 0 1 -0.0362,0.23513 30.361062,30.361062 0 0 1 -0.0382,0.23565 30.361062,30.361062 0 0 1 -0.0398,0.23461 30.361062,30.361062 0 0 1 -0.0419,0.23461 30.361062,30.361062 0 0 1 -0.0439,0.23461 30.361062,30.361062 0 0 1 -0.0455,0.23358 30.361062,30.361062 0 0 1 -0.0475,0.23358 30.361062,30.361062 0 0 1 -0.0491,0.23357 30.361062,30.361062 0 0 1 -0.0512,0.23255 30.361062,30.361062 0 0 1 -0.0527,0.23254 30.361062,30.361062 0 0 1 -0.0548,0.23203 30.361062,30.361062 0 0 1 -0.0563,0.23151 30.361062,30.361062 0 0 1 -0.0584,0.23099 30.361062,30.361062 0 0 1 -0.0605,0.23048 30.361062,30.361062 0 0 1 -0.0615,0.23047 30.361062,30.361062 0 0 1 -0.0641,0.22945 30.361062,30.361062 0 0 1 -0.0656,0.22893 30.361062,30.361062 0 0 1 -0.0672,0.22892 30.361062,30.361062 0 0 1 -0.0693,0.2279 30.361062,30.361062 0 0 1 -0.0708,0.22737 30.361062,30.361062 0 0 1 -0.0729,0.22738 30.361062,30.361062 0 0 1 -0.0744,0.22634 30.361062,30.361062 0 0 1 -0.0765,0.22583 30.361062,30.361062 0 0 1 -0.078,0.22479 30.361062,30.361062 0 0 1 -0.0796,0.22479 30.361062,30.361062 0 0 1 -0.0816,0.22376 30.361062,30.361062 0 0 1 -0.0832,0.22324 30.361062,30.361062 0 0 1 -0.0853,0.22273 30.361062,30.361062 0 0 1 -0.0868,0.22221 30.361062,30.361062 0 0 1 -0.0884,0.22117 30.361062,30.361062 0 0 1 -0.0904,0.22066 30.361062,30.361062 0 0 1 -0.092,0.21962 30.361062,30.361062 0 0 1 -0.0935,0.21911 30.361062,30.361062 0 0 1 -0.0956,0.21859 30.361062,30.361062 0 0 1 -0.0971,0.21756 30.361062,30.361062 0 0 1 -0.0992,0.21704 30.361062,30.361062 0 0 1 -0.10025,0.21601 30.361062,30.361062 0 0 1 -0.10232,0.21498 30.361062,30.361062 0 0 1 -0.10387,0.21445 30.361062,30.361062 0 0 1 -0.10594,0.21394 30.361062,30.361062 0 0 1 -0.10697,0.21291 30.361062,30.361062 0 0 1 -0.10904,0.21187 30.361062,30.361062 0 0 1 -0.11058,0.21084 30.361062,30.361062 0 0 1 -0.11266,0.21033 30.361062,30.361062 0 0 1 -0.11368,0.20929 30.361062,30.361062 0 0 1 -0.11576,0.20825 30.361062,30.361062 0 0 1 -0.1173,0.20774 30.361062,30.361062 0 0 1 -0.11886,0.20671 30.361062,30.361062 0 0 1 -0.12041,0.20567 30.361062,30.361062 0 0 1 -0.12195,0.20464 30.361062,30.361062 0 0 1 -0.12351,0.2036 30.361062,30.361062 0 0 1 -0.12557,0.20257 30.361062,30.361062 0 0 1 -0.12661,0.20206 30.361062,30.361062 0 0 1 -0.12868,0.2005 30.361062,30.361062 0 0 1 -0.1297,0.19999 30.361062,30.361062 0 0 1 -0.13178,0.19844 30.361062,30.361062 0 0 1 -0.13281,0.19792 30.361062,30.361062 0 0 1 -0.13487,0.19637 30.361062,30.361062 0 0 1 -0.13643,0.19585 30.361062,30.361062 0 0 1 -0.13746,0.19431 30.361062,30.361062 0 0 1 -0.13952,0.19378 30.361062,30.361062 0 0 1 -0.14056,0.19224 30.361062,30.361062 0 0 1 -0.14211,0.1912 30.361062,30.361062 0 0 1 -0.14418,0.19017 30.361062,30.361062 0 0 1 -0.14521,0.18862 30.361062,30.361062 0 0 1 -0.14676,0.1881 30.361062,30.361062 0 0 1 -0.14831,0.18655 30.361062,30.361062 0 0 1 -0.14935,0.18552 30.361062,30.361062 0 0 1 -0.15141,0.18397 30.361062,30.361062 0 0 1 -0.15245,0.18345 30.361062,30.361062 0 0 1 -0.15399,0.1819 30.361062,30.361062 0 0 1 -0.15555,0.18035 30.361062,30.361062 0 0 1 -0.15658,0.17932 30.361062,30.361062 0 0 1 -0.15813,0.17828 30.361062,30.361062 0 0 1 -0.15968,0.17725 30.361062,30.361062 0 0 1 -0.16123,0.17571 30.361062,30.361062 0 0 1 -0.16226,0.17415 30.361062,30.361062 0 0 1 -0.16382,0.17311 30.361062,30.361062 0 0 1 -0.16536,0.17208 30.361062,30.361062 0 0 1 -0.1664,0.17054 30.361062,30.361062 0 0 1 -0.16743,0.16949 30.361062,30.361062 0 0 1 -0.1695,0.16795 30.361062,30.361062 0 0 1 -0.17053,0.1664 30.361062,30.361062 0 0 1 -0.17157,0.16537 30.361062,30.361062 0 0 1 -0.17311,0.16381 30.361062,30.361062 0 0 1 -0.17415,0.16226 30.361062,30.361062 0 0 1 -0.1757,0.16123 30.361062,30.361062 0 0 1 -0.17674,0.15969 30.361062,30.361062 0 0 1 -0.17828,0.15864 30.361062,30.361062 0 0 1 -0.17932,0.1571 30.361062,30.361062 0 0 1 -0.18035,0.15554 30.361062,30.361062 0 0 1 -0.1819,0.154 30.361062,30.361062 0 0 1 -0.18293,0.15296 30.361062,30.361062 0 0 1 -0.18397,0.1509 30.361062,30.361062 0 0 1 -0.18552,0.14986 30.361062,30.361062 0 0 1 -0.18655,0.14831 30.361062,30.361062 0 0 1 -0.18759,0.14728 30.361062,30.361062 0 0 1 -0.18862,0.14521 30.361062,30.361062 0 0 1 -0.19017,0.14418 30.361062,30.361062 0 0 1 -0.1912,0.14211 30.361062,30.361062 0 0 1 -0.19224,0.14107 30.361062,30.361062 0 0 1 -0.19327,0.13953 30.361062,30.361062 0 0 1 -0.1943,0.13797 30.361062,30.361062 0 0 1 -0.19533,0.13643 30.361062,30.361062 0 0 1 -0.19638,0.13488 30.361062,30.361062 0 0 1 -0.19792,0.1328 30.361062,30.361062 0 0 1 -0.19843,0.13178 30.361062,30.361062 0 0 1 -0.19947,0.13022 30.361062,30.361062 0 0 1 -0.20103,0.12868 30.361062,30.361062 0 0 1 -0.20153,0.12712 30.361062,30.361062 0 0 1 -0.20257,0.12558 30.361062,30.361062 0 0 1 -0.20361,0.1235 30.361062,30.361062 0 0 1 -0.20464,0.12248 30.361062,30.361062 0 0 1 -0.20567,0.1204 30.361062,30.361062 0 0 1 -0.20619,0.11937 30.361062,30.361062 0 0 1 -0.20774,0.11731 30.361062,30.361062 0 0 1 -0.20826,0.11575 30.361062,30.361062 0 0 1 -0.20928,0.11369 30.361062,30.361062 0 0 1 -0.20981,0.11266 30.361062,30.361062 0 0 1 -0.21136,0.1111 30.361062,30.361062 0 0 1 -0.21187,0.10904 30.361062,30.361062 0 0 1 -0.21239,0.10749 30.361062,30.361062 0 0 1 -0.21394,0.10593 30.361062,30.361062 0 0 1 -0.21394,0.10387 30.361062,30.361062 0 0 1 -0.21549,0.10232 30.361062,30.361062 0 0 1 -0.21601,0.10077 30.361062,30.361062 0 0 1 -0.21652,0.0992 30.361062,30.361062 0 0 1 -0.21756,0.0971 30.361062,30.361062 0 0 1 -0.21859,0.0956 30.361062,30.361062 0 0 1 -0.21911,0.0941 30.361062,30.361062 0 0 1 -0.21963,0.0925 30.361062,30.361062 0 0 1 -0.22066,0.0904 30.361062,30.361062 0 0 1 -0.22117,0.0884 30.361062,30.361062 0 0 1 -0.22169,0.0873 30.361062,30.361062 0 0 1 -0.22273,0.0853 30.361062,30.361062 0 0 1 -0.22324,0.0832 30.361062,30.361062 0 0 1 -0.22376,0.0822 30.361062,30.361062 0 0 1 -0.22427,0.0796 30.361062,30.361062 0 0 1 -0.22531,0.0786 30.361062,30.361062 0 0 1 -0.22583,0.0765 30.361062,30.361062 0 0 1 -0.22634,0.0744 30.361062,30.361062 0 0 1 -0.22686,0.0729 30.361062,30.361062 0 0 1 -0.22738,0.0713 30.361062,30.361062 0 0 1 -0.22789,0.0693 30.361062,30.361062 0 0 1 -0.22893,0.0677 30.361062,30.361062 0 0 1 -0.22892,0.0656 30.361062,30.361062 0 0 1 -0.22945,0.0641 30.361062,30.361062 0 0 1 -0.22996,0.062 30.361062,30.361062 0 0 1 -0.23099,0.0605 30.361062,30.361062 0 0 1 -0.23099,0.0584 30.361062,30.361062 0 0 1 -0.23151,0.0568 30.361062,30.361062 0 0 1 -0.23152,0.0548 30.361062,30.361062 0 0 1 -0.23254,0.0532 30.361062,30.361062 0 0 1 -0.23255,0.0512 30.361062,30.361062 0 0 1 -0.23357,0.0491 30.361062,30.361062 0 0 1 -0.23358,0.0481 30.361062,30.361062 0 0 1 -0.23358,0.0455 30.361062,30.361062 0 0 1 -0.23409,0.0439 30.361062,30.361062 0 0 1 -0.23461,0.0419 30.361062,30.361062 0 0 1 -0.23513,0.0403 30.361062,30.361062 0 0 1 -0.23513,0.0382 30.361062,30.361062 0 0 1 -0.23564,0.0367 30.361062,30.361062 0 0 1 -0.23565,0.0346 30.361062,30.361062 0 0 1 -0.23616,0.0331 30.361062,30.361062 0 0 1 -0.23616,0.031 30.361062,30.361062 0 0 1 -0.23668,0.0289 30.361062,30.361062 0 0 1 -0.23667,0.0274 30.361062,30.361062 0 0 1 -0.2372,0.0253 30.361062,30.361062 0 0 1 -0.23719,0.0238 30.361062,30.361062 0 0 1 -0.2372,0.0217 30.361062,30.361062 0 0 1 -0.23771,0.0196 30.361062,30.361062 0 0 1 -0.23771,0.0181 30.361062,30.361062 0 0 1 -0.23772,0.016 30.361062,30.361062 0 0 1 -0.2377,0.0139 30.361062,30.361062 0 0 1 -0.23823,0.0124 30.361062,30.361062 0 0 1 -0.23772,0.0103 30.361062,30.361062 0 0 1 -0.23822,0.009 30.361062,30.361062 0 0 1 -0.23823,0.007 30.361062,30.361062 0 0 1 -0.23823,0.005 30.361062,30.361062 0 0 1 -0.23875,0.003 30.361062,30.361062 0 0 1 -0.23822,0.002 30.361062,30.361062 0 0 1 -0.0243,0 30.361062,30.361062 0 0 1 -0.23875,-0.001 30.361062,30.361062 0 0 1 -0.23823,-0.003 30.361062,30.361062 0 0 1 -0.23822,-0.005 30.361062,30.361062 0 0 1 -0.23823,-0.006 30.361062,30.361062 0 0 1 -0.23823,-0.009 30.361062,30.361062 0 0 1 -0.23823,-0.0103 30.361062,30.361062 0 0 1 -0.23771,-0.0119 30.361062,30.361062 0 0 1 -0.23823,-0.0139 30.361062,30.361062 0 0 1 -0.23771,-0.016 30.361062,30.361062 0 0 1 -0.23771,-0.0176 30.361062,30.361062 0 0 1 -0.2372,-0.0196 30.361062,30.361062 0 0 1 -0.23771,-0.0217 30.361062,30.361062 0 0 1 -0.23719,-0.0232 30.361062,30.361062 0 0 1 -0.23668,-0.0253 30.361062,30.361062 0 0 1 -0.23668,-0.0269 30.361062,30.361062 0 0 1 -0.23668,-0.0289 30.361062,30.361062 0 0 1 -0.23668,-0.031 30.361062,30.361062 0 0 1 -0.23564,-0.0326 30.361062,30.361062 0 0 1 -0.23616,-0.0346 30.361062,30.361062 0 0 1 -0.23564,-0.0362 30.361062,30.361062 0 0 1 -0.23513,-0.0382 30.361062,30.361062 0 0 1 -0.23513,-0.0398 30.361062,30.361062 0 0 1 -0.23461,-0.0419 30.361062,30.361062 0 0 1 -0.2341,-0.0439 30.361062,30.361062 0 0 1 -0.23409,-0.0455 30.361062,30.361062 0 0 1 -0.23358,-0.0476 30.361062,30.361062 0 0 1 -0.23306,-0.0491 30.361062,30.361062 0 0 1 -0.23254,-0.0512 30.361062,30.361062 0 0 1 -0.23255,-0.0527 30.361062,30.361062 0 0 1 -0.23203,-0.0548 30.361062,30.361062 0 0 1 -0.23151,-0.0563 30.361062,30.361062 0 0 1 -0.23099,-0.0584 30.361062,30.361062 0 0 1 -0.23048,-0.0605 30.361062,30.361062 0 0 1 -0.23047,-0.062 30.361062,30.361062 0 0 1 -0.22945,-0.0636 30.361062,30.361062 0 0 1 -0.22944,-0.0656 30.361062,30.361062 0 0 1 -0.22841,-0.0672 30.361062,30.361062 0 0 1 -0.22789,-0.0693 30.361062,30.361062 0 0 1 -0.22789,-0.0708 30.361062,30.361062 0 0 1 -0.22686,-0.0729 30.361062,30.361062 0 0 1 -0.22635,-0.0744 30.361062,30.361062 0 0 1 -0.22582,-0.0765 30.361062,30.361062 0 0 1 -0.22531,-0.078 30.361062,30.361062 0 0 1 -0.22428,-0.0796 30.361062,30.361062 0 0 1 -0.22427,-0.0816 30.361062,30.361062 0 0 1 -0.22324,-0.0832 30.361062,30.361062 0 0 1 -0.22222,-0.0853 30.361062,30.361062 0 0 1 -0.2222,-0.0868 30.361062,30.361062 0 0 1 -0.22118,-0.0884 30.361062,30.361062 0 0 1 -0.22066,-0.0904 30.361062,30.361062 0 0 1 -0.21962,-0.092 30.361062,30.361062 0 0 1 -0.21911,-0.0941 30.361062,30.361062 0 0 1 -0.21859,-0.0951 30.361062,30.361062 0 0 1 -0.21756,-0.0971 30.361062,30.361062 0 0 1 -0.21704,-0.0992 30.361062,30.361062 0 0 1 -0.21601,-0.10025 30.361062,30.361062 0 0 1 -0.21497,-0.10232 30.361062,30.361062 0 0 1 -0.21446,-0.10387 30.361062,30.361062 0 0 1 -0.21394,-0.10593 30.361062,30.361062 0 0 1 -0.21291,-0.10749 30.361062,30.361062 0 0 1 -0.21187,-0.10852 30.361062,30.361062 0 0 1 -0.21084,-0.11111 30.361062,30.361062 0 0 1 -0.21032,-0.11213 30.361062,30.361062 0 0 1 -0.20929,-0.11369 30.361062,30.361062 0 0 1 -0.20878,-0.11576 30.361062,30.361062 0 0 1 -0.20722,-0.1173 30.361062,30.361062 0 0 1 -0.2067,-0.11886 30.361062,30.361062 0 0 1 -0.20567,-0.1204 30.361062,30.361062 0 0 1 -0.20464,-0.12196 30.361062,30.361062 0 0 1 -0.20361,-0.12351 30.361062,30.361062 0 0 1 -0.20309,-0.12557 30.361062,30.361062 0 0 1 -0.20154,-0.12661 30.361062,30.361062 0 0 1 -0.2005,-0.12867 30.361062,30.361062 0 0 1 -0.19999,-0.12971 30.361062,30.361062 0 0 1 -0.19895,-0.13178 30.361062,30.361062 0 0 1 -0.19741,-0.13332 30.361062,30.361062 0 0 1 -0.19688,-0.13436 30.361062,30.361062 0 0 1 -0.19534,-0.13643 30.361062,30.361062 0 0 1 -0.1943,-0.13746 30.361062,30.361062 0 0 1 -0.19379,-0.13952 30.361062,30.361062 0 0 1 -0.19224,-0.14056 30.361062,30.361062 0 0 1 -0.1912,-0.14263 30.361062,30.361062 0 0 1 -0.19017,-0.14366 30.361062,30.361062 0 0 1 -0.18862,-0.14521 30.361062,30.361062 0 0 1 -0.1881,-0.14676 30.361062,30.361062 0 0 1 -0.18655,-0.14831 30.361062,30.361062 0 0 1 -0.18552,-0.14935 30.361062,30.361062 0 0 1 -0.18397,-0.15141 30.361062,30.361062 0 0 1 -0.18345,-0.15244 30.361062,30.361062 0 0 1 -0.1819,-0.154 30.361062,30.361062 0 0 1 -0.18035,-0.15555 30.361062,30.361062 0 0 1 -0.17983,-0.15658 30.361062,30.361062 0 0 1 -0.17777,-0.15864 30.361062,30.361062 0 0 1 -0.17725,-0.15968 30.361062,30.361062 0 0 1 -0.1757,-0.16072 30.361062,30.361062 0 0 1 -0.17415,-0.16226 30.361062,30.361062 0 0 1 -0.17364,-0.16381 30.361062,30.361062 0 0 1 -0.17156,-0.16537 30.361062,30.361062 0 0 1 -0.17053,-0.1664 30.361062,30.361062 0 0 1 -0.1695,-0.16794 30.361062,30.361062 0 0 1 -0.16795,-0.16899 30.361062,30.361062 0 0 1 -0.1664,-0.17053 30.361062,30.361062 0 0 1 -0.16536,-0.17156 30.361062,30.361062 0 0 1 -0.16382,-0.17312 30.361062,30.361062 0 0 1 -0.16278,-0.17415 30.361062,30.361062 0 0 1 -0.16071,-0.1757 30.361062,30.361062 0 0 1 -0.1602,-0.17674 30.361062,30.361062 0 0 1 -0.15813,-0.17828 30.361062,30.361062 0 0 1 -0.15709,-0.17932 30.361062,30.361062 0 0 1 -0.15555,-0.18035 30.361062,30.361062 0 0 1 -0.154,-0.1819 30.361062,30.361062 0 0 1 -0.15296,-0.18293 30.361062,30.361062 0 0 1 -0.15141,-0.18397 30.361062,30.361062 0 0 1 -0.14934,-0.18552 30.361062,30.361062 0 0 1 -0.14883,-0.18655 30.361062,30.361062 0 0 1 -0.14676,-0.18759 30.361062,30.361062 0 0 1 -0.14522,-0.18913 30.361062,30.361062 0 0 1 -0.14417,-0.18965 30.361062,30.361062 0 0 1 -0.14211,-0.19121 30.361062,30.361062 0 0 1 -0.14108,-0.19223 30.361062,30.361062 0 0 1 -0.13952,-0.19327 30.361062,30.361062 0 0 1 -0.13798,-0.19431 30.361062,30.361062 0 0 1 -0.13643,-0.19533 30.361062,30.361062 0 0 1 -0.13487,-0.19689 30.361062,30.361062 0 0 1 -0.13333,-0.1974 30.361062,30.361062 0 0 1 -0.13177,-0.19844 30.361062,30.361062 0 0 1 -0.12971,-0.19999 30.361062,30.361062 0 0 1 -0.12867,-0.2005 30.361062,30.361062 0 0 1 -0.12713,-0.20154 30.361062,30.361062 0 0 1 -0.12557,-0.20258 30.361062,30.361062 0 0 1 -0.12351,-0.2036 30.361062,30.361062 0 0 1 -0.12247,-0.20464 30.361062,30.361062 0 0 1 -0.12041,-0.20567 30.361062,30.361062 0 0 1 -0.11937,-0.20671 30.361062,30.361062 0 0 1 -0.11731,-0.20722 30.361062,30.361062 0 0 1 -0.11575,-0.20825 30.361062,30.361062 0 0 1 -0.11421,-0.20929 30.361062,30.361062 0 0 1 -0.11214,-0.21033 30.361062,30.361062 0 0 1 -0.1111,-0.21084 30.361062,30.361062 0 0 1 -0.10904,-0.21187 30.361062,30.361062 0 0 1 -0.10748,-0.21291 30.361062,30.361062 0 0 1 -0.10594,-0.21342 30.361062,30.361062 0 0 1 -0.10387,-0.21446 30.361062,30.361062 0 0 1 -0.10232,-0.21497 30.361062,30.361062 0 0 1 -0.10077,-0.21601 30.361062,30.361062 0 0 1 -0.0992,-0.21704 30.361062,30.361062 0 0 1 -0.0971,-0.21756 30.361062,30.361062 0 0 1 -0.0961,-0.21807 30.361062,30.361062 0 0 1 -0.0935,-0.21911 30.361062,30.361062 0 0 1 -0.0925,-0.21963 30.361062,30.361062 0 0 1 -0.0904,-0.22065 30.361062,30.361062 0 0 1 -0.0889,-0.22118 30.361062,30.361062 0 0 1 -0.0868,-0.22169 30.361062,30.361062 0 0 1 -0.0853,-0.22273 30.361062,30.361062 0 0 1 -0.0837,-0.22324 30.361062,30.361062 0 0 1 -0.0816,-0.22376 30.361062,30.361062 0 0 1 -0.0796,-0.22427 30.361062,30.361062 0 0 1 -0.0785,-0.22531 30.361062,30.361062 0 0 1 -0.0765,-0.22583 30.361062,30.361062 0 0 1 -0.0744,-0.22634 30.361062,30.361062 0 0 1 -0.0729,-0.22686 30.361062,30.361062 0 0 1 -0.0713,-0.22738 30.361062,30.361062 0 0 1 -0.0692,-0.22789 30.361062,30.361062 0 0 1 -0.0677,-0.22893 30.361062,30.361062 0 0 1 -0.0656,-0.22892 30.361062,30.361062 0 0 1 -0.0641,-0.22945 30.361062,30.361062 0 0 1 -0.062,-0.23047 30.361062,30.361062 0 0 1 -0.0605,-0.23048 30.361062,30.361062 0 0 1 -0.0584,-0.23099 30.361062,30.361062 0 0 1 -0.0568,-0.23152 30.361062,30.361062 0 0 1 -0.0548,-0.23202 30.361062,30.361062 0 0 1 -0.0532,-0.23203 30.361062,30.361062 0 0 1 -0.0512,-0.23306 30.361062,30.361062 0 0 1 -0.0496,-0.23306 30.361062,30.361062 0 0 1 -0.0476,-0.23358 30.361062,30.361062 0 0 1 -0.0455,-0.23358 30.361062,30.361062 0 0 1 -0.0439,-0.23461 30.361062,30.361062 0 0 1 -0.0424,-0.23461 30.361062,30.361062 0 0 1 -0.0398,-0.23461 30.361062,30.361062 0 0 1 -0.0388,-0.23513 30.361062,30.361062 0 0 1 -0.0362,-0.23564 30.361062,30.361062 0 0 1 -0.0346,-0.23565 30.361062,30.361062 0 0 1 -0.0331,-0.23616 30.361062,30.361062 0 0 1 -0.031,-0.23668 30.361062,30.361062 0 0 1 -0.0289,-0.23615 30.361062,30.361062 0 0 1 -0.0274,-0.23668 30.361062,30.361062 0 0 1 -0.0253,-0.2372 30.361062,30.361062 0 0 1 -0.0238,-0.23719 30.361062,30.361062 0 0 1 -0.0217,-0.2372 30.361062,30.361062 0 0 1 -0.0196,-0.23771 30.361062,30.361062 0 0 1 -0.0181,-0.23771 30.361062,30.361062 0 0 1 -0.016,-0.23771 30.361062,30.361062 0 0 1 -0.0139,-0.23772 30.361062,30.361062 0 0 1 -0.0124,-0.23822 30.361062,30.361062 0 0 1 -0.0108,-0.23823 30.361062,30.361062 0 0 1 -0.008,-0.23771 30.361062,30.361062 0 0 1 -0.007,-0.23823 30.361062,30.361062 0 0 1 -0.005,-0.23875 30.361062,30.361062 0 0 1 -0.003,-0.23822 30.361062,30.361062 0 0 1 -0.001,-0.23823 30.361062,30.361062 0 0 1 0,-0.0248 H 87.457518 a 60.722126,60.722126 0 0 0 60.722392,60.7224 60.722126,60.722126 0 0 0 60.72188,-60.72239 z"
         style="opacity:0.917462;mix-blend-mode:overlay;fill:#000000;fill-opacity:0.391968;stroke-width:0.216;stroke-miterlimit:10.433;stop-color:#000000"
         id="path869-2" />
      <path
         id="path3888"
         style="opacity:1;fill:url(#radialGradient3944);fill-opacity:1;stroke:none;stroke-width:0.816378;stroke-miterlimit:10.433;stroke-opacity:1;stop-color:#000000"
         d="m 540.04883,349.92383 a 229.50095,229.50095 0 0 0 -229.5,229.5 229.50095,229.50095 0 0 0 30.74609,114.75 l 397.50586,-229.5 a 229.50095,229.50095 0 0 0 -198.75195,-114.75 z"
         transform="scale(0.26458333)" />
      <path
         id="path869"
         style="opacity:0.557938;fill:url(#linearGradient3960);fill-opacity:1;stroke-width:0.216;stroke-miterlimit:10.433;stop-color:#000000"
         d="m 203.61015,153.30589 h -30.36094 a 30.361061,30.361061 0 0 1 -0.001,0.23874 30.361061,30.361061 0 0 1 -0.003,0.23823 30.361061,30.361061 0 0 1 -0.005,0.23823 30.361061,30.361061 0 0 1 -0.006,0.23823 30.361061,30.361061 0 0 1 -0.008,0.23822 30.361061,30.361061 0 0 1 -0.0103,0.23823 30.361061,30.361061 0 0 1 -0.0124,0.23771 30.361061,30.361061 0 0 1 -0.0139,0.23823 30.361061,30.361061 0 0 1 -0.016,0.23771 30.361061,30.361061 0 0 1 -0.0176,0.23772 30.361061,30.361061 0 0 1 -0.0196,0.23719 30.361061,30.361061 0 0 1 -0.0217,0.23771 30.361061,30.361061 0 0 1 -0.0233,0.2372 30.361061,30.361061 0 0 1 -0.0253,0.23668 30.361061,30.361061 0 0 1 -0.0269,0.23667 30.361061,30.361061 0 0 1 -0.0289,0.23668 30.361061,30.361061 0 0 1 -0.031,0.23616 30.361061,30.361061 0 0 1 -0.0326,0.23616 30.361061,30.361061 0 0 1 -0.0346,0.23616 30.361061,30.361061 0 0 1 -0.0362,0.23513 30.361061,30.361061 0 0 1 -0.0382,0.23565 30.361061,30.361061 0 0 1 -0.0398,0.23461 30.361061,30.361061 0 0 1 -0.0419,0.23461 30.361061,30.361061 0 0 1 -0.0439,0.23461 30.361061,30.361061 0 0 1 -0.0455,0.23358 30.361061,30.361061 0 0 1 -0.0475,0.23358 30.361061,30.361061 0 0 1 -0.0491,0.23357 30.361061,30.361061 0 0 1 -0.0512,0.23255 30.361061,30.361061 0 0 1 -0.0527,0.23254 30.361061,30.361061 0 0 1 -0.0548,0.23203 30.361061,30.361061 0 0 1 -0.0563,0.23151 30.361061,30.361061 0 0 1 -0.0584,0.23099 30.361061,30.361061 0 0 1 -0.0605,0.23048 30.361061,30.361061 0 0 1 -0.0615,0.23047 30.361061,30.361061 0 0 1 -0.0641,0.22945 30.361061,30.361061 0 0 1 -0.0656,0.22893 30.361061,30.361061 0 0 1 -0.0672,0.22892 30.361061,30.361061 0 0 1 -0.0693,0.2279 30.361061,30.361061 0 0 1 -0.0708,0.22737 30.361061,30.361061 0 0 1 -0.0729,0.22738 30.361061,30.361061 0 0 1 -0.0744,0.22634 30.361061,30.361061 0 0 1 -0.0765,0.22583 30.361061,30.361061 0 0 1 -0.078,0.22479 30.361061,30.361061 0 0 1 -0.0796,0.22479 30.361061,30.361061 0 0 1 -0.0816,0.22376 30.361061,30.361061 0 0 1 -0.0832,0.22324 30.361061,30.361061 0 0 1 -0.0853,0.22273 30.361061,30.361061 0 0 1 -0.0868,0.22221 30.361061,30.361061 0 0 1 -0.0884,0.22117 30.361061,30.361061 0 0 1 -0.0904,0.22066 30.361061,30.361061 0 0 1 -0.092,0.21962 30.361061,30.361061 0 0 1 -0.0935,0.21911 30.361061,30.361061 0 0 1 -0.0956,0.21859 30.361061,30.361061 0 0 1 -0.0971,0.21756 30.361061,30.361061 0 0 1 -0.0992,0.21704 30.361061,30.361061 0 0 1 -0.10025,0.21601 30.361061,30.361061 0 0 1 -0.10232,0.21498 30.361061,30.361061 0 0 1 -0.10387,0.21445 30.361061,30.361061 0 0 1 -0.10594,0.21394 30.361061,30.361061 0 0 1 -0.10697,0.21291 30.361061,30.361061 0 0 1 -0.10904,0.21187 30.361061,30.361061 0 0 1 -0.11058,0.21084 30.361061,30.361061 0 0 1 -0.11266,0.21033 30.361061,30.361061 0 0 1 -0.11368,0.20929 30.361061,30.361061 0 0 1 -0.11576,0.20825 30.361061,30.361061 0 0 1 -0.1173,0.20774 30.361061,30.361061 0 0 1 -0.11886,0.20671 30.361061,30.361061 0 0 1 -0.12041,0.20567 30.361061,30.361061 0 0 1 -0.12195,0.20464 30.361061,30.361061 0 0 1 -0.12351,0.2036 30.361061,30.361061 0 0 1 -0.12557,0.20257 30.361061,30.361061 0 0 1 -0.12661,0.20206 30.361061,30.361061 0 0 1 -0.12868,0.2005 30.361061,30.361061 0 0 1 -0.1297,0.19999 30.361061,30.361061 0 0 1 -0.13178,0.19844 30.361061,30.361061 0 0 1 -0.13281,0.19792 30.361061,30.361061 0 0 1 -0.13487,0.19637 30.361061,30.361061 0 0 1 -0.13643,0.19585 30.361061,30.361061 0 0 1 -0.13746,0.19431 30.361061,30.361061 0 0 1 -0.13952,0.19378 30.361061,30.361061 0 0 1 -0.14056,0.19224 30.361061,30.361061 0 0 1 -0.14211,0.1912 30.361061,30.361061 0 0 1 -0.14418,0.19017 30.361061,30.361061 0 0 1 -0.14521,0.18862 30.361061,30.361061 0 0 1 -0.14676,0.1881 30.361061,30.361061 0 0 1 -0.14831,0.18655 30.361061,30.361061 0 0 1 -0.14935,0.18552 30.361061,30.361061 0 0 1 -0.15141,0.18397 30.361061,30.361061 0 0 1 -0.15245,0.18345 30.361061,30.361061 0 0 1 -0.15399,0.1819 30.361061,30.361061 0 0 1 -0.15555,0.18035 30.361061,30.361061 0 0 1 -0.15658,0.17932 30.361061,30.361061 0 0 1 -0.15813,0.17828 30.361061,30.361061 0 0 1 -0.15968,0.17725 30.361061,30.361061 0 0 1 -0.16123,0.17571 30.361061,30.361061 0 0 1 -0.16226,0.17415 30.361061,30.361061 0 0 1 -0.16382,0.17311 30.361061,30.361061 0 0 1 -0.16536,0.17208 30.361061,30.361061 0 0 1 -0.1664,0.17054 30.361061,30.361061 0 0 1 -0.16743,0.16949 30.361061,30.361061 0 0 1 -0.1695,0.16795 30.361061,30.361061 0 0 1 -0.17053,0.1664 30.361061,30.361061 0 0 1 -0.17157,0.16537 30.361061,30.361061 0 0 1 -0.17311,0.16381 30.361061,30.361061 0 0 1 -0.17415,0.16226 30.361061,30.361061 0 0 1 -0.1757,0.16123 30.361061,30.361061 0 0 1 -0.17674,0.15969 30.361061,30.361061 0 0 1 -0.17828,0.15864 30.361061,30.361061 0 0 1 -0.17932,0.1571 30.361061,30.361061 0 0 1 -0.18035,0.15554 30.361061,30.361061 0 0 1 -0.1819,0.154 30.361061,30.361061 0 0 1 -0.18293,0.15296 30.361061,30.361061 0 0 1 -0.18397,0.1509 30.361061,30.361061 0 0 1 -0.18552,0.14986 30.361061,30.361061 0 0 1 -0.18655,0.14831 30.361061,30.361061 0 0 1 -0.18759,0.14728 30.361061,30.361061 0 0 1 -0.18862,0.14521 30.361061,30.361061 0 0 1 -0.19017,0.14418 30.361061,30.361061 0 0 1 -0.1912,0.14211 30.361061,30.361061 0 0 1 -0.19224,0.14107 30.361061,30.361061 0 0 1 -0.19327,0.13953 30.361061,30.361061 0 0 1 -0.1943,0.13797 30.361061,30.361061 0 0 1 -0.19533,0.13643 30.361061,30.361061 0 0 1 -0.19638,0.13488 30.361061,30.361061 0 0 1 -0.19792,0.1328 30.361061,30.361061 0 0 1 -0.19843,0.13178 30.361061,30.361061 0 0 1 -0.19947,0.13022 30.361061,30.361061 0 0 1 -0.20103,0.12868 30.361061,30.361061 0 0 1 -0.20153,0.12712 30.361061,30.361061 0 0 1 -0.20257,0.12558 30.361061,30.361061 0 0 1 -0.20361,0.1235 30.361061,30.361061 0 0 1 -0.20464,0.12248 30.361061,30.361061 0 0 1 -0.20567,0.1204 30.361061,30.361061 0 0 1 -0.20619,0.11937 30.361061,30.361061 0 0 1 -0.20774,0.11731 30.361061,30.361061 0 0 1 -0.20826,0.11575 30.361061,30.361061 0 0 1 -0.20928,0.11369 30.361061,30.361061 0 0 1 -0.20981,0.11266 30.361061,30.361061 0 0 1 -0.21136,0.1111 30.361061,30.361061 0 0 1 -0.21187,0.10904 30.361061,30.361061 0 0 1 -0.21239,0.10749 30.361061,30.361061 0 0 1 -0.21394,0.10593 30.361061,30.361061 0 0 1 -0.21394,0.10387 30.361061,30.361061 0 0 1 -0.21549,0.10232 30.361061,30.361061 0 0 1 -0.21601,0.10077 30.361061,30.361061 0 0 1 -0.21652,0.0992 30.361061,30.361061 0 0 1 -0.21756,0.0971 30.361061,30.361061 0 0 1 -0.21859,0.0956 30.361061,30.361061 0 0 1 -0.21911,0.0941 30.361061,30.361061 0 0 1 -0.21963,0.0925 30.361061,30.361061 0 0 1 -0.22066,0.0904 30.361061,30.361061 0 0 1 -0.22117,0.0884 30.361061,30.361061 0 0 1 -0.22169,0.0873 30.361061,30.361061 0 0 1 -0.22273,0.0853 30.361061,30.361061 0 0 1 -0.22324,0.0832 30.361061,30.361061 0 0 1 -0.22376,0.0822 30.361061,30.361061 0 0 1 -0.22427,0.0796 30.361061,30.361061 0 0 1 -0.22531,0.0786 30.361061,30.361061 0 0 1 -0.22583,0.0765 30.361061,30.361061 0 0 1 -0.22634,0.0744 30.361061,30.361061 0 0 1 -0.22686,0.0729 30.361061,30.361061 0 0 1 -0.22738,0.0713 30.361061,30.361061 0 0 1 -0.22789,0.0693 30.361061,30.361061 0 0 1 -0.22893,0.0677 30.361061,30.361061 0 0 1 -0.22892,0.0656 30.361061,30.361061 0 0 1 -0.22945,0.0641 30.361061,30.361061 0 0 1 -0.22996,0.062 30.361061,30.361061 0 0 1 -0.23099,0.0605 30.361061,30.361061 0 0 1 -0.23099,0.0584 30.361061,30.361061 0 0 1 -0.23151,0.0568 30.361061,30.361061 0 0 1 -0.23152,0.0548 30.361061,30.361061 0 0 1 -0.23254,0.0532 30.361061,30.361061 0 0 1 -0.23255,0.0512 30.361061,30.361061 0 0 1 -0.23357,0.0491 30.361061,30.361061 0 0 1 -0.23358,0.0481 30.361061,30.361061 0 0 1 -0.23358,0.0455 30.361061,30.361061 0 0 1 -0.23409,0.0439 30.361061,30.361061 0 0 1 -0.23461,0.0419 30.361061,30.361061 0 0 1 -0.23513,0.0403 30.361061,30.361061 0 0 1 -0.23513,0.0382 30.361061,30.361061 0 0 1 -0.23564,0.0367 30.361061,30.361061 0 0 1 -0.23565,0.0346 30.361061,30.361061 0 0 1 -0.23616,0.0331 30.361061,30.361061 0 0 1 -0.23616,0.031 30.361061,30.361061 0 0 1 -0.23668,0.0289 30.361061,30.361061 0 0 1 -0.23667,0.0274 30.361061,30.361061 0 0 1 -0.2372,0.0253 30.361061,30.361061 0 0 1 -0.23719,0.0238 30.361061,30.361061 0 0 1 -0.2372,0.0217 30.361061,30.361061 0 0 1 -0.23771,0.0196 30.361061,30.361061 0 0 1 -0.23771,0.0181 30.361061,30.361061 0 0 1 -0.23772,0.016 30.361061,30.361061 0 0 1 -0.2377,0.0139 30.361061,30.361061 0 0 1 -0.23823,0.0124 30.361061,30.361061 0 0 1 -0.23772,0.0103 30.361061,30.361061 0 0 1 -0.23822,0.009 30.361061,30.361061 0 0 1 -0.23823,0.007 30.361061,30.361061 0 0 1 -0.23823,0.005 30.361061,30.361061 0 0 1 -0.23875,0.003 30.361061,30.361061 0 0 1 -0.23822,0.002 30.361061,30.361061 0 0 1 -0.0243,0 30.361061,30.361061 0 0 1 -0.23875,-0.001 30.361061,30.361061 0 0 1 -0.23823,-0.003 30.361061,30.361061 0 0 1 -0.23822,-0.005 30.361061,30.361061 0 0 1 -0.23823,-0.006 30.361061,30.361061 0 0 1 -0.23823,-0.009 30.361061,30.361061 0 0 1 -0.23823,-0.0103 30.361061,30.361061 0 0 1 -0.23771,-0.0119 30.361061,30.361061 0 0 1 -0.23823,-0.0139 30.361061,30.361061 0 0 1 -0.23771,-0.016 30.361061,30.361061 0 0 1 -0.23771,-0.0176 30.361061,30.361061 0 0 1 -0.2372,-0.0196 30.361061,30.361061 0 0 1 -0.23771,-0.0217 30.361061,30.361061 0 0 1 -0.23719,-0.0232 30.361061,30.361061 0 0 1 -0.23668,-0.0253 30.361061,30.361061 0 0 1 -0.23668,-0.0269 30.361061,30.361061 0 0 1 -0.23668,-0.0289 30.361061,30.361061 0 0 1 -0.23668,-0.031 30.361061,30.361061 0 0 1 -0.23564,-0.0326 30.361061,30.361061 0 0 1 -0.23616,-0.0346 30.361061,30.361061 0 0 1 -0.23564,-0.0362 30.361061,30.361061 0 0 1 -0.23513,-0.0382 30.361061,30.361061 0 0 1 -0.23513,-0.0398 30.361061,30.361061 0 0 1 -0.23461,-0.0419 30.361061,30.361061 0 0 1 -0.2341,-0.0439 30.361061,30.361061 0 0 1 -0.23409,-0.0455 30.361061,30.361061 0 0 1 -0.23358,-0.0476 30.361061,30.361061 0 0 1 -0.23306,-0.0491 30.361061,30.361061 0 0 1 -0.23254,-0.0512 30.361061,30.361061 0 0 1 -0.23255,-0.0527 30.361061,30.361061 0 0 1 -0.23203,-0.0548 30.361061,30.361061 0 0 1 -0.23151,-0.0563 30.361061,30.361061 0 0 1 -0.23099,-0.0584 30.361061,30.361061 0 0 1 -0.23048,-0.0605 30.361061,30.361061 0 0 1 -0.23047,-0.062 30.361061,30.361061 0 0 1 -0.22945,-0.0636 30.361061,30.361061 0 0 1 -0.22944,-0.0656 30.361061,30.361061 0 0 1 -0.22841,-0.0672 30.361061,30.361061 0 0 1 -0.22789,-0.0693 30.361061,30.361061 0 0 1 -0.22789,-0.0708 30.361061,30.361061 0 0 1 -0.22686,-0.0729 30.361061,30.361061 0 0 1 -0.22635,-0.0744 30.361061,30.361061 0 0 1 -0.22582,-0.0765 30.361061,30.361061 0 0 1 -0.22531,-0.078 30.361061,30.361061 0 0 1 -0.22428,-0.0796 30.361061,30.361061 0 0 1 -0.22427,-0.0816 30.361061,30.361061 0 0 1 -0.22324,-0.0832 30.361061,30.361061 0 0 1 -0.22222,-0.0853 30.361061,30.361061 0 0 1 -0.2222,-0.0868 30.361061,30.361061 0 0 1 -0.22118,-0.0884 30.361061,30.361061 0 0 1 -0.22066,-0.0904 30.361061,30.361061 0 0 1 -0.21962,-0.092 30.361061,30.361061 0 0 1 -0.21911,-0.0941 30.361061,30.361061 0 0 1 -0.21859,-0.0951 30.361061,30.361061 0 0 1 -0.21756,-0.0971 30.361061,30.361061 0 0 1 -0.21704,-0.0992 30.361061,30.361061 0 0 1 -0.21601,-0.10025 30.361061,30.361061 0 0 1 -0.21497,-0.10232 30.361061,30.361061 0 0 1 -0.21446,-0.10387 30.361061,30.361061 0 0 1 -0.21394,-0.10593 30.361061,30.361061 0 0 1 -0.21291,-0.10749 30.361061,30.361061 0 0 1 -0.21187,-0.10852 30.361061,30.361061 0 0 1 -0.21084,-0.11111 30.361061,30.361061 0 0 1 -0.21032,-0.11213 30.361061,30.361061 0 0 1 -0.20929,-0.11369 30.361061,30.361061 0 0 1 -0.20878,-0.11576 30.361061,30.361061 0 0 1 -0.20722,-0.1173 30.361061,30.361061 0 0 1 -0.2067,-0.11886 30.361061,30.361061 0 0 1 -0.20567,-0.1204 30.361061,30.361061 0 0 1 -0.20464,-0.12196 30.361061,30.361061 0 0 1 -0.20361,-0.12351 30.361061,30.361061 0 0 1 -0.20309,-0.12557 30.361061,30.361061 0 0 1 -0.20154,-0.12661 30.361061,30.361061 0 0 1 -0.2005,-0.12867 30.361061,30.361061 0 0 1 -0.19999,-0.12971 30.361061,30.361061 0 0 1 -0.19895,-0.13178 30.361061,30.361061 0 0 1 -0.19741,-0.13332 30.361061,30.361061 0 0 1 -0.19688,-0.13436 30.361061,30.361061 0 0 1 -0.19534,-0.13643 30.361061,30.361061 0 0 1 -0.1943,-0.13746 30.361061,30.361061 0 0 1 -0.19379,-0.13952 30.361061,30.361061 0 0 1 -0.19224,-0.14056 30.361061,30.361061 0 0 1 -0.1912,-0.14263 30.361061,30.361061 0 0 1 -0.19017,-0.14366 30.361061,30.361061 0 0 1 -0.18862,-0.14521 30.361061,30.361061 0 0 1 -0.1881,-0.14676 30.361061,30.361061 0 0 1 -0.18655,-0.14831 30.361061,30.361061 0 0 1 -0.18552,-0.14935 30.361061,30.361061 0 0 1 -0.18397,-0.15141 30.361061,30.361061 0 0 1 -0.18345,-0.15244 30.361061,30.361061 0 0 1 -0.1819,-0.154 30.361061,30.361061 0 0 1 -0.18035,-0.15555 30.361061,30.361061 0 0 1 -0.17983,-0.15658 30.361061,30.361061 0 0 1 -0.17777,-0.15864 30.361061,30.361061 0 0 1 -0.17725,-0.15968 30.361061,30.361061 0 0 1 -0.1757,-0.16072 30.361061,30.361061 0 0 1 -0.17415,-0.16226 30.361061,30.361061 0 0 1 -0.17364,-0.16381 30.361061,30.361061 0 0 1 -0.17156,-0.16537 30.361061,30.361061 0 0 1 -0.17053,-0.1664 30.361061,30.361061 0 0 1 -0.1695,-0.16794 30.361061,30.361061 0 0 1 -0.16795,-0.16899 30.361061,30.361061 0 0 1 -0.1664,-0.17053 30.361061,30.361061 0 0 1 -0.16536,-0.17156 30.361061,30.361061 0 0 1 -0.16382,-0.17312 30.361061,30.361061 0 0 1 -0.16278,-0.17415 30.361061,30.361061 0 0 1 -0.16071,-0.1757 30.361061,30.361061 0 0 1 -0.1602,-0.17674 30.361061,30.361061 0 0 1 -0.15813,-0.17828 30.361061,30.361061 0 0 1 -0.15709,-0.17932 30.361061,30.361061 0 0 1 -0.15555,-0.18035 30.361061,30.361061 0 0 1 -0.154,-0.1819 30.361061,30.361061 0 0 1 -0.15296,-0.18293 30.361061,30.361061 0 0 1 -0.15141,-0.18397 30.361061,30.361061 0 0 1 -0.14934,-0.18552 30.361061,30.361061 0 0 1 -0.14883,-0.18655 30.361061,30.361061 0 0 1 -0.14676,-0.18759 30.361061,30.361061 0 0 1 -0.14522,-0.18913 30.361061,30.361061 0 0 1 -0.14417,-0.18965 30.361061,30.361061 0 0 1 -0.14211,-0.19121 30.361061,30.361061 0 0 1 -0.14108,-0.19223 30.361061,30.361061 0 0 1 -0.13952,-0.19327 30.361061,30.361061 0 0 1 -0.13798,-0.19431 30.361061,30.361061 0 0 1 -0.13643,-0.19533 30.361061,30.361061 0 0 1 -0.13487,-0.19689 30.361061,30.361061 0 0 1 -0.13333,-0.1974 30.361061,30.361061 0 0 1 -0.13177,-0.19844 30.361061,30.361061 0 0 1 -0.12971,-0.19999 30.361061,30.361061 0 0 1 -0.12867,-0.2005 30.361061,30.361061 0 0 1 -0.12713,-0.20154 30.361061,30.361061 0 0 1 -0.12557,-0.20258 30.361061,30.361061 0 0 1 -0.12351,-0.2036 30.361061,30.361061 0 0 1 -0.12247,-0.20464 30.361061,30.361061 0 0 1 -0.12041,-0.20567 30.361061,30.361061 0 0 1 -0.11937,-0.20671 30.361061,30.361061 0 0 1 -0.11731,-0.20722 30.361061,30.361061 0 0 1 -0.11575,-0.20825 30.361061,30.361061 0 0 1 -0.11421,-0.20929 30.361061,30.361061 0 0 1 -0.11214,-0.21033 30.361061,30.361061 0 0 1 -0.1111,-0.21084 30.361061,30.361061 0 0 1 -0.10904,-0.21187 30.361061,30.361061 0 0 1 -0.10748,-0.21291 30.361061,30.361061 0 0 1 -0.10594,-0.21342 30.361061,30.361061 0 0 1 -0.10387,-0.21446 30.361061,30.361061 0 0 1 -0.10232,-0.21497 30.361061,30.361061 0 0 1 -0.10077,-0.21601 30.361061,30.361061 0 0 1 -0.0992,-0.21704 30.361061,30.361061 0 0 1 -0.0971,-0.21756 30.361061,30.361061 0 0 1 -0.0961,-0.21807 30.361061,30.361061 0 0 1 -0.0935,-0.21911 30.361061,30.361061 0 0 1 -0.0925,-0.21963 30.361061,30.361061 0 0 1 -0.0904,-0.22065 30.361061,30.361061 0 0 1 -0.0889,-0.22118 30.361061,30.361061 0 0 1 -0.0868,-0.22169 30.361061,30.361061 0 0 1 -0.0853,-0.22273 30.361061,30.361061 0 0 1 -0.0837,-0.22324 30.361061,30.361061 0 0 1 -0.0816,-0.22376 30.361061,30.361061 0 0 1 -0.0796,-0.22427 30.361061,30.361061 0 0 1 -0.0785,-0.22531 30.361061,30.361061 0 0 1 -0.0765,-0.22583 30.361061,30.361061 0 0 1 -0.0744,-0.22634 30.361061,30.361061 0 0 1 -0.0729,-0.22686 30.361061,30.361061 0 0 1 -0.0713,-0.22738 30.361061,30.361061 0 0 1 -0.0692,-0.22789 30.361061,30.361061 0 0 1 -0.0677,-0.22893 30.361061,30.361061 0 0 1 -0.0656,-0.22892 30.361061,30.361061 0 0 1 -0.0641,-0.22945 30.361061,30.361061 0 0 1 -0.062,-0.23047 30.361061,30.361061 0 0 1 -0.0605,-0.23048 30.361061,30.361061 0 0 1 -0.0584,-0.23099 30.361061,30.361061 0 0 1 -0.0568,-0.23152 30.361061,30.361061 0 0 1 -0.0548,-0.23202 30.361061,30.361061 0 0 1 -0.0532,-0.23203 30.361061,30.361061 0 0 1 -0.0512,-0.23306 30.361061,30.361061 0 0 1 -0.0496,-0.23306 30.361061,30.361061 0 0 1 -0.0476,-0.23358 30.361061,30.361061 0 0 1 -0.0455,-0.23358 30.361061,30.361061 0 0 1 -0.0439,-0.23461 30.361061,30.361061 0 0 1 -0.0424,-0.23461 30.361061,30.361061 0 0 1 -0.0398,-0.23461 30.361061,30.361061 0 0 1 -0.0388,-0.23513 30.361061,30.361061 0 0 1 -0.0362,-0.23564 30.361061,30.361061 0 0 1 -0.0346,-0.23565 30.361061,30.361061 0 0 1 -0.0331,-0.23616 30.361061,30.361061 0 0 1 -0.031,-0.23668 30.361061,30.361061 0 0 1 -0.0289,-0.23615 30.361061,30.361061 0 0 1 -0.0274,-0.23668 30.361061,30.361061 0 0 1 -0.0253,-0.2372 30.361061,30.361061 0 0 1 -0.0238,-0.23719 30.361061,30.361061 0 0 1 -0.0217,-0.2372 30.361061,30.361061 0 0 1 -0.0196,-0.23771 30.361061,30.361061 0 0 1 -0.0181,-0.23771 30.361061,30.361061 0 0 1 -0.016,-0.23771 30.361061,30.361061 0 0 1 -0.0139,-0.23772 30.361061,30.361061 0 0 1 -0.0124,-0.23822 30.361061,30.361061 0 0 1 -0.0108,-0.23823 30.361061,30.361061 0 0 1 -0.008,-0.23771 30.361061,30.361061 0 0 1 -0.007,-0.23823 30.361061,30.361061 0 0 1 -0.005,-0.23875 30.361061,30.361061 0 0 1 -0.003,-0.23822 30.361061,30.361061 0 0 1 -0.001,-0.23823 30.361061,30.361061 0 0 1 0,-0.0248 H 82.165851 a 60.722126,60.722126 0 0 0 60.722389,60.72239 60.722126,60.722126 0 0 0 60.72188,-60.72239 z" />
    </g>
  </g>
</svg>
