<?xml version="1.0" encoding="UTF-8" standalone="no"?>
<!-- Created with Inkscape (http://www.inkscape.org/) -->

<svg
   width="120mm"
   height="120mm"
   viewBox="0 0 120 120"
   version="1.1"
   id="svg5"
   inkscape:version="1.2.1 (9c6d41e410, 2022-07-14)"
   sodipodi:docname="logo.svg"
   xmlns:inkscape="http://www.inkscape.org/namespaces/inkscape"
   xmlns:sodipodi="http://sodipodi.sourceforge.net/DTD/sodipodi-0.dtd"
   xmlns:xlink="http://www.w3.org/1999/xlink"
   xmlns="http://www.w3.org/2000/svg"
   xmlns:svg="http://www.w3.org/2000/svg">
  <sodipodi:namedview
     id="namedview7"
     pagecolor="#ffffff"
     bordercolor="#111111"
     borderopacity="1"
     inkscape:showpageshadow="0"
     inkscape:pageopacity="0"
     inkscape:pagecheckerboard="1"
     inkscape:deskcolor="#d1d1d1"
     inkscape:document-units="mm"
     showgrid="false"
     inkscape:zoom="0.84096521"
     inkscape:cx="202.74323"
     inkscape:cy="259.22594"
     inkscape:window-width="4498"
     inkscape:window-height="2978"
     inkscape:window-x="0"
     inkscape:window-y="20"
     inkscape:window-maximized="1"
     inkscape:current-layer="layer1">
    <inkscape:grid
       type="xygrid"
       id="grid442"
       dotted="true"
       originx="-62.771994"
       originy="-86.109245" />
  </sodipodi:namedview>
  <defs
     id="defs2">
    <linearGradient
       inkscape:collect="always"
       id="linearGradient1452">
      <stop
         style="stop-color:#a4ff39;stop-opacity:1;"
         offset="0"
         id="stop1448" />
      <stop
         style="stop-color:#ffe139;stop-opacity:1;"
         offset="1"
         id="stop1450" />
    </linearGradient>
    <inkscape:path-effect
       effect="fill_between_many"
       method="originald"
       linkedpaths="#path236-62-2,0,1|#path236-35-1,0,1|#path236-9,0,1|#path236-62,0,1|#path236-35,0,1|#path236,0,1"
       id="path-effect1131"
       is_visible="true"
       lpeversion="0"
       join="true"
       close="true"
       autoreverse="true" />
    <inkscape:path-effect
       effect="fill_between_many"
       method="originald"
       linkedpaths="#path1133,0,1|#path236,0,1|#path236-35,0,1|#path236-62,0,1|#path236-9,0,1|#path236-35-1,0,1|#path236-62-2,0,1"
       id="path-effect1164"
       is_visible="true"
       lpeversion="0"
       join="true"
       close="true"
       autoreverse="true" />
    <linearGradient
       inkscape:collect="always"
       xlink:href="#linearGradient1452"
       id="linearGradient1477"
       x1="56.151276"
       y1="-245.62097"
       x2="236.15128"
       y2="-245.62097"
       gradientUnits="userSpaceOnUse"
       gradientTransform="matrix(1.124864,0,0,1.124864,-450.54266,273.14889)" />
    <clipPath
       clipPathUnits="userSpaceOnUse"
       id="clipPath1695">
      <circle
         style="fill:none;fill-opacity:1;stroke:#000000;stroke-width:0.0101238;stroke-opacity:1;stop-color:#000000"
         id="circle1697"
         cx="-286.14236"
         cy="-3.1412978"
         r="101.23776"
         transform="rotate(-120)" />
    </clipPath>
  </defs>
  <g
     inkscape:label="Layer 1"
     inkscape:groupmode="layer"
     id="layer1"
     transform="translate(-62.771993,-86.109245)">
    <g
       id="g1670"
       clip-path="url(#clipPath1695)"
       transform="matrix(0.59266422,0,0,0.59266422,39.591132,-1.6877028)">
      <circle
         style="fill:url(#linearGradient1477);fill-opacity:1;stroke:none;stroke-width:0.0101238;stop-color:#000000"
         id="path1221"
         cx="-286.14236"
         cy="-3.1412981"
         r="101.23776"
         transform="rotate(-120)" />
      <path
         id="path1166"
         d="m 88.389224,279.37721 c 3.657226,6.33453 7.611346,12.4976 11.283859,17.4871 2.856397,3.88073 5.542297,7.05145 7.785707,9.04077 2.84451,0.94818 6.93368,1.68902 11.72268,2.22234 12.31459,1.37147 29.25773,1.37154 41.57231,8e-5 4.78899,-0.53336 8.87801,-1.27419 11.72254,-2.22237 l 0.0382,0.0428 c 2.2434,-1.98933 4.92931,-5.15999 7.7857,-9.04072 7.34502,-9.97903 15.81671,-24.65234 20.78629,-36.00282 1.93262,-4.41408 3.33563,-8.32581 3.93675,-11.26331 l 0.018,-0.0544 c -0.6011,-2.93751 -2.00387,-6.84903 -3.93649,-11.2631 -2.76087,-6.30583 -6.60271,-13.63716 -10.73168,-20.61943 -3.30315,-5.58583 -6.79019,-10.94842 -10.05464,-15.38353 -2.85639,-3.88074 -5.54249,-7.05134 -7.78588,-9.04066 -2.84452,-0.94817 -6.9335,-1.68911 -11.72251,-2.22246 -12.31458,-1.37145 -29.2579,-1.37141 -41.57249,5e-5 -4.78902,0.53335 -8.87803,1.27419 -11.72255,2.22236 l -0.0382,-0.0429 c -0.32048,0.28422 -0.65007,0.59259 -0.98783,0.92364 -0.33775,0.33103 -0.6837,0.68481 -1.03714,1.05995 -0.35345,0.37514 -0.7144,0.7715 -1.08195,1.18798 -0.36753,0.41649 -0.74163,0.85311 -1.12169,1.30818 -0.38005,0.4551 -0.76597,0.92866 -1.15694,1.4196 -0.39096,0.49095 -0.78706,0.99923 -1.18737,1.52326 -0.40035,0.52402 -0.80492,1.06385 -1.21297,1.61823 -7.345014,9.97903 -15.816601,24.65253 -20.786174,36.00302 -0.276081,0.63059 -0.541387,1.25089 -0.795068,1.85958 -0.25364,0.60872 -0.495831,1.20561 -0.725507,1.78968 -0.229697,0.58404 -0.446912,1.15507 -0.651007,1.71175 -0.204081,0.55668 -0.394945,1.09917 -0.571866,1.62571 -0.176912,0.52654 -0.339781,1.03731 -0.487942,1.53096 -0.148155,0.49367 -0.281572,0.97009 -0.399386,1.42811 -0.117823,0.45802 -0.220016,0.89758 -0.305878,1.31722 l -0.01819,0.0545 c 0.601105,2.93748 2.004074,6.84887 3.936684,11.26295 2.484777,5.67524 5.845195,12.18136 9.502439,18.51587 z"
         style="opacity:0.596152;mix-blend-mode:overlay;fill:#4400aa;fill-opacity:1;stroke-width:0.43345" />
      <path
         id="path1166-62"
         d="m 5.9002518,231.75218 c 3.6572249,6.33452 7.6113462,12.4976 11.2838602,17.4871 2.8564,3.88073 5.542298,7.05144 7.785702,9.04077 2.844519,0.94818 6.933681,1.68901 11.722681,2.22234 12.314599,1.37147 29.25773,1.37154 41.57231,8e-5 4.788997,-0.53336 8.878015,-1.27419 11.722542,-2.22236 l 0.03823,0.0428 c 2.243403,-1.98934 4.929306,-5.15999 7.785702,-9.04073 7.345021,-9.97902 15.816711,-24.65233 20.786291,-36.00282 1.93262,-4.41407 3.33563,-8.32581 3.93674,-11.26332 l 0.018,-0.0544 c -0.60111,-2.93751 -2.00387,-6.84903 -3.93649,-11.26311 -2.76087,-6.30582 -6.60271,-13.63715 -10.73168,-20.61943 -3.30315,-5.58583 -6.79019,-10.94841 -10.054646,-15.38353 -2.856388,-3.88073 -5.542487,-7.05133 -7.78588,-9.04066 -2.844518,-0.94817 -6.933497,-1.68911 -11.722508,-2.22246 -12.314587,-1.37145 -29.257901,-1.37141 -41.572489,6e-5 -4.789022,0.53335 -8.878037,1.27419 -11.722554,2.22236 l -0.03817,-0.0429 c -0.320478,0.28421 -0.650068,0.59259 -0.987825,0.92363 -0.337756,0.33104 -0.683703,0.68482 -1.037146,1.05996 -0.353443,0.37514 -0.714401,0.7715 -1.081943,1.18797 -0.367535,0.4165 -0.741634,0.85312 -1.121694,1.30819 -0.380052,0.4551 -0.765975,0.92866 -1.156945,1.4196 -0.390953,0.49095 -0.787051,0.99922 -1.187366,1.52326 -0.400348,0.52401 -0.804915,1.06385 -1.212969,1.61823 -7.345014,9.97903 -15.8166009,24.65253 -20.7861746,36.00301 -0.2760823,0.6306 -0.5413861,1.2509 -0.7950685,1.85958 -0.2536407,0.60873 -0.4958286,1.20562 -0.7255081,1.78969 -0.229693,0.58404 -0.4469106,1.15507 -0.6510051,1.71174 -0.2040819,0.55668 -0.3949466,1.09918 -0.571865,1.62572 -0.1769123,0.52654 -0.3397822,1.0373 -0.487942,1.53096 -0.1481578,0.49367 -0.2815743,0.97008 -0.3993868,1.42811 -0.1178212,0.45802 -0.220018,0.89757 -0.3058791,1.31722 l -0.018184,0.0545 c 0.6011067,2.93749 2.0040763,6.84888 3.9366872,11.26296 2.4847757,5.67524 5.8451959,12.18136 9.5024395,18.51587 z"
         style="opacity:0.596152;mix-blend-mode:overlay;fill:#4400aa;fill-opacity:1;stroke-width:0.43345" />
      <path
         id="path1166-0"
         d="m 170.87819,327.00224 c 3.65723,6.33452 7.61135,12.4976 11.28386,17.4871 2.8564,3.88073 5.5423,7.05144 7.78571,9.04077 2.84452,0.94817 6.93368,1.68902 11.72268,2.22235 12.3146,1.37146 29.25773,1.37153 41.57231,6e-5 4.78899,-0.53335 8.87801,-1.27418 11.72253,-2.22235 l 0.0382,0.0428 c 2.24341,-1.98933 4.92931,-5.15999 7.7857,-9.04073 7.34502,-9.97902 15.81671,-24.65234 20.78629,-36.00282 1.93262,-4.41407 3.33563,-8.32581 3.93674,-11.26332 l 0.018,-0.0544 c -0.60111,-2.93751 -2.00387,-6.84903 -3.93649,-11.26311 -2.76087,-6.30581 -6.60272,-13.63715 -10.73168,-20.61943 -3.30315,-5.58583 -6.79019,-10.94841 -10.05464,-15.38353 -2.85639,-3.88072 -5.54249,-7.05132 -7.78588,-9.04066 -2.84452,-0.94817 -6.9335,-1.68911 -11.72251,-2.22246 -12.31458,-1.37144 -29.2579,-1.37141 -41.57249,6e-5 -4.78902,0.53335 -8.87803,1.27419 -11.72255,2.22236 l -0.0382,-0.0429 c -0.32047,0.28421 -0.65007,0.59258 -0.98782,0.92363 -0.33776,0.33103 -0.68371,0.68481 -1.03715,1.05995 -0.35344,0.37514 -0.7144,0.7715 -1.08194,1.18798 -0.36754,0.41649 -0.74164,0.85311 -1.12169,1.30819 -0.38006,0.45509 -0.76598,0.92866 -1.15695,1.41959 -0.39095,0.49096 -0.78705,0.99923 -1.18737,1.52327 -0.40034,0.52401 -0.80491,1.06384 -1.21296,1.61823 -7.34502,9.97903 -15.81661,24.65253 -20.78618,36.00301 -0.27608,0.63059 -0.54139,1.25089 -0.79507,1.85958 -0.25364,0.60872 -0.49583,1.20562 -0.72551,1.78969 -0.22969,0.58404 -0.44691,1.15506 -0.651,1.71174 -0.20408,0.55668 -0.39495,1.09917 -0.57187,1.62572 -0.17691,0.52654 -0.33978,1.0373 -0.48794,1.53096 -0.14816,0.49366 -0.28157,0.97008 -0.39939,1.4281 -0.11781,0.45803 -0.22001,0.89758 -0.30587,1.31722 l -0.0182,0.0545 c 0.6011,2.93749 2.00407,6.84888 3.93668,11.26296 2.48478,5.67524 5.8452,12.18136 9.50244,18.51587 z"
         style="opacity:0.596152;mix-blend-mode:overlay;fill:#4400aa;fill-opacity:1;stroke-width:0.43345" />
      <path
         id="path1166-6"
         d="m 139.99129,213.91963 c 7.31447,10e-6 14.62891,-0.34284 20.78621,-1.02858 4.78901,-0.53334 8.87787,-1.27405 11.72238,-2.22221 2.2434,-1.98934 4.92956,-5.16025 7.78595,-9.04099 7.34503,-9.97902 15.81664,-24.65216 20.78621,-36.00263 1.93261,-4.41407 3.33554,-8.3257 3.93666,-11.2632 l 0.0562,-0.0117 c -0.60112,-2.93751 -2.00404,-6.8489 -3.93665,-11.26298 -4.96958,-11.35048 -13.44119,-26.02385 -20.78621,-36.00287 -2.85639,-3.88072 -5.54256,-7.05163 -7.78596,-9.040973 l -0.0381,-0.0428 c -2.84451,-0.948169 -6.93337,-1.689099 -11.72238,-2.222441 -6.84144,-0.761928 -15.11148,-1.100458 -23.22279,-1.015809 -6.48905,0.0677 -12.8767,0.406271 -18.34985,1.01581 -4.78901,0.533341 -8.87786,1.274272 -11.72238,2.22244 -2.2434,1.98934 -4.92956,5.160033 -7.785963,9.040763 -7.345003,9.97902 -15.816626,24.65238 -20.786191,36.00286 -1.932622,4.41408 -3.335543,8.32569 -3.936663,11.2632 l -0.05617,0.0115 c 0.0859,0.41964 0.188153,0.85927 0.305972,1.3173 0.117803,0.45802 0.251211,0.93451 0.399371,1.42817 0.148159,0.49366 0.31095,1.00444 0.487849,1.53098 0.176924,0.52654 0.367998,1.06883 0.572092,1.62551 0.204081,0.55668 0.421234,1.12768 0.650916,1.71174 0.229699,0.58405 0.471833,1.18122 0.72551,1.78992 0.253638,0.60871 0.518852,1.229 0.794954,1.85958 4.969564,11.35048 13.441405,26.02384 20.786422,36.00286 0.408061,0.55438 0.812611,1.0943 1.212911,1.61834 0.40034,0.52402 0.79618,1.03221 1.18716,1.52315 0.39095,0.49094 0.77685,0.96457 1.15691,1.41966 0.38005,0.45508 0.75444,0.89162 1.12198,1.30811 0.36754,0.41648 0.72844,0.81291 1.08188,1.18805 0.35344,0.37514 0.69932,0.72889 1.03708,1.05993 0.33775,0.33103 0.66731,0.63933 0.98781,0.92352 l 0.0381,0.043 c 2.8445,0.94816 6.93335,1.68886 11.72236,2.22221 6.15729,0.68574 13.47196,1.02858 20.78643,1.02858 z"
         style="opacity:0.596152;mix-blend-mode:overlay;fill:#4400aa;fill-opacity:1;stroke-width:0.43345" />
      <path
         id="path1166-3"
         d="m 139.99129,404.41974 c 7.31446,0 14.62891,-0.34284 20.78621,-1.02856 4.78901,-0.53335 8.87786,-1.27406 11.72238,-2.22223 2.2434,-1.98934 4.92956,-5.16025 7.78595,-9.04097 7.34502,-9.97902 15.81664,-24.65216 20.78621,-36.00263 1.93262,-4.41408 3.33554,-8.3257 3.93665,-11.26322 l 0.0562,-0.0117 c -0.60112,-2.93751 -2.00404,-6.8489 -3.93666,-11.26297 -4.96957,-11.35049 -13.44119,-26.02385 -20.7862,-36.00288 -2.85639,-3.88072 -5.54256,-7.05163 -7.78595,-9.04097 l -0.0381,-0.0428 c -2.84451,-0.94816 -6.93337,-1.68909 -11.72239,-2.22243 -6.84143,-0.76194 -15.11147,-1.10046 -23.22278,-1.01582 -6.48905,0.0677 -12.8767,0.40627 -18.34985,1.01583 -4.78901,0.53333 -8.87787,1.27426 -11.72238,2.22242 -2.2434,1.98934 -4.92956,5.16004 -7.78596,9.04077 -7.345006,9.97901 -15.816629,24.65237 -20.78619,36.00286 -1.932633,4.41408 -3.335547,8.32568 -3.936666,11.26319 l -0.05616,0.0115 c 0.0859,0.41964 0.188149,0.85926 0.305971,1.3173 0.117804,0.45802 0.251209,0.9345 0.399372,1.42817 0.148168,0.49365 0.310947,1.00444 0.487857,1.53097 0.176916,0.52655 0.367988,1.06884 0.572083,1.62552 0.204082,0.55668 0.421237,1.12768 0.650917,1.71174 0.229698,0.58405 0.471841,1.18121 0.72551,1.78992 0.253637,0.60871 0.518861,1.22899 0.794953,1.85958 4.969567,11.35048 13.441407,26.02384 20.78643,36.00285 0.408063,0.55439 0.812603,1.09431 1.212903,1.61835 0.40034,0.52402 0.79618,1.03221 1.18716,1.52315 0.39095,0.49094 0.77685,0.96456 1.15692,1.41965 0.38005,0.45508 0.75443,0.89162 1.12197,1.30812 0.36754,0.41648 0.72844,0.81291 1.08188,1.18805 0.35344,0.37514 0.69933,0.72888 1.03707,1.05992 0.33777,0.33104 0.66733,0.63933 0.98782,0.92352 l 0.0381,0.043 c 2.84449,0.94817 6.93336,1.68886 11.72236,2.22221 6.1573,0.68573 13.47196,1.02858 20.78643,1.02858 z"
         style="opacity:0.596152;mix-blend-mode:overlay;fill:#4400aa;fill-opacity:1;stroke-width:0.43345" />
      <path
         id="path1166-9"
         d="m 170.8782,231.75218 c 3.65722,6.33452 7.61134,12.49759 11.28386,17.48711 2.8564,3.88073 5.54229,7.05143 7.78569,9.04077 2.84452,0.94817 6.93369,1.68899 11.72269,2.22234 12.31459,1.37145 29.25772,1.37153 41.57231,7e-5 4.789,-0.53335 8.87803,-1.27419 11.72255,-2.22237 l 0.0382,0.0428 c 2.2434,-1.98934 4.9293,-5.16 7.78569,-9.04072 7.34503,-9.97903 15.81672,-24.65234 20.78629,-36.00283 1.93262,-4.41407 3.33563,-8.32581 3.93675,-11.26333 l 0.018,-0.0544 c -0.60112,-2.93751 -2.00388,-6.84903 -3.9365,-11.2631 -2.76087,-6.30583 -6.60272,-13.63716 -10.73168,-20.61943 -3.30316,-5.58584 -6.79019,-10.94842 -10.05465,-15.38354 -2.85638,-3.88073 -5.54248,-7.05132 -7.78587,-9.04065 -2.84453,-0.94818 -6.9335,-1.68911 -11.72251,-2.22246 -12.3146,-1.37146 -29.25791,-1.37142 -41.5725,5e-5 -4.78901,0.53334 -8.87803,1.27418 -11.72255,2.22235 l -0.038,-0.0429 c -0.32047,0.28421 -0.65008,0.59259 -0.98782,0.92364 -0.33777,0.33103 -0.68371,0.68481 -1.03715,1.05995 -0.35344,0.37514 -0.7144,0.7715 -1.08194,1.18798 -0.36754,0.41648 -0.74164,0.8531 -1.1217,1.30819 -0.38006,0.45509 -0.76598,0.92864 -1.15695,1.41958 -0.39095,0.49095 -0.78705,0.99924 -1.18736,1.52327 -0.40035,0.52402 -0.80491,1.06385 -1.21297,1.61824 -7.34502,9.97901 -15.8166,24.65252 -20.78618,36.00301 -0.27607,0.63058 -0.54138,1.25089 -0.79507,1.85958 -0.25363,0.60871 -0.49582,1.20561 -0.7255,1.78967 -0.2297,0.58406 -0.44692,1.15508 -0.65101,1.71176 -0.20408,0.55668 -0.39495,1.09917 -0.57187,1.62571 -0.17691,0.52653 -0.33978,1.03731 -0.48794,1.53096 -0.14816,0.49365 -0.28157,0.97009 -0.39938,1.42811 -0.11781,0.45803 -0.22002,0.89758 -0.30588,1.31723 l -0.0182,0.0545 c 0.6011,2.93748 2.00408,6.84889 3.93669,11.26298 2.48478,5.67524 5.84519,12.18134 9.50244,18.51585 z"
         style="opacity:0.596152;mix-blend-mode:overlay;fill:#4400aa;fill-opacity:1;stroke-width:0.43345" />
      <path
         id="path1166-7"
         d="m 5.900247,327.00224 c 3.65724,6.33452 7.611368,12.49759 11.283873,17.4871 2.856404,3.88073 5.542291,7.05145 7.785694,9.04077 2.844514,0.94817 6.933682,1.68899 11.722684,2.22235 12.314595,1.37146 29.257707,1.37151 41.572315,6e-5 4.788993,-0.53334 8.87802,-1.27418 11.722542,-2.22236 l 0.03823,0.0428 c 2.243398,-1.98934 4.929301,-5.16 7.785679,-9.04073 7.345036,-9.97902 15.816726,-24.65233 20.786306,-36.00282 1.93262,-4.41407 3.33563,-8.32581 3.93675,-11.26332 l 0.018,-0.0544 c -0.60113,-2.9375 -2.00389,-6.84903 -3.93651,-11.2631 -2.76087,-6.30583 -6.60272,-13.63715 -10.73167,-20.61943 -3.30316,-5.58584 -6.79019,-10.94842 -10.054653,-15.38354 -2.856391,-3.88074 -5.542481,-7.05132 -7.785875,-9.04065 -2.844524,-0.94818 -6.933497,-1.68911 -11.722508,-2.22246 -12.314591,-1.37146 -29.257906,-1.37142 -41.572493,5e-5 -4.789024,0.53335 -8.87803,1.27418 -11.722556,2.22236 l -0.03817,-0.0429 c -0.320469,0.28421 -0.650074,0.5926 -0.987823,0.92364 -0.337755,0.33103 -0.683711,0.68482 -1.037154,1.05996 -0.353434,0.37513 -0.714401,0.7715 -1.081934,1.18797 -0.367538,0.41649 -0.741636,0.85311 -1.121701,1.3082 -0.380045,0.45508 -0.765975,0.92863 -1.156946,1.41957 -0.390953,0.49095 -0.787043,0.99924 -1.187361,1.52327 -0.400346,0.52402 -0.804912,1.06385 -1.212967,1.61824 -7.3450203,9.97901 -15.8166028,24.65252 -20.7861736,36.00301 -0.2760828,0.63059 -0.5413923,1.2509 -0.7950656,1.85959 -0.2536446,0.60871 -0.4958264,1.2056 -0.7255116,1.78968 -0.2297001,0.58404 -0.4469157,1.15508 -0.6509979,1.71174 -0.2040845,0.55669 -0.3949629,1.09918 -0.5718802,1.62571 -0.1769022,0.52656 -0.3397757,1.03731 -0.4879278,1.53096 -0.1481644,0.49368 -0.2815722,0.97009 -0.3993863,1.42811 -0.117809,0.45803 -0.220016,0.89758 -0.3058868,1.31723 l -0.018189,0.0545 c 0.6011007,2.93748 2.0040744,6.84888 3.9366847,11.26296 2.4847768,5.67524 5.8452086,12.18136 9.5024436,18.51587 z"
         style="opacity:0.596152;mix-blend-mode:overlay;fill:#4400aa;fill-opacity:1;stroke-width:0.43345" />
      <path
         id="path1166-62-8"
         d="m 5.9002518,231.75219 c 3.6572249,6.33452 7.6113462,12.4976 11.2838602,17.4871 2.8564,3.88073 5.542298,7.05144 7.785702,9.04077 2.844519,0.94818 6.933681,1.68901 11.722681,2.22234 12.314599,1.37147 29.25773,1.37154 41.57231,8e-5 4.788997,-0.53336 8.878015,-1.27419 11.722542,-2.22236 l 0.03823,0.0428 c 2.243403,-1.98934 4.929306,-5.15999 7.785702,-9.04073 7.345021,-9.97902 15.816711,-24.65233 20.786291,-36.00282 1.93262,-4.41407 3.33563,-8.32581 3.93674,-11.26332 l 0.018,-0.0544 c -0.60111,-2.93751 -2.00387,-6.84903 -3.93649,-11.26311 -2.76087,-6.30582 -6.60271,-13.63715 -10.73168,-20.61943 -3.30315,-5.58583 -6.79019,-10.94841 -10.054646,-15.38353 -2.856388,-3.88073 -5.542487,-7.05133 -7.78588,-9.04066 -2.844518,-0.94817 -6.933497,-1.68911 -11.722508,-2.22246 -12.314587,-1.37145 -29.257901,-1.37141 -41.572489,6e-5 -4.789022,0.53335 -8.878037,1.27419 -11.722554,2.22236 l -0.03817,-0.0429 c -0.320478,0.28421 -0.650068,0.59259 -0.987825,0.92363 -0.337756,0.33104 -0.683703,0.68482 -1.037146,1.05996 -0.353443,0.37514 -0.714401,0.7715 -1.081943,1.18797 -0.367535,0.4165 -0.741634,0.85312 -1.121694,1.30819 -0.380052,0.4551 -0.765975,0.92866 -1.156945,1.4196 -0.390953,0.49095 -0.787051,0.99922 -1.187366,1.52326 -0.400348,0.52401 -0.804915,1.06385 -1.212969,1.61823 -7.345014,9.97903 -15.8166009,24.65253 -20.7861746,36.00301 -0.2760823,0.6306 -0.5413861,1.2509 -0.7950685,1.85958 -0.2536407,0.60873 -0.4958286,1.20562 -0.7255081,1.78969 -0.229693,0.58404 -0.4469106,1.15507 -0.6510051,1.71174 -0.2040819,0.55668 -0.3949466,1.09918 -0.571865,1.62572 -0.1769123,0.52654 -0.3397822,1.0373 -0.487942,1.53096 -0.1481578,0.49367 -0.2815743,0.97008 -0.3993868,1.42811 -0.1178212,0.45802 -0.220018,0.89757 -0.3058791,1.31722 l -0.018184,0.0545 c 0.6011067,2.93749 2.0040763,6.84888 3.9366872,11.26296 2.4847757,5.67524 5.8451959,12.18136 9.5024395,18.51587 z"
         style="opacity:0.186488;mix-blend-mode:overlay;fill:#4400aa;fill-opacity:1;stroke-width:0.43345" />
      <path
         id="path1166-0-7"
         d="m 170.87819,327.00225 c 3.65723,6.33452 7.61135,12.4976 11.28386,17.4871 2.8564,3.88073 5.5423,7.05144 7.78571,9.04077 2.84452,0.94817 6.93368,1.68902 11.72268,2.22235 12.3146,1.37146 29.25773,1.37153 41.57231,6e-5 4.78899,-0.53335 8.87801,-1.27418 11.72253,-2.22235 l 0.0382,0.0428 c 2.24341,-1.98933 4.92931,-5.15999 7.7857,-9.04073 7.34502,-9.97902 15.81671,-24.65234 20.78629,-36.00282 1.93262,-4.41407 3.33563,-8.32581 3.93674,-11.26332 l 0.018,-0.0544 c -0.60111,-2.93751 -2.00387,-6.84903 -3.93649,-11.26311 -2.76087,-6.30581 -6.60272,-13.63715 -10.73168,-20.61943 -3.30315,-5.58583 -6.79019,-10.94841 -10.05464,-15.38353 -2.85639,-3.88072 -5.54249,-7.05132 -7.78588,-9.04066 -2.84452,-0.94817 -6.9335,-1.68911 -11.72251,-2.22246 -12.31458,-1.37144 -29.2579,-1.37141 -41.57249,6e-5 -4.78902,0.53335 -8.87803,1.27419 -11.72255,2.22236 l -0.0382,-0.0429 c -0.32047,0.28421 -0.65007,0.59258 -0.98782,0.92363 -0.33776,0.33103 -0.68371,0.68481 -1.03715,1.05995 -0.35344,0.37514 -0.7144,0.7715 -1.08194,1.18798 -0.36754,0.41649 -0.74164,0.85311 -1.12169,1.30819 -0.38006,0.45509 -0.76598,0.92866 -1.15695,1.41959 -0.39095,0.49096 -0.78705,0.99923 -1.18737,1.52327 -0.40034,0.52401 -0.80491,1.06384 -1.21296,1.61823 -7.34502,9.97903 -15.81661,24.65253 -20.78618,36.00301 -0.27608,0.63059 -0.54139,1.25089 -0.79507,1.85958 -0.25364,0.60872 -0.49583,1.20562 -0.72551,1.78969 -0.22969,0.58404 -0.44691,1.15506 -0.651,1.71174 -0.20408,0.55668 -0.39495,1.09917 -0.57187,1.62572 -0.17691,0.52654 -0.33978,1.0373 -0.48794,1.53096 -0.14816,0.49366 -0.28157,0.97008 -0.39939,1.4281 -0.11781,0.45803 -0.22001,0.89758 -0.30587,1.31722 l -0.0182,0.0545 c 0.6011,2.93749 2.00407,6.84888 3.93668,11.26296 2.48478,5.67524 5.8452,12.18136 9.50244,18.51587 z"
         style="opacity:0.186488;mix-blend-mode:overlay;fill:#4400aa;fill-opacity:1;stroke-width:0.43345" />
      <path
         id="path1166-6-9"
         d="m 139.99129,213.91964 c 7.31447,1e-5 14.62891,-0.34284 20.78621,-1.02858 4.78901,-0.53334 8.87787,-1.27405 11.72238,-2.22221 2.2434,-1.98934 4.92956,-5.16025 7.78595,-9.04099 7.34503,-9.97902 15.81664,-24.65216 20.78621,-36.00263 1.93261,-4.41407 3.33554,-8.3257 3.93666,-11.2632 l 0.0562,-0.0117 c -0.60112,-2.93751 -2.00404,-6.8489 -3.93665,-11.26298 -4.96958,-11.35048 -13.44119,-26.02385 -20.78621,-36.00287 -2.85639,-3.88072 -5.54256,-7.05163 -7.78596,-9.04097 l -0.0381,-0.0428 c -2.84451,-0.948169 -6.93337,-1.689099 -11.72238,-2.222441 -6.84144,-0.761928 -15.11148,-1.100458 -23.22279,-1.015809 -6.48905,0.0677 -12.8767,0.406271 -18.34985,1.01581 -4.78901,0.53334 -8.87786,1.274272 -11.72238,2.22244 -2.2434,1.98934 -4.92956,5.16003 -7.785963,9.04076 -7.345003,9.97902 -15.816626,24.65238 -20.786191,36.00286 -1.932622,4.41408 -3.335543,8.32569 -3.936663,11.2632 l -0.05617,0.0115 c 0.0859,0.41964 0.188153,0.85927 0.305972,1.3173 0.117803,0.45802 0.251211,0.93451 0.399371,1.42817 0.148159,0.49366 0.31095,1.00444 0.487849,1.53098 0.176924,0.52654 0.367998,1.06883 0.572092,1.62551 0.204081,0.55668 0.421234,1.12768 0.650916,1.71174 0.229699,0.58405 0.471833,1.18122 0.72551,1.78992 0.253638,0.60871 0.518852,1.229 0.794954,1.85958 4.969564,11.35048 13.441405,26.02384 20.786422,36.00286 0.408061,0.55438 0.812611,1.0943 1.212911,1.61834 0.40034,0.52402 0.79618,1.03221 1.18716,1.52315 0.39095,0.49094 0.77685,0.96457 1.15691,1.41966 0.38005,0.45508 0.75444,0.89162 1.12198,1.30811 0.36754,0.41648 0.72844,0.81291 1.08188,1.18805 0.35344,0.37514 0.69932,0.72889 1.03708,1.05993 0.33775,0.33103 0.66731,0.63933 0.98781,0.92352 l 0.0381,0.043 c 2.8445,0.94816 6.93335,1.68886 11.72236,2.22221 6.15729,0.68574 13.47196,1.02858 20.78643,1.02858 z"
         style="opacity:0.186488;mix-blend-mode:overlay;fill:#4400aa;fill-opacity:1;stroke-width:0.43345" />
      <path
         id="path1166-3-2"
         d="m 139.99129,404.41975 c 7.31446,0 14.62891,-0.34284 20.78621,-1.02856 4.78901,-0.53335 8.87786,-1.27406 11.72238,-2.22223 2.2434,-1.98934 4.92956,-5.16025 7.78595,-9.04097 7.34502,-9.97902 15.81664,-24.65216 20.78621,-36.00263 1.93262,-4.41408 3.33554,-8.3257 3.93665,-11.26322 l 0.0562,-0.0117 c -0.60112,-2.93751 -2.00404,-6.8489 -3.93666,-11.26297 -4.96957,-11.35049 -13.44119,-26.02385 -20.7862,-36.00288 -2.85639,-3.88072 -5.54256,-7.05163 -7.78595,-9.04097 l -0.0381,-0.0428 c -2.84451,-0.94816 -6.93337,-1.68909 -11.72239,-2.22243 -6.84143,-0.76194 -15.11147,-1.10046 -23.22278,-1.01582 -6.48905,0.0677 -12.8767,0.40627 -18.34985,1.01583 -4.78901,0.53333 -8.87787,1.27426 -11.72238,2.22242 -2.2434,1.98934 -4.92956,5.16004 -7.78596,9.04077 -7.345006,9.97901 -15.816629,24.65237 -20.78619,36.00286 -1.932633,4.41408 -3.335547,8.32568 -3.936666,11.26319 l -0.05616,0.0115 c 0.0859,0.41964 0.188149,0.85926 0.305971,1.3173 0.117804,0.45802 0.251209,0.9345 0.399372,1.42817 0.148168,0.49365 0.310947,1.00444 0.487857,1.53097 0.176916,0.52655 0.367988,1.06884 0.572083,1.62552 0.204082,0.55668 0.421237,1.12768 0.650917,1.71174 0.229698,0.58405 0.471841,1.18121 0.72551,1.78992 0.253637,0.60871 0.518861,1.22899 0.794953,1.85958 4.969567,11.35048 13.441407,26.02384 20.78643,36.00285 0.408063,0.55439 0.812603,1.09431 1.212903,1.61835 0.40034,0.52402 0.79618,1.03221 1.18716,1.52315 0.39095,0.49094 0.77685,0.96456 1.15692,1.41965 0.38005,0.45508 0.75443,0.89162 1.12197,1.30812 0.36754,0.41648 0.72844,0.81291 1.08188,1.18805 0.35344,0.37514 0.69933,0.72888 1.03707,1.05992 0.33777,0.33104 0.66733,0.63933 0.98782,0.92352 l 0.0381,0.043 c 2.84449,0.94817 6.93336,1.68886 11.72236,2.22221 6.1573,0.68573 13.47196,1.02858 20.78643,1.02858 z"
         style="opacity:0.186488;mix-blend-mode:overlay;fill:#4400aa;fill-opacity:1;stroke-width:0.43345" />
      <path
         id="path1166-9-0"
         d="m 170.8782,231.75219 c 3.65722,6.33452 7.61134,12.49759 11.28386,17.48711 2.8564,3.88073 5.54229,7.05143 7.78569,9.04077 2.84452,0.94817 6.93369,1.68899 11.72269,2.22234 12.31459,1.37145 29.25772,1.37153 41.57231,7e-5 4.789,-0.53335 8.87803,-1.27419 11.72255,-2.22237 l 0.0382,0.0428 c 2.2434,-1.98934 4.9293,-5.16 7.78569,-9.04072 7.34503,-9.97903 15.81672,-24.65234 20.78629,-36.00283 1.93262,-4.41407 3.33563,-8.32581 3.93675,-11.26333 l 0.018,-0.0544 c -0.60112,-2.93751 -2.00388,-6.84903 -3.9365,-11.2631 -2.76087,-6.30583 -6.60272,-13.63716 -10.73168,-20.61943 -3.30316,-5.58584 -6.79019,-10.94842 -10.05465,-15.38354 -2.85638,-3.88073 -5.54248,-7.05132 -7.78587,-9.04065 -2.84453,-0.94818 -6.9335,-1.68911 -11.72251,-2.22246 -12.3146,-1.37146 -29.25791,-1.37142 -41.5725,5e-5 -4.78901,0.53334 -8.87803,1.27418 -11.72255,2.22235 l -0.038,-0.0429 c -0.32047,0.28421 -0.65008,0.59259 -0.98782,0.92364 -0.33777,0.33103 -0.68371,0.68481 -1.03715,1.05995 -0.35344,0.37514 -0.7144,0.7715 -1.08194,1.18798 -0.36754,0.41648 -0.74164,0.8531 -1.1217,1.30819 -0.38006,0.45509 -0.76598,0.92864 -1.15695,1.41958 -0.39095,0.49095 -0.78705,0.99924 -1.18736,1.52327 -0.40035,0.52402 -0.80491,1.06385 -1.21297,1.61824 -7.34502,9.97901 -15.8166,24.65252 -20.78618,36.00301 -0.27607,0.63058 -0.54138,1.25089 -0.79507,1.85958 -0.25363,0.60871 -0.49582,1.20561 -0.7255,1.78967 -0.2297,0.58406 -0.44692,1.15508 -0.65101,1.71176 -0.20408,0.55668 -0.39495,1.09917 -0.57187,1.62571 -0.17691,0.52653 -0.33978,1.03731 -0.48794,1.53096 -0.14816,0.49365 -0.28157,0.97009 -0.39938,1.42811 -0.11781,0.45803 -0.22002,0.89758 -0.30588,1.31723 l -0.0182,0.0545 c 0.6011,2.93748 2.00408,6.84889 3.93669,11.26298 2.48478,5.67524 5.84519,12.18134 9.50244,18.51585 z"
         style="opacity:0.186488;mix-blend-mode:overlay;fill:#4400aa;fill-opacity:1;stroke-width:0.43345" />
      <path
         id="path1166-7-2"
         d="m 5.900247,327.00225 c 3.65724,6.33452 7.611368,12.49759 11.283873,17.4871 2.856404,3.88073 5.542291,7.05145 7.785694,9.04077 2.844514,0.94817 6.933682,1.68899 11.722684,2.22235 12.314595,1.37146 29.257707,1.37151 41.572315,6e-5 4.788993,-0.53334 8.87802,-1.27418 11.722542,-2.22236 l 0.03823,0.0428 c 2.243398,-1.98934 4.929301,-5.16 7.785679,-9.04073 7.345036,-9.97902 15.816726,-24.65233 20.786306,-36.00282 1.93262,-4.41407 3.33563,-8.32581 3.93675,-11.26332 l 0.018,-0.0544 c -0.60113,-2.9375 -2.00389,-6.84903 -3.93651,-11.2631 -2.76087,-6.30583 -6.60272,-13.63715 -10.73167,-20.61943 -3.30316,-5.58584 -6.79019,-10.94842 -10.054653,-15.38354 -2.856391,-3.88074 -5.542481,-7.05132 -7.785875,-9.04065 -2.844524,-0.94818 -6.933497,-1.68911 -11.722508,-2.22246 -12.314591,-1.37146 -29.257906,-1.37142 -41.572493,5e-5 -4.789024,0.53335 -8.87803,1.27418 -11.722556,2.22236 l -0.03817,-0.0429 c -0.320469,0.28421 -0.650074,0.5926 -0.987823,0.92364 -0.337755,0.33103 -0.683711,0.68482 -1.037154,1.05996 -0.353434,0.37513 -0.714401,0.7715 -1.081934,1.18797 -0.367538,0.41649 -0.741636,0.85311 -1.121701,1.3082 -0.380045,0.45508 -0.765975,0.92863 -1.156946,1.41957 -0.390953,0.49095 -0.787043,0.99924 -1.187361,1.52327 -0.400346,0.52402 -0.804912,1.06385 -1.212967,1.61824 -7.3450203,9.97901 -15.8166028,24.65252 -20.7861736,36.00301 -0.2760828,0.63059 -0.5413923,1.2509 -0.7950656,1.85959 -0.2536446,0.60871 -0.4958264,1.2056 -0.7255116,1.78968 -0.2297001,0.58404 -0.4469157,1.15508 -0.6509979,1.71174 -0.2040845,0.55669 -0.3949629,1.09918 -0.5718802,1.62571 -0.1769022,0.52656 -0.3397757,1.03731 -0.4879278,1.53096 -0.1481644,0.49368 -0.2815722,0.97009 -0.3993863,1.42811 -0.117809,0.45803 -0.220016,0.89758 -0.3058868,1.31723 l -0.018189,0.0545 c 0.6011007,2.93748 2.0040744,6.84888 3.9366847,11.26296 2.4847768,5.67524 5.8452086,12.18136 9.5024436,18.51587 z"
         style="opacity:0.186488;mix-blend-mode:overlay;fill:#4400aa;fill-opacity:1;stroke-width:0.43345" />
    </g>
  </g>
</svg>
