<?xml version="1.0" encoding="UTF-8" standalone="no"?>
<!-- Created with Inkscape (http://www.inkscape.org/) -->

<svg
   width="120mm"
   height="120mm"
   viewBox="0 0 120 120"
   version="1.1"
   id="svg5"
   sodipodi:docname="scalaone.svg"
   inkscape:version="1.2.1 (9c6d41e410, 2022-07-14)"
   xmlns:inkscape="http://www.inkscape.org/namespaces/inkscape"
   xmlns:sodipodi="http://sodipodi.sourceforge.net/DTD/sodipodi-0.dtd"
   xmlns="http://www.w3.org/2000/svg"
   xmlns:svg="http://www.w3.org/2000/svg">
  <sodipodi:namedview
     id="namedview7"
     pagecolor="#ffffff"
     bordercolor="#111111"
     borderopacity="1"
     inkscape:pageshadow="0"
     inkscape:pageopacity="1"
     inkscape:pagecheckerboard="1"
     inkscape:document-units="mm"
     showgrid="false"
     fit-margin-top="0"
     fit-margin-left="0"
     fit-margin-right="0"
     fit-margin-bottom="0"
     inkscape:zoom="1.3416246"
     inkscape:cx="112.9228"
     inkscape:cy="307.09037"
     inkscape:window-width="4500"
     inkscape:window-height="2980"
     inkscape:window-x="0"
     inkscape:window-y="20"
     inkscape:window-maximized="1"
     inkscape:current-layer="layer1"
     inkscape:showpageshadow="0"
     inkscape:deskcolor="#d1d1d1">
    <inkscape:grid
       type="xygrid"
       id="grid26971"
       dotted="true"
       spacingx="0.25"
       spacingy="0.25"
       originx="-80.97255"
       originy="-91.952679" />
  </sodipodi:namedview>
  <defs
     id="defs2" />
  <g
     inkscape:label="Layer 1"
     inkscape:groupmode="layer"
     id="layer1"
     transform="translate(-80.972551,-91.952678)">
    <text
       xml:space="preserve"
       style="font-style:normal;font-weight:normal;font-size:30.9622px;line-height:1.25;font-family:sans-serif;fill:#3b3b3b;fill-opacity:1;stroke:none;stroke-width:0.161261"
       x="114.6207"
       y="211.89682"
       id="text4544"
       transform="scale(1.0017816,0.99822158)"><tspan
         sodipodi:role="line"
         id="tspan4542"
         style="font-style:normal;font-variant:normal;font-weight:bold;font-stretch:normal;font-size:30.9622px;font-family:'Playfair Display';-inkscape-font-specification:'Playfair Display Bold';stroke-width:0.161261;fill:#3b3b3b;fill-opacity:1"
         x="114.6207"
         y="211.89682">one</tspan></text>
    <text
       xml:space="preserve"
       style="font-style:normal;font-weight:normal;font-size:10.8969px;line-height:1.25;font-family:sans-serif;fill:#3b3b3b;fill-opacity:1;stroke:none;stroke-width:0.090807"
       x="115.76252"
       y="192.4028"
       id="text8742"
       transform="scale(1.0017816,0.99822158)"><tspan
         sodipodi:role="line"
         id="tspan8740"
         style="font-style:normal;font-variant:normal;font-weight:normal;font-stretch:normal;font-size:10.8969px;font-family:'Josefin Sans';-inkscape-font-specification:'Josefin Sans';stroke-width:0.090807;fill:#3b3b3b;fill-opacity:1"
         x="115.76252"
         y="192.4028">S C A L A</tspan></text>
    <path
       style="fill:#969696;stroke:none;stroke-width:0.131312px;stroke-linecap:butt;stroke-linejoin:miter;stroke-opacity:1;fill-opacity:1"
       d="m 126.05712,126.20662 7.4577,3.71559 22.37311,-11.1468 v -2.47706 l -7.4577,-3.71561 -22.37311,11.14681 z"
       id="path31658" />
    <path
       style="fill:#969696;stroke:none;stroke-width:0.131312px;stroke-linecap:butt;stroke-linejoin:miter;stroke-opacity:1;fill-opacity:1"
       d="m 126.05712,150.97728 7.4577,3.7156 22.37311,-11.1468 v -2.47707 l -7.4577,-3.7156 -22.37311,11.1468 z"
       id="path31658-3" />
    <path
       style="fill:#969696;stroke:none;stroke-width:0.131312px;stroke-linecap:butt;stroke-linejoin:miter;stroke-opacity:1;fill-opacity:1"
       d="m 140.97253,168.31675 4.9718,2.47707 19.88721,-7.43121 v -2.47706 l -7.45771,-3.7156 -17.4013,8.66974 c -1.26596,0.97142 0.69573,1.09055 0,2.47706 z"
       id="path31658-3-5"
       sodipodi:nodetypes="ccccccc" />
    <path
       style="fill:#3b3b3b;stroke:none;stroke-width:0.131312px;stroke-linecap:butt;stroke-linejoin:miter;stroke-opacity:1;fill-opacity:1"
       d="m 116.11352,113.82128 c 0,-2.47707 0,-2.47707 2.4859,-3.7156 2.4859,-1.23853 32.31671,-16.100933 34.80261,-17.339467 2.4859,-1.238532 2.4859,-1.238532 2.4859,1.238534 0,2.477067 0,17.339463 0,17.339463 l -29.83081,14.86241 v -2.47707 c 0,-2.47707 0,-2.47707 -2.4859,-2.47707 h -4.9718 c -2.4859,0 -2.4859,0 -2.4859,-2.47707 0,0 0,-2.47706 0,-4.95413 z"
       id="path27025"
       sodipodi:nodetypes="zzzzcczzzzz" />
    <path
       style="fill:#3b3b3b;stroke:none;stroke-width:0.131312px;stroke-linecap:butt;stroke-linejoin:miter;stroke-opacity:1;fill-opacity:1"
       d="m 126.05712,131.16075 29.83081,-14.8624 v 19.81653 l -29.83081,14.8624 v -19.81653 0"
       id="path27175" />
    <path
       style="fill:#3b3b3b;stroke:none;stroke-width:0.131312px;stroke-linecap:butt;stroke-linejoin:miter;stroke-opacity:1;fill-opacity:1"
       d="m 155.88793,141.06901 v 7.36251 c 0,2.54576 0,2.54576 2.4859,2.54576 h 4.9718 c 2.48591,0 2.48591,0 2.48591,2.47707 v 2.47706 l -29.83082,14.86241 c 0,0 -14.9154,0 -17.4013,0 -2.4859,0 -2.4859,0 -2.4859,-2.41689 0,-1.61279 0,-3.6754 0,-5.01432 0,-2.47706 0,-2.47706 2.58831,-3.76662 2.58831,-1.28956 37.1861,-18.52698 37.1861,-18.52698 z"
       id="path27309"
       sodipodi:nodetypes="ccccccczsszc" />
    <path
       style="fill:#3b3b3b;stroke:none;stroke-width:0.131312px;stroke-linecap:butt;stroke-linejoin:miter;stroke-opacity:1;fill-opacity:1"
       d="m 165.83154,160.88555 c 0,0 0,4.87651 0,7.39239 0,2.51588 0,2.51588 -2.48591,2.51588 -2.4859,0 -17.4013,0 -17.4013,0 z"
       id="path27311"
       sodipodi:nodetypes="czzcc" />
  </g>
</svg>
