<?xml version="1.0" encoding="UTF-8" standalone="no"?>
<!-- Created with Inkscape (http://www.inkscape.org/) -->

<svg
   width="120mm"
   height="120mm"
   viewBox="0 0 120 120"
   version="1.1"
   id="svg5"
   inkscape:version="1.2.2 (b0a8486541, 2022-12-01)"
   sodipodi:docname="logo.svg"
   xmlns:inkscape="http://www.inkscape.org/namespaces/inkscape"
   xmlns:sodipodi="http://sodipodi.sourceforge.net/DTD/sodipodi-0.dtd"
   xmlns:xlink="http://www.w3.org/1999/xlink"
   xmlns="http://www.w3.org/2000/svg"
   xmlns:svg="http://www.w3.org/2000/svg">
  <sodipodi:namedview
     id="namedview7"
     pagecolor="#ffffff"
     bordercolor="#111111"
     borderopacity="1"
     inkscape:showpageshadow="0"
     inkscape:pageopacity="0"
     inkscape:pagecheckerboard="1"
     inkscape:deskcolor="#d1d1d1"
     inkscape:document-units="mm"
     showgrid="false"
     inkscape:zoom="1.6819304"
     inkscape:cx="318.08688"
     inkscape:cy="252.09129"
     inkscape:window-width="2248"
     inkscape:window-height="2978"
     inkscape:window-x="0"
     inkscape:window-y="20"
     inkscape:window-maximized="1"
     inkscape:current-layer="layer1">
    <inkscape:grid
       type="xygrid"
       id="grid686"
       dotted="true"
       originx="-38.459585"
       originy="-58.373547" />
  </sodipodi:namedview>
  <defs
     id="defs2">
    <linearGradient
       inkscape:collect="always"
       id="linearGradient2652">
      <stop
         style="stop-color:#567923;stop-opacity:1;"
         offset="0"
         id="stop2648" />
      <stop
         style="stop-color:#160073;stop-opacity:1;"
         offset="1"
         id="stop2650" />
    </linearGradient>
    <linearGradient
       inkscape:collect="always"
       id="linearGradient2646">
      <stop
         style="stop-color:#ddf5de;stop-opacity:1;"
         offset="0"
         id="stop2642" />
      <stop
         style="stop-color:#45fffd;stop-opacity:1;"
         offset="1"
         id="stop2644" />
    </linearGradient>
    <linearGradient
       inkscape:collect="always"
       id="linearGradient1932">
      <stop
         style="stop-color:#81e300;stop-opacity:0.55702853;"
         offset="0"
         id="stop1928" />
      <stop
         style="stop-color:#50ff04;stop-opacity:0.57833594;"
         offset="1"
         id="stop1930" />
    </linearGradient>
    <linearGradient
       inkscape:collect="always"
       xlink:href="#linearGradient1932"
       id="linearGradient1925"
       gradientUnits="userSpaceOnUse"
       gradientTransform="matrix(-1.1088585,-0.22770554,0.41586188,-0.98399724,158.81849,271.99069)"
       x1="56.722908"
       y1="138.59958"
       x2="133.77824"
       y2="83.993393" />
    <linearGradient
       inkscape:collect="always"
       xlink:href="#linearGradient2652"
       id="linearGradient1747-3"
       x1="50.175301"
       y1="143.47841"
       x2="158.10831"
       y2="84.814667"
       gradientUnits="userSpaceOnUse"
       gradientTransform="matrix(1.1025193,0,0,1.1025193,17.14992,-219.42043)" />
    <linearGradient
       inkscape:collect="always"
       xlink:href="#linearGradient2646"
       id="linearGradient1747-3-3"
       x1="50.175301"
       y1="143.47841"
       x2="158.10831"
       y2="84.814667"
       gradientUnits="userSpaceOnUse"
       gradientTransform="matrix(-0.99495633,-0.47498492,0.47498492,-0.99495633,144.95948,295.199)" />
    <linearGradient
       inkscape:collect="always"
       xlink:href="#linearGradient2646"
       id="linearGradient1061"
       gradientUnits="userSpaceOnUse"
       gradientTransform="matrix(-1.0991499,0.08612915,-0.08612915,-1.0991499,223.15306,244.07941)"
       x1="50.175301"
       y1="143.47841"
       x2="158.10831"
       y2="84.814667" />
    <linearGradient
       inkscape:collect="always"
       xlink:href="#linearGradient1932"
       id="linearGradient1063"
       gradientUnits="userSpaceOnUse"
       gradientTransform="matrix(-1.0741525,0.35723052,-0.13185167,-1.0600976,223.55117,217.05092)"
       x1="56.722908"
       y1="138.59958"
       x2="133.77824"
       y2="83.993393" />
    <linearGradient
       inkscape:collect="always"
       xlink:href="#linearGradient2646"
       id="linearGradient1190"
       gradientUnits="userSpaceOnUse"
       gradientTransform="matrix(-0.71574407,-0.83860552,0.83860552,-0.71574407,69.662813,285.66745)"
       x1="50.175301"
       y1="143.47841"
       x2="158.10831"
       y2="84.814667" />
    <linearGradient
       inkscape:collect="always"
       xlink:href="#linearGradient1932"
       id="linearGradient1192"
       gradientUnits="userSpaceOnUse"
       gradientTransform="matrix(-0.92037642,-0.65903273,0.78013647,-0.72977995,91.763325,270.10257)"
       x1="56.722908"
       y1="138.59958"
       x2="133.77824"
       y2="83.993393" />
    <clipPath
       clipPathUnits="userSpaceOnUse"
       id="clipPath1362">
      <circle
         style="fill:none;fill-opacity:1;stroke:#000000;stroke-width:0.0716637;stroke-opacity:1;stop-color:#000000"
         id="circle1364"
         r="59.999996"
         cy="-88.911354"
         cx="125.70351"
         transform="rotate(85.51947)" />
    </clipPath>
  </defs>
  <g
     inkscape:label="Layer 1"
     inkscape:groupmode="layer"
     id="layer1"
     transform="translate(-38.459585,-58.373547)">
    <g
       id="g1338"
       clip-path="url(#clipPath1362)">
      <circle
         style="fill:url(#linearGradient1747-3);fill-opacity:1;stroke:none;stroke-width:0.0716636;stop-color:#000000"
         id="path1583-5"
         r="59.999996"
         cy="-88.911354"
         cx="125.70351"
         transform="rotate(85.51947)" />
      <path
         id="path1583-5-2"
         style="opacity:0.114452;fill:url(#linearGradient1747-3-3);fill-opacity:1;stroke:none;stroke-width:0.0716636;stop-color:#000000"
         d="m 153.90009,98.53584 c -0.22614,0.09272 -0.44716,0.177735 -0.67497,0.27297 -0.76778,0.320978 -1.54475,0.656435 -2.33139,1.006228 -0.78665,0.349792 -1.5832,0.714072 -2.38891,1.092952 -0.80571,0.37888 -1.62065,0.77225 -2.44561,1.18048 -0.82494,0.40825 -1.65987,0.83115 -2.50425,1.26903 -0.84438,0.43787 -1.69826,0.89105 -2.56223,1.35884 -0.864,0.46779 -1.73795,0.95022 -2.62171,1.4482 -0.88379,0.49798 -1.77757,1.01124 -2.68131,1.53968 -0.90374,0.52845 -1.81767,1.07231 -2.74157,1.63149 -0.9239,0.55918 -1.85776,1.13359 -2.80199,1.72379 -0.94421,0.5902 -1.89865,1.19591 -2.86337,1.8174 -0.96472,0.62149 -1.93966,1.25893 -2.92508,1.91199 -0.98542,0.65306 -1.98115,1.32203 -2.98744,2.00693 -1.0063,0.68491 -2.02328,1.38565 -3.05062,2.10267 -1.02733,0.71704 -2.06504,1.45015 -3.11361,2.19957 -1.04859,0.74942 -2.10792,1.51505 -3.17791,2.29714 -1.06998,0.78209 -2.15096,1.58064 -3.24253,2.39568 -1.09159,0.81503 -2.19411,1.64693 -3.30747,2.49519 -1.11337,0.84827 -2.2371,1.71297 -3.37243,2.59474 -1.13532,0.88175 -2.282177,1.78068 -3.439631,2.69623 -1.157464,0.91554 -2.325924,1.84796 -3.505695,2.79755 -1.179775,0.9496 -2.370458,1.9163 -3.572734,2.90021 -1.202273,0.98392 -2.416118,1.98499 -3.641075,3.00352 -1.224946,1.01853 -2.461421,2.05457 -3.709236,3.10798 -1.247817,1.0534 -2.506719,2.12435 -3.777576,3.21291 -1.27086,1.08855 -2.553617,2.19436 -3.847699,3.31836 -1.29408,1.12399 -2.599835,2.2659 -3.917318,3.4256 -1.317485,1.1597 -2.646523,2.3375 -3.987587,3.53317 -1.341068,1.19569 -2.693841,2.40964 -4.058674,3.64158 -1.364834,1.23196 -2.741623,2.48182 -4.130401,3.7503 -1.063918,0.97177 -2.14158,1.96401 -3.219644,2.95736 a 59.999996,59.999996 0 0 0 20.074605,15.57661 59.999996,59.999996 0 0 0 79.995635,-28.29749 59.999996,59.999996 0 0 0 -3.46857,-57.96886 z" />
      <path
         id="path844-9-2"
         style="opacity:0.511922;mix-blend-mode:color-dodge;fill:url(#linearGradient1925);fill-opacity:1;stroke:none;stroke-width:0.280903px;stroke-linecap:butt;stroke-linejoin:miter;stroke-opacity:1"
         d="m 62.743438,164.38151 c 6.455842,-0.1909 12.468668,-2.48568 16.612756,-5.17319 -0.820843,1.78839 -1.430205,3.7008 -1.726135,5.68859 6.63813,-0.19627 12.806781,-2.61691 16.958097,-5.40173 -0.355986,1.33392 -0.585919,2.71277 -0.651441,4.11752 7.126475,-0.73618 13.450055,-3.93526 17.300365,-7.21894 -0.14799,1.13247 -0.20032,2.28659 -0.13388,3.4503 7.95534,-1.4077 14.57745,-5.78205 17.84569,-9.65899 0.0788,0.38925 0.17139,0.77817 0.27857,1.16596 7.17531,-2.35775 12.6625,-7.00895 15.40409,-11.03882 0.15935,0.0901 0.32016,0.17931 0.48378,0.26604 6.74986,-8.74018 5.63589,-19.05791 1.79786,-20.9474 0.4326,-0.17685 0.86423,-0.36404 1.29397,-0.56252 -3.37458,-5.8356 -9.85638,-9.14903 -14.93778,-9.91899 -0.42074,-4.42001 -3.65816,-10.274281 -10.10553,-13.703412 -0.27183,0.351685 -0.53029,0.706229 -0.77682,1.062404 -1.78982,-3.475184 -13.67072,-5.406541 -24.447438,-0.429008 0.0851,0.147256 0.17307,0.292507 0.26205,0.436537 -4.897632,1.993871 -10.725268,6.237009 -14.09386,12.109569 0.450236,0.13046 0.902969,0.24826 1.357524,0.35377 -4.835268,2.39138 -10.642954,7.70619 -13.044452,14.47643 1.338539,0.16442 2.677562,0.22622 3.999919,0.20518 -4.150606,2.99384 -8.423596,8.09743 -9.933279,14.11154 1.643067,0.0746 3.270953,0.005 4.858095,-0.17856 -3.606592,3.29458 -6.976447,8.34391 -7.818557,14.00007 2.330226,-0.0689 4.602233,-0.41305 6.750163,-0.94963 -3.497732,3.29717 -6.713857,8.23 -7.533707,13.73707 z"
         inkscape:transform-center-x="26.663836"
         inkscape:transform-center-y="19.639128" />
      <path
         id="path1583-5-2-2"
         style="opacity:0.114452;fill:url(#linearGradient1190);fill-opacity:1;stroke:none;stroke-width:0.0716636;stop-color:#000000"
         d="m 157.82055,109.64325 c -0.2443,-0.007 -0.48079,-0.0195 -0.72763,-0.0252 -0.83196,-0.0191 -1.6782,-0.0286 -2.53911,-0.029 -0.8609,-3.9e-4 -1.73676,0.008 -2.62691,0.0268 -0.89016,0.0184 -1.79463,0.0463 -2.71432,0.0837 -0.91968,0.0374 -1.85442,0.0842 -2.8039,0.14073 -0.94948,0.0566 -1.91386,0.12328 -2.89341,0.19921 -0.97956,0.0759 -1.97417,0.16118 -2.98409,0.25664 -1.00992,0.0954 -2.03518,0.20081 -3.07573,0.31597 -1.04054,0.11517 -2.09667,0.24029 -3.16813,0.37534 -1.07147,0.13505 -2.15822,0.27997 -3.26086,0.43508 -1.10264,0.15513 -2.22094,0.32025 -3.35504,0.49563 -1.13409,0.17537 -2.284,0.36116 -3.44987,0.55696 -1.16585,0.19579 -2.34758,0.40193 -3.54544,0.61832 -1.19788,0.21639 -2.41196,0.44292 -3.64211,0.68008 -1.23017,0.23719 -2.47635,0.48486 -3.73908,0.74299 -1.26276,0.25812 -2.5419,0.5267 -3.8375,0.80598 -1.29557,0.27926 -2.6079,0.56909 -3.93661,0.8697 -1.32871,0.30057 -2.67427,0.61211 -4.0364,0.9342 -1.36213,0.32208 -2.740417,0.65497 -4.136232,0.99872 -1.395802,0.34375 -2.809127,0.69849 -4.238906,1.06412 -1.429776,0.3656 -2.87647,0.74215 -4.340478,1.12979 -1.464015,0.38765 -2.944946,0.78647 -4.443476,1.19631 -1.498527,0.40985 -3.0146,0.83065 -4.547928,1.26289 -1.53332,0.43225 -3.084291,0.8758 -4.652686,1.3306 -1.568394,0.4548 -3.154052,0.92112 -4.757794,1.39866 -1.603741,0.47753 -3.225372,0.966 -4.864749,1.46648 -1.639368,0.50047 -3.296693,1.01256 -4.971965,1.53612 -1.675275,0.52358 -3.368466,1.05898 -5.079912,1.60582 -1.711457,0.54685 -3.441031,1.10561 -5.188946,1.67593 -1.747922,0.57033 -3.514043,1.15214 -5.298692,1.74608 -1.367192,0.45502 -2.755268,0.92317 -4.144161,1.39215 a 59.999996,59.999996 0 0 0 12.003486,22.39501 59.999996,59.999996 0 0 0 84.589249,6.6861 59.999996,59.999996 0 0 0 20.40933,-54.36792 z" />
      <path
         id="path844-9-2-93"
         style="opacity:0.511922;mix-blend-mode:color-dodge;fill:url(#linearGradient1192);fill-opacity:1;stroke:none;stroke-width:0.280903px;stroke-linecap:butt;stroke-linejoin:miter;stroke-opacity:1"
         d="m 47.763016,132.71946 c 5.975351,2.45143 12.401712,2.80068 17.280631,2.03108 -1.477278,1.29991 -2.811807,2.79913 -3.890661,4.49471 6.144068,2.52065 12.763974,2.8183 17.689077,1.96274 -0.867763,1.0738 -1.638644,2.23992 -2.269868,3.49658 6.80978,2.22608 13.887826,1.87558 18.740854,0.44185 -0.595814,0.97437 -1.113041,2.00743 -1.525668,3.09755 7.840129,1.94974 15.668929,0.64701 20.231509,-1.56543 -0.0865,0.38762 -0.15978,0.78064 -0.21969,1.17847 7.51395,0.76451 14.41857,-1.25269 18.56223,-3.81906 0.10891,0.14713 0.21955,0.29403 0.33375,0.43981 9.72125,-5.23912 12.9002,-15.11793 10.16249,-18.40514 0.46713,0.0144 0.93759,0.0189 1.41091,0.0124 -0.70929,-6.70364 -5.28302,-12.36697 -9.61194,-15.13717 1.41343,-4.20899 0.83702,-10.87388 -3.6582,-16.628934 -0.39138,0.210716 -0.77169,0.429485 -1.14177,0.654596 -0.2216,-3.902726 -10.2898,-10.499507 -22.15933,-10.335579 0.0178,0.169138 0.0391,0.337611 0.0618,0.505381 -5.28518,-0.170553 -12.334827,1.335418 -17.800761,5.330109 0.358248,0.302306 0.723925,0.594071 1.096265,0.875345 -5.38989,0.217935 -12.857203,2.711058 -17.804785,7.919202 1.155942,0.694635 2.354063,1.29573 3.570652,1.81435 -5.009469,1.04681 -10.988857,3.97119 -14.81418,8.85131 1.470674,0.73644 2.98613,1.33499 4.510716,1.81285 -4.634811,1.54281 -9.767073,4.78495 -12.836946,9.60959 2.156788,0.88486 4.372346,1.49458 6.552828,1.87802 -4.536417,1.58945 -9.480857,4.78771 -12.469754,9.48521 z"
         inkscape:transform-center-x="38.344021"
         inkscape:transform-center-y="5.890007" />
      <path
         id="path844-9-2-9"
         style="opacity:0.511922;mix-blend-mode:color-dodge;fill:url(#linearGradient1063);fill-opacity:1;stroke:none;stroke-width:0.280903px;stroke-linecap:butt;stroke-linejoin:miter;stroke-opacity:1"
         d="m 86.543161,171.89615 c 5.495473,-3.39324 9.555339,-8.387 11.800471,-12.78649 0.183324,1.95921 0.611809,3.92009 1.349417,5.78952 5.650651,-3.48904 9.782541,-8.6697 11.985281,-13.15707 0.35862,1.3332 0.84898,2.64227 1.49459,3.89159 5.80363,-4.20079 9.68044,-10.13304 11.37307,-14.90195 0.43805,1.05474 0.96978,2.08042 1.6092,3.05499 6.18569,-5.19678 9.73343,-12.29615 10.62533,-17.28777 0.26288,0.29768 0.53751,0.58821 0.82423,0.87045 5.03512,-5.62953 7.46157,-12.40117 7.82093,-17.26193 0.18304,-0.002 0.36693,-0.005 0.55198,-0.0115 1.47545,-10.944149 -4.64814,-19.322582 -8.9167,-19.039913 0.28621,-0.369455 0.56641,-0.747388 0.83933,-1.134145 -5.84025,-3.366487 -13.11037,-2.995087 -17.89598,-1.121193 -2.57436,-3.61745 -8.30517,-7.068665 -15.60332,-6.814695 -0.0596,0.440483 -0.10613,0.876758 -0.14154,1.308479 -3.28762,-2.114687 -14.542463,2.153157 -21.386592,11.852175 0.147353,0.08496 0.296137,0.166784 0.445211,0.247027 -3.244535,4.175558 -6.169857,10.764025 -6.150876,17.534085 0.455131,-0.11217 0.906133,-0.23646 1.35255,-0.37234 -2.991788,4.4886 -5.363987,11.99521 -4.058623,19.05916 1.241431,-0.52685 2.431948,-1.14287 3.566619,-1.82227 -2.097604,4.66805 -3.246331,11.22438 -1.546699,17.18759 1.460232,-0.75693 2.835153,-1.63128 4.11795,-2.58369 -1.476108,4.65649 -1.869826,10.71426 0.228969,16.0337 1.983597,-1.22476 3.779126,-2.65882 5.370997,-4.19748 -1.38054,4.60429 -1.69937,10.48431 0.344153,15.6635 z"
         inkscape:transform-center-x="15.986773"
         inkscape:transform-center-y="31.94979" />
      <path
         id="path1236"
         style="opacity:0.114452;fill:url(#linearGradient1061);fill-opacity:1;stroke:none;stroke-width:0.0716636;stop-color:#000000"
         d="m 84.880999,176.80298 a 59.999996,59.999996 0 0 0 3.565773,0.72926 59.999996,59.999996 0 0 0 4.060798,0.54533 59.999996,59.999996 0 0 0 4.087748,0.26698 59.999996,59.999996 0 0 0 4.097052,-0.0123 59.999996,59.999996 0 0 0 4.08669,-0.29227 59.999996,59.999996 0 0 0 4.05708,-0.57073 59.999996,59.999996 0 0 0 4.00863,-0.84592 59.999996,59.999996 0 0 0 3.94144,-1.11726 59.999996,59.999996 0 0 0 3.85624,-1.3839 59.999996,59.999996 0 0 0 3.75237,-1.64394 59.999996,59.999996 0 0 0 3.63227,-1.89578 59.999996,59.999996 0 0 0 3.49381,-2.13948 59.999996,59.999996 0 0 0 3.33959,-2.37297 59.999996,59.999996 0 0 0 3.17029,-2.59533 59.999996,59.999996 0 0 0 2.98562,-2.80543 59.999996,59.999996 0 0 0 2.78672,-3.00301 59.999996,59.999996 0 0 0 2.57613,-3.18595 59.999996,59.999996 0 0 0 2.35224,-3.35444 59.999996,59.999996 0 0 0 2.11801,-3.507 59.999996,59.999996 0 0 0 1.87352,-3.64309 59.999996,59.999996 0 0 0 1.62092,-3.76271 59.999996,59.999996 0 0 0 1.35993,-3.86465 59.999996,59.999996 0 0 0 1.09328,-3.94851 59.999996,59.999996 0 0 0 0.31287,-1.37143 59.999996,59.999996 0 0 0 0.28026,-1.37823 59.999996,59.999996 0 0 0 0.24827,-1.38464 59.999996,59.999996 0 0 0 0.21546,-1.38981 59.999996,59.999996 0 0 0 0.18316,-1.39511 59.999996,59.999996 0 0 0 0.15018,-1.39866 59.999996,59.999996 0 0 0 0.11732,-1.4017 59.999996,59.999996 0 0 0 0.0846,-1.40376 59.999996,59.999996 0 0 0 0.0515,-1.40567 59.999996,59.999996 0 0 0 0.0185,-1.4066 59.999996,59.999996 0 0 0 -0.0142,-1.40651 59.999996,59.999996 0 0 0 -0.0473,-1.40581 59.999996,59.999996 0 0 0 -0.0804,-1.40459 59.999996,59.999996 0 0 0 -0.11307,-1.40188 59.999996,59.999996 0 0 0 -0.14577,-1.39915 59.999996,59.999996 0 0 0 -0.17877,-1.3953 59.999996,59.999996 0 0 0 -0.21162,-1.39097 59.999996,59.999996 0 0 0 -0.24422,-1.38509 59.999996,59.999996 0 0 0 -0.27631,-1.37932 59.999996,59.999996 0 0 0 -0.3086,-1.37246 59.999996,59.999996 0 0 0 -0.34075,-1.36457 59.999996,59.999996 0 0 0 -0.37232,-1.35628 59.999996,59.999996 0 0 0 -0.40471,-1.34728 59.999996,59.999996 0 0 0 -0.43542,-1.337581 59.999996,59.999996 0 0 0 -0.467,-1.327168 59.999996,59.999996 0 0 0 -0.49828,-1.315242 59.999996,59.999996 0 0 0 -0.52855,-1.303524 59.999996,59.999996 0 0 0 -0.5591,-1.290689 59.999996,59.999996 0 0 0 -0.58955,-1.277349 59.999996,59.999996 0 0 0 -0.61878,-1.263204 59.999996,59.999996 0 0 0 -0.64839,-1.248464 59.999996,59.999996 0 0 0 -0.67779,-1.232706 59.999996,59.999996 0 0 0 -0.70598,-1.216147 59.999996,59.999996 0 0 0 -0.73478,-1.199988 59.999996,59.999996 0 0 0 -0.76212,-1.182025 59.999996,59.999996 0 0 0 -0.78997,-1.163954 59.999996,59.999996 0 0 0 -0.81712,-1.144975 59.999996,59.999996 0 0 0 -0.84365,-1.125602 59.999996,59.999996 0 0 0 -0.86994,-1.105218 59.999996,59.999996 0 0 0 -0.89575,-1.084942 59.999996,59.999996 0 0 0 -0.92022,-1.06336 59.999996,59.999996 0 0 0 -0.94571,-1.041567 59.999996,59.999996 0 0 0 -0.96946,-1.019084 59.999996,59.999996 0 0 0 -0.99309,-0.996099 59.999996,59.999996 0 0 0 -1.01612,-0.972712 59.999996,59.999996 0 0 0 -1.03895,-0.948313 59.999996,59.999996 0 0 0 -1.06074,-0.924133 59.999996,59.999996 0 0 0 -1.08183,-0.899047 59.999996,59.999996 0 0 0 -1.1032,-0.872843 59.999996,59.999996 0 0 0 -0.94326,-0.711895 59.999996,59.999996 0 0 0 -1.64224,-0.893514 c -0.14948,0.193369 -0.29839,0.377506 -0.44806,0.573886 -0.50442,0.66186 -1.00957,1.340863 -1.51593,2.037112 -0.50635,0.696249 -1.01405,1.410007 -1.52238,2.140976 -0.50833,0.730972 -1.0174,1.479111 -1.52772,2.24513 -0.5103,0.76602 -1.02193,1.549726 -1.53424,2.351122 -0.51232,0.801401 -1.02522,1.620807 -1.53955,2.457913 -0.51435,0.837108 -1.02999,1.691878 -1.54637,2.565022 -0.51638,0.873146 -1.0338,1.764536 -1.55224,2.674049 -0.51844,0.90951 -1.038,1.837475 -1.55853,2.783686 -0.52051,0.946207 -1.04207,1.910595 -1.5647,2.893829 -0.52261,0.983234 -1.04632,1.985007 -1.57105,3.005597 -0.52474,1.020586 -1.05034,2.060102 -1.5772,3.118377 -0.52686,1.058278 -1.05473,2.135476 -1.58375,3.231776 -0.52902,1.09629 -1.05937,2.21164 -1.59056,3.34627 -0.53119,1.13462 -1.0633,2.28839 -1.59668,3.46169 -0.53339,1.17331 -1.068,2.36602 -1.60358,3.57833 -0.5356,1.21231 -1.07246,2.44434 -1.61029,3.69598 -0.53781,1.25164 -1.07668,2.52335 -1.61675,3.81464 -0.54006,1.2913 -1.0809,2.60203 -1.62323,3.93331 -0.54233,1.33129 -1.08607,2.68321 -1.63068,4.05482 -0.54463,1.37161 -1.09032,2.76335 -1.63724,4.1756 -0.54692,1.41226 -1.094732,2.84478 -1.643972,4.29802 -0.549243,1.45323 -1.099921,2.92712 -1.651503,4.42166 -0.551571,1.49455 -1.104379,3.01002 -1.658315,4.54621 -0.553936,1.53618 -1.108705,3.09309 -1.665019,4.67124 -0.556316,1.57816 -1.114315,3.17719 -1.673022,4.79765 -0.558709,1.62044 -1.118572,3.26224 -1.679694,4.92531 -0.561122,1.66308 -1.123209,3.34759 -1.686766,5.05362 -0.563554,1.70603 -1.128117,3.43372 -1.694124,5.18303 -0.566006,1.74931 -1.133405,3.52014 -1.701883,5.31306 -0.225552,0.71137 -0.452098,1.43889 -0.678285,2.1602 z" />
    </g>
  </g>
</svg>
