<?xml version="1.0" encoding="UTF-8" standalone="no"?>
<!-- Created with Inkscape (http://www.inkscape.org/) -->

<svg
   width="120mm"
   height="120mm"
   viewBox="0 0 120 120"
   version="1.1"
   id="svg5"
   sodipodi:docname="logo.svg"
   inkscape:version="1.2.2 (b0a8486541, 2022-12-01)"
   xmlns:inkscape="http://www.inkscape.org/namespaces/inkscape"
   xmlns:sodipodi="http://sodipodi.sourceforge.net/DTD/sodipodi-0.dtd"
   xmlns:xlink="http://www.w3.org/1999/xlink"
   xmlns="http://www.w3.org/2000/svg"
   xmlns:svg="http://www.w3.org/2000/svg">
  <sodipodi:namedview
     id="namedview34"
     pagecolor="#ffffff"
     bordercolor="#111111"
     borderopacity="1"
     inkscape:showpageshadow="0"
     inkscape:pageopacity="0"
     inkscape:pagecheckerboard="1"
     inkscape:deskcolor="#d1d1d1"
     inkscape:document-units="mm"
     showgrid="false"
     inkscape:zoom="1.0406944"
     inkscape:cx="226.77165"
     inkscape:cy="233.01748"
     inkscape:window-width="1498"
     inkscape:window-height="2981"
     inkscape:window-x="0"
     inkscape:window-y="17"
     inkscape:window-maximized="1"
     inkscape:current-layer="g1899" />
  <defs
     id="defs2">
    <linearGradient
       id="linearGradient1770">
      <stop
         style="stop-color:#bbeb8d;stop-opacity:1;"
         offset="0"
         id="stop1766" />
      <stop
         style="stop-color:#55cae1;stop-opacity:1;"
         offset="1"
         id="stop1768" />
    </linearGradient>
    <linearGradient
       xlink:href="#linearGradient1770"
       id="linearGradient1772"
       x1="120"
       y1="160"
       x2="173.37653"
       y2="78.75"
       gradientUnits="userSpaceOnUse" />
    <clipPath
       clipPathUnits="userSpaceOnUse"
       id="clipPath1914">
      <circle
         style="fill:none;fill-opacity:1;stroke:#000000;stroke-width:0.0797441;stroke-opacity:1;-inkscape-stroke:none;stop-color:#000000"
         id="circle1916"
         cx="141"
         cy="121"
         r="37.3801" />
    </clipPath>
  </defs>
  <g
     id="layer1"
     transform="translate(-31.174347,-44.295388)">
    <g
       id="g1899"
       clip-path="url(#clipPath1914)"
       transform="matrix(1.6051321,0,0,1.6051321,-135.14928,-89.925597)">
      <g
         id="g644">
        <circle
           style="opacity:1;fill:url(#linearGradient1772);fill-opacity:1;stroke-width:0.0901333;-inkscape-stroke:none;stop-color:#000000"
           id="path790"
           cx="141"
           cy="121"
           r="42.25" />
        <path
           id="path1230"
           style="opacity:0.987395;fill:#e56f00;fill-opacity:0.639595;stroke-width:0.128;-inkscape-stroke:none;stop-color:#000000"
           d="m 38.561753,18.928245 c 0.270803,-0.05575 0.547426,-0.115471 0.82983,-0.178833 2.902079,-0.651137 5.069532,-1.405945 6.621493,-2.228823 0.562686,-0.189054 1.128117,-0.553886 1.691752,-1.116426 0.606528,-0.515216 1.016541,-1.048796 1.251242,-1.593687 0.947696,-1.479235 1.87839,-3.577883 2.76572,-6.4173376 0.887221,-2.8391081 1.317215,-5.093979 1.380499,-6.84952585 0.117432,-0.58169108 0.08397,-1.25402588 -0.121336,-2.02314395 -0.142914,-0.782701 -0.399535,-1.4044336 -0.75398,-1.8800803 -0.807196,-1.5603803 -2.159715,-3.4152667 -4.175163,-5.6035223 -2.01584,-2.188683 -3.75397,-3.689116 -5.243025,-4.621622 -0.444788,-0.391897 -1.042764,-0.698698 -1.810453,-0.905254 -0.749904,-0.267883 -1.417231,-0.356419 -2.006744,-0.287082 -1.754852,-0.08106 -4.037471,0.162729 -6.939965,0.813959 -2.902079,0.651137 -5.069532,1.405945 -6.621493,2.228822 -0.563115,0.189199 -1.129045,0.554445 -1.693106,1.117716 -0.605809,0.514872 -1.015356,1.0478983 -1.249888,1.5923976 -0.947696,1.4792344 -1.878391,3.5778824 -2.76572,6.4173374 -0.887222,2.83910816 -1.317215,5.093979 -1.380499,6.8495259 -0.117432,0.581691 -0.08397,1.2540259 0.121336,2.0231439 0.142914,0.782701 0.399535,1.4044336 0.753979,1.8800803 0.807197,1.5603803 2.159716,3.4152669 4.175163,5.6035219 2.016015,2.188872 3.754393,3.689364 5.243533,4.621852 0.444493,0.391514 1.042095,0.69807 1.808931,0.904565 0.749987,0.268053 1.417663,0.356505 2.007251,0.287312 1.584193,0.07324 3.597887,-0.117571 6.110643,-0.634896 z"
           transform="matrix(-0.73624263,-0.20014675,0.2255649,-0.95933237,165.75997,129.44539)"
           sodipodi:nodetypes="sscccscccscccscccscccscccs" />
        <path
           id="path1230-2"
           style="opacity:0.987395;fill:#e56f00;fill-opacity:0.639595;stroke-width:0.128;-inkscape-stroke:none;stop-color:#000000"
           d="m 27.133077,17.303166 c 0.526618,0.417239 1.025542,0.76954 1.500377,1.066973 0.444771,0.392214 1.043169,0.699459 1.811133,0.90617 0.749404,0.267738 1.416365,0.355976 2.005595,0.286939 1.755032,0.08125 4.038129,-0.16247 6.941379,-0.81387 2.903861,-0.651537 5.072406,-1.40645 6.624559,-2.229917 0.561754,-0.189422 1.126744,-0.553997 1.689433,-1.115705 0.606318,-0.51511 1.016102,-1.04856 1.250761,-1.593331 0.947679,-1.47923 1.877865,-3.577997 2.76518,-6.4174046 0.887326,-2.8394432 1.317742,-5.09444 1.380947,-6.85007557 0.117274,-0.5813258 0.08389,-1.25292711 -0.121121,-2.02141403 -0.142727,-0.7823572 -0.399656,-1.4036905 -0.753677,-1.8793489 -0.8071,-1.5607032 -2.159699,-3.41663 -4.175819,-5.605616 -2.015584,-2.1884049 -3.753758,-3.6883229 -5.242688,-4.6208549 -0.445027,-0.39226 -1.043299,-0.699538 -1.811729,-0.906168 -0.74879,-0.267361 -1.415269,-0.355643 -2.004112,-0.286712 -1.755059,-0.08128 -4.03802,0.162445 -6.94138,0.81387 -2.902934,0.651329 -5.071004,1.406521 -6.623057,2.229681 -0.562318,0.18926 -1.127982,0.553895 -1.691242,1.116173 -0.605883,0.514799 -1.015454,1.0479788 -1.250127,1.5924043 -0.94789,1.4792805 -1.878309,3.5783147 -2.765814,6.4183312 -0.887473,2.83991275 -1.317583,5.0950084 -1.380677,6.8507681 -0.117193,0.5817068 -0.08409,1.2539621 0.121356,2.0230312 0.143042,0.7824551 0.400346,1.4038858 0.75487,1.8793456 0.807245,1.5602166 2.159322,3.4151916 4.174428,5.6030776 1.372527,1.49021 2.616901,2.662694 3.741425,3.553653 z"
           transform="matrix(-0.54145348,0.53753145,-0.71802375,-0.67501112,161.05993,65.372234)"
           sodipodi:nodetypes="scccscccscccscccscccscccss" />
        <path
           id="path1230-1"
           style="opacity:0.987395;fill:#e56f00;fill-opacity:0.639595;stroke-width:0.128;-inkscape-stroke:none;stop-color:#000000"
           d="m 20.508757,-4.9075918 c -0.265672,0.7059863 -0.528209,1.4718132 -0.787193,2.3005624 -0.887179,2.83897159 -1.317078,5.0938561 -1.380395,6.8493669 -0.117506,0.5815974 -0.08439,1.2536226 0.120785,2.0226142 0.142818,0.782764 0.399675,1.4042972 0.754007,1.8800383 0.807147,1.5605463 2.159722,3.41591 4.175515,5.604541 2.015252,2.188044 3.752938,3.688005 5.241704,4.620572 0.444918,0.392416 1.043491,0.699549 1.811891,0.906296 0.749038,0.267556 1.415778,0.355851 2.004786,0.286933 1.755058,0.08128 4.038346,-0.16232 6.941704,-0.813744 2.903377,-0.651428 5.071698,-1.406501 6.623799,-2.229809 0.562073,-0.189345 1.127165,-0.554121 1.690176,-1.116168 0.606422,-0.51524 1.01643,-1.048826 1.251021,-1.593737 0.947573,-1.479206 1.877958,-3.577689 2.765177,-6.4167882 0.887247,-2.8391911 1.317252,-5.0941141 1.380517,-6.84968295 0.117368,-0.58146519 0.08407,-1.25324379 -0.121029,-2.02198215 C 52.8384,-2.261363 52.581561,-2.8828718 52.227214,-3.3586175 51.420068,-4.9191639 50.067493,-6.7745271 48.0517,-8.9631583 46.03627,-11.151395 44.298566,-12.651581 42.809713,-13.58413 c -0.445329,-0.392656 -1.044604,-0.70002 -1.813912,-0.906713 -0.74829,-0.266989 -1.414372,-0.355133 -2.002886,-0.2862 -1.754988,-0.0812 -4.038238,0.162469 -6.941301,0.813827 -2.903377,0.651428 -5.071697,1.406502 -6.623799,2.229809 -0.562073,0.189346 -1.127164,0.554122 -1.690176,1.116169 -0.606421,0.515239 -1.016307,1.0485097 -1.250899,1.5934208 -0.670971,1.0474168 -1.333525,2.403669 -1.977983,4.1162254 z"
           transform="matrix(0.19478915,0.73767819,-0.94358865,0.28432125,103.22093,74.447687)"
           sodipodi:nodetypes="sscccscccscccscccscccscccs" />
        <path
           id="path1230-2-4"
           style="opacity:0.987395;fill:#e56f00;fill-opacity:0.639595;stroke-width:0.128;-inkscape-stroke:none;stop-color:#000000"
           d="m 20.508802,-4.9075825 c -0.265672,0.7059863 -0.528209,1.4718132 -0.787193,2.3005624 -0.887179,2.83897159 -1.317078,5.0938561 -1.380395,6.8493669 -0.117506,0.5815974 -0.08439,1.2536226 0.120785,2.0226142 0.142822,0.7827837 0.399661,1.4042926 0.754007,1.8800383 0.807147,1.5605463 2.159722,3.4159097 4.175515,5.6045407 2.015252,2.188044 3.752938,3.688005 5.241704,4.620572 0.444918,0.392416 1.043491,0.699549 1.811891,0.906296 0.749202,0.267614 1.416088,0.356018 2.00519,0.287017 1.754988,0.0812 4.038238,-0.16247 6.9413,-0.813827 2.903378,-0.651429 5.071698,-1.406502 6.623799,-2.229809 0.562073,-0.189346 1.127165,-0.554122 1.690176,-1.116169 0.606422,-0.515239 1.01643,-1.048826 1.251022,-1.593737 0.947572,-1.479205 1.877957,-3.577689 2.765176,-6.4167879 0.887247,-2.8391911 1.317252,-5.0941141 1.380517,-6.84968295 0.117368,-0.5814652 0.08407,-1.25324379 -0.121029,-2.02198215 -0.142818,-0.7827639 -0.399675,-1.4042972 -0.754008,-1.8800382 -0.807146,-1.5605464 -2.159721,-3.4159096 -4.175514,-5.6045408 -2.015138,-2.18792 -3.752994,-3.687993 -5.241705,-4.620572 -0.445368,-0.392814 -1.044671,-0.700361 -1.814194,-0.907113 -0.748126,-0.26693 -1.414062,-0.354966 -2.002482,-0.286116 -1.755058,-0.08128 -4.038347,0.162319 -6.941705,0.813743 -2.903377,0.651429 -5.071697,1.406502 -6.623799,2.229809 -0.562072,0.189346 -1.127164,0.554122 -1.690175,1.116169 -0.606422,0.515239 -1.016308,1.04851 -1.2509,1.5934211 -0.670971,1.0474168 -1.333525,2.403669 -1.977983,4.1162254 z"
           transform="matrix(0.19478915,0.73767819,-0.94358865,0.28432125,103.22093,111.48936)"
           sodipodi:nodetypes="sscccscccscccscccscccscccs" />
        <path
           id="path1230-1-7"
           style="opacity:0.987395;fill:#e56f00;fill-opacity:0.639595;stroke-width:0.128;-inkscape-stroke:none;stop-color:#000000"
           d="m 20.508793,-4.9074741 c -0.265672,0.7059863 -0.528209,1.4718132 -0.787193,2.3005624 -0.887232,2.83914344 -1.317241,5.0941267 -1.380517,6.8496829 -0.117418,0.5817107 -0.08439,1.2541849 0.120946,2.0233298 0.142983,0.7828471 0.400207,1.4045561 0.754816,1.8802052 0.807236,1.5602469 2.159498,3.4153878 4.174667,5.6033418 2.015294,2.18809 3.752918,3.68801 5.241705,4.620572 0.444905,0.392368 1.043557,0.699568 1.811891,0.906297 0.749822,0.267835 1.417184,0.355953 2.006646,0.286635 1.754809,0.08101 4.037528,-0.162256 6.939844,-0.813446 2.902435,-0.651217 5.070343,-1.406432 6.622342,-2.229427 0.56251,-0.189208 1.128178,-0.554074 1.691633,-1.116551 0.606452,-0.515254 1.016422,-1.048809 1.251021,-1.593737 0.947572,-1.479205 1.877958,-3.577688 2.765176,-6.4167875 0.887233,-2.8391434 1.317241,-5.0941267 1.380517,-6.84968295 0.117379,-0.58151869 0.08425,-1.25347122 -0.120907,-2.02229815 -0.142755,-0.7822221 -0.399842,-1.4037362 -0.753847,-1.8793227 -0.807116,-1.5606482 -2.15967,-3.4163948 -4.175675,-5.6052564 -2.015138,-2.1879203 -3.753116,-3.6876773 -5.241826,-4.6202553 -0.444918,-0.392417 -1.043369,-0.699866 -1.81177,-0.906613 -0.749594,-0.267754 -1.41679,-0.356069 -2.006119,-0.286867 -1.75493,-0.08114 -4.03755,0.162374 -6.94037,0.813678 -2.902436,0.651217 -5.070343,1.406431 -6.622343,2.229427 -0.562257,0.189123 -1.127782,0.553956 -1.690984,1.116002 -0.606805,0.515422 -1.016988,1.0491658 -1.25167,1.5942855 -0.67097,1.0474168 -1.333525,2.403669 -1.977983,4.1162254 z"
           transform="matrix(0.19478915,0.73767819,-0.94358865,0.28432125,135.29996,130.01019)"
           sodipodi:nodetypes="sscccscccscccscccscccscccs" />
        <path
           id="path1230-2-4-5"
           style="opacity:0.987395;fill:#e56f00;fill-opacity:0.639595;stroke-width:0.128;-inkscape-stroke:none;stop-color:#000000"
           d="m 27.133225,17.303199 c 0.526829,0.417406 1.025661,0.769697 1.500666,1.067203 0.444999,0.392309 1.0433,0.699505 1.81173,0.906169 0.74907,0.267508 1.415694,0.355722 2.004709,0.28671 1.75501,0.08123 4.037914,-0.162259 6.941072,-0.813638 2.902505,-0.651232 5.070435,-1.406199 6.622442,-2.229217 0.562039,-0.189017 1.127024,-0.553608 1.690011,-1.115245 0.606826,-0.51525 1.017078,-1.048858 1.251973,-1.593796 0.94789,-1.479281 1.878309,-3.578315 2.765814,-6.4183315 0.887472,-2.8399127 1.317583,-5.0950084 1.380677,-6.85076814 0.117168,-0.58158289 0.08396,-1.25370494 -0.121374,-2.02256886 -0.143033,-0.7827028 -0.399926,-1.4044812 -0.754545,-1.8800399 -0.807247,-1.5602092 -2.159644,-3.4149769 -4.174735,-5.6028457 -2.015245,-2.1880359 -3.753039,-3.6880589 -5.241802,-4.6206259 -0.444626,-0.392159 -1.042574,-0.699198 -1.810247,-0.905941 -0.750364,-0.268228 -1.418149,-0.356728 -2.007963,-0.287395 -1.754833,-0.08104 -4.037776,0.162655 -6.940187,0.813867 -2.902724,0.651282 -5.070411,1.406126 -6.622442,2.229217 -0.562433,0.189229 -1.127883,0.554238 -1.69126,1.116635 -0.6061,0.514926 -1.015736,1.0480687 -1.250435,1.5926363 -0.947805,1.4792604 -1.878367,3.5780986 -2.765795,6.417869 -0.887495,2.83998346 -1.317619,5.095452 -1.380695,6.8512304 -0.117113,0.5813876 -0.08403,1.2528786 0.121121,2.021414 0.142761,0.7819135 0.399835,1.4029571 0.753714,1.8784244 0.8071,1.5607031 2.159699,3.4166299 4.175819,5.6056159 1.372526,1.49021 2.617208,2.662462 3.741732,3.553421 z"
           transform="matrix(-0.54145348,0.53753145,-0.71802375,-0.67501112,193.13896,120.93474)"
           sodipodi:nodetypes="scccscccscccscccscccscccss" />
        <path
           id="path1230-1-7-0"
           style="opacity:0.987395;fill:#e56f00;fill-opacity:0.639595;stroke-width:0.128;-inkscape-stroke:none;stop-color:#000000"
           d="m 27.133192,17.303224 c 0.526829,0.417407 1.025661,0.769697 1.500666,1.067204 0.444569,0.391929 1.04231,0.698821 1.809668,0.90548 0.749883,0.268066 1.417233,0.356471 2.00677,0.287398 1.755011,0.08123 4.037915,-0.162259 6.941073,-0.813638 2.902504,-0.651232 5.070434,-1.406199 6.622442,-2.229217 0.561954,-0.188988 1.1268,-0.55352 1.689703,-1.115013 0.607382,-0.515618 1.018007,-1.049605 1.252915,-1.594954 0.947679,-1.479231 1.877865,-3.577998 2.765179,-6.4174054 0.887473,-2.8399127 1.317584,-5.0950084 1.380677,-6.85076812 0.117169,-0.58158289 0.08396,-1.25370494 -0.121374,-2.02256888 -0.143032,-0.7827028 -0.399925,-1.4044812 -0.754544,-1.8800398 -0.807247,-1.5602093 -2.159645,-3.414977 -4.174735,-5.6028457 -2.015544,-2.1883601 -3.753472,-3.6885501 -5.242381,-4.6210871 -0.444998,-0.392308 -1.0433,-0.699504 -1.811729,-0.906168 -0.749306,-0.267582 -1.416157,-0.355854 -2.005306,-0.286709 -1.754901,-0.08111 -4.037777,0.162361 -6.940475,0.813637 -2.902725,0.651282 -5.070719,1.406358 -6.62275,2.229449 -0.562433,0.189229 -1.127883,0.554238 -1.69126,1.116635 -0.605891,0.514761 -1.015386,1.047557 -1.250109,1.5919422 -0.947953,1.4792954 -1.878559,3.5783652 -2.766121,6.4185632 -0.887484,2.83994842 -1.317303,5.0952293 -1.380388,6.8509985 -0.117238,0.5819668 -0.08438,1.2544579 0.121319,2.0239556 0.142996,0.7815765 0.399962,1.4025639 0.754039,1.8777302 0.807206,1.5603489 2.159914,3.4155843 4.175296,5.6037683 1.372527,1.49021 2.616901,2.662695 3.741425,3.553653 z"
           transform="matrix(-0.54145348,0.53753145,-0.71802375,-0.67501112,193.13896,83.893066)"
           sodipodi:nodetypes="scccscccscccscccscccscccss" />
        <path
           id="path1230-6"
           style="opacity:0.987395;fill:#e50049;fill-opacity:0.639595;stroke-width:0.128;-inkscape-stroke:none;stop-color:#000000"
           d="m 27.133108,17.303142 c 0.526863,0.417433 1.025924,0.769916 1.500956,1.067434 0.445143,0.392363 1.043895,0.699765 1.812615,0.906397 0.748455,0.267132 1.414599,0.355389 2.003226,0.286483 1.755059,0.08128 4.03802,-0.162445 6.94138,-0.81387 2.903861,-0.651537 5.072713,-1.406681 6.624866,-2.230149 0.561754,-0.189422 1.126744,-0.553997 1.689433,-1.115704 0.606005,-0.514858 1.015425,-1.047913 1.250128,-1.592405 0.94789,-1.479281 1.878308,-3.578315 2.765813,-6.4183313 0.887394,-2.8396605 1.317505,-5.0946128 1.380659,-6.85030584 0.117291,-0.5818017 0.08416,-1.25424241 -0.121338,-2.02349336 -0.142962,-0.7820196 -0.399783,-1.4032978 -0.754002,-1.8786548 -0.807206,-1.5603489 -2.159914,-3.4155839 -4.175296,-5.6037685 -2.015584,-2.1884052 -3.753451,-3.6885542 -5.24238,-4.6210862 -0.444598,-0.391882 -1.042308,-0.698856 -1.809669,-0.905481 -0.749602,-0.267919 -1.416807,-0.356392 -2.006173,-0.2874 -1.755059,-0.08128 -4.038019,0.162446 -6.94138,0.81387 -2.902934,0.651329 -5.071003,1.406521 -6.623057,2.229682 -0.562318,0.18926 -1.127981,0.553894 -1.691241,1.116172 -0.606283,0.515093 -1.016112,1.0485795 -1.250762,1.5933308 -0.947679,1.4792305 -1.877865,3.5779977 -2.765179,6.417405 -0.887473,2.83991277 -1.317584,5.0950084 -1.380677,6.8507682 -0.117193,0.5817067 -0.08409,1.253962 0.121355,2.0230311 0.143042,0.7824552 0.400346,1.4038858 0.75487,1.8793456 0.807246,1.5602167 2.159322,3.4151923 4.174428,5.6030773 1.372527,1.49021 2.616902,2.662695 3.741425,3.553653 z"
           transform="matrix(-0.54145348,0.53753145,-0.71802375,-0.67501112,161.05993,102.41391)"
           sodipodi:nodetypes="scccscccscccscccscccscccss" />
        <path
           id="path1230-2-5"
           style="opacity:0.987395;fill:#e50049;fill-opacity:0.639595;stroke-width:0.128;-inkscape-stroke:none;stop-color:#000000"
           d="m 20.508702,-4.907493 c -0.265672,0.7059864 -0.528209,1.4718133 -0.787193,2.3005624 -0.887233,2.83914349 -1.317241,5.0941267 -1.380517,6.849683 -0.117418,0.5817106 -0.08439,1.2541849 0.120945,2.0233298 0.142942,0.7826149 0.400088,1.4042113 0.754534,1.8798056 0.80721,1.5603349 2.159597,3.4155892 4.17495,5.6037422 2.015002,2.187772 3.752778,3.687579 5.241422,4.620172 0.444944,0.392525 1.043624,0.699909 1.812173,0.906696 0.749822,0.267836 1.417185,0.355953 2.006646,0.286635 1.754825,0.08103 4.037465,-0.162241 6.939844,-0.813446 2.902436,-0.651217 5.070343,-1.406431 6.622343,-2.229427 0.56251,-0.189208 1.128178,-0.554074 1.691632,-1.11655 0.606453,-0.515255 1.016422,-1.048809 1.251022,-1.593738 0.947572,-1.479205 1.877957,-3.577688 2.765176,-6.4167873 0.887232,-2.8391435 1.317241,-5.0941268 1.380517,-6.84968301 0.117379,-0.58151869 0.08425,-1.25347121 -0.120907,-2.02229819 -0.142949,-0.7832857 -0.400105,-1.4053991 -0.754855,-1.8812367 -0.807236,-1.560247 -2.159498,-3.4153882 -4.174667,-5.6033423 -2.015431,-2.1882365 -3.753256,-3.6881075 -5.242109,-4.6206555 -0.444879,-0.392259 -1.043302,-0.699524 -1.811487,-0.906213 -0.749822,-0.267835 -1.417184,-0.355953 -2.006646,-0.286635 -1.754809,-0.08101 -4.037528,0.162256 -6.939844,0.813446 -2.902435,0.651217 -5.070343,1.406432 -6.622342,2.229427 -0.562257,0.189123 -1.127782,0.553957 -1.690985,1.116002 -0.606805,0.515422 -1.016987,1.0491659 -1.251669,1.5942856 -0.670971,1.0474168 -1.333525,2.403669 -1.977983,4.1162254 z"
           transform="matrix(0.19478915,0.73767819,-0.94358865,0.28432125,135.29996,55.926845)"
           sodipodi:nodetypes="sscccscccscccscccscccscccs" />
        <path
           id="path1230-1-6"
           style="opacity:0.987395;fill:#e50049;fill-opacity:0.639595;stroke-width:0.128;-inkscape-stroke:none;stop-color:#000000"
           d="m 32.881618,-14.142005 c -0.270804,0.05575 -0.547427,0.115471 -0.82983,0.178834 -2.902289,0.651184 -5.070332,1.406047 -6.622316,2.228994 -0.562985,0.189312 -1.129081,0.554807 -1.693009,1.118031 -0.605414,0.514628 -1.014757,1.0473689 -1.249259,1.5915952 -0.94779,1.4792568 -1.878209,3.5779262 -2.765624,6.4176529 -0.887275,2.83928082 -1.317159,5.0942486 -1.380402,6.8498412 -0.117472,0.5819213 -0.08441,1.2543631 0.121118,2.0238606 0.14287,0.7818047 0.39982,1.4027563 0.753811,1.8781019 0.807141,1.560564 2.159623,3.4157972 4.175453,5.6044692 2.016014,2.188871 3.754393,3.689364 5.243533,4.621851 0.444868,0.391845 1.042683,0.698755 1.810453,0.905254 0.74949,0.267665 1.41647,0.355841 2.005729,0.286623 1.754885,0.08109 4.037429,-0.162382 6.940061,-0.813643 2.902289,-0.651184 5.070332,-1.406047 6.622316,-2.228994 0.562502,-0.18915 1.128303,-0.554026 1.691752,-1.116426 0.606365,-0.515139 1.016168,-1.0488 1.25083,-1.593602 0.947696,-1.479234 1.87798,-3.577796 2.76531,-6.4172515 0.887271,-2.8392684 1.317156,-5.094252 1.380402,-6.84984127 0.117222,-0.58091587 0.08423,-1.25217203 -0.12037,-2.01998963 -0.142954,-0.7848556 -0.400303,-1.4079942 -0.755743,-1.8844106 -0.807292,-1.560059 -2.15908,-3.4145877 -4.173858,-5.6021167 -2.014744,-2.1874923 -3.752599,-3.6870523 -5.241116,-4.6196713 -0.44502,-0.392789 -1.043846,-0.700239 -1.812774,-0.907119 -0.749535,-0.267743 -1.416528,-0.356098 -2.005825,-0.286938 -1.584192,-0.07324 -3.597887,0.117571 -6.110642,0.634895 z"
           transform="matrix(0.73624263,0.20014674,-0.2255649,0.95933237,82.160997,92.033782)"
           sodipodi:nodetypes="sccccscccscccscccscccscccs" />
        <path
           id="path1230-2-4-9"
           style="opacity:0.987395;fill:#e50049;fill-opacity:0.639595;stroke-width:0.128;-inkscape-stroke:none;stop-color:#000000"
           d="m 32.881627,-14.141974 c -0.270803,0.05575 -0.547427,0.115471 -0.82983,0.178833 -2.902288,0.651184 -5.070332,1.406047 -6.622316,2.228994 -0.562502,0.189149 -1.128303,0.554026 -1.691752,1.116426 -0.606216,0.515012 -1.015825,1.0485371 -1.250516,1.5932005 -0.94779,1.4792567 -1.878209,3.5779262 -2.765624,6.4176528 -0.887113,2.83876267 -1.317325,5.0934395 -1.380692,6.848895 -0.117628,0.5820712 -0.0842,1.2550218 0.121409,2.0248068 0.142869,0.7818048 0.399819,1.4027563 0.75381,1.8781019 0.807142,1.5605641 2.159623,3.415797 4.175453,5.604469 2.015483,2.188294 3.753445,3.688218 5.242324,4.620761 0.444996,0.392358 1.043191,0.699656 1.811662,0.906345 0.749491,0.267665 1.41647,0.35584 2.005729,0.286622 1.754885,0.08109 4.037429,-0.162382 6.940061,-0.813643 2.902289,-0.651184 5.070332,-1.406047 6.622316,-2.228994 0.562985,-0.189312 1.129081,-0.554807 1.693009,-1.118031 0.605563,-0.514754 1.015099,-1.047631 1.249574,-1.591997 0.947695,-1.479234 1.877979,-3.577796 2.765309,-6.4172513 0.887393,-2.8396583 1.317466,-5.0948654 1.38062,-6.85055784 0.11711,-0.58080815 0.08396,-1.25166162 -0.120588,-2.01927306 -0.142954,-0.7848555 -0.400302,-1.4079942 -0.755743,-1.8844105 -0.807292,-1.560059 -2.15908,-3.4145878 -4.173858,-5.6021168 -2.015275,-2.1880695 -3.753546,-3.6881975 -5.242324,-4.6207615 -0.444894,-0.392276 -1.043339,-0.699338 -1.811565,-0.906029 -0.749535,-0.267742 -1.416528,-0.356097 -2.005826,-0.286938 -1.584192,-0.07324 -3.597887,0.117571 -6.110642,0.634896 z"
           transform="matrix(0.73624263,0.20014674,-0.2255649,0.95933237,82.160997,129.07546)"
           sodipodi:nodetypes="sscccscccscccscccscccscccs" />
        <path
           id="path1230-1-7-3"
           style="opacity:0.987395;fill:#e50049;fill-opacity:0.639595;stroke-width:0.128;-inkscape-stroke:none;stop-color:#000000"
           d="m 32.881498,-14.141922 c -0.270804,0.05575 -0.547427,0.115471 -0.82983,0.178834 -2.903049,0.651354 -5.070975,1.406282 -6.623041,2.229481 -0.562162,0.189205 -1.1271,0.553756 -1.690205,1.115767 -0.606271,0.514998 -1.016274,1.0483202 -1.251024,1.5929707 -0.947826,1.4792654 -1.87849,3.5782218 -2.765938,6.418054 -0.887221,2.83910816 -1.317214,5.0939789 -1.380499,6.8495259 -0.117432,0.581691 -0.08397,1.2540259 0.121337,2.0231439 0.142913,0.782701 0.399535,1.4044336 0.753979,1.8800803 0.807196,1.5603803 2.159716,3.4152672 4.175163,5.6035222 2.015482,2.188294 3.753445,3.688219 5.242324,4.620762 0.444877,0.392253 1.042978,0.699427 1.811154,0.906114 0.749904,0.267883 1.417232,0.356419 2.006744,0.287082 1.754852,0.08106 4.037472,-0.162728 6.939965,-0.813958 2.90208,-0.651138 5.069533,-1.405945 6.621494,-2.228823 0.563114,-0.189199 1.129044,-0.554445 1.693106,-1.117715 0.605809,-0.514873 1.015355,-1.047899 1.249887,-1.592398 0.947696,-1.479235 1.878391,-3.577883 2.765721,-6.4173376 0.887397,-2.8396707 1.317469,-5.0948621 1.38062,-6.85055786 0.117261,-0.58152724 0.08377,-1.25330775 -0.121458,-2.02211194 -0.142913,-0.782701 -0.399535,-1.4044336 -0.753979,-1.8800802 -0.807196,-1.5603804 -2.159812,-3.4155822 -4.17526,-5.6038379 -2.016014,-2.1888715 -3.754296,-3.6890485 -5.243436,-4.6215365 -0.444587,-0.391598 -1.042366,-0.698298 -1.809438,-0.904795 -0.749969,-0.267976 -1.417687,-0.356589 -2.007251,-0.287311 -1.584111,-0.07317 -3.597666,0.11786 -6.110135,0.635125 z"
           transform="matrix(0.73624263,0.20014674,-0.2255649,0.95933237,114.24003,147.59629)"
           sodipodi:nodetypes="sscccscccscccscccscccscccs" />
        <path
           id="path1230-2-4-5-7"
           style="opacity:0.987395;fill:#e50049;fill-opacity:0.639595;stroke-width:0.128;-inkscape-stroke:none;stop-color:#000000"
           d="m 20.508858,-4.9076919 c -0.265673,0.7059864 -0.528331,1.4721293 -0.787316,2.3008785 -0.887247,2.83919118 -1.317251,5.0941141 -1.380516,6.849683 -0.117369,0.5814651 -0.08408,1.2532438 0.121028,2.0219821 0.142978,0.7836347 0.400073,1.406006 0.755016,1.8819523 0.807267,1.5601453 2.159549,3.414902 4.174507,5.602627 2.01543,2.188237 3.753133,3.688423 5.241986,4.620971 0.444879,0.392259 1.043303,0.699524 1.811487,0.906213 0.75015,0.267953 1.417803,0.356288 2.007455,0.286802 1.754702,0.0809 4.03729,-0.162839 6.939157,-0.813929 2.903377,-0.651428 5.071698,-1.406501 6.623799,-2.229809 0.562073,-0.189345 1.127165,-0.554121 1.690176,-1.116168 0.606421,-0.51524 1.016308,-1.04851 1.250899,-1.593421 0.947573,-1.479206 1.877958,-3.577689 2.765177,-6.4167881 0.887178,-2.8389716 1.317078,-5.0938562 1.380395,-6.84936698 0.117555,-0.5818428 0.08458,-1.2542476 -0.120824,-2.02364582 -0.142941,-0.7826149 -0.400087,-1.4042114 -0.754534,-1.8798057 -0.80721,-1.5603349 -2.159597,-3.4155887 -4.17495,-5.6037417 -2.01562,-2.1884437 -3.753848,-3.6886097 -5.242795,-4.6211387 -0.444818,-0.392014 -1.04295,-0.699131 -1.8108,-0.90573 -0.749594,-0.267754 -1.41679,-0.356069 -2.00612,-0.286867 -1.75493,-0.08114 -4.03755,0.162375 -6.94037,0.813678 -2.903377,0.651428 -5.071698,1.406502 -6.623799,2.229809 -0.562073,0.189346 -1.127164,0.554121 -1.690176,1.116169 -0.606421,0.515239 -1.016429,1.0488257 -1.251021,1.5937368 -0.670971,1.0474168 -1.333403,2.4033529 -1.977861,4.1159093 z"
           transform="matrix(0.19478915,0.73767819,-0.94358865,0.28432125,167.37899,111.48935)"
           sodipodi:nodetypes="sscccscccscccscccscccscccs" />
        <path
           id="path1230-1-7-0-4"
           style="opacity:0.987395;fill:#e50049;fill-opacity:0.639595;stroke-width:0.128;-inkscape-stroke:none;stop-color:#000000"
           d="m 20.508812,-4.9077012 c -0.265672,0.7059864 -0.52833,1.4721293 -0.787315,2.3008785 -0.887247,2.83919118 -1.317251,5.0941141 -1.380516,6.849683 -0.117369,0.5814651 -0.08408,1.2532438 0.121028,2.0219821 0.142935,0.7834027 0.399953,1.4056611 0.754733,1.8815528 0.807241,1.5602332 2.159649,3.4151028 4.17479,5.6030258 2.01543,2.188237 3.753133,3.688423 5.241986,4.620972 0.444879,0.392259 1.043302,0.699524 1.811487,0.906213 0.749986,0.267894 1.417494,0.35612 2.00705,0.286718 1.754773,0.08097 4.037401,-0.16269 6.939562,-0.813845 2.903377,-0.651428 5.071698,-1.406502 6.623799,-2.229809 0.562073,-0.189346 1.127164,-0.554121 1.690176,-1.116169 0.606421,-0.515239 1.016308,-1.04851 1.250899,-1.593421 0.947573,-1.479205 1.877958,-3.577688 2.765177,-6.4167874 0.887178,-2.8389716 1.317078,-5.0938562 1.380395,-6.84936698 0.117555,-0.5818428 0.08458,-1.25424759 -0.120824,-2.02364582 -0.142941,-0.7826149 -0.400087,-1.4042114 -0.754534,-1.8798056 -0.80721,-1.560335 -2.159597,-3.4155888 -4.17495,-5.6037418 -2.015912,-2.1887604 -3.753988,-3.6890394 -5.243077,-4.6215374 -0.444779,-0.391857 -1.042884,-0.69879 -1.810518,-0.905331 -0.749822,-0.267836 -1.417184,-0.355953 -2.006646,-0.286635 -1.754809,-0.08101 -4.037528,0.162256 -6.939844,0.813446 -2.903377,0.651428 -5.071698,1.406502 -6.623799,2.229809 -0.562073,0.189346 -1.127164,0.554121 -1.690176,1.116168 -0.606421,0.51524 -1.016429,1.0488264 -1.251021,1.5937375 -0.670971,1.0474168 -1.333403,2.4033529 -1.977862,4.1159093 z"
           transform="matrix(0.19478915,0.73767819,-0.94358865,0.28432125,167.37899,74.447677)"
           sodipodi:nodetypes="sscccscccscccscccscccscccs" />
        <path
           id="path1230-6-5"
           style="opacity:0.987395;fill:#fffe67;fill-opacity:0.639595;stroke-width:0.128;-inkscape-stroke:none;stop-color:#000000"
           d="m 20.508743,-4.9074845 c -0.265672,0.7059864 -0.528209,1.4718133 -0.787193,2.3005624 -0.887232,2.83914351 -1.317241,5.0941267 -1.380517,6.849683 -0.117418,0.5817106 -0.08439,1.2541849 0.120946,2.0233298 0.142983,0.7828471 0.400207,1.4045561 0.754816,1.8802051 0.807236,1.560247 2.159498,3.4153882 4.174667,5.6033422 2.015294,2.188089 3.752918,3.68801 5.241705,4.620572 0.444905,0.392368 1.043557,0.699567 1.811891,0.906296 0.749822,0.267836 1.417184,0.355954 2.006646,0.286635 1.754809,0.08101 4.037528,-0.162255 6.939843,-0.813445 2.902436,-0.651217 5.070344,-1.406432 6.622343,-2.229427 0.56251,-0.189209 1.128178,-0.554074 1.691632,-1.116551 0.606453,-0.515254 1.016423,-1.048809 1.251022,-1.593737 0.947572,-1.479205 1.877958,-3.577689 2.765176,-6.4167878 0.887233,-2.8391435 1.317241,-5.0941267 1.380517,-6.84968299 0.117379,-0.58151869 0.08425,-1.25347121 -0.120907,-2.02229821 -0.142907,-0.7830535 -0.399985,-1.4050543 -0.754572,-1.8808372 -0.80721,-1.560335 -2.159598,-3.4155888 -4.17495,-5.6037418 -2.01543,-2.188237 -3.753255,-3.688107 -5.242109,-4.620655 -0.444878,-0.392259 -1.043302,-0.699524 -1.811487,-0.906213 -0.749822,-0.267836 -1.417184,-0.355954 -2.006646,-0.286635 -1.754824,-0.08103 -4.037464,0.162241 -6.939843,0.813445 -2.902436,0.651217 -5.070343,1.406432 -6.622343,2.229428 -0.562257,0.189123 -1.127782,0.553956 -1.690984,1.116001 -0.606805,0.515423 -1.016988,1.0491664 -1.25167,1.5942861 -0.670971,1.0474168 -1.333525,2.403669 -1.977983,4.1162254 z"
           transform="matrix(0.19478915,0.73767819,-0.94358865,0.28432125,135.29996,92.968521)"
           sodipodi:nodetypes="sscccscccscccscccscccscccs" />
        <path
           id="path1230-2-5-2"
           style="opacity:0.987395;fill:#fffe67;fill-opacity:0.639595;stroke-width:0.128;-inkscape-stroke:none;stop-color:#000000"
           d="M 32.881477 -14.141988 C 32.610675 -14.086238 32.334051 -14.026517 32.051647 -13.963155 C 29.149571 -13.312018 26.982113 -12.557209 25.430154 -11.734332 C 24.86704 -11.545134 24.301108 -11.179887 23.737048 -10.616617 C 23.131239 -10.101745 22.721693 -9.5687179 22.48716 -9.024219 C 21.539465 -7.5449861 20.608769 -5.4463338 19.72144 -2.6068816 C 18.834044 0.23278627 18.403971 2.4879823 18.34082 4.2436762 C 18.223558 4.825203 18.25705 5.4969847 18.462277 6.2657882 C 18.605191 7.0484884 18.861812 7.6702222 19.216257 8.1458684 C 20.023452 9.7062471 21.376071 11.561453 23.391516 13.749706 C 25.407528 15.938576 27.145815 17.438755 28.634952 18.371243 C 29.079702 18.762982 29.677424 19.069769 30.444898 19.276267 C 31.19497 19.54421 31.862443 19.632686 32.452053 19.563263 C 34.20685 19.644263 36.489338 19.400571 39.391607 18.74939 C 42.294653 18.098036 44.462583 17.343107 46.014648 16.519909 C 46.576809 16.330703 47.141748 15.966151 47.704852 15.404142 C 48.311123 14.889144 48.721128 14.355822 48.955876 13.811171 C 49.903702 12.331908 50.834368 10.232946 51.721814 7.393117 C 52.609036 4.5540119 53.039029 2.2991363 53.102313 0.54359122 C 53.219745 -0.038099278 53.186283 -0.71043547 52.980977 -1.4795527 C 52.838063 -2.262253 52.581441 -2.8839868 52.226998 -3.359633 C 51.419802 -4.9200117 50.06728 -6.7749019 48.051835 -8.9631554 C 46.036354 -11.151447 44.298389 -12.651375 42.80951 -13.583917 C 42.364891 -13.975944 41.766907 -14.282888 40.999372 -14.489572 C 40.249384 -14.757625 39.581707 -14.846077 38.99212 -14.776884 C 37.407928 -14.850124 35.394231 -14.659313 32.881477 -14.141988 z "
           transform="matrix(0.73624263,0.20014674,-0.2255649,0.95933237,114.24003,73.51294)" />
        <path
           id="path1230-1-6-5"
           style="opacity:0.987395;fill:#fffe67;fill-opacity:0.639595;stroke-width:0.128;-inkscape-stroke:none;stop-color:#000000"
           d="m 44.310252,-12.516794 c -0.526585,-0.417212 -1.025569,-0.769551 -1.500377,-1.066973 -0.444626,-0.392159 -1.042574,-0.699197 -1.810247,-0.905941 -0.750117,-0.268139 -1.417695,-0.356603 -2.007367,-0.287396 -1.754901,-0.08111 -4.037776,0.16236 -6.940475,0.813636 -2.902505,0.651233 -5.070435,1.406199 -6.622442,2.229218 -0.562561,0.189191 -1.128062,0.55434 -1.691568,1.116866 -0.6061,0.514926 -1.015736,1.048069 -1.250435,1.5926367 -0.947805,1.4792603 -1.878367,3.5780985 -2.765795,6.4178689 -0.887732,2.8407406 -1.317854,5.0966387 -1.380751,6.8526172 -0.116856,0.581599 -0.08383,1.253544 0.121682,2.0223369 0.142881,0.7809446 0.399864,1.4013283 0.753498,1.876345 0.807117,1.5606452 2.159549,3.4160683 4.175548,5.6049233 2.015543,2.18836 3.753471,3.68855 5.24238,4.621087 0.444999,0.392308 1.0433,0.699504 1.81173,0.906168 0.749532,0.267663 1.416622,0.355969 2.005902,0.286707 1.754822,0.08103 4.037511,-0.162433 6.939879,-0.813635 2.902505,-0.651232 5.070435,-1.406199 6.622442,-2.229217 0.562039,-0.189016 1.127023,-0.553608 1.690011,-1.115244 0.606826,-0.51525 1.017078,-1.048858 1.251973,-1.593797 0.94789,-1.47928 1.878308,-3.578315 2.765814,-6.4183312 0.887168,-2.8389393 1.316989,-5.0936471 1.380314,-6.84914934 0.117629,-0.58234289 0.08465,-1.25558614 -0.121245,-2.02580476 -0.143084,-0.7820513 -0.399901,-1.4031443 -0.754311,-1.8784227 -0.807247,-1.5602093 -2.159644,-3.414977 -4.174735,-5.6028457 -1.372527,-1.4902103 -2.616901,-2.6626943 -3.741425,-3.5536533 z"
           transform="matrix(0.54145348,-0.53753145,0.71802375,0.67501112,86.861036,119.06527)"
           sodipodi:nodetypes="scccscccscccscccscccscccss" />
        <path
           id="path1230-2-4-9-4"
           style="opacity:0.987395;fill:#fffe67;fill-opacity:0.639595;stroke-width:0.128;-inkscape-stroke:none;stop-color:#000000"
           d="m 44.310215,-12.516766 c -0.52683,-0.417406 -1.025951,-0.769927 -1.500956,-1.067433 -0.444998,-0.392309 -1.0433,-0.699505 -1.811729,-0.906168 -0.749306,-0.267582 -1.416157,-0.355855 -2.005306,-0.286709 -1.754901,-0.08111 -4.037777,0.16236 -6.940475,0.813636 -2.902505,0.651233 -5.070435,1.406199 -6.622442,2.229218 -0.562561,0.189191 -1.128062,0.55434 -1.691568,1.116866 -0.605769,0.514703 -1.015415,1.0476235 -1.250109,1.5919424 -0.947953,1.4792954 -1.878559,3.5783652 -2.766121,6.4185632 -0.887484,2.83994842 -1.317303,5.0952293 -1.380388,6.8509984 -0.117238,0.5819669 -0.08438,1.254458 0.121319,2.0239557 0.143028,0.7817482 0.400131,1.4027536 0.754329,1.8779605 0.807223,1.5602908 2.159456,3.4152548 4.174717,5.6033078 2.015245,2.188037 3.753039,3.688059 5.241802,4.620626 0.444626,0.392159 1.042573,0.699198 1.810246,0.905941 0.750592,0.268309 1.418615,0.356843 2.008561,0.287393 1.754753,0.08095 4.03751,-0.162727 6.939589,-0.813865 2.902505,-0.651232 5.070127,-1.405967 6.622135,-2.228985 0.561954,-0.188988 1.1268,-0.55352 1.689703,-1.115012 0.607418,-0.515636 1.017998,-1.049586 1.252915,-1.594955 0.947679,-1.479231 1.877865,-3.577998 2.76518,-6.4174052 0.887415,-2.8397311 1.31754,-5.0950564 1.380676,-6.85076813 0.117248,-0.58197552 0.0841,-1.25467167 -0.121608,-2.02418597 -0.142936,-0.7812468 -0.399633,-1.401719 -0.753479,-1.8768073 -0.807142,-1.5605636 -2.159737,-3.415791 -4.175566,-5.6044611 -1.372527,-1.4902103 -2.616902,-2.6626943 -3.741425,-3.5536533 z"
           transform="matrix(0.54145348,-0.53753145,0.71802375,0.67501112,86.861036,156.10694)"
           sodipodi:nodetypes="scccscccscccscccscccscccss" />
        <path
           id="path1230-1-7-3-7"
           style="opacity:0.987395;fill:#fffe67;fill-opacity:0.639595;stroke-width:0.128;-inkscape-stroke:none;stop-color:#000000"
           d="m 44.310402,-12.517057 c -0.526863,-0.417433 -1.026231,-0.769684 -1.501263,-1.067202 -0.445144,-0.392363 -1.043895,-0.699765 -1.812616,-0.906397 -0.748455,-0.267132 -1.414599,-0.355389 -2.003226,-0.286483 -1.755058,-0.08128 -4.038019,0.162445 -6.941379,0.81387 -2.903861,0.651536 -5.072713,1.406682 -6.624867,2.230149 -0.561753,0.189422 -1.126744,0.553997 -1.689432,1.115704 -0.605884,0.5148 -1.015454,1.0479796 -1.250128,1.5924051 -0.94789,1.4792804 -1.878308,3.5783147 -2.765813,6.4183312 -0.887394,2.83966058 -1.317506,5.0946128 -1.380659,6.8503058 -0.117292,0.5818017 -0.08416,1.2542425 0.121337,2.0234934 0.14299,0.7821721 0.399966,1.4034921 0.754292,1.8788851 0.807211,1.5603327 2.159658,3.4153904 4.175007,5.6035384 2.015286,2.188081 3.753019,3.688063 5.241802,4.620626 0.444755,0.3922 1.042917,0.699229 1.810843,0.905939 0.749559,0.267844 1.416555,0.356218 2.005884,0.28717 1.755033,0.08125 4.03813,-0.16247 6.94138,-0.81387 2.902556,-0.651244 5.070429,-1.406182 6.622442,-2.229218 0.562438,-0.189225 1.128168,-0.554005 1.691549,-1.116404 0.606318,-0.51511 1.016103,-1.04856 1.250761,-1.593331 0.94768,-1.47923 1.877865,-3.577998 2.76518,-6.4174048 0.887405,-2.8396955 1.317821,-5.0948356 1.380966,-6.85053786 0.117175,-0.5812307 0.08382,-1.25264696 -0.12114,-2.02095174 -0.142786,-0.7826871 -0.399695,-1.4043052 -0.753947,-1.8800415 -0.807129,-1.5606053 -2.159632,-3.416159 -4.175548,-5.6049234 -1.372527,-1.4902097 -2.616901,-2.6626947 -3.741425,-3.5536527 z"
           transform="matrix(0.54145348,-0.53753145,0.71802375,0.67501112,118.94007,174.62777)"
           sodipodi:nodetypes="scccscccscccscccscccscccss" />
        <path
           id="path1230-2-4-5-7-4"
           style="opacity:0.987395;fill:#fffe67;fill-opacity:0.639595;stroke-width:0.128;-inkscape-stroke:none;stop-color:#000000"
           d="m 32.881361,-14.141908 c -0.270804,0.05575 -0.547016,0.115385 -0.829419,0.178747 -2.903258,0.651402 -5.071775,1.406385 -6.623863,2.229653 -0.561912,0.189278 -1.126942,0.553924 -1.689794,1.115682 -0.606271,0.514998 -1.016274,1.0483198 -1.251024,1.5929703 -0.947826,1.4792654 -1.878079,3.578136 -2.765527,6.4179682 -0.887271,2.83926847 -1.317156,5.094252 -1.380402,6.8498413 -0.117222,0.5809158 -0.08423,1.252172 0.12037,2.0199896 0.142954,0.7848556 0.400303,1.4079943 0.755743,1.8844106 0.807292,1.5600589 2.15908,3.414588 4.173858,5.602117 2.014654,2.187395 3.752231,3.687128 5.240705,4.619757 0.445031,0.392834 1.044195,0.700137 1.813184,0.907033 0.749535,0.267743 1.416529,0.356098 2.005826,0.286938 1.754923,0.08113 4.03768,-0.162432 6.940472,-0.813729 2.902231,-0.651171 5.069927,-1.40598 6.621905,-2.228908 0.563004,-0.18924 1.129156,-0.554545 1.693106,-1.117715 0.605791,-0.514869 1.015364,-1.047904 1.249887,-1.592398 0.947684,-1.479232 1.877991,-3.577832 2.76531,-6.417252 0.887275,-2.8392809 1.317159,-5.0942487 1.380402,-6.8498413 0.117485,-0.58193376 0.08442,-1.25433919 -0.121118,-2.0238606 -0.14287,-0.7818047 -0.39982,-1.4027563 -0.753811,-1.8781019 -0.807141,-1.5605641 -2.15972,-3.4161128 -4.17555,-5.6047841 -2.016014,-2.1888711 -3.754296,-3.6890491 -5.243436,-4.6215361 -0.44475,-0.391741 -1.04247,-0.698526 -1.809946,-0.905025 -0.749725,-0.267819 -1.416924,-0.356413 -2.006333,-0.287167 -1.584127,-0.07319 -3.598017,0.117933 -6.110545,0.635211 z"
           transform="matrix(0.73624263,0.20014674,-0.2255649,0.95933237,146.31906,129.07545)"
           sodipodi:nodetypes="sscccscccscccscccscccscccs" />
        <path
           id="path1230-1-7-0-4-4"
           style="opacity:0.987395;fill:#fffe67;fill-opacity:0.639595;stroke-width:0.128;-inkscape-stroke:none;stop-color:#000000"
           d="m 32.881351,-14.141939 c -0.270803,0.05575 -0.547015,0.115386 -0.829419,0.178748 -2.902288,0.651184 -5.070331,1.406047 -6.622315,2.228994 -0.562864,0.189271 -1.128887,0.554612 -1.692695,1.11763 -0.605809,0.514872 -1.015355,1.0478983 -1.249888,1.5923976 -0.947696,1.4792345 -1.877979,3.5777967 -2.765309,6.4172517 -0.887272,2.83926843 -1.317156,5.0942519 -1.380402,6.8498413 -0.117222,0.5809158 -0.08423,1.252172 0.120369,2.0199896 0.142955,0.7848556 0.400303,1.4079942 0.755744,1.8844105 0.807292,1.560059 2.15908,3.4145883 4.173858,5.6021173 2.015068,2.187844 3.75314,3.687946 5.241816,4.620531 0.44493,0.392422 1.043648,0.699514 1.812073,0.906259 0.749535,0.267742 1.416528,0.356097 2.005825,0.286938 1.754924,0.08113 4.037681,-0.162432 6.940473,-0.813729 2.90223,-0.651171 5.069927,-1.405981 6.621904,-2.228908 0.562576,-0.189096 1.128229,-0.553987 1.691752,-1.116426 0.60651,-0.515212 1.01655,-1.048802 1.251242,-1.593688 0.947684,-1.479231 1.877991,-3.577831 2.765309,-6.4172513 0.887114,-2.8387626 1.317326,-5.0934395 1.380693,-6.84889495 0.117628,-0.58207128 0.0842,-1.25502182 -0.121409,-2.02480685 -0.14287,-0.7818047 -0.399819,-1.4027563 -0.75381,-1.8781019 -0.807142,-1.5605641 -2.159623,-3.4157974 -4.175453,-5.6044687 -2.016015,-2.1888713 -3.754393,-3.6893643 -5.243533,-4.6218513 -0.44475,-0.391741 -1.04247,-0.698526 -1.809946,-0.905025 -0.749703,-0.267811 -1.41684,-0.356086 -2.006236,-0.286852 -1.584149,-0.0732 -3.59804,0.117602 -6.110643,0.634895 z"
           transform="matrix(0.73624263,0.20014674,-0.2255649,0.95933237,146.31906,92.033772)"
           sodipodi:nodetypes="sscccscccscccscccscccscccs" />
      </g>
    </g>
  </g>
</svg>
