<?xml version="1.0" encoding="UTF-8" standalone="no"?>
<!-- Created with Inkscape (http://www.inkscape.org/) -->

<svg
   width="120mm"
   height="120mm"
   viewBox="0 0 120 120"
   version="1.1"
   id="svg5"
   xmlns:xlink="http://www.w3.org/1999/xlink"
   xmlns="http://www.w3.org/2000/svg"
   xmlns:svg="http://www.w3.org/2000/svg">
  <defs
     id="defs2">
    <linearGradient
       id="linearGradient1194">
      <stop
         style="stop-color:#00ad8e;stop-opacity:1;"
         offset="0"
         id="stop1190" />
      <stop
         style="stop-color:#0025be;stop-opacity:1;"
         offset="1"
         id="stop1192" />
    </linearGradient>
    <linearGradient
       id="linearGradient1088">
      <stop
         style="stop-color:#ad0000;stop-opacity:1;"
         offset="0"
         id="stop1084" />
      <stop
         style="stop-color:#ffae04;stop-opacity:1;"
         offset="1"
         id="stop1086" />
    </linearGradient>
    <linearGradient
       id="linearGradient1049">
      <stop
         style="stop-color:#ffbea6;stop-opacity:1;"
         offset="0"
         id="stop1045" />
      <stop
         style="stop-color:#ffc24c;stop-opacity:1;"
         offset="1"
         id="stop1047" />
    </linearGradient>
    <linearGradient
       xlink:href="#linearGradient1049"
       id="linearGradient1051"
       x1="98.635506"
       y1="178.1749"
       x2="146.77933"
       y2="94.787346"
       gradientUnits="userSpaceOnUse" />
    <linearGradient
       xlink:href="#linearGradient1194"
       id="linearGradient1082"
       x1="82.135399"
       y1="180.25967"
       x2="144.74548"
       y2="83.690308"
       gradientUnits="userSpaceOnUse" />
    <linearGradient
       xlink:href="#linearGradient1088"
       id="linearGradient1187"
       gradientUnits="userSpaceOnUse"
       x1="82.135399"
       y1="180.25967"
       x2="144.74548"
       y2="83.690308"
       gradientTransform="translate(-3.3966661)" />
    <clipPath
       clipPathUnits="userSpaceOnUse"
       id="clipPath1237">
      <circle
         style="opacity:0.987395;fill:none;fill-opacity:1;stroke:#000000;stroke-width:0.128;stroke-opacity:1;-inkscape-stroke:none;stop-color:#000000"
         id="circle1239"
         cx="114.82219"
         cy="134.8757"
         r="46.225849" />
    </clipPath>
  </defs>
  <g
     id="layer1"
     transform="translate(-54.822192,-74.875704)">
    <g
       id="g1212"
       clip-path="url(#clipPath1237)"
       transform="matrix(1.2979751,0,0,1.2979751,-34.21415,-40.189597)">
      <circle
         style="opacity:0.987395;fill:url(#linearGradient1051);fill-opacity:1;stroke:none;stroke-width:0.128;-inkscape-stroke:none;stop-color:#000000"
         id="path961"
         cx="114.82219"
         cy="134.8757"
         r="46.225849" />
      <path
         d="M 89.542885,180.25968 V 89.672895 h 3.402157 v 44.387535 q 1.655104,-0.81528 3.494104,-3.26113 1.838987,-2.44584 3.494117,-5.61638 1.655117,-3.26113 2.850467,-6.43167 1.19535,-3.26111 1.4712,-5.70696 0.9195,6.25048 3.76996,9.87396 2.85046,3.53289 6.98822,3.53289 4.13775,0 6.16066,-3.35172 2.11485,-3.35171 2.11485,-13.0445 0,-3.89522 -0.27585,-6.61283 -0.1839,-2.80819 -0.7356,-4.529342 -1.19535,-3.985819 -3.76996,-5.616381 -2.5746,-1.721149 -6.52846,-1.721149 -2.11486,0 -3.31021,0.905868 -1.19535,0.815281 -1.19535,1.630562 0,0.634108 0.64365,1.539975 0.64365,0.905869 1.37925,1.811737 1.56316,1.811736 1.56316,3.35171 0,2.17408 -1.65511,3.98582 -1.56315,1.72115 -4.59751,1.72115 -2.7585,0 -4.59752,-1.90232 -1.747077,-1.99291 -1.747077,-4.710517 0,-3.351711 2.206827,-5.888142 2.29877,-2.53643 5.88483,-3.985818 3.678,-1.449389 7.90771,-1.449389 5.88482,0 10.57428,2.717604 4.68946,2.717603 7.44796,7.518703 2.85046,4.801099 2.85046,11.051589 0,3.89523 -0.9195,7.15636 -0.82755,3.26113 -2.66656,5.88814 -2.48265,3.44229 -6.34456,5.43521 -3.86191,1.90232 -8.18357,1.90232 -2.0229,0 -4.22971,-0.45294 -2.11485,-0.54351 -4.04581,-1.53998 l -4.32166,6.70343 4.32166,6.70342 q 2.11486,-0.81528 4.32166,-1.26821 2.20681,-0.45293 4.41361,-0.45293 5.05726,0 9.01112,2.80819 4.04581,2.80818 6.34456,7.42811 2.29876,4.61993 2.29876,10.23631 0,5.61638 -2.75851,10.41748 -2.7585,4.71051 -7.44796,7.51871 -4.68946,2.80818 -10.66623,2.80818 -7.72381,0 -11.86157,-2.98935 -4.137797,-3.07996 -4.137797,-8.33399 0,-2.71761 1.747077,-4.61993 1.83902,-1.99292 4.59752,-1.99292 3.03436,0 4.59751,1.81175 1.65511,1.72114 1.65511,3.89523 0,1.72114 -1.56316,3.35171 -0.82755,0.90588 -1.4712,1.72115 -0.5517,0.81528 -0.5517,1.53997 0,1.08704 1.19535,1.90233 1.19535,0.7247 3.31021,0.7247 5.70091,0 8.55137,-4.07642 2.9424,-4.16698 2.9424,-13.6786 0,-8.33399 -1.93095,-12.59156 -1.93095,-4.34817 -6.52846,-4.34817 -4.22971,0 -6.98822,3.53288 -2.75851,3.53288 -3.58606,9.69279 -0.82755,-4.43875 -2.5746,-8.60575 -1.74707,-4.16698 -4.045844,-7.42811 -2.298738,-3.26113 -4.873344,-4.98228 v 44.5687 z m -16.183236,0 V 89.672895 h 10.758174 v 90.586785 z"
         id="path959-3-5"
         style="font-size:91.9502px;line-height:1.25;opacity:0.355246;fill:url(#linearGradient1187);fill-opacity:1;stroke-width:2.28165" />
      <path
         d="M 92.93955,180.25968 V 89.672895 h 3.402157 v 44.387535 q 1.655104,-0.81528 3.494104,-3.26113 1.838989,-2.44584 3.494099,-5.61638 1.65511,-3.26113 2.85046,-6.43167 1.19535,-3.26111 1.4712,-5.70696 0.9195,6.25048 3.76996,9.87396 2.85046,3.53289 6.98822,3.53289 4.13775,0 6.16066,-3.35172 2.11485,-3.35171 2.11485,-13.0445 0,-3.89522 -0.27585,-6.61283 -0.1839,-2.80819 -0.7356,-4.529342 -1.19535,-3.985819 -3.76996,-5.616381 -2.5746,-1.721149 -6.52846,-1.721149 -2.11486,0 -3.31021,0.905868 -1.19535,0.815281 -1.19535,1.630562 0,0.634108 0.64365,1.539975 0.64365,0.905869 1.37925,1.811737 1.56316,1.811736 1.56316,3.35171 0,2.17408 -1.65511,3.98582 -1.56315,1.72115 -4.59751,1.72115 -2.7585,0 -4.59751,-1.90232 -1.74706,-1.99291 -1.74706,-4.710517 0,-3.351711 2.20681,-5.888142 2.29876,-2.53643 5.88482,-3.985818 3.678,-1.449389 7.90771,-1.449389 5.88482,0 10.57428,2.717604 4.68946,2.717603 7.44796,7.518703 2.85046,4.801099 2.85046,11.051589 0,3.89523 -0.9195,7.15636 -0.82755,3.26113 -2.66656,5.88814 -2.48265,3.44229 -6.34456,5.43521 -3.86191,1.90232 -8.18357,1.90232 -2.0229,0 -4.22971,-0.45294 -2.11485,-0.54351 -4.04581,-1.53998 l -4.32166,6.70343 4.32166,6.70342 q 2.11486,-0.81528 4.32166,-1.26821 2.20681,-0.45293 4.41361,-0.45293 5.05726,0 9.01112,2.80819 4.04581,2.80818 6.34456,7.42811 2.29876,4.61993 2.29876,10.23631 0,5.61638 -2.75851,10.41748 -2.7585,4.71051 -7.44796,7.51871 -4.68946,2.80818 -10.66623,2.80818 -7.72381,0 -11.86157,-2.98935 -4.13777,-3.07996 -4.13777,-8.33399 0,-2.71761 1.74706,-4.61993 1.83901,-1.99292 4.59751,-1.99292 3.03436,0 4.59751,1.81175 1.65511,1.72114 1.65511,3.89523 0,1.72114 -1.56316,3.35171 -0.82755,0.90588 -1.4712,1.72115 -0.5517,0.81528 -0.5517,1.53997 0,1.08704 1.19535,1.90233 1.19535,0.7247 3.31021,0.7247 5.70091,0 8.55137,-4.07642 2.9424,-4.16698 2.9424,-13.6786 0,-8.33399 -1.93095,-12.59156 -1.93095,-4.34817 -6.52846,-4.34817 -4.22971,0 -6.98822,3.53288 -2.75851,3.53288 -3.58606,9.69279 -0.82755,-4.43875 -2.5746,-8.60575 -1.74706,-4.16698 -4.04582,-7.42811 -2.298737,-3.26113 -4.873343,-4.98228 v 44.5687 z m -16.183236,0 V 89.672895 h 10.758174 v 90.586785 z"
         id="path959-3"
         style="font-size:91.9502px;line-height:1.25;opacity:0.457596;fill:url(#linearGradient1082);fill-opacity:1;stroke-width:2.28165" />
    </g>
  </g>
</svg>
