<?xml version="1.0" encoding="UTF-8" standalone="no"?>
<!-- Created with Inkscape (http://www.inkscape.org/) -->

<svg
   width="120mm"
   height="120mm"
   viewBox="0 0 120 120"
   version="1.1"
   id="svg1653"
   inkscape:version="1.2.2 (b0a8486541, 2022-12-01)"
   sodipodi:docname="logo.svg"
   xmlns:inkscape="http://www.inkscape.org/namespaces/inkscape"
   xmlns:sodipodi="http://sodipodi.sourceforge.net/DTD/sodipodi-0.dtd"
   xmlns:xlink="http://www.w3.org/1999/xlink"
   xmlns="http://www.w3.org/2000/svg"
   xmlns:svg="http://www.w3.org/2000/svg">
  <sodipodi:namedview
     id="namedview1655"
     pagecolor="#ffffff"
     bordercolor="#111111"
     borderopacity="1"
     inkscape:showpageshadow="0"
     inkscape:pageopacity="0"
     inkscape:pagecheckerboard="1"
     inkscape:deskcolor="#d1d1d1"
     inkscape:document-units="mm"
     showgrid="false"
     inkscape:zoom="2.0864286"
     inkscape:cx="235.80965"
     inkscape:cy="43.135912"
     inkscape:window-width="2248"
     inkscape:window-height="2978"
     inkscape:window-x="0"
     inkscape:window-y="20"
     inkscape:window-maximized="1"
     inkscape:current-layer="layer1">
    <inkscape:grid
       type="xygrid"
       id="grid1657"
       dotted="true"
       originx="-60.026459"
       originy="-80.020981" />
  </sodipodi:namedview>
  <defs
     id="defs1650">
    <linearGradient
       inkscape:collect="always"
       id="linearGradient2057">
      <stop
         style="stop-color:#ab4478;stop-opacity:1;"
         offset="0"
         id="stop2053" />
      <stop
         style="stop-color:#b36846;stop-opacity:1;"
         offset="1"
         id="stop2055" />
    </linearGradient>
    <linearGradient
       inkscape:collect="always"
       xlink:href="#linearGradient2057"
       id="linearGradient2059"
       x1="93.469391"
       y1="180.92407"
       x2="157.82199"
       y2="96.772835"
       gradientUnits="userSpaceOnUse"
       gradientTransform="translate(-2.353111,0.3602084)" />
  </defs>
  <g
     inkscape:label="Layer 1"
     inkscape:groupmode="layer"
     id="layer1"
     transform="translate(-60.026458,-80.020981)">
    <g
       id="g2223"
       transform="matrix(1.2705198,0,0,1.2705198,-32.469534,-37.878448)">
      <circle
         style="opacity:1;fill:url(#linearGradient2059);fill-opacity:1;stroke:none;stroke-width:0.1;stroke-dasharray:none;stroke-opacity:1;stop-color:#000000"
         id="path2051"
         cx="120.02646"
         cy="140.02098"
         r="47.224766" />
      <g
         id="g2208">
        <path
           style="opacity:0.616438;mix-blend-mode:normal;fill:#00934b;fill-opacity:0.994231;stroke:none;stroke-width:0.112797;stroke-linecap:butt;stroke-linejoin:miter;stroke-dasharray:none;stroke-opacity:1"
           d="m 125.07854,155.77742 c 18.82478,0 -5.68645,13.0322 -19.93565,21.72036 1.69934,-8.68816 1.11089,-21.72036 19.93565,-21.72036 z"
           id="path1659-5"
           sodipodi:nodetypes="ccc" />
        <path
           style="opacity:0.616438;mix-blend-mode:normal;fill:#00934b;fill-opacity:0.994231;stroke:none;stroke-width:0.112797;stroke-linecap:butt;stroke-linejoin:miter;stroke-dasharray:none;stroke-opacity:1"
           d="m 114.92134,155.77742 c 18.82475,0 18.23639,13.0322 19.93577,21.72036 -14.24925,-8.68816 -38.760563,-21.72036 -19.93577,-21.72036 z"
           id="path1659-5-9"
           sodipodi:nodetypes="ccc" />
        <path
           style="opacity:0.49237;mix-blend-mode:normal;fill:#00bfd8;fill-opacity:0.994231;stroke:none;stroke-width:0.104599;stroke-linecap:butt;stroke-linejoin:miter;stroke-dasharray:none;stroke-opacity:1"
           d="m 123.19313,160.75203 c 0,9.996 21.89045,1.9992 32.83567,4.998 0,-12.99481 -32.83567,-14.99401 -32.83567,-4.998 z"
           id="path1659-1-7-0-3"
           sodipodi:nodetypes="ccc" />
        <path
           style="opacity:0.271168;mix-blend-mode:normal;fill:#ffffff;fill-opacity:1;stroke:none;stroke-width:0.0993312;stroke-linecap:butt;stroke-linejoin:miter;stroke-dasharray:none;stroke-opacity:1"
           d="m 120,157.47734 c 32.02533,0 9.99414,-32.9599 0,-54.93317 -9.99414,21.97327 -32.025332,54.93317 0,54.93317 z"
           id="path1659"
           sodipodi:nodetypes="zcz" />
        <path
           style="opacity:0.271168;mix-blend-mode:normal;fill:#ff5600;fill-opacity:1;stroke:none;stroke-width:0.1;stroke-linecap:butt;stroke-linejoin:miter;stroke-dasharray:none;stroke-opacity:1"
           d="m 125.02646,160.02646 c 5,5 35,0 35,-20 -20,0 -40,15 -35,20 z"
           id="path1659-1-7-0"
           sodipodi:nodetypes="ccc" />
        <path
           style="opacity:0.49237;mix-blend-mode:normal;fill:#00bfd8;fill-opacity:0.994231;stroke:none;stroke-width:0.104599;stroke-linecap:butt;stroke-linejoin:miter;stroke-dasharray:none;stroke-opacity:1"
           d="m 116.80687,160.75203 c 0,9.99601 -21.89056,1.9992 -32.835781,4.99801 0,-12.99482 32.835781,-14.99402 32.835781,-4.99801 z"
           id="path1659-1-7-0-3-7"
           sodipodi:nodetypes="ccc" />
        <path
           style="opacity:0.271168;mix-blend-mode:normal;fill:#ff5600;fill-opacity:1;stroke:none;stroke-width:0.1;stroke-linecap:butt;stroke-linejoin:miter;stroke-dasharray:none;stroke-opacity:1"
           d="m 115.02646,160.02646 c -5,5 -35.000002,0 -35.000002,-20 20.000002,0 40.000002,15 35.000002,20 z"
           id="path1659-1-7-0-2"
           sodipodi:nodetypes="ccc" />
        <path
           style="opacity:0.271168;mix-blend-mode:normal;fill:#ffff61;fill-opacity:1;stroke:none;stroke-width:0.1;stroke-linecap:butt;stroke-linejoin:miter;stroke-dasharray:none;stroke-opacity:1"
           d="m 130,161 c 30,0 10,-30 10,-50 -20,20 -40,50 -10,50 z"
           id="path1659-1"
           sodipodi:nodetypes="ccc" />
        <path
           style="opacity:0.271168;mix-blend-mode:normal;fill:#ffff61;fill-opacity:1;stroke:none;stroke-width:0.1;stroke-linecap:butt;stroke-linejoin:miter;stroke-dasharray:none;stroke-opacity:1"
           d="m 110,161 c 30,0 10,-30 -10,-50 0,20 -20,50 10,50 z"
           id="path1659-8"
           sodipodi:nodetypes="ccc" />
        <path
           style="opacity:0.271168;mix-blend-mode:normal;fill:#ffbb35;fill-opacity:1;stroke:none;stroke-width:0.1;stroke-linecap:butt;stroke-linejoin:miter;stroke-dasharray:none;stroke-opacity:1"
           d="m 125,158 c 25,0 30,-20 30,-40 -20,10 -55.000001,40 -30,40 z"
           id="path1659-1-7"
           sodipodi:nodetypes="ccc" />
        <path
           style="opacity:0.271168;mix-blend-mode:normal;fill:#ffbb35;fill-opacity:1;stroke:none;stroke-width:0.1;stroke-linecap:butt;stroke-linejoin:miter;stroke-dasharray:none;stroke-opacity:1"
           d="m 115,158 c -25,0 -30,-20 -30,-40 20,10 55,40 30,40 z"
           id="path1659-1-7-2"
           sodipodi:nodetypes="ccc" />
      </g>
    </g>
  </g>
</svg>
