<?xml version="1.0" encoding="UTF-8" standalone="no"?>
<!-- Created with Inkscape (http://www.inkscape.org/) -->

<svg
   width="800mm"
   height="500mm"
   viewBox="0 0 800.00002 500"
   version="1.1"
   id="svg15185"
   inkscape:version="1.4.2 (ebf0e940, 2025-05-08)"
   sodipodi:docname="logo.svg"
   xmlns:inkscape="http://www.inkscape.org/namespaces/inkscape"
   xmlns:sodipodi="http://sodipodi.sourceforge.net/DTD/sodipodi-0.dtd"
   xmlns="http://www.w3.org/2000/svg"
   xmlns:svg="http://www.w3.org/2000/svg">
  <sodipodi:namedview
     id="namedview15187"
     pagecolor="#000000"
     bordercolor="#111111"
     borderopacity="1"
     inkscape:showpageshadow="0"
     inkscape:pageopacity="0"
     inkscape:pagecheckerboard="1"
     inkscape:deskcolor="#d1d1d1"
     inkscape:document-units="mm"
     showgrid="false"
     inkscape:zoom="0.4204826"
     inkscape:cx="-423.32311"
     inkscape:cy="1719.4528"
     inkscape:window-width="3840"
     inkscape:window-height="2107"
     inkscape:window-x="0"
     inkscape:window-y="25"
     inkscape:window-maximized="0"
     inkscape:current-layer="layer1" />
  <defs
     id="defs15182" />
  <g
     inkscape:label="Layer 1"
     inkscape:groupmode="layer"
     id="layer1"
     transform="translate(380.87178,777.60208)">
    <path
       style="font-size:174.528px;line-height:1.25;font-family:'Concert One';-inkscape-font-specification:'Concert One';fill:none;fill-opacity:1;stroke-width:2;stroke:#ffffff;stroke-opacity:1;stroke-dasharray:none"
       d="m -270.13111,-392.32983 q 0,1.38549 0.90057,2.56314 0.90056,1.17767 2.4246,2.28606 1.59331,1.03911 3.60226,2.07823 2.07822,1.03911 4.295,2.07823 3.39444,1.66258 6.92743,3.60225 3.53299,1.87041 6.44251,4.43356 2.90952,2.56315 4.71065,5.95759 1.8704,3.32517 1.8704,7.89726 0,4.15646 -1.24693,7.34308 -1.17766,3.18661 -3.18662,5.54194 -2.00895,2.28605 -4.71065,3.81008 -2.63242,1.52404 -5.61122,2.42461 -2.90952,0.90056 -5.95758,1.24694 -3.04807,0.41564 -5.74977,0.41564 -5.33412,0 -9.28275,-0.90057 -3.94864,-0.90056 -6.78888,-2.35532 -2.84025,-1.52404 -4.71065,-3.39444 -1.80113,-1.93968 -2.84024,-4.01791 -1.03912,-2.07823 -1.45477,-4.08719 -0.41564,-2.07822 -0.41564,-3.81008 0,-4.15645 2.28605,-6.09614 2.35533,-1.93967 7.13525,-1.93967 3.46371,0 5.68049,1.8704 2.21678,1.87041 2.35533,6.02687 0.0693,1.38548 0.76201,2.21677 0.76202,0.83129 1.87041,1.38549 1.17766,0.48491 2.56314,0.69274 1.38549,0.13855 2.7017,0.13855 2.7017,0 4.36429,-1.38549 1.73185,-1.45476 1.73185,-3.74081 0,-1.93968 -1.17766,-3.60226 -1.10839,-1.73186 -2.9788,-3.18662 -1.87041,-1.45475 -4.295,-2.77097 -2.35533,-1.38548 -4.8492,-2.77097 -3.11734,-1.66258 -6.30396,-3.53299 -3.11735,-1.8704 -5.68049,-4.15645 -2.56315,-2.28606 -4.15645,-5.1263 -1.59332,-2.90952 -1.59332,-6.58106 0,-5.40339 1.73186,-9.00566 1.80113,-3.67153 5.19557,-5.88831 3.39444,-2.28605 8.24364,-3.25589 4.91847,-0.96983 11.15316,-1.10838 h 1.10839 q 5.61121,0 9.49057,0.96983 3.94864,0.96984 6.51178,2.56315 2.63242,1.52404 4.08719,3.46371 1.52403,1.93969 2.21678,3.94864 0.76201,1.93968 0.90056,3.74081 0.20782,1.80113 0.20782,3.04807 0,2.07823 -0.90057,3.46372 -0.83128,1.3162 -2.28605,2.1475 -1.38548,0.76201 -3.18661,1.10839 -1.80114,0.27709 -3.74081,0.34636 -1.66258,0 -3.04807,-0.55419 -1.31621,-0.55419 -2.28605,-1.38548 -0.96984,-0.8313 -1.52404,-1.87041 -0.48492,-1.03911 -0.48492,-2.00895 -0.13855,-2.63243 -2.1475,-4.01791 -1.93967,-1.38549 -4.77992,-1.38549 -1.17766,0 -2.28605,0.2771 -1.03912,0.20782 -1.93969,0.83129 -0.83128,0.55419 -1.38548,1.52404 -0.48492,0.96984 -0.48492,2.49387 z m 41.70312,7.89727 q 0,-6.37324 1.73185,-10.80679 1.73186,-4.43356 4.43355,-7.41235 2.77097,-2.97879 6.09614,-4.64138 3.39444,-1.66258 6.65033,-2.49386 3.2559,-0.8313 6.02687,-1.03913 2.84024,-0.20781 4.43355,-0.20781 1.59331,0 4.36428,0.20781 2.77097,0.20783 5.88831,1.03913 3.18662,0.83128 6.37324,2.49386 3.25589,1.66259 5.81903,4.64138 2.63242,2.97879 4.29501,7.41235 1.66258,4.43355 1.66258,10.80679 v 17.18002 q 0,6.37323 -1.66258,10.80678 -1.66259,4.43355 -4.29501,7.41235 -2.56314,2.9788 -5.81903,4.64138 -3.18662,1.66258 -6.37324,2.49387 -3.11734,0.8313 -5.88831,1.03911 -2.77097,0.20783 -4.36428,0.20783 -1.59331,0 -4.43355,-0.20783 -2.77097,-0.20781 -6.02687,-1.03911 -3.25589,-0.83129 -6.65033,-2.49387 -3.32517,-1.66258 -6.09614,-4.64138 -2.70169,-2.9788 -4.43355,-7.41235 -1.73185,-4.43355 -1.73185,-10.80678 z m 21.33647,22.02922 q 0.0693,2.00895 0.96984,3.53299 0.76202,1.38548 2.35533,2.49387 1.66258,1.03911 4.71065,1.03911 2.90952,0 4.43356,-1.03911 1.5933,-1.10839 2.35532,-2.49387 0.83129,-1.52404 0.96984,-3.53299 v -25.07729 q -0.13855,-2.07823 -0.96984,-3.81009 -0.76202,-1.38548 -2.35532,-2.56314 -1.52404,-1.24694 -4.43356,-1.24694 -3.04807,0 -4.71065,1.24694 -1.59331,1.17766 -2.35533,2.56314 -0.90056,1.73186 -0.96984,3.81009 z m 50.01602,-32.28182 q 0,-2.97879 0.34637,-5.81903 0.34638,-2.84025 1.45477,-5.05703 1.17766,-2.21677 3.25589,-3.53299 2.1475,-1.38548 5.74976,-1.38548 3.53299,0 5.61121,1.38548 2.07824,1.31622 3.18663,3.53299 1.10838,2.21678 1.38548,5.05703 0.34637,2.84024 0.34637,5.81903 v 27.01697 q 0,2.00896 0.13855,3.87936 0.20782,1.80113 0.83129,3.25589 0.62347,1.38549 1.80113,2.28606 1.24694,0.83128 3.32517,0.83128 2.77097,0 4.50282,-1.87041 1.80113,-1.8704 2.77097,-5.12629 1.03912,-3.25589 1.38549,-7.62017 0.34637,-4.43356 0.34637,-9.49057 v -13.16212 q 0,-2.97879 0.34638,-5.81903 0.34636,-2.84025 1.45475,-5.05703 1.17767,-2.21677 3.25589,-3.53299 2.1475,-1.38548 5.74977,-1.38548 3.53298,0 5.61122,1.38548 2.07822,1.31622 3.18661,3.53299 1.108387,2.21678 1.385477,5.05703 0.34638,2.84024 0.34638,5.81903 v 37.82376 q 0,2.97879 -0.20783,5.81904 -0.20781,2.77097 -1.246927,4.98775 -1.03912,2.1475 -3.18662,3.53298 -2.07823,1.31622 -5.88831,1.31622 -3.81008,0 -5.95758,-1.24694 -2.14751,-1.31622 -3.2559,-3.11734 -1.03912,-1.80114 -1.31621,-3.81009 -0.2771,-2.00896 -0.2771,-3.46371 -0.55419,2.00895 -1.73186,4.08717 -1.17765,2.07824 -3.04806,3.74082 -1.80114,1.66258 -4.36428,2.77097 -2.56315,1.03912 -5.95759,1.03912 -3.81009,0 -7.62017,-1.24694 -3.81009,-1.24694 -6.85815,-4.15646 -3.04807,-2.90952 -4.98775,-7.62017 -1.87041,-4.71065 -1.87041,-11.63808 z m 133.283655,37.68521 q 0,2.97879 -0.34636,5.81904 -0.34637,2.84025 -1.52404,5.05702 -1.108377,2.21678 -3.255887,3.60226 -2.07823,1.31622 -5.680487,1.31622 -3.532987,0 -5.611217,-1.31622 -2.078217,-1.38548 -3.186607,-3.60226 -1.10839,-2.21677 -1.45477,-5.05702 -0.27709,-2.84025 -0.27709,-5.81904 v -27.01697 q 0,-1.93967 -0.20782,-3.81008 -0.13855,-1.87041 -0.76202,-3.25589 -0.62347,-1.45477 -1.870397,-2.28605 -1.17767,-0.90057 -3.25589,-0.90057 -2.840247,0 -4.572107,1.8704 -1.73186,1.87041 -2.770967,5.1263 -0.96984,3.25589 -1.31621,7.68945 -0.34637,4.36427 -0.34637,9.4213 v 13.16211 q 0,2.97879 -0.34637,5.81904 -0.34638,2.84025 -1.52403,5.05702 -1.108387,2.21678 -3.255897,3.60226 -2.07823,1.31622 -5.680487,1.31622 -3.532987,0 -5.611207,-1.31622 -2.07823,-1.38548 -3.186617,-3.60226 -1.10839,-2.21677 -1.45476,-5.05702 -0.27709,-2.84025 -0.27709,-5.81904 v -37.82375 q 0,-2.9788 0.20781,-5.74977 0.20783,-2.84025 1.24694,-4.98775 1.03911,-2.21677 3.117337,-3.53299 2.14751,-1.38548 5.957587,-1.38548 3.810087,0 5.957587,1.31621 2.147497,1.24694 3.186617,3.04807 1.10838,1.80113 1.38548,3.81008 0.2771,2.00895 0.2771,3.46372 0.55419,-2.00896 1.73186,-4.08719 1.177657,-2.07822 2.978787,-3.74081 1.8704,-1.66258 4.433557,-2.70169 2.56314,-1.10839 5.957577,-1.10839 3.810087,0 7.620167,1.24694 3.810077,1.24693 6.858154,4.15645 3.04806,2.90952 4.918467,7.62017 1.93967,4.71065 1.93967,11.63808 z m 71.075414,0.13855 q 0,2.90952 -0.207823,5.74977 -0.207824,2.77097 -1.246938,4.98774 -1.039114,2.21678 -3.117341,3.60226 -2.078229,1.31622 -5.819039,1.31622 -3.810086,0 -5.957589,-1.24694 -2.147503,-1.31622 -3.186617,-3.11734 -1.039113,-1.87041 -1.31621,-3.87936 -0.207822,-2.00896 -0.207822,-3.39444 -0.62347,2.00895 -1.801133,4.08717 -1.108388,2.07824 -2.909518,3.74082 -1.801133,1.66258 -4.364281,2.77097 -2.493874,1.03912 -5.888313,1.03912 -3.8100852,0 -7.6201699,-1.24694 -3.81008473,-1.24694 -6.8581527,-4.15646 -3.0480637,-2.90952 -4.9877477,-7.5509 -1.8704057,-4.71064 -1.8704057,-11.5688 v -20.08954 q 0,-6.92743 1.8704057,-11.5688 1.939684,-4.71065 4.9877477,-7.5509 3.04806797,-2.90952 6.8581527,-4.15646 3.8100847,-1.24693 7.6201699,-1.24693 3.394439,0 5.888313,1.03911 2.563148,1.03912 4.364281,2.7017 1.80113,1.66258 2.909518,3.74081 1.177663,2.07822 1.801133,4.15646 v -23.69181 q 0,-2.97879 0.277097,-5.81903 0.34637,-2.90953 1.385484,-5.05703 1.108389,-2.21677 3.186616,-3.53299 2.147503,-1.38548 5.819041,-1.38548 3.463713,0 5.541942,1.38548 2.078227,1.31622 3.117341,3.53299 1.108389,2.1475 1.385486,5.05703 0.346372,2.84024 0.346372,5.81903 z m -36.022624,-10.66824 q 0,1.87041 0.138548,3.67154 0.138549,1.80112 0.762017,3.25589 0.623469,1.45476 1.801132,2.35533 1.246936,0.83128 3.394439,0.83128 2.701697,0 4.364281,-1.17766 1.731856,-1.24694 2.701695,-3.74081 0.96984,-2.56314 1.316211,-6.37324 0.415647,-3.87936 0.484922,-9.21347 0,-2.1475 -0.415647,-4.91847 -0.346372,-2.84025 -1.316211,-5.33412 -0.969841,-2.49388 -2.701697,-4.22574 -1.731857,-1.73185 -4.433554,-1.73185 -2.147503,0 -3.394439,0.90057 -1.177663,0.83128 -1.801132,2.21677 -0.623468,1.38548 -0.762017,3.18662 -0.138548,1.73186 -0.138548,3.53299 z m 110.561755,10.52969 q 0,2.97879 -0.34637,5.81904 -0.34637,2.84025 -1.52404,5.05702 -1.10838,2.21678 -3.25589,3.60226 -2.07823,1.31622 -5.68049,1.31622 -3.53299,0 -5.61122,-1.31622 -2.07823,-1.38548 -3.18662,-3.60226 -1.10839,-2.21677 -1.45476,-5.05702 -0.2771,-2.84025 -0.2771,-5.81904 v -27.01697 q 0,-1.93967 -0.20782,-3.81008 -0.13855,-1.87041 -0.762016,-3.25589 -0.623468,-1.45477 -1.870405,-2.28605 -1.177663,-0.90057 -3.255891,-0.90057 -2.840246,0 -4.572103,1.8704 -1.731856,1.87041 -2.770971,5.1263 -0.96984,3.25589 -1.316211,7.68945 -0.346372,4.36427 -0.346372,9.4213 v 13.16211 q 0,2.97879 -0.346371,5.81904 -0.346371,2.84025 -1.524034,5.05702 -1.108389,2.21678 -3.255891,3.60226 -2.078229,1.31622 -5.680491,1.31622 -3.532989,0 -5.611216,-1.31622 -2.078229,-1.38548 -3.186618,-3.60226 -1.108388,-2.21677 -1.45476,-5.05702 -0.277096,-2.84025 -0.277096,-5.81904 v -37.82375 q 0,-2.9788 0.207823,-5.74977 0.207822,-2.84025 1.246936,-4.98775 1.039114,-2.21677 3.117344,-3.53299 2.147501,-1.38548 5.957587,-1.38548 3.810085,0 5.957588,1.31621 2.147502,1.24694 3.186616,3.04807 1.108389,1.80113 1.385486,3.81008 0.277097,2.00895 0.277097,3.46372 0.554194,-2.00896 1.731857,-4.08719 1.177663,-2.07822 2.978794,-3.74081 1.870406,-1.66258 4.433554,-2.70169 2.563149,-1.10839 5.957584,-1.10839 3.81009,0 7.62018,1.24694 3.81009,1.24693 6.85815,4.15645 3.04807,2.90952 4.91848,7.62017 1.93968,4.71065 1.93968,11.63808 z m 72.87659,-23.6918 q 0,1.10839 -0.13855,2.63242 -0.13855,1.45476 -1.10839,2.84024 -0.90056,1.31622 -2.90952,2.28606 -2.00896,0.96983 -5.68049,0.96983 h -27.57119 v 6.65033 q 0,1.66259 0.41565,3.46372 0.41565,1.80113 1.38549,3.32516 1.03911,1.52404 2.7017,2.49388 1.66258,0.96984 4.08718,0.96984 2.77097,0 4.22573,-0.62347 1.52404,-0.69274 2.35533,-1.66258 0.90056,-0.96984 1.59331,-2.07823 0.69275,-1.10839 1.80114,-2.07823 1.17766,-0.96984 3.18661,-1.59331 2.07823,-0.69274 5.6805,-0.69274 1.73186,0 3.32516,0.2771 1.66259,0.2771 2.90953,1.03911 1.24693,0.76202 2.00895,2.1475 0.76202,1.31622 0.76202,3.46372 0,4.50283 -2.84025,7.55089 -2.84025,2.9788 -7.13525,4.77993 -4.29501,1.80113 -9.35203,2.56315 -4.98775,0.76202 -9.35204,0.76202 -5.74976,-0.0693 -10.94534,-1.45477 -5.19557,-1.38548 -9.21348,-4.43355 -3.94864,-3.04807 -6.30397,-7.96654 -2.35533,-4.91847 -2.35533,-12.05372 v -16.21018 q 0,-6.58106 1.52404,-11.15316 1.59331,-4.57211 4.08718,-7.62017 2.49388,-3.04807 5.61122,-4.71066 3.11735,-1.73185 6.30397,-2.56314 3.18661,-0.8313 6.02686,-1.03911 2.90953,-0.20783 4.98775,-0.20783 6.99671,0 11.91518,1.24694 4.98775,1.24694 8.31292,3.25589 3.32517,2.00895 5.26485,4.64138 1.93968,2.63242 2.90953,5.47266 0.96983,2.77098 1.24693,5.68049 0.2771,2.84025 0.2771,5.33412 z m -37.40814,-1.66259 h 17.31859 q 0,-3.25589 -0.20782,-5.74976 -0.13855,-2.56315 -1.03913,-4.29501 -0.83128,-1.73185 -2.70169,-2.63242 -1.80113,-0.90056 -5.19557,-0.90056 -2.84025,0 -4.50283,0.90056 -1.59331,0.90057 -2.4246,2.28605 -0.8313,1.31621 -1.03912,2.84025 -0.20783,1.52403 -0.20783,2.7017 z m 69.96702,-9.97549 q 0,1.38549 0.90057,2.56314 0.90056,1.17767 2.4246,2.28606 1.5933,1.03911 3.60226,2.07823 2.07823,1.03911 4.29501,2.07823 3.39444,1.66258 6.92742,3.60225 3.53299,1.87041 6.44251,4.43356 2.90952,2.56315 4.71065,5.95759 1.87041,3.32517 1.87041,7.89726 0,4.15646 -1.24694,7.34308 -1.17767,3.18661 -3.18662,5.54194 -2.00895,2.28605 -4.71065,3.81008 -2.63242,1.52404 -5.61121,2.42461 -2.90952,0.90056 -5.95759,1.24694 -3.04807,0.41564 -5.74976,0.41564 -5.33413,0 -9.28276,-0.90057 -3.94863,-0.90056 -6.78888,-2.35532 -2.84024,-1.52404 -4.71065,-3.39444 -1.80113,-1.93968 -2.84025,-4.01791 -1.03911,-2.07823 -1.45475,-4.08719 -0.41565,-2.07822 -0.41565,-3.81008 0,-4.15645 2.28605,-6.09614 2.35532,-1.93967 7.13525,-1.93967 3.46371,0 5.68049,1.8704 2.21677,1.87041 2.35533,6.02687 0.0693,1.38548 0.76202,2.21677 0.76201,0.83129 1.8704,1.38549 1.17766,0.48491 2.56315,0.69274 1.38548,0.13855 2.70169,0.13855 2.7017,0 4.36428,-1.38549 1.73186,-1.45476 1.73186,-3.74081 0,-1.93968 -1.17766,-3.60226 -1.10839,-1.73186 -2.9788,-3.18662 -1.8704,-1.45475 -4.295,-2.77097 -2.35533,-1.38548 -4.8492,-2.77097 -3.11734,-1.66258 -6.30396,-3.53299 -3.11734,-1.8704 -5.68049,-4.15645 -2.56315,-2.28606 -4.15646,-5.1263 -1.5933,-2.90952 -1.5933,-6.58106 0,-5.40339 1.73185,-9.00566 1.80114,-3.67153 5.19557,-5.88831 3.39444,-2.28605 8.24364,-3.25589 4.91848,-0.96983 11.15316,-1.10838 h 1.10838 q 5.61122,0 9.49058,0.96983 3.94864,0.96984 6.51179,2.56315 2.63242,1.52404 4.08718,3.46371 1.52403,1.93969 2.21677,3.94864 0.76202,1.93968 0.90057,3.74081 0.20782,1.80113 0.20782,3.04807 0,2.07823 -0.90056,3.46372 -0.8313,1.3162 -2.28605,2.1475 -1.38549,0.76201 -3.18662,1.10839 -1.80113,0.27709 -3.74081,0.34636 -1.66259,0 -3.04807,-0.55419 -1.31621,-0.55419 -2.28605,-1.38548 -0.96984,-0.8313 -1.52403,-1.87041 -0.48492,-1.03911 -0.48492,-2.00895 -0.13855,-2.63243 -2.1475,-4.01791 -1.93969,-1.38549 -4.77993,-1.38549 -1.17767,0 -2.28606,0.2771 -1.03911,0.20782 -1.93967,0.83129 -0.8313,0.55419 -1.38549,1.52404 -0.48492,0.96984 -0.48492,2.49387 z m 63.0396,0 q 0,1.38549 0.90057,2.56314 0.90056,1.17767 2.42459,2.28606 1.59332,1.03911 3.60227,2.07823 2.07822,1.03911 4.295,2.07823 3.39444,1.66258 6.92743,3.60225 3.53299,1.87041 6.44251,4.43356 2.90952,2.56315 4.71065,5.95759 1.8704,3.32517 1.8704,7.89726 0,4.15646 -1.24694,7.34308 -1.17765,3.18661 -3.18661,5.54194 -2.00895,2.28605 -4.71065,3.81008 -2.63243,1.52404 -5.61121,2.42461 -2.90953,0.90056 -5.95759,1.24694 -3.04807,0.41564 -5.74977,0.41564 -5.33411,0 -9.28275,-0.90057 -3.94863,-0.90056 -6.78888,-2.35532 -2.84025,-1.52404 -4.71065,-3.39444 -1.80113,-1.93968 -2.84024,-4.01791 -1.03912,-2.07823 -1.45477,-4.08719 -0.41564,-2.07822 -0.41564,-3.81008 0,-4.15645 2.28605,-6.09614 2.35533,-1.93967 7.13525,-1.93967 3.46372,0 5.68049,1.8704 2.21678,1.87041 2.35532,6.02687 0.0693,1.38548 0.76202,2.21677 0.76202,0.83129 1.87041,1.38549 1.17766,0.48491 2.56315,0.69274 1.38549,0.13855 2.70169,0.13855 2.7017,0 4.36428,-1.38549 1.73186,-1.45476 1.73186,-3.74081 0,-1.93968 -1.17767,-3.60226 -1.10838,-1.73186 -2.97878,-3.18662 -1.87041,-1.45475 -4.29502,-2.77097 -2.35532,-1.38548 -4.84919,-2.77097 -3.11734,-1.66258 -6.30396,-3.53299 -3.11734,-1.8704 -5.68049,-4.15645 -2.56315,-2.28606 -4.15646,-5.1263 -1.59331,-2.90952 -1.59331,-6.58106 0,-5.40339 1.73186,-9.00566 1.80113,-3.67153 5.19557,-5.88831 3.39444,-2.28605 8.24364,-3.25589 4.91847,-0.96983 11.15316,-1.10838 h 1.10839 q 5.61122,0 9.49058,0.96983 3.94862,0.96984 6.51178,2.56315 2.63242,1.52404 4.08717,3.46371 1.52404,1.93969 2.21678,3.94864 0.76202,1.93968 0.90057,3.74081 0.20782,1.80113 0.20782,3.04807 0,2.07823 -0.90056,3.46372 -0.83129,1.3162 -2.28606,2.1475 -1.38548,0.76201 -3.18661,1.10839 -1.80113,0.27709 -3.74081,0.34636 -1.66258,0 -3.04807,-0.55419 -1.31621,-0.55419 -2.28605,-1.38548 -0.96984,-0.8313 -1.52404,-1.87041 -0.48492,-1.03911 -0.48492,-2.00895 -0.13855,-2.63243 -2.1475,-4.01791 -1.93968,-1.38549 -4.77993,-1.38549 -1.17765,0 -2.28604,0.2771 -1.03912,0.20782 -1.93968,0.83129 -0.83129,0.55419 -1.38549,1.52404 -0.48492,0.96984 -0.48492,2.49387 z"
       id="text5670-6-1-6"
       aria-label="soundness" />
    <g
       id="g1"
       transform="translate(89.958338)">
      <path
         style="color:#000000;mix-blend-mode:normal;fill:#e17418;fill-opacity:1;fill-rule:evenodd;stroke-width:1.60265;stroke-linecap:round;-inkscape-stroke:none"
         d="m -94.523884,-632.09239 a 4.0066108,4.0066108 0 0 1 4.514661,-3.42136 4.0066108,4.0066108 0 0 1 3.421312,4.51476 c -0.854494,6.19878 3.111144,11.95011 9.208844,13.35535 6.098847,1.40552 12.182311,-2.03163 14.125971,-7.98091 a 4.0066108,4.0066108 0 0 1 5.052173,-2.56179 4.0066108,4.0066108 0 0 1 2.564902,5.05288 c -3.209959,9.82511 -13.470415,15.61962 -23.542606,13.29828 -10.070342,-2.3208 -16.756466,-12.01974 -15.345257,-22.25721 z"
         id="path1973-3" />
      <path
         style="color:#000000;mix-blend-mode:normal;fill:#e17418;fill-opacity:1;fill-rule:evenodd;stroke-width:1.60265;stroke-linecap:round;-inkscape-stroke:none"
         d="m -110.68352,-631.35793 a 4.0066108,4.0066108 0 0 1 4.22409,-3.77745 4.0066108,4.0066108 0 0 1 3.77807,4.22113 c -0.75909,13.65424 8.377128,25.81661 21.703173,28.88766 13.326895,3.07132 26.86455,-3.86449 32.157466,-16.47498 a 4.0066108,4.0066108 0 0 1 5.248198,-2.14403 4.0066108,4.0066108 0 0 1 2.141695,5.24436 c -6.781336,16.15667 -24.272364,25.11817 -41.346906,21.18324 -17.073489,-3.93479 -28.878366,-19.64589 -27.905786,-37.13993 z"
         id="path3533-58" />
      <path
         style="color:#000000;mix-blend-mode:normal;fill:#e17418;fill-opacity:1;fill-rule:evenodd;stroke-width:1.60265;stroke-linecap:round;-inkscape-stroke:none"
         d="m -91.161202,-657.13716 a 4.0066108,4.0066108 0 0 1 2.07034,-5.27594 c 7.084933,-3.08859 14.977659,-3.81753 22.509116,-2.08182 7.526625,1.73463 14.299137,5.84241 19.316779,11.71451 a 4.0066108,4.0066108 0 0 1 -0.443878,5.64756 4.0066108,4.0066108 0 0 1 -5.64756,-0.44382 c -3.903258,-4.56792 -9.169901,-7.76041 -15.024888,-9.10966 -5.858752,-1.35019 -11.995624,-0.78385 -17.507032,1.61885 a 4.0066108,4.0066108 0 0 1 -5.272877,-2.06968 z"
         id="path3529-50" />
      <path
         style="color:#000000;mix-blend-mode:normal;fill:#e17418;fill-opacity:1;fill-rule:evenodd;stroke-width:1.60265;stroke-linecap:round;-inkscape-stroke:none"
         d="m -126.74642,-627.93509 a 4.0066108,4.0066108 0 0 1 3.89739,-4.11615 4.0066108,4.0066108 0 0 1 4.11303,3.89674 c 0.5482,20.09146 14.57318,37.23128 34.158706,41.74496 19.585522,4.51368 39.697559,-4.75899 48.983951,-22.5839 a 4.0066108,4.0066108 0 0 1 5.403647,-1.70346 4.0066108,4.0066108 0 0 1 1.702782,5.4067 c -10.954739,21.02712 -34.785829,32.01377 -57.889927,26.68925 -23.104109,-5.32452 -39.722889,-25.63322 -40.369579,-49.33414 z"
         id="path3525-9" />
      <path
         style="color:#000000;mix-blend-mode:normal;fill:#e17418;fill-opacity:1;fill-rule:evenodd;stroke-width:1.60265;stroke-linecap:round;-inkscape-stroke:none"
         d="m -107.36804,-668.49152 a 4.0066108,4.0066108 0 0 1 1.57019,-2.63196 c 12.258973,-9.13328 27.918541,-12.42158 42.815224,-8.98849 14.893633,3.43242 27.532601,13.23701 34.558566,26.81043 a 4.0066108,4.0066108 0 0 1 -1.717207,5.40224 4.0066108,4.0066108 0 0 1 -5.399261,-1.71655 c -5.947163,-11.48929 -16.634833,-19.78218 -29.241658,-22.68766 -12.609403,-2.90589 -25.852799,-0.1255 -36.229474,7.60564 a 4.0066108,4.0066108 0 0 1 -5.60592,-0.81975 4.0066108,4.0066108 0 0 1 -0.75046,-2.9739 z"
         id="path3521-9" />
      <path
         style="color:#000000;mix-blend-mode:normal;fill:#e17418;fill-opacity:1;fill-rule:evenodd;stroke-width:1.60265;stroke-linecap:round;-inkscape-stroke:none"
         d="m -142.35192,-621.61864 a 4.0066108,4.0066108 0 0 1 3.5278,-4.43582 4.0066108,4.0066108 0 0 1 4.43338,3.52404 c 2.89365,25.30695 21.39309,46.01764 46.214339,51.73806 24.821953,5.72043 50.51956,-4.80365 64.197226,-26.29253 a 4.0066108,4.0066108 0 0 1 5.53235,-1.23063 4.0066108,4.0066108 0 0 1 1.227491,5.53164 c -15.485013,24.32852 -44.654749,36.27633 -72.756627,29.79998 -28.101099,-6.47621 -49.099959,-29.98376 -52.375959,-58.63474 z"
         id="path3517-8" />
      <path
         style="color:#000000;mix-blend-mode:normal;fill:#e17418;fill-opacity:1;fill-rule:evenodd;stroke-width:1.60265;stroke-linecap:round;-inkscape-stroke:none"
         d="m -119.8822,-678.80861 a 4.0066108,4.0066108 0 0 1 1.41369,-2.7194 c 16.37223,-13.74141 38.256272,-19.0013 59.084991,-14.20101 20.795835,4.79259 38.149226,19.06094 46.869486,38.53897 a 4.0066108,4.0066108 0 0 1 -2.019887,5.29402 4.0066108,4.0066108 0 0 1 -5.294697,-2.01692 c -7.697012,-17.19231 -22.998873,-29.77731 -41.354462,-34.00761 -18.384642,-4.23692 -37.682948,0.40076 -52.134041,12.5298 a 4.0066108,4.0066108 0 0 1 -5.64312,-0.49104 4.0066108,4.0066108 0 0 1 -0.92196,-2.92681 z"
         id="path3513-0" />
      <path
         style="color:#000000;mix-blend-mode:normal;fill:#e17418;fill-opacity:1;fill-rule:evenodd;stroke-width:1.60265;stroke-linecap:round;-inkscape-stroke:none"
         d="m -156.49481,-615.29275 a 4.0066108,4.0066108 0 0 1 2.53686,-1.72505 4.0066108,4.0066108 0 0 1 4.73711,3.11221 c 6.03683,29.1257 28.46037,52.05045 57.445332,58.73028 28.996355,6.68254 59.202321,-4.12896 77.374947,-27.6917 a 4.0066108,4.0066108 0 0 1 5.6214096,-0.72502 4.0066108,4.0066108 0 0 1 0.7249814,5.62151 c -20.072945,26.02657 -53.492365,37.98505 -85.520898,30.60367 -32.015952,-7.37827 -56.823912,-32.74176 -63.492012,-64.91314 a 4.0066108,4.0066108 0 0 1 0.5723,-3.01276 z"
         id="path3509-2" />
      <path
         style="color:#000000;mix-blend-mode:normal;fill:#e17418;fill-opacity:1;fill-rule:evenodd;stroke-width:1.60265;stroke-linecap:round;-inkscape-stroke:none"
         d="m -130.2089,-691.06286 a 4.0066108,4.0066108 0 0 1 1.41441,-2.72251 c 20.22716,-16.98924 47.269399,-23.49298 73.010078,-17.56084 25.703435,5.92365 47.148079,23.56733 57.9148225,47.64715 a 4.0066108,4.0066108 0 0 1 -2.02224833,5.29025 4.0066108,4.0066108 0 0 1 -5.29398207,-2.01989 c -9.7440211,-21.79249 -29.1362451,-37.74796 -52.3981531,-43.10891 -23.295642,-5.36878 -47.750237,0.51465 -66.056087,15.89016 a 4.0066108,4.0066108 0 0 1 -5.64617,-0.49171 4.0066108,4.0066108 0 0 1 -0.92267,-2.9237 z"
         id="path3505-4" />
      <path
         style="color:#000000;mix-blend-mode:normal;fill:#e17418;fill-opacity:1;fill-rule:evenodd;stroke-width:1.60265;stroke-linecap:round;-inkscape-stroke:none"
         d="m -170.42202,-599.92304 a 4.0066108,4.0066108 0 0 1 2.65087,-5.00728 4.0066108,4.0066108 0 0 1 5.00654,2.65396 c 9.66527,31.4384 35.33952,55.33173 67.389982,62.7181 32.065547,7.38988 65.620026,-2.87053 88.0694314,-26.92944 a 4.0066108,4.0066108 0 0 1 5.663105,-0.19498 4.0066108,4.0066108 0 0 1 0.1987366,5.66065 c -24.392405,26.14126 -60.88999,37.30172 -95.730819,29.27237 -34.824476,-8.02571 -62.746026,-34.01396 -73.247846,-68.17338 z"
         id="path3501-9" />
      <path
         style="color:#000000;mix-blend-mode:normal;fill:#e17418;fill-opacity:1;fill-rule:evenodd;stroke-width:1.60265;stroke-linecap:round;-inkscape-stroke:none"
         d="m -136.93252,-707.82864 c 23.86617,-18.93329 55.061246,-25.97597 84.747214,-19.13461 29.67145,6.83811 54.6264517,26.80934 67.803957,54.25937 a 4.0066108,4.0066108 0 0 1 -1.877703,5.34598 4.0066108,4.0066108 0 0 1 -5.3453392,-1.88063 c -12.1257715,-25.25932 -35.0771598,-43.62384 -62.3804608,-49.91613 -27.316673,-6.2954 -56.005438,0.18162 -77.966798,17.60374 a 4.0066108,4.0066108 0 0 1 -5.62932,-0.64838 4.0066108,4.0066108 0 0 1 0.64845,-5.62934 z"
         id="path3497-0" />
      <path
         style="color:#000000;mix-blend-mode:normal;fill:#e17418;fill-opacity:1;fill-rule:evenodd;stroke-width:1.60265;stroke-linecap:round;-inkscape-stroke:none"
         d="m -181.83499,-587.46233 a 4.0066108,4.0066108 0 0 1 2.15947,-2.17803 4.0066108,4.0066108 0 0 1 5.24312,2.14308 c 13.46737,32.09231 41.54412,55.74019 75.458665,63.55607 33.923562,7.81804 69.525105,-1.16424 95.6814191,-24.13771 a 4.0066108,4.0066108 0 0 1 5.655292,0.36865 4.0066108,4.0066108 0 0 1 -0.3648048,5.65296 c -28.0877363,24.66977 -66.3429423,34.32 -102.7714513,25.9247 -36.41888,-8.39315 -66.5842,-33.79955 -81.04603,-68.26163 a 4.0066108,4.0066108 0 0 1 -0.0156,-3.06809 z"
         id="path3493-1" />
      <path
         style="color:#000000;mix-blend-mode:normal;fill:#e17418;fill-opacity:1;fill-rule:evenodd;stroke-width:1.60265;stroke-linecap:round;-inkscape-stroke:none"
         d="m -142.685,-723.56754 c 27.15769,-19.60366 61.46043,-26.53461 94.098815,-19.01276 32.626861,7.51915 60.428893,28.75285 76.27029,58.2503 a 4.0066108,4.0066108 0 0 1 -1.632507,5.42505 4.0066108,4.0066108 0 0 1 -5.428083,-1.63329 c -14.7510039,-27.46704 -40.628199,-47.23194 -71.00926,-54.23361 -30.391776,-7.00409 -62.321375,-0.55338 -87.609715,17.70077 a 4.0066108,4.0066108 0 0 1 -5.59304,-0.90341 4.0066108,4.0066108 0 0 1 0.9035,-5.59305 z"
         id="path3489-2" />
      <path
         style="color:#000000;mix-blend-mode:normal;fill:#e17418;fill-opacity:1;fill-rule:evenodd;stroke-width:1.60265;stroke-linecap:round;-inkscape-stroke:none"
         d="m -190.81194,-568.58099 a 4.0066108,4.0066108 0 0 1 1.914,-2.39529 4.0066108,4.0066108 0 0 1 5.44143,1.57527 c 17.05111,30.93494 46.4629,53.14439 80.88367,61.07699 34.442289,7.93746 70.628896,0.82703 99.5072334,-19.55238 a 4.0066108,4.0066108 0 0 1 5.5827359,0.9621 4.0066108,4.0066108 0 0 1 -0.9628771,5.5859 c -30.7378102,21.69155 -69.2666172,29.26157 -105.9266522,20.81283 -36.63713,-8.44334 -67.95247,-32.08933 -86.1015,-65.01623 a 4.0066108,4.0066108 0 0 1 -0.33804,-3.04919 z"
         id="path3485-0" />
      <path
         style="color:#000000;mix-blend-mode:normal;fill:#e17418;fill-opacity:1;fill-rule:evenodd;stroke-width:1.60265;stroke-linecap:round;-inkscape-stroke:none"
         d="m -147.4124,-738.40208 a 4.0066108,4.0066108 0 0 1 1.76076,-2.51093 c 29.88368,-19.01236 66.150309,-25.23853 100.664562,-17.28434 34.485052,7.94731 64.349139,29.39165 82.901373,59.5279 a 4.0066108,4.0066108 0 0 1 -1.312002,5.51167 4.0066108,4.0066108 0 0 1 -5.511759,-1.312 c -17.429482,-28.31242 -45.479072,-48.45259 -77.877173,-55.91912 -32.425547,-7.47273 -66.489431,-1.62249 -94.564621,16.23925 a 4.0066108,4.0066108 0 0 1 -5.53073,-1.22955 4.0066108,4.0066108 0 0 1 -0.53041,-3.02288 z"
         id="path3481-06" />
      <path
         style="color:#000000;mix-blend-mode:normal;fill:#e17418;fill-opacity:1;fill-rule:evenodd;stroke-width:1.60265;stroke-linecap:round;-inkscape-stroke:none"
         d="m -195.8878,-546.01261 a 4.0066108,4.0066108 0 0 1 1.61856,-2.60471 4.0066108,4.0066108 0 0 1 5.59117,0.92568 c 19.88961,27.76497 49.2245,47.31466 82.50612,54.98467 33.272312,7.66771 68.197424,2.9322 98.2275926,-13.31676 a 4.0066108,4.0066108 0 0 1 5.4285557,1.61723 4.0066108,4.0066108 0 0 1 -1.6148975,5.4322 c -31.7443668,17.17666 -68.6692468,22.18137 -103.8408108,14.07578 -35.18138,-8.10775 -66.19834,-28.77768 -87.22329,-58.12764 a 4.0066108,4.0066108 0 0 1 -0.693,-2.98645 z"
         id="path3475-39" />
      <path
         style="color:#000000;mix-blend-mode:normal;fill:#e17418;fill-opacity:1;fill-rule:evenodd;stroke-width:1.60265;stroke-linecap:round;-inkscape-stroke:none"
         d="m -147.26193,-757.30029 a 4.0066108,4.0066108 0 0 1 1.93324,-2.38111 c 25.43305,-13.78729 54.343393,-19.83467 83.169699,-17.39095 6.991718,0.59252 13.933428,1.68228 20.771019,3.25781 9.680871,2.23107 19.114238,5.42896 28.155286,9.54673 23.589065,10.7439 43.949132,27.48539 59.048518,48.55393 a 4.0066108,4.0066108 0 0 1 -0.922503,5.59197 4.0066108,4.0066108 0 0 1 -5.591871,-0.92257 c -14.283431,-19.92994 -33.5421734,-35.76627 -55.856506,-45.92953 -8.552344,-3.89525 -17.474889,-6.92151 -26.632484,-9.03194 -6.467983,-1.49052 -13.032433,-2.51848 -19.646217,-3.07901 -27.268784,-2.31162 -54.617961,3.40543 -78.676851,16.44773 a 4.0066108,4.0066108 0 0 1 -5.4323,-1.61494 4.0066108,4.0066108 0 0 1 -0.31903,-3.04812 z"
         id="path3471-0" />
      <path
         style="color:#000000;mix-blend-mode:normal;fill:#d4004d;fill-opacity:1;fill-rule:evenodd;stroke-width:1.60265;stroke-linecap:round;-inkscape-stroke:none"
         d="m -93.920779,-634.83474 c 1.405703,-4.93914 4.681634,-9.34284 9.493941,-12.02284 9.624642,-5.36001 21.891316,-1.86997 27.251255,7.75475 0.290104,0.52086 0.555446,1.05252 0.797943,1.59726 a 4.0066108,4.0066108 0 0 1 -2.032099,5.29119 4.0066108,4.0066108 0 0 1 -5.288126,-2.03149 c -0.145504,-0.32669 -0.305324,-0.64595 -0.479367,-0.95847 -3.25291,-5.84106 -10.509214,-7.9075 -16.35033,-4.65468 -5.841142,3.25295 -7.904533,10.50991 -4.651623,16.35111 0.174542,0.31333 0.361715,0.61707 0.563582,0.91367 a 4.0066108,4.0066108 0 0 1 -1.05813,5.567 4.0066108,4.0066108 0 0 1 -5.563979,-1.05738 c -0.336441,-0.49427 -0.65225,-1.00245 -0.943136,-1.5248 -2.679976,-4.81229 -3.145647,-10.28618 -1.739931,-15.22532 z"
         id="path3535-8" />
      <path
         style="color:#000000;mix-blend-mode:normal;fill:#d4004d;fill-opacity:1;fill-rule:evenodd;stroke-width:1.60265;stroke-linecap:round;-inkscape-stroke:none"
         d="m -110.08689,-636.17697 c 0.52865,-2.74693 1.38147,-5.44987 2.55892,-8.05107 a 4.0066108,4.0066108 0 0 1 5.30103,-1.99695 4.0066108,4.0066108 0 0 1 1.99696,5.30104 c -3.66594,8.09857 -3.2777,17.44667 1.047456,25.21316 0.778133,1.39729 1.674796,2.72643 2.679315,3.97096 a 4.0066108,4.0066108 0 0 1 -0.60131,5.6338 4.0066108,4.0066108 0 0 1 -5.633781,-0.60129 c -1.29151,-1.60009 -2.44238,-3.30773 -3.44284,-5.1043 -4.16765,-7.48366 -5.49169,-16.12414 -3.90575,-24.36535 z"
         id="path3531-7" />
      <path
         style="color:#000000;mix-blend-mode:normal;fill:#d4004d;fill-opacity:1;fill-rule:evenodd;stroke-width:1.60265;stroke-linecap:round;-inkscape-stroke:none"
         d="m -74.527098,-661.65866 a 4.0066108,4.0066108 0 0 1 4.491155,-3.45887 c 11.331324,1.47083 21.301285,8.23406 26.860664,18.2169 0.999971,1.79562 1.845817,3.67288 2.525864,5.61235 a 4.0066108,4.0066108 0 0 1 -2.455386,5.10699 4.0066108,4.0066108 0 0 1 -5.106904,-2.45546 c -0.52893,-1.50847 -1.187495,-2.96877 -1.965251,-4.36538 -4.327111,-7.77 -12.070946,-13.02368 -20.890602,-14.16836 a 4.0066108,4.0066108 0 0 1 -3.45954,-4.48817 z"
         id="path3527-3" />
      <path
         style="color:#000000;mix-blend-mode:normal;fill:#d4004d;fill-opacity:1;fill-rule:evenodd;stroke-width:1.60265;stroke-linecap:round;-inkscape-stroke:none"
         d="m -125.76936,-639.49239 a 4.0066108,4.0066108 0 0 1 4.70945,-3.15148 4.0066108,4.0066108 0 0 1 3.15157,4.70947 c -2.03388,10.25124 -0.35936,20.8907 4.72554,30.02141 1.81641,3.26159 4.03909,6.27921 6.61623,8.98026 a 4.0066108,4.0066108 0 0 1 -0.13305,5.6647 4.0066108,4.0066108 0 0 1 -5.66461,-0.13359 c -3.04568,-3.19223 -5.67361,-6.75878 -7.82029,-10.61342 -6.00845,-10.7891 -7.98818,-23.36451 -5.58488,-35.47789 z"
         id="path3523-1" />
      <path
         style="color:#000000;mix-blend-mode:normal;fill:#d4004d;fill-opacity:1;fill-rule:evenodd;stroke-width:1.60265;stroke-linecap:round;-inkscape-stroke:none"
         d="m -61.561,-675.78518 a 4.0066108,4.0066108 0 0 1 5.159462,-2.34442 c 11.567088,4.33435 21.216572,12.63924 27.226535,23.43104 2.146661,3.85478 3.795522,7.96512 4.905644,12.23524 a 4.0066108,4.0066108 0 0 1 -2.867203,4.88677 4.0066108,4.0066108 0 0 1 -4.886024,-2.87026 c -0.939317,-3.61324 -2.33463,-7.09072 -4.151044,-10.35244 -5.086164,-9.13301 -13.250142,-16.16072 -23.039233,-19.82887 a 4.0066108,4.0066108 0 0 1 -2.348137,-5.15706 z"
         id="path3519-0" />
      <path
         style="color:#000000;mix-blend-mode:normal;fill:#d4004d;fill-opacity:1;fill-rule:evenodd;stroke-width:1.60265;stroke-linecap:round;-inkscape-stroke:none"
         d="m -142.14321,-638.72055 a 4.0066108,4.0066108 0 0 1 4.517,-3.41757 4.0066108,4.0066108 0 0 1 3.41992,4.52069 c -1.7949,12.93232 0.66775,26.09471 7.02016,37.50156 3.3254,5.97128 7.64632,11.33196 12.77433,15.85063 a 4.0066108,4.0066108 0 0 1 0.35733,5.65552 4.0066108,4.0066108 0 0 1 -5.65554,0.35732 c -5.81168,-5.12117 -10.70597,-11.19675 -14.47474,-17.9643 -7.19878,-12.92652 -9.99249,-27.8485 -7.95846,-42.50385 z"
         id="path3515-0" />
      <path
         style="color:#000000;mix-blend-mode:normal;fill:#d4004d;fill-opacity:1;fill-rule:evenodd;stroke-width:1.60265;stroke-linecap:round;-inkscape-stroke:none"
         d="m -52.484962,-689.63252 a 4.0066108,4.0066108 0 0 1 5.284118,-2.04904 c 13.568663,5.98194 24.814396,16.23062 32.029167,29.18601 3.768413,6.76674 6.3537444,14.12504 7.6473546,21.76159 a 4.0066108,4.0066108 0 0 1 -3.2813816,4.62095 4.0066108,4.0066108 0 0 1 -4.617956,-3.28061 c -1.141427,-6.73813 -3.424592,-13.2327 -6.749694,-19.20343 -6.366496,-11.43208 -16.289189,-20.47266 -28.262561,-25.7513 a 4.0066108,4.0066108 0 0 1 -2.049047,-5.28417 z"
         id="path3511-5" />
      <path
         style="color:#000000;mix-blend-mode:normal;fill:#d4004d;fill-opacity:1;fill-rule:evenodd;stroke-width:1.60265;stroke-linecap:round;-inkscape-stroke:none"
         d="m -158.0217,-640.89265 a 4.0066108,4.0066108 0 0 1 4.5177,-3.42067 4.0066108,4.0066108 0 0 1 3.41756,4.51704 c -2.26637,16.37244 0.85825,33.03795 8.90002,47.47821 5.34035,9.58937 12.68979,17.91073 21.54724,24.39315 a 4.0066108,4.0066108 0 0 1 0.86807,5.59992 4.0066108,4.0066108 0 0 1 -5.59908,0.86496 c -9.78969,-7.16467 -17.91547,-16.36083 -23.81789,-26.95954 -8.88769,-15.95925 -12.33839,-34.37856 -9.83362,-52.47307 z"
         id="path3507-0" />
      <path
         style="color:#000000;mix-blend-mode:normal;fill:#d4004d;fill-opacity:1;fill-rule:evenodd;stroke-width:1.60265;stroke-linecap:round;-inkscape-stroke:none"
         d="m -45.983366,-704.28193 a 4.0066108,4.0066108 0 0 1 5.283403,-2.04607 c 16.745414,7.39204 30.622789,20.04275 39.5285621,36.03452 5.8965612,10.58832 9.4364977,22.32482 10.3768401,34.40757 a 4.0066108,4.0066108 0 0 1 -3.6843201,4.30655 4.0066108,4.0066108 0 0 1 -4.3034562,-3.68354 c -0.85081109,-10.93227 -4.05262,-21.55135 -9.3876772,-31.13127 -8.0581467,-14.46968 -20.6157197,-25.91593 -35.7673677,-32.6044 a 4.0066108,4.0066108 0 0 1 -2.045984,-5.28336 z"
         id="path3503-3" />
      <path
         style="color:#000000;mix-blend-mode:normal;fill:#d4004d;fill-opacity:1;fill-rule:evenodd;stroke-width:1.60265;stroke-linecap:round;-inkscape-stroke:none"
         d="m -173.47425,-645.86079 a 4.0066108,4.0066108 0 0 1 4.6097,-3.2902 4.0066108,4.0066108 0 0 1 3.29324,4.61043 c -3.44211,20.60557 0.21721,41.7679 10.38157,60.01961 7.88816,14.16444 19.37426,25.99662 33.29758,34.303 a 4.0066108,4.0066108 0 0 1 1.38703,5.49454 4.0066108,4.0066108 0 0 1 -5.49148,1.3877 c -15.13369,-9.02857 -27.61788,-21.89018 -36.19176,-37.28607 -11.04747,-19.8375 -15.02707,-42.84308 -11.28588,-65.23901 z"
         id="path3499-18" />
      <path
         style="color:#000000;mix-blend-mode:normal;fill:#d4004d;fill-opacity:1;fill-rule:evenodd;stroke-width:1.60265;stroke-linecap:round;-inkscape-stroke:none"
         d="m -41.952323,-719.86376 a 4.0066108,4.0066108 0 0 1 5.226824,-2.19072 c 21.026727,8.60891 38.5028712,24.11369 49.557437,43.96388 8.566135,15.38199 12.925887,32.75053 12.641114,50.35454 a 4.0066108,4.0066108 0 0 1 -4.069191,3.94154 4.0066108,4.0066108 0 0 1 -3.943927,-4.07297 c 0.262009,-16.19606 -3.748632,-32.17286 -11.6296585,-46.32448 -10.1708843,-18.26345 -26.2459945,-32.52424 -45.5918665,-40.44497 a 4.0066108,4.0066108 0 0 1 -2.190732,-5.22682 z"
         id="path3495-0" />
      <path
         style="color:#000000;mix-blend-mode:normal;fill:#d4004d;fill-opacity:1;fill-rule:evenodd;stroke-width:1.60265;stroke-linecap:round;-inkscape-stroke:none"
         d="m -188.29465,-653.68342 a 4.0066108,4.0066108 0 0 1 4.75711,-3.07969 4.0066108,4.0066108 0 0 1 3.0765,4.75643 c -5.48814,25.63174 -1.48247,52.38266 11.27101,75.28353 11.03454,19.8143 28.01646,35.65899 48.5471,45.29545 a 4.0066108,4.0066108 0 0 1 1.92307,5.32897 4.0066108,4.0066108 0 0 1 -5.32897,1.923 c -22.05052,-10.34974 -40.29144,-27.36772 -52.14286,-48.64893 -13.69718,-24.59542 -17.9972,-53.33046 -12.10296,-80.85876 z"
         id="path3491-1" />
      <path
         style="color:#000000;mix-blend-mode:normal;fill:#d4004d;fill-opacity:1;fill-rule:evenodd;stroke-width:1.60265;stroke-linecap:round;-inkscape-stroke:none"
         d="m -40.688831,-736.34347 a 4.0066108,4.0066108 0 0 1 5.123056,-2.42349 c 26.52031,9.48061 48.695144,28.27289 62.39799,52.87856 11.84676,21.27284 16.712908,45.73278 13.907695,69.91961 a 4.0066108,4.0066108 0 0 1 -4.443076,3.515 4.0066108,4.0066108 0 0 1 -3.518657,-4.44067 c 2.611873,-22.51981 -1.914379,-45.28816 -12.944562,-65.09463 -12.7587793,-22.91045 -33.405184,-40.40705 -58.098298,-49.23443 a 4.0066108,4.0066108 0 0 1 -2.424148,-5.11995 z"
         id="path3487-7" />
      <path
         style="color:#000000;mix-blend-mode:normal;fill:#d4004d;fill-opacity:1;fill-rule:evenodd;stroke-width:1.60265;stroke-linecap:round;-inkscape-stroke:none"
         d="m -202.12376,-664.56698 a 4.0066108,4.0066108 0 0 1 4.9287,-2.79268 4.0066108,4.0066108 0 0 1 2.79642,4.92632 c -8.68392,31.43273 -4.6578,65.01785 11.20833,93.50799 14.8762,26.71259 39.07914,46.9985 67.98093,56.97595 a 4.0066108,4.0066108 0 0 1 2.47834,5.09391 4.0066108,4.0066108 0 0 1 -5.09395,2.4784 c -30.76434,-10.62056 -56.53211,-32.21563 -72.36699,-60.64977 -16.88828,-30.32556 -21.17514,-66.08251 -11.93178,-99.54012 z"
         id="path3483-9" />
      <path
         style="color:#000000;mix-blend-mode:normal;fill:#d4004d;fill-opacity:1;fill-rule:evenodd;stroke-width:1.60265;stroke-linecap:round;-inkscape-stroke:none"
         d="m -42.557898,-753.54523 a 4.0066108,4.0066108 0 0 1 4.970226,-2.72211 c 33.3459323,9.74604 61.520393,32.23008 78.423226,62.58182 15.823572,28.41376 20.619552,61.66613 13.470456,93.39329 a 4.0066108,4.0066108 0 0 1 -4.789975,3.02706 4.0066108,4.0066108 0 0 1 -3.02701,-4.78989 c 6.716269,-29.80646 2.210432,-61.03826 -12.655134,-87.73183 -15.879814,-28.51469 -42.3420329,-49.63209 -73.669738,-58.78803 a 4.0066108,4.0066108 0 0 1 -2.722051,-4.97031 z"
         id="path3479-1" />
      <path
         style="color:#000000;mix-blend-mode:normal;fill:#d4004d;fill-opacity:1;fill-rule:evenodd;stroke-width:1.60265;stroke-linecap:round;-inkscape-stroke:none"
         d="m -218.93718,-663.50461 c 1.212,-5.11928 2.70213,-10.19592 4.47154,-15.20724 a 4.0066108,4.0066108 0 0 1 5.11203,-2.44535 4.0066108,4.0066108 0 0 1 2.44525,5.11213 c -13.39152,37.9281 -9.85522,79.77575 9.71471,114.91684 19.58405,35.16606 53.33009,60.21905 92.65872,68.78883 a 4.0066108,4.0066108 0 0 1 3.0615,4.76587 4.0066108,4.0066108 0 0 1 -4.76885,3.0608 c -41.57144,-9.05866 -77.25215,-35.5455 -97.95303,-72.71701 -18.10023,-32.50197 -23.22584,-70.4402 -14.74187,-106.27487 z"
         id="path3477-0" />
      <path
         style="color:#000000;mix-blend-mode:normal;fill:#d4004d;fill-opacity:1;fill-rule:evenodd;stroke-width:1.60265;stroke-linecap:round;-inkscape-stroke:none"
         d="m -47.916542,-771.14641 a 4.0066108,4.0066108 0 0 1 4.769546,-3.0639 c 41.5845852,9.05218 77.276617,35.5455 97.98284,72.72699 20.705426,37.18028 24.432643,81.47125 10.232807,121.58926 a 4.0066108,4.0066108 0 0 1 -5.114352,2.44143 4.0066108,4.0066108 0 0 1 -2.438465,-5.11361 c 13.433739,-37.9536 9.906703,-79.84416 -9.681667,-115.01845 -19.589097,-35.17564 -53.3451065,-60.2316 -92.686159,-68.79517 a 4.0066108,4.0066108 0 0 1 -3.06455,-4.76655 z"
         id="path3473-3" />
      <path
         style="color:#000000;mix-blend-mode:normal;fill:#fefc1b;fill-opacity:0.524633;fill-rule:evenodd;stroke-width:1.60265;stroke-linecap:round;-inkscape-stroke:none"
         d="m -94.523884,-632.09239 a 4.0066108,4.0066108 0 0 1 4.514661,-3.42136 4.0066108,4.0066108 0 0 1 3.421312,4.51476 c -0.854494,6.19878 3.111144,11.95011 9.208844,13.35535 6.098847,1.40552 12.182311,-2.03163 14.125971,-7.98091 a 4.0066108,4.0066108 0 0 1 5.052173,-2.56179 4.0066108,4.0066108 0 0 1 2.564902,5.05288 c -3.209959,9.82511 -13.470415,15.61962 -23.542606,13.29828 -10.070342,-2.3208 -16.756466,-12.01974 -15.345257,-22.25721 z"
         id="path1973-0-9" />
      <path
         style="color:#000000;mix-blend-mode:normal;fill:#fefc1b;fill-opacity:0.524633;fill-rule:evenodd;stroke-width:1.60265;stroke-linecap:round;-inkscape-stroke:none"
         d="m -110.68352,-631.35793 a 4.0066108,4.0066108 0 0 1 4.22409,-3.77745 4.0066108,4.0066108 0 0 1 3.77807,4.22113 c -0.75909,13.65424 8.377128,25.81661 21.703173,28.88766 13.326895,3.07132 26.86455,-3.86449 32.157466,-16.47498 a 4.0066108,4.0066108 0 0 1 5.248198,-2.14403 4.0066108,4.0066108 0 0 1 2.141695,5.24436 c -6.781336,16.15667 -24.272364,25.11817 -41.346906,21.18324 -17.073489,-3.93479 -28.878366,-19.64589 -27.905786,-37.13993 z"
         id="path3533-7-4" />
      <path
         style="color:#000000;mix-blend-mode:normal;fill:#fefc1b;fill-opacity:0.524633;fill-rule:evenodd;stroke-width:1.60265;stroke-linecap:round;-inkscape-stroke:none"
         d="m -91.161202,-657.13716 a 4.0066108,4.0066108 0 0 1 2.07034,-5.27594 c 7.084933,-3.08859 14.977659,-3.81753 22.509116,-2.08182 7.526625,1.73463 14.299137,5.84241 19.316779,11.71451 a 4.0066108,4.0066108 0 0 1 -0.443878,5.64756 4.0066108,4.0066108 0 0 1 -5.64756,-0.44382 c -3.903258,-4.56792 -9.169901,-7.76041 -15.024888,-9.10966 -5.858752,-1.35019 -11.995624,-0.78385 -17.507032,1.61885 a 4.0066108,4.0066108 0 0 1 -5.272877,-2.06968 z"
         id="path3529-0-8" />
      <path
         style="color:#000000;mix-blend-mode:normal;fill:#fefc1b;fill-opacity:0.524633;fill-rule:evenodd;stroke-width:1.60265;stroke-linecap:round;-inkscape-stroke:none"
         d="m -126.74642,-627.93509 a 4.0066108,4.0066108 0 0 1 3.89739,-4.11615 4.0066108,4.0066108 0 0 1 4.11303,3.89674 c 0.5482,20.09146 14.57318,37.23128 34.158706,41.74496 19.585522,4.51368 39.697559,-4.75899 48.983951,-22.5839 a 4.0066108,4.0066108 0 0 1 5.403647,-1.70346 4.0066108,4.0066108 0 0 1 1.702782,5.4067 c -10.954739,21.02712 -34.785829,32.01377 -57.889927,26.68925 -23.104109,-5.32452 -39.722889,-25.63322 -40.369579,-49.33414 z"
         id="path3525-1-4" />
      <path
         style="color:#000000;mix-blend-mode:normal;fill:#fefc1b;fill-opacity:0.524633;fill-rule:evenodd;stroke-width:1.60265;stroke-linecap:round;-inkscape-stroke:none"
         d="m -107.36804,-668.49152 a 4.0066108,4.0066108 0 0 1 1.57019,-2.63196 c 12.258973,-9.13328 27.918541,-12.42158 42.815224,-8.98849 14.893633,3.43242 27.532601,13.23701 34.558566,26.81043 a 4.0066108,4.0066108 0 0 1 -1.717207,5.40224 4.0066108,4.0066108 0 0 1 -5.399261,-1.71655 c -5.947163,-11.48929 -16.634833,-19.78218 -29.241658,-22.68766 -12.609403,-2.90589 -25.852799,-0.1255 -36.229474,7.60564 a 4.0066108,4.0066108 0 0 1 -5.60592,-0.81975 4.0066108,4.0066108 0 0 1 -0.75046,-2.9739 z"
         id="path3521-0-6" />
      <path
         style="color:#000000;mix-blend-mode:normal;fill:#fefc1b;fill-opacity:0.524633;fill-rule:evenodd;stroke-width:1.60265;stroke-linecap:round;-inkscape-stroke:none"
         d="m -142.35192,-621.61864 a 4.0066108,4.0066108 0 0 1 3.5278,-4.43582 4.0066108,4.0066108 0 0 1 4.43338,3.52404 c 2.89365,25.30695 21.39309,46.01764 46.214339,51.73806 24.821953,5.72043 50.51956,-4.80365 64.197226,-26.29253 a 4.0066108,4.0066108 0 0 1 5.53235,-1.23063 4.0066108,4.0066108 0 0 1 1.227491,5.53164 c -15.485013,24.32852 -44.654749,36.27633 -72.756627,29.79998 -28.101099,-6.47621 -49.099959,-29.98376 -52.375959,-58.63474 z"
         id="path3517-1-9" />
      <path
         style="color:#000000;mix-blend-mode:normal;fill:#fefc1b;fill-opacity:0.524633;fill-rule:evenodd;stroke-width:1.60265;stroke-linecap:round;-inkscape-stroke:none"
         d="m -119.8822,-678.80861 a 4.0066108,4.0066108 0 0 1 1.41369,-2.7194 c 16.37223,-13.74141 38.256272,-19.0013 59.084991,-14.20101 20.795835,4.79259 38.149226,19.06094 46.869486,38.53897 a 4.0066108,4.0066108 0 0 1 -2.019887,5.29402 4.0066108,4.0066108 0 0 1 -5.294697,-2.01692 c -7.697012,-17.19231 -22.998873,-29.77731 -41.354462,-34.00761 -18.384642,-4.23692 -37.682948,0.40076 -52.134041,12.5298 a 4.0066108,4.0066108 0 0 1 -5.64312,-0.49104 4.0066108,4.0066108 0 0 1 -0.92196,-2.92681 z"
         id="path3513-3-2" />
      <path
         style="color:#000000;mix-blend-mode:normal;fill:#fefc1b;fill-opacity:0.524633;fill-rule:evenodd;stroke-width:1.60265;stroke-linecap:round;-inkscape-stroke:none"
         d="m -156.49481,-615.29275 a 4.0066108,4.0066108 0 0 1 2.53686,-1.72505 4.0066108,4.0066108 0 0 1 4.73711,3.11221 c 6.03683,29.1257 28.46037,52.05045 57.445332,58.73028 28.996355,6.68254 59.202321,-4.12896 77.374947,-27.6917 a 4.0066108,4.0066108 0 0 1 5.6214096,-0.72502 4.0066108,4.0066108 0 0 1 0.7249814,5.62151 c -20.072945,26.02657 -53.492365,37.98505 -85.520898,30.60367 -32.015952,-7.37827 -56.823912,-32.74176 -63.492012,-64.91314 a 4.0066108,4.0066108 0 0 1 0.5723,-3.01276 z"
         id="path3509-7-90" />
      <path
         style="color:#000000;mix-blend-mode:normal;fill:#fefc1b;fill-opacity:0.524633;fill-rule:evenodd;stroke-width:1.60265;stroke-linecap:round;-inkscape-stroke:none"
         d="m -130.2089,-691.06286 a 4.0066108,4.0066108 0 0 1 1.41441,-2.72251 c 20.22716,-16.98924 47.269399,-23.49298 73.010078,-17.56084 25.703435,5.92365 47.148079,23.56733 57.9148225,47.64715 a 4.0066108,4.0066108 0 0 1 -2.02224833,5.29025 4.0066108,4.0066108 0 0 1 -5.29398207,-2.01989 c -9.7440211,-21.79249 -29.1362451,-37.74796 -52.3981531,-43.10891 -23.295642,-5.36878 -47.750237,0.51465 -66.056087,15.89016 a 4.0066108,4.0066108 0 0 1 -5.64617,-0.49171 4.0066108,4.0066108 0 0 1 -0.92267,-2.9237 z"
         id="path3505-7-3" />
      <path
         style="color:#000000;mix-blend-mode:normal;fill:#fefc1b;fill-opacity:0.524633;fill-rule:evenodd;stroke-width:1.60265;stroke-linecap:round;-inkscape-stroke:none"
         d="m -170.42202,-599.92304 a 4.0066108,4.0066108 0 0 1 2.65087,-5.00728 4.0066108,4.0066108 0 0 1 5.00654,2.65396 c 9.66527,31.4384 35.33952,55.33173 67.389982,62.7181 32.065547,7.38988 65.620026,-2.87053 88.0694314,-26.92944 a 4.0066108,4.0066108 0 0 1 5.663105,-0.19498 4.0066108,4.0066108 0 0 1 0.1987366,5.66065 c -24.392405,26.14126 -60.88999,37.30172 -95.730819,29.27237 -34.824476,-8.02571 -62.746026,-34.01396 -73.247846,-68.17338 z"
         id="path3501-2-0" />
      <path
         style="color:#000000;mix-blend-mode:normal;fill:#fefc1b;fill-opacity:0.524633;fill-rule:evenodd;stroke-width:1.60265;stroke-linecap:round;-inkscape-stroke:none"
         d="m -136.93252,-707.82864 c 23.86617,-18.93329 55.061246,-25.97597 84.747214,-19.13461 29.67145,6.83811 54.6264517,26.80934 67.803957,54.25937 a 4.0066108,4.0066108 0 0 1 -1.877703,5.34598 4.0066108,4.0066108 0 0 1 -5.3453392,-1.88063 c -12.1257715,-25.25932 -35.0771598,-43.62384 -62.3804608,-49.91613 -27.316673,-6.2954 -56.005438,0.18162 -77.966798,17.60374 a 4.0066108,4.0066108 0 0 1 -5.62932,-0.64838 4.0066108,4.0066108 0 0 1 0.64845,-5.62934 z"
         id="path3497-6-3" />
      <path
         style="color:#000000;mix-blend-mode:normal;fill:#fefc1b;fill-opacity:0.524633;fill-rule:evenodd;stroke-width:1.60265;stroke-linecap:round;-inkscape-stroke:none"
         d="m -181.83499,-587.46233 a 4.0066108,4.0066108 0 0 1 2.15947,-2.17803 4.0066108,4.0066108 0 0 1 5.24312,2.14308 c 13.46737,32.09231 41.54412,55.74019 75.458665,63.55607 33.923562,7.81804 69.525105,-1.16424 95.6814191,-24.13771 a 4.0066108,4.0066108 0 0 1 5.655292,0.36865 4.0066108,4.0066108 0 0 1 -0.3648048,5.65296 c -28.0877363,24.66977 -66.3429423,34.32 -102.7714513,25.9247 -36.41888,-8.39315 -66.5842,-33.79955 -81.04603,-68.26163 a 4.0066108,4.0066108 0 0 1 -0.0156,-3.06809 z"
         id="path3493-4-3" />
      <path
         style="color:#000000;mix-blend-mode:normal;fill:#fefc1b;fill-opacity:0.524633;fill-rule:evenodd;stroke-width:1.60265;stroke-linecap:round;-inkscape-stroke:none"
         d="m -142.685,-723.56754 c 27.15769,-19.60366 61.46043,-26.53461 94.098815,-19.01276 32.626861,7.51915 60.428893,28.75285 76.27029,58.2503 a 4.0066108,4.0066108 0 0 1 -1.632507,5.42505 4.0066108,4.0066108 0 0 1 -5.428083,-1.63329 c -14.7510039,-27.46704 -40.628199,-47.23194 -71.00926,-54.23361 -30.391776,-7.00409 -62.321375,-0.55338 -87.609715,17.70077 a 4.0066108,4.0066108 0 0 1 -5.59304,-0.90341 4.0066108,4.0066108 0 0 1 0.9035,-5.59305 z"
         id="path3489-5-7" />
      <path
         style="color:#000000;mix-blend-mode:normal;fill:#fefc1b;fill-opacity:0.524633;fill-rule:evenodd;stroke-width:1.60265;stroke-linecap:round;-inkscape-stroke:none"
         d="m -190.81194,-568.58099 a 4.0066108,4.0066108 0 0 1 1.914,-2.39529 4.0066108,4.0066108 0 0 1 5.44143,1.57527 c 17.05111,30.93494 46.4629,53.14439 80.88367,61.07699 34.442289,7.93746 70.628896,0.82703 99.5072334,-19.55238 a 4.0066108,4.0066108 0 0 1 5.5827359,0.9621 4.0066108,4.0066108 0 0 1 -0.9628771,5.5859 c -30.7378102,21.69155 -69.2666172,29.26157 -105.9266522,20.81283 -36.63713,-8.44334 -67.95247,-32.08933 -86.1015,-65.01623 a 4.0066108,4.0066108 0 0 1 -0.33804,-3.04919 z"
         id="path3485-2-9" />
      <path
         style="color:#000000;mix-blend-mode:normal;fill:#fefc1b;fill-opacity:0.524633;fill-rule:evenodd;stroke-width:1.60265;stroke-linecap:round;-inkscape-stroke:none"
         d="m -147.4124,-738.40208 a 4.0066108,4.0066108 0 0 1 1.76076,-2.51093 c 29.88368,-19.01236 66.150309,-25.23853 100.664562,-17.28434 34.485052,7.94731 64.349139,29.39165 82.901373,59.5279 a 4.0066108,4.0066108 0 0 1 -1.312002,5.51167 4.0066108,4.0066108 0 0 1 -5.511759,-1.312 c -17.429482,-28.31242 -45.479072,-48.45259 -77.877173,-55.91912 -32.425547,-7.47273 -66.489431,-1.62249 -94.564621,16.23925 a 4.0066108,4.0066108 0 0 1 -5.53073,-1.22955 4.0066108,4.0066108 0 0 1 -0.53041,-3.02288 z"
         id="path3481-0-4" />
      <path
         style="color:#000000;mix-blend-mode:normal;fill:#fefc1b;fill-opacity:0.524633;fill-rule:evenodd;stroke-width:1.60265;stroke-linecap:round;-inkscape-stroke:none"
         d="m -195.8878,-546.01261 a 4.0066108,4.0066108 0 0 1 1.61856,-2.60471 4.0066108,4.0066108 0 0 1 5.59117,0.92568 c 19.88961,27.76497 49.2245,47.31466 82.50612,54.98467 33.272312,7.66771 68.197424,2.9322 98.2275926,-13.31676 a 4.0066108,4.0066108 0 0 1 5.4285557,1.61723 4.0066108,4.0066108 0 0 1 -1.6148975,5.4322 c -31.7443668,17.17666 -68.6692468,22.18137 -103.8408108,14.07578 -35.18138,-8.10775 -66.19834,-28.77768 -87.22329,-58.12764 a 4.0066108,4.0066108 0 0 1 -0.693,-2.98645 z"
         id="path3475-2-9" />
      <path
         style="color:#000000;mix-blend-mode:normal;fill:#fefc1b;fill-opacity:0.524633;fill-rule:evenodd;stroke-width:1.60265;stroke-linecap:round;-inkscape-stroke:none"
         d="m -147.26193,-757.30029 a 4.0066108,4.0066108 0 0 1 1.93324,-2.38111 c 25.43305,-13.78729 54.343393,-19.83467 83.169699,-17.39095 6.991718,0.59252 13.933428,1.68228 20.771019,3.25781 9.680871,2.23107 19.114238,5.42896 28.155286,9.54673 23.589065,10.7439 43.949132,27.48539 59.048518,48.55393 a 4.0066108,4.0066108 0 0 1 -0.922503,5.59197 4.0066108,4.0066108 0 0 1 -5.591871,-0.92257 c -14.283431,-19.92994 -33.5421734,-35.76627 -55.856506,-45.92953 -8.552344,-3.89525 -17.474889,-6.92151 -26.632484,-9.03194 -6.467983,-1.49052 -13.032433,-2.51848 -19.646217,-3.07901 -27.268784,-2.31162 -54.617961,3.40543 -78.676851,16.44773 a 4.0066108,4.0066108 0 0 1 -5.4323,-1.61494 4.0066108,4.0066108 0 0 1 -0.31903,-3.04812 z"
         id="path3471-9-9" />
    </g>
  </g>
</svg>
