<?xml version="1.0" encoding="UTF-8" standalone="no"?>
<!-- Created with Inkscape (http://www.inkscape.org/) -->

<svg
   width="120mm"
   height="120mm"
   viewBox="0 0 120 120"
   version="1.1"
   id="svg5"
   inkscape:version="1.2.1 (9c6d41e410, 2022-07-14)"
   sodipodi:docname="chiaroscuro.svg"
   xmlns:inkscape="http://www.inkscape.org/namespaces/inkscape"
   xmlns:sodipodi="http://sodipodi.sourceforge.net/DTD/sodipodi-0.dtd"
   xmlns:xlink="http://www.w3.org/1999/xlink"
   xmlns="http://www.w3.org/2000/svg"
   xmlns:svg="http://www.w3.org/2000/svg">
  <sodipodi:namedview
     id="namedview7"
     pagecolor="#ffffff"
     bordercolor="#111111"
     borderopacity="1"
     inkscape:showpageshadow="0"
     inkscape:pageopacity="0"
     inkscape:pagecheckerboard="1"
     inkscape:deskcolor="#d1d1d1"
     inkscape:document-units="mm"
     showgrid="false"
     inkscape:zoom="3.3638608"
     inkscape:cx="347.07143"
     inkscape:cy="385.27159"
     inkscape:window-width="4500"
     inkscape:window-height="2980"
     inkscape:window-x="0"
     inkscape:window-y="20"
     inkscape:window-maximized="1"
     inkscape:current-layer="layer1">
    <inkscape:grid
       type="xygrid"
       id="grid686"
       dotted="true"
       originx="-19.780065"
       originy="-39.35315" />
  </sodipodi:namedview>
  <defs
     id="defs2">
    <linearGradient
       inkscape:collect="always"
       id="linearGradient1137">
      <stop
         style="stop-color:#001455;stop-opacity:1;"
         offset="0"
         id="stop1133" />
      <stop
         style="stop-color:#40005e;stop-opacity:1;"
         offset="1"
         id="stop1135" />
    </linearGradient>
    <linearGradient
       inkscape:collect="always"
       xlink:href="#linearGradient1137"
       id="linearGradient1139"
       x1="80"
       y1="60"
       x2="80"
       y2="140"
       gradientUnits="userSpaceOnUse"
       gradientTransform="translate(-26.737546,15.754126)" />
    <clipPath
       clipPathUnits="userSpaceOnUse"
       id="clipPath1406">
      <circle
         style="mix-blend-mode:normal;fill:none;fill-opacity:1;stroke:#000000;stroke-width:0.01;stroke-opacity:1;stop-color:#000000"
         id="circle1408"
         cx="53.262455"
         cy="115.75413"
         r="40"
         transform="rotate(-14.055499)" />
    </clipPath>
  </defs>
  <g
     inkscape:label="Layer 1"
     inkscape:groupmode="layer"
     id="layer1"
     transform="translate(-19.780065,-39.353149)">
    <g
       id="g1381"
       clip-path="url(#clipPath1406)"
       transform="matrix(1.5,0,0,1.5,-39.890033,-49.676575)">
      <circle
         style="mix-blend-mode:normal;fill:url(#linearGradient1139);fill-opacity:1;stroke:none;stroke-width:0.01;stroke-opacity:1;stop-color:#000000"
         id="path790"
         cx="53.262455"
         cy="115.75413"
         r="40"
         transform="rotate(-14.055499)" />
      <path
         id="path790-6"
         style="opacity:0.305366;mix-blend-mode:luminosity;fill:#ffd40e;fill-opacity:1;stroke:none;stroke-width:0.01;stop-color:#000000"
         d="m 51.000158,127.1303 a 40,40 0 0 0 38.494205,11.02558 40,40 0 0 0 29.088077,-48.517079 40,40 0 0 0 -27.863091,-28.75762 40,40 0 0 1 0.204863,0.209741 40,40 0 0 1 0.700499,0.755275 40,40 0 0 1 0.680444,0.773082 40,40 0 0 1 0.660272,0.790383 40,40 0 0 1 0.63948,0.807309 40,40 0 0 1 0.619047,0.823611 40,40 0 0 1 0.597375,0.83916 40,40 0 0 1 0.575566,0.854207 40,40 0 0 1 0.553642,0.868752 40,40 0 0 1 0.530458,0.882548 40,40 0 0 1 0.508274,0.896092 40,40 0 0 1 0.484344,0.909009 40,40 0 0 1 0.461163,0.920671 40,40 0 0 1 0.437476,0.932462 40,40 0 0 1 0.413171,0.943874 40,40 0 0 1 0.388479,0.953785 40,40 0 0 1 0.36429,0.963569 40,40 0 0 1 0.338853,0.972602 40,40 0 0 1 0.313845,0.980995 40,40 0 0 1 0.28848,0.988407 40,40 0 0 1 0.26313,0.995823 40,40 0 0 1 0.61725,2.927211 40,40 0 0 1 0.39705,2.964765 40,40 0 0 1 0.17446,2.986394 40,40 0 0 1 -0.0493,2.990731 40,40 0 0 1 -0.27272,2.979023 40,40 0 0 1 -0.49471,2.949892 40,40 0 0 1 -0.71318,2.904976 40,40 0 0 1 -0.92889,2.84339 40,40 0 0 1 -1.138356,2.76637 40,40 0 0 1 -1.342302,2.67307 40,40 0 0 1 -1.53811,2.56548 40,40 0 0 1 -1.725778,2.44358 40,40 0 0 1 -1.90317,2.30741 40,40 0 0 1 -2.070791,2.15919 40,40 0 0 1 -2.225631,1.99819 40,40 0 0 1 -2.369449,1.82591 40,40 0 0 1 -2.498603,1.64408 40,40 0 0 1 -2.615226,1.45276 40,40 0 0 1 -2.715688,1.25361 40,40 0 0 1 -2.80211,1.04674 40,40 0 0 1 -2.872871,0.83431 40,40 0 0 1 -2.926586,0.61762 40,40 0 0 1 -2.964764,0.39705 40,40 0 0 1 -2.986519,0.17397 40,40 0 0 1 -2.990732,-0.0493 40,40 0 0 1 -2.979024,-0.27273 40,40 0 0 1 -2.950272,-0.49407 40,40 0 0 1 -2.856341,-0.70191 z" />
      <path
         id="path1360"
         style="mix-blend-mode:normal;fill:#ac0025;fill-opacity:0.63788;stroke:none;stroke-width:0.01;stop-color:#000000"
         d="m 61.378583,86.874796 a 30.000002,30.000002 0 0 0 -8.116112,-1.120454 30.000002,30.000002 0 0 0 -30.000196,29.999708 30.000002,30.000002 0 0 0 13.885496,25.30266 30.000002,30.000002 0 0 0 16.114714,4.69766 30.000002,30.000002 0 0 0 28.091731,-19.53398 40,40 84.663994 0 0 0.130156,-0.5518 40,40 84.663994 0 0 0.184657,-0.86524 40,40 84.663994 0 0 0.165482,-0.86951 40,40 84.663994 0 0 0.146057,-0.87277 40,40 84.663994 0 0 0.127132,-0.87592 40,40 84.663994 0 0 0.107455,-0.87818 40,40 84.663994 0 0 0.08778,-0.88044 40,40 84.663994 0 0 0.0686,-0.88257 40,40 84.663994 0 0 0.04855,-0.88334 40,40 84.663994 0 0 0.02962,-0.88435 40,40 84.663994 0 0 0.0096,-0.8851 40,40 84.663994 0 0 -0.08585,-2.619 40,40 84.663994 0 0 -0.257436,-2.60816 40,40 84.663994 0 0 -0.427272,-2.58515 40,40 84.663994 0 0 -0.595982,-2.55175 40,40 84.663994 0 0 -0.762064,-2.50755 40,40 84.663994 0 0 -0.924013,-2.45222 40,40 84.663994 0 0 -0.942063,-2.075844 30.000002,30.000002 0 0 0 -13.218685,-11.23723 30.000002,30.000002 0 0 0 -3.867337,-1.37947 z"
         transform="rotate(-14.055499)" />
      <path
         id="path790-6-7"
         style="opacity:0.326248;mix-blend-mode:luminosity;fill:#ffd40e;fill-opacity:1;stroke:none;stroke-width:0.01;stop-color:#000000"
         d="m 40.796874,130.85684 a 40,40 0 0 0 38.494204,11.02558 40,40 0 0 0 29.088052,-48.517066 40,40 0 0 0 -27.863066,-28.757628 40,40 0 0 1 0.204865,0.209741 40,40 0 0 1 0.700499,0.755274 40,40 0 0 1 0.680444,0.773082 40,40 0 0 1 0.660272,0.790384 40,40 0 0 1 0.63948,0.807309 40,40 0 0 1 0.619047,0.823611 40,40 0 0 1 0.597375,0.839159 40,40 0 0 1 0.575566,0.854207 40,40 0 0 1 0.553642,0.868753 40,40 0 0 1 0.530458,0.882547 40,40 0 0 1 0.508274,0.896092 40,40 0 0 1 0.484344,0.909009 40,40 0 0 1 0.461165,0.920671 40,40 0 0 1 0.437477,0.932462 40,40 0 0 1 0.413168,0.943875 40,40 0 0 1 0.388479,0.953785 40,40 0 0 1 0.36429,0.963569 40,40 0 0 1 0.338853,0.972601 40,40 0 0 1 0.313842,0.980995 40,40 0 0 1 0.288483,0.988408 40,40 0 0 1 0.263125,0.995823 40,40 0 0 1 0.617257,2.927211 40,40 0 0 1 0.397045,2.964764 40,40 0 0 1 0.174467,2.986393 40,40 0 0 1 -0.04925,2.990732 40,40 0 0 1 -0.272724,2.979024 40,40 0 0 1 -0.494705,2.949893 40,40 0 0 1 -0.713179,2.90498 40,40 0 0 1 -0.928894,2.84339 40,40 0 0 1 -1.138356,2.76636 40,40 0 0 1 -1.342302,2.67308 40,40 0 0 1 -1.53811,2.56547 40,40 0 0 1 -1.725777,2.44358 40,40 0 0 1 -1.90317,2.30741 40,40 0 0 1 -2.070792,2.15919 40,40 0 0 1 -2.225631,1.9982 40,40 0 0 1 -2.369449,1.8259 40,40 0 0 1 -2.498603,1.64409 40,40 0 0 1 -2.615226,1.45275 40,40 0 0 1 -2.715688,1.25362 40,40 0 0 1 -2.802109,1.04673 40,40 0 0 1 -2.872872,0.83431 40,40 0 0 1 -2.926586,0.61763 40,40 0 0 1 -2.964764,0.39704 40,40 0 0 1 -2.986519,0.17397 40,40 0 0 1 -2.990732,-0.0493 40,40 0 0 1 -2.979023,-0.27272 40,40 0 0 1 -2.950272,-0.49408 40,40 0 0 1 -2.856341,-0.70191 z" />
    </g>
  </g>
</svg>
