<?xml version="1.0" encoding="UTF-8" standalone="no"?>
<svg
   xmlns:dc="http://purl.org/dc/elements/1.1/"
   xmlns:cc="http://creativecommons.org/ns#"
   xmlns:rdf="http://www.w3.org/1999/02/22-rdf-syntax-ns#"
   xmlns:svg="http://www.w3.org/2000/svg"
   xmlns="http://www.w3.org/2000/svg"
   xmlns:xlink="http://www.w3.org/1999/xlink"
   xmlns:sodipodi="http://sodipodi.sourceforge.net/DTD/sodipodi-0.dtd"
   xmlns:inkscape="http://www.inkscape.org/namespaces/inkscape"
   sodipodi:docname="guilltoine.svg"
   inkscape:version="1.0 (4035a4fb49, 2020-05-01)"
   id="svg8"
   version="1.1"
   viewBox="0 0 120 120"
   height="120mm"
   width="120mm">
  <defs
     id="defs2">
    <linearGradient
       id="linearGradient1197"
       inkscape:collect="always">
      <stop
         id="stop1193"
         offset="0"
         style="stop-color:#cd2a22;stop-opacity:1;" />
      <stop
         id="stop1195"
         offset="1"
         style="stop-color:#e7756f;stop-opacity:1" />
    </linearGradient>
    <linearGradient
       id="linearGradient1189"
       inkscape:collect="always">
      <stop
         id="stop1185"
         offset="0"
         style="stop-color:#ee7c47;stop-opacity:1;" />
      <stop
         id="stop1187"
         offset="1"
         style="stop-color:#f7c1a7;stop-opacity:1" />
    </linearGradient>
    <linearGradient
       id="linearGradient1181"
       inkscape:collect="always">
      <stop
         id="stop1177"
         offset="0"
         style="stop-color:#f6be54;stop-opacity:1;" />
      <stop
         id="stop1179"
         offset="1"
         style="stop-color:#fbe3b6;stop-opacity:1" />
    </linearGradient>
    <linearGradient
       id="linearGradient1169"
       inkscape:collect="always">
      <stop
         id="stop1165"
         offset="0"
         style="stop-color:#96c4a2;stop-opacity:1;" />
      <stop
         id="stop1167"
         offset="1"
         style="stop-color:#d6ebdd;stop-opacity:1" />
    </linearGradient>
    <linearGradient
       id="linearGradient1161"
       inkscape:collect="always">
      <stop
         id="stop1157"
         offset="0"
         style="stop-color:#60a8a2;stop-opacity:1;" />
      <stop
         id="stop1159"
         offset="1"
         style="stop-color:#9fd0ca;stop-opacity:1" />
    </linearGradient>
    <linearGradient
       id="linearGradient1145"
       inkscape:collect="always">
      <stop
         id="stop1141"
         offset="0"
         style="stop-color:#814a00;stop-opacity:1;" />
      <stop
         id="stop1143"
         offset="1"
         style="stop-color:#211200;stop-opacity:1" />
    </linearGradient>
    <radialGradient
       gradientUnits="userSpaceOnUse"
       gradientTransform="matrix(2.4714748,0.82381961,-0.3288001,0.98639966,-107.14816,-69.773864)"
       r="24.140823"
       fy="64.872231"
       fx="87.3125"
       cy="64.872231"
       cx="87.3125"
       id="radialGradient1147"
       xlink:href="#linearGradient1145"
       inkscape:collect="always" />
    <radialGradient
       gradientUnits="userSpaceOnUse"
       gradientTransform="matrix(-5.620554e-7,3.9327245,-1.7755637,-6.8907603e-6,212.46069,-253.77317)"
       r="6.727736"
       fy="73.463882"
       fx="82.020836"
       cy="73.463882"
       cx="82.020836"
       id="radialGradient1163"
       xlink:href="#linearGradient1161"
       inkscape:collect="always" />
    <radialGradient
       gradientUnits="userSpaceOnUse"
       gradientTransform="matrix(2.9505163e-7,2.3049846,-1.5151633,-2.1580242e-5,211.33875,-139.36615)"
       r="12.626621"
       fy="78.364235"
       fx="92.604164"
       cy="78.364235"
       cx="92.604164"
       id="radialGradient1171"
       xlink:href="#linearGradient1169"
       inkscape:collect="always" />
    <radialGradient
       gradientUnits="userSpaceOnUse"
       gradientTransform="matrix(1.4010419,0.53886247,-0.27994843,0.72786501,-13.706888,-27.694191)"
       r="24.55018"
       fy="87.4888"
       fx="95.25"
       cy="87.4888"
       cx="95.25"
       id="radialGradient1183"
       xlink:href="#linearGradient1181"
       inkscape:collect="always" />
    <radialGradient
       gradientUnits="userSpaceOnUse"
       gradientTransform="matrix(0.90000038,-0.50000007,0.35141255,0.63254352,-22.488517,86.838155)"
       r="26.45833"
       fy="94.863983"
       fx="108.47916"
       cy="94.863983"
       cx="108.47916"
       id="radialGradient1191"
       xlink:href="#linearGradient1189"
       inkscape:collect="always" />
    <radialGradient
       gradientUnits="userSpaceOnUse"
       gradientTransform="matrix(0.39999979,-0.59999983,0.60207404,0.40138357,20.926783,122.43024)"
       r="26.458336"
       fy="83.894577"
       fx="119.0625"
       cy="83.894577"
       cx="119.0625"
       id="radialGradient1199"
       xlink:href="#linearGradient1197"
       inkscape:collect="always" />
    <clipPath
       id="clipPath1227"
       clipPathUnits="userSpaceOnUse">
      <circle
         style="opacity:0.704159;fill:#e7756f;fill-opacity:0;stroke:#212121;stroke-width:0.101;stroke-linecap:round;stroke-linejoin:bevel;stroke-miterlimit:4;stroke-dasharray:none;stroke-dashoffset:0.907087;stroke-opacity:1"
         id="circle1229"
         cx="105.83333"
         cy="79.375"
         r="26.458334" />
    </clipPath>
  </defs>
  <sodipodi:namedview
     inkscape:window-maximized="1"
     inkscape:window-y="23"
     inkscape:window-x="1500"
     inkscape:window-height="2975"
     inkscape:window-width="2998"
     inkscape:pagecheckerboard="true"
     fit-margin-bottom="0"
     fit-margin-right="0"
     fit-margin-left="0"
     fit-margin-top="0"
     inkscape:bbox-nodes="true"
     inkscape:snap-bbox="true"
     showgrid="true"
     inkscape:document-rotation="0"
     inkscape:current-layer="layer1"
     inkscape:document-units="mm"
     inkscape:cy="210.34619"
     inkscape:cx="244.26514"
     inkscape:zoom="1.7568408"
     inkscape:pageshadow="2"
     inkscape:pageopacity="0.0"
     borderopacity="1.0"
     bordercolor="#666666"
     pagecolor="#ffffff"
     id="base">
    <inkscape:grid
       originy="-19.374997"
       originx="-45.833331"
       id="grid833"
       type="xygrid" />
  </sodipodi:namedview>
  <metadata
     id="metadata5">
    <rdf:RDF>
      <cc:Work
         rdf:about="">
        <dc:format>image/svg+xml</dc:format>
        <dc:type
           rdf:resource="http://purl.org/dc/dcmitype/StillImage" />
        <dc:title></dc:title>
      </cc:Work>
    </rdf:RDF>
  </metadata>
  <g
     transform="translate(-45.833331,-19.374997)"
     id="layer1"
     inkscape:groupmode="layer"
     inkscape:label="Layer 1">
    <g
       transform="matrix(2.2677167,0,0,2.2677167,-134.16668,-100.62501)"
       clip-path="url(#clipPath1227)"
       id="g1219">
      <path
         id="path867"
         style="fill:url(#radialGradient1147);fill-opacity:1;stroke:#212121;stroke-width:0.0010201;stroke-linecap:round;stroke-linejoin:bevel;stroke-dashoffset:0.907087;stroke-opacity:1"
         d="M 105.83333,52.517808 A 26.990143,26.990143 0 0 0 81.692966,67.437771 l 12.069656,6.034826 a 13.495073,13.495073 0 0 0 -1.424362,6.035356 13.495073,13.495073 0 0 0 13.49507,13.495072 13.495073,13.495073 0 0 0 13.49507,-13.495072 13.495073,13.495073 0 0 0 -1.42488,-6.035356 L 129.9737,67.437771 A 26.990143,26.990143 0 0 0 105.83333,52.517808 Z" />
      <path
         id="path864-2-6-1-8"
         style="opacity:0.306144;fill:#000000;fill-opacity:1;stroke:none;stroke-width:0.001;stroke-linecap:round;stroke-linejoin:bevel;stroke-dashoffset:0.907087;stroke-opacity:1"
         d="m 84.285292,65.425981 a 26.458332,26.458332 0 0 0 -2.793627,11.832352 26.458332,26.458332 0 0 0 26.458315,26.458347 26.458332,26.458332 0 0 0 26.45834,-26.458347 26.458332,26.458332 0 0 0 -2.79363,-11.832352 l -11.83236,5.915916 a 13.229167,13.229167 0 0 1 0.063,0.127125 13.229167,13.229167 0 0 1 0.0677,0.14211 13.229167,13.229167 0 0 1 0.0667,0.142626 13.229167,13.229167 0 0 1 0.0646,0.143145 13.229167,13.229167 0 0 1 0.0625,0.144177 13.229167,13.229167 0 0 1 0.0615,0.145211 13.229167,13.229167 0 0 1 0.0594,0.145727 13.229167,13.229167 0 0 1 0.0574,0.146244 13.229167,13.229167 0 0 1 0.0563,0.146761 13.229167,13.229167 0 0 1 0.0543,0.147797 13.229167,13.229167 0 0 1 0.0522,0.148309 13.229167,13.229167 0 0 1 0.0506,0.148828 13.229167,13.229167 0 0 1 0.0491,0.149863 13.229167,13.229167 0 0 1 0.047,0.14986 13.229167,13.229167 0 0 1 0.0455,0.150897 13.229167,13.229167 0 0 1 0.0434,0.150895 13.229167,13.229167 0 0 1 0.0419,0.151929 13.229167,13.229167 0 0 1 0.0398,0.151929 13.229167,13.229167 0 0 1 0.0382,0.152961 13.229167,13.229167 0 0 1 0.0362,0.152963 13.229167,13.229167 0 0 1 0.0346,0.153477 13.229167,13.229167 0 0 1 0.0326,0.153998 13.229167,13.229167 0 0 1 0.031,0.153995 13.229167,13.229167 0 0 1 0.0289,0.154512 13.229167,13.229167 0 0 1 0.0274,0.15503 13.229167,13.229167 0 0 1 0.0253,0.155546 13.229167,13.229167 0 0 1 0.0233,0.155546 13.229167,13.229167 0 0 1 0.0217,0.155546 13.229167,13.229167 0 0 1 0.0196,0.156062 13.229167,13.229167 0 0 1 0.0181,0.15658 13.229167,13.229167 0 0 1 0.016,0.15658 13.229167,13.229167 0 0 1 0.0139,0.156581 13.229167,13.229167 0 0 1 0.0124,0.156578 13.229167,13.229167 0 0 1 0.0104,0.157096 13.229167,13.229167 0 0 1 0.009,0.157096 13.229167,13.229167 0 0 1 0.007,0.157097 13.229167,13.229167 0 0 1 0.005,0.157096 13.229167,13.229167 0 0 1 0.003,0.157615 13.229167,13.229167 0 0 1 10e-4,0.157096 13.229167,13.229167 0 0 1 0,0.01394 13.229167,13.229167 0 0 1 -10e-4,0.157096 13.229167,13.229167 0 0 1 -0.003,0.157613 13.229167,13.229167 0 0 1 -0.005,0.157096 13.229167,13.229167 0 0 1 -0.007,0.157096 13.229167,13.229167 0 0 1 -0.008,0.157097 13.229167,13.229167 0 0 1 -0.0104,0.157096 13.229167,13.229167 0 0 1 -0.0124,0.157096 13.229167,13.229167 0 0 1 -0.0139,0.156581 13.229167,13.229167 0 0 1 -0.0155,0.15658 13.229167,13.229167 0 0 1 -0.0181,0.156062 13.229167,13.229167 0 0 1 -0.0196,0.156062 13.229167,13.229167 0 0 1 -0.0212,0.156064 13.229167,13.229167 0 0 1 -0.0233,0.155546 13.229167,13.229167 0 0 1 -0.0253,0.15503 13.229167,13.229167 0 0 1 -0.0269,0.155027 13.229167,13.229167 0 0 1 -0.0289,0.15503 13.229167,13.229167 0 0 1 -0.0305,0.153996 13.229167,13.229167 0 0 1 -0.0326,0.153995 13.229167,13.229167 0 0 1 -0.0346,0.15348 13.229167,13.229167 0 0 1 -0.0362,0.152963 13.229167,13.229167 0 0 1 -0.0377,0.152961 13.229167,13.229167 0 0 1 -0.0398,0.151929 13.229167,13.229167 0 0 1 -0.0419,0.151929 13.229167,13.229167 0 0 1 -0.0434,0.151411 13.229167,13.229167 0 0 1 -0.045,0.150378 13.229167,13.229167 0 0 1 -0.047,0.150379 13.229167,13.229167 0 0 1 -0.0486,0.149347 13.229167,13.229167 0 0 1 -0.0506,0.149344 13.229167,13.229167 0 0 1 -0.0522,0.148312 13.229167,13.229167 0 0 1 -0.0543,0.147794 13.229167,13.229167 0 0 1 -0.0558,0.146761 13.229167,13.229167 0 0 1 -0.0574,0.146762 13.229167,13.229167 0 0 1 -0.0594,0.145727 13.229167,13.229167 0 0 1 -0.061,0.144693 13.229167,13.229167 0 0 1 -0.063,0.144177 13.229167,13.229167 0 0 1 -0.0641,0.14366 13.229167,13.229167 0 0 1 -0.0662,0.142629 13.229167,13.229167 0 0 1 -0.0682,0.142108 13.229167,13.229167 0 0 1 -0.0693,0.141079 13.229167,13.229167 0 0 1 -0.0713,0.140041 13.229167,13.229167 0 0 1 -0.0729,0.139528 13.229167,13.229167 0 0 1 -0.0744,0.138493 13.229167,13.229167 0 0 1 -0.0765,0.137975 13.229167,13.229167 0 0 1 -0.0775,0.136427 13.229167,13.229167 0 0 1 -0.0796,0.135909 13.229167,13.229167 0 0 1 -0.0811,0.134874 13.229167,13.229167 0 0 1 -0.0827,0.133842 13.229167,13.229167 0 0 1 -0.0842,0.132808 13.229167,13.229167 0 0 1 -0.0858,0.131775 13.229167,13.229167 0 0 1 -0.0873,0.13126 13.229167,13.229167 0 0 1 -0.0889,0.129707 13.229167,13.229167 0 0 1 -0.0904,0.128675 13.229167,13.229167 0 0 1 -0.092,0.12764 13.229167,13.229167 0 0 1 -0.0935,0.126608 13.229167,13.229167 0 0 1 -0.0946,0.125056 13.229167,13.229167 0 0 1 -0.0966,0.124539 13.229167,13.229167 0 0 1 -0.0982,0.122992 13.229167,13.229167 0 0 1 -0.0992,0.121957 13.229167,13.229167 0 0 1 -0.10077,0.120922 13.229167,13.229167 0 0 1 -0.10232,0.119372 13.229167,13.229167 0 0 1 -0.10335,0.118341 13.229167,13.229167 0 0 1 -0.10543,0.117303 13.229167,13.229167 0 0 1 -0.10645,0.115755 13.229167,13.229167 0 0 1 -0.10748,0.114723 13.229167,13.229167 0 0 1 -0.10956,0.11317 13.229167,13.229167 0 0 1 -0.11059,0.111623 13.229167,13.229167 0 0 1 -0.11162,0.111104 13.229167,13.229167 0 0 1 -0.11317,0.109037 13.229167,13.229167 0 0 1 -0.1142,0.108003 13.229167,13.229167 0 0 1 -0.11576,0.106455 13.229167,13.229167 0 0 1 -0.1173,0.105418 13.229167,13.229167 0 0 1 -0.11834,0.10387 13.229167,13.229167 0 0 1 -0.11938,0.10232 13.229167,13.229167 0 0 1 -0.1204,0.100769 13.229167,13.229167 0 0 1 -0.12196,0.09973 13.229167,13.229167 0 0 1 -0.12299,0.09767 13.229167,13.229167 0 0 1 -0.12402,0.09664 13.229167,13.229167 0 0 1 -0.12558,0.09508 13.229167,13.229167 0 0 1 -0.1266,0.09405 13.229167,13.229167 0 0 1 -0.12713,0.09199 13.229167,13.229167 0 0 1 -0.12867,0.09043 13.229167,13.229167 0 0 1 -0.12971,0.08888 13.229167,13.229167 0 0 1 -0.13074,0.08785 13.229167,13.229167 0 0 1 -0.13177,0.08578 13.229167,13.229167 0 0 1 -0.13281,0.08423 13.229167,13.229167 0 0 1 -0.13385,0.08268 13.229167,13.229167 0 0 1 -0.13487,0.08113 13.229167,13.229167 0 0 1 -0.13591,0.07958 13.229167,13.229167 0 0 1 -0.13643,0.07803 13.229167,13.229167 0 0 1 -0.13746,0.07648 13.229167,13.229167 0 0 1 -0.13849,0.07441 13.229167,13.229167 0 0 1 -0.13952,0.07338 13.229167,13.229167 0 0 1 -0.14005,0.07131 13.229167,13.229167 0 0 1 -0.14107,0.06976 13.229167,13.229167 0 0 1 -0.14211,0.0677 13.229167,13.229167 0 0 1 -0.14263,0.06666 13.229167,13.229167 0 0 1 -0.14315,0.0646 13.229167,13.229167 0 0 1 -0.14417,0.06253 13.229167,13.229167 0 0 1 -0.14521,0.06149 13.229167,13.229167 0 0 1 -0.14573,0.05943 13.229167,13.229167 0 0 1 -0.14624,0.05736 13.229167,13.229167 0 0 1 -0.14677,0.05633 13.229167,13.229167 0 0 1 -0.14779,0.05426 13.229167,13.229167 0 0 1 -0.14831,0.0522 13.229167,13.229167 0 0 1 -0.14883,0.05064 13.229167,13.229167 0 0 1 -0.14986,0.04909 13.229167,13.229167 0 0 1 -0.14986,0.04703 13.229167,13.229167 0 0 1 -0.1509,0.04547 13.229167,13.229167 0 0 1 -0.15089,0.04341 13.229167,13.229167 0 0 1 -0.15193,0.04186 13.229167,13.229167 0 0 1 -0.15193,0.03979 13.229167,13.229167 0 0 1 -0.15296,0.03824 13.229167,13.229167 0 0 1 -0.15297,0.03617 13.229167,13.229167 0 0 1 -0.15347,0.03462 13.229167,13.229167 0 0 1 -0.154,0.03255 13.229167,13.229167 0 0 1 -0.154,0.03101 13.229167,13.229167 0 0 1 -0.15451,0.02894 13.229167,13.229167 0 0 1 -0.15503,0.02739 13.229167,13.229167 0 0 1 -0.15554,0.02532 13.229167,13.229167 0 0 1 -0.15555,0.02326 13.229167,13.229167 0 0 1 -0.15555,0.0217 13.229167,13.229167 0 0 1 -0.15606,0.01963 13.229167,13.229167 0 0 1 -0.15658,0.0181 13.229167,13.229167 0 0 1 -0.15658,0.01601 13.229167,13.229167 0 0 1 -0.15658,0.01394 13.229167,13.229167 0 0 1 -0.15658,0.01241 13.229167,13.229167 0 0 1 -0.15709,0.01035 13.229167,13.229167 0 0 1 -0.1571,0.0088 13.229167,13.229167 0 0 1 -0.1571,0.0067 13.229167,13.229167 0 0 1 -0.15709,0.0047 13.229167,13.229167 0 0 1 -0.15762,0.0031 13.229167,13.229167 0 0 1 -0.15709,0.0011 13.229167,13.229167 0 0 1 -0.0139,0 13.229167,13.229167 0 0 1 -0.1571,-0.0011 13.229167,13.229167 0 0 1 -0.15761,-0.0026 13.229167,13.229167 0 0 1 -0.1571,-0.0047 13.229167,13.229167 0 0 1 -0.15709,-0.0067 13.229167,13.229167 0 0 1 -0.1571,-0.0083 13.229167,13.229167 0 0 1 -0.1571,-0.01035 13.229167,13.229167 0 0 1 -0.15709,-0.01241 13.229167,13.229167 0 0 1 -0.15658,-0.01394 13.229167,13.229167 0 0 1 -0.15658,-0.01551 13.229167,13.229167 0 0 1 -0.15607,-0.0181 13.229167,13.229167 0 0 1 -0.15606,-0.01963 13.229167,13.229167 0 0 1 -0.15606,-0.02119 13.229167,13.229167 0 0 1 -0.15555,-0.02326 13.229167,13.229167 0 0 1 -0.15503,-0.02532 13.229167,13.229167 0 0 1 -0.15503,-0.02687 13.229167,13.229167 0 0 1 -0.15504,-0.02895 13.229167,13.229167 0 0 1 -0.15399,-0.03049 13.229167,13.229167 0 0 1 -0.15401,-0.03256 13.229167,13.229167 0 0 1 -0.15348,-0.03462 13.229167,13.229167 0 0 1 -0.15348,-0.03617 13.229167,13.229167 0 0 1 -0.15244,-0.03772 13.229167,13.229167 0 0 1 -0.15193,-0.03979 13.229167,13.229167 0 0 1 -0.15193,-0.04186 13.229167,13.229167 0 0 1 -0.15141,-0.04341 13.229167,13.229167 0 0 1 -0.15038,-0.04496 13.229167,13.229167 0 0 1 -0.15038,-0.04702 13.229167,13.229167 0 0 1 -0.14934,-0.04858 13.229167,13.229167 0 0 1 -0.14935,-0.05064 13.229167,13.229167 0 0 1 -0.14831,-0.05219 13.229167,13.229167 0 0 1 -0.14779,-0.05426 13.229167,13.229167 0 0 1 -0.14676,-0.05581 13.229167,13.229167 0 0 1 -0.14677,-0.05736 13.229167,13.229167 0 0 1 -0.14572,-0.05943 13.229167,13.229167 0 0 1 -0.1447,-0.06098 13.229167,13.229167 0 0 1 -0.14417,-0.06305 13.229167,13.229167 0 0 1 -0.14366,-0.06408 13.229167,13.229167 0 0 1 -0.14263,-0.06615 13.229167,13.229167 0 0 1 -0.14211,-0.06821 13.229167,13.229167 0 0 1 -0.14108,-0.06925 13.229167,13.229167 0 0 1 -0.14004,-0.07131 13.229167,13.229167 0 0 1 -0.13953,-0.07286 13.229167,13.229167 0 0 1 -0.1385,-0.07441 13.229167,13.229167 0 0 1 -0.13797,-0.07648 13.229167,13.229167 0 0 1 -0.13643,-0.07751 13.229167,13.229167 0 0 1 -0.13591,-0.07958 13.229167,13.229167 0 0 1 -0.13487,-0.08113 13.229167,13.229167 0 0 1 -0.13384,-0.08268 13.229167,13.229167 0 0 1 -0.13281,-0.08423 13.229167,13.229167 0 0 1 -0.13178,-0.08578 13.229167,13.229167 0 0 1 -0.13126,-0.08733 13.229167,13.229167 0 0 1 -0.1297,-0.08888 13.229167,13.229167 0 0 1 -0.12868,-0.09043 13.229167,13.229167 0 0 1 -0.12764,-0.09198 13.229167,13.229167 0 0 1 -0.12661,-0.09353 13.229167,13.229167 0 0 1 -0.125047,-0.09457 13.229167,13.229167 0 0 1 -0.12454,-0.09663 13.229167,13.229167 0 0 1 -0.12299,-0.09819 13.229167,13.229167 0 0 1 -0.12196,-0.09922 13.229167,13.229167 0 0 1 -0.120917,-0.100769 13.229167,13.229167 0 0 1 -0.11937,-0.10232 13.229167,13.229167 0 0 1 -0.11834,-0.103351 13.229167,13.229167 0 0 1 -0.11731,-0.105421 13.229167,13.229167 0 0 1 -0.115747,-0.106452 13.229167,13.229167 0 0 1 -0.11473,-0.107487 13.229167,13.229167 0 0 1 -0.11317,-0.109554 13.229167,13.229167 0 0 1 -0.11213,-0.110588 13.229167,13.229167 0 0 1 -0.11059,-0.111622 13.229167,13.229167 0 0 1 -0.109037,-0.11317 13.229167,13.229167 0 0 1 -0.108,-0.114205 13.229167,13.229167 0 0 1 -0.10646,-0.115755 13.229167,13.229167 0 0 1 -0.10542,-0.117306 13.229167,13.229167 0 0 1 -0.10387,-0.11834 13.229167,13.229167 0 0 1 -0.102317,-0.119372 13.229167,13.229167 0 0 1 -0.10077,-0.120417 13.229167,13.229167 0 0 1 -0.0997,-0.121957 13.229167,13.229167 0 0 1 -0.0977,-0.122989 13.229167,13.229167 0 0 1 -0.0966,-0.124023 13.229167,13.229167 0 0 1 -0.0951,-0.125574 13.229167,13.229167 0 0 1 -0.0941,-0.126606 13.229167,13.229167 0 0 1 -0.092,-0.127124 13.229167,13.229167 0 0 1 -0.0904,-0.128675 13.229167,13.229167 0 0 1 -0.0889,-0.129709 13.229167,13.229167 0 0 1 -0.0879,-0.130741 13.229167,13.229167 0 0 1 -0.0858,-0.131774 13.229167,13.229167 0 0 1 -0.08423,-0.13281 13.229167,13.229167 0 0 1 -0.08268,-0.133842 13.229167,13.229167 0 0 1 -0.08113,-0.134874 13.229167,13.229167 0 0 1 -0.07958,-0.135908 13.229167,13.229167 0 0 1 -0.07803,-0.136428 13.229167,13.229167 0 0 1 -0.07648,-0.137459 13.229167,13.229167 0 0 1 -0.07441,-0.138493 13.229167,13.229167 0 0 1 -0.07338,-0.139525 13.229167,13.229167 0 0 1 -0.07131,-0.140044 13.229167,13.229167 0 0 1 -0.06976,-0.141076 13.229167,13.229167 0 0 1 -0.0677,-0.142111 13.229167,13.229167 0 0 1 -0.06666,-0.142626 13.229167,13.229167 0 0 1 -0.0646,-0.143145 13.229167,13.229167 0 0 1 -0.06253,-0.144176 13.229167,13.229167 0 0 1 -0.06149,-0.145212 13.229167,13.229167 0 0 1 -0.05943,-0.145727 13.229167,13.229167 0 0 1 -0.05736,-0.146243 13.229167,13.229167 0 0 1 -0.05633,-0.146762 13.229167,13.229167 0 0 1 -0.05426,-0.147796 13.229167,13.229167 0 0 1 -0.05219,-0.14831 13.229167,13.229167 0 0 1 -0.05064,-0.148828 13.229167,13.229167 0 0 1 -0.04909,-0.149862 13.229167,13.229167 0 0 1 -0.04703,-0.14986 13.229167,13.229167 0 0 1 -0.04547,-0.150898 13.229167,13.229167 0 0 1 -0.04341,-0.150894 13.229167,13.229167 0 0 1 -0.04186,-0.151929 13.229167,13.229167 0 0 1 -0.03979,-0.151929 13.229167,13.229167 0 0 1 -0.03824,-0.152961 13.229167,13.229167 0 0 1 -0.03617,-0.152964 13.229167,13.229167 0 0 1 -0.03462,-0.153477 13.229167,13.229167 0 0 1 -0.03255,-0.153998 13.229167,13.229167 0 0 1 -0.03101,-0.153995 13.229167,13.229167 0 0 1 -0.02894,-0.154511 13.229167,13.229167 0 0 1 -0.02739,-0.15503 13.229167,13.229167 0 0 1 -0.02532,-0.155546 13.229167,13.229167 0 0 1 -0.02326,-0.155546 13.229167,13.229167 0 0 1 -0.0217,-0.155546 13.229167,13.229167 0 0 1 -0.01963,-0.156062 13.229167,13.229167 0 0 1 -0.0181,-0.15658 13.229167,13.229167 0 0 1 -0.01601,-0.156581 13.229167,13.229167 0 0 1 -0.01394,-0.15658 13.229167,13.229167 0 0 1 -0.01241,-0.156578 13.229167,13.229167 0 0 1 -0.01034,-0.157096 13.229167,13.229167 0 0 1 -0.0088,-0.157097 13.229167,13.229167 0 0 1 -0.0067,-0.157096 13.229167,13.229167 0 0 1 -0.0047,-0.157096 13.229167,13.229167 0 0 1 -0.0031,-0.157615 13.229167,13.229167 0 0 1 -0.0011,-0.157097 13.229167,13.229167 0 0 1 0,-0.01394 13.229167,13.229167 0 0 1 0.0011,-0.157097 13.229167,13.229167 0 0 1 0.0026,-0.157612 13.229167,13.229167 0 0 1 0.0047,-0.157096 13.229167,13.229167 0 0 1 0.0067,-0.157097 13.229167,13.229167 0 0 1 0.0083,-0.157096 13.229167,13.229167 0 0 1 0.01034,-0.157096 13.229167,13.229167 0 0 1 0.01241,-0.157097 13.229167,13.229167 0 0 1 0.01394,-0.15658 13.229167,13.229167 0 0 1 0.01551,-0.15658 13.229167,13.229167 0 0 1 0.0181,-0.156062 13.229167,13.229167 0 0 1 0.01963,-0.156062 13.229167,13.229167 0 0 1 0.02119,-0.156065 13.229167,13.229167 0 0 1 0.02326,-0.155546 13.229167,13.229167 0 0 1 0.02532,-0.15503 13.229167,13.229167 0 0 1 0.02687,-0.155027 13.229167,13.229167 0 0 1 0.02894,-0.15503 13.229167,13.229167 0 0 1 0.03047,-0.153986 13.229167,13.229167 0 0 1 0.03256,-0.153996 13.229167,13.229167 0 0 1 0.03462,-0.153479 13.229167,13.229167 0 0 1 0.03617,-0.152964 13.229167,13.229167 0 0 1 0.03772,-0.152961 13.229167,13.229167 0 0 1 0.03979,-0.151929 13.229167,13.229167 0 0 1 0.04186,-0.151929 13.229167,13.229167 0 0 1 0.04341,-0.15141 13.229167,13.229167 0 0 1 0.04496,-0.150379 13.229167,13.229167 0 0 1 0.04702,-0.150379 13.229167,13.229167 0 0 1 0.04858,-0.149346 13.229167,13.229167 0 0 1 0.05064,-0.149344 13.229167,13.229167 0 0 1 0.0522,-0.148313 13.229167,13.229167 0 0 1 0.05426,-0.147793 13.229167,13.229167 0 0 1 0.05581,-0.146762 13.229167,13.229167 0 0 1 0.05736,-0.146762 13.229167,13.229167 0 0 1 0.05943,-0.145727 13.229167,13.229167 0 0 1 0.06098,-0.144692 13.229167,13.229167 0 0 1 0.06305,-0.144177 13.229167,13.229167 0 0 1 0.06408,-0.143661 13.229167,13.229167 0 0 1 0.06615,-0.142629 13.229167,13.229167 0 0 1 0.06821,-0.142108 13.229167,13.229167 0 0 1 0.06821,-0.139528 z" />
      <path
         d="M 82.168627,67.542646 A 26.458332,26.458332 0 0 0 79.375,79.374998 26.458332,26.458332 0 0 0 105.83333,105.83333 26.458332,26.458332 0 0 0 132.29167,79.374998 26.458332,26.458332 0 0 0 129.49804,67.542646 l -11.83236,5.915916 a 13.229167,13.229167 0 0 1 0.063,0.127125 13.229167,13.229167 0 0 1 0.0677,0.14211 13.229167,13.229167 0 0 1 0.0667,0.142626 13.229167,13.229167 0 0 1 0.0646,0.143145 13.229167,13.229167 0 0 1 0.0625,0.144177 13.229167,13.229167 0 0 1 0.0615,0.145211 13.229167,13.229167 0 0 1 0.0594,0.145727 13.229167,13.229167 0 0 1 0.0574,0.146244 13.229167,13.229167 0 0 1 0.0563,0.146761 13.229167,13.229167 0 0 1 0.0543,0.147797 13.229167,13.229167 0 0 1 0.0522,0.148309 13.229167,13.229167 0 0 1 0.0506,0.148828 13.229167,13.229167 0 0 1 0.0491,0.149863 13.229167,13.229167 0 0 1 0.047,0.14986 13.229167,13.229167 0 0 1 0.0455,0.150897 13.229167,13.229167 0 0 1 0.0434,0.150895 13.229167,13.229167 0 0 1 0.0419,0.151929 13.229167,13.229167 0 0 1 0.0398,0.151929 13.229167,13.229167 0 0 1 0.0382,0.152961 13.229167,13.229167 0 0 1 0.0362,0.152963 13.229167,13.229167 0 0 1 0.0346,0.153477 13.229167,13.229167 0 0 1 0.0326,0.153998 13.229167,13.229167 0 0 1 0.031,0.153995 13.229167,13.229167 0 0 1 0.0289,0.154512 13.229167,13.229167 0 0 1 0.0274,0.15503 13.229167,13.229167 0 0 1 0.0253,0.155546 13.229167,13.229167 0 0 1 0.0233,0.155546 13.229167,13.229167 0 0 1 0.0217,0.155546 13.229167,13.229167 0 0 1 0.0196,0.156062 13.229167,13.229167 0 0 1 0.0181,0.15658 13.229167,13.229167 0 0 1 0.016,0.15658 13.229167,13.229167 0 0 1 0.0139,0.156581 13.229167,13.229167 0 0 1 0.0124,0.156578 13.229167,13.229167 0 0 1 0.0104,0.157096 13.229167,13.229167 0 0 1 0.009,0.157096 13.229167,13.229167 0 0 1 0.007,0.157097 13.229167,13.229167 0 0 1 0.005,0.157096 13.229167,13.229167 0 0 1 0.003,0.157615 13.229167,13.229167 0 0 1 0.001,0.157096 13.229167,13.229167 0 0 1 0,0.01394 13.229167,13.229167 0 0 1 -0.001,0.157096 13.229167,13.229167 0 0 1 -0.003,0.157613 13.229167,13.229167 0 0 1 -0.005,0.157096 13.229167,13.229167 0 0 1 -0.007,0.157096 13.229167,13.229167 0 0 1 -0.008,0.157097 13.229167,13.229167 0 0 1 -0.0104,0.157096 13.229167,13.229167 0 0 1 -0.0124,0.157096 13.229167,13.229167 0 0 1 -0.0139,0.156581 13.229167,13.229167 0 0 1 -0.0155,0.15658 13.229167,13.229167 0 0 1 -0.0181,0.156062 13.229167,13.229167 0 0 1 -0.0196,0.156062 13.229167,13.229167 0 0 1 -0.0212,0.156064 13.229167,13.229167 0 0 1 -0.0233,0.155546 13.229167,13.229167 0 0 1 -0.0253,0.15503 13.229167,13.229167 0 0 1 -0.0269,0.155027 13.229167,13.229167 0 0 1 -0.0289,0.15503 13.229167,13.229167 0 0 1 -0.0305,0.153996 13.229167,13.229167 0 0 1 -0.0326,0.153995 13.229167,13.229167 0 0 1 -0.0346,0.15348 13.229167,13.229167 0 0 1 -0.0362,0.152963 13.229167,13.229167 0 0 1 -0.0377,0.152961 13.229167,13.229167 0 0 1 -0.0398,0.151929 13.229167,13.229167 0 0 1 -0.0419,0.151929 13.229167,13.229167 0 0 1 -0.0434,0.151411 13.229167,13.229167 0 0 1 -0.045,0.150378 13.229167,13.229167 0 0 1 -0.047,0.150379 13.229167,13.229167 0 0 1 -0.0486,0.149347 13.229167,13.229167 0 0 1 -0.0506,0.149344 13.229167,13.229167 0 0 1 -0.0522,0.148312 13.229167,13.229167 0 0 1 -0.0543,0.147794 13.229167,13.229167 0 0 1 -0.0558,0.146761 13.229167,13.229167 0 0 1 -0.0574,0.146762 13.229167,13.229167 0 0 1 -0.0594,0.145727 13.229167,13.229167 0 0 1 -0.061,0.144693 13.229167,13.229167 0 0 1 -0.063,0.144177 13.229167,13.229167 0 0 1 -0.0641,0.14366 13.229167,13.229167 0 0 1 -0.0662,0.142629 13.229167,13.229167 0 0 1 -0.0682,0.142108 13.229167,13.229167 0 0 1 -0.0693,0.141079 13.229167,13.229167 0 0 1 -0.0713,0.140041 13.229167,13.229167 0 0 1 -0.0729,0.139528 13.229167,13.229167 0 0 1 -0.0744,0.138493 13.229167,13.229167 0 0 1 -0.0765,0.137975 13.229167,13.229167 0 0 1 -0.0775,0.136427 13.229167,13.229167 0 0 1 -0.0796,0.135909 13.229167,13.229167 0 0 1 -0.0811,0.134874 13.229167,13.229167 0 0 1 -0.0827,0.133842 13.229167,13.229167 0 0 1 -0.0842,0.132808 13.229167,13.229167 0 0 1 -0.0858,0.131775 13.229167,13.229167 0 0 1 -0.0873,0.13126 13.229167,13.229167 0 0 1 -0.0889,0.129707 13.229167,13.229167 0 0 1 -0.0904,0.128675 13.229167,13.229167 0 0 1 -0.092,0.12764 13.229167,13.229167 0 0 1 -0.0935,0.126608 13.229167,13.229167 0 0 1 -0.0946,0.125056 13.229167,13.229167 0 0 1 -0.0966,0.124539 13.229167,13.229167 0 0 1 -0.0982,0.122992 13.229167,13.229167 0 0 1 -0.0992,0.121957 13.229167,13.229167 0 0 1 -0.10077,0.120922 13.229167,13.229167 0 0 1 -0.10232,0.119372 13.229167,13.229167 0 0 1 -0.10335,0.118341 13.229167,13.229167 0 0 1 -0.10543,0.117303 13.229167,13.229167 0 0 1 -0.10645,0.115755 13.229167,13.229167 0 0 1 -0.10748,0.114723 13.229167,13.229167 0 0 1 -0.10956,0.11317 13.229167,13.229167 0 0 1 -0.11059,0.111623 13.229167,13.229167 0 0 1 -0.11162,0.111104 13.229167,13.229167 0 0 1 -0.11317,0.109037 13.229167,13.229167 0 0 1 -0.1142,0.108003 13.229167,13.229167 0 0 1 -0.11576,0.106455 13.229167,13.229167 0 0 1 -0.1173,0.105418 13.229167,13.229167 0 0 1 -0.11834,0.10387 13.229167,13.229167 0 0 1 -0.11938,0.10232 13.229167,13.229167 0 0 1 -0.1204,0.100769 13.229167,13.229167 0 0 1 -0.12196,0.09973 13.229167,13.229167 0 0 1 -0.12299,0.09767 13.229167,13.229167 0 0 1 -0.12402,0.09664 13.229167,13.229167 0 0 1 -0.12558,0.09508 13.229167,13.229167 0 0 1 -0.1266,0.09405 13.229167,13.229167 0 0 1 -0.12713,0.09199 13.229167,13.229167 0 0 1 -0.12867,0.09043 13.229167,13.229167 0 0 1 -0.12971,0.08888 13.229167,13.229167 0 0 1 -0.13074,0.08785 13.229167,13.229167 0 0 1 -0.13177,0.08578 13.229167,13.229167 0 0 1 -0.13281,0.08423 13.229167,13.229167 0 0 1 -0.13385,0.08268 13.229167,13.229167 0 0 1 -0.13487,0.08113 13.229167,13.229167 0 0 1 -0.13591,0.07958 13.229167,13.229167 0 0 1 -0.13643,0.07803 13.229167,13.229167 0 0 1 -0.13746,0.07648 13.229167,13.229167 0 0 1 -0.13849,0.07441 13.229167,13.229167 0 0 1 -0.13952,0.07338 13.229167,13.229167 0 0 1 -0.14005,0.07131 13.229167,13.229167 0 0 1 -0.14107,0.06976 13.229167,13.229167 0 0 1 -0.14211,0.0677 13.229167,13.229167 0 0 1 -0.14263,0.06666 13.229167,13.229167 0 0 1 -0.14315,0.0646 13.229167,13.229167 0 0 1 -0.14417,0.06253 13.229167,13.229167 0 0 1 -0.14521,0.06149 13.229167,13.229167 0 0 1 -0.14573,0.05943 13.229167,13.229167 0 0 1 -0.14624,0.05736 13.229167,13.229167 0 0 1 -0.14677,0.05633 13.229167,13.229167 0 0 1 -0.14779,0.05426 13.229167,13.229167 0 0 1 -0.14831,0.0522 13.229167,13.229167 0 0 1 -0.14883,0.05064 13.229167,13.229167 0 0 1 -0.14986,0.04909 13.229167,13.229167 0 0 1 -0.14986,0.04703 13.229167,13.229167 0 0 1 -0.1509,0.04547 13.229167,13.229167 0 0 1 -0.15089,0.04341 13.229167,13.229167 0 0 1 -0.15193,0.04186 13.229167,13.229167 0 0 1 -0.15193,0.03979 13.229167,13.229167 0 0 1 -0.15296,0.03824 13.229167,13.229167 0 0 1 -0.15297,0.03617 13.229167,13.229167 0 0 1 -0.15347,0.03462 13.229167,13.229167 0 0 1 -0.154,0.03255 13.229167,13.229167 0 0 1 -0.154,0.03101 13.229167,13.229167 0 0 1 -0.15451,0.02894 13.229167,13.229167 0 0 1 -0.15503,0.02739 13.229167,13.229167 0 0 1 -0.15554,0.02532 13.229167,13.229167 0 0 1 -0.15555,0.02326 13.229167,13.229167 0 0 1 -0.15555,0.0217 13.229167,13.229167 0 0 1 -0.15606,0.01963 13.229167,13.229167 0 0 1 -0.15658,0.0181 13.229167,13.229167 0 0 1 -0.15658,0.01601 13.229167,13.229167 0 0 1 -0.15658,0.01394 13.229167,13.229167 0 0 1 -0.15658,0.01241 13.229167,13.229167 0 0 1 -0.15709,0.01035 13.229167,13.229167 0 0 1 -0.1571,0.0088 13.229167,13.229167 0 0 1 -0.1571,0.0067 13.229167,13.229167 0 0 1 -0.15709,0.0047 13.229167,13.229167 0 0 1 -0.15762,0.0031 13.229167,13.229167 0 0 1 -0.15709,0.0011 13.229167,13.229167 0 0 1 -0.0139,0 13.229167,13.229167 0 0 1 -0.1571,-0.0011 13.229167,13.229167 0 0 1 -0.15761,-0.0026 13.229167,13.229167 0 0 1 -0.1571,-0.0047 13.229167,13.229167 0 0 1 -0.15709,-0.0067 13.229167,13.229167 0 0 1 -0.1571,-0.0083 13.229167,13.229167 0 0 1 -0.1571,-0.01035 13.229167,13.229167 0 0 1 -0.15709,-0.01241 13.229167,13.229167 0 0 1 -0.15658,-0.01394 13.229167,13.229167 0 0 1 -0.15658,-0.01551 13.229167,13.229167 0 0 1 -0.15607,-0.0181 13.229167,13.229167 0 0 1 -0.15606,-0.01963 13.229167,13.229167 0 0 1 -0.15606,-0.02119 13.229167,13.229167 0 0 1 -0.15555,-0.02326 13.229167,13.229167 0 0 1 -0.15503,-0.02532 13.229167,13.229167 0 0 1 -0.15503,-0.02687 13.229167,13.229167 0 0 1 -0.15504,-0.02895 13.229167,13.229167 0 0 1 -0.15399,-0.03049 13.229167,13.229167 0 0 1 -0.15401,-0.03256 13.229167,13.229167 0 0 1 -0.15348,-0.03462 13.229167,13.229167 0 0 1 -0.15348,-0.03617 13.229167,13.229167 0 0 1 -0.15244,-0.03772 13.229167,13.229167 0 0 1 -0.15193,-0.03979 13.229167,13.229167 0 0 1 -0.15193,-0.04186 13.229167,13.229167 0 0 1 -0.15141,-0.04341 13.229167,13.229167 0 0 1 -0.15038,-0.04496 13.229167,13.229167 0 0 1 -0.15038,-0.04702 13.229167,13.229167 0 0 1 -0.14934,-0.04858 13.229167,13.229167 0 0 1 -0.14935,-0.05064 13.229167,13.229167 0 0 1 -0.14831,-0.05219 13.229167,13.229167 0 0 1 -0.14779,-0.05426 13.229167,13.229167 0 0 1 -0.14676,-0.05581 13.229167,13.229167 0 0 1 -0.14677,-0.05736 13.229167,13.229167 0 0 1 -0.14572,-0.05943 13.229167,13.229167 0 0 1 -0.1447,-0.06098 13.229167,13.229167 0 0 1 -0.14417,-0.06305 13.229167,13.229167 0 0 1 -0.14366,-0.06408 13.229167,13.229167 0 0 1 -0.14263,-0.06615 13.229167,13.229167 0 0 1 -0.14211,-0.06821 13.229167,13.229167 0 0 1 -0.141079,-0.06925 13.229167,13.229167 0 0 1 -0.140042,-0.07131 13.229167,13.229167 0 0 1 -0.139528,-0.07286 13.229167,13.229167 0 0 1 -0.138493,-0.07441 13.229167,13.229167 0 0 1 -0.137975,-0.07648 13.229167,13.229167 0 0 1 -0.136427,-0.07751 13.229167,13.229167 0 0 1 -0.135909,-0.07958 13.229167,13.229167 0 0 1 -0.134874,-0.08113 13.229167,13.229167 0 0 1 -0.133842,-0.08268 13.229167,13.229167 0 0 1 -0.132808,-0.08423 13.229167,13.229167 0 0 1 -0.131775,-0.08578 13.229167,13.229167 0 0 1 -0.13126,-0.08733 13.229167,13.229167 0 0 1 -0.129707,-0.08888 13.229167,13.229167 0 0 1 -0.128675,-0.09043 13.229167,13.229167 0 0 1 -0.12764,-0.09198 13.229167,13.229167 0 0 1 -0.126608,-0.09353 13.229167,13.229167 0 0 1 -0.125056,-0.09457 13.229167,13.229167 0 0 1 -0.124539,-0.09663 13.229167,13.229167 0 0 1 -0.122992,-0.09819 13.229167,13.229167 0 0 1 -0.121957,-0.09922 13.229167,13.229167 0 0 1 -0.120922,-0.100769 13.229167,13.229167 0 0 1 -0.119372,-0.10232 13.229167,13.229167 0 0 1 -0.11834,-0.103351 13.229167,13.229167 0 0 1 -0.117303,-0.105421 13.229167,13.229167 0 0 1 -0.115756,-0.106452 13.229167,13.229167 0 0 1 -0.114723,-0.107487 13.229167,13.229167 0 0 1 -0.11317,-0.109554 13.229167,13.229167 0 0 1 -0.112138,-0.110588 13.229167,13.229167 0 0 1 -0.110588,-0.111622 13.229167,13.229167 0 0 1 -0.109038,-0.11317 13.229167,13.229167 0 0 1 -0.108003,-0.114205 13.229167,13.229167 0 0 1 -0.106455,-0.115755 13.229167,13.229167 0 0 1 -0.105418,-0.117306 13.229167,13.229167 0 0 1 -0.10387,-0.11834 13.229167,13.229167 0 0 1 -0.10232,-0.119372 13.229167,13.229167 0 0 1 -0.100769,-0.120407 13.229167,13.229167 0 0 1 -0.09973,-0.121957 13.229167,13.229167 0 0 1 -0.09767,-0.122989 13.229167,13.229167 0 0 1 -0.09664,-0.124023 13.229167,13.229167 0 0 1 -0.09508,-0.125574 13.229167,13.229167 0 0 1 -0.09405,-0.126606 13.229167,13.229167 0 0 1 -0.09198,-0.127124 13.229167,13.229167 0 0 1 -0.09043,-0.128675 13.229167,13.229167 0 0 1 -0.08888,-0.129709 13.229167,13.229167 0 0 1 -0.08785,-0.130741 13.229167,13.229167 0 0 1 -0.08578,-0.131774 13.229167,13.229167 0 0 1 -0.08423,-0.13281 13.229167,13.229167 0 0 1 -0.08268,-0.133842 13.229167,13.229167 0 0 1 -0.08113,-0.134874 13.229167,13.229167 0 0 1 -0.07958,-0.135908 13.229167,13.229167 0 0 1 -0.07803,-0.136428 13.229167,13.229167 0 0 1 -0.07648,-0.137459 13.229167,13.229167 0 0 1 -0.07441,-0.138493 13.229167,13.229167 0 0 1 -0.07338,-0.139525 13.229167,13.229167 0 0 1 -0.07131,-0.140044 13.229167,13.229167 0 0 1 -0.06976,-0.141076 13.229167,13.229167 0 0 1 -0.0677,-0.142111 13.229167,13.229167 0 0 1 -0.06666,-0.142626 13.229167,13.229167 0 0 1 -0.0646,-0.143145 13.229167,13.229167 0 0 1 -0.06253,-0.144176 13.229167,13.229167 0 0 1 -0.06149,-0.145212 13.229167,13.229167 0 0 1 -0.05943,-0.145727 13.229167,13.229167 0 0 1 -0.05736,-0.146243 13.229167,13.229167 0 0 1 -0.05633,-0.146762 13.229167,13.229167 0 0 1 -0.05426,-0.147796 13.229167,13.229167 0 0 1 -0.05219,-0.14831 13.229167,13.229167 0 0 1 -0.05064,-0.148828 13.229167,13.229167 0 0 1 -0.04909,-0.149862 13.229167,13.229167 0 0 1 -0.04703,-0.14986 13.229167,13.229167 0 0 1 -0.04547,-0.150898 13.229167,13.229167 0 0 1 -0.04341,-0.150894 13.229167,13.229167 0 0 1 -0.04186,-0.151929 13.229167,13.229167 0 0 1 -0.03979,-0.151929 13.229167,13.229167 0 0 1 -0.03824,-0.152961 13.229167,13.229167 0 0 1 -0.03617,-0.152964 13.229167,13.229167 0 0 1 -0.03462,-0.153477 13.229167,13.229167 0 0 1 -0.03255,-0.153998 13.229167,13.229167 0 0 1 -0.03101,-0.153995 13.229167,13.229167 0 0 1 -0.02894,-0.154511 13.229167,13.229167 0 0 1 -0.02739,-0.15503 13.229167,13.229167 0 0 1 -0.02532,-0.155546 13.229167,13.229167 0 0 1 -0.02326,-0.155546 13.229167,13.229167 0 0 1 -0.0217,-0.155546 13.229167,13.229167 0 0 1 -0.01963,-0.156062 13.229167,13.229167 0 0 1 -0.0181,-0.15658 13.229167,13.229167 0 0 1 -0.01601,-0.156581 13.229167,13.229167 0 0 1 -0.01394,-0.15658 13.229167,13.229167 0 0 1 -0.01241,-0.156578 13.229167,13.229167 0 0 1 -0.01034,-0.157096 13.229167,13.229167 0 0 1 -0.0088,-0.157097 13.229167,13.229167 0 0 1 -0.0067,-0.157096 13.229167,13.229167 0 0 1 -0.0047,-0.157096 13.229167,13.229167 0 0 1 -0.0031,-0.157615 13.229167,13.229167 0 0 1 -0.0011,-0.157097 13.229167,13.229167 0 0 1 0,-0.01394 13.229167,13.229167 0 0 1 0.0011,-0.157097 13.229167,13.229167 0 0 1 0.0026,-0.157612 13.229167,13.229167 0 0 1 0.0047,-0.157096 13.229167,13.229167 0 0 1 0.0067,-0.157097 13.229167,13.229167 0 0 1 0.0083,-0.157096 13.229167,13.229167 0 0 1 0.01034,-0.157096 13.229167,13.229167 0 0 1 0.01241,-0.157097 13.229167,13.229167 0 0 1 0.01394,-0.15658 13.229167,13.229167 0 0 1 0.01551,-0.15658 13.229167,13.229167 0 0 1 0.0181,-0.156062 13.229167,13.229167 0 0 1 0.01963,-0.156062 13.229167,13.229167 0 0 1 0.02119,-0.156065 13.229167,13.229167 0 0 1 0.02326,-0.155546 13.229167,13.229167 0 0 1 0.02532,-0.15503 13.229167,13.229167 0 0 1 0.02687,-0.155027 13.229167,13.229167 0 0 1 0.02894,-0.15503 13.229167,13.229167 0 0 1 0.03047,-0.153986 13.229167,13.229167 0 0 1 0.03256,-0.153996 13.229167,13.229167 0 0 1 0.03462,-0.153479 13.229167,13.229167 0 0 1 0.03617,-0.152964 13.229167,13.229167 0 0 1 0.03772,-0.152961 13.229167,13.229167 0 0 1 0.03979,-0.151929 13.229167,13.229167 0 0 1 0.04186,-0.151929 13.229167,13.229167 0 0 1 0.04341,-0.15141 13.229167,13.229167 0 0 1 0.04496,-0.150379 13.229167,13.229167 0 0 1 0.04702,-0.150379 13.229167,13.229167 0 0 1 0.04858,-0.149346 13.229167,13.229167 0 0 1 0.05064,-0.149344 13.229167,13.229167 0 0 1 0.0522,-0.148313 13.229167,13.229167 0 0 1 0.05426,-0.147793 13.229167,13.229167 0 0 1 0.05581,-0.146762 13.229167,13.229167 0 0 1 0.05736,-0.146762 13.229167,13.229167 0 0 1 0.05943,-0.145727 13.229167,13.229167 0 0 1 0.06098,-0.144692 13.229167,13.229167 0 0 1 0.06305,-0.144177 13.229167,13.229167 0 0 1 0.06408,-0.143661 13.229167,13.229167 0 0 1 0.06615,-0.142629 13.229167,13.229167 0 0 1 0.06821,-0.142108 13.229167,13.229167 0 0 1 0.06821,-0.139528 z"
         style="fill:url(#radialGradient1199);fill-opacity:1;stroke:none;stroke-width:0.001;stroke-linecap:round;stroke-linejoin:bevel;stroke-dashoffset:0.907087;stroke-opacity:1"
         id="path864-2-6-1" />
      <path
         id="path864-2-6"
         style="opacity:0.701903;fill:url(#radialGradient1191);fill-opacity:1;stroke:none;stroke-width:0.001;stroke-linecap:round;stroke-linejoin:bevel;stroke-dashoffset:0.907087;stroke-opacity:1"
         d="m 117.27501,86.014903 a 13.229167,13.229167 0 0 1 -0.0625,0.106455 13.229167,13.229167 0 0 1 -0.0811,0.134874 13.229167,13.229167 0 0 1 -0.0827,0.133842 13.229167,13.229167 0 0 1 -0.0842,0.132808 13.229167,13.229167 0 0 1 -0.0858,0.131775 13.229167,13.229167 0 0 1 -0.0868,0.13126 13.229167,13.229167 0 0 1 -0.0894,0.129707 13.229167,13.229167 0 0 1 -0.0899,0.128675 13.229167,13.229167 0 0 1 -0.092,0.12764 13.229167,13.229167 0 0 1 -0.0935,0.126608 13.229167,13.229167 0 0 1 -0.0946,0.125056 13.229167,13.229167 0 0 1 -0.0966,0.124539 13.229167,13.229167 0 0 1 -0.0982,0.122992 13.229167,13.229167 0 0 1 -0.0992,0.121957 13.229167,13.229167 0 0 1 -0.10077,0.120922 13.229167,13.229167 0 0 1 -0.10232,0.119372 13.229167,13.229167 0 0 1 -0.10335,0.11834 13.229167,13.229167 0 0 1 -0.10542,0.117303 13.229167,13.229167 0 0 1 -0.10645,0.115756 13.229167,13.229167 0 0 1 -0.10749,0.114723 13.229167,13.229167 0 0 1 -0.10955,0.11317 13.229167,13.229167 0 0 1 -0.11059,0.111623 13.229167,13.229167 0 0 1 -0.11162,0.111104 13.229167,13.229167 0 0 1 -0.11317,0.109037 13.229167,13.229167 0 0 1 -0.11421,0.108003 13.229167,13.229167 0 0 1 -0.11575,0.106455 13.229167,13.229167 0 0 1 -0.11731,0.105418 13.229167,13.229167 0 0 1 -0.11834,0.10387 13.229167,13.229167 0 0 1 -0.11937,0.10232 13.229167,13.229167 0 0 1 -0.12041,0.100769 13.229167,13.229167 0 0 1 -0.12195,0.09973 13.229167,13.229167 0 0 1 -0.12299,0.09767 13.229167,13.229167 0 0 1 -0.12403,0.09664 13.229167,13.229167 0 0 1 -0.12557,0.09508 13.229167,13.229167 0 0 1 -0.1266,0.09405 13.229167,13.229167 0 0 1 -0.12713,0.09198 13.229167,13.229167 0 0 1 -0.12867,0.09043 13.229167,13.229167 0 0 1 -0.12971,0.08888 13.229167,13.229167 0 0 1 -0.13074,0.08785 13.229167,13.229167 0 0 1 -0.13178,0.08578 13.229167,13.229167 0 0 1 -0.13281,0.08423 13.229167,13.229167 0 0 1 -0.13384,0.08268 13.229167,13.229167 0 0 1 -0.13487,0.08113 13.229167,13.229167 0 0 1 -0.13591,0.07958 13.229167,13.229167 0 0 1 -0.13643,0.07803 13.229167,13.229167 0 0 1 -0.13746,0.07648 13.229167,13.229167 0 0 1 -0.13849,0.07441 13.229167,13.229167 0 0 1 -0.13953,0.07338 13.229167,13.229167 0 0 1 -0.14004,0.07131 13.229167,13.229167 0 0 1 -0.14108,0.06976 13.229167,13.229167 0 0 1 -0.14211,0.0677 13.229167,13.229167 0 0 1 -0.14262,0.06666 13.229167,13.229167 0 0 1 -0.14315,0.0646 13.229167,13.229167 0 0 1 -0.14418,0.06253 13.229167,13.229167 0 0 1 -0.14521,0.06149 13.229167,13.229167 0 0 1 -0.14572,0.05943 13.229167,13.229167 0 0 1 -0.14625,0.05736 13.229167,13.229167 0 0 1 -0.14676,0.05633 13.229167,13.229167 0 0 1 -0.1478,0.05426 13.229167,13.229167 0 0 1 -0.1483,0.05219 13.229167,13.229167 0 0 1 -0.14883,0.05064 13.229167,13.229167 0 0 1 -0.14987,0.04909 13.229167,13.229167 0 0 1 -0.14986,0.04703 13.229167,13.229167 0 0 1 -0.15089,0.04547 13.229167,13.229167 0 0 1 -0.1509,0.04341 13.229167,13.229167 0 0 1 -0.15193,0.04186 13.229167,13.229167 0 0 1 -0.15193,0.03979 13.229167,13.229167 0 0 1 -0.15296,0.03824 13.229167,13.229167 0 0 1 -0.15296,0.03617 13.229167,13.229167 0 0 1 -0.15348,0.03462 13.229167,13.229167 0 0 1 -0.15399,0.03255 13.229167,13.229167 0 0 1 -0.154,0.03101 13.229167,13.229167 0 0 1 -0.15451,0.02894 13.229167,13.229167 0 0 1 -0.15503,0.02739 13.229167,13.229167 0 0 1 -0.15555,0.02532 13.229167,13.229167 0 0 1 -0.15554,0.02326 13.229167,13.229167 0 0 1 -0.15555,0.0217 13.229167,13.229167 0 0 1 -0.15606,0.01963 13.229167,13.229167 0 0 1 -0.15658,0.0181 13.229167,13.229167 0 0 1 -0.15658,0.01601 13.229167,13.229167 0 0 1 -0.15658,0.01394 13.229167,13.229167 0 0 1 -0.15658,0.01241 13.229167,13.229167 0 0 1 -0.1571,0.01035 13.229167,13.229167 0 0 1 -0.15709,0.0088 13.229167,13.229167 0 0 1 -0.1571,0.0067 13.229167,13.229167 0 0 1 -0.1571,0.0047 13.229167,13.229167 0 0 1 -0.15761,0.0031 13.229167,13.229167 0 0 1 -0.1571,0.0011 13.229167,13.229167 0 0 1 -0.0139,0 13.229167,13.229167 0 0 1 -0.1571,-0.0011 13.229167,13.229167 0 0 1 -0.15761,-0.0026 13.229167,13.229167 0 0 1 -0.1571,-0.0047 13.229167,13.229167 0 0 1 -0.15709,-0.0067 13.229167,13.229167 0 0 1 -0.1571,-0.0083 13.229167,13.229167 0 0 1 -0.15709,-0.01035 13.229167,13.229167 0 0 1 -0.1571,-0.01241 13.229167,13.229167 0 0 1 -0.15658,-0.01394 13.229167,13.229167 0 0 1 -0.15658,-0.0155 13.229167,13.229167 0 0 1 -0.15606,-0.0181 13.229167,13.229167 0 0 1 -0.15606,-0.01963 13.229167,13.229167 0 0 1 -0.15607,-0.02119 13.229167,13.229167 0 0 1 -0.15555,-0.02326 13.229167,13.229167 0 0 1 -0.15503,-0.02532 13.229167,13.229167 0 0 1 -0.15502,-0.02687 13.229167,13.229167 0 0 1 -0.15503,-0.02894 13.229167,13.229167 0 0 1 -0.154,-0.03049 13.229167,13.229167 0 0 1 -0.15399,-0.03256 13.229167,13.229167 0 0 1 -0.15348,-0.03462 13.229167,13.229167 0 0 1 -0.15348,-0.03617 13.229167,13.229167 0 0 1 -0.15245,-0.03772 13.229167,13.229167 0 0 1 -0.15193,-0.03979 13.229167,13.229167 0 0 1 -0.15193,-0.04186 13.229167,13.229167 0 0 1 -0.15141,-0.04341 13.229167,13.229167 0 0 1 -0.15037,-0.04496 13.229167,13.229167 0 0 1 -0.15038,-0.04702 13.229167,13.229167 0 0 1 -0.14935,-0.04858 13.229167,13.229167 0 0 1 -0.14934,-0.05064 13.229167,13.229167 0 0 1 -0.14832,-0.0522 13.229167,13.229167 0 0 1 -0.14779,-0.05426 13.229167,13.229167 0 0 1 -0.14676,-0.05581 13.229167,13.229167 0 0 1 -0.14676,-0.05736 13.229167,13.229167 0 0 1 -0.14573,-0.05943 13.229167,13.229167 0 0 1 -0.14469,-0.06098 13.229167,13.229167 0 0 1 -0.14418,-0.06305 13.229167,13.229167 0 0 1 -0.14366,-0.06408 13.229167,13.229167 0 0 1 -0.14263,-0.06615 13.229167,13.229167 0 0 1 -0.14211,-0.06821 13.229167,13.229167 0 0 1 -0.141076,-0.06925 13.229167,13.229167 0 0 1 -0.140041,-0.07131 13.229167,13.229167 0 0 1 -0.139528,-0.07286 13.229167,13.229167 0 0 1 -0.138494,-0.07441 13.229167,13.229167 0 0 1 -0.137974,-0.07648 13.229167,13.229167 0 0 1 -0.136428,-0.07752 13.229167,13.229167 0 0 1 -0.135908,-0.07958 13.229167,13.229167 0 0 1 -0.134874,-0.08113 13.229167,13.229167 0 0 1 -0.133842,-0.08268 13.229167,13.229167 0 0 1 -0.132808,-0.08423 13.229167,13.229167 0 0 1 -0.131775,-0.08578 13.229167,13.229167 0 0 1 -0.13126,-0.08733 13.229167,13.229167 0 0 1 -0.129707,-0.08888 13.229167,13.229167 0 0 1 -0.128675,-0.09043 13.229167,13.229167 0 0 1 -0.12764,-0.09198 13.229167,13.229167 0 0 1 -0.126608,-0.09353 13.229167,13.229167 0 0 1 -0.125056,-0.09457 13.229167,13.229167 0 0 1 -0.124539,-0.09663 13.229167,13.229167 0 0 1 -0.122992,-0.09819 13.229167,13.229167 0 0 1 -0.121957,-0.09922 13.229167,13.229167 0 0 1 -0.120922,-0.100769 13.229167,13.229167 0 0 1 -0.119372,-0.10232 13.229167,13.229167 0 0 1 -0.118341,-0.103351 13.229167,13.229167 0 0 1 -0.117303,-0.105421 13.229167,13.229167 0 0 1 -0.115755,-0.106452 13.229167,13.229167 0 0 1 -0.114723,-0.107487 13.229167,13.229167 0 0 1 -0.11317,-0.109554 13.229167,13.229167 0 0 1 -0.112139,-0.110588 13.229167,13.229167 0 0 1 -0.110588,-0.111622 13.229167,13.229167 0 0 1 -0.109037,-0.11317 13.229167,13.229167 0 0 1 -0.108003,-0.114205 13.229167,13.229167 0 0 1 -0.106455,-0.115755 13.229167,13.229167 0 0 1 -0.105418,-0.117306 13.229167,13.229167 0 0 1 -0.10387,-0.11834 13.229167,13.229167 0 0 1 -0.10232,-0.119372 13.229167,13.229167 0 0 1 -0.100769,-0.120407 13.229167,13.229167 0 0 1 -0.09973,-0.121957 13.229167,13.229167 0 0 1 -0.09767,-0.122989 13.229167,13.229167 0 0 1 -0.09664,-0.124023 13.229167,13.229167 0 0 1 -0.09508,-0.125574 13.229167,13.229167 0 0 1 -0.09405,-0.126606 13.229167,13.229167 0 0 1 -0.09199,-0.127124 13.229167,13.229167 0 0 1 -0.09043,-0.128675 13.229167,13.229167 0 0 1 -0.08888,-0.129709 13.229167,13.229167 0 0 1 -0.08785,-0.130742 13.229167,13.229167 0 0 1 -0.08578,-0.131773 13.229167,13.229167 0 0 1 -0.08423,-0.13281 13.229167,13.229167 0 0 1 -0.08268,-0.133842 13.229167,13.229167 0 0 1 -0.08113,-0.134874 13.229167,13.229167 0 0 1 -0.07958,-0.135908 13.229167,13.229167 0 0 1 -0.07803,-0.136428 13.229167,13.229167 0 0 1 -0.07648,-0.137459 13.229167,13.229167 0 0 1 -0.07441,-0.138493 13.229167,13.229167 0 0 1 -0.07338,-0.139525 13.229167,13.229167 0 0 1 -0.07131,-0.140044 13.229167,13.229167 0 0 1 -0.06976,-0.141076 13.229167,13.229167 0 0 1 -0.0677,-0.142111 13.229167,13.229167 0 0 1 -0.06666,-0.142626 13.229167,13.229167 0 0 1 -0.0646,-0.143145 13.229167,13.229167 0 0 1 -0.06253,-0.144176 13.229167,13.229167 0 0 1 -0.06149,-0.145212 13.229167,13.229167 0 0 1 -0.05943,-0.145727 13.229167,13.229167 0 0 1 -0.05736,-0.146243 13.229167,13.229167 0 0 1 -0.05633,-0.146762 13.229167,13.229167 0 0 1 -0.05426,-0.147796 13.229167,13.229167 0 0 1 -0.0522,-0.14831 13.229167,13.229167 0 0 1 -0.05064,-0.148828 13.229167,13.229167 0 0 1 -0.04909,-0.149862 13.229167,13.229167 0 0 1 -0.04703,-0.14986 13.229167,13.229167 0 0 1 -0.04547,-0.150898 13.229167,13.229167 0 0 1 -0.04341,-0.150894 13.229167,13.229167 0 0 1 -0.04186,-0.151929 13.229167,13.229167 0 0 1 -0.03979,-0.151929 13.229167,13.229167 0 0 1 -0.03824,-0.152961 13.229167,13.229167 0 0 1 -0.03617,-0.152964 13.229167,13.229167 0 0 1 -0.03462,-0.153476 13.229167,13.229167 0 0 1 -0.03255,-0.153999 13.229167,13.229167 0 0 1 -0.03101,-0.153995 13.229167,13.229167 0 0 1 -0.02894,-0.154511 13.229167,13.229167 0 0 1 -0.02739,-0.15503 13.229167,13.229167 0 0 1 -0.02532,-0.155546 13.229167,13.229167 0 0 1 -0.02326,-0.155546 13.229167,13.229167 0 0 1 -0.0217,-0.155546 13.229167,13.229167 0 0 1 -0.01963,-0.156062 13.229167,13.229167 0 0 1 -0.0181,-0.15658 13.229167,13.229167 0 0 1 -0.01601,-0.156581 13.229167,13.229167 0 0 1 -0.01394,-0.15658 13.229167,13.229167 0 0 1 -0.01241,-0.156578 13.229167,13.229167 0 0 1 -0.01035,-0.157096 13.229167,13.229167 0 0 1 -0.0088,-0.157097 13.229167,13.229167 0 0 1 -0.0067,-0.157096 13.229167,13.229167 0 0 1 -0.0047,-0.157096 13.229167,13.229167 0 0 1 -0.0031,-0.157615 13.229167,13.229167 0 0 1 -0.0011,-0.157097 13.229167,13.229167 0 0 1 0,-0.01394 13.229167,13.229167 0 0 1 0.0011,-0.157096 13.229167,13.229167 0 0 1 0.0026,-0.157613 13.229167,13.229167 0 0 1 0.0047,-0.157096 13.229167,13.229167 0 0 1 0.0067,-0.157096 13.229167,13.229167 0 0 1 0.0083,-0.157097 13.229167,13.229167 0 0 1 0.01035,-0.157096 13.229167,13.229167 0 0 1 0.01241,-0.157096 13.229167,13.229167 0 0 1 0.01394,-0.156581 13.229167,13.229167 0 0 1 0.01551,-0.15658 13.229167,13.229167 0 0 1 0.0181,-0.156062 13.229167,13.229167 0 0 1 0.01963,-0.156062 13.229167,13.229167 0 0 1 0.02119,-0.156064 13.229167,13.229167 0 0 1 0.02326,-0.155546 13.229167,13.229167 0 0 1 0.02532,-0.15503 13.229167,13.229167 0 0 1 0.02687,-0.155028 13.229167,13.229167 0 0 1 0.02894,-0.15503 13.229167,13.229167 0 0 1 0.03049,-0.153995 13.229167,13.229167 0 0 1 0.03255,-0.153995 13.229167,13.229167 0 0 1 0.03462,-0.15348 13.229167,13.229167 0 0 1 0.03617,-0.152964 13.229167,13.229167 0 0 1 0.03772,-0.15296 13.229167,13.229167 0 0 1 0.03979,-0.151929 13.229167,13.229167 0 0 1 0.04186,-0.151929 13.229167,13.229167 0 0 1 0.04341,-0.151411 13.229167,13.229167 0 0 1 0.04496,-0.150379 13.229167,13.229167 0 0 1 0.04702,-0.150378 13.229167,13.229167 0 0 1 0.04858,-0.149347 13.229167,13.229167 0 0 1 0.05064,-0.149344 13.229167,13.229167 0 0 1 0.05219,-0.148312 13.229167,13.229167 0 0 1 0.05426,-0.147794 13.229167,13.229167 0 0 1 0.05581,-0.146761 13.229167,13.229167 0 0 1 0.05736,-0.146762 13.229167,13.229167 0 0 1 0.05943,-0.145727 13.229167,13.229167 0 0 1 0.06098,-0.144693 13.229167,13.229167 0 0 1 0.06305,-0.144177 13.229167,13.229167 0 0 1 0.06408,-0.143661 13.229167,13.229167 0 0 1 0.06615,-0.142629 13.229167,13.229167 0 0 1 0.06821,-0.142107 13.229167,13.229167 0 0 1 0.06821,-0.139528 L 82.168626,67.542647 a 26.458332,26.458332 0 0 0 -2.793627,11.832352 26.458332,26.458332 0 0 0 26.458331,26.458331 26.458332,26.458332 0 0 0 26.45833,-26.458331 26.458332,26.458332 0 0 0 -2.79362,-11.832352 l -0.0718,0.03566 a 13.229167,13.229167 0 0 1 0.0605,0.14366 13.229167,13.229167 0 0 1 0.0594,0.145728 13.229167,13.229167 0 0 1 0.0574,0.146245 13.229167,13.229167 0 0 1 0.0558,0.147278 13.229167,13.229167 0 0 1 0.0543,0.147794 13.229167,13.229167 0 0 1 0.0522,0.148312 13.229167,13.229167 0 0 1 0.0506,0.148828 13.229167,13.229167 0 0 1 0.0491,0.14986 13.229167,13.229167 0 0 1 0.047,0.149863 13.229167,13.229167 0 0 1 0.045,0.150894 13.229167,13.229167 0 0 1 0.0434,0.150897 13.229167,13.229167 0 0 1 0.0419,0.151927 13.229167,13.229167 0 0 1 0.0398,0.151929 13.229167,13.229167 0 0 1 0.0382,0.152963 13.229167,13.229167 0 0 1 0.0362,0.152961 13.229167,13.229167 0 0 1 0.0341,0.15348 13.229167,13.229167 0 0 1 0.0325,0.153995 13.229167,13.229167 0 0 1 0.031,0.153996 13.229167,13.229167 0 0 1 0.0289,0.155029 13.229167,13.229167 0 0 1 0.0269,0.15503 13.229167,13.229167 0 0 1 0.0253,0.15503 13.229167,13.229167 0 0 1 0.0233,0.155546 13.229167,13.229167 0 0 1 0.0217,0.156062 13.229167,13.229167 0 0 1 0.0196,0.156062 13.229167,13.229167 0 0 1 0.0176,0.156064 13.229167,13.229167 0 0 1 0.016,0.156578 13.229167,13.229167 0 0 1 0.0139,0.156581 13.229167,13.229167 0 0 1 0.0124,0.157096 13.229167,13.229167 0 0 1 0.0104,0.157096 13.229167,13.229167 0 0 1 0.008,0.157097 13.229167,13.229167 0 0 1 0.007,0.157096 13.229167,13.229167 0 0 1 0.005,0.157096 13.229167,13.229167 0 0 1 0.003,0.157615 13.229167,13.229167 0 0 1 0.001,0.157094 13.229167,13.229167 0 0 1 -5.3e-4,0.157099 13.229167,13.229167 0 0 1 -0.003,0.157612 13.229167,13.229167 0 0 1 -0.005,0.157097 13.229167,13.229167 0 0 1 -0.006,0.157096 13.229167,13.229167 0 0 1 -0.008,0.157096 13.229167,13.229167 0 0 1 -0.0104,0.157097 13.229167,13.229167 0 0 1 -0.0124,0.157096 13.229167,13.229167 0 0 1 -0.0139,0.156578 13.229167,13.229167 0 0 1 -0.0155,0.15658 13.229167,13.229167 0 0 1 -0.0176,0.156065 13.229167,13.229167 0 0 1 -0.0196,0.156062 13.229167,13.229167 0 0 1 -0.0217,0.156061 13.229167,13.229167 0 0 1 -0.0233,0.155546 13.229167,13.229167 0 0 1 -0.0248,0.155546 13.229167,13.229167 0 0 1 -0.0269,0.154514 13.229167,13.229167 0 0 1 -0.0289,0.15503 13.229167,13.229167 0 0 1 -0.0305,0.153996 13.229167,13.229167 0 0 1 -0.0325,0.153995 13.229167,13.229167 0 0 1 -0.0341,0.15348 13.229167,13.229167 0 0 1 -0.0362,0.153479 13.229167,13.229167 0 0 1 -0.0382,0.152445 13.229167,13.229167 0 0 1 -0.0393,0.152445 13.229167,13.229167 0 0 1 -0.0419,0.15141 13.229167,13.229167 0 0 1 -0.0434,0.151414 13.229167,13.229167 0 0 1 -0.045,0.150894 13.229167,13.229167 0 0 1 -0.047,0.149863 13.229167,13.229167 0 0 1 -0.0486,0.149862 13.229167,13.229167 0 0 1 -0.0506,0.148828 13.229167,13.229167 0 0 1 -0.0522,0.14831 13.229167,13.229167 0 0 1 -0.0538,0.147796 13.229167,13.229167 0 0 1 -0.0558,0.147278 13.229167,13.229167 0 0 1 -0.0579,0.146243 13.229167,13.229167 0 0 1 -0.0589,0.145727 13.229167,13.229167 0 0 1 -0.061,0.145212 13.229167,13.229167 0 0 1 -0.063,0.144176 13.229167,13.229167 0 0 1 -0.0641,0.143661 13.229167,13.229167 0 0 1 -0.0661,0.142626 13.229167,13.229167 0 0 1 -0.0677,0.142111 13.229167,13.229167 0 0 1 -0.0698,0.141078 13.229167,13.229167 0 0 1 -0.0713,0.140042 13.229167,13.229167 0 0 1 -0.0729,0.139528 13.229167,13.229167 0 0 1 -0.0744,0.13849 13.229167,13.229167 0 0 1 -0.076,0.137978 13.229167,13.229167 0 0 1 -0.0775,0.136424 13.229167,13.229167 0 0 1 -0.0796,0.135909 13.229167,13.229167 0 0 1 -0.0811,0.134877 13.229167,13.229167 0 0 1 -0.0827,0.133842 13.229167,13.229167 0 0 1 -0.0837,0.133326 13.229167,13.229167 0 0 1 -0.0858,0.131773 13.229167,13.229167 0 0 1 -0.0873,0.130741 13.229167,13.229167 0 0 1 -0.0889,0.129709 13.229167,13.229167 0 0 1 -0.0904,0.129191 13.229167,13.229167 0 0 1 -0.092,0.127641 13.229167,13.229167 0 0 1 -0.0935,0.126608 13.229167,13.229167 0 0 1 -0.0951,0.125055 13.229167,13.229167 0 0 1 -0.0961,0.124542 13.229167,13.229167 0 0 1 -0.0982,0.122989 13.229167,13.229167 0 0 1 -0.0992,0.121957 13.229167,13.229167 0 0 1 -0.10077,0.120923 13.229167,13.229167 0 0 1 -0.10232,0.119372 13.229167,13.229167 0 0 1 -0.10335,0.11834 13.229167,13.229167 0 0 1 -0.10491,0.117306 13.229167,13.229167 0 0 1 -0.10645,0.115755 13.229167,13.229167 0 0 1 -0.108,0.114721 13.229167,13.229167 0 0 1 -0.10904,0.11317 13.229167,13.229167 0 0 1 -0.11059,0.112138 13.229167,13.229167 0 0 1 -0.11162,0.110588 13.229167,13.229167 0 0 1 -0.11317,0.109553 13.229167,13.229167 0 0 1 -0.11472,0.108006 13.229167,13.229167 0 0 1 -0.11524,0.106452 13.229167,13.229167 0 0 1 -0.11731,0.105421 13.229167,13.229167 0 0 1 -0.11782,0.10387 13.229167,13.229167 0 0 1 -0.11989,0.102317 13.229167,13.229167 0 0 1 -0.1204,0.100769 13.229167,13.229167 0 0 1 -0.12196,0.09974 13.229167,13.229167 0 0 1 -0.12299,0.09818 13.229167,13.229167 0 0 1 -0.12402,0.09664 13.229167,13.229167 0 0 1 -0.12506,0.09508 13.229167,13.229167 0 0 1 -0.12661,0.09354 13.229167,13.229167 0 0 1 -0.12764,0.09198 13.229167,13.229167 0 0 1 -0.12867,0.09095 13.229167,13.229167 0 0 1 -0.12971,0.08888 13.229167,13.229167 0 0 1 -0.13023,0.08785 13.229167,13.229167 0 0 1 -0.13177,0.08578 13.229167,13.229167 0 0 1 -0.13281,0.08423 13.229167,13.229167 0 0 1 -0.13384,0.0832 13.229167,13.229167 0 0 1 -0.13488,0.08113 13.229167,13.229167 0 0 1 -0.13539,0.07958 13.229167,13.229167 0 0 1 -0.0124,0.0067 13.229167,13.229167 0 0 1 -0.13643,0.07803 13.229167,13.229167 0 0 1 -0.13745,0.07596 13.229167,13.229167 0 0 1 -0.13901,0.07493 13.229167,13.229167 0 0 1 -0.13901,0.07286 13.229167,13.229167 0 0 1 -0.14056,0.07131 13.229167,13.229167 0 0 1 -0.14108,0.06925 13.229167,13.229167 0 0 1 -0.14159,0.06821 13.229167,13.229167 0 0 1 -0.14315,0.06615 13.229167,13.229167 0 0 1 -0.14314,0.0646 13.229167,13.229167 0 0 1 -0.14418,0.06253 13.229167,13.229167 0 0 1 -0.14521,0.06098 13.229167,13.229167 0 0 1 -0.14573,0.05943 13.229167,13.229167 0 0 1 -0.14624,0.05788 13.229167,13.229167 0 0 1 -0.14728,0.05581 13.229167,13.229167 0 0 1 -0.14779,0.05426 13.229167,13.229167 0 0 1 -0.14832,0.05219 13.229167,13.229167 0 0 1 -0.14882,0.05064 13.229167,13.229167 0 0 1 -0.14935,0.04857 13.229167,13.229167 0 0 1 -0.15038,0.04703 13.229167,13.229167 0 0 1 -0.15037,0.04548 13.229167,13.229167 0 0 1 -0.15142,0.04341 13.229167,13.229167 0 0 1 -0.15192,0.04134 13.229167,13.229167 0 0 1 -0.15193,0.04031 13.229167,13.229167 0 0 1 -0.15245,0.03772 13.229167,13.229167 0 0 1 -0.15348,0.03617 13.229167,13.229167 0 0 1 -0.15348,0.03462 13.229167,13.229167 0 0 1 -0.15399,0.03256 13.229167,13.229167 0 0 1 -0.154,0.03049 13.229167,13.229167 0 0 1 -0.15451,0.02894 13.229167,13.229167 0 0 1 -0.15503,0.02687 13.229167,13.229167 0 0 1 -0.15555,0.02532 13.229167,13.229167 0 0 1 -0.15554,0.02326 13.229167,13.229167 0 0 1 -0.15607,0.0217 13.229167,13.229167 0 0 1 -0.15606,0.01963 13.229167,13.229167 0 0 1 -0.15606,0.01757 13.229167,13.229167 0 0 1 -0.15658,0.01601 13.229167,13.229167 0 0 1 -0.15658,0.01394 13.229167,13.229167 0 0 1 -0.1571,0.01241 13.229167,13.229167 0 0 1 -0.15658,0.01035 13.229167,13.229167 0 0 1 -0.15709,0.0083 13.229167,13.229167 0 0 1 -0.15762,0.0067 13.229167,13.229167 0 0 1 -0.15709,0.0047 13.229167,13.229167 0 0 1 -0.1571,0.0031 13.229167,13.229167 0 0 1 -0.15193,0.0011 z" />
      <path
         id="path1080"
         style="opacity:0.70569;fill:url(#radialGradient1183);fill-opacity:1;stroke:none;stroke-width:0.001;stroke-linecap:round;stroke-linejoin:bevel;stroke-dashoffset:0.907087;stroke-opacity:1"
         d="m 82.168626,67.542647 a 26.458332,26.458332 0 0 0 -2.793627,11.832352 26.458332,26.458332 0 0 0 26.458331,26.458331 26.458332,26.458332 0 0 0 22.64203,-12.769761 13.242396,13.242395 30 0 1 -0.0698,0.11007 13.242396,13.242395 30 0 1 -0.0858,0.131776 13.242396,13.242395 30 0 1 -0.0879,0.130741 13.242396,13.242395 30 0 1 -0.0889,0.130225 13.242396,13.242395 30 0 1 -0.0904,0.128675 13.242396,13.242395 30 0 1 -0.092,0.12764 13.242396,13.242395 30 0 1 -0.0935,0.126606 13.242396,13.242395 30 0 1 -0.0951,0.125574 13.242396,13.242395 30 0 1 -0.0966,0.124023 13.242396,13.242395 30 0 1 -0.0982,0.123508 13.242396,13.242395 30 0 1 -0.0992,0.121957 13.242396,13.242395 30 0 1 -0.10077,0.120406 13.242396,13.242395 30 0 1 -0.10232,0.119888 13.242396,13.242395 30 0 1 -0.10387,0.11834 13.242396,13.242395 30 0 1 -0.10542,0.116788 13.242396,13.242395 30 0 1 -0.10646,0.116273 13.242396,13.242395 30 0 1 -0.108,0.114205 13.242396,13.242395 30 0 1 -0.10904,0.113686 13.242396,13.242395 30 0 1 -0.11059,0.111623 13.242396,13.242395 30 0 1 -0.11213,0.111104 13.242396,13.242395 30 0 1 -0.11317,0.109037 13.242396,13.242395 30 0 1 -0.11421,0.108003 13.242396,13.242395 30 0 1 -0.11575,0.106455 13.242396,13.242395 30 0 1 -0.11731,0.105418 13.242396,13.242395 30 0 1 -0.11834,0.10387 13.242396,13.242395 30 0 1 -0.11937,0.10232 13.242396,13.242395 30 0 1 -0.12092,0.100769 13.242396,13.242395 30 0 1 -0.12196,0.09973 13.242396,13.242395 30 0 1 -0.12299,0.09819 13.242396,13.242395 30 0 1 -0.12402,0.09663 13.242396,13.242395 30 0 1 -0.12558,0.09509 13.242396,13.242395 30 0 1 -0.12661,0.09353 13.242396,13.242395 30 0 1 -0.12764,0.09198 13.242396,13.242395 30 0 1 -0.12867,0.09095 13.242396,13.242395 30 0 1 -0.12971,0.08888 13.242396,13.242395 30 0 1 -0.13074,0.08733 13.242396,13.242395 30 0 1 -0.13177,0.0863 13.242396,13.242395 30 0 1 -0.13333,0.08423 13.242396,13.242395 30 0 1 -0.13384,0.08268 13.242396,13.242395 30 0 1 -0.13488,0.08113 13.242396,13.242395 30 0 1 -0.13539,0.07958 13.242396,13.242395 30 0 1 -0.13694,0.07803 13.242396,13.242395 30 0 1 -0.13746,0.07648 13.242396,13.242395 30 0 1 -0.13849,0.07493 13.242396,13.242395 30 0 1 -0.13953,0.07286 13.242396,13.242395 30 0 1 -0.14056,0.07131 13.242396,13.242395 30 0 1 -0.14108,0.06976 13.242396,13.242395 30 0 1 -0.14159,0.06821 13.242396,13.242395 30 0 1 -0.14314,0.06615 13.242396,13.242395 30 0 1 -0.14315,0.0646 13.242396,13.242395 30 0 1 -0.14417,0.06305 13.242396,13.242395 30 0 1 -0.14522,0.06098 13.242396,13.242395 30 0 1 -0.14572,0.05943 13.242396,13.242395 30 0 1 -0.14625,0.05788 13.242396,13.242395 30 0 1 -0.14727,0.05633 13.242396,13.242395 30 0 1 -0.1478,0.05426 13.242396,13.242395 30 0 1 -0.14831,0.05219 13.242396,13.242395 30 0 1 -0.14935,0.05064 13.242396,13.242395 30 0 1 -0.14934,0.04909 13.242396,13.242395 30 0 1 -0.15038,0.04702 13.242396,13.242395 30 0 1 -0.15038,0.04548 13.242396,13.242395 30 0 1 -0.15141,0.04341 13.242396,13.242395 30 0 1 -0.15193,0.04186 13.242396,13.242395 30 0 1 -0.15193,0.04031 13.242396,13.242395 30 0 1 -0.15296,0.03772 13.242396,13.242395 30 0 1 -0.15296,0.03669 13.242396,13.242395 30 0 1 -0.15348,0.03462 13.242396,13.242395 30 0 1 -0.154,0.03255 13.242396,13.242395 30 0 1 -0.15451,0.03101 13.242396,13.242395 30 0 1 -0.15451,0.02894 13.242396,13.242395 30 0 1 -0.15503,0.02687 13.242396,13.242395 30 0 1 -0.15555,0.02532 13.242396,13.242395 30 0 1 -0.15554,0.02379 13.242396,13.242395 30 0 1 -0.15606,0.0217 13.242396,13.242395 30 0 1 -0.15607,0.01963 13.242396,13.242395 30 0 1 -0.15606,0.0181 13.242396,13.242395 30 0 1 -0.15658,0.01601 13.242396,13.242395 30 0 1 -0.1571,0.01394 13.242396,13.242395 30 0 1 -0.15658,0.01241 13.242396,13.242395 30 0 1 -0.15709,0.01035 13.242396,13.242395 30 0 1 -0.15762,0.0088 13.242396,13.242395 30 0 1 -0.15709,0.0067 13.242396,13.242395 30 0 1 -0.1571,0.0047 13.242396,13.242395 30 0 1 -0.15761,0.0031 13.242396,13.242395 30 0 1 -0.1571,0.0011 13.242396,13.242395 30 0 1 -0.15761,-5.29e-4 13.242396,13.242395 30 0 1 -0.15761,-0.0026 13.242396,13.242395 30 0 1 -0.1571,-0.0047 13.242396,13.242395 30 0 1 -0.1571,-0.0062 13.242396,13.242395 30 0 1 -0.15709,-0.0083 13.242396,13.242395 30 0 1 -0.1571,-0.0098 13.242396,13.242395 30 0 1 -0.1571,-0.01241 13.242396,13.242395 30 0 1 -0.15709,-0.01344 13.242396,13.242395 30 0 1 -0.15658,-0.01601 13.242396,13.242395 30 0 1 -0.15607,-0.01757 13.242396,13.242395 30 0 1 -0.15658,-0.01913 13.242396,13.242395 30 0 1 -0.15554,-0.02119 13.242396,13.242395 30 0 1 -0.15606,-0.02326 13.242396,13.242395 30 0 1 -0.15503,-0.02479 13.242396,13.242395 30 0 1 -0.15555,-0.02687 13.242396,13.242395 30 0 1 -0.15451,-0.02894 13.242396,13.242395 30 0 1 -0.15451,-0.03049 13.242396,13.242395 30 0 1 -0.154,-0.03204 13.242396,13.242395 30 0 1 -0.15348,-0.03411 13.242396,13.242395 30 0 1 -0.15348,-0.03617 13.242396,13.242395 30 0 1 -0.15296,-0.03772 13.242396,13.242395 30 0 1 -0.15193,-0.03979 13.242396,13.242395 30 0 1 -0.15193,-0.04134 13.242396,13.242395 30 0 1 -0.15141,-0.04289 13.242396,13.242395 30 0 1 -0.15089,-0.04496 13.242396,13.242395 30 0 1 -0.15038,-0.04703 13.242396,13.242395 30 0 1 -0.14935,-0.04857 13.242396,13.242395 30 0 1 -0.14934,-0.05013 13.242396,13.242395 30 0 1 -0.14831,-0.05219 13.242396,13.242395 30 0 1 -0.14831,-0.05426 13.242396,13.242395 30 0 1 -0.14728,-0.0553 13.242396,13.242395 30 0 1 -0.14625,-0.05736 13.242396,13.242395 30 0 1 -0.14572,-0.05943 13.242396,13.242395 30 0 1 -0.14522,-0.06098 13.242396,13.242395 30 0 1 -0.14469,-0.06253 13.242396,13.242395 30 0 1 -0.14366,-0.06408 13.242396,13.242395 30 0 1 -0.14263,-0.06615 13.242396,13.242395 30 0 1 -0.14211,-0.0677 13.242396,13.242395 30 0 1 -0.14159,-0.06925 13.242396,13.242395 30 0 1 -0.14056,-0.0708 13.242396,13.242395 30 0 1 -0.13953,-0.07286 13.242396,13.242395 30 0 1 -0.13849,-0.07441 13.242396,13.242395 30 0 1 -0.13798,-0.07596 13.242396,13.242395 30 0 1 -0.13694,-0.07752 13.242396,13.242395 30 0 1 -0.0207,-0.01241 13.242396,13.242395 30 0 1 -0.13591,-0.07958 13.242396,13.242395 30 0 1 -0.13488,-0.08113 13.242396,13.242395 30 0 1 -0.13384,-0.08268 13.242396,13.242395 30 0 1 -0.13332,-0.08423 13.242396,13.242395 30 0 1 -0.13178,-0.08578 13.242396,13.242395 30 0 1 -0.13074,-0.08733 13.242396,13.242395 30 0 1 -0.12971,-0.08888 13.242396,13.242395 30 0 1 -0.12919,-0.09043 13.242396,13.242395 30 0 1 -0.12764,-0.0925 13.242396,13.242395 30 0 1 -0.12661,-0.09353 13.242396,13.242395 30 0 1 -0.12505,-0.09509 13.242396,13.242395 30 0 1 -0.12454,-0.09612 13.242396,13.242395 30 0 1 -0.12299,-0.09818 13.242396,13.242395 30 0 1 -0.12196,-0.09974 13.242396,13.242395 30 0 1 -0.12092,-0.100769 13.242396,13.242395 30 0 1 -0.11989,-0.10232 13.242396,13.242395 30 0 1 -0.11834,-0.103868 13.242396,13.242395 30 0 1 -0.11679,-0.104904 13.242396,13.242395 30 0 1 -0.11575,-0.106453 13.242396,13.242395 30 0 1 -0.11473,-0.108005 13.242396,13.242395 30 0 1 -0.11317,-0.109554 13.242396,13.242395 30 0 1 -0.11214,-0.110588 13.242396,13.242395 30 0 1 -0.11058,-0.111619 13.242396,13.242395 30 0 1 -0.10956,-0.113173 13.242396,13.242395 30 0 1 -0.108,-0.114721 13.242396,13.242395 30 0 1 -0.10646,-0.115755 13.242396,13.242395 30 0 1 -0.10541,-0.117306 13.242396,13.242395 30 0 1 -0.10387,-0.117821 13.242396,13.242395 30 0 1 -0.10232,-0.119891 13.242396,13.242395 30 0 1 -0.10077,-0.120404 13.242396,13.242395 30 0 1 -0.0997,-0.121957 13.242396,13.242395 30 0 1 -0.0982,-0.123507 13.242396,13.242395 30 0 1 -0.0966,-0.124024 13.242396,13.242395 30 0 1 -0.0951,-0.125574 13.242396,13.242395 30 0 1 -0.0935,-0.12609 13.242396,13.242395 30 0 1 -0.092,-0.12764 13.242396,13.242395 30 0 1 -0.091,-0.128675 13.242396,13.242395 30 0 1 -0.0889,-0.130225 13.242396,13.242395 30 0 1 -0.0873,-0.130741 13.242396,13.242395 30 0 1 -0.0863,-0.131776 13.242396,13.242395 30 0 1 -0.0842,-0.132808 13.242396,13.242395 30 0 1 -0.0827,-0.133842 13.242396,13.242395 30 0 1 -0.0811,-0.134874 13.242396,13.242395 30 0 1 -0.0796,-0.135911 13.242396,13.242395 30 0 1 -0.0222,-0.03927 13.229167,13.229167 0 0 1 -0.10232,-5.29e-4 13.229167,13.229167 0 0 1 -0.15761,-0.0026 13.229167,13.229167 0 0 1 -0.1571,-0.0047 13.229167,13.229167 0 0 1 -0.1571,-0.0067 13.229167,13.229167 0 0 1 -0.15709,-0.0083 13.229167,13.229167 0 0 1 -0.1571,-0.01035 13.229167,13.229167 0 0 1 -0.1571,-0.01241 13.229167,13.229167 0 0 1 -0.15658,-0.01394 13.229167,13.229167 0 0 1 -0.15658,-0.0155 13.229167,13.229167 0 0 1 -0.15606,-0.0181 13.229167,13.229167 0 0 1 -0.15606,-0.01963 13.229167,13.229167 0 0 1 -0.15606,-0.02119 13.229167,13.229167 0 0 1 -0.15555,-0.02326 13.229167,13.229167 0 0 1 -0.15503,-0.02532 13.229167,13.229167 0 0 1 -0.15503,-0.02687 13.229167,13.229167 0 0 1 -0.15503,-0.02894 13.229167,13.229167 0 0 1 -0.15399,-0.03049 13.229167,13.229167 0 0 1 -0.154,-0.03255 13.229167,13.229167 0 0 1 -0.15348,-0.03462 13.229167,13.229167 0 0 1 -0.15348,-0.03617 13.229167,13.229167 0 0 1 -0.15244,-0.03772 13.229167,13.229167 0 0 1 -0.15193,-0.03979 13.229167,13.229167 0 0 1 -0.15193,-0.04186 13.229167,13.229167 0 0 1 -0.15141,-0.04341 13.229167,13.229167 0 0 1 -0.15038,-0.04496 13.229167,13.229167 0 0 1 -0.15038,-0.04703 13.229167,13.229167 0 0 1 -0.14935,-0.04858 13.229167,13.229167 0 0 1 -0.14934,-0.05064 13.229167,13.229167 0 0 1 -0.14831,-0.05219 13.229167,13.229167 0 0 1 -0.14779,-0.05426 13.229167,13.229167 0 0 1 -0.14677,-0.05581 13.229167,13.229167 0 0 1 -0.14676,-0.05736 13.229167,13.229167 0 0 1 -0.14573,-0.05943 13.229167,13.229167 0 0 1 -0.14469,-0.06098 13.229167,13.229167 0 0 1 -0.14418,-0.06305 13.229167,13.229167 0 0 1 -0.14366,-0.06408 13.229167,13.229167 0 0 1 -0.14262,-0.06615 13.229167,13.229167 0 0 1 -0.14211,-0.06821 13.229167,13.229167 0 0 1 -0.141081,-0.06925 13.229167,13.229167 0 0 1 -0.140041,-0.07131 13.229167,13.229167 0 0 1 -0.139528,-0.07286 13.229167,13.229167 0 0 1 -0.138494,-0.07441 13.229167,13.229167 0 0 1 -0.137975,-0.07648 13.229167,13.229167 0 0 1 -0.136427,-0.07752 13.229167,13.229167 0 0 1 -0.135908,-0.07958 13.229167,13.229167 0 0 1 -0.134874,-0.08114 13.229167,13.229167 0 0 1 -0.133842,-0.08268 13.229167,13.229167 0 0 1 -0.132808,-0.08423 13.229167,13.229167 0 0 1 -0.131776,-0.08578 13.229167,13.229167 0 0 1 -0.13126,-0.08733 13.229167,13.229167 0 0 1 -0.129706,-0.08888 13.229167,13.229167 0 0 1 -0.128675,-0.09043 13.229167,13.229167 0 0 1 -0.12764,-0.09198 13.229167,13.229167 0 0 1 -0.126609,-0.09354 13.229167,13.229167 0 0 1 -0.125055,-0.09457 13.229167,13.229167 0 0 1 -0.124539,-0.09663 13.229167,13.229167 0 0 1 -0.122992,-0.09819 13.229167,13.229167 0 0 1 -0.121957,-0.09922 13.229167,13.229167 0 0 1 -0.120923,-0.10077 13.229167,13.229167 0 0 1 -0.119372,-0.102319 13.229167,13.229167 0 0 1 -0.11834,-0.103352 13.229167,13.229167 0 0 1 -0.117303,-0.10542 A 13.229167,13.229167 0 0 1 96.82355,89.06163 13.229167,13.229167 0 0 1 96.708827,88.954143 13.229167,13.229167 0 0 1 96.595656,88.84459 13.229167,13.229167 0 0 1 96.483518,88.734002 13.229167,13.229167 0 0 1 96.37293,88.62238 13.229167,13.229167 0 0 1 96.263893,88.509209 13.229167,13.229167 0 0 1 96.15589,88.395005 a 13.229167,13.229167 0 0 1 -0.106455,-0.115756 13.229167,13.229167 0 0 1 -0.105418,-0.117305 13.229167,13.229167 0 0 1 -0.10387,-0.118341 13.229167,13.229167 0 0 1 -0.10232,-0.119372 13.229167,13.229167 0 0 1 -0.100769,-0.120406 13.229167,13.229167 0 0 1 -0.09973,-0.121957 13.229167,13.229167 0 0 1 -0.09767,-0.122989 13.229167,13.229167 0 0 1 -0.09664,-0.124024 13.229167,13.229167 0 0 1 -0.09508,-0.125573 13.229167,13.229167 0 0 1 -0.09405,-0.126606 13.229167,13.229167 0 0 1 -0.09199,-0.127125 13.229167,13.229167 0 0 1 -0.09043,-0.128674 13.229167,13.229167 0 0 1 -0.08888,-0.12971 13.229167,13.229167 0 0 1 -0.08785,-0.130741 13.229167,13.229167 0 0 1 -0.08578,-0.131773 13.229167,13.229167 0 0 1 -0.08423,-0.13281 13.229167,13.229167 0 0 1 -0.08268,-0.133842 13.229167,13.229167 0 0 1 -0.08113,-0.134874 13.229167,13.229167 0 0 1 -0.07958,-0.135909 13.229167,13.229167 0 0 1 -0.07803,-0.136427 13.229167,13.229167 0 0 1 -0.07648,-0.137459 13.229167,13.229167 0 0 1 -0.07441,-0.138493 13.229167,13.229167 0 0 1 -0.07338,-0.139526 13.229167,13.229167 0 0 1 -0.07131,-0.140044 13.229167,13.229167 0 0 1 -0.06976,-0.141076 13.229167,13.229167 0 0 1 -0.0677,-0.14211 13.229167,13.229167 0 0 1 -0.06667,-0.142626 13.229167,13.229167 0 0 1 -0.0646,-0.143145 13.229167,13.229167 0 0 1 -0.06253,-0.144177 13.229167,13.229167 0 0 1 -0.06149,-0.145211 13.229167,13.229167 0 0 1 -0.05943,-0.145727 13.229167,13.229167 0 0 1 -0.05736,-0.146243 13.229167,13.229167 0 0 1 -0.05633,-0.146762 13.229167,13.229167 0 0 1 -0.05426,-0.147796 13.229167,13.229167 0 0 1 -0.05219,-0.14831 13.229167,13.229167 0 0 1 -0.05064,-0.148828 13.229167,13.229167 0 0 1 -0.04909,-0.149863 13.229167,13.229167 0 0 1 -0.04703,-0.14986 13.229167,13.229167 0 0 1 -0.04547,-0.150897 13.229167,13.229167 0 0 1 -0.04341,-0.150894 13.229167,13.229167 0 0 1 -0.04186,-0.15193 13.229167,13.229167 0 0 1 -0.03979,-0.151929 13.229167,13.229167 0 0 1 -0.03824,-0.15296 13.229167,13.229167 0 0 1 -0.03617,-0.152964 13.229167,13.229167 0 0 1 -0.03462,-0.153477 13.229167,13.229167 0 0 1 -0.03255,-0.153998 13.229167,13.229167 0 0 1 -0.03101,-0.153995 13.229167,13.229167 0 0 1 -0.02894,-0.154512 13.229167,13.229167 0 0 1 -0.02739,-0.15503 13.229167,13.229167 0 0 1 -0.02532,-0.155546 13.229167,13.229167 0 0 1 -0.02326,-0.155546 13.229167,13.229167 0 0 1 -0.0217,-0.155545 13.229167,13.229167 0 0 1 -0.01963,-0.156062 13.229167,13.229167 0 0 1 -0.0181,-0.156581 13.229167,13.229167 0 0 1 -0.01601,-0.15658 13.229167,13.229167 0 0 1 -0.01394,-0.15658 13.229167,13.229167 0 0 1 -0.01241,-0.156578 13.229167,13.229167 0 0 1 -0.01035,-0.157097 13.229167,13.229167 0 0 1 -0.0088,-0.157096 13.229167,13.229167 0 0 1 -0.0067,-0.157096 13.229167,13.229167 0 0 1 -0.0047,-0.157097 13.229167,13.229167 0 0 1 -0.0031,-0.157615 13.229167,13.229167 0 0 1 -0.0011,-0.157096 13.229167,13.229167 0 0 1 0,-0.01394 13.229167,13.229167 0 0 1 0.0011,-0.157097 13.229167,13.229167 0 0 1 0.0026,-0.157612 13.229167,13.229167 0 0 1 0.0047,-0.157096 13.229167,13.229167 0 0 1 0.0067,-0.157097 13.229167,13.229167 0 0 1 0.0083,-0.157096 13.229167,13.229167 0 0 1 0.01035,-0.157097 13.229167,13.229167 0 0 1 0.01241,-0.157096 13.229167,13.229167 0 0 1 0.01394,-0.15658 13.229167,13.229167 0 0 1 0.01551,-0.156581 13.229167,13.229167 0 0 1 0.0181,-0.156062 13.229167,13.229167 0 0 1 0.01963,-0.156061 13.229167,13.229167 0 0 1 0.02119,-0.156065 13.229167,13.229167 0 0 1 0.02326,-0.155546 13.229167,13.229167 0 0 1 0.02532,-0.15503 13.229167,13.229167 0 0 1 0.02687,-0.155027 13.229167,13.229167 0 0 1 0.02894,-0.15503 13.229167,13.229167 0 0 1 0.03049,-0.153995 13.229167,13.229167 0 0 1 0.03255,-0.153996 13.229167,13.229167 0 0 1 0.03462,-0.153479 13.229167,13.229167 0 0 1 0.03617,-0.152964 13.229167,13.229167 0 0 1 0.03772,-0.152961 13.229167,13.229167 0 0 1 0.03979,-0.151929 13.229167,13.229167 0 0 1 0.04186,-0.151929 13.229167,13.229167 0 0 1 0.04341,-0.15141 13.229167,13.229167 0 0 1 0.04496,-0.150379 13.229167,13.229167 0 0 1 0.04702,-0.150379 13.229167,13.229167 0 0 1 0.04858,-0.149346 13.229167,13.229167 0 0 1 0.05064,-0.149344 13.229167,13.229167 0 0 1 0.05219,-0.148312 13.229167,13.229167 0 0 1 0.05426,-0.147794 13.229167,13.229167 0 0 1 0.05581,-0.146762 13.229167,13.229167 0 0 1 0.05736,-0.146762 13.229167,13.229167 0 0 1 0.05943,-0.145727 13.229167,13.229167 0 0 1 0.06098,-0.144692 13.229167,13.229167 0 0 1 0.06305,-0.144177 13.229167,13.229167 0 0 1 0.06408,-0.143661 13.229167,13.229167 0 0 1 0.06615,-0.142629 13.229167,13.229167 0 0 1 0.06821,-0.142108 13.229167,13.229167 0 0 1 0.06821,-0.139528 z" />
      <path
         id="path1055"
         style="opacity:0.705338;fill:url(#radialGradient1171);fill-opacity:1;stroke:none;stroke-width:0.001;stroke-linecap:round;stroke-linejoin:bevel;stroke-dashoffset:0.907087;stroke-opacity:1"
         d="m 82.168626,67.542647 a 26.458331,26.458331 0 0 0 -2.793627,11.832352 26.458331,26.458331 0 0 0 25.253241,26.430431 13.229166,13.229167 0 0 1 -0.077,-0.007 13.229166,13.229167 0 0 1 -0.15658,-0.016 13.229166,13.229167 0 0 1 -0.15606,-0.0176 13.229166,13.229167 0 0 1 -0.15607,-0.0196 13.229166,13.229167 0 0 1 -0.15606,-0.0212 13.229166,13.229167 0 0 1 -0.15554,-0.0233 13.229166,13.229167 0 0 1 -0.15503,-0.0253 13.229166,13.229167 0 0 1 -0.15503,-0.0269 13.229166,13.229167 0 0 1 -0.15503,-0.0289 13.229166,13.229167 0 0 1 -0.154,-0.031 13.229166,13.229167 0 0 1 -0.15399,-0.032 13.229166,13.229167 0 0 1 -0.15348,-0.0346 13.229166,13.229167 0 0 1 -0.15297,-0.0362 13.229166,13.229167 0 0 1 -0.15296,-0.0377 13.229166,13.229167 0 0 1 -0.15192,-0.0398 13.229166,13.229167 0 0 1 -0.15193,-0.0418 13.229166,13.229167 0 0 1 -0.15142,-0.0434 13.229166,13.229167 0 0 1 -0.15038,-0.045 13.229166,13.229167 0 0 1 -0.15037,-0.047 13.229166,13.229167 0 0 1 -0.14935,-0.0486 13.229166,13.229167 0 0 1 -0.14883,-0.0507 13.229166,13.229167 0 0 1 -0.14882,-0.0522 13.229166,13.229167 0 0 1 -0.14728,-0.0543 13.229166,13.229167 0 0 1 -0.14728,-0.0558 13.229166,13.229167 0 0 1 -0.14625,-0.0579 13.229166,13.229167 0 0 1 -0.14572,-0.0589 13.229166,13.229167 0 0 1 -0.14521,-0.061 13.229166,13.229167 0 0 1 -0.14418,-0.063 13.229166,13.229167 0 0 1 -0.14366,-0.0646 13.229166,13.229167 0 0 1 -0.14263,-0.0661 13.229166,13.229167 0 0 1 -0.14211,-0.0677 13.229166,13.229167 0 0 1 -0.141074,-0.0693 13.229166,13.229167 0 0 1 -0.140044,-0.0713 13.229166,13.229167 0 0 1 -0.139526,-0.0729 13.229166,13.229167 0 0 1 -0.138493,-0.0744 13.229166,13.229167 0 0 1 -0.137975,-0.0765 13.229166,13.229167 0 0 1 -0.136427,-0.0775 13.229166,13.229167 0 0 1 -0.135909,-0.0796 13.229166,13.229167 0 0 1 -0.134876,-0.0811 13.229166,13.229167 0 0 1 -0.133842,-0.0827 13.229166,13.229167 0 0 1 -0.132808,-0.0842 13.229166,13.229167 0 0 1 -0.131776,-0.0858 13.229166,13.229167 0 0 1 -0.130741,-0.0873 13.229166,13.229167 0 0 1 -0.130223,-0.0889 13.229166,13.229167 0 0 1 -0.128674,-0.0904 13.229166,13.229167 0 0 1 -0.127641,-0.092 13.229166,13.229167 0 0 1 -0.126608,-0.0935 13.229166,13.229167 0 0 1 -0.125055,-0.0951 13.229166,13.229167 0 0 1 -0.124542,-0.0961 13.229166,13.229167 0 0 1 -0.122989,-0.0982 13.229166,13.229167 0 0 1 -0.121957,-0.0992 13.229166,13.229167 0 0 1 -0.120923,-0.10077 13.229166,13.229167 0 0 1 -0.119372,-0.10232 13.229166,13.229167 0 0 1 -0.11834,-0.10387 13.229166,13.229167 0 0 1 -0.117306,-0.1049 13.229166,13.229167 0 0 1 -0.115755,-0.10645 13.229166,13.229167 0 0 1 -0.114721,-0.10801 13.229166,13.229167 0 0 1 -0.113173,-0.10904 13.229166,13.229167 0 0 1 -0.111619,-0.11058 13.229166,13.229167 0 0 1 -0.110588,-0.11162 13.229166,13.229167 0 0 1 -0.109554,-0.11318 13.229166,13.229167 0 0 1 -0.108005,-0.11472 13.229166,13.229167 0 0 1 -0.106453,-0.11575 13.229166,13.229167 0 0 1 -0.10542,-0.11679 13.229166,13.229167 0 0 1 -0.103868,-0.11834 13.229166,13.229167 0 0 1 -0.102319,-0.11937 13.229166,13.229167 0 0 1 -0.10077,-0.12041 13.229166,13.229167 0 0 1 -0.09974,-0.12195 13.229166,13.229167 0 0 1 -0.09767,-0.123 13.229166,13.229167 0 0 1 -0.09663,-0.12402 13.229166,13.229167 0 0 1 -0.09509,-0.12557 13.229166,13.229167 0 0 1 -0.09353,-0.12661 13.229166,13.229167 0 0 1 -0.0925,-0.12764 13.229166,13.229167 0 0 1 -0.09043,-0.12816 13.229166,13.229167 0 0 1 -0.08888,-0.12971 13.229166,13.229167 0 0 1 -0.08733,-0.130736 13.229166,13.229167 0 0 1 -0.0863,-0.131776 13.229166,13.229167 0 0 1 -0.08423,-0.132808 13.229166,13.229167 0 0 1 -0.08268,-0.133842 13.229166,13.229167 0 0 1 -0.08113,-0.134876 13.229166,13.229167 0 0 1 -0.07958,-0.135909 13.229166,13.229167 0 0 1 -0.07803,-0.136424 13.229166,13.229167 0 0 1 -0.07648,-0.137462 13.229166,13.229167 0 0 1 -0.07441,-0.138491 13.229166,13.229167 0 0 1 -0.07338,-0.139528 13.229166,13.229167 0 0 1 -0.07132,-0.140041 13.229166,13.229167 0 0 1 -0.06924,-0.141079 13.229166,13.229167 0 0 1 -0.06822,-0.14211 13.229166,13.229167 0 0 1 -0.06615,-0.142626 13.229166,13.229167 0 0 1 -0.06459,-0.143142 13.229166,13.229167 0 0 1 -0.06305,-0.14418 13.229166,13.229167 0 0 1 -0.06149,-0.145211 13.229166,13.229167 0 0 1 -0.05943,-0.145727 13.229166,13.229167 0 0 1 -0.05736,-0.146243 13.229166,13.229167 0 0 1 -0.05633,-0.147278 13.229166,13.229167 0 0 1 -0.05374,-0.147278 13.229166,13.229167 0 0 1 -0.05271,-0.148312 13.229166,13.229167 0 0 1 -0.05064,-0.149344 13.229166,13.229167 0 0 1 -0.04909,-0.149344 13.229166,13.229167 0 0 1 -0.04703,-0.149863 13.229166,13.229167 0 0 1 -0.04547,-0.150894 13.229166,13.229167 0 0 1 -0.04341,-0.150897 13.229166,13.229167 0 0 1 -0.04186,-0.151929 13.229166,13.229167 0 0 1 -0.03979,-0.151927 13.229166,13.229167 0 0 1 -0.03824,-0.152963 13.229166,13.229167 0 0 1 -0.03617,-0.152961 13.229166,13.229167 0 0 1 -0.03462,-0.15348 13.229166,13.229167 0 0 1 -0.03256,-0.153995 13.229166,13.229167 0 0 1 -0.031,-0.153996 13.229166,13.229167 0 0 1 -0.02894,-0.154514 13.229166,13.229167 0 0 1 -0.02687,-0.15503 13.229166,13.229167 0 0 1 -0.02532,-0.155546 13.229166,13.229167 0 0 1 -0.02379,-0.155545 13.229166,13.229167 0 0 1 -0.0217,-0.155546 13.229166,13.229167 0 0 1 -0.01963,-0.156062 13.229166,13.229167 0 0 1 -0.0181,-0.156581 13.229166,13.229167 0 0 1 -0.01601,-0.15658 13.229166,13.229167 0 0 1 -0.01394,-0.156578 13.229166,13.229167 0 0 1 -0.01241,-0.15658 13.229166,13.229167 0 0 1 -0.01035,-0.157097 13.229166,13.229167 0 0 1 -0.0088,-0.157096 13.229166,13.229167 0 0 1 -0.0067,-0.157096 13.229166,13.229167 0 0 1 -0.0047,-0.157613 13.229166,13.229167 0 0 1 -0.0031,-0.157096 13.229166,13.229167 0 0 1 -0.0011,-0.157096 13.229166,13.229167 0 0 1 0,-0.01394 13.229166,13.229167 0 0 1 0.0011,-0.157612 13.229166,13.229167 0 0 1 0.0026,-0.157096 13.229166,13.229167 0 0 1 0.0047,-0.157097 13.229166,13.229167 0 0 1 0.0067,-0.157096 13.229166,13.229167 0 0 1 0.0083,-0.157097 13.229166,13.229167 0 0 1 0.01035,-0.157096 13.229166,13.229167 0 0 1 0.01241,-0.157096 13.229166,13.229167 0 0 1 0.01394,-0.156581 13.229166,13.229167 0 0 1 0.01603,-0.156577 13.229166,13.229167 0 0 1 0.01757,-0.156065 13.229166,13.229167 0 0 1 0.01963,-0.156062 13.229166,13.229167 0 0 1 0.02119,-0.156062 13.229166,13.229167 0 0 1 0.02326,-0.155548 13.229166,13.229167 0 0 1 0.02532,-0.155546 13.229166,13.229167 0 0 1 0.02687,-0.155027 13.229166,13.229167 0 0 1 0.02894,-0.154514 13.229166,13.229167 0 0 1 0.03101,-0.153996 13.229166,13.229167 0 0 1 0.03204,-0.153995 13.229166,13.229167 0 0 1 0.03462,-0.15348 13.229166,13.229167 0 0 1 0.03617,-0.153479 13.229166,13.229167 0 0 1 0.03772,-0.152445 13.229166,13.229167 0 0 1 0.03979,-0.152445 13.229166,13.229167 0 0 1 0.04186,-0.151413 13.229166,13.229167 0 0 1 0.04341,-0.151411 13.229166,13.229167 0 0 1 0.04496,-0.150378 13.229166,13.229167 0 0 1 0.04702,-0.150379 13.229166,13.229167 0 0 1 0.04857,-0.149344 13.229166,13.229167 0 0 1 0.05064,-0.149347 13.229166,13.229167 0 0 1 0.05219,-0.148309 13.229166,13.229167 0 0 1 0.05426,-0.147796 13.229166,13.229167 0 0 1 0.05581,-0.146762 13.229166,13.229167 0 0 1 0.05788,-0.146759 13.229166,13.229167 0 0 1 0.05891,-0.145727 13.229166,13.229167 0 0 1 0.06098,-0.144696 13.229166,13.229167 0 0 1 0.06305,-0.144176 13.229166,13.229167 0 0 1 0.06459,-0.143661 13.229166,13.229167 0 0 1 0.06615,-0.142627 13.229166,13.229167 0 0 1 0.0677,-0.14211 13.229166,13.229167 0 0 1 0.06925,-0.141076 13.229166,13.229167 0 0 1 0.07131,-0.14056 13.229166,13.229167 0 0 1 0.07286,-0.139009 13.229166,13.229167 0 0 1 0.07441,-0.138494 13.229166,13.229167 0 0 1 0.07648,-0.137977 13.229166,13.229167 0 0 1 0.07752,-0.136425 13.229166,13.229167 0 0 1 0.02273,-0.03876 13.229166,13.229166 0 0 1 -0.06821,-0.119372 13.229166,13.229166 0 0 1 -0.07648,-0.137459 13.229166,13.229166 0 0 1 -0.07441,-0.138494 13.229166,13.229166 0 0 1 -0.07338,-0.139525 13.229166,13.229166 0 0 1 -0.07131,-0.140044 13.229166,13.229166 0 0 1 -0.06976,-0.141076 13.229166,13.229166 0 0 1 -0.0677,-0.14211 13.229166,13.229166 0 0 1 -0.06666,-0.142627 13.229166,13.229166 0 0 1 -0.0646,-0.143145 13.229166,13.229166 0 0 1 -0.06253,-0.144176 13.229166,13.229166 0 0 1 -0.06149,-0.145212 13.229166,13.229166 0 0 1 -0.05943,-0.145727 13.229166,13.229166 0 0 1 -0.05736,-0.146243 13.229166,13.229166 0 0 1 -0.05633,-0.146762 13.229166,13.229166 0 0 1 -0.05426,-0.147796 13.229166,13.229166 0 0 1 -0.05219,-0.14831 13.229166,13.229166 0 0 1 -0.05064,-0.148828 13.229166,13.229166 0 0 1 -0.04909,-0.149862 13.229166,13.229166 0 0 1 -0.04703,-0.14986 13.229166,13.229166 0 0 1 -0.04547,-0.150897 13.229166,13.229166 0 0 1 -0.04341,-0.150895 13.229166,13.229166 0 0 1 -0.04186,-0.151929 13.229166,13.229166 0 0 1 -0.03979,-0.151929 13.229166,13.229166 0 0 1 -0.03824,-0.152961 13.229166,13.229166 0 0 1 -0.03617,-0.152964 13.229166,13.229166 0 0 1 -0.03462,-0.153476 13.229166,13.229166 0 0 1 -0.03255,-0.153998 13.229166,13.229166 0 0 1 -0.03101,-0.153996 13.229166,13.229166 0 0 1 -0.02894,-0.154511 13.229166,13.229166 0 0 1 -0.02739,-0.15503 13.229166,13.229166 0 0 1 -0.02532,-0.155546 13.229166,13.229166 0 0 1 -0.02326,-0.155546 13.229166,13.229166 0 0 1 -0.0217,-0.155546 13.229166,13.229166 0 0 1 -0.01963,-0.156062 13.229166,13.229166 0 0 1 -0.0181,-0.15658 13.229166,13.229166 0 0 1 -0.01601,-0.156581 13.229166,13.229166 0 0 1 -0.01394,-0.15658 13.229166,13.229166 0 0 1 -0.01241,-0.156578 13.229166,13.229166 0 0 1 -0.01035,-0.157096 13.229166,13.229166 0 0 1 -0.0088,-0.157096 13.229166,13.229166 0 0 1 -0.0067,-0.157097 13.229166,13.229166 0 0 1 -0.0047,-0.157096 13.229166,13.229166 0 0 1 -0.0031,-0.157615 13.229166,13.229166 0 0 1 -0.0011,-0.157096 13.229166,13.229166 0 0 1 0,-0.01394 13.229166,13.229166 0 0 1 0.0011,-0.157096 13.229166,13.229166 0 0 1 0.0026,-0.157613 13.229166,13.229166 0 0 1 0.0047,-0.157096 13.229166,13.229166 0 0 1 0.0067,-0.157096 13.229166,13.229166 0 0 1 0.0083,-0.157097 13.229166,13.229166 0 0 1 0.01035,-0.157096 13.229166,13.229166 0 0 1 0.01241,-0.157096 13.229166,13.229166 0 0 1 0.01394,-0.156581 13.229166,13.229166 0 0 1 0.01551,-0.15658 13.229166,13.229166 0 0 1 0.0181,-0.156062 13.229166,13.229166 0 0 1 0.01963,-0.156062 13.229166,13.229166 0 0 1 0.02119,-0.156064 13.229166,13.229166 0 0 1 0.02326,-0.155546 13.229166,13.229166 0 0 1 0.02532,-0.15503 13.229166,13.229166 0 0 1 0.02687,-0.155028 13.229166,13.229166 0 0 1 0.02894,-0.155029 13.229166,13.229166 0 0 1 0.03049,-0.153996 13.229166,13.229166 0 0 1 0.03255,-0.153995 13.229166,13.229166 0 0 1 0.03462,-0.15348 13.229166,13.229166 0 0 1 0.03617,-0.152963 13.229166,13.229166 0 0 1 0.03772,-0.152961 13.229166,13.229166 0 0 1 0.03979,-0.151929 13.229166,13.229166 0 0 1 0.04186,-0.151929 13.229166,13.229166 0 0 1 0.04341,-0.151411 13.229166,13.229166 0 0 1 0.04496,-0.150378 13.229166,13.229166 0 0 1 0.04702,-0.150379 13.229166,13.229166 0 0 1 0.04858,-0.149347 13.229166,13.229166 0 0 1 0.05064,-0.149344 13.229166,13.229166 0 0 1 0.05219,-0.148312 13.229166,13.229166 0 0 1 0.05426,-0.147794 13.229166,13.229166 0 0 1 0.05581,-0.146761 13.229166,13.229166 0 0 1 0.05736,-0.146762 13.229166,13.229166 0 0 1 0.05943,-0.145727 13.229166,13.229166 0 0 1 0.06098,-0.144693 13.229166,13.229166 0 0 1 0.06304,-0.144177 13.229166,13.229166 0 0 1 0.06408,-0.14366 13.229166,13.229166 0 0 1 0.06615,-0.142629 13.229166,13.229166 0 0 1 0.06821,-0.142108 13.229166,13.229166 0 0 1 0.06821,-0.139528 z" />
      <path
         id="path1034"
         style="opacity:0.704159;fill:url(#radialGradient1163);fill-opacity:1;stroke:none;stroke-width:0.001;stroke-linecap:round;stroke-linejoin:bevel;stroke-dashoffset:0.907087;stroke-opacity:1"
         d="m 82.168626,67.542647 a 26.458332,26.458332 0 0 0 -2.793627,11.832352 26.458332,26.458332 0 0 0 2.90835,12.058695 13.229167,13.229167 0 0 1 -0.02997,-0.06615 13.229167,13.229167 0 0 1 -0.06253,-0.144177 13.229167,13.229167 0 0 1 -0.06149,-0.144692 13.229167,13.229167 0 0 1 -0.05891,-0.14573 13.229167,13.229167 0 0 1 -0.05788,-0.146759 13.229167,13.229167 0 0 1 -0.05581,-0.146762 13.229167,13.229167 0 0 1 -0.05426,-0.147796 13.229167,13.229167 0 0 1 -0.05219,-0.14831 13.229167,13.229167 0 0 1 -0.05064,-0.148828 13.229167,13.229167 0 0 1 -0.04857,-0.149863 13.229167,13.229167 0 0 1 -0.04703,-0.14986 13.229167,13.229167 0 0 1 -0.04547,-0.150897 13.229167,13.229167 0 0 1 -0.04341,-0.150894 13.229167,13.229167 0 0 1 -0.04186,-0.151929 13.229167,13.229167 0 0 1 -0.03979,-0.152445 13.229167,13.229167 0 0 1 -0.03773,-0.152445 13.229167,13.229167 0 0 1 -0.03617,-0.152964 13.229167,13.229167 0 0 1 -0.03462,-0.153477 13.229167,13.229167 0 0 1 -0.03256,-0.153998 13.229167,13.229167 0 0 1 -0.03049,-0.154511 13.229167,13.229167 0 0 1 -0.02894,-0.154512 13.229167,13.229167 0 0 1 -0.02739,-0.15503 13.229167,13.229167 0 0 1 -0.02482,-0.155029 13.229167,13.229167 0 0 1 -0.02376,-0.155546 13.229167,13.229167 0 0 1 -0.02119,-0.156062 13.229167,13.229167 0 0 1 -0.01963,-0.156065 13.229167,13.229167 0 0 1 -0.0181,-0.15658 13.229167,13.229167 0 0 1 -0.01551,-0.156062 13.229167,13.229167 0 0 1 -0.01447,-0.157096 13.229167,13.229167 0 0 1 -0.01188,-0.156581 13.229167,13.229167 0 0 1 -0.01035,-0.157096 13.229167,13.229167 0 0 1 -0.0088,-0.157096 13.229167,13.229167 0 0 1 -0.0067,-0.157097 13.229167,13.229167 0 0 1 -0.0047,-0.157096 13.229167,13.229167 0 0 1 -0.0026,-0.157612 13.229167,13.229167 0 0 1 -0.0011,-0.157097 13.229167,13.229167 0 0 1 0.0011,-0.157612 13.229167,13.229167 0 0 1 0.0026,-0.157096 13.229167,13.229167 0 0 1 0.0047,-0.157097 13.229167,13.229167 0 0 1 0.0062,-0.157612 13.229167,13.229167 0 0 1 0.0088,-0.157099 13.229167,13.229167 0 0 1 0.0098,-0.156578 13.229167,13.229167 0 0 1 0.01241,-0.157096 13.229167,13.229167 0 0 1 0.01394,-0.156581 13.229167,13.229167 0 0 1 0.0155,-0.15658 13.229167,13.229167 0 0 1 0.0181,-0.156062 13.229167,13.229167 0 0 1 0.01913,-0.15658 13.229167,13.229167 0 0 1 0.0217,-0.155546 13.229167,13.229167 0 0 1 0.02326,-0.155546 13.229167,13.229167 0 0 1 0.02479,-0.155546 13.229167,13.229167 0 0 1 0.02739,-0.15503 13.229167,13.229167 0 0 1 0.02842,-0.154511 13.229167,13.229167 0 0 1 0.03049,-0.154512 13.229167,13.229167 0 0 1 0.03256,-0.153998 13.229167,13.229167 0 0 1 0.03462,-0.153477 13.229167,13.229167 0 0 1 0.03566,-0.152963 13.229167,13.229167 0 0 1 0.03824,-0.152445 13.229167,13.229167 0 0 1 0.03979,-0.152445 13.229167,13.229167 0 0 1 0.04134,-0.151929 13.229167,13.229167 0 0 1 0.04341,-0.150895 13.229167,13.229167 0 0 1 0.04496,-0.150897 13.229167,13.229167 0 0 1 0.04703,-0.14986 13.229167,13.229167 0 0 1 0.04857,-0.149862 13.229167,13.229167 0 0 1 0.05064,-0.148829 13.229167,13.229167 0 0 1 0.05219,-0.148312 13.229167,13.229167 0 0 1 0.05426,-0.147793 13.229167,13.229167 0 0 1 0.05581,-0.147278 13.229167,13.229167 0 0 1 0.05736,-0.146243 13.229167,13.229167 0 0 1 0.05943,-0.14573 13.229167,13.229167 0 0 1 0.06098,-0.145209 13.229167,13.229167 0 0 1 0.06253,-0.144179 13.229167,13.229167 0 0 1 0.0646,-0.143658 13.229167,13.229167 0 0 1 0.06615,-0.142629 13.229167,13.229167 0 0 1 0.06769,-0.14211 13.229167,13.229167 0 0 1 0.06925,-0.141076 13.229167,13.229167 0 0 1 0.07131,-0.14056 13.229167,13.229167 0 0 1 0.07287,-0.13901 13.229167,13.229167 0 0 1 0.07441,-0.139009 13.229167,13.229167 0 0 1 0.07596,-0.137459 13.229167,13.229167 0 0 1 0.07803,-0.136943 13.229167,13.229167 0 0 1 0.07906,-0.135909 13.229167,13.229167 0 0 1 0.08113,-0.134876 13.229167,13.229167 0 0 1 0.08268,-0.133842 13.229167,13.229167 0 0 1 0.08423,-0.132808 13.229167,13.229167 0 0 1 0.08578,-0.131776 13.229167,13.229167 0 0 1 0.08733,-0.130741 13.229167,13.229167 0 0 1 0.08888,-0.130223 13.229167,13.229167 0 0 1 0.08992,-0.128674 13.229167,13.229167 0 0 1 0.09199,-0.127643 13.229167,13.229167 0 0 1 0.09353,-0.126606 13.229167,13.229167 0 0 1 0.09509,-0.125574 13.229167,13.229167 0 0 1 0.09612,-0.124023 13.229167,13.229167 0 0 1 0.09818,-0.122989 13.229167,13.229167 0 0 1 0.09922,-0.121957 13.229167,13.229167 0 0 1 0.100769,-0.120923 13.229167,13.229167 0 0 1 0.10232,-0.11989 13.229167,13.229167 0 0 1 0.103354,-0.118338 13.229167,13.229167 0 0 1 0.105418,-0.11679 13.229167,13.229167 0 0 1 0.106455,-0.116271 13.229167,13.229167 0 0 1 0.107487,-0.114205 13.229167,13.229167 0 0 1 0.109038,-0.113688 13.229167,13.229167 0 0 1 0.110588,-0.111623 13.229167,13.229167 0 0 1 0.112135,-0.110585 13.229167,13.229167 0 0 1 0.112657,-0.109556 13.229167,13.229167 0 0 1 0.114721,-0.108003 13.229167,13.229167 0 0 1 0.115755,-0.106453 13.229167,13.229167 0 0 1 0.11679,-0.10542 13.229167,13.229167 0 0 1 0.118337,-0.10387 13.229167,13.229167 0 0 1 0.119372,-0.10232 13.229167,13.229167 0 0 1 0.120407,-0.101285 13.229167,13.229167 0 0 1 0.121957,-0.09922 13.229167,13.229167 0 0 1 0.122989,-0.09818 13.229167,13.229167 0 0 1 0.124023,-0.09664 13.229167,13.229167 0 0 1 0.125574,-0.09508 13.229167,13.229167 0 0 1 0.12609,-0.09353 13.229167,13.229167 0 0 1 0.127643,-0.0925 13.229167,13.229167 0 0 1 0.128675,-0.09043 13.229167,13.229167 0 0 1 0.129707,-0.08888 13.229167,13.229167 0 0 1 0.130741,-0.08785 13.229167,13.229167 0 0 1 0.131775,-0.08578 13.229167,13.229167 0 0 1 0.132808,-0.08475 13.229167,13.229167 0 0 1 0.133326,-0.08268 13.229167,13.229167 0 0 1 0.134874,-0.08113 13.229167,13.229167 0 0 1 0.135909,-0.07958 13.229167,13.229167 0 0 1 0.01188,-0.0067 13.229167,13.229167 0 0 1 0.136424,-0.07803 13.229167,13.229167 0 0 1 0.137975,-0.07648 13.229167,13.229167 0 0 1 0.138493,-0.07441 13.229167,13.229167 0 0 1 0.139528,-0.07286 13.229167,13.229167 0 0 1 0.140042,-0.07131 13.229167,13.229167 0 0 1 0.141078,-0.06976 13.229167,13.229167 0 0 1 0.142111,-0.0677 13.229167,13.229167 0 0 1 0.142626,-0.06615 13.229167,13.229167 0 0 1 0.143142,-0.06459 13.229167,13.229167 0 0 1 0.144695,-0.06253 13.229167,13.229167 0 0 1 0.144693,-0.0615 13.229167,13.229167 0 0 1 0.145727,-0.05891 13.229167,13.229167 0 0 1 0.146246,-0.05788 13.229167,13.229167 0 0 1 0.147278,-0.05581 13.229167,13.229167 0 0 1 0.147793,-0.05426 13.229167,13.229167 0 0 1 0.148313,-0.05219 13.229167,13.229167 0 0 1 0.148828,-0.05064 13.229167,13.229167 0 0 1 0.149862,-0.04857 13.229167,13.229167 0 0 1 0.14986,-0.04703 13.229167,13.229167 0 0 1 0.150898,-0.04547 13.229167,13.229167 0 0 1 0.150894,-0.04341 13.229167,13.229167 0 0 1 0.151929,-0.04186 13.229167,13.229167 0 0 1 0.151929,-0.03979 13.229167,13.229167 0 0 1 0.152961,-0.03773 13.229167,13.229167 0 0 1 0.152964,-0.03617 13.229167,13.229167 0 0 1 0.153476,-0.03462 13.229167,13.229167 0 0 1 0.153999,-0.03255 13.229167,13.229167 0 0 1 0.153995,-0.03049 13.229167,13.229167 0 0 1 0.155027,-0.02894 13.229167,13.229167 0 0 1 0.15503,-0.02739 13.229167,13.229167 0 0 1 0.15503,-0.02479 13.229167,13.229167 0 0 1 0.155546,-0.02376 13.229167,13.229167 0 0 1 0.156062,-0.02119 13.229167,13.229167 0 0 1 0.156064,-0.01963 13.229167,13.229167 0 0 1 0.05323,-0.0062 z" />
    </g>
  </g>
</svg>
