<?xml version="1.0" encoding="UTF-8" standalone="no"?>
<!-- Created with Inkscape (http://www.inkscape.org/) -->

<svg
   width="120mm"
   height="120mm"
   viewBox="0 0 120 120"
   version="1.1"
   id="svg5"
   xmlns:xlink="http://www.w3.org/1999/xlink"
   xmlns="http://www.w3.org/2000/svg"
   xmlns:svg="http://www.w3.org/2000/svg">
  <defs
     id="defs2">
    <linearGradient
       id="linearGradient1778">
      <stop
         style="stop-color:#c60f0f;stop-opacity:0.31541729;"
         offset="0"
         id="stop1774" />
      <stop
         style="stop-color:#e31e4b;stop-opacity:0.40729201;"
         offset="1"
         id="stop1776" />
    </linearGradient>
    <linearGradient
       id="linearGradient1770">
      <stop
         style="stop-color:#28308e;stop-opacity:0.5204972;"
         offset="0"
         id="stop1766" />
      <stop
         style="stop-color:#47288e;stop-opacity:0.51909429;"
         offset="1"
         id="stop1768" />
    </linearGradient>
    <linearGradient
       id="linearGradient1617">
      <stop
         style="stop-color:#fff37c;stop-opacity:1;"
         offset="0"
         id="stop1613" />
      <stop
         style="stop-color:#ffbc5a;stop-opacity:1;"
         offset="1"
         id="stop1615" />
    </linearGradient>
    <linearGradient
       xlink:href="#linearGradient1617"
       id="linearGradient1619"
       x1="-122.07318"
       y1="194.56885"
       x2="129.67412"
       y2="144.07335"
       gradientUnits="userSpaceOnUse"
       gradientTransform="matrix(0.98458733,0,0,0.98458733,0.04644196,2.5042088)" />
    <linearGradient
       xlink:href="#linearGradient1770"
       id="linearGradient1772"
       x1="28.986128"
       y1="152.45117"
       x2="212.83662"
       y2="92.264549"
       gradientUnits="userSpaceOnUse" />
    <linearGradient
       xlink:href="#linearGradient1778"
       id="linearGradient1780"
       x1="24.553289"
       y1="100.29135"
       x2="167.42046"
       y2="139.92406"
       gradientUnits="userSpaceOnUse" />
  </defs>
  <g
     id="layer1"
     transform="translate(-47.042963,-67.088952)">
    <g
       id="g1789"
       transform="matrix(0.53870648,0,0,0.53870648,49.378225,58.62531)">
      <circle
         style="opacity:1;fill:url(#linearGradient1619);fill-opacity:1;stroke:none;stroke-width:0.11297;stop-color:#000000"
         id="path1301"
         cx="11.898564"
         cy="165.7354"
         r="111.37791"
         transform="rotate(-36)" />
      <path
         style="opacity:0.480544;fill:#d15959;fill-opacity:0.544414;stroke:none;stroke-width:0.224896px;stroke-linecap:butt;stroke-linejoin:miter;stroke-opacity:1"
         d="m 22.202845,109.0571 28.508716,43.13356 12.978425,50.04808 49.832124,-13.78438 51.6091,3.12248 2.28925,-51.65278 L 186.33821,91.805786 137.92091,73.667005 98.003615,40.805786 65.790846,81.248182 Z"
         id="path990-2-6-6" />
      <path
         style="opacity:0.480544;fill:#28308e;fill-opacity:0.492667;stroke:none;stroke-width:0.212831px;stroke-linecap:butt;stroke-linejoin:miter;stroke-opacity:1"
         d="m 32.063585,160.46783 50.813298,8.5899 32.782537,39.67417 23.90415,-45.63218 47.83026,-18.95776 -35.97952,-36.79562 -3.28202,-51.387263 -46.08049,22.887815 -49.918882,-12.797871 7.560415,50.937589 z"
         id="path990-2-1-2-6-9" />
      <path
         style="opacity:0.480544;fill:#286c8e;fill-opacity:0.492667;stroke:none;stroke-width:0.264583px;stroke-linecap:butt;stroke-linejoin:miter;stroke-opacity:1"
         d="m 13.798427,168.59852 63.169084,10.67863 40.753969,49.32137 29.71666,-56.72813 59.46072,-23.56755 -44.72835,-45.74283 -4.08005,-63.882624 -57.28547,28.453225 -62.057161,-15.909811 9.398809,63.32361 z"
         id="path990-2-1-2-3" />
      <path
         style="fill:#286c8e;fill-opacity:0.492667;stroke:none;stroke-width:0.264583px;stroke-linecap:butt;stroke-linejoin:miter;stroke-opacity:1"
         d="m 9.9711391,158.62809 61.7068159,17.2231 35.375225,53.31113 35.48358,-53.31113 61.59846,-17.2231 -39.70189,-50.16763 2.61985,-63.959151 -59.94582,22.309388 -60.054182,-22.309392 2.728202,63.959155 z"
         id="path990-2-1-2" />
      <path
         style="fill:url(#linearGradient1772);fill-opacity:1;stroke:none;stroke-width:0.212831px;stroke-linecap:butt;stroke-linejoin:miter;stroke-opacity:1"
         d="m 28.986127,152.45117 49.637049,13.85428 28.455874,42.88354 28.54306,-42.88354 49.54986,-13.85428 -31.93623,-40.35493 2.10739,-51.448824 -48.22048,17.945706 -48.307679,-17.945709 2.194571,51.448827 z"
         id="path990-2-1-2-6" />
      <path
         style="fill:url(#linearGradient1780);fill-opacity:1;stroke:none;stroke-width:0.224896px;stroke-linecap:butt;stroke-linejoin:miter;stroke-opacity:1"
         d="m 24.553289,100.29135 23.843858,45.87724 7.675879,51.13053 50.999994,-8.5 51,8.5 7.67589,-51.13053 23.84385,-45.87723 -46.25605,-23.100403 -36.26369,-36.8537 -36.263685,36.853699 z"
         id="path990-2-6" />
    </g>
  </g>
</svg>
