<?xml version="1.0" encoding="UTF-8" standalone="no"?>
<!-- Created with Inkscape (http://www.inkscape.org/) -->

<svg
   width="120mm"
   height="120mm"
   viewBox="0 0 120 120"
   version="1.1"
   id="svg5"
   inkscape:version="1.2.2 (b0a8486541, 2022-12-01)"
   sodipodi:docname="logo.svg"
   xmlns:inkscape="http://www.inkscape.org/namespaces/inkscape"
   xmlns:sodipodi="http://sodipodi.sourceforge.net/DTD/sodipodi-0.dtd"
   xmlns:xlink="http://www.w3.org/1999/xlink"
   xmlns="http://www.w3.org/2000/svg"
   xmlns:svg="http://www.w3.org/2000/svg">
  <sodipodi:namedview
     id="namedview7"
     pagecolor="#ffffff"
     bordercolor="#111111"
     borderopacity="1"
     inkscape:showpageshadow="0"
     inkscape:pageopacity="0"
     inkscape:pagecheckerboard="1"
     inkscape:deskcolor="#d1d1d1"
     inkscape:document-units="mm"
     showgrid="false"
     inkscape:zoom="1.6819304"
     inkscape:cx="207.49967"
     inkscape:cy="223.55265"
     inkscape:window-width="2248"
     inkscape:window-height="2978"
     inkscape:window-x="0"
     inkscape:window-y="20"
     inkscape:window-maximized="1"
     inkscape:current-layer="layer1">
    <inkscape:grid
       type="xygrid"
       id="grid790"
       dotted="true"
       originx="-20"
       originy="-90.000001" />
  </sodipodi:namedview>
  <defs
     id="defs2">
    <linearGradient
       inkscape:collect="always"
       id="linearGradient1467">
      <stop
         style="stop-color:#ffa002;stop-opacity:1;"
         offset="0"
         id="stop1463" />
      <stop
         style="stop-color:#fdff27;stop-opacity:1;"
         offset="1"
         id="stop1465" />
    </linearGradient>
    <linearGradient
       inkscape:collect="always"
       id="linearGradient1241">
      <stop
         style="stop-color:#810000;stop-opacity:1;"
         offset="0"
         id="stop1237" />
      <stop
         style="stop-color:#ff0303;stop-opacity:1;"
         offset="1"
         id="stop1239" />
    </linearGradient>
    <linearGradient
       inkscape:collect="always"
       id="linearGradient1231">
      <stop
         style="stop-color:#4c0000;stop-opacity:1;"
         offset="0"
         id="stop1227" />
      <stop
         style="stop-color:#af0000;stop-opacity:1;"
         offset="1"
         id="stop1229" />
    </linearGradient>
    <linearGradient
       inkscape:collect="always"
       id="linearGradient1067">
      <stop
         style="stop-color:#545600;stop-opacity:1;"
         offset="0"
         id="stop1063" />
      <stop
         style="stop-color:#00828a;stop-opacity:1;"
         offset="1"
         id="stop1065" />
    </linearGradient>
    <linearGradient
       inkscape:collect="always"
       xlink:href="#linearGradient1067"
       id="linearGradient1061"
       x1="71"
       y1="150"
       x2="90"
       y2="140"
       gradientUnits="userSpaceOnUse" />
    <linearGradient
       inkscape:collect="always"
       xlink:href="#linearGradient1231"
       id="linearGradient1233"
       x1="70"
       y1="159"
       x2="80"
       y2="147"
       gradientUnits="userSpaceOnUse" />
    <linearGradient
       inkscape:collect="always"
       xlink:href="#linearGradient1241"
       id="linearGradient1235"
       x1="80"
       y1="159"
       x2="90"
       y2="147"
       gradientUnits="userSpaceOnUse" />
    <linearGradient
       inkscape:collect="always"
       xlink:href="#linearGradient1231"
       id="linearGradient1416"
       gradientUnits="userSpaceOnUse"
       x1="70"
       y1="159"
       x2="80"
       y2="147"
       gradientTransform="translate(1.8199604,0.05726934)" />
    <linearGradient
       inkscape:collect="always"
       xlink:href="#linearGradient1241"
       id="linearGradient1418"
       gradientUnits="userSpaceOnUse"
       x1="80"
       y1="159"
       x2="90"
       y2="147"
       gradientTransform="translate(1.8199604,0.05726934)" />
    <linearGradient
       inkscape:collect="always"
       xlink:href="#linearGradient1467"
       id="linearGradient1455"
       gradientUnits="userSpaceOnUse"
       x1="72.986183"
       y1="160"
       x2="87.889946"
       y2="154.85721" />
    <clipPath
       clipPathUnits="userSpaceOnUse"
       id="clipPath1535">
      <circle
         style="fill:none;fill-opacity:1;stroke:#000000;stroke-width:0.0280001;stroke-dasharray:none;stroke-opacity:1;stop-color:#000000"
         id="circle1537"
         cx="80"
         cy="150"
         r="10" />
    </clipPath>
  </defs>
  <g
     inkscape:label="Layer 1"
     inkscape:groupmode="layer"
     id="layer1"
     transform="translate(-20,-90)">
    <g
       id="g1520"
       clip-path="url(#clipPath1535)"
       transform="matrix(6,0,0,6,-400,-750)">
      <circle
         style="opacity:1;fill:url(#linearGradient1061);fill-opacity:1;stroke:none;stroke-width:0.128;stroke-opacity:1;-inkscape-stroke:none;stop-color:#000000"
         id="path993"
         cx="80"
         cy="150"
         r="10" />
      <path
         id="path993-0"
         style="fill:url(#linearGradient1455);fill-opacity:1;stroke:none;stroke-width:0.128;stroke-opacity:1;-inkscape-stroke:none;stop-color:#000000"
         d="M 88.73877,154.85721 H 71.261283 a 10,10 0 0 0 8.738485,5.14284 10,10 0 0 0 8.739002,-5.14284 z" />
      <path
         id="path990"
         style="opacity:1;fill:url(#linearGradient1233);fill-opacity:1;stroke:none;stroke-width:0.128;-inkscape-stroke:none;stop-color:#000000"
         d="m 79.999768,147.32072 a 20,20 0 0 1 -1.321883,0.69867 20,20 0 0 1 -1.370976,0.5979 20,20 0 0 1 -1.4118,0.49402 20,20 0 0 1 -1.444873,0.38706 20,20 0 0 1 -1.469161,0.27802 20,20 0 0 1 -1.486731,0.16743 20,20 0 0 1 -1.494482,0.0563 10,10 0 0 0 4.976957,8.64495 20,20 0 0 1 0.163814,-0.0455 20,20 0 0 1 0.957564,-0.21549 20,20 0 0 1 0.967383,-0.16743 20,20 0 0 1 0.974101,-0.12041 20,20 0 0 1 0.978752,-0.0723 20,20 0 0 1 0.981335,-0.0238 z" />
      <path
         id="path1224"
         style="fill:url(#linearGradient1235);fill-opacity:1;stroke:none;stroke-width:0.128;-inkscape-stroke:none;stop-color:#000000"
         d="m 79.999768,147.32072 v 10.67945 a 20,20 0 0 1 0.330729,0.003 20,20 0 0 1 0.330729,0.008 20,20 0 0 1 0.330213,0.0134 20,20 0 0 1 0.330212,0.0191 20,20 0 0 1 0.329696,0.0248 20,20 0 0 1 0.329695,0.03 20,20 0 0 1 0.328663,0.0357 20,20 0 0 1 0.328145,0.0408 20,20 0 0 1 0.327629,0.046 20,20 0 0 1 0.326595,0.0522 20,20 0 0 1 0.325561,0.0568 20,20 0 0 1 0.324528,0.0625 20,20 0 0 1 0.324011,0.0677 20,20 0 0 1 0.322461,0.0734 20,20 0 0 1 0.320911,0.0785 20,20 0 0 1 0.117822,0.031 10,10 0 0 0 4.972823,-8.64288 20,20 0 0 1 -1.083138,-0.0295 20,20 0 0 1 -1.07952,-0.0879 20,20 0 0 1 -1.07332,-0.14624 20,20 0 0 1 -1.063501,-0.20413 20,20 0 0 1 -1.051099,-0.26148 20,20 0 0 1 -1.035595,-0.31781 20,20 0 0 1 -1.016992,-0.37362 20,20 0 0 1 -0.994772,-0.42788 20,20 0 0 1 -0.970483,-0.48162 20,20 0 0 1 -0.630453,-0.35037 20,20 0 0 1 -0.0015,0.001 z" />
      <path
         id="path990-0"
         style="opacity:0.497978;fill:url(#linearGradient1416);fill-opacity:1;stroke:none;stroke-width:0.128;-inkscape-stroke:none;stop-color:#000000"
         d="m 81.819737,147.37796 a 20,20 0 0 1 -1.321883,0.69867 20,20 0 0 1 -1.370976,0.5979 20,20 0 0 1 -1.4118,0.49402 20,20 0 0 1 -1.444873,0.38706 20,20 0 0 1 -1.469161,0.27802 20,20 0 0 1 -1.486731,0.16743 20,20 0 0 1 -1.494482,0.0563 10,10 0 0 0 4.976957,8.64495 20,20 0 0 1 0.163814,-0.0455 20,20 0 0 1 0.957564,-0.21549 20,20 0 0 1 0.967383,-0.16743 20,20 0 0 1 0.974101,-0.12041 20,20 0 0 1 0.978752,-0.0723 20,20 0 0 1 0.981335,-0.0238 z" />
      <path
         id="path1224-9"
         style="opacity:0.497978;fill:url(#linearGradient1418);fill-opacity:1;stroke:none;stroke-width:0.128;-inkscape-stroke:none;stop-color:#000000"
         d="m 81.819737,147.37796 v 10.67945 a 20,20 0 0 1 0.330729,0.003 20,20 0 0 1 0.330729,0.008 20,20 0 0 1 0.330213,0.0134 20,20 0 0 1 0.330212,0.0191 20,20 0 0 1 0.329696,0.0248 20,20 0 0 1 0.329695,0.03 20,20 0 0 1 0.328663,0.0357 20,20 0 0 1 0.328145,0.0408 20,20 0 0 1 0.327629,0.046 20,20 0 0 1 0.326595,0.0522 20,20 0 0 1 0.325561,0.0568 20,20 0 0 1 0.324528,0.0625 20,20 0 0 1 0.324011,0.0677 20,20 0 0 1 0.322461,0.0734 20,20 0 0 1 0.320911,0.0785 20,20 0 0 1 0.117822,0.031 10,10 0 0 0 4.972823,-8.64288 20,20 0 0 1 -1.083138,-0.0295 20,20 0 0 1 -1.07952,-0.0879 20,20 0 0 1 -1.07332,-0.14624 20,20 0 0 1 -1.063501,-0.20413 20,20 0 0 1 -1.051099,-0.26148 20,20 0 0 1 -1.035595,-0.31781 20,20 0 0 1 -1.016992,-0.37362 20,20 0 0 1 -0.994772,-0.42788 20,20 0 0 1 -0.970483,-0.48162 20,20 0 0 1 -0.630453,-0.35037 20,20 0 0 1 -0.0015,0.001 z" />
    </g>
  </g>
</svg>
