<?xml version="1.0" encoding="UTF-8" standalone="no"?>
<svg
   width="120.00001mm"
   height="120mm"
   viewBox="0 0 120.00001 120"
   version="1.1"
   id="svg8"
   inkscape:version="1.1 (c68e22c387, 2021-05-23)"
   sodipodi:docname="logo.svg"
   xmlns:inkscape="http://www.inkscape.org/namespaces/inkscape"
   xmlns:sodipodi="http://sodipodi.sourceforge.net/DTD/sodipodi-0.dtd"
   xmlns:xlink="http://www.w3.org/1999/xlink"
   xmlns="http://www.w3.org/2000/svg"
   xmlns:svg="http://www.w3.org/2000/svg"
   xmlns:rdf="http://www.w3.org/1999/02/22-rdf-syntax-ns#"
   xmlns:cc="http://creativecommons.org/ns#"
   xmlns:dc="http://purl.org/dc/elements/1.1/">
  <defs
     id="defs2">
    <linearGradient
       inkscape:collect="always"
       id="linearGradient4396">
      <stop
         style="stop-color:#ffffff;stop-opacity:0.09489595"
         offset="0"
         id="stop4392" />
      <stop
         style="stop-color:#000000;stop-opacity:0.5795393"
         offset="1"
         id="stop4394" />
    </linearGradient>
    <linearGradient
       inkscape:collect="always"
       id="linearGradient1534">
      <stop
         style="stop-color:#0098c7;stop-opacity:1"
         offset="0"
         id="stop1530" />
      <stop
         style="stop-color:#009d63;stop-opacity:1"
         offset="1"
         id="stop1532" />
    </linearGradient>
    <linearGradient
       inkscape:collect="always"
       xlink:href="#linearGradient1534"
       id="linearGradient1528"
       x1="-116.89584"
       y1="-165.6579"
       x2="-116.61929"
       y2="-65.470909"
       gradientUnits="userSpaceOnUse"
       gradientTransform="matrix(1.2000027,0,0,1.2000026,30.901547,22.488632)" />
    <clipPath
       clipPathUnits="userSpaceOnUse"
       id="clipPath1631">
      <circle
         style="fill:none;fill-opacity:1;stroke:#009d99;stroke-width:0.0842915;stroke-opacity:1"
         id="circle1633"
         cx="-116.61962"
         cy="-115.70441"
         r="49.999893"
         transform="scale(-1)" />
    </clipPath>
    <clipPath
       clipPathUnits="userSpaceOnUse"
       id="clipPath1774">
      <ellipse
         style="fill:none;fill-opacity:1;stroke:#ffca24;stroke-width:0.10115;stroke-opacity:0"
         id="ellipse1776"
         cx="-109.04231"
         cy="-116.35696"
         transform="scale(-1)"
         rx="60.000004"
         ry="59.999996" />
    </clipPath>
    <clipPath
       clipPathUnits="userSpaceOnUse"
       id="clipPath1774-6">
      <ellipse
         style="fill:none;fill-opacity:1;stroke:#ffca24;stroke-width:0.10115;stroke-opacity:0"
         id="ellipse1776-5"
         cx="-109.04231"
         cy="-116.35696"
         transform="scale(-1)"
         rx="60.000004"
         ry="59.999996" />
    </clipPath>
    <clipPath
       clipPathUnits="userSpaceOnUse"
       id="clipPath1982">
      <ellipse
         style="fill:none;fill-opacity:1;stroke:#49d3ff;stroke-width:0.10115;stroke-opacity:1"
         id="ellipse1984"
         cx="-109.04231"
         cy="-116.35696"
         transform="scale(-1)"
         rx="60.000004"
         ry="59.999996" />
    </clipPath>
    <clipPath
       clipPathUnits="userSpaceOnUse"
       id="clipPath930">
      <ellipse
         style="fill:none;fill-opacity:1;stroke:#0098c7;stroke-width:0.10115;stroke-opacity:1"
         id="ellipse932"
         cx="-109.04231"
         cy="-116.35696"
         transform="scale(-1)"
         rx="60.000004"
         ry="59.999996" />
    </clipPath>
    <radialGradient
       inkscape:collect="always"
       xlink:href="#linearGradient4396"
       id="radialGradient4720"
       gradientUnits="userSpaceOnUse"
       gradientTransform="matrix(1.0363111,1.8657096,-1.0691675,0.59387332,55.914809,-190.88199)"
       cx="119.17894"
       cy="86.362419"
       fx="119.17894"
       fy="86.362419"
       r="55.297141" />
    <clipPath
       clipPathUnits="userSpaceOnUse"
       id="clipPath5084">
      <ellipse
         style="vector-effect:non-scaling-stroke;fill:none;fill-opacity:1;stroke:#000000;stroke-width:0.000267229;stroke-miterlimit:4;stroke-dasharray:none;stroke-opacity:0.580392;-inkscape-stroke:hairline"
         id="ellipse5086"
         cx="-109.04231"
         cy="-116.35696"
         transform="scale(-1)"
         rx="60.000004"
         ry="59.999996" />
    </clipPath>
  </defs>
  <sodipodi:namedview
     id="base"
     pagecolor="#ffffff"
     bordercolor="#666666"
     borderopacity="1.0"
     inkscape:pageopacity="0.0"
     inkscape:pageshadow="2"
     inkscape:zoom="1.979899"
     inkscape:cx="117.43023"
     inkscape:cy="318.45059"
     inkscape:document-units="mm"
     inkscape:current-layer="layer1"
     inkscape:document-rotation="0"
     showgrid="false"
     fit-margin-top="0"
     fit-margin-left="0"
     fit-margin-right="0"
     fit-margin-bottom="0"
     inkscape:pagecheckerboard="true"
     inkscape:window-width="4500"
     inkscape:window-height="2980"
     inkscape:window-x="0"
     inkscape:window-y="20"
     inkscape:window-maximized="1" />
  <metadata
     id="metadata5">
    <rdf:RDF>
      <cc:Work
         rdf:about="">
        <dc:format>image/svg+xml</dc:format>
        <dc:type
           rdf:resource="http://purl.org/dc/dcmitype/StillImage" />
      </cc:Work>
    </rdf:RDF>
  </metadata>
  <g
     inkscape:label="Layer 1"
     inkscape:groupmode="layer"
     id="layer1"
     transform="translate(-49.042311,-56.356955)">
    <g
       id="g5023"
       clip-path="url(#clipPath5084)">
      <ellipse
         style="fill:url(#linearGradient1528);fill-opacity:1;stroke-width:0.10115;stroke-opacity:0.984314"
         id="path833"
         cx="-109.04231"
         cy="-116.35696"
         transform="scale(-1)"
         rx="60.000004"
         ry="59.999996" />
      <g
         id="g4313">
        <path
           id="path2682"
           style="opacity:0.651396;mix-blend-mode:hard-light;fill:#ff0a0a;fill-opacity:1;stroke-width:0.0822586;stroke-opacity:0.984314"
           d="m 109.04175,56.076869 c -0.36331,1.8e-5 -0.72435,0.01968 -1.08314,0.05873 -0.35896,0.03907 -0.71571,0.09749 -1.0697,0.174685 -0.354,0.07719 -0.70561,0.173201 -1.0542,0.287565 -0.34859,0.114364 -0.69389,0.246789 -1.03663,0.397381 -0.34275,0.150591 -0.6826,0.319282 -1.01906,0.505154 -0.33646,0.185871 -0.66969,0.389147 -0.99942,0.609351 -0.32973,0.220205 -0.65619,0.457405 -0.97875,0.710995 -0.32257,0.25359 -0.64106,0.523545 -0.95602,0.809574 -0.31495,0.28603 -0.62637,0.58808 -0.933273,0.905601 -0.306903,0.31752 -0.609544,0.650494 -0.907955,0.99856 -0.29841,0.348065 -0.592637,0.711303 -0.882118,1.088967 -0.289478,0.377662 -0.574106,0.769484 -0.85421,1.175797 -0.56021,0.812628 -1.10154,1.68186 -1.621607,2.603408 -0.520068,0.921547 -1.01912,1.895663 -1.495515,2.918554 -0.476398,1.022889 -0.929894,2.09457 -1.359091,3.211225 -0.429196,1.116657 -0.83386,2.27807 -1.212328,3.480915 -0.378471,1.202846 -0.73102,2.447181 -1.055233,3.72864 -0.324212,1.281457 -0.620342,2.600373 -0.886769,3.952868 -0.266428,1.352496 -0.502851,2.738668 -0.707967,4.154624 -0.205113,1.415952 -0.378561,2.861555 -0.518829,4.333392 -0.140272,1.471839 -0.247463,2.969548 -0.319363,4.489691 -0.0719,1.520142 -0.108519,3.062639 -0.108519,4.623514 0,0.78044 0.01552,1.56296 0.04651,2.34752 0.03099,0.78454 0.07718,1.57105 0.137459,2.36028 0.06028,0.78922 0.134856,1.58113 0.222727,2.3756 0.08787,0.79447 0.18906,1.59167 0.302823,2.39195 0.227523,1.60054 0.505415,3.21294 0.826307,4.84008 0.32089,1.62714 0.685059,3.26867 1.085721,4.92691 0.400661,1.65824 0.837477,3.33367 1.304313,5.02752 0.466836,1.69388 0.963698,3.40644 1.483114,5.14043 1.038829,3.46795 2.169179,7.02064 3.336748,10.67615 1.167567,3.65552 2.371937,7.41405 3.559465,11.29318 0.59377,1.93957 1.18329,3.90893 1.76165,5.91116 0.57837,2.00224 1.14563,4.03688 1.69499,6.10631 0.54937,2.0694 1.08125,4.17358 1.58802,6.31468 0.50677,2.14109 0.98861,4.31957 1.43919,6.53686 0.45058,2.21729 0.86977,4.47383 1.25057,6.77182 0.19039,1.14899 0.37116,2.30834 0.54157,3.47836 0.17035,1.16969 0.33036,2.34993 0.47903,3.54119 11.89689,-38.13063 52.65157,-65.06627 52.65157,-90.04 0,-24.973966 -23.57359,-45.219199 -52.65208,-45.219199 z" />
        <path
           id="path2682-6"
           style="opacity:0.44273064;mix-blend-mode:hard-light;fill:#e30000;fill-opacity:1;stroke-width:0.0822586;stroke-opacity:0.984314"
           d="m 109.04175,56.076869 c -0.36331,1.8e-5 -0.72435,0.01968 -1.08314,0.05873 -0.35896,0.03907 -0.71571,0.09749 -1.0697,0.174685 -0.354,0.07719 -0.70561,0.173201 -1.0542,0.287565 -0.34859,0.114364 -0.69389,0.246789 -1.03663,0.397381 -0.34275,0.150591 -0.6826,0.319282 -1.01906,0.505154 -0.33646,0.185871 -0.66969,0.389147 -0.99942,0.609351 -0.32973,0.220205 -0.65619,0.457405 -0.97875,0.710995 -0.32257,0.25359 -0.64106,0.523545 -0.95602,0.809574 -0.31495,0.28603 -0.62637,0.58808 -0.933273,0.905601 -0.306903,0.31752 -0.609544,0.650494 -0.907955,0.99856 -0.29841,0.348065 -0.592637,0.711303 -0.882118,1.088967 -0.289478,0.377662 -0.574106,0.769484 -0.85421,1.175797 -0.56021,0.812628 -1.10154,1.68186 -1.621607,2.603408 -0.520068,0.921547 -1.01912,1.895663 -1.495515,2.918554 -0.476398,1.022889 -0.929894,2.09457 -1.359091,3.211225 -0.429196,1.116657 -0.83386,2.27807 -1.212328,3.480915 -0.378471,1.202846 -0.73102,2.447181 -1.055233,3.72864 -0.324212,1.281457 -0.620342,2.600373 -0.886769,3.952868 -0.266428,1.352496 -0.502851,2.738668 -0.707967,4.154624 -0.205113,1.415952 -0.378561,2.861555 -0.518829,4.333392 -0.140272,1.471839 -0.247463,2.969548 -0.319363,4.489691 -0.0719,1.520142 -0.108519,3.062639 -0.108519,4.623514 0,0.78044 0.01552,1.56296 0.04651,2.34752 0.03099,0.78454 0.07718,1.57105 0.137459,2.36028 0.06028,0.78922 0.134856,1.58113 0.222727,2.3756 0.08787,0.79447 0.18906,1.59167 0.302823,2.39195 0.227523,1.60054 0.505415,3.21294 0.826307,4.84008 0.32089,1.62714 0.685059,3.26867 1.085721,4.92691 0.400661,1.65824 0.837477,3.33367 1.304313,5.02752 0.466836,1.69388 0.963698,3.40644 1.483114,5.14043 1.038829,3.46795 2.169179,7.02064 3.336748,10.67615 1.167567,3.65552 2.371937,7.41405 3.559465,11.29318 0.59377,1.93957 1.18329,3.90893 1.76165,5.91116 0.57837,2.00224 1.14563,4.03688 1.69499,6.10631 0.54937,2.0694 1.08125,4.17358 1.58802,6.31468 0.50677,2.14109 0.98861,4.31957 1.43919,6.53686 0.45058,2.21729 0.86977,4.47383 1.25057,6.77182 0.19039,1.14899 0.37116,2.30834 0.54157,3.47836 0.17035,1.16969 0.33036,2.34993 0.47903,3.54119 11.89689,-38.13063 52.65157,-65.06627 52.65157,-90.04 0,-24.973966 -23.57359,-45.219199 -52.65208,-45.219199 z" />
        <path
           id="path2599"
           style="opacity:1;mix-blend-mode:hard-light;fill:#ffc612;fill-opacity:1;stroke-width:0.0822586;stroke-opacity:0.984314"
           d="m 109.04175,56.076869 c -29.078342,0 -52.650534,20.245233 -52.650534,45.219201 0,24.97395 40.754133,51.9098 52.650534,90.04101 2.7e-4,-8.8e-4 7.6e-4,-0.002 0.001,-0.002 0.14862,-1.19072 0.30825,-2.37049 0.47853,-3.53965 0.1704,-1.17002 0.35117,-2.32937 0.54157,-3.47836 0.19039,-1.149 0.39023,-2.28803 0.59893,-3.41656 0.20869,-1.12854 0.42634,-2.24663 0.65163,-3.35526 0.2253,-1.10865 0.45848,-2.20773 0.69867,-3.29704 0.24019,-1.08931 0.48713,-2.16928 0.74052,-3.23982 0.25339,-1.07055 0.51336,-2.13182 0.77825,-3.18416 0.26489,-1.05235 0.53508,-2.09583 0.80977,-3.13053 0.27469,-1.0347 0.55385,-2.06029 0.83664,-3.07792 0.28279,-1.01762 0.56916,-2.02725 0.85835,-3.02837 0.28919,-1.00111 0.58099,-1.99417 0.87488,-2.97934 0.29389,-0.98515 0.58988,-1.96204 0.88677,-2.93183 0.59378,-1.93956 1.1919,-3.84894 1.78748,-5.73035 0.59559,-1.8814 1.18871,-3.73507 1.77251,-5.56282 0.58379,-1.82776 1.15828,-3.62996 1.71669,-5.40857 0.55841,-1.77862 1.10062,-3.53361 1.62005,-5.2676 0.25972,-0.867 0.51378,-1.72885 0.7612,-2.58553 0.24741,-0.85668 0.48798,-1.70796 0.7214,-2.55489 0.23342,-0.84692 0.45975,-1.68956 0.67748,-2.5273 0.21773,-0.83774 0.42702,-1.67059 0.62735,-2.49971 0.20033,-0.82913 0.39133,-1.65414 0.57257,-2.47521 0.18125,-0.82107 0.3527,-1.63865 0.51315,-2.45221 0.16045,-0.81358 0.31008,-1.62312 0.44804,-2.42976 0.13795,-0.80663 0.2645,-1.61006 0.37827,-2.41033 0.11376,-0.80027 0.21495,-1.59748 0.30282,-2.39194 0.0879,-0.79447 0.16245,-1.58638 0.22273,-2.37561 0.0603,-0.78922 0.10595,-1.57573 0.13694,-2.36028 0.0155,-0.39227 0.0273,-0.78407 0.0351,-1.17528 0.008,-0.39122 0.0119,-0.78201 0.0119,-1.17223 0,-0.78043 -0.009,-1.556348 -0.0274,-2.327077 -0.0182,-0.770727 -0.0452,-1.536361 -0.0811,-2.296432 -0.036,-0.760072 -0.0811,-1.514254 -0.13437,-2.262724 -0.0533,-0.748468 -0.11486,-1.491049 -0.18499,-2.226967 -0.0701,-0.735917 -0.14856,-1.465217 -0.23513,-2.18764 -0.0866,-0.722421 -0.18115,-1.437776 -0.28371,-2.145752 -0.10256,-0.707978 -0.21313,-1.408733 -0.33124,-2.101319 -0.11811,-0.692585 -0.24402,-1.377057 -0.37724,-2.053305 -0.13322,-0.676248 -0.2738,-1.344288 -0.42168,-2.00325 -0.14789,-0.658962 -0.30298,-1.308889 -0.46509,-1.949618 -0.16211,-0.64073 -0.33105,-1.272396 -0.50694,-1.893946 -0.1759,-0.621549 -0.35853,-1.233271 -0.54778,-1.834694 -0.18924,-0.601423 -0.38541,-1.192543 -0.58756,-1.772891 -0.20214,-0.580349 -0.41068,-1.149695 -0.62528,-1.708024 -0.2146,-0.558327 -0.43483,-1.105751 -0.66146,-1.641111 -0.22662,-0.53536 -0.45943,-1.05867 -0.69763,-1.570114 -0.2382,-0.511445 -0.48188,-1.011002 -0.73122,-1.497586 -0.24934,-0.486582 -0.50426,-0.960195 -0.7643,-1.420968 -0.26004,-0.460774 -0.52552,-0.908293 -0.79581,-1.34231 -0.2703,-0.434017 -0.54568,-0.854784 -0.82579,-1.261098 -0.28011,-0.406313 -0.56473,-0.798135 -0.85421,-1.175797 -0.28949,-0.377664 -0.5837,-0.740902 -0.88212,-1.088968 -0.29842,-0.348065 -0.60105,-0.681039 -0.90796,-0.99856 -0.3069,-0.317521 -0.6178,-0.619571 -0.93276,-0.9056 -0.31496,-0.286029 -0.63396,-0.555984 -0.95653,-0.809574 -0.16128,-0.126795 -0.32368,-0.249758 -0.48679,-0.368266 -0.1631,-0.118508 -0.32709,-0.232626 -0.49196,-0.342729 -0.16487,-0.110102 -0.33055,-0.216122 -0.49713,-0.3177 -0.16657,-0.101573 -0.33406,-0.198716 -0.50229,-0.291651 -0.16823,-0.09293 -0.33711,-0.181428 -0.50694,-0.265602 -0.16984,-0.08417 -0.34075,-0.164257 -0.51212,-0.239552 -0.17137,-0.0753 -0.34338,-0.146184 -0.51625,-0.212482 -0.17286,-0.06629 -0.3466,-0.127717 -0.52089,-0.184899 -0.1743,-0.05718 -0.34884,-0.109881 -0.52452,-0.157829 -0.17568,-0.04794 -0.35217,-0.09114 -0.52917,-0.129736 -0.177,-0.0386 -0.35451,-0.07252 -0.53278,-0.101648 -0.17827,-0.02913 -0.35744,-0.05351 -0.53692,-0.07305 -0.17948,-0.01953 -0.35938,-0.0346 -0.54002,-0.04443 -0.17978,-0.0098 -0.36018,-0.01426 -0.54105,-0.0143 -0.001,0 -0.002,0 -0.003,0 z" />
        <path
           id="path2682-6-2"
           style="opacity:0.20924;mix-blend-mode:hard-light;fill:#e30000;fill-opacity:1;stroke-width:0.0822586;stroke-opacity:0.984314"
           d="m 103.75008,56.076869 c -0.36331,1.8e-5 -0.72435,0.01968 -1.08314,0.05873 -0.35896,0.03907 -0.71571,0.09749 -1.0697,0.174685 -0.354,0.07719 -0.70561,0.173201 -1.0542,0.287565 -0.34859,0.114364 -0.693887,0.246789 -1.036627,0.397381 -0.34275,0.150591 -0.6826,0.319282 -1.01906,0.505154 -0.33646,0.185871 -0.66969,0.389147 -0.99942,0.609351 -0.32973,0.220205 -0.65619,0.457405 -0.97875,0.710995 -0.32257,0.25359 -0.64106,0.523545 -0.95602,0.809574 -0.31495,0.28603 -0.62637,0.58808 -0.933277,0.905601 -0.3069,0.31752 -0.60954,0.650494 -0.90795,0.99856 -0.29841,0.348065 -0.59264,0.711303 -0.88212,1.088967 -0.28948,0.377662 -0.57411,0.769484 -0.85421,1.175797 -0.56021,0.812628 -1.10154,1.68186 -1.62161,2.603408 -0.52006,0.921547 -1.019116,1.895663 -1.495511,2.918554 -0.476398,1.022889 -0.929894,2.09457 -1.359091,3.211225 -0.429196,1.116657 -0.83386,2.27807 -1.212328,3.480915 -0.378471,1.202846 -0.73102,2.447181 -1.055233,3.72864 -0.324212,1.281457 -0.620342,2.600373 -0.886769,3.952868 -0.266428,1.352496 -0.502851,2.738668 -0.707967,4.154624 -0.205113,1.415952 -0.378561,2.861555 -0.518829,4.333392 -0.140272,1.471839 -0.247463,2.969548 -0.319363,4.489691 -0.0719,1.520146 -0.108519,3.062641 -0.108519,4.623524 0,0.78043 0.01552,1.56296 0.04651,2.34751 0.03099,0.78454 0.07718,1.57105 0.137459,2.36028 0.06028,0.78922 0.134856,1.58113 0.222727,2.3756 0.08787,0.79447 0.18906,1.59167 0.302823,2.39195 0.227523,1.60054 0.505415,3.21294 0.826307,4.84008 0.32089,1.62714 0.685059,3.26867 1.085721,4.92691 0.400661,1.65824 0.837477,3.33367 1.304313,5.02752 0.466836,1.69388 0.963698,3.40644 1.483114,5.14043 1.038829,3.46795 2.169176,7.02064 3.336746,10.67615 1.16757,3.65552 2.37194,7.41405 3.559467,11.29318 0.59377,1.93957 1.18329,3.90893 1.76165,5.91116 0.57837,2.00224 1.14563,4.03688 1.69499,6.10631 0.54937,2.0694 1.08125,4.17358 1.588017,6.31468 0.50677,2.14109 0.98861,4.31957 1.43919,6.53686 0.45058,2.21729 0.86977,4.47383 1.25057,6.77182 0.19039,1.14899 0.37116,2.30834 0.54157,3.47836 0.17035,1.16969 0.33036,2.34993 0.47903,3.54119 11.89689,-38.13063 52.65157,-65.06627 52.65157,-90.03999 0,-24.973976 -23.57359,-45.219209 -52.65208,-45.219209 z" />
        <path
           id="path2599-9"
           style="opacity:0.20924;mix-blend-mode:hard-light;fill:#ffc612;fill-opacity:1;stroke-width:0.0822586;stroke-opacity:0.984314"
           d="m 103.75008,56.076869 c -29.078339,0 -52.650531,20.245233 -52.650531,45.219201 0,24.97395 40.754137,51.9098 52.650531,90.04101 2.7e-4,-8.8e-4 7.6e-4,-0.002 0.001,-0.002 0.14862,-1.19072 0.30825,-2.37049 0.47853,-3.53965 0.1704,-1.17002 0.35117,-2.32937 0.54157,-3.47836 0.19039,-1.149 0.39023,-2.28803 0.59893,-3.41656 0.20869,-1.12854 0.42634,-2.24663 0.65163,-3.35526 0.2253,-1.10865 0.45848,-2.20773 0.69867,-3.29704 0.24019,-1.08931 0.48713,-2.16928 0.74052,-3.23982 0.25339,-1.07055 0.51336,-2.13182 0.77825,-3.18416 0.26489,-1.05235 0.53508,-2.09583 0.80977,-3.13053 0.27469,-1.0347 0.55385,-2.06029 0.83664,-3.07792 0.28279,-1.01762 0.56916,-2.02725 0.85835,-3.02837 0.28919,-1.00111 0.58099,-1.99417 0.87488,-2.97934 0.29389,-0.98515 0.58988,-1.96204 0.88677,-2.93183 0.59378,-1.93956 1.1919,-3.84894 1.78748,-5.73035 0.59559,-1.8814 1.18871,-3.73507 1.77251,-5.56282 0.58379,-1.82776 1.15828,-3.62996 1.71669,-5.40857 0.55841,-1.77862 1.10062,-3.53361 1.62005,-5.2676 0.25972,-0.867 0.51378,-1.72885 0.7612,-2.58553 0.24741,-0.85668 0.48798,-1.70796 0.7214,-2.55489 0.23342,-0.84692 0.45975,-1.68956 0.67748,-2.5273 0.21773,-0.83774 0.42702,-1.67059 0.62735,-2.49971 0.20033,-0.82913 0.39133,-1.65414 0.57257,-2.47521 0.18125,-0.82107 0.3527,-1.63865 0.51315,-2.45221 0.16045,-0.81358 0.31008,-1.62312 0.44804,-2.42976 0.13795,-0.80663 0.2645,-1.61006 0.37827,-2.41033 0.11376,-0.80027 0.21495,-1.59748 0.30282,-2.39194 0.0879,-0.79447 0.16245,-1.58638 0.22273,-2.37561 0.0603,-0.78922 0.10595,-1.57573 0.13694,-2.36028 0.0155,-0.39227 0.0273,-0.78408 0.0351,-1.17529 0.008,-0.39121 0.0119,-0.782 0.0119,-1.17222 0,-0.78043 -0.009,-1.556345 -0.0274,-2.32708 -0.0182,-0.770724 -0.0452,-1.536354 -0.0811,-2.296429 -0.036,-0.760072 -0.0811,-1.514254 -0.13437,-2.262724 -0.0533,-0.748468 -0.11486,-1.491049 -0.18499,-2.226967 -0.0701,-0.735917 -0.14856,-1.465217 -0.23513,-2.18764 -0.0866,-0.722421 -0.18115,-1.437776 -0.28371,-2.145752 -0.10256,-0.707978 -0.21313,-1.408733 -0.33124,-2.101319 -0.11811,-0.692585 -0.24402,-1.377057 -0.37724,-2.053305 -0.13322,-0.676248 -0.2738,-1.344288 -0.42168,-2.00325 -0.14789,-0.658962 -0.30298,-1.308889 -0.46509,-1.949618 -0.16211,-0.64073 -0.33105,-1.272396 -0.50694,-1.893946 -0.1759,-0.621549 -0.35853,-1.233271 -0.54778,-1.834694 -0.18924,-0.601423 -0.38541,-1.192543 -0.58756,-1.772891 -0.20214,-0.580349 -0.41068,-1.149695 -0.62528,-1.708024 -0.2146,-0.558327 -0.43483,-1.105751 -0.66146,-1.641111 -0.22662,-0.53536 -0.45943,-1.05867 -0.69763,-1.570114 -0.2382,-0.511445 -0.48188,-1.011002 -0.73122,-1.497586 -0.24934,-0.486582 -0.50426,-0.960195 -0.7643,-1.420968 -0.26004,-0.460774 -0.52552,-0.908293 -0.79581,-1.34231 -0.2703,-0.434017 -0.54568,-0.854784 -0.82579,-1.261098 -0.28011,-0.406313 -0.56473,-0.798135 -0.85421,-1.175797 -0.28949,-0.377664 -0.5837,-0.740902 -0.88212,-1.088968 -0.29842,-0.348065 -0.60105,-0.681039 -0.90796,-0.99856 -0.3069,-0.317521 -0.6178,-0.619571 -0.93276,-0.9056 -0.31496,-0.286029 -0.63396,-0.555984 -0.95653,-0.809574 -0.16128,-0.126795 -0.32368,-0.249758 -0.48679,-0.368266 -0.1631,-0.118508 -0.32709,-0.232626 -0.49196,-0.342729 -0.16487,-0.110102 -0.33055,-0.216122 -0.49713,-0.3177 -0.16657,-0.101573 -0.33406,-0.198716 -0.50229,-0.291651 -0.16823,-0.09293 -0.33711,-0.181428 -0.50694,-0.265602 -0.16984,-0.08417 -0.34075,-0.164257 -0.51212,-0.239552 -0.17137,-0.0753 -0.34338,-0.146184 -0.51625,-0.212482 -0.17286,-0.06629 -0.3466,-0.127717 -0.52089,-0.184899 -0.1743,-0.05718 -0.34884,-0.109881 -0.52452,-0.157829 -0.17568,-0.04794 -0.35217,-0.09114 -0.52917,-0.129736 -0.177,-0.0386 -0.35451,-0.07252 -0.53278,-0.101648 -0.17827,-0.02913 -0.35744,-0.05351 -0.53692,-0.07305 -0.17948,-0.01953 -0.35938,-0.0346 -0.54002,-0.04443 -0.17978,-0.0098 -0.36018,-0.01426 -0.54105,-0.0143 -0.001,0 -0.002,0 -0.003,0 z" />
      </g>
      <path
         id="path2682-2"
         style="opacity:0.651396;mix-blend-mode:hard-light;fill:url(#radialGradient4720);fill-opacity:1;stroke-width:0.0822587;stroke-opacity:0.984314"
         d="m 103.75008,56.076861 c -29.078338,0 -52.650532,20.245494 -52.650532,45.219459 0,24.97395 40.754141,51.90981 52.650532,90.04102 1.3e-4,-4.4e-4 3.3e-4,-6.5e-4 5.2e-4,-0.001 1.1e-4,-3.6e-4 4e-4,-6.7e-4 5.1e-4,-0.001 5e-5,-3.4e-4 -4e-5,-6.9e-4 0,-0.001 0.76721,-2.45871 1.6563,-4.87022 2.6448,-7.23831 0.98893,2.36913 1.8784,4.78159 2.64584,7.24142 1.3e-4,-4.4e-4 3.3e-4,-6.5e-4 5.2e-4,-10e-4 1.1e-4,-3.6e-4 4e-4,-6.7e-4 5.1e-4,-0.001 4e-5,-3.4e-4 -4e-5,-6.9e-4 0,-0.001 2.23065,-7.14873 5.47594,-13.9038 9.27644,-20.3264 0.31674,-0.53527 0.63751,-1.06871 0.9617,-1.59939 0.32419,-0.53068 0.65177,-1.05875 0.98288,-1.58491 0.33111,-0.52617 0.66554,-1.05028 1.00304,-1.572 1.68751,-2.60861 3.4517,-5.16188 5.25911,-7.66465 1.44593,-2.00221 2.91943,-3.97223 4.40387,-5.91178 14.84436,-19.3955 30.76401,-35.7702 30.76401,-51.37878 0,-24.973963 -23.57359,-45.219459 -52.65208,-45.219459 -0.88732,0 -1.76928,0.01958 -2.64584,0.05684 -0.87655,-0.03726 -1.75851,-0.05684 -2.64583,-0.05684 z" />
    </g>
  </g>
</svg>
