<?xml version="1.0" encoding="UTF-8" standalone="no"?>
<!-- Created with Inkscape (http://www.inkscape.org/) -->

<svg
   width="120mm"
   height="120mm"
   viewBox="0 0 120 120"
   version="1.1"
   id="svg5"
   inkscape:version="1.2.1 (9c6d41e410, 2022-07-14)"
   sodipodi:docname="umbrageous.svg"
   xmlns:inkscape="http://www.inkscape.org/namespaces/inkscape"
   xmlns:sodipodi="http://sodipodi.sourceforge.net/DTD/sodipodi-0.dtd"
   xmlns:xlink="http://www.w3.org/1999/xlink"
   xmlns="http://www.w3.org/2000/svg"
   xmlns:svg="http://www.w3.org/2000/svg">
  <sodipodi:namedview
     id="namedview7"
     pagecolor="#ffffff"
     bordercolor="#111111"
     borderopacity="1"
     inkscape:showpageshadow="0"
     inkscape:pageopacity="0"
     inkscape:pagecheckerboard="1"
     inkscape:deskcolor="#d1d1d1"
     inkscape:document-units="mm"
     showgrid="false"
     inkscape:zoom="0.84096521"
     inkscape:cx="313.33044"
     inkscape:cy="3.5673295"
     inkscape:window-width="4498"
     inkscape:window-height="2978"
     inkscape:window-x="0"
     inkscape:window-y="20"
     inkscape:window-maximized="1"
     inkscape:current-layer="layer1">
    <inkscape:grid
       type="xygrid"
       id="grid686"
       dotted="true"
       originx="-30.012857"
       originy="-61.251071" />
  </sodipodi:namedview>
  <defs
     id="defs2">
    <linearGradient
       inkscape:collect="always"
       id="linearGradient1748">
      <stop
         style="stop-color:#00c187;stop-opacity:1;"
         offset="0"
         id="stop1744" />
      <stop
         style="stop-color:#00a061;stop-opacity:1;"
         offset="1"
         id="stop1746" />
    </linearGradient>
    <linearGradient
       inkscape:collect="always"
       xlink:href="#linearGradient1748"
       id="linearGradient1742"
       x1="43.891422"
       y1="141.55585"
       x2="136.93889"
       y2="100.56907"
       gradientUnits="userSpaceOnUse" />
  </defs>
  <g
     inkscape:label="Layer 1"
     inkscape:groupmode="layer"
     id="layer1"
     transform="translate(-30.012857,-61.251071)">
    <g
       id="g1866"
       transform="matrix(1.1705148,0,0,1.1705143,-15.348521,-20.675043)">
      <circle
         style="fill:url(#linearGradient1742);fill-opacity:1;stroke:none;stroke-width:0.0487479;stroke-dasharray:none;stroke-opacity:1;stop-color:#000000"
         id="path1456"
         cx="90.012856"
         cy="121.25109"
         r="51.259499" />
      <path
         id="path1396"
         style="opacity:1;fill:#ffe61c;fill-opacity:0.680544;stroke:none;stroke-width:0.0352778;stroke-dasharray:none;stroke-opacity:1;stop-color:#000000"
         d="m 116.72983,107.15677 a 80.000008,49.467152 0 0 0 0.0599,-0.0124 80.000008,49.467152 0 0 0 5.08186,-1.2392 80.000008,49.467152 0 0 0 4.93303,-1.45055 80.000008,49.467152 0 0 0 4.76147,-1.65572 80.000008,49.467152 0 0 0 4.5682,-1.8526 80.000008,49.467152 0 0 0 0.8046,-0.37723 50.947006,49.999504 0 0 0 -45.732611,-30.529924 27.658068,50.008572 0 0 1 0.602547,0.05943 27.658068,50.008572 0 0 1 0.601514,0.0832 27.658068,50.008572 0 0 1 0.60048,0.10697 27.658068,50.008572 0 0 1 0.599447,0.130741 27.658068,50.008572 0 0 1 0.597379,0.153996 27.658068,50.008572 0 0 1 0.595313,0.177767 27.658068,50.008572 0 0 1 0.592729,0.201021 27.658068,50.008572 0 0 1 0.590661,0.224793 27.658068,50.008572 0 0 1 0.587561,0.24753 27.658068,50.008572 0 0 1 0.584461,0.270784 27.658068,50.008572 0 0 1 0.58136,0.294039 27.658068,50.008572 0 0 1 0.577225,0.316777 27.658068,50.008572 0 0 1 0.573609,0.338997 27.658068,50.008572 0 0 1 0.568957,0.362252 27.658068,50.008572 0 0 1 0.564828,0.383956 27.658068,50.008572 0 0 1 0.55965,0.406693 27.658068,50.008572 0 0 1 0.55501,0.428398 27.658068,50.008572 0 0 1 0.54983,0.450619 27.658068,50.008572 0 0 1 0.54416,0.471805 27.658068,50.008572 0 0 1 0.53795,0.492994 27.658068,50.008572 0 0 1 0.53227,0.51418 27.658068,50.008572 0 0 1 0.52554,0.535368 27.658068,50.008572 0 0 1 0.51935,0.555522 27.658068,50.008572 0 0 1 0.51263,0.576192 27.658068,50.008572 0 0 1 0.5054,0.596346 27.658068,50.008572 0 0 1 0.49764,0.615983 27.658068,50.008572 0 0 1 0.49041,0.63562 27.658068,50.008572 0 0 1 0.48318,0.654224 27.658068,50.008572 0 0 1 0.47439,0.67386 27.658068,50.008572 0 0 1 0.46663,0.691948 27.658068,50.008572 0 0 1 0.45786,0.710551 27.658068,50.008572 0 0 1 0.44907,0.728121 27.658068,50.008572 0 0 1 0.4408,0.74569 27.658068,50.008572 0 0 1 0.43098,0.763261 27.658068,50.008572 0 0 1 0.42219,0.779798 27.658068,50.008572 0 0 1 0.41238,0.796334 27.658068,50.008572 0 0 1 0.40256,0.812353 27.658068,50.008572 0 0 1 0.39326,0.827857 27.658068,50.008572 0 0 1 0.3824,0.843359 27.658068,50.008572 0 0 1 0.37259,0.858345 27.658068,50.008572 0 0 1 0.36225,0.872815 27.658068,50.008572 0 0 1 0.3514,0.886768 27.658068,50.008572 0 0 1 0.34055,0.900203 27.658068,50.008572 0 0 1 0.3297,0.91364 27.658068,50.008572 0 0 1 0.31884,0.926558 27.658068,50.008572 0 0 1 0.30747,0.938961 27.658068,50.008572 0 0 1 0.29559,0.950846 27.658068,50.008572 0 0 1 0.28474,0.962215 27.658068,50.008572 0 0 1 0.27285,0.973068 27.658068,50.008572 0 0 1 0.26097,0.983402 27.658068,50.008572 0 0 1 0.24908,0.993738 27.658068,50.008572 0 0 1 0.23668,1.003556 27.658068,50.008572 0 0 1 0.22479,1.01234 27.658068,50.008572 0 0 1 0.21291,1.02112 27.658068,50.008572 0 0 1 0.19998,1.0294 27.658068,50.008572 0 0 1 0.18759,1.03663 27.658068,50.008572 0 0 1 0.17518,1.04386 27.658068,50.008572 0 0 1 0.16278,1.0511 27.658068,50.008572 0 0 1 0.014,0.0997 z" />
      <path
         id="path1401"
         style="opacity:1;fill:#006dc5;fill-opacity:0.481859;stroke:none;stroke-width:0.0352778;stroke-dasharray:none;stroke-opacity:1;stop-color:#000000"
         d="m 89.643624,70.012781 a 50.947006,49.999504 0 0 0 -46.556848,30.568679 80.000008,49.467152 0 0 0 0.778247,0.36483 80.000008,49.467152 0 0 0 4.56768,1.8526 80.000008,49.467152 0 0 0 4.761983,1.65572 80.000008,49.467152 0 0 0 4.933032,1.45055 80.000008,49.467152 0 0 0 5.081344,1.2392 80.000008,49.467152 0 0 0 0.06253,0.0129 27.658068,50.008572 0 0 1 0.01292,-0.10025 27.658068,50.008572 0 0 1 0.525033,-3.13159 27.658068,50.008572 0 0 1 0.637687,-3.06286 27.658068,50.008572 0 0 1 0.747241,-2.980699 27.658068,50.008572 0 0 1 0.853178,-2.886129 27.658068,50.008572 0 0 1 0.955497,-2.779159 27.658068,50.008572 0 0 1 1.0542,-2.659786 27.658068,50.008572 0 0 1 1.14825,-2.529561 27.658068,50.008572 0 0 1 1.237134,-2.388485 27.658068,50.008572 0 0 1 1.320849,-2.237072 27.658068,50.008572 0 0 1 1.399398,-2.076359 27.658068,50.008572 0 0 1 1.471228,-1.905827 27.658068,50.008572 0 0 1 1.536857,-1.72806 27.658068,50.008572 0 0 1 1.596285,-1.542542 27.658068,50.008572 0 0 1 1.648478,-1.350822 27.658068,50.008572 0 0 1 1.693954,-1.152901 27.658068,50.008572 0 0 1 1.731677,-0.949813 27.658068,50.008572 0 0 1 1.762683,-0.743107 27.658068,50.008572 0 0 1 1.785938,-0.532784 27.658068,50.008572 0 0 1 1.800923,-0.32091 27.658068,50.008572 0 0 1 1.452625,-0.08578 z" />
      <path
         id="path1257"
         style="opacity:1;fill:#ffe61c;fill-opacity:0.680544;stroke:none;stroke-width:0.0352778;stroke-dasharray:none;stroke-opacity:1;stop-color:#000000"
         d="m 90.000191,69.991593 a 27.658068,50.008572 0 0 0 -26.726017,37.151217 80.000008,49.467152 0 0 0 1.181323,0.2682 80.000008,49.467152 0 0 0 4.141866,0.78652 80.000008,49.467152 0 0 0 4.204912,0.64647 80.000008,49.467152 0 0 0 4.255037,0.50488 80.000008,49.467152 0 0 0 4.292761,0.36174 80.000008,49.467152 0 0 0 4.3186,0.21704 80.000008,49.467152 0 0 0 4.331001,0.0729 80.000008,49.467152 0 0 0 5.17e-4,0 z" />
      <path
         id="path1285"
         style="opacity:1;fill:#006dc5;fill-opacity:0.481859;stroke:none;stroke-width:0.0352778;stroke-dasharray:none;stroke-opacity:1;stop-color:#000000"
         d="m 90.000191,69.991593 v 40.008927 a 80.000008,49.467152 0 0 0 4.330485,-0.0729 80.000008,49.467152 0 0 0 4.3186,-0.21704 80.000008,49.467152 0 0 0 4.292764,-0.36174 80.000008,49.467152 0 0 0 4.25503,-0.50488 80.000008,49.467152 0 0 0 4.20492,-0.64647 80.000008,49.467152 0 0 0 4.14186,-0.78652 80.000008,49.467152 0 0 0 1.18184,-0.26871 27.658068,50.008572 0 0 0 -26.725499,-37.150707 z" />
      <path
         id="path1344"
         style="opacity:1;fill:#006dc5;fill-opacity:0.481859;stroke:none;stroke-width:0.0352778;stroke-dasharray:none;stroke-opacity:1;stop-color:#000000"
         d="m 121.90109,95.264469 a 79.999687,49.383507 0 0 1 1.33221,0.365353 79.999687,49.383507 0 0 1 1.47743,0.427881 79.999687,49.383507 0 0 1 1.46296,0.445967 79.999687,49.383507 0 0 1 1.44798,0.464571 79.999687,49.383507 0 0 1 1.43247,0.483175 79.999687,49.383507 0 0 1 1.41593,0.500745 79.999687,49.383507 0 0 1 1.3994,0.518314 79.999687,49.383507 0 0 1 1.38183,0.535885 79.999687,49.383507 0 0 1 1.36374,0.553454 79.999687,49.383507 0 0 1 1.34514,0.569996 79.999687,49.383507 0 0 1 0.97461,0.43201 50.947006,49.999504 0 0 0 -45.099569,-30.49943 36.708076,50.002636 0 0 1 0.532784,0.03927 36.708076,50.002636 0 0 1 0.787549,0.08061 36.708076,50.002636 0 0 1 0.785999,0.104387 36.708076,50.002636 0 0 1 0.784448,0.126607 36.708076,50.002636 0 0 1 0.782381,0.150379 36.708076,50.002636 0 0 1 0.779281,0.172599 36.708076,50.002636 0 0 1 0.776697,0.195853 36.708076,50.002636 0 0 1 0.773596,0.218592 36.708076,50.002636 0 0 1 0.769979,0.240812 36.708076,50.002636 0 0 1 0.765844,0.26355 36.708076,50.002636 0 0 1 0.761191,0.28577 36.708076,50.002636 0 0 1 0.75655,0.308509 36.708076,50.002636 0 0 1 0.75189,0.330212 36.708076,50.002636 0 0 1 0.74621,0.351917 36.708076,50.002636 0 0 1 0.74104,0.374137 36.708076,50.002636 0 0 1 0.73432,0.395841 36.708076,50.002636 0 0 1 0.72812,0.417029 36.708076,50.002636 0 0 1 0.7214,0.438216 36.708076,50.002636 0 0 1 0.71417,0.459404 36.708076,50.002636 0 0 1 0.70693,0.480074 36.708076,50.002636 0 0 1 0.69919,0.500745 36.708076,50.002636 0 0 1 0.69091,0.521415 36.708076,50.002636 0 0 1 0.68265,0.541052 36.708076,50.002636 0 0 1 0.67386,0.561206 36.708076,50.002636 0 0 1 0.66456,0.580843 36.708076,50.002636 0 0 1 0.65577,0.60048 36.708076,50.002636 0 0 1 0.64595,0.619084 36.708076,50.002636 0 0 1 0.63614,0.637687 36.708076,50.002636 0 0 1 0.6258,0.656808 36.708076,50.002636 0 0 1 0.61495,0.674894 36.708076,50.002636 0 0 1 0.60462,0.692464 36.708076,50.002636 0 0 1 0.59324,0.710034 36.708076,50.002636 0 0 1 0.58188,0.727088 36.708076,50.002636 0 0 1 0.57051,0.744657 36.708076,50.002636 0 0 1 0.55862,0.760677 36.708076,50.002636 0 0 1 0.54622,0.776697 36.708076,50.002636 0 0 1 0.53433,0.793233 36.708076,50.002636 0 0 1 0.5209,0.80822 36.708076,50.002636 0 0 1 0.5085,0.823205 36.708076,50.002636 0 0 1 0.49557,0.838192 36.708076,50.002636 0 0 1 0.48163,0.852144 36.708076,50.002636 0 0 1 0.4687,0.866614 36.708076,50.002636 0 0 1 0.45476,0.88005 36.708076,50.002636 0 0 1 0.44028,0.892968 36.708076,50.002636 0 0 1 0.42633,0.905371 36.708076,50.002636 0 0 1 0.41186,0.918291 36.708076,50.002636 0 0 1 0.37776,0.884183 z" />
      <path
         id="path1371"
         style="opacity:1;fill:#ffe61c;fill-opacity:0.680544;stroke:none;stroke-width:0.0352778;stroke-dasharray:none;stroke-opacity:1;stop-color:#000000"
         d="m 89.613652,70.013814 a 50.947006,49.999504 0 0 0 -46.502588,30.550586 79.999687,49.383507 0 0 1 1.443839,-0.65577 79.999687,49.383507 0 0 1 4.05815,-1.619539 79.999687,49.383507 0 0 1 4.209046,-1.465544 79.999687,49.383507 0 0 1 4.344954,-1.305863 79.999687,49.383507 0 0 1 0.945679,-0.252181 36.708076,50.002636 0 0 1 0.893485,-2.058272 36.708076,50.002636 0 0 1 1.296562,-2.598291 36.708076,50.002636 0 0 1 1.413351,-2.482019 36.708076,50.002636 0 0 1 1.524971,-2.355929 36.708076,50.002636 0 0 1 1.630392,-2.22157 36.708076,50.002636 0 0 1 1.730126,-2.076876 36.708076,50.002636 0 0 1 1.822111,-1.925463 36.708076,50.002636 0 0 1 1.906861,-1.765784 36.708076,50.002636 0 0 1 1.985408,-1.598869 36.708076,50.002636 0 0 1 2.054655,-1.42627 36.708076,50.002636 0 0 1 2.11615,-1.247469 36.708076,50.002636 0 0 1 2.169894,-1.064017 36.708076,50.002636 0 0 1 2.214335,-0.876433 36.708076,50.002636 0 0 1 2.250508,-0.685229 36.708076,50.002636 0 0 1 2.277897,-0.491443 36.708076,50.002636 0 0 1 2.295468,-0.295589 36.708076,50.002636 0 0 1 1.918746,-0.08217 z" />
      <path
         id="path1335"
         style="opacity:1;fill:#006dc5;fill-opacity:0.481859;stroke:none;stroke-width:0.0352778;stroke-dasharray:none;stroke-opacity:1;stop-color:#000000"
         d="m 90.000191,69.997278 a 36.708076,50.002636 0 0 0 -31.897794,25.283211 79.999687,49.383507 0 0 1 1.283125,-0.3545 79.999687,49.383507 0 0 1 4.192509,-0.987537 79.999687,49.383507 0 0 1 4.275192,-0.841292 79.999687,49.383507 0 0 1 4.344954,-0.691948 79.999687,49.383507 0 0 1 4.401282,-0.540535 79.999687,49.383507 0 0 1 4.443656,-0.387057 79.999687,49.383507 0 0 1 4.471045,-0.23306 79.999687,49.383507 0 0 1 4.486031,-0.07752 z" />
      <path
         id="path1338"
         style="opacity:1;fill:#ffe61c;fill-opacity:0.680544;stroke:none;stroke-width:0.0352778;stroke-dasharray:none;stroke-opacity:1;stop-color:#000000"
         d="m 90.000191,69.997278 v 21.169767 a 79.999687,49.383507 0 0 1 1.513603,0.0088 79.999687,49.383507 0 0 1 1.513603,0.02635 79.999687,49.383507 0 0 1 1.512052,0.04444 79.999687,49.383507 0 0 1 1.511019,0.06201 79.999687,49.383507 0 0 1 1.508435,0.07906 79.999687,49.383507 0 0 1 1.505851,0.09715 79.999687,49.383507 0 0 1 1.502236,0.114722 79.999687,49.383507 0 0 1 1.49913,0.132291 79.999687,49.383507 0 0 1 1.49397,0.149862 79.999687,49.383507 0 0 1 1.48983,0.166915 79.999687,49.383507 0 0 1 1.48415,0.184485 79.999687,49.383507 0 0 1 1.47846,0.202055 79.999687,49.383507 0 0 1 1.47174,0.219108 79.999687,49.383507 0 0 1 1.46503,0.236161 79.999687,49.383507 0 0 1 1.45728,0.253215 79.999687,49.383507 0 0 1 1.449,0.270267 79.999687,49.383507 0 0 1 1.44074,0.286805 79.999687,49.383507 0 0 1 1.43196,0.303857 79.999687,49.383507 0 0 1 1.42213,0.320911 79.999687,49.383507 0 0 1 1.4118,0.33693 79.999687,49.383507 0 0 1 1.40147,0.353467 79.999687,49.383507 0 0 1 0.93327,0.248563 36.708076,50.002636 0 0 0 -31.896759,-25.267191 z" />
      <path
         id="path1396-9"
         style="opacity:0.752928;fill:#000000;fill-opacity:0.116441;stroke:none;stroke-width:0.0352778;stroke-dasharray:none;stroke-opacity:1;stop-color:#000000"
         d="m 63.295881,135.34537 a 80.000008,49.467152 0 0 0 -0.0599,0.0124 80.000008,49.467152 0 0 0 -5.08186,1.2392 80.000008,49.467152 0 0 0 -4.93303,1.45055 80.000008,49.467152 0 0 0 -4.76147,1.65572 80.000008,49.467152 0 0 0 -4.5682,1.8526 80.000008,49.467152 0 0 0 -0.8046,0.37723 50.947006,49.999504 0 0 0 45.732611,30.52993 27.658068,50.008572 0 0 1 -0.602547,-0.0594 27.658068,50.008572 0 0 1 -0.601514,-0.0832 27.658068,50.008572 0 0 1 -0.60048,-0.10697 27.658068,50.008572 0 0 1 -0.599447,-0.13074 27.658068,50.008572 0 0 1 -0.597379,-0.154 27.658068,50.008572 0 0 1 -0.595313,-0.17777 27.658068,50.008572 0 0 1 -0.592729,-0.20102 27.658068,50.008572 0 0 1 -0.590661,-0.22479 27.658068,50.008572 0 0 1 -0.587561,-0.24753 27.658068,50.008572 0 0 1 -0.584461,-0.27079 27.658068,50.008572 0 0 1 -0.58136,-0.29403 27.658068,50.008572 0 0 1 -0.577225,-0.31678 27.658068,50.008572 0 0 1 -0.573609,-0.339 27.658068,50.008572 0 0 1 -0.568957,-0.36225 27.658068,50.008572 0 0 1 -0.564828,-0.38396 27.658068,50.008572 0 0 1 -0.55965,-0.40669 27.658068,50.008572 0 0 1 -0.55501,-0.4284 27.658068,50.008572 0 0 1 -0.54983,-0.45062 27.658068,50.008572 0 0 1 -0.54416,-0.4718 27.658068,50.008572 0 0 1 -0.53795,-0.493 27.658068,50.008572 0 0 1 -0.53227,-0.51418 27.658068,50.008572 0 0 1 -0.52554,-0.53536 27.658068,50.008572 0 0 1 -0.51935,-0.55553 27.658068,50.008572 0 0 1 -0.51263,-0.57619 27.658068,50.008572 0 0 1 -0.5054,-0.59634 27.658068,50.008572 0 0 1 -0.49764,-0.61599 27.658068,50.008572 0 0 1 -0.49041,-0.63562 27.658068,50.008572 0 0 1 -0.48318,-0.65422 27.658068,50.008572 0 0 1 -0.47439,-0.67386 27.658068,50.008572 0 0 1 -0.46663,-0.69195 27.658068,50.008572 0 0 1 -0.45786,-0.71055 27.658068,50.008572 0 0 1 -0.44907,-0.72812 27.658068,50.008572 0 0 1 -0.4408,-0.74569 27.658068,50.008572 0 0 1 -0.43098,-0.76326 27.658068,50.008572 0 0 1 -0.42219,-0.7798 27.658068,50.008572 0 0 1 -0.41238,-0.79633 27.658068,50.008572 0 0 1 -0.40256,-0.81236 27.658068,50.008572 0 0 1 -0.39326,-0.82785 27.658068,50.008572 0 0 1 -0.3824,-0.84336 27.658068,50.008572 0 0 1 -0.37259,-0.85835 27.658068,50.008572 0 0 1 -0.36225,-0.87281 27.658068,50.008572 0 0 1 -0.3514,-0.88677 27.658068,50.008572 0 0 1 -0.34055,-0.9002 27.658068,50.008572 0 0 1 -0.3297,-0.91364 27.658068,50.008572 0 0 1 -0.31884,-0.92656 27.658068,50.008572 0 0 1 -0.30747,-0.93896 27.658068,50.008572 0 0 1 -0.29559,-0.95085 27.658068,50.008572 0 0 1 -0.28474,-0.96221 27.658068,50.008572 0 0 1 -0.27285,-0.97307 27.658068,50.008572 0 0 1 -0.26097,-0.9834 27.658068,50.008572 0 0 1 -0.24908,-0.99374 27.658068,50.008572 0 0 1 -0.23668,-1.00356 27.658068,50.008572 0 0 1 -0.22479,-1.01234 27.658068,50.008572 0 0 1 -0.21291,-1.02112 27.658068,50.008572 0 0 1 -0.19998,-1.0294 27.658068,50.008572 0 0 1 -0.18759,-1.03663 27.658068,50.008572 0 0 1 -0.17518,-1.04386 27.658068,50.008572 0 0 1 -0.16278,-1.0511 27.658068,50.008572 0 0 1 -0.014,-0.0997 z" />
      <path
         id="path1401-2"
         style="opacity:0.752928;fill:#000000;fill-opacity:0.230271;stroke:none;stroke-width:0.0352778;stroke-dasharray:none;stroke-opacity:1;stop-color:#000000"
         d="m 90.382087,172.48936 a 50.947006,49.999504 0 0 0 46.556853,-30.56868 80.000008,49.467152 0 0 0 -0.77825,-0.36483 80.000008,49.467152 0 0 0 -4.56768,-1.8526 80.000008,49.467152 0 0 0 -4.76198,-1.65572 80.000008,49.467152 0 0 0 -4.93304,-1.45055 80.000008,49.467152 0 0 0 -5.08134,-1.2392 80.000008,49.467152 0 0 0 -0.0625,-0.0129 27.658068,50.008572 0 0 1 -0.0129,0.10025 27.658068,50.008572 0 0 1 -0.52503,3.13159 27.658068,50.008572 0 0 1 -0.63769,3.06286 27.658068,50.008572 0 0 1 -0.74724,2.9807 27.658068,50.008572 0 0 1 -0.85318,2.88613 27.658068,50.008572 0 0 1 -0.9555,2.77916 27.658068,50.008572 0 0 1 -1.0542,2.65979 27.658068,50.008572 0 0 1 -1.14825,2.52956 27.658068,50.008572 0 0 1 -1.23713,2.38848 27.658068,50.008572 0 0 1 -1.32085,2.23707 27.658068,50.008572 0 0 1 -1.3994,2.07636 27.658068,50.008572 0 0 1 -1.47123,1.90583 27.658068,50.008572 0 0 1 -1.53685,1.72806 27.658068,50.008572 0 0 1 -1.59629,1.54254 27.658068,50.008572 0 0 1 -1.64848,1.35082 27.658068,50.008572 0 0 1 -1.69395,1.1529 27.658068,50.008572 0 0 1 -1.731677,0.94982 27.658068,50.008572 0 0 1 -1.762683,0.7431 27.658068,50.008572 0 0 1 -1.785938,0.53279 27.658068,50.008572 0 0 1 -1.800923,0.32091 27.658068,50.008572 0 0 1 -1.452625,0.0858 z" />
      <path
         id="path1257-2"
         style="opacity:0.752928;fill:#000000;fill-opacity:0.116441;stroke:none;stroke-width:0.0352778;stroke-dasharray:none;stroke-opacity:1;stop-color:#000000"
         d="m 90.02552,172.51055 a 27.658068,50.008572 0 0 0 26.72602,-37.15122 80.000008,49.467152 0 0 0 -1.18133,-0.2682 80.000008,49.467152 0 0 0 -4.14186,-0.78652 80.000008,49.467152 0 0 0 -4.20491,-0.64647 80.000008,49.467152 0 0 0 -4.25504,-0.50488 80.000008,49.467152 0 0 0 -4.292762,-0.36174 80.000008,49.467152 0 0 0 -4.3186,-0.21704 80.000008,49.467152 0 0 0 -4.331001,-0.0729 80.000008,49.467152 0 0 0 -5.17e-4,0 z" />
      <path
         id="path1285-8"
         style="opacity:0.752928;fill:#000000;fill-opacity:0.230271;stroke:none;stroke-width:0.0352778;stroke-dasharray:none;stroke-opacity:1;stop-color:#000000"
         d="m 90.02552,172.51055 v -40.00893 a 80.000008,49.467152 0 0 0 -4.330485,0.0729 80.000008,49.467152 0 0 0 -4.3186,0.21704 80.000008,49.467152 0 0 0 -4.292764,0.36174 80.000008,49.467152 0 0 0 -4.25503,0.50488 80.000008,49.467152 0 0 0 -4.20492,0.64647 80.000008,49.467152 0 0 0 -4.14186,0.78652 80.000008,49.467152 0 0 0 -1.18184,0.26871 27.658068,50.008572 0 0 0 26.725499,37.15071 z" />
      <path
         id="path1344-9"
         style="opacity:0.752928;fill:#000000;fill-opacity:0.230271;stroke:none;stroke-width:0.0352778;stroke-dasharray:none;stroke-opacity:1;stop-color:#000000"
         d="m 58.124621,147.23767 a 79.999687,49.383507 0 0 1 -1.33221,-0.36535 79.999687,49.383507 0 0 1 -1.47743,-0.42788 79.999687,49.383507 0 0 1 -1.46296,-0.44597 79.999687,49.383507 0 0 1 -1.44798,-0.46457 79.999687,49.383507 0 0 1 -1.43247,-0.48317 79.999687,49.383507 0 0 1 -1.41593,-0.50075 79.999687,49.383507 0 0 1 -1.3994,-0.51831 79.999687,49.383507 0 0 1 -1.38183,-0.53589 79.999687,49.383507 0 0 1 -1.36374,-0.55345 79.999687,49.383507 0 0 1 -1.34514,-0.57 79.999687,49.383507 0 0 1 -0.97461,-0.43201 50.947006,49.999504 0 0 0 45.099569,30.49943 36.708076,50.002636 0 0 1 -0.532784,-0.0393 36.708076,50.002636 0 0 1 -0.787549,-0.0806 36.708076,50.002636 0 0 1 -0.785999,-0.10438 36.708076,50.002636 0 0 1 -0.784448,-0.12661 36.708076,50.002636 0 0 1 -0.782381,-0.15038 36.708076,50.002636 0 0 1 -0.779281,-0.1726 36.708076,50.002636 0 0 1 -0.776697,-0.19585 36.708076,50.002636 0 0 1 -0.773596,-0.21859 36.708076,50.002636 0 0 1 -0.769979,-0.24082 36.708076,50.002636 0 0 1 -0.765844,-0.26355 36.708076,50.002636 0 0 1 -0.761191,-0.28577 36.708076,50.002636 0 0 1 -0.75655,-0.30851 36.708076,50.002636 0 0 1 -0.75189,-0.33021 36.708076,50.002636 0 0 1 -0.74621,-0.35191 36.708076,50.002636 0 0 1 -0.74104,-0.37414 36.708076,50.002636 0 0 1 -0.73432,-0.39584 36.708076,50.002636 0 0 1 -0.72812,-0.41703 36.708076,50.002636 0 0 1 -0.7214,-0.43822 36.708076,50.002636 0 0 1 -0.71417,-0.4594 36.708076,50.002636 0 0 1 -0.70693,-0.48008 36.708076,50.002636 0 0 1 -0.69919,-0.50074 36.708076,50.002636 0 0 1 -0.69091,-0.52142 36.708076,50.002636 0 0 1 -0.68265,-0.54105 36.708076,50.002636 0 0 1 -0.67386,-0.5612 36.708076,50.002636 0 0 1 -0.66456,-0.58085 36.708076,50.002636 0 0 1 -0.65577,-0.60048 36.708076,50.002636 0 0 1 -0.64595,-0.61908 36.708076,50.002636 0 0 1 -0.63614,-0.63769 36.708076,50.002636 0 0 1 -0.6258,-0.65681 36.708076,50.002636 0 0 1 -0.61495,-0.67489 36.708076,50.002636 0 0 1 -0.60462,-0.69246 36.708076,50.002636 0 0 1 -0.59324,-0.71004 36.708076,50.002636 0 0 1 -0.58188,-0.72709 36.708076,50.002636 0 0 1 -0.57051,-0.74465 36.708076,50.002636 0 0 1 -0.55862,-0.76068 36.708076,50.002636 0 0 1 -0.54622,-0.7767 36.708076,50.002636 0 0 1 -0.53433,-0.79323 36.708076,50.002636 0 0 1 -0.5209,-0.80822 36.708076,50.002636 0 0 1 -0.5085,-0.8232 36.708076,50.002636 0 0 1 -0.49557,-0.8382 36.708076,50.002636 0 0 1 -0.48163,-0.85214 36.708076,50.002636 0 0 1 -0.4687,-0.86661 36.708076,50.002636 0 0 1 -0.45476,-0.88005 36.708076,50.002636 0 0 1 -0.44028,-0.89297 36.708076,50.002636 0 0 1 -0.42633,-0.90537 36.708076,50.002636 0 0 1 -0.41186,-0.91829 36.708076,50.002636 0 0 1 -0.37776,-0.88419 z" />
      <path
         id="path1371-7"
         style="opacity:0.752928;fill:#000000;fill-opacity:0.116441;stroke:none;stroke-width:0.0352778;stroke-dasharray:none;stroke-opacity:1;stop-color:#000000"
         d="m 90.412059,172.48833 a 50.947006,49.999504 0 0 0 46.502591,-30.55059 79.999687,49.383507 0 0 1 -1.44384,0.65577 79.999687,49.383507 0 0 1 -4.05815,1.61954 79.999687,49.383507 0 0 1 -4.20905,1.46555 79.999687,49.383507 0 0 1 -4.34495,1.30586 79.999687,49.383507 0 0 1 -0.94568,0.25218 36.708076,50.002636 0 0 1 -0.89349,2.05827 36.708076,50.002636 0 0 1 -1.29656,2.59829 36.708076,50.002636 0 0 1 -1.41335,2.48202 36.708076,50.002636 0 0 1 -1.52497,2.35593 36.708076,50.002636 0 0 1 -1.63039,2.22157 36.708076,50.002636 0 0 1 -1.73013,2.07688 36.708076,50.002636 0 0 1 -1.82211,1.92546 36.708076,50.002636 0 0 1 -1.90686,1.76578 36.708076,50.002636 0 0 1 -1.98541,1.59887 36.708076,50.002636 0 0 1 -2.05465,1.42627 36.708076,50.002636 0 0 1 -2.11615,1.24747 36.708076,50.002636 0 0 1 -2.1699,1.06402 36.708076,50.002636 0 0 1 -2.214332,0.87643 36.708076,50.002636 0 0 1 -2.250508,0.68523 36.708076,50.002636 0 0 1 -2.277897,0.49144 36.708076,50.002636 0 0 1 -2.295468,0.29559 36.708076,50.002636 0 0 1 -1.918746,0.0822 z" />
      <path
         id="path1335-3"
         style="opacity:0.752928;fill:#000000;fill-opacity:0.230271;stroke:none;stroke-width:0.0352778;stroke-dasharray:none;stroke-opacity:1;stop-color:#000000"
         d="m 90.02552,172.50486 a 36.708076,50.002636 0 0 0 31.89779,-25.28321 79.999687,49.383507 0 0 1 -1.28312,0.3545 79.999687,49.383507 0 0 1 -4.19251,0.98754 79.999687,49.383507 0 0 1 -4.27519,0.84129 79.999687,49.383507 0 0 1 -4.34496,0.69195 79.999687,49.383507 0 0 1 -4.40128,0.54054 79.999687,49.383507 0 0 1 -4.443654,0.38705 79.999687,49.383507 0 0 1 -4.471045,0.23306 79.999687,49.383507 0 0 1 -4.486031,0.0775 z" />
      <path
         id="path1338-6"
         style="opacity:0.752928;fill:#000000;fill-opacity:0.116441;stroke:none;stroke-width:0.0352778;stroke-dasharray:none;stroke-opacity:1;stop-color:#000000"
         d="M 90.02552,172.50486 V 151.3351 a 79.999687,49.383507 0 0 1 -1.513603,-0.009 79.999687,49.383507 0 0 1 -1.513603,-0.0264 79.999687,49.383507 0 0 1 -1.512052,-0.0444 79.999687,49.383507 0 0 1 -1.511019,-0.062 79.999687,49.383507 0 0 1 -1.508435,-0.0791 79.999687,49.383507 0 0 1 -1.505851,-0.0971 79.999687,49.383507 0 0 1 -1.502236,-0.11472 79.999687,49.383507 0 0 1 -1.49913,-0.1323 79.999687,49.383507 0 0 1 -1.49397,-0.14986 79.999687,49.383507 0 0 1 -1.48983,-0.16691 79.999687,49.383507 0 0 1 -1.48415,-0.18449 79.999687,49.383507 0 0 1 -1.47846,-0.20205 79.999687,49.383507 0 0 1 -1.47174,-0.21911 79.999687,49.383507 0 0 1 -1.46503,-0.23616 79.999687,49.383507 0 0 1 -1.45728,-0.25322 79.999687,49.383507 0 0 1 -1.449,-0.27026 79.999687,49.383507 0 0 1 -1.44074,-0.28681 79.999687,49.383507 0 0 1 -1.43196,-0.30386 79.999687,49.383507 0 0 1 -1.42213,-0.32091 79.999687,49.383507 0 0 1 -1.4118,-0.33693 79.999687,49.383507 0 0 1 -1.40147,-0.35346 79.999687,49.383507 0 0 1 -0.93327,-0.24857 36.708076,50.002636 0 0 0 31.896759,25.26719 z" />
    </g>
  </g>
</svg>
