<?xml version="1.0" encoding="UTF-8" standalone="no"?>
<!-- Created with Inkscape (http://www.inkscape.org/) -->

<svg
   width="120mm"
   height="120mm"
   viewBox="0 0 120 120"
   version="1.1"
   id="svg5"
   inkscape:version="1.2.2 (b0a8486541, 2022-12-01)"
   sodipodi:docname="logo.svg"
   xmlns:inkscape="http://www.inkscape.org/namespaces/inkscape"
   xmlns:sodipodi="http://sodipodi.sourceforge.net/DTD/sodipodi-0.dtd"
   xmlns:xlink="http://www.w3.org/1999/xlink"
   xmlns="http://www.w3.org/2000/svg"
   xmlns:svg="http://www.w3.org/2000/svg">
  <sodipodi:namedview
     id="namedview7"
     pagecolor="#ffffff"
     bordercolor="#111111"
     borderopacity="1"
     inkscape:showpageshadow="0"
     inkscape:pageopacity="0"
     inkscape:pagecheckerboard="1"
     inkscape:deskcolor="#d1d1d1"
     inkscape:document-units="mm"
     showgrid="false"
     inkscape:zoom="0.84096521"
     inkscape:cx="340.08541"
     inkscape:cy="447.1053"
     inkscape:window-width="2248"
     inkscape:window-height="2978"
     inkscape:window-x="0"
     inkscape:window-y="20"
     inkscape:window-maximized="1"
     inkscape:current-layer="layer1">
    <inkscape:grid
       type="xygrid"
       id="grid790"
       dotted="true"
       originx="-15.23407"
       originy="-57.500039" />
  </sodipodi:namedview>
  <defs
     id="defs2">
    <linearGradient
       inkscape:collect="always"
       id="linearGradient1646">
      <stop
         style="stop-color:#005445;stop-opacity:1;"
         offset="0"
         id="stop1642" />
      <stop
         style="stop-color:#002e54;stop-opacity:1;"
         offset="1"
         id="stop1644" />
    </linearGradient>
    <linearGradient
       inkscape:collect="always"
       xlink:href="#linearGradient1646"
       id="linearGradient1648"
       x1="10"
       y1="180"
       x2="154.46312"
       y2="53.956444"
       gradientUnits="userSpaceOnUse"
       gradientTransform="matrix(1.0384169,0,0,1,-3.9452073,3.6666667e-8)" />
    <clipPath
       clipPathUnits="userSpaceOnUse"
       id="clipPath1833">
      <ellipse
         style="fill:none;fill-opacity:1;stroke:#000000;stroke-width:0.015882;stroke-opacity:1;stop-color:#000000"
         id="ellipse1835"
         cx="75.23407"
         cy="117.50004"
         rx="86.967407"
         ry="82.5" />
    </clipPath>
  </defs>
  <g
     inkscape:label="Layer 1"
     inkscape:groupmode="layer"
     id="layer1"
     transform="translate(-15.23407,-57.500038)">
    <g
       id="g1818"
       clip-path="url(#clipPath1833)"
       transform="matrix(0.68991363,0,0,0.72727273,23.329059,32.045465)">
      <g
         id="g1776">
        <ellipse
           style="opacity:1;fill:url(#linearGradient1648);fill-opacity:1;stroke:none;stroke-width:0.015882;stroke-opacity:1;stop-color:#000000"
           id="path1112"
           cx="75.23407"
           cy="117.50004"
           rx="86.967407"
           ry="82.5" />
        <path
           id="path1013"
           style="opacity:0.439542;mix-blend-mode:lighten;fill:#ff026d;fill-opacity:1;stroke:#000000;stroke-width:0.0106056;stop-color:#000000"
           d="M 93.120299,51.402397 C 89.119191,47.570599 82.813023,47.706543 78.981225,51.707651 l -6.912615,7.218052 a 10,10 0 0 1 0.0011,0.0011 10,10 0 0 1 0.394222,0.399001 10,10 0 0 1 0.371294,0.420701 10,10 0 0 1 0.346887,0.440956 10,10 0 0 1 0.321326,0.459428 10,10 0 0 1 0.295393,0.476794 10,10 0 0 1 0.268332,0.493096 10,10 0 0 1 0.240119,0.506867 10,10 0 0 1 0.211518,0.519548 10,10 0 0 1 0.181784,0.530422 10,10 0 0 1 0.151663,0.540207 10,10 0 0 1 0.121115,0.54745 10,10 0 0 1 0.09055,0.553959 10,10 0 0 1 0.0592,0.557555 10,10 0 0 1 0.02783,0.560433 10,10 0 0 1 -0.0036,0.560378 10,10 0 0 1 -0.03503,0.560324 10,10 0 0 1 -0.06655,0.556626 10,10 0 0 1 -0.0977,0.552546 10,10 0 0 1 -0.127814,0.545879 10,10 0 0 1 -0.159054,0.538156 10,10 0 0 1 -0.188498,0.528554 10,10 0 0 1 -0.217994,0.516769 10,10 0 0 1 -0.246794,0.503505 10,10 0 0 1 -0.274512,0.489116 10,10 0 0 1 -0.301533,0.47325 10,10 0 0 1 -0.32715,0.455169 10,10 0 0 1 -0.352766,0.436341 10,10 0 0 1 -0.376237,0.416024 10,10 0 0 1 -1.17113,1.044311 10,10 0 0 1 -1.320087,0.848696 10,10 0 0 1 -1.436263,0.631555 10,10 0 0 1 -1.517298,0.399384 10,10 0 0 1 -1.561284,0.15692 10,10 0 0 1 -1.566606,-0.08931 10,10 0 0 1 -1.533495,-0.33308 10,10 0 0 1 -1.462581,-0.569257 10,10 0 0 1 -1.355159,-0.790505 10,10 0 0 1 -1.215173,-0.993459 10,10 0 0 1 -0.0011,-0.0011 l -6.912611,7.218049 c -3.831802,4.001112 -3.695127,10.307262 0.305981,14.139062 L 123.85197,163.894 c 4.0011,3.83179 10.30727,3.69585 14.13907,-0.30526 l 27.65831,-28.88041 c 3.83179,-4.00111 3.69512,-10.30726 -0.30599,-14.13906 z" />
        <path
           id="path1013-3"
           style="opacity:0.439542;mix-blend-mode:lighten;fill:#ffa108;fill-opacity:1;stroke:#000000;stroke-width:0.0106056;stop-color:#000000"
           d="M 58.760009,64.038624 C 54.154305,60.959821 47.967545,62.188759 44.888745,66.794467 l -5.554195,8.308757 a 10,10 0 0 1 0.0013,8.49e-4 10,10 0 0 1 0.45752,0.324482 10,10 0 0 1 0.438718,0.349816 10,10 0 0 1 0.41824,0.373957 10,10 0 0 1 0.396236,0.396638 10,10 0 0 1 0.373699,0.418255 10,10 0 0 1 0.349856,0.439036 10,10 0 0 1 0.324487,0.45747 10,10 0 0 1 0.298527,0.474922 10,10 0 0 1 0.271126,0.490801 10,10 0 0 1 0.243167,0.50566 10,10 0 0 1 0.214335,0.518106 10,10 0 0 1 0.185374,0.529816 10,10 0 0 1 0.155119,0.53881 10,10 0 0 1 0.124724,0.547084 10,10 0 0 1 0.09376,0.55249 10,10 0 0 1 0.0628,0.557895 10,10 0 0 1 0.03111,0.559729 10,10 0 0 1 -2.72e-4,0.561118 10,10 0 0 1 -0.03108,0.559778 10,10 0 0 1 -0.06318,0.557596 10,10 0 0 1 -0.09385,0.553258 10,10 0 0 1 -0.124946,0.546771 10,10 0 0 1 -0.155612,0.538711 10,10 0 0 1 -0.185407,0.529353 10,10 0 0 1 -0.214777,0.518424 10,10 0 0 1 -0.24314,0.505066 10,10 0 0 1 -0.271633,0.490974 10,10 0 0 1 -0.29828,0.475035 10,10 0 0 1 -0.971993,1.231809 10,10 0 0 1 -1.152656,1.065036 10,10 0 0 1 -1.304775,0.871364 10,10 0 0 1 -1.424891,0.65679 10,10 0 0 1 -1.510316,0.42565 10,10 0 0 1 -1.558316,0.184089 10,10 0 0 1 -1.568033,-0.06174 10,10 0 0 1 -1.539214,-0.306629 10,10 0 0 1 -1.47184,-0.543177 10,10 0 0 1 -1.369226,-0.767353 10,10 0 0 1 -0.0013,-8.5e-4 l -5.554196,8.308757 c -3.078798,4.60571 -1.849149,10.79232 2.756558,13.87112 l 83.136507,55.57469 c 4.6057,3.0788 10.79246,1.84987 13.87127,-2.75585 l 22.22305,-33.24441 c 3.0788,-4.60571 1.84915,-10.79232 -2.75655,-13.87111 z" />
        <path
           id="path1013-3-6"
           style="opacity:0.439542;mix-blend-mode:lighten;fill:#faff0b;fill-opacity:1;stroke:#000000;stroke-width:0.0106056;stop-color:#000000"
           d="m 30.447991,78.276765 c -5.070365,-2.232254 -10.949733,0.05233 -13.181984,5.122697 l -4.027014,9.147005 a 10,10 0 0 1 0.0014,5.93e-4 10,10 0 0 1 0.506911,0.240107 10,10 0 0 1 0.492796,0.268322 10,10 0 0 1 0.476826,0.295645 10,10 0 0 1 0.459078,0.321821 10,10 0 0 1 0.440676,0.346983 10,10 0 0 1 0.420746,0.371649 10,10 0 0 1 0.398796,0.394382 10,10 0 0 1 0.376437,0.415893 10,10 0 0 1 0.35227,0.436225 10,10 0 0 1 0.327279,0.455754 10,10 0 0 1 0.301047,0.473016 10,10 0 0 1 0.27456,0.489575 10,10 0 0 1 0.246326,0.503688 10,10 0 0 1 0.217828,0.517117 10,10 0 0 1 0.18828,0.527809 10,10 0 0 1 0.158719,0.538518 10,10 0 0 1 0.127832,0.545824 10,10 0 0 1 0.09717,0.552642 10,10 0 0 1 0.0666,0.55667 10,10 0 0 1 0.0346,0.5601 10,10 0 0 1 0.0036,0.56114 10,10 0 0 1 -0.0281,0.56017 10,10 0 0 1 -0.0597,0.55755 10,10 0 0 1 -0.09066,0.5535 10,10 0 0 1 -0.121494,0.54785 10,10 0 0 1 -0.151739,0.5396 10,10 0 0 1 -0.182252,0.53069 10,10 0 0 1 -0.211261,0.51962 10,10 0 0 1 -0.743323,1.38188 10,10 0 0 1 -0.950201,1.24901 10,10 0 0 1 -1.133644,1.0847 10,10 0 0 1 -1.289197,0.89424 10,10 0 0 1 -1.413457,0.68145 10,10 0 0 1 -1.502677,0.45189 10,10 0 0 1 -1.5549267,0.21148 10,10 0 0 1 -1.569079,-0.0347 10,10 0 0 1 -1.543801,-0.27934 10,10 0 0 1 -1.481671,-0.51794 10,10 0 0 1 -0.0014,-5.9e-4 l -4.0270157,9.147 c -2.2322497,5.07037 0.05301,10.94946 5.1233747,13.18172 L 97.800463,173.4736 c 5.070367,2.23225 10.949727,-0.0523 13.181977,-5.1227 l 16.11281,-36.59857 c 2.23226,-5.07037 -0.053,-10.94946 -5.12336,-13.18171 z" />
        <path
           id="path1013-9"
           style="opacity:0.272639;mix-blend-mode:lighten;fill:#ff026d;fill-opacity:1;stroke:#000000;stroke-width:0.0106056;stop-color:#000000"
           d="M 99.456465,52.995433 C 95.877808,48.766395 89.591975,48.242422 85.362939,51.821078 L 77.7337,58.277024 a 10,10 0 0 1 9.79e-4,0.0012 10,10 0 0 1 0.350355,0.438023 10,10 0 0 1 0.325285,0.457207 10,10 0 0 1 0.298894,0.4748 10,10 0 0 1 0.271543,0.490499 10,10 0 0 1 0.243936,0.505059 10,10 0 0 1 0.21532,0.518443 10,10 0 0 1 0.185821,0.529189 10,10 0 0 1 0.156053,0.538812 10,10 0 0 1 0.125343,0.546518 10,10 0 0 1 0.09436,0.553101 10,10 0 0 1 0.06323,0.557111 10,10 0 0 1 0.03215,0.560389 10,10 0 0 1 5.95e-4,0.56069 10,10 0 0 1 -0.0309,0.560271 10,10 0 0 1 -0.06216,0.556932 10,10 0 0 1 -0.09341,0.553593 10,10 0 0 1 -0.124369,0.546621 10,10 0 0 1 -0.154921,0.539306 10,10 0 0 1 -0.18417,0.52953 10,10 0 0 1 -0.214435,0.518581 10,10 0 0 1 -0.242715,0.505955 10,10 0 0 1 -0.270817,0.491152 10,10 0 0 1 -0.298072,0.474951 10,10 0 0 1 -0.324135,0.457741 10,10 0 0 1 -0.349349,0.439139 10,10 0 0 1 -0.372936,0.41848 10,10 0 0 1 -0.396444,0.397076 10,10 0 0 1 -0.417662,0.374417 10,10 0 0 1 -1.273875,0.916175 10,10 0 0 1 -1.401568,0.706059 10,10 0 0 1 -1.494411,0.477966 10,10 0 0 1 -1.550733,0.238595 10,10 0 0 1 -1.569133,-0.0071 10,10 0 0 1 -1.548689,-0.252576 10,10 0 0 1 -1.490277,-0.49155 10,10 0 0 1 -1.395066,-0.71902 10,10 0 0 1 -1.265104,-0.927827 10,10 0 0 1 -1.104672,-1.115036 10,10 0 0 1 -9.79e-4,-0.0012 l -7.62923,6.455904 c -4.229041,3.578661 -4.752287,9.864553 -1.173629,14.09359 l 64.597507,76.33734 c 3.57866,4.22903 9.86449,4.75301 14.09353,1.17435 l 30.52562,-25.83112 c 4.22903,-3.57866 4.75227,-9.86456 1.17362,-14.09359 z" />
        <path
           id="path1013-3-1"
           style="opacity:0.272639;mix-blend-mode:lighten;fill:#ffa108;fill-opacity:1;stroke:#000000;stroke-width:0.0106056;stop-color:#000000"
           d="m 63.963559,61.970808 c -4.258651,-3.543363 -10.539978,-2.967851 -14.08334,1.290805 l -6.39227,7.682669 a 10,10 0 0 1 0.0012,9.82e-4 10,10 0 0 1 0.421096,0.370528 10,10 0 0 1 0.399749,0.393758 10,10 0 0 1 0.37686,0.415627 10,10 0 0 1 0.352605,0.435884 10,10 0 0 1 0.327932,0.455025 10,10 0 0 1 0.302048,0.473201 10,10 0 0 1 0.274891,0.488882 10,10 0 0 1 0.247249,0.503525 10,10 0 0 1 0.218338,0.516452 10,10 0 0 1 0.188979,0.528308 10,10 0 0 1 0.159004,0.537673 10,10 0 0 1 0.128978,0.54629 10,10 0 0 1 0.09795,0.552072 10,10 0 0 1 0.06685,0.557124 10,10 0 0 1 0.03549,0.559264 10,10 0 0 1 0.0041,0.561404 10,10 0 0 1 -0.02757,0.559914 10,10 0 0 1 -0.05893,0.558016 10,10 0 0 1 -0.08942,0.553462 10,10 0 0 1 -0.121069,0.547949 10,10 0 0 1 -0.151177,0.540415 10,10 0 0 1 -0.181417,0.530715 10,10 0 0 1 -0.211071,0.519494 10,10 0 0 1 -0.239724,0.507072 10,10 0 0 1 -0.267791,0.493134 10,10 0 0 1 -0.294601,0.476885 10,10 0 0 1 -0.321466,0.45989 10,10 0 0 1 -0.3463,0.441254 10,10 0 0 1 -1.095429,1.12346 10,10 0 0 1 -1.257668,0.938716 10,10 0 0 1 -1.38871,0.730206 10,10 0 0 1 -1.485738,0.504249 10,10 0 0 1 -1.546535,0.265447 10,10 0 0 1 -1.569021,0.02019 10,10 0 0 1 -1.552989,-0.225305 10,10 0 0 1 -1.498732,-0.465842 10,10 0 0 1 -1.406999,-0.694051 10,10 0 0 1 -1.281516,-0.906272 10,10 0 0 1 -0.0012,-9.84e-4 l -6.392272,7.682673 c -3.54336,4.258655 -2.967123,10.539912 1.291531,14.083272 l 76.871946,63.96037 c 4.25865,3.54337 10.53998,2.96786 14.08334,-1.29081 l 25.5763,-30.73936 c 3.54336,-4.25864 2.96712,-10.5399 -1.29153,-14.08325 z" />
        <path
           id="path1013-3-6-2"
           style="opacity:0.272639;mix-blend-mode:lighten;fill:#faff0b;fill-opacity:1;stroke:#000000;stroke-width:0.0106056;stop-color:#000000"
           d="M 34.318346,73.171539 C 29.509091,70.421516 23.423127,72.079024 20.673107,76.888281 l -4.961076,8.675959 a 10,10 0 0 1 0.0013,7.41e-4 10,10 0 0 1 0.479036,0.291779 10,10 0 0 1 0.462049,0.318365 10,10 0 0 1 0.443312,0.343864 10,10 0 0 1 0.422923,0.368044 10,10 0 0 1 0.401993,0.391147 10,10 0 0 1 0.379593,0.413589 10,10 0 0 1 0.355387,0.433911 10,10 0 0 1 0.330901,0.452967 10,10 0 0 1 0.304743,0.470654 10,10 0 0 1 0.277847,0.48747 10,10 0 0 1 0.249955,0.501886 10,10 0 0 1 0.221881,0.515599 10,10 0 0 1 0.192326,0.526675 10,10 0 0 1 0.162582,0.53705 10,10 0 0 1 0.132078,0.544601 10,10 0 0 1 0.101558,0.552161 10,10 0 0 1 0.07008,0.556194 10,10 0 0 1 0.03887,0.559771 10,10 0 0 1 0.008,0.560582 10,10 0 0 1 -0.02414,0.560649 10,10 0 0 1 -0.05507,0.558442 10,10 0 0 1 -0.0865,0.554164 10,10 0 0 1 -0.117663,0.548254 10,10 0 0 1 -0.14802,0.540992 10,10 0 0 1 -0.178091,0.532149 10,10 0 0 1 -0.207306,0.520784 10,10 0 0 1 -0.236728,0.508732 10,10 0 0 1 -0.264418,0.494691 10,10 0 0 1 -0.883697,1.296613 10,10 0 0 1 -1.075553,1.14284 10,10 0 0 1 -1.240815,0.96026 10,10 0 0 1 -1.375609,0.75459 10,10 0 0 1 -1.476944,0.52997 10,10 0 0 1 -1.541682,0.29234 10,10 0 0 1 -1.568513,0.0478 10,10 0 0 1 -1.5568572,-0.19853 10,10 0 0 1 -1.5061448,-0.43918 10,10 0 0 1 -1.4194144,-0.66998 10,10 0 0 1 -0.00133,-7.3e-4 l -4.9610771,8.67595 c -2.7500195,4.80926 -1.09181062,10.89502 3.7174434,13.64505 l 86.8106831,49.64 c 4.809252,2.75002 10.895211,1.09255 13.645231,-3.71674 l 19.85014,-34.71384 c 2.75002,-4.80926 1.09182,-10.89501 -3.71744,-13.64502 z" />
      </g>
    </g>
  </g>
</svg>
