<?xml version="1.0" encoding="UTF-8" standalone="no"?>
<svg
   xmlns:dc="http://purl.org/dc/elements/1.1/"
   xmlns:cc="http://creativecommons.org/ns#"
   xmlns:rdf="http://www.w3.org/1999/02/22-rdf-syntax-ns#"
   xmlns:svg="http://www.w3.org/2000/svg"
   xmlns="http://www.w3.org/2000/svg"
   xmlns:xlink="http://www.w3.org/1999/xlink"
   xmlns:sodipodi="http://sodipodi.sourceforge.net/DTD/sodipodi-0.dtd"
   xmlns:inkscape="http://www.inkscape.org/namespaces/inkscape"
   width="120mm"
   height="120mm"
   viewBox="0 0 120 120"
   version="1.1"
   id="svg8"
   inkscape:version="1.0.2 (e86c870879, 2021-01-15)">
  <defs
     id="defs2">
    <linearGradient
       inkscape:collect="always"
       id="linearGradient1035">
      <stop
         style="stop-color:#4fc8df;stop-opacity:1"
         offset="0"
         id="stop1031" />
      <stop
         style="stop-color:#167081;stop-opacity:1"
         offset="1"
         id="stop1033" />
    </linearGradient>
    <linearGradient
       inkscape:collect="always"
       xlink:href="#linearGradient1035"
       id="linearGradient1037"
       x1="51.746891"
       y1="139.23962"
       x2="113.39117"
       y2="139.23962"
       gradientUnits="userSpaceOnUse" />
  </defs>
  <sodipodi:namedview
     id="base"
     pagecolor="#ffffff"
     bordercolor="#666666"
     borderopacity="1.0"
     inkscape:pageopacity="0.0"
     inkscape:pageshadow="2"
     inkscape:zoom="0.98994949"
     inkscape:cx="316.77155"
     inkscape:cy="271.87317"
     inkscape:document-units="mm"
     inkscape:current-layer="layer1"
     inkscape:document-rotation="0"
     showgrid="false"
     inkscape:pagecheckerboard="true"
     fit-margin-top="0"
     fit-margin-left="0"
     fit-margin-right="0"
     fit-margin-bottom="0"
     inkscape:window-width="4500"
     inkscape:window-height="2980"
     inkscape:window-x="0"
     inkscape:window-y="20"
     inkscape:window-maximized="0">
    <inkscape:grid
       type="xygrid"
       id="grid833"
       originx="-22.020861"
       originy="-78.906254" />
  </sodipodi:namedview>
  <metadata
     id="metadata5">
    <rdf:RDF>
      <cc:Work
         rdf:about="">
        <dc:format>image/svg+xml</dc:format>
        <dc:type
           rdf:resource="http://purl.org/dc/dcmitype/StillImage" />
        <dc:title></dc:title>
      </cc:Work>
    </rdf:RDF>
  </metadata>
  <g
     inkscape:label="Layer 1"
     inkscape:groupmode="layer"
     id="layer1"
     transform="translate(-22.020861,-78.906253)">
    <g
       id="g1044"
       transform="matrix(1.9226229,0,0,1.9226211,-75.674329,-128.15783)">
      <circle
         style="fill:url(#linearGradient1037);fill-opacity:1;stroke:none;stroke-width:0.061;stroke-miterlimit:4;stroke-dasharray:none"
         id="path927"
         cx="82.020836"
         cy="138.90625"
         r="31.20734" />
      <path
         id="path1028"
         style="opacity:0.727536;mix-blend-mode:normal;fill:#f2ff41;fill-opacity:0.502114;stroke:none;stroke-width:0.230551;stroke-miterlimit:4;stroke-dasharray:none"
         d="m 310,407.05078 a 117.949,117.949 0 0 0 -69.92188,22.95899 c 1.23227,0.006 2.60637,0.15345 4.08204,0.51757 1.5039,0.3711 3.10546,0.95703 4.74609,1.81641 1.64063,0.85938 3.32031,1.99219 4.98047,3.45703 1.66016,1.46485 3.30078,3.26172 4.86328,5.44922 1.5625,2.1875 3.04687,4.76562 4.39453,7.79297 1.34766,3.02734 2.55859,6.50391 3.57422,10.48828 1.01563,3.98437 1.83594,8.47656 2.40234,13.53516 C 269.6875,478.125 270,483.75 270,490 c 0,3.125 0.3125,5.9375 0.89844,8.47656 0.29297,1.26953 0.65527,2.46973 1.08008,3.60742 0.4248,1.1377 0.9121,2.21289 1.45898,3.22852 1.09375,2.03125 2.42187,3.82812 3.94531,5.42969 1.52344,1.60156 3.24219,3.00781 5.11719,4.25781 1.875,1.25 3.90625,2.34375 6.05469,3.32031 2.14844,0.97657 4.41406,1.83594 6.75781,2.61719 C 300,522.5 305,523.75 310,525 c 5,1.25 10,2.5 14.6875,4.0625 2.34375,0.78125 4.60937,1.64062 6.75781,2.61719 2.14844,0.97656 4.17969,2.07031 6.05469,3.32031 1.875,1.25 3.59375,2.65625 5.11719,4.25781 1.52344,1.60157 2.85156,3.39844 3.94531,5.42969 0.54688,1.01563 1.03613,2.09082 1.46094,3.22852 0.4248,1.13769 0.78515,2.33789 1.07812,3.60742 C 349.6875,554.0625 350,556.875 350,560 c 0,6.25 0.3125,11.875 0.87891,16.93359 0.5664,5.0586 1.38672,9.55078 2.40234,13.53516 1.01562,3.98438 2.22656,7.46094 3.57422,10.48828 1.34765,3.02734 2.83203,5.60547 4.39453,7.79297 1.5625,2.1875 3.20312,3.98438 4.86328,5.44922 1.66016,1.46484 3.33984,2.59766 4.98047,3.45703 1.64063,0.85937 3.24218,1.44531 4.74609,1.81641 1.47568,0.36412 2.84976,0.5118 4.08204,0.51757 A 117.949,117.949 0 0 0 427.94922,525 117.949,117.949 0 0 0 310,407.05078 Z"
         transform="scale(0.26458333)" />
      <path
         id="path1005"
         style="opacity:0.727536;mix-blend-mode:normal;fill:#f2ff41;fill-opacity:0.502114;stroke:none;stroke-width:0.230551;stroke-miterlimit:4;stroke-dasharray:none"
         d="m 310,407.05078 a 117.949,117.949 0 0 0 -69.91016,22.95117 c 1.24093,4e-5 2.83658,-1.2e-4 4.71485,0.0957 1.91406,0.0976 4.10156,0.29296 6.44531,0.68359 2.34375,0.39063 4.84375,0.97656 7.38281,1.85547 1.26953,0.43945 2.54785,0.95264 3.82227,1.55078 1.27441,0.59814 2.54492,1.28125 3.79492,2.0625 1.25,0.78125 2.47949,1.65967 3.67578,2.64844 1.19629,0.98877 2.35938,2.08789 3.47266,3.30859 1.11328,1.2207 2.17676,2.56397 3.17773,4.04102 1.00098,1.47705 1.93945,3.08789 2.79883,4.8457 0.85938,1.75781 1.63965,3.66162 2.32812,5.72461 0.68848,2.06299 1.28516,4.28516 1.77344,6.67773 0.48828,2.39258 0.86817,4.95655 1.12696,7.70313 C 284.8623,473.9458 285,476.875 285,480 c 0,3.125 0.19629,6.01562 0.5625,8.70117 0.36621,2.68555 0.90234,5.16602 1.58594,7.47071 0.68359,2.30468 1.51465,4.43359 2.46679,6.41601 0.95215,1.98242 2.02539,3.81836 3.19727,5.53711 1.17188,1.71875 2.44238,3.32031 3.78516,4.83398 1.34277,1.51368 2.75781,2.93946 4.22265,4.30664 C 303.75,520 306.875,522.5 310,525 c 3.125,2.5 6.25,5 9.17969,7.73438 1.46484,1.36718 2.88183,2.79296 4.22461,4.30664 1.34277,1.51367 2.61133,3.11523 3.7832,4.83398 1.17187,1.71875 2.24707,3.55469 3.19922,5.53711 0.95215,1.98242 1.78125,4.11133 2.46484,6.41601 0.6836,2.30469 1.22168,4.78516 1.58789,7.47071 C 334.80566,563.98438 335,566.875 335,570 c 0,3.125 0.1377,6.0542 0.39648,8.80078 0.25879,2.74658 0.63868,5.31055 1.12696,7.70313 0.48828,2.39257 1.08496,4.61474 1.77344,6.67773 0.68847,2.06299 1.46875,3.9668 2.32812,5.72461 0.85937,1.75781 1.79785,3.36865 2.79883,4.8457 1.00097,1.47705 2.06445,2.82032 3.17773,4.04102 1.11328,1.2207 2.27637,2.31982 3.47266,3.30859 1.19629,0.98877 2.42578,1.86719 3.67578,2.64844 1.25,0.78125 2.52051,1.46436 3.79492,2.0625 1.27442,0.59814 2.55274,1.11133 3.82227,1.55078 2.53906,0.87891 5.03906,1.46484 7.38281,1.85547 2.34375,0.39063 4.53125,0.58594 6.44531,0.68359 1.87827,0.0958 3.47392,0.0957 4.71485,0.0957 A 117.949,117.949 0 0 0 427.94922,525 117.949,117.949 0 0 0 310,407.05078 Z"
         transform="scale(0.26458333)" />
      <path
         id="path927-6"
         style="opacity:0.727536;mix-blend-mode:normal;fill:#f2ff41;fill-opacity:0.502114;stroke:none;stroke-width:0.061;stroke-miterlimit:4;stroke-dasharray:none"
         d="m 100.51789,113.77135 c -0.32833,1e-5 -0.750507,-3e-5 -1.247464,0.0253 -0.506427,0.0258 -1.085204,0.0775 -1.705321,0.18086 -0.620117,0.10336 -1.281581,0.25839 -1.953368,0.49093 -0.3359,0.11627 -0.674121,0.25205 -1.011312,0.41031 -0.337187,0.15826 -0.673343,0.339 -1.004072,0.54571 -0.33073,0.2067 -0.656032,0.43912 -0.97255,0.70073 -0.316519,0.26161 -0.624253,0.55242 -0.918808,0.8754 -0.294556,0.32297 -0.575935,0.67838 -0.840775,1.06918 -0.264842,0.39081 -0.513149,0.81701 -0.740524,1.28209 -0.227375,0.46509 -0.433824,0.96881 -0.615981,1.51464 -0.182161,0.54583 -0.340032,1.13378 -0.469223,1.76682 -0.129191,0.63303 -0.229703,1.31142 -0.298175,2.03812 -0.06847,0.7267 -0.104902,1.50172 -0.104902,2.32854 0,0.82682 -0.05142,1.59163 -0.148312,2.30218 -0.09689,0.71055 -0.23926,1.36685 -0.420129,1.97663 -0.180867,0.60978 -0.400233,1.17305 -0.652156,1.69757 -0.251923,0.52451 -0.5364,1.01027 -0.84646,1.46502 -0.31006,0.45476 -0.645697,0.8785 -1.000972,1.279 -0.355277,0.40049 -0.730189,0.77773 -1.117761,1.13946 -0.775147,0.72347 -1.60197,1.38493 -2.428793,2.04639 -0.826823,0.66146 -1.653646,1.32291 -2.428793,2.04639 -0.387572,0.36173 -0.761968,0.73897 -1.117243,1.13946 -0.355277,0.40049 -0.69143,0.82424 -1.00149,1.27899 -0.31006,0.45475 -0.594021,0.94051 -0.845944,1.46503 -0.251921,0.52451 -0.471805,1.08779 -0.652672,1.69757 -0.180869,0.60978 -0.32272,1.26607 -0.419613,1.97662 -0.09689,0.71056 -0.148828,1.47537 -0.148828,2.30219 0,0.82682 -0.03592,1.60184 -0.104386,2.32854 -0.06847,0.7267 -0.1695,1.40508 -0.298691,2.03812 -0.129191,0.63303 -0.286547,1.22098 -0.468704,1.76681 -0.182161,0.54584 -0.389126,1.04955 -0.616501,1.51464 -0.227374,0.46509 -0.475165,0.89129 -0.740007,1.28209 -0.26484,0.3908 -0.546735,0.74621 -0.841291,1.06919 -0.294555,0.32297 -0.601773,0.61378 -0.918292,0.8754 -0.316515,0.26161 -0.642337,0.49402 -0.973066,0.70073 -0.330729,0.2067 -0.666366,0.38744 -1.003556,0.5457 -0.337188,0.15826 -0.675929,0.29404 -1.011825,0.41031 -0.671793,0.23255 -1.333251,0.38757 -1.953369,0.49093 -0.620117,0.10335 -1.198893,0.15503 -1.705321,0.18087 -0.496959,0.0253 -0.919142,0.0253 -1.247471,0.0253 a 31.207339,31.207339 0 0 0 18.497063,6.0725 31.207339,31.207339 0 0 0 31.207398,-31.2074 31.207339,31.207339 0 0 0 -12.71034,-25.1349 z" />
      <path
         id="path927-5"
         style="opacity:0.727536;mix-blend-mode:normal;fill:#f2ff41;fill-opacity:0.502114;stroke:none;stroke-width:0.230551;stroke-miterlimit:4;stroke-dasharray:none"
         d="m 379.91992,430.00977 c -1.23183,0.006 -2.6051,0.15362 -4.08008,0.51757 -1.5039,0.3711 -3.10546,0.95703 -4.74609,1.81641 -1.64063,0.85938 -3.32031,1.99219 -4.98047,3.45703 -1.66016,1.46485 -3.30078,3.26172 -4.86328,5.44922 -1.5625,2.1875 -3.04687,4.76562 -4.39453,7.79297 -1.34766,3.02734 -2.55859,6.50391 -3.57422,10.48828 -1.01563,3.98437 -1.83594,8.47656 -2.40234,13.53516 C 350.3125,478.125 350,483.75 350,490 c 0,3.125 -0.3125,5.9375 -0.89844,8.47656 -0.29297,1.26953 -0.65527,2.46973 -1.08008,3.60742 -0.4248,1.1377 -0.9121,2.21289 -1.45898,3.22852 -1.09375,2.03125 -2.42187,3.82812 -3.94531,5.42969 C 341.09375,512.34375 339.375,513.75 337.5,515 c -1.875,1.25 -3.90625,2.34375 -6.05469,3.32031 -2.14844,0.97657 -4.41406,1.83594 -6.75781,2.61719 C 320,522.5 315,523.75 310,525 c -5,1.25 -10,2.5 -14.6875,4.0625 -2.34375,0.78125 -4.60937,1.64062 -6.75781,2.61719 C 286.40625,532.65625 284.375,533.75 282.5,535 c -1.875,1.25 -3.59375,2.65625 -5.11719,4.25781 -1.52344,1.60157 -2.85156,3.39844 -3.94531,5.42969 -0.54688,1.01563 -1.03613,2.09082 -1.46094,3.22852 -0.4248,1.13769 -0.78515,2.33789 -1.07812,3.60742 C 270.3125,554.0625 270,556.875 270,560 c 0,6.25 -0.3125,11.875 -0.87891,16.93359 -0.5664,5.0586 -1.38672,9.55078 -2.40234,13.53516 -1.01562,3.98438 -2.22656,7.46094 -3.57422,10.48828 -1.34765,3.02734 -2.83203,5.60547 -4.39453,7.79297 -1.5625,2.1875 -3.20312,3.98438 -4.86328,5.44922 -1.66016,1.46484 -3.33984,2.59766 -4.98047,3.45703 -1.64063,0.85937 -3.24218,1.44531 -4.74609,1.81641 -1.47498,0.36395 -2.84825,0.51166 -4.08008,0.51757 A 117.949,117.949 0 0 0 310,642.94922 117.949,117.949 0 0 0 427.94922,525 117.949,117.949 0 0 0 379.91992,430.00977 Z"
         transform="scale(0.26458333)" />
    </g>
  </g>
</svg>
