<?xml version="1.0" encoding="UTF-8" standalone="no"?>
<!-- Created with Inkscape (http://www.inkscape.org/) -->

<svg
   width="120mm"
   height="120mm"
   viewBox="0 0 120 120"
   version="1.1"
   id="svg1893"
   inkscape:version="1.2.2 (b0a8486541, 2022-12-01)"
   sodipodi:docname="logo.svg"
   xmlns:inkscape="http://www.inkscape.org/namespaces/inkscape"
   xmlns:sodipodi="http://sodipodi.sourceforge.net/DTD/sodipodi-0.dtd"
   xmlns:xlink="http://www.w3.org/1999/xlink"
   xmlns="http://www.w3.org/2000/svg"
   xmlns:svg="http://www.w3.org/2000/svg">
  <sodipodi:namedview
     id="namedview1895"
     pagecolor="#ffffff"
     bordercolor="#111111"
     borderopacity="1"
     inkscape:showpageshadow="0"
     inkscape:pageopacity="0"
     inkscape:pagecheckerboard="1"
     inkscape:deskcolor="#d1d1d1"
     inkscape:document-units="mm"
     showgrid="false"
     inkscape:zoom="1.4753278"
     inkscape:cx="282.64905"
     inkscape:cy="70.831716"
     inkscape:window-width="2248"
     inkscape:window-height="991"
     inkscape:window-x="2250"
     inkscape:window-y="20"
     inkscape:window-maximized="1"
     inkscape:current-layer="layer1" />
  <defs
     id="defs1890">
    <linearGradient
       inkscape:collect="always"
       id="linearGradient2184">
      <stop
         style="stop-color:#005026;stop-opacity:1;"
         offset="0"
         id="stop2180" />
      <stop
         style="stop-color:#004d5d;stop-opacity:1;"
         offset="1"
         id="stop2182" />
    </linearGradient>
    <linearGradient
       inkscape:collect="always"
       xlink:href="#linearGradient2184"
       id="linearGradient2186"
       x1="79.900101"
       y1="204.74115"
       x2="79.900101"
       y2="99.119263"
       gradientUnits="userSpaceOnUse"
       gradientTransform="translate(-244.61082,-78.792181)" />
    <clipPath
       clipPathUnits="userSpaceOnUse"
       id="clipPath2690">
      <circle
         style="fill:none;fill-opacity:1;stroke:#000000;stroke-width:0.1;stroke-opacity:1;stop-color:#000000"
         id="circle2692"
         cx="-164.71078"
         cy="73.137962"
         r="52.810947"
         transform="rotate(-96)" />
    </clipPath>
  </defs>
  <g
     inkscape:label="Layer 1"
     inkscape:groupmode="layer"
     id="layer1"
     transform="translate(-29.954271,-96.163486)">
    <g
       id="g2675"
       clip-path="url(#clipPath2690)"
       transform="matrix(1.1361281,0,0,1.1361281,-12.245302,-21.258234)">
      <circle
         style="fill:url(#linearGradient2186);fill-opacity:1;stroke:none;stroke-width:0.1;stop-color:#000000"
         id="path1949"
         cx="-164.71078"
         cy="73.137962"
         r="52.810947"
         transform="rotate(-96)" />
      <rect
         style="mix-blend-mode:normal;fill:#ffcd12;fill-opacity:0.477592;stroke:none;stroke-width:0.104578;stop-color:#000000"
         id="rect2003"
         width="103.93749"
         height="70.252403"
         x="69.615822"
         y="136.81879"
         rx="6"
         transform="matrix(1,0,-0.40487261,0.9143731,0,0)" />
      <rect
         style="mix-blend-mode:normal;fill:#00a198;fill-opacity:0.387372;stroke:none;stroke-width:0.104578;stop-color:#000000"
         id="rect2003-1"
         width="103.93749"
         height="70.252403"
         x="163.60835"
         y="125.24438"
         rx="6"
         transform="matrix(1,0,-0.40487261,0.9143731,0,0)" />
      <rect
         style="mix-blend-mode:normal;fill:#ffcd12;fill-opacity:0.477592;stroke:none;stroke-width:0.104578;stop-color:#000000"
         id="rect2003-2"
         width="103.93749"
         height="70.252403"
         x="53.740814"
         y="136.81879"
         rx="6"
         transform="matrix(1,0,-0.40487261,0.9143731,0,0)" />
      <path
         id="rect2003-1-1"
         style="mix-blend-mode:normal;fill:#ff3772;fill-opacity:0.468994;stroke:none;stroke-width:0.1;stop-color:#000000"
         d="m 59.405162,137.03342 -1.82366,4.11914 c -1.34579,3.03937 0.24684,5.48597 3.57084,5.48597 h 3.87315 l 1.82366,-4.11861 c 1.3458,-3.03938 -0.24684,-5.4865 -3.57084,-5.4865 z" />
      <path
         id="rect2003-1-1-4"
         style="mix-blend-mode:normal;fill:#ff3772;fill-opacity:0.468994;stroke:none;stroke-width:0.1;stop-color:#000000"
         d="m 57.288494,158.2001 -1.82366,4.11914 c -1.34579,3.03937 0.24684,5.48597 3.57084,5.48597 h 3.87315 l 1.82366,-4.11861 c 1.3458,-3.03938 -0.24684,-5.4865 -3.57084,-5.4865 z" />
      <rect
         style="mix-blend-mode:normal;fill:#0bdf75;fill-opacity:0.207797;stroke:none;stroke-width:0.104578;stop-color:#000000"
         id="rect2003-1-9"
         width="103.93749"
         height="70.252403"
         x="147.73334"
         y="125.24438"
         rx="6"
         transform="matrix(1,0,-0.40487261,0.9143731,0,0)" />
      <path
         id="rect2003-1-1-6"
         style="mix-blend-mode:normal;fill:#ff3772;fill-opacity:0.222929;stroke:none;stroke-width:0.1;stop-color:#000000"
         d="m 62.050997,141.26678 -1.82366,4.11914 c -1.34579,3.03937 0.24684,5.48597 3.57084,5.48597 h 3.87315 l 1.82366,-4.11861 c 1.3458,-3.03938 -0.24684,-5.4865 -3.57084,-5.4865 z" />
      <path
         id="rect2003-1-1-4-3"
         style="mix-blend-mode:normal;fill:#ff3772;fill-opacity:0.222929;stroke:none;stroke-width:0.1;stop-color:#000000"
         d="m 59.934329,162.43346 -1.82366,4.11914 c -1.34579,3.03937 0.24684,5.48597 3.57084,5.48597 h 3.87315 l 1.82366,-4.11861 c 1.3458,-3.03938 -0.24684,-5.4865 -3.57084,-5.4865 z" />
    </g>
  </g>
</svg>
