<?xml version="1.0" encoding="UTF-8" standalone="no"?>
<!-- Created with Inkscape (http://www.inkscape.org/) -->

<svg
   width="120mm"
   height="120mm"
   viewBox="0 0 120 120"
   version="1.1"
   id="svg5"
   inkscape:version="1.1 (c68e22c387, 2021-05-23)"
   sodipodi:docname="logo.svg"
   xmlns:inkscape="http://www.inkscape.org/namespaces/inkscape"
   xmlns:sodipodi="http://sodipodi.sourceforge.net/DTD/sodipodi-0.dtd"
   xmlns="http://www.w3.org/2000/svg"
   xmlns:svg="http://www.w3.org/2000/svg">
  <sodipodi:namedview
     id="namedview7"
     pagecolor="#ffffff"
     bordercolor="#111111"
     borderopacity="1"
     inkscape:pageshadow="0"
     inkscape:pageopacity="0"
     inkscape:pagecheckerboard="1"
     inkscape:document-units="mm"
     showgrid="false"
     inkscape:snap-bbox="true"
     inkscape:bbox-nodes="true"
     fit-margin-top="0"
     fit-margin-left="0"
     fit-margin-right="0"
     fit-margin-bottom="0"
     inkscape:zoom="0.22645514"
     inkscape:cx="404.05354"
     inkscape:cy="-496.78713"
     inkscape:window-width="1498"
     inkscape:window-height="2978"
     inkscape:window-x="1500"
     inkscape:window-y="20"
     inkscape:window-maximized="1"
     inkscape:current-layer="layer1">
    <inkscape:grid
       type="xygrid"
       id="grid870"
       dotted="true"
       originx="-39.999995"
       originy="-40.000002" />
  </sodipodi:namedview>
  <defs
     id="defs2" />
  <g
     inkscape:label="Layer 1"
     inkscape:groupmode="layer"
     id="layer1"
     style="opacity:1"
     transform="translate(-39.999994,-40.000002)">
    <g
       id="g5582"
       transform="matrix(0.46153845,0,0,0.46153842,53.846152,53.846159)">
      <ellipse
         style="vector-effect:non-scaling-stroke;fill:#01011c;fill-opacity:0.996841;stroke:#f2f2f2;stroke-width:0.00105833;stroke-dasharray:0.000211666, 0.000846665;stroke-opacity:0.00423129;-inkscape-stroke:hairline;stop-color:#000000"
         id="path1082-6"
         cx="-136.60254"
         cy="36.602535"
         transform="rotate(-120)"
         rx="130.00002"
         ry="130" />
      <path
         id="path2501"
         style="opacity:1;vector-effect:non-scaling-stroke;fill:#89aed0;fill-opacity:0.4;stroke:none;stroke-width:0.00105833;stroke-dasharray:0.000211666, 0.000846667;stroke-opacity:0.00423129;-inkscape-stroke:hairline;stop-color:#000000"
         d="m 195.26357,44.999947 -17.32034,9.999906 a 89.999999,89.999999 0 0 1 6.07985,12.746507 89.999999,89.999999 0 0 1 4.011,13.541169 89.999999,89.999999 0 0 1 1.84336,14.001424 89.999999,89.999999 0 0 1 -0.36992,14.118067 89.999999,89.999999 0 0 1 -2.5745,13.88597 89.999999,89.999999 0 0 1 -4.71341,13.31286 89.999999,89.999999 0 0 1 -6.73867,12.41157 89.999999,89.999999 0 0 1 -8.5971,11.20391 89.999999,89.999999 0 0 1 -10.24421,9.72149 89.999999,89.999999 0 0 1 -11.63946,7.99939 89.999999,89.999999 0 0 1 -12.74651,6.07986 89.999999,89.999999 0 0 1 -13.54117,4.011 89.999999,89.999999 0 0 1 -14.00142,1.84335 89.999999,89.999999 0 0 1 -14.118069,-0.36992 89.999999,89.999999 0 0 1 -6.583585,-0.95413 l -3.557004,19.6959 a 109.99999,109.99999 0 0 0 4.439335,0.7087 109.99999,109.99999 0 0 0 9.04893,0.87515 109.99999,109.99999 0 0 0 9.090973,0.12528 109.99999,109.99999 0 0 0 9.06956,-0.62496 109.99999,109.99999 0 0 0 8.98713,-1.37336 109.99999,109.99999 0 0 0 8.84334,-2.11024 109.99999,109.99999 0 0 0 8.63835,-2.83324 109.99999,109.99999 0 0 0 8.37524,-3.537 109.99999,109.99999 0 0 0 8.0548,-4.21604 109.99999,109.99999 0 0 0 7.6786,-4.86765 109.99999,109.99999 0 0 0 7.25076,-5.48466 109.99999,109.99999 0 0 0 6.77372,-6.06493 109.99999,109.99999 0 0 0 6.24919,-6.60344 109.99999,109.99999 0 0 0 5.68204,-7.09589 109.99999,109.99999 0 0 0 5.0769,-7.5425 109.99999,109.99999 0 0 0 4.437,-7.93566 109.99999,109.99999 0 0 0 3.76656,-8.27417 109.99999,109.99999 0 0 0 3.06985,-8.55695 109.99999,109.99999 0 0 0 2.35339,-8.78298 109.99999,109.99999 0 0 0 1.61991,-8.94546 109.99999,109.99999 0 0 0 0.87515,-9.04893 109.99999,109.99999 0 0 0 0.12527,-9.090971 109.99999,109.99999 0 0 0 -0.62547,-9.070454 109.99999,109.99999 0 0 0 -1.37285,-8.986234 109.99999,109.99999 0 0 0 -2.11023,-8.843346 109.99999,109.99999 0 0 0 -2.83376,-8.639243 109.99999,109.99999 0 0 0 -3.537,-8.375237 109.99999,109.99999 0 0 0 -4.21553,-8.053908 z" />
      <path
         id="path1914"
         style="opacity:1;vector-effect:non-scaling-stroke;fill:#89aed0;fill-opacity:0.5;stroke:none;stroke-width:0.00105833;stroke-dasharray:0.000211666, 0.000846667;stroke-opacity:0.00423129;-inkscape-stroke:hairline;stop-color:#000000"
         d="m 191.91894,191.91824 -14.13661,-14.13661 a 109.99999,109.99999 0 0 1 -3.28145,3.14813 109.99999,109.99999 0 0 1 -6.93704,5.87561 109.99999,109.99999 0 0 1 -7.39903,5.28237 109.99999,109.99999 0 0 1 -7.81038,4.65398 109.99999,109.99999 0 0 1 -8.16798,3.99355 109.99999,109.99999 0 0 1 -8.46873,3.30419 109.99999,109.99999 0 0 1 -8.71368,2.59416 109.99999,109.99999 0 0 1 -8.89868,1.86552 109.99999,109.99999 0 0 1 -9.02168,1.12448 109.99999,109.99999 0 0 1 -9.08368,0.3762 109.99999,109.99999 0 0 1 -9.083683,-0.3762 109.99999,109.99999 0 0 1 -9.021667,-1.12448 109.99999,109.99999 0 0 1 -8.897652,-1.86552 109.99999,109.99999 0 0 1 -8.713676,-2.59416 109.99999,109.99999 0 0 1 -8.469767,-3.30419 109.99999,109.99999 0 0 1 -8.166947,-3.99355 109.99999,109.99999 0 0 1 -7.810373,-4.65398 109.99999,109.99999 0 0 1 -7.39903,-5.28237 109.99999,109.99999 0 0 1 -3.191542,-2.59106 L 16.26248,199.36068 A 130,130 0 0 0 100,229.99963 130,130 0 0 0 191.91894,191.91824 Z" />
      <path
         id="path872"
         style="vector-effect:non-scaling-stroke;fill:#fce200;fill-opacity:1;stroke:#f2f2f2;stroke-width:0.000846666;stroke-dasharray:0.000169332, 0.000677333;stroke-opacity:0.00423129;-inkscape-stroke:hairline;stop-color:#000000"
         d="m 100,60.000002 a 39.999962,39.99996 0 0 0 -6.946133,0.607712 39.999962,39.99996 0 0 0 -6.73488,1.804539 A 39.999962,39.99996 0 0 0 80,65.359049 39.999962,39.99996 0 0 0 74.288312,69.358387 39.999962,39.99996 0 0 0 69.357971,74.288727 39.999962,39.99996 0 0 0 65.359048,80 39.999962,39.99996 0 0 0 62.412253,86.319402 39.999962,39.99996 0 0 0 60.607713,93.054282 39.999962,39.99996 0 0 0 60,99.999996 a 39.999962,39.99996 0 0 0 0.607713,6.946134 39.999962,39.99996 0 0 0 1.80454,6.73488 39.999962,39.99996 0 0 0 2.946795,6.31899 39.999962,39.99996 0 0 0 3.998923,5.71168 39.999962,39.99996 0 0 0 4.930341,4.93034 39.999962,39.99996 0 0 0 5.711688,3.99893 39.999962,39.99996 0 0 0 6.318987,2.9468 39.999962,39.99996 0 0 0 6.73488,1.80453 A 39.999962,39.99996 0 0 0 100,140 a 39.999962,39.99996 0 0 0 6.94572,-0.60772 39.999962,39.99996 0 0 0 6.73488,-1.80453 39.999962,39.99996 0 0 0 6.3194,-2.9468 39.999962,39.99996 0 0 0 5.71127,-3.99893 39.999962,39.99996 0 0 0 4.93034,-4.93034 39.999962,39.99996 0 0 0 3.99934,-5.71168 39.999962,39.99996 0 0 0 2.94639,-6.31899 39.999962,39.99996 0 0 0 1.80495,-6.73488 39.999962,39.99996 0 0 0 0.60771,-6.946134 39.999962,39.99996 0 0 0 -0.0678,-2.32585 39.999962,39.99996 0 0 0 -0.20299,-2.31758 39.999962,39.99996 0 0 0 -0.33693,-2.302284 39.999962,39.99996 0 0 0 -0.47087,-2.278724 39.999962,39.99996 0 0 0 -0.60193,-2.247715 39.999962,39.99996 0 0 0 -0.73215,-2.208441 39.999962,39.99996 0 0 0 -0.85907,-2.162554 39.999962,39.99996 0 0 0 -0.98309,-2.10881 A 39.999962,39.99996 0 0 0 134.64095,80 a 39.999962,39.99996 0 0 0 -1.22163,-1.980239 39.999962,39.99996 0 0 0 -1.3345,-1.905824 39.999962,39.99996 0 0 0 -1.44321,-1.82521 39.999962,39.99996 0 0 0 -1.54698,-1.738393 39.999962,39.99996 0 0 0 -1.64497,-1.644964 39.999962,39.99996 0 0 0 -1.7384,-1.546983 39.999962,39.99996 0 0 0 -1.82521,-1.443218 39.999962,39.99996 0 0 0 -1.90581,-1.334491 39.999962,39.99996 0 0 0 -1.98025,-1.221629 39.999962,39.99996 0 0 0 -2.04804,-1.104222 39.999962,39.99996 0 0 0 -2.1088,-0.983504 39.999962,39.99996 0 0 0 -2.16256,-0.85907 39.999962,39.99996 0 0 0 -2.20844,-0.731736 39.999962,39.99996 0 0 0 -2.24772,-0.602339 39.999962,39.99996 0 0 0 -2.27872,-0.470464 39.999962,39.99996 0 0 0 -2.30229,-0.336928 A 39.999962,39.99996 0 0 0 102.32543,60.0678 39.999962,39.99996 0 0 0 99.999993,60 Z" />
      <path
         id="path3491"
         style="opacity:1;vector-effect:non-scaling-stroke;fill:#89aed0;fill-opacity:0.2;stroke:none;stroke-width:0.00105833;stroke-dasharray:0.000211666, 0.000846667;stroke-opacity:0.00423129;-inkscape-stroke:hairline;stop-color:#000000"
         d="m 65.00014,39.378109 9.999905,17.320344 a 50,50 0 0 1 4.51e-4,-2.6e-4 50,50 0 0 1 2.559736,-1.380004 50,50 0 0 1 2.636174,-1.229009 50,50 0 0 1 2.702879,-1.074194 50,50 0 0 1 2.760833,-0.914912 50,50 0 0 1 2.809688,-0.752773 50,50 0 0 1 2.848047,-0.588146 50,50 0 0 1 2.877954,-0.421627 50,50 0 0 1 2.897546,-0.253332 50,50 0 0 1 2.907207,-0.08467 50,50 0 0 1 2.90719,0.0848 50,50 0 0 1 2.89718,0.253489 50,50 0 0 1 2.87786,0.421575 50,50 0 0 1 2.84873,0.588162 50,50 0 0 1 2.80883,0.752625 50,50 0 0 1 2.76116,0.915002 50,50 0 0 1 2.70309,1.073838 50,50 0 0 1 2.63577,1.229059 50,50 0 0 1 2.5601,1.380152 50,50 0 0 1 2.47539,1.526937 50,50 0 0 1 2.38222,1.66842 50,50 0 0 1 2.28158,1.804119 50,50 0 0 1 2.17285,1.933115 50,50 0 0 1 2.05643,2.05702 50,50 0 0 1 1.93394,2.172496 50,50 0 0 1 1.80366,2.281718 50,50 0 0 1 1.66824,2.381994 50,50 0 0 1 1.52706,2.475438 50,50 0 0 1 3.68346,7.899231 50,50 0 0 1 2.25538,8.418828 50,50 0 0 1 0.75982,8.681998 50,50 0 0 1 -0.75961,8.682678 50,50 0 0 1 -2.25579,8.41872 50,50 0 0 1 -3.68331,7.89852 50,50 0 0 1 -4.9992,7.13964 50,50 0 0 1 -6.1629,6.16278 50,50 0 0 1 -7.13915,4.99894 50,50 0 0 1 -7.89924,3.68348 50,50 0 0 1 -8.41856,2.25581 50,50 0 0 1 -8.68226,0.75938 50,50 0 0 1 -8.682421,-0.75916 50,50 0 0 1 -0.2018,-0.0446 l -3.55324,19.67764 a 69.999999,69.999999 0 0 0 0.282035,0.0627 69.999999,69.999999 0 0 0 6.054411,0.79721 69.999999,69.999999 0 0 0 6.100815,0.26679 69.999999,69.999999 0 0 0 6.10077,-0.26664 69.999999,69.999999 0 0 0 6.05453,-0.79727 69.999999,69.999999 0 0 0 5.96197,-1.32144 69.999999,69.999999 0 0 0 5.82456,-1.83644 69.999999,69.999999 0 0 0 5.64169,-2.3371 69.999999,69.999999 0 0 0 5.41688,-2.81954 69.999999,69.999999 0 0 0 5.15022,-3.28138 69.999999,69.999999 0 0 0 4.84486,-3.71731 69.999999,69.999999 0 0 0 4.50222,-4.12573 69.999999,69.999999 0 0 0 4.12539,-4.50251 69.999999,69.999999 0 0 0 3.71773,-4.84473 69.999999,69.999999 0 0 0 3.28129,-5.1501 69.999999,69.999999 0 0 0 2.81936,-5.41686 69.999999,69.999999 0 0 0 2.33725,-5.64214 69.999999,69.999999 0 0 0 1.83623,-5.82365 69.999999,69.999999 0 0 0 1.32181,-5.96226 69.999999,69.999999 0 0 0 0.7972,-6.05442 69.999999,69.999999 0 0 0 0.26608,-6.101001 69.999999,69.999999 0 0 0 -0.26617,-6.101011 69.999999,69.999999 0 0 0 -0.79703,-6.054102 69.999999,69.999999 0 0 0 -1.32215,-5.962152 69.999999,69.999999 0 0 0 -1.83618,-5.824111 69.999999,69.999999 0 0 0 -2.3371,-5.641693 69.999999,69.999999 0 0 0 -2.81954,-5.416883 69.999999,69.999999 0 0 0 -1.04354,-1.748549 69.999999,69.999999 0 0 0 -1.09396,-1.717034 69.999999,69.999999 0 0 0 -1.14388,-1.684642 69.999999,69.999999 0 0 0 -1.19161,-1.650524 69.999999,69.999999 0 0 0 -1.23953,-1.615695 69.999999,69.999999 0 0 0 -1.28616,-1.578627 69.999999,69.999999 0 0 0 -1.33156,-1.540487 69.999999,69.999999 0 0 0 -1.37529,-1.501509 69.999999,69.999999 0 0 0 -1.41889,-1.460231 69.999999,69.999999 0 0 0 -1.46062,-1.418829 69.999999,69.999999 0 0 0 -1.50106,-1.37519 69.999999,69.999999 0 0 0 -1.54036,-1.331624 69.999999,69.999999 0 0 0 -1.57906,-1.286005 69.999999,69.999999 0 0 0 -1.61494,-1.239633 69.999999,69.999999 0 0 0 -1.65075,-1.192104 69.999999,69.999999 0 0 0 -1.68464,-1.143301 69.999999,69.999999 0 0 0 -1.71755,-1.093868 69.999999,69.999999 0 0 0 -1.74835,-1.043854 69.999999,69.999999 0 0 0 -1.77813,-0.992065 69.999999,69.999999 0 0 0 -1.80603,-0.940151 69.999999,69.999999 0 0 0 -1.83226,-0.887411 69.999999,69.999999 0 0 0 -1.85799,-0.833772 69.999999,69.999999 0 0 0 -1.88133,-0.779125 69.999999,69.999999 0 0 0 -1.90281,-0.724352 69.999999,69.999999 0 0 0 -1.92353,-0.668238 69.999999,69.999999 0 0 0 -1.94192,-0.612266 69.999999,69.999999 0 0 0 -1.95866,-0.555463 69.999999,69.999999 0 0 0 -1.97424,-0.498731 69.999999,69.999999 0 0 0 -1.98764,-0.440282 69.999999,69.999999 0 0 0 -1.99994,-0.383048 69.999999,69.999999 0 0 0 -2.01006,-0.3241 69.999999,69.999999 0 0 0 -2.01884,-0.265925 69.999999,69.999999 0 0 0 -2.02595,-0.206922 69.999999,69.999999 0 0 0 -2.03049,-0.147614 69.999999,69.999999 0 0 0 -2.0344,-0.08927 69.999999,69.999999 0 0 0 -2.03567,-0.02946 69.999999,69.999999 0 0 0 -2.036048,0.02983 69.999999,69.999999 0 0 0 -2.034376,0.08854 69.999999,69.999999 0 0 0 -2.030588,0.147816 69.999999,69.999999 0 0 0 -2.025645,0.207013 69.999999,69.999999 0 0 0 -2.018652,0.265634 69.999999,69.999999 0 0 0 -2.01025,0.32463 69.999999,69.999999 0 0 0 -1.999798,0.383041 69.999999,69.999999 0 0 0 -1.988007,0.440679 69.999999,69.999999 0 0 0 -1.9739,0.49817 69.999999,69.999999 0 0 0 -1.959356,0.55541 69.999999,69.999999 0 0 0 -1.941605,0.611997 69.999999,69.999999 0 0 0 -1.923148,0.668768 69.999999,69.999999 0 0 0 -1.90316,0.724053 69.999999,69.999999 0 0 0 -1.881311,0.77947 69.999999,69.999999 0 0 0 -1.857486,0.833137 69.999999,69.999999 0 0 0 -1.832695,0.887451 69.999999,69.999999 0 0 0 -1.806374,0.940268 69.999999,69.999999 0 0 0 -1.77755,0.992263 69.999999,69.999999 0 0 0 -4.46e-4,2.6e-4 z" />
      <path
         id="path3090"
         style="opacity:1;vector-effect:non-scaling-stroke;fill:#89aed0;fill-opacity:0.3;stroke:none;stroke-width:0.00105833;stroke-dasharray:0.000211666, 0.000846667;stroke-opacity:0.00423129;-inkscape-stroke:hairline;stop-color:#000000"
         d="m 154.61433,28.57241 -12.5212,15.502415 a 69.999999,69.999999 0 0 1 1.32396,1.015958 69.999999,69.999999 0 0 1 1.57871,1.285708 69.999999,69.999999 0 0 1 1.54047,1.331703 69.999999,69.999999 0 0 1 1.5012,1.375111 69.999999,69.999999 0 0 1 1.46038,1.419034 69.999999,69.999999 0 0 1 1.41851,1.460375 69.999999,69.999999 0 0 1 1.37563,1.501202 69.999999,69.999999 0 0 1 1.33171,1.540474 69.999999,69.999999 0 0 1 1.2857,1.578714 69.999999,69.999999 0 0 1 1.23972,1.615403 69.999999,69.999999 0 0 1 1.19218,1.651068 69.999999,69.999999 0 0 1 1.14308,1.684651 69.999999,69.999999 0 0 1 1.09397,1.71722 69.999999,69.999999 0 0 1 1.04386,1.748216 69.999999,69.999999 0 0 1 0.99222,1.778169 69.999999,69.999999 0 0 1 0.94054,1.806066 69.999999,69.999999 0 0 1 0.88729,1.832448 69.999999,69.999999 0 0 1 0.83354,1.857774 69.999999,69.999999 0 0 1 0.77875,1.881022 69.999999,69.999999 0 0 1 0.72451,1.903243 69.999999,69.999999 0 0 1 0.66816,1.923394 69.999999,69.999999 0 0 1 0.61238,1.941491 69.999999,69.999999 0 0 1 0.55552,1.959043 69.999999,69.999999 0 0 1 0.49868,1.974041 69.999999,69.999999 0 0 1 0.44027,1.987995 69.999999,69.999999 0 0 1 0.38292,1.999882 69.999999,69.999999 0 0 1 0.32455,2.010205 69.999999,69.999999 0 0 1 0.26562,2.019005 69.999999,69.999999 0 0 1 0.2067,2.025195 69.999999,69.999999 0 0 1 0.14831,2.030881 69.999999,69.999999 0 0 1 0.0889,2.033995 69.999999,69.999999 0 0 1 0.0294,2.036039 69.999999,69.999999 0 0 1 -0.26664,6.10093 69.999999,69.999999 0 0 1 -0.79685,6.0544 69.999999,69.999999 0 0 1 -1.32188,5.96192 69.999999,69.999999 0 0 1 -1.83606,5.82446 69.999999,69.999999 0 0 1 -2.33681,5.64151 69.999999,69.999999 0 0 1 -2.81998,5.41672 69.999999,69.999999 0 0 1 -3.28094,5.15058 69.999999,69.999999 0 0 1 -3.7176,4.84467 69.999999,69.999999 0 0 1 -4.12586,4.50257 69.999999,69.999999 0 0 1 -4.50205,4.12532 69.999999,69.999999 0 0 1 -4.84517,3.71762 69.999999,69.999999 0 0 1 -5.15007,3.28145 69.999999,69.999999 0 0 1 -5.41673,2.81945 69.999999,69.999999 0 0 1 -5.64202,2.33682 69.999999,69.999999 0 0 1 -5.82394,1.83658 69.999999,69.999999 0 0 1 -5.96192,1.32188 69.999999,69.999999 0 0 1 -6.05441,0.79684 69.999999,69.999999 0 0 1 -6.10091,0.26666 69.999999,69.999999 0 0 1 -6.100923,-0.26664 69.999999,69.999999 0 0 1 -6.054412,-0.79686 69.999999,69.999999 0 0 1 -5.962429,-1.32187 69.999999,69.999999 0 0 1 -5.823933,-1.83659 69.999999,69.999999 0 0 1 -5.642036,-2.3368 69.999999,69.999999 0 0 1 -5.416716,-2.81948 69.999999,69.999999 0 0 1 -5.150074,-3.28144 69.999999,69.999999 0 0 1 -4.844664,-3.7176 69.999999,69.999999 0 0 1 -0.800479,-0.73328 L 41.6254,168.46359 a 89.999999,89.999999 45 0 0 58.37523,21.53615 89.999999,89.999999 45 0 0 89.99969,-90.000178 89.999999,89.999999 45 0 0 -35.38596,-71.427167 z" />
      <path
         id="path2501-6"
         style="vector-effect:non-scaling-stroke;fill:#89aed0;fill-opacity:0.4;stroke:none;stroke-width:0.00105833;stroke-dasharray:0.000211666, 0.000846667;stroke-opacity:0.00423129;-inkscape-stroke:hairline;stop-color:#000000"
         d="m 100.00081,-10.00045 -2e-5,19.9997857 a 89.999999,89.999999 45 0 1 14.07874,1.1079473 89.999999,89.999999 45 0 1 13.7325,3.296963 89.999999,89.999999 45 0 1 13.04725,5.40431 89.999999,89.999999 45 0 1 12.04166,7.379395 89.999999,89.999999 45 0 1 10.73836,9.172574 89.999999,89.999999 45 0 1 9.17256,10.73836 89.999999,89.999999 45 0 1 7.37939,12.041636 89.999999,89.999999 45 0 1 5.40433,13.047269 89.999999,89.999999 45 0 1 3.29695,13.732497 89.999999,89.999999 45 0 1 1.10795,14.079753 89.999999,89.999999 45 0 1 -1.10794,14.07873 89.999999,89.999999 45 0 1 -3.29695,13.73251 89.999999,89.999999 45 0 1 -5.40433,13.04725 89.999999,89.999999 45 0 1 -7.3794,12.04165 89.999999,89.999999 45 0 1 -4.11809,5.22449 l 15.27865,12.9284 a 109.99999,109.99999 0 0 0 2.83343,-3.49023 109.99999,109.99999 0 0 0 5.28234,-7.39903 109.99999,109.99999 0 0 0 4.654,-7.81037 109.99999,109.99999 0 0 0 3.99354,-8.16695 109.99999,109.99999 0 0 0 3.30419,-8.46975 109.99999,109.99999 0 0 0 2.59416,-8.71368 109.99999,109.99999 0 0 0 1.86551,-8.89766 109.99999,109.99999 0 0 0 1.1245,-9.02167 109.99999,109.99999 0 0 0 0.3762,-9.08368 109.99999,109.99999 0 0 0 -0.37621,-9.083685 109.99999,109.99999 0 0 0 -1.12447,-9.021669 109.99999,109.99999 0 0 0 -1.86553,-8.898681 109.99999,109.99999 0 0 0 -2.59415,-8.713678 109.99999,109.99999 0 0 0 -3.3042,-8.468737 109.99999,109.99999 0 0 0 -3.99355,-8.167974 109.99999,109.99999 0 0 0 -4.65397,-7.81038 109.99999,109.99999 0 0 0 -5.28237,-7.399029 109.99999,109.99999 0 0 0 -5.87561,-6.937041 109.99999,109.99999 0 0 0 -6.42958,-6.42958 109.99999,109.99999 0 0 0 -6.93705,-5.875619 109.99999,109.99999 0 0 0 -7.39902,-5.2823617 109.99999,109.99999 0 0 0 -7.81039,-4.6539818 109.99999,109.99999 0 0 0 -8.16798,-3.99354962 109.99999,109.99999 0 0 0 -8.46873,-3.30419908 109.99999,109.99999 0 0 0 -8.71368,-2.5941668 109.99999,109.99999 0 0 0 -8.89869,-1.8655053 109.99999,109.99999 0 0 0 -9.02167,-1.124488 109.99999,109.99999 0 0 0 -9.08263,-0.3761747 z" />
      <path
         id="path1914-2"
         style="vector-effect:non-scaling-stroke;fill:#89aed0;fill-opacity:0.5;stroke:none;stroke-width:0.00105833;stroke-dasharray:0.000211666, 0.000846667;stroke-opacity:0.00423129;-inkscape-stroke:hairline;stop-color:#000000"
         d="m 225.56346,66.355213 -19.31097,5.174358 a 109.99999,109.99999 0 0 1 1.08564,4.415888 109.99999,109.99999 0 0 1 1.6199,8.945455 109.99999,109.99999 0 0 1 0.87516,9.04892 109.99999,109.99999 0 0 1 0.12527,9.090986 109.99999,109.99999 0 0 1 -0.62547,9.07045 109.99999,109.99999 0 0 1 -1.37286,8.98623 109.99999,109.99999 0 0 1 -2.11023,8.84335 109.99999,109.99999 0 0 1 -2.83375,8.63924 109.99999,109.99999 0 0 1 -3.537,8.37526 109.99999,109.99999 0 0 1 -4.21605,8.0548 109.99999,109.99999 0 0 1 -4.86765,7.67859 109.99999,109.99999 0 0 1 -5.48465,7.25075 109.99999,109.99999 0 0 1 -6.06442,6.77284 109.99999,109.99999 0 0 1 -6.60344,6.24918 109.99999,109.99999 0 0 1 -7.0964,5.68294 109.99999,109.99999 0 0 1 -7.54199,5.07601 109.99999,109.99999 0 0 1 -7.93565,4.43699 109.99999,109.99999 0 0 1 -8.27418,3.76655 109.99999,109.99999 0 0 1 -3.83971,1.46843 l 6.62556,18.81696 a 130,130 0 0 0 68.40287,-57.19934 130,130 0 0 0 12.98002,-98.644837 z" />
      <path
         id="path3491-9"
         style="vector-effect:non-scaling-stroke;fill:#89aed0;fill-opacity:0.2;stroke:none;stroke-width:0.00105833;stroke-dasharray:0.000211666, 0.000846667;stroke-opacity:0.00423129;-inkscape-stroke:hairline;stop-color:#000000"
         d="m 30.000434,100.00006 19.999809,-1e-5 a 50,50 0 0 1 6e-6,-5.25e-4 50,50 0 0 1 0.08469,-2.9068 50,50 0 0 1 0.25374,-2.897501 50,50 0 0 1 0.421152,-2.877854 50,50 0 0 1 0.588096,-2.848405 50,50 0 0 1 0.752922,-2.80964 50,50 0 0 1 0.914672,-2.760559 50,50 0 0 1 1.073832,-2.703181 50,50 0 0 1 1.229386,-2.636028 50,50 0 0 1 1.380254,-2.56007 50,50 0 0 1 1.527028,-2.47529 50,50 0 0 1 1.668129,-2.382297 50,50 0 0 1 1.804022,-2.281503 50,50 0 0 1 1.93372,-2.172998 50,50 0 0 1 2.056219,-2.056204 50,50 0 0 1 2.172991,-1.933729 50,50 0 0 1 2.281518,-1.804036 50,50 0 0 1 2.382271,-1.668105 50,50 0 0 1 2.4753,-1.527033 50,50 0 0 1 2.560081,-1.38026 50,50 0 0 1 2.635999,-1.228847 50,50 0 0 1 2.703211,-1.073852 50,50 0 0 1 2.760539,-0.915179 50,50 0 0 1 2.809661,-0.75242 50,50 0 0 1 2.848399,-0.588585 50,50 0 0 1 2.877851,-0.421167 50,50 0 0 1 2.896989,-0.25373 50,50 0 0 1 2.907319,-0.0848 50,50 0 0 1 8.68268,0.759664 50,50 0 0 1 8.41861,2.256203 50,50 0 0 1 7.89874,3.682971 50,50 0 0 1 7.13962,4.999171 50,50 0 0 1 6.16293,6.162938 50,50 0 0 1 4.99866,7.139116 50,50 0 0 1 3.68349,7.899247 50,50 0 0 1 2.25568,8.418614 50,50 0 0 1 0.75964,8.682146 50,50 0 0 1 -0.75963,8.682698 50,50 0 0 1 -2.2557,8.41859 50,50 0 0 1 -3.68348,7.89875 50,50 0 0 1 -4.99866,7.13961 50,50 0 0 1 -0.13953,0.15247 l 15.26479,12.91601 a 69.999999,69.999999 0 0 0 0.19531,-0.21288 69.999999,69.999999 0 0 0 3.71761,-4.84467 69.999999,69.999999 0 0 0 3.28146,-5.15005 69.999999,69.999999 0 0 0 2.81947,-5.41675 69.999999,69.999999 0 0 0 2.3368,-5.64201 69.999999,69.999999 0 0 0 1.83659,-5.82393 69.999999,69.999999 0 0 0 1.32187,-5.96245 69.999999,69.999999 0 0 0 0.79686,-6.0544 69.999999,69.999999 0 0 0 0.26665,-6.100915 69.999999,69.999999 0 0 0 -0.26665,-6.100914 69.999999,69.999999 0 0 0 -0.79685,-6.054422 69.999999,69.999999 0 0 0 -1.32188,-5.961906 69.999999,69.999999 0 0 0 -1.83659,-5.823944 69.999999,69.999999 0 0 0 -2.3368,-5.642017 69.999999,69.999999 0 0 0 -2.81948,-5.416733 69.999999,69.999999 0 0 0 -3.28145,-5.150065 69.999999,69.999999 0 0 0 -3.71761,-4.845186 69.999999,69.999999 0 0 0 -4.12531,-4.502056 69.999999,69.999999 0 0 0 -4.50257,-4.12584 69.999999,69.999999 0 0 0 -4.84468,-3.717609 69.999999,69.999999 0 0 0 -5.15059,-3.280936 69.999999,69.999999 0 0 0 -5.41671,-2.819995 69.999999,69.999999 0 0 0 -5.64153,-2.336793 69.999999,69.999999 0 0 0 -5.82444,-1.836068 69.999999,69.999999 0 0 0 -5.96192,-1.321879 69.999999,69.999999 0 0 0 -6.05441,-0.796868 69.999999,69.999999 0 0 0 -6.10092,-0.266648 69.999999,69.999999 0 0 0 -2.03607,0.0295 69.999999,69.999999 0 0 0 -2.03396,0.0889 69.999999,69.999999 0 0 0 -2.030879,0.148314 69.999999,69.999999 0 0 0 -2.025211,0.20671 69.999999,69.999999 0 0 0 -2.019,0.265619 69.999999,69.999999 0 0 0 -2.010209,0.324512 69.999999,69.999999 0 0 0 -1.999881,0.382926 69.999999,69.999999 0 0 0 -1.987989,0.440279 69.999999,69.999999 0 0 0 -1.974031,0.498693 69.999999,69.999999 0 0 0 -1.95907,0.555504 69.999999,69.999999 0 0 0 -1.94148,0.612359 69.999999,69.999999 0 0 0 -1.92338,0.668199 69.999999,69.999999 0 0 0 -1.903259,0.724509 69.999999,69.999999 0 0 0 -1.881031,0.778759 69.999999,69.999999 0 0 0 -1.857749,0.833532 69.999999,69.999999 0 0 0 -1.832461,0.887299 69.999999,69.999999 0 0 0 -1.80607,0.940544 69.999999,69.999999 0 0 0 -1.778163,0.992202 69.999999,69.999999 0 0 0 -1.748229,1.043865 69.999999,69.999999 0 0 0 -1.717212,1.093982 69.999999,69.999999 0 0 0 -1.684648,1.143083 69.999999,69.999999 0 0 0 -1.651063,1.192176 69.999999,69.999999 0 0 0 -1.615404,1.239719 69.999999,69.999999 0 0 0 -1.578716,1.285704 69.999999,69.999999 0 0 0 -1.540468,1.331709 69.999999,69.999999 0 0 0 -1.501205,1.375617 69.999999,69.999999 0 0 0 -1.460373,1.418522 69.999999,69.999999 0 0 0 -1.419033,1.460381 69.999999,69.999999 0 0 0 -1.375109,1.5012 69.999999,69.999999 0 0 0 -1.331708,1.540456 69.999999,69.999999 0 0 0 -1.285704,1.578734 69.999999,69.999999 0 0 0 -1.239723,1.615398 69.999999,69.999999 0 0 0 -1.192171,1.651058 69.999999,69.999999 0 0 0 -1.14309,1.684651 69.999999,69.999999 0 0 0 -1.094528,1.717199 69.999999,69.999999 0 0 0 -1.043389,1.748182 69.999999,69.999999 0 0 0 -0.992215,1.778168 69.999999,69.999999 0 0 0 -0.940552,1.806083 69.999999,69.999999 0 0 0 -0.887273,1.832445 69.999999,69.999999 0 0 0 -0.83356,1.857763 69.999999,69.999999 0 0 0 -0.779273,1.881011 69.999999,69.999999 0 0 0 -0.72398,1.903247 69.999999,69.999999 0 0 0 -0.668184,1.923406 69.999999,69.999999 0 0 0 -0.612363,1.942008 69.999999,69.999999 0 0 0 -0.555524,1.95852 69.999999,69.999999 0 0 0 -0.49868,1.974561 69.999999,69.999999 0 0 0 -0.440795,1.987473 69.999999,69.999999 0 0 0 -0.382401,1.999883 69.999999,69.999999 0 0 0 -0.324525,2.010216 69.999999,69.999999 0 0 0 -0.265617,2.018984 69.999999,69.999999 0 0 0 -0.207227,2.025213 69.999999,69.999999 0 0 0 -0.147802,2.030875 69.999999,69.999999 0 0 0 -0.0889,2.034512 69.999999,69.999999 0 0 0 -0.0295,2.035515 69.999999,69.999999 0 0 0 1.5e-5,5.25e-4 z" />
      <path
         id="path3090-1"
         style="vector-effect:non-scaling-stroke;fill:#89aed0;fill-opacity:0.3;stroke:none;stroke-width:0.00105833;stroke-dasharray:0.000211666, 0.000846667;stroke-opacity:0.00423129;-inkscape-stroke:hairline;stop-color:#000000"
         d="m 65.449523,16.989033 7.164881,18.594894 a 69.999999,69.999999 0 0 1 1.541829,-0.638624 69.999999,69.999999 0 0 1 1.90281,-0.724325 69.999999,69.999999 0 0 1 1.92353,-0.668238 69.999999,69.999999 0 0 1 1.941471,-0.612523 69.999999,69.999999 0 0 1 1.959119,-0.555197 69.999999,69.999999 0 0 1 1.97397,-0.4983 69.999999,69.999999 0 0 1 1.9879,-0.440726 69.999999,69.999999 0 0 1 1.99994,-0.38306 69.999999,69.999999 0 0 1 2.010051,-0.324088 69.999999,69.999999 0 0 1 2.01884,-0.265948 69.999999,69.999999 0 0 1 2.025959,-0.206898 69.999999,69.999999 0 0 1 2.03049,-0.147611 69.999999,69.999999 0 0 1 2.03414,-0.08881 69.999999,69.999999 0 0 1 2.035927,-0.0299 69.999999,69.999999 0 0 1 2.03604,0.0298 69.999999,69.999999 0 0 1 2.03438,0.0885 69.999999,69.999999 0 0 1 2.0306,0.14781 69.999999,69.999999 0 0 1 2.02564,0.207027 69.999999,69.999999 0 0 1 2.01838,0.266084 69.999999,69.999999 0 0 1 2.01052,0.324178 69.999999,69.999999 0 0 1 1.99978,0.383051 69.999999,69.999999 0 0 1 1.98757,0.440411 69.999999,69.999999 0 0 1 1.97435,0.498431 69.999999,69.999999 0 0 1 1.95891,0.555146 69.999999,69.999999 0 0 1 1.94178,0.612714 69.999999,69.999999 0 0 1 1.92342,0.668329 69.999999,69.999999 0 0 1 1.90316,0.724027 69.999999,69.999999 0 0 1 1.88132,0.77948 69.999999,69.999999 0 0 1 1.85723,0.833581 69.999999,69.999999 0 0 1 1.83295,0.887002 69.999999,69.999999 0 0 1 1.80593,0.940005 69.999999,69.999999 0 0 1 1.77796,0.992554 69.999999,69.999999 0 0 1 5.15024,3.281395 69.999999,69.999999 0 0 1 4.84483,3.717289 69.999999,69.999999 0 0 1 4.50225,4.125729 69.999999,69.999999 0 0 1 4.12611,4.50232 69.999999,69.999999 0 0 1 3.71727,4.844492 69.999999,69.999999 0 0 1 3.28102,5.150524 69.999999,69.999999 0 0 1 2.82007,5.416675 69.999999,69.999999 0 0 1 2.3368,5.641862 69.999999,69.999999 0 0 1 1.83641,5.824384 69.999999,69.999999 0 0 1 1.32162,5.961555 69.999999,69.999999 0 0 1 0.79696,6.054841 69.999999,69.999999 0 0 1 0.26679,6.100823 69.999999,69.999999 0 0 1 -0.26665,6.100742 69.999999,69.999999 0 0 1 -0.79726,6.05456 69.999999,69.999999 0 0 1 -1.32145,5.96197 69.999999,69.999999 0 0 1 -1.83618,5.8241 69.999999,69.999999 0 0 1 -2.33712,5.64169 69.999999,69.999999 0 0 1 -2.81951,5.41688 69.999999,69.999999 0 0 1 -3.28139,5.15023 69.999999,69.999999 0 0 1 -3.71731,4.84486 69.999999,69.999999 0 0 1 -4.12598,4.50268 69.999999,69.999999 0 0 1 -4.50251,4.12536 69.999999,69.999999 0 0 1 -4.84474,3.71775 69.999999,69.999999 0 0 1 -5.15009,3.28127 69.999999,69.999999 0 0 1 -5.41685,2.81938 69.999999,69.999999 0 0 1 -5.64187,2.33681 69.999999,69.999999 0 0 1 -1.03528,0.32659 l 7.19789,18.68134 A 89.999999,89.999999 45 0 0 177.94282,144.99955 89.999999,89.999999 45 0 0 145.00024,22.057431 89.999999,89.999999 45 0 0 65.449513,16.989006 Z" />
      <path
         id="path2501-2"
         style="opacity:0.196537;vector-effect:non-scaling-stroke;fill:#89aed0;fill-opacity:0.4;stroke:none;stroke-width:0.00105833;stroke-dasharray:0.000211666, 0.000846667;stroke-opacity:0.00423129;-inkscape-stroke:hairline;stop-color:#000000"
         d="m 195.26357,44.999947 -17.32034,9.999906 a 89.999999,89.999999 0 0 1 6.07985,12.746507 89.999999,89.999999 0 0 1 4.011,13.541169 89.999999,89.999999 0 0 1 1.84336,14.001424 89.999999,89.999999 0 0 1 -0.36992,14.118067 89.999999,89.999999 0 0 1 -2.5745,13.88597 89.999999,89.999999 0 0 1 -4.71341,13.31286 89.999999,89.999999 0 0 1 -6.73867,12.41157 89.999999,89.999999 0 0 1 -8.5971,11.20391 89.999999,89.999999 0 0 1 -10.24421,9.72149 89.999999,89.999999 0 0 1 -11.63946,7.99939 89.999999,89.999999 0 0 1 -12.74651,6.07986 89.999999,89.999999 0 0 1 -13.54117,4.011 89.999999,89.999999 0 0 1 -14.00142,1.84335 89.999999,89.999999 0 0 1 -14.118069,-0.36992 89.999999,89.999999 0 0 1 -6.583585,-0.95413 l -3.557004,19.6959 a 109.99999,109.99999 0 0 0 4.439335,0.7087 109.99999,109.99999 0 0 0 9.04893,0.87515 109.99999,109.99999 0 0 0 9.090973,0.12528 109.99999,109.99999 0 0 0 9.06956,-0.62496 109.99999,109.99999 0 0 0 8.98713,-1.37336 109.99999,109.99999 0 0 0 8.84334,-2.11024 109.99999,109.99999 0 0 0 8.63835,-2.83324 109.99999,109.99999 0 0 0 8.37524,-3.537 109.99999,109.99999 0 0 0 8.0548,-4.21604 109.99999,109.99999 0 0 0 7.6786,-4.86765 109.99999,109.99999 0 0 0 7.25076,-5.48466 109.99999,109.99999 0 0 0 6.77372,-6.06493 109.99999,109.99999 0 0 0 6.24919,-6.60344 109.99999,109.99999 0 0 0 5.68204,-7.09589 109.99999,109.99999 0 0 0 5.0769,-7.5425 109.99999,109.99999 0 0 0 4.437,-7.93566 109.99999,109.99999 0 0 0 3.76656,-8.27417 109.99999,109.99999 0 0 0 3.06985,-8.55695 109.99999,109.99999 0 0 0 2.35339,-8.78298 109.99999,109.99999 0 0 0 1.61991,-8.94546 109.99999,109.99999 0 0 0 0.87515,-9.04893 109.99999,109.99999 0 0 0 0.12527,-9.090971 109.99999,109.99999 0 0 0 -0.62547,-9.070454 109.99999,109.99999 0 0 0 -1.37285,-8.986234 109.99999,109.99999 0 0 0 -2.11023,-8.843346 109.99999,109.99999 0 0 0 -2.83376,-8.639243 109.99999,109.99999 0 0 0 -3.537,-8.375237 109.99999,109.99999 0 0 0 -4.21553,-8.053908 z" />
      <path
         id="path1914-7"
         style="opacity:0.196537;vector-effect:non-scaling-stroke;fill:#89aed0;fill-opacity:0.5;stroke:none;stroke-width:0.00105833;stroke-dasharray:0.000211666, 0.000846667;stroke-opacity:0.00423129;-inkscape-stroke:hairline;stop-color:#000000"
         d="m 191.91894,191.91824 -14.13661,-14.13661 a 109.99999,109.99999 0 0 1 -3.28145,3.14813 109.99999,109.99999 0 0 1 -6.93704,5.87561 109.99999,109.99999 0 0 1 -7.39903,5.28237 109.99999,109.99999 0 0 1 -7.81038,4.65398 109.99999,109.99999 0 0 1 -8.16798,3.99355 109.99999,109.99999 0 0 1 -8.46873,3.30419 109.99999,109.99999 0 0 1 -8.71368,2.59416 109.99999,109.99999 0 0 1 -8.89868,1.86552 109.99999,109.99999 0 0 1 -9.02168,1.12448 109.99999,109.99999 0 0 1 -9.08368,0.3762 109.99999,109.99999 0 0 1 -9.083683,-0.3762 109.99999,109.99999 0 0 1 -9.021667,-1.12448 109.99999,109.99999 0 0 1 -8.897652,-1.86552 109.99999,109.99999 0 0 1 -8.713676,-2.59416 109.99999,109.99999 0 0 1 -8.469767,-3.30419 109.99999,109.99999 0 0 1 -8.166947,-3.99355 109.99999,109.99999 0 0 1 -7.810373,-4.65398 109.99999,109.99999 0 0 1 -7.39903,-5.28237 109.99999,109.99999 0 0 1 -3.191542,-2.59106 L 16.26248,199.36068 A 130,130 0 0 0 100,229.99963 130,130 0 0 0 191.91894,191.91824 Z" />
      <path
         id="path3491-0"
         style="opacity:0.196537;vector-effect:non-scaling-stroke;fill:#89aed0;fill-opacity:0.2;stroke:none;stroke-width:0.00105833;stroke-dasharray:0.000211666, 0.000846667;stroke-opacity:0.00423129;-inkscape-stroke:hairline;stop-color:#000000"
         d="m 65.00014,39.378109 9.999905,17.320344 a 50,50 0 0 1 4.51e-4,-2.6e-4 50,50 0 0 1 2.559736,-1.380004 50,50 0 0 1 2.636174,-1.229009 50,50 0 0 1 2.702879,-1.074194 50,50 0 0 1 2.760833,-0.914912 50,50 0 0 1 2.809688,-0.752773 50,50 0 0 1 2.848047,-0.588146 50,50 0 0 1 2.877954,-0.421627 50,50 0 0 1 2.897546,-0.253332 50,50 0 0 1 2.907207,-0.08467 50,50 0 0 1 2.90719,0.0848 50,50 0 0 1 2.89718,0.253489 50,50 0 0 1 2.87786,0.421575 50,50 0 0 1 2.84873,0.588162 50,50 0 0 1 2.80883,0.752625 50,50 0 0 1 2.76116,0.915002 50,50 0 0 1 2.70309,1.073838 50,50 0 0 1 2.63577,1.229059 50,50 0 0 1 2.5601,1.380152 50,50 0 0 1 2.47539,1.526937 50,50 0 0 1 2.38222,1.66842 50,50 0 0 1 2.28158,1.804119 50,50 0 0 1 2.17285,1.933115 50,50 0 0 1 2.05643,2.05702 50,50 0 0 1 1.93394,2.172496 50,50 0 0 1 1.80366,2.281718 50,50 0 0 1 1.66824,2.381994 50,50 0 0 1 1.52706,2.475438 50,50 0 0 1 3.68346,7.899231 50,50 0 0 1 2.25538,8.418828 50,50 0 0 1 0.75982,8.681998 50,50 0 0 1 -0.75961,8.682678 50,50 0 0 1 -2.25579,8.41872 50,50 0 0 1 -3.68331,7.89852 50,50 0 0 1 -4.9992,7.13964 50,50 0 0 1 -6.1629,6.16278 50,50 0 0 1 -7.13915,4.99894 50,50 0 0 1 -7.89924,3.68348 50,50 0 0 1 -8.41856,2.25581 50,50 0 0 1 -8.68226,0.75938 50,50 0 0 1 -8.682421,-0.75916 50,50 0 0 1 -0.2018,-0.0446 l -3.55324,19.67764 a 69.999999,69.999999 0 0 0 0.282035,0.0627 69.999999,69.999999 0 0 0 6.054411,0.79721 69.999999,69.999999 0 0 0 6.100815,0.26679 69.999999,69.999999 0 0 0 6.10077,-0.26664 69.999999,69.999999 0 0 0 6.05453,-0.79727 69.999999,69.999999 0 0 0 5.96197,-1.32144 69.999999,69.999999 0 0 0 5.82456,-1.83644 69.999999,69.999999 0 0 0 5.64169,-2.3371 69.999999,69.999999 0 0 0 5.41688,-2.81954 69.999999,69.999999 0 0 0 5.15022,-3.28138 69.999999,69.999999 0 0 0 4.84486,-3.71731 69.999999,69.999999 0 0 0 4.50222,-4.12573 69.999999,69.999999 0 0 0 4.12539,-4.50251 69.999999,69.999999 0 0 0 3.71773,-4.84473 69.999999,69.999999 0 0 0 3.28129,-5.1501 69.999999,69.999999 0 0 0 2.81936,-5.41686 69.999999,69.999999 0 0 0 2.33725,-5.64214 69.999999,69.999999 0 0 0 1.83623,-5.82365 69.999999,69.999999 0 0 0 1.32181,-5.96226 69.999999,69.999999 0 0 0 0.7972,-6.05442 69.999999,69.999999 0 0 0 0.26608,-6.101001 69.999999,69.999999 0 0 0 -0.26617,-6.101011 69.999999,69.999999 0 0 0 -0.79703,-6.054102 69.999999,69.999999 0 0 0 -1.32215,-5.962152 69.999999,69.999999 0 0 0 -1.83618,-5.824111 69.999999,69.999999 0 0 0 -2.3371,-5.641693 69.999999,69.999999 0 0 0 -2.81954,-5.416883 69.999999,69.999999 0 0 0 -1.04354,-1.748549 69.999999,69.999999 0 0 0 -1.09396,-1.717034 69.999999,69.999999 0 0 0 -1.14388,-1.684642 69.999999,69.999999 0 0 0 -1.19161,-1.650524 69.999999,69.999999 0 0 0 -1.23953,-1.615695 69.999999,69.999999 0 0 0 -1.28616,-1.578627 69.999999,69.999999 0 0 0 -1.33156,-1.540487 69.999999,69.999999 0 0 0 -1.37529,-1.501509 69.999999,69.999999 0 0 0 -1.41889,-1.460231 69.999999,69.999999 0 0 0 -1.46062,-1.418829 69.999999,69.999999 0 0 0 -1.50106,-1.37519 69.999999,69.999999 0 0 0 -1.54036,-1.331624 69.999999,69.999999 0 0 0 -1.57906,-1.286005 69.999999,69.999999 0 0 0 -1.61494,-1.239633 69.999999,69.999999 0 0 0 -1.65075,-1.192104 69.999999,69.999999 0 0 0 -1.68464,-1.143301 69.999999,69.999999 0 0 0 -1.71755,-1.093868 69.999999,69.999999 0 0 0 -1.74835,-1.043854 69.999999,69.999999 0 0 0 -1.77813,-0.992065 69.999999,69.999999 0 0 0 -1.80603,-0.940151 69.999999,69.999999 0 0 0 -1.83226,-0.887411 69.999999,69.999999 0 0 0 -1.85799,-0.833772 69.999999,69.999999 0 0 0 -1.88133,-0.779125 69.999999,69.999999 0 0 0 -1.90281,-0.724352 69.999999,69.999999 0 0 0 -1.92353,-0.668238 69.999999,69.999999 0 0 0 -1.94192,-0.612266 69.999999,69.999999 0 0 0 -1.95866,-0.555463 69.999999,69.999999 0 0 0 -1.97424,-0.498731 69.999999,69.999999 0 0 0 -1.98764,-0.440282 69.999999,69.999999 0 0 0 -1.99994,-0.383048 69.999999,69.999999 0 0 0 -2.01006,-0.3241 69.999999,69.999999 0 0 0 -2.01884,-0.265925 69.999999,69.999999 0 0 0 -2.02595,-0.206922 69.999999,69.999999 0 0 0 -2.03049,-0.147614 69.999999,69.999999 0 0 0 -2.0344,-0.08927 69.999999,69.999999 0 0 0 -2.03567,-0.02946 69.999999,69.999999 0 0 0 -2.036048,0.02983 69.999999,69.999999 0 0 0 -2.034376,0.08854 69.999999,69.999999 0 0 0 -2.030588,0.147816 69.999999,69.999999 0 0 0 -2.025645,0.207013 69.999999,69.999999 0 0 0 -2.018652,0.265634 69.999999,69.999999 0 0 0 -2.01025,0.32463 69.999999,69.999999 0 0 0 -1.999798,0.383041 69.999999,69.999999 0 0 0 -1.988007,0.440679 69.999999,69.999999 0 0 0 -1.9739,0.49817 69.999999,69.999999 0 0 0 -1.959356,0.55541 69.999999,69.999999 0 0 0 -1.941605,0.611997 69.999999,69.999999 0 0 0 -1.923148,0.668768 69.999999,69.999999 0 0 0 -1.90316,0.724053 69.999999,69.999999 0 0 0 -1.881311,0.77947 69.999999,69.999999 0 0 0 -1.857486,0.833137 69.999999,69.999999 0 0 0 -1.832695,0.887451 69.999999,69.999999 0 0 0 -1.806374,0.940268 69.999999,69.999999 0 0 0 -1.77755,0.992263 69.999999,69.999999 0 0 0 -4.46e-4,2.6e-4 z" />
      <path
         id="path3090-9"
         style="opacity:0.196537;vector-effect:non-scaling-stroke;fill:#89aed0;fill-opacity:0.3;stroke:none;stroke-width:0.00105833;stroke-dasharray:0.000211666, 0.000846667;stroke-opacity:0.00423129;-inkscape-stroke:hairline;stop-color:#000000"
         d="m 154.61433,28.57241 -12.5212,15.502415 a 69.999999,69.999999 0 0 1 1.32396,1.015958 69.999999,69.999999 0 0 1 1.57871,1.285708 69.999999,69.999999 0 0 1 1.54047,1.331703 69.999999,69.999999 0 0 1 1.5012,1.375111 69.999999,69.999999 0 0 1 1.46038,1.419034 69.999999,69.999999 0 0 1 1.41851,1.460375 69.999999,69.999999 0 0 1 1.37563,1.501202 69.999999,69.999999 0 0 1 1.33171,1.540474 69.999999,69.999999 0 0 1 1.2857,1.578714 69.999999,69.999999 0 0 1 1.23972,1.615403 69.999999,69.999999 0 0 1 1.19218,1.651068 69.999999,69.999999 0 0 1 1.14308,1.684651 69.999999,69.999999 0 0 1 1.09397,1.71722 69.999999,69.999999 0 0 1 1.04386,1.748216 69.999999,69.999999 0 0 1 0.99222,1.778169 69.999999,69.999999 0 0 1 0.94054,1.806066 69.999999,69.999999 0 0 1 0.88729,1.832448 69.999999,69.999999 0 0 1 0.83354,1.857774 69.999999,69.999999 0 0 1 0.77875,1.881022 69.999999,69.999999 0 0 1 0.72451,1.903243 69.999999,69.999999 0 0 1 0.66816,1.923394 69.999999,69.999999 0 0 1 0.61238,1.941491 69.999999,69.999999 0 0 1 0.55552,1.959043 69.999999,69.999999 0 0 1 0.49868,1.974041 69.999999,69.999999 0 0 1 0.44027,1.987995 69.999999,69.999999 0 0 1 0.38292,1.999882 69.999999,69.999999 0 0 1 0.32455,2.010205 69.999999,69.999999 0 0 1 0.26562,2.019005 69.999999,69.999999 0 0 1 0.2067,2.025195 69.999999,69.999999 0 0 1 0.14831,2.030881 69.999999,69.999999 0 0 1 0.0889,2.033995 69.999999,69.999999 0 0 1 0.0294,2.036039 69.999999,69.999999 0 0 1 -0.26664,6.10093 69.999999,69.999999 0 0 1 -0.79685,6.0544 69.999999,69.999999 0 0 1 -1.32188,5.96192 69.999999,69.999999 0 0 1 -1.83606,5.82446 69.999999,69.999999 0 0 1 -2.33681,5.64151 69.999999,69.999999 0 0 1 -2.81998,5.41672 69.999999,69.999999 0 0 1 -3.28094,5.15058 69.999999,69.999999 0 0 1 -3.7176,4.84467 69.999999,69.999999 0 0 1 -4.12586,4.50257 69.999999,69.999999 0 0 1 -4.50205,4.12532 69.999999,69.999999 0 0 1 -4.84517,3.71762 69.999999,69.999999 0 0 1 -5.15007,3.28145 69.999999,69.999999 0 0 1 -5.41673,2.81945 69.999999,69.999999 0 0 1 -5.64202,2.33682 69.999999,69.999999 0 0 1 -5.82394,1.83658 69.999999,69.999999 0 0 1 -5.96192,1.32188 69.999999,69.999999 0 0 1 -6.05441,0.79684 69.999999,69.999999 0 0 1 -6.10091,0.26666 69.999999,69.999999 0 0 1 -6.100923,-0.26664 69.999999,69.999999 0 0 1 -6.054412,-0.79686 69.999999,69.999999 0 0 1 -5.962429,-1.32187 69.999999,69.999999 0 0 1 -5.823933,-1.83659 69.999999,69.999999 0 0 1 -5.642036,-2.3368 69.999999,69.999999 0 0 1 -5.416716,-2.81948 69.999999,69.999999 0 0 1 -5.150074,-3.28144 69.999999,69.999999 0 0 1 -4.844664,-3.7176 69.999999,69.999999 0 0 1 -0.800479,-0.73328 L 41.6254,168.46359 a 89.999999,89.999999 0 0 0 58.37523,21.53615 89.999999,89.999999 0 0 0 89.99969,-90.000178 89.999999,89.999999 0 0 0 -35.38596,-71.427167 z" />
      <path
         id="path2501-6-3"
         style="opacity:0.196537;vector-effect:non-scaling-stroke;fill:#89aed0;fill-opacity:0.4;stroke:none;stroke-width:0.00105833;stroke-dasharray:0.000211666, 0.000846667;stroke-opacity:0.00423129;-inkscape-stroke:hairline;stop-color:#000000"
         d="m 100.00081,-10.00045 -2e-5,19.9997857 a 89.999999,89.999999 0 0 1 14.07874,1.1079473 89.999999,89.999999 0 0 1 13.7325,3.296963 89.999999,89.999999 0 0 1 13.04725,5.40431 89.999999,89.999999 0 0 1 12.04166,7.379395 89.999999,89.999999 0 0 1 10.73836,9.172574 89.999999,89.999999 0 0 1 9.17256,10.73836 89.999999,89.999999 0 0 1 7.37939,12.041636 89.999999,89.999999 0 0 1 5.40433,13.047269 89.999999,89.999999 0 0 1 3.29695,13.732497 89.999999,89.999999 0 0 1 1.10795,14.079753 89.999999,89.999999 0 0 1 -1.10794,14.07873 89.999999,89.999999 0 0 1 -3.29695,13.73251 89.999999,89.999999 0 0 1 -5.40433,13.04725 89.999999,89.999999 0 0 1 -7.3794,12.04165 89.999999,89.999999 0 0 1 -4.11809,5.22449 l 15.27865,12.9284 a 109.99999,109.99999 0 0 0 2.83343,-3.49023 109.99999,109.99999 0 0 0 5.28234,-7.39903 109.99999,109.99999 0 0 0 4.654,-7.81037 109.99999,109.99999 0 0 0 3.99354,-8.16695 109.99999,109.99999 0 0 0 3.30419,-8.46975 109.99999,109.99999 0 0 0 2.59416,-8.71368 109.99999,109.99999 0 0 0 1.86551,-8.89766 109.99999,109.99999 0 0 0 1.1245,-9.02167 109.99999,109.99999 0 0 0 0.3762,-9.08368 109.99999,109.99999 0 0 0 -0.37621,-9.083685 109.99999,109.99999 0 0 0 -1.12447,-9.021669 109.99999,109.99999 0 0 0 -1.86553,-8.898681 109.99999,109.99999 0 0 0 -2.59415,-8.713678 109.99999,109.99999 0 0 0 -3.3042,-8.468737 109.99999,109.99999 0 0 0 -3.99355,-8.167974 109.99999,109.99999 0 0 0 -4.65397,-7.81038 109.99999,109.99999 0 0 0 -5.28237,-7.399029 109.99999,109.99999 0 0 0 -5.87561,-6.937041 109.99999,109.99999 0 0 0 -6.42958,-6.42958 109.99999,109.99999 0 0 0 -6.93705,-5.875619 109.99999,109.99999 0 0 0 -7.39902,-5.2823617 109.99999,109.99999 0 0 0 -7.81039,-4.6539818 109.99999,109.99999 0 0 0 -8.16798,-3.99354962 109.99999,109.99999 0 0 0 -8.46873,-3.30419908 109.99999,109.99999 0 0 0 -8.71368,-2.5941668 109.99999,109.99999 0 0 0 -8.89869,-1.8655053 109.99999,109.99999 0 0 0 -9.02167,-1.124488 109.99999,109.99999 0 0 0 -9.08263,-0.3761747 z" />
      <path
         id="path1914-2-6"
         style="opacity:0.196537;vector-effect:non-scaling-stroke;fill:#89aed0;fill-opacity:0.5;stroke:none;stroke-width:0.00105833;stroke-dasharray:0.000211666, 0.000846667;stroke-opacity:0.00423129;-inkscape-stroke:hairline;stop-color:#000000"
         d="m 225.56346,66.355213 -19.31097,5.174358 a 109.99999,109.99999 0 0 1 1.08564,4.415888 109.99999,109.99999 0 0 1 1.6199,8.945455 109.99999,109.99999 0 0 1 0.87516,9.04892 109.99999,109.99999 0 0 1 0.12527,9.090986 109.99999,109.99999 0 0 1 -0.62547,9.07045 109.99999,109.99999 0 0 1 -1.37286,8.98623 109.99999,109.99999 0 0 1 -2.11023,8.84335 109.99999,109.99999 0 0 1 -2.83375,8.63924 109.99999,109.99999 0 0 1 -3.537,8.37526 109.99999,109.99999 0 0 1 -4.21605,8.0548 109.99999,109.99999 0 0 1 -4.86765,7.67859 109.99999,109.99999 0 0 1 -5.48465,7.25075 109.99999,109.99999 0 0 1 -6.06442,6.77284 109.99999,109.99999 0 0 1 -6.60344,6.24918 109.99999,109.99999 0 0 1 -7.0964,5.68294 109.99999,109.99999 0 0 1 -7.54199,5.07601 109.99999,109.99999 0 0 1 -7.93565,4.43699 109.99999,109.99999 0 0 1 -8.27418,3.76655 109.99999,109.99999 0 0 1 -3.83971,1.46843 l 6.62556,18.81696 a 130,130 0 0 0 68.40287,-57.19934 130,130 0 0 0 12.98002,-98.644837 z" />
      <path
         id="path3491-9-0"
         style="opacity:0.196537;vector-effect:non-scaling-stroke;fill:#89aed0;fill-opacity:0.2;stroke:none;stroke-width:0.00105833;stroke-dasharray:0.000211666, 0.000846667;stroke-opacity:0.00423129;-inkscape-stroke:hairline;stop-color:#000000"
         d="m 30.000434,100.00006 19.999809,-1e-5 a 50,50 0 0 1 6e-6,-5.25e-4 50,50 0 0 1 0.08469,-2.9068 50,50 0 0 1 0.25374,-2.897501 50,50 0 0 1 0.421152,-2.877854 50,50 0 0 1 0.588096,-2.848405 50,50 0 0 1 0.752922,-2.80964 50,50 0 0 1 0.914672,-2.760559 50,50 0 0 1 1.073832,-2.703181 50,50 0 0 1 1.229386,-2.636028 50,50 0 0 1 1.380254,-2.56007 50,50 0 0 1 1.527028,-2.47529 50,50 0 0 1 1.668129,-2.382297 50,50 0 0 1 1.804022,-2.281503 50,50 0 0 1 1.93372,-2.172998 50,50 0 0 1 2.056219,-2.056204 50,50 0 0 1 2.172991,-1.933729 50,50 0 0 1 2.281518,-1.804036 50,50 0 0 1 2.382271,-1.668105 50,50 0 0 1 2.4753,-1.527033 50,50 0 0 1 2.560081,-1.38026 50,50 0 0 1 2.635999,-1.228847 50,50 0 0 1 2.703211,-1.073852 50,50 0 0 1 2.760539,-0.915179 50,50 0 0 1 2.809661,-0.75242 50,50 0 0 1 2.848399,-0.588585 50,50 0 0 1 2.877851,-0.421167 50,50 0 0 1 2.896989,-0.25373 50,50 0 0 1 2.907319,-0.0848 50,50 0 0 1 8.68268,0.759664 50,50 0 0 1 8.41861,2.256203 50,50 0 0 1 7.89874,3.682971 50,50 0 0 1 7.13962,4.999171 50,50 0 0 1 6.16293,6.162938 50,50 0 0 1 4.99866,7.139116 50,50 0 0 1 3.68349,7.899247 50,50 0 0 1 2.25568,8.418614 50,50 0 0 1 0.75964,8.682146 50,50 0 0 1 -0.75963,8.682698 50,50 0 0 1 -2.2557,8.41859 50,50 0 0 1 -3.68348,7.89875 50,50 0 0 1 -4.99866,7.13961 50,50 0 0 1 -0.13953,0.15247 l 15.26479,12.91601 a 69.999999,69.999999 0 0 0 0.19531,-0.21288 69.999999,69.999999 0 0 0 3.71761,-4.84467 69.999999,69.999999 0 0 0 3.28146,-5.15005 69.999999,69.999999 0 0 0 2.81947,-5.41675 69.999999,69.999999 0 0 0 2.3368,-5.64201 69.999999,69.999999 0 0 0 1.83659,-5.82393 69.999999,69.999999 0 0 0 1.32187,-5.96245 69.999999,69.999999 0 0 0 0.79686,-6.0544 69.999999,69.999999 0 0 0 0.26665,-6.100915 69.999999,69.999999 0 0 0 -0.26665,-6.100914 69.999999,69.999999 0 0 0 -0.79685,-6.054422 69.999999,69.999999 0 0 0 -1.32188,-5.961906 69.999999,69.999999 0 0 0 -1.83659,-5.823944 69.999999,69.999999 0 0 0 -2.3368,-5.642017 69.999999,69.999999 0 0 0 -2.81948,-5.416733 69.999999,69.999999 0 0 0 -3.28145,-5.150065 69.999999,69.999999 0 0 0 -3.71761,-4.845186 69.999999,69.999999 0 0 0 -4.12531,-4.502056 69.999999,69.999999 0 0 0 -4.50257,-4.12584 69.999999,69.999999 0 0 0 -4.84468,-3.717609 69.999999,69.999999 0 0 0 -5.15059,-3.280936 69.999999,69.999999 0 0 0 -5.41671,-2.819995 69.999999,69.999999 0 0 0 -5.64153,-2.336793 69.999999,69.999999 0 0 0 -5.82444,-1.836068 69.999999,69.999999 0 0 0 -5.96192,-1.321879 69.999999,69.999999 0 0 0 -6.05441,-0.796868 69.999999,69.999999 0 0 0 -6.10092,-0.266648 69.999999,69.999999 0 0 0 -2.03607,0.0295 69.999999,69.999999 0 0 0 -2.03396,0.0889 69.999999,69.999999 0 0 0 -2.030879,0.148314 69.999999,69.999999 0 0 0 -2.025211,0.20671 69.999999,69.999999 0 0 0 -2.019,0.265619 69.999999,69.999999 0 0 0 -2.010209,0.324512 69.999999,69.999999 0 0 0 -1.999881,0.382926 69.999999,69.999999 0 0 0 -1.987989,0.440279 69.999999,69.999999 0 0 0 -1.974031,0.498693 69.999999,69.999999 0 0 0 -1.95907,0.555504 69.999999,69.999999 0 0 0 -1.94148,0.612359 69.999999,69.999999 0 0 0 -1.92338,0.668199 69.999999,69.999999 0 0 0 -1.903259,0.724509 69.999999,69.999999 0 0 0 -1.881031,0.778759 69.999999,69.999999 0 0 0 -1.857749,0.833532 69.999999,69.999999 0 0 0 -1.832461,0.887299 69.999999,69.999999 0 0 0 -1.80607,0.940544 69.999999,69.999999 0 0 0 -1.778163,0.992202 69.999999,69.999999 0 0 0 -1.748229,1.043865 69.999999,69.999999 0 0 0 -1.717212,1.093982 69.999999,69.999999 0 0 0 -1.684648,1.143083 69.999999,69.999999 0 0 0 -1.651063,1.192176 69.999999,69.999999 0 0 0 -1.615404,1.239719 69.999999,69.999999 0 0 0 -1.578716,1.285704 69.999999,69.999999 0 0 0 -1.540468,1.331709 69.999999,69.999999 0 0 0 -1.501205,1.375617 69.999999,69.999999 0 0 0 -1.460373,1.418522 69.999999,69.999999 0 0 0 -1.419033,1.460381 69.999999,69.999999 0 0 0 -1.375109,1.5012 69.999999,69.999999 0 0 0 -1.331708,1.540456 69.999999,69.999999 0 0 0 -1.285704,1.578734 69.999999,69.999999 0 0 0 -1.239723,1.615398 69.999999,69.999999 0 0 0 -1.192171,1.651058 69.999999,69.999999 0 0 0 -1.14309,1.684651 69.999999,69.999999 0 0 0 -1.094528,1.717199 69.999999,69.999999 0 0 0 -1.043389,1.748182 69.999999,69.999999 0 0 0 -0.992215,1.778168 69.999999,69.999999 0 0 0 -0.940552,1.806083 69.999999,69.999999 0 0 0 -0.887273,1.832445 69.999999,69.999999 0 0 0 -0.83356,1.857763 69.999999,69.999999 0 0 0 -0.779273,1.881011 69.999999,69.999999 0 0 0 -0.72398,1.903247 69.999999,69.999999 0 0 0 -0.668184,1.923406 69.999999,69.999999 0 0 0 -0.612363,1.942008 69.999999,69.999999 0 0 0 -0.555524,1.95852 69.999999,69.999999 0 0 0 -0.49868,1.974561 69.999999,69.999999 0 0 0 -0.440795,1.987473 69.999999,69.999999 0 0 0 -0.382401,1.999883 69.999999,69.999999 0 0 0 -0.324525,2.010216 69.999999,69.999999 0 0 0 -0.265617,2.018984 69.999999,69.999999 0 0 0 -0.207227,2.025213 69.999999,69.999999 0 0 0 -0.147802,2.030875 69.999999,69.999999 0 0 0 -0.0889,2.034512 69.999999,69.999999 0 0 0 -0.0295,2.035515 69.999999,69.999999 0 0 0 1.5e-5,5.25e-4 z" />
      <path
         id="path3090-1-6"
         style="opacity:0.196537;vector-effect:non-scaling-stroke;fill:#89aed0;fill-opacity:0.3;stroke:none;stroke-width:0.00105833;stroke-dasharray:0.000211666, 0.000846667;stroke-opacity:0.00423129;-inkscape-stroke:hairline;stop-color:#000000"
         d="m 65.449523,16.989033 7.164881,18.594894 a 69.999999,69.999999 0 0 1 1.541829,-0.638624 69.999999,69.999999 0 0 1 1.90281,-0.724325 69.999999,69.999999 0 0 1 1.92353,-0.668238 69.999999,69.999999 0 0 1 1.941471,-0.612523 69.999999,69.999999 0 0 1 1.959119,-0.555197 69.999999,69.999999 0 0 1 1.97397,-0.4983 69.999999,69.999999 0 0 1 1.9879,-0.440726 69.999999,69.999999 0 0 1 1.99994,-0.38306 69.999999,69.999999 0 0 1 2.010051,-0.324088 69.999999,69.999999 0 0 1 2.01884,-0.265948 69.999999,69.999999 0 0 1 2.025959,-0.206898 69.999999,69.999999 0 0 1 2.03049,-0.147611 69.999999,69.999999 0 0 1 2.03414,-0.08881 69.999999,69.999999 0 0 1 2.035927,-0.0299 69.999999,69.999999 0 0 1 2.03604,0.0298 69.999999,69.999999 0 0 1 2.03438,0.0885 69.999999,69.999999 0 0 1 2.0306,0.14781 69.999999,69.999999 0 0 1 2.02564,0.207027 69.999999,69.999999 0 0 1 2.01838,0.266084 69.999999,69.999999 0 0 1 2.01052,0.324178 69.999999,69.999999 0 0 1 1.99978,0.383051 69.999999,69.999999 0 0 1 1.98757,0.440411 69.999999,69.999999 0 0 1 1.97435,0.498431 69.999999,69.999999 0 0 1 1.95891,0.555146 69.999999,69.999999 0 0 1 1.94178,0.612714 69.999999,69.999999 0 0 1 1.92342,0.668329 69.999999,69.999999 0 0 1 1.90316,0.724027 69.999999,69.999999 0 0 1 1.88132,0.77948 69.999999,69.999999 0 0 1 1.85723,0.833581 69.999999,69.999999 0 0 1 1.83295,0.887002 69.999999,69.999999 0 0 1 1.80593,0.940005 69.999999,69.999999 0 0 1 1.77796,0.992554 69.999999,69.999999 0 0 1 5.15024,3.281395 69.999999,69.999999 0 0 1 4.84483,3.717289 69.999999,69.999999 0 0 1 4.50225,4.125729 69.999999,69.999999 0 0 1 4.12611,4.50232 69.999999,69.999999 0 0 1 3.71727,4.844492 69.999999,69.999999 0 0 1 3.28102,5.150524 69.999999,69.999999 0 0 1 2.82007,5.416675 69.999999,69.999999 0 0 1 2.3368,5.641862 69.999999,69.999999 0 0 1 1.83641,5.824384 69.999999,69.999999 0 0 1 1.32162,5.961555 69.999999,69.999999 0 0 1 0.79696,6.054841 69.999999,69.999999 0 0 1 0.26679,6.100823 69.999999,69.999999 0 0 1 -0.26665,6.100742 69.999999,69.999999 0 0 1 -0.79726,6.05456 69.999999,69.999999 0 0 1 -1.32145,5.96197 69.999999,69.999999 0 0 1 -1.83618,5.8241 69.999999,69.999999 0 0 1 -2.33712,5.64169 69.999999,69.999999 0 0 1 -2.81951,5.41688 69.999999,69.999999 0 0 1 -3.28139,5.15023 69.999999,69.999999 0 0 1 -3.71731,4.84486 69.999999,69.999999 0 0 1 -4.12598,4.50268 69.999999,69.999999 0 0 1 -4.50251,4.12536 69.999999,69.999999 0 0 1 -4.84474,3.71775 69.999999,69.999999 0 0 1 -5.15009,3.28127 69.999999,69.999999 0 0 1 -5.41685,2.81938 69.999999,69.999999 0 0 1 -5.64187,2.33681 69.999999,69.999999 0 0 1 -1.03528,0.32659 l 7.19789,18.68134 A 89.999999,89.999999 0 0 0 177.94282,144.99955 89.999999,89.999999 0 0 0 145.00024,22.057431 89.999999,89.999999 0 0 0 65.449513,16.989006 Z" />
    </g>
  </g>
</svg>
