<?xml version="1.0" encoding="UTF-8" standalone="no"?>
<!-- Created with Inkscape (http://www.inkscape.org/) -->

<svg
   width="120mm"
   height="120mm"
   viewBox="0 0 120 120"
   version="1.1"
   id="svg1"
   inkscape:version="1.3.2 (091e20e, 2023-11-25)"
   sodipodi:docname="logo.svg"
   xmlns:inkscape="http://www.inkscape.org/namespaces/inkscape"
   xmlns:sodipodi="http://sodipodi.sourceforge.net/DTD/sodipodi-0.dtd"
   xmlns:xlink="http://www.w3.org/1999/xlink"
   xmlns="http://www.w3.org/2000/svg"
   xmlns:svg="http://www.w3.org/2000/svg">
  <sodipodi:namedview
     id="namedview1"
     pagecolor="#ffffff"
     bordercolor="#000000"
     borderopacity="0.25"
     inkscape:showpageshadow="2"
     inkscape:pageopacity="0.0"
     inkscape:pagecheckerboard="true"
     inkscape:deskcolor="#d1d1d1"
     inkscape:document-units="mm"
     showgrid="false"
     inkscape:zoom="0.5946522"
     inkscape:cx="300.17546"
     inkscape:cy="338.01271"
     inkscape:window-width="1280"
     inkscape:window-height="799"
     inkscape:window-x="0"
     inkscape:window-y="33"
     inkscape:window-maximized="0"
     inkscape:current-layer="layer1">
    <inkscape:grid
       id="grid1"
       units="mm"
       originx="-24.999992"
       originy="-59.999999"
       spacingx="0.99999998"
       spacingy="1"
       empcolor="#0099e5"
       empopacity="0.30196078"
       color="#0099e5"
       opacity="0.14901961"
       empspacing="5"
       dotted="false"
       gridanglex="30"
       gridanglez="30"
       visible="false" />
  </sodipodi:namedview>
  <defs
     id="defs1">
    <linearGradient
       id="linearGradient11"
       inkscape:collect="always">
      <stop
         style="stop-color:#ff3d1e;stop-opacity:1;"
         offset="0"
         id="stop11" />
      <stop
         style="stop-color:#ffb71e;stop-opacity:1;"
         offset="1"
         id="stop12" />
    </linearGradient>
    <linearGradient
       id="linearGradient6"
       inkscape:collect="always">
      <stop
         style="stop-color:#007276;stop-opacity:1;"
         offset="0"
         id="stop6" />
      <stop
         style="stop-color:#004576;stop-opacity:1;"
         offset="1"
         id="stop7" />
    </linearGradient>
    <linearGradient
       inkscape:collect="always"
       xlink:href="#linearGradient6"
       id="linearGradient7"
       x1="50"
       y1="75"
       x2="125"
       y2="165"
       gradientUnits="userSpaceOnUse"
       gradientTransform="matrix(1.0826402,0,0,1.0826402,-7.0244117,-9.9168258)" />
    <linearGradient
       inkscape:collect="always"
       xlink:href="#linearGradient11"
       id="linearGradient10"
       x1="119.31065"
       y1="144.25856"
       x2="48.614861"
       y2="93.60273"
       gradientUnits="userSpaceOnUse"
       gradientTransform="matrix(0.91351725,0,0,0.91351725,7.3510322,10.377922)" />
    <clipPath
       clipPathUnits="userSpaceOnUse"
       id="clipPath13">
      <g
         id="g14">
        <circle
           style="font-variation-settings:normal;vector-effect:none;fill:none;fill-opacity:1;stroke:#000000;stroke-width:0.211717;stroke-linecap:butt;stroke-linejoin:miter;stroke-miterlimit:4;stroke-dasharray:none;stroke-dashoffset:0;stroke-opacity:1;-inkscape-stroke:none;stop-color:#000000"
           id="circle13"
           cx="84.999992"
           cy="120"
           r="59.545204" />
      </g>
    </clipPath>
    <clipPath
       clipPathUnits="userSpaceOnUse"
       id="clipPath14">
      <g
         id="g15">
        <circle
           style="font-variation-settings:normal;vector-effect:none;fill:none;fill-opacity:1;stroke:#000000;stroke-width:0.211717;stroke-linecap:butt;stroke-linejoin:miter;stroke-miterlimit:4;stroke-dasharray:none;stroke-dashoffset:0;stroke-opacity:1;-inkscape-stroke:none;stop-color:#000000"
           id="circle14"
           cx="84.999992"
           cy="120"
           r="59.545204" />
      </g>
    </clipPath>
    <clipPath
       clipPathUnits="userSpaceOnUse"
       id="clipPath15">
      <g
         id="g16">
        <circle
           style="font-variation-settings:normal;vector-effect:none;fill:none;fill-opacity:1;stroke:#000000;stroke-width:0.211717;stroke-linecap:butt;stroke-linejoin:miter;stroke-miterlimit:4;stroke-dasharray:none;stroke-dashoffset:0;stroke-opacity:1;-inkscape-stroke:none;stop-color:#000000"
           id="circle15"
           cx="84.999992"
           cy="120"
           r="59.545204" />
      </g>
    </clipPath>
    <clipPath
       clipPathUnits="userSpaceOnUse"
       id="clipPath16">
      <g
         id="g17">
        <circle
           style="font-variation-settings:normal;vector-effect:none;fill:none;fill-opacity:1;stroke:#000000;stroke-width:0.211717;stroke-linecap:butt;stroke-linejoin:miter;stroke-miterlimit:4;stroke-dasharray:none;stroke-dashoffset:0;stroke-opacity:1;-inkscape-stroke:none;stop-color:#000000"
           id="circle16"
           cx="84.999992"
           cy="120"
           r="59.545204" />
      </g>
    </clipPath>
    <clipPath
       clipPathUnits="userSpaceOnUse"
       id="clipPath17">
      <g
         id="g18">
        <circle
           style="font-variation-settings:normal;vector-effect:none;fill:none;fill-opacity:1;stroke:#000000;stroke-width:0.211717;stroke-linecap:butt;stroke-linejoin:miter;stroke-miterlimit:4;stroke-dasharray:none;stroke-dashoffset:0;stroke-opacity:1;-inkscape-stroke:none;stop-color:#000000"
           id="circle17"
           cx="84.999992"
           cy="120"
           r="59.545204" />
      </g>
    </clipPath>
    <clipPath
       clipPathUnits="userSpaceOnUse"
       id="clipPath18">
      <g
         id="g19">
        <circle
           style="font-variation-settings:normal;vector-effect:none;fill:none;fill-opacity:1;stroke:#000000;stroke-width:0.211717;stroke-linecap:butt;stroke-linejoin:miter;stroke-miterlimit:4;stroke-dasharray:none;stroke-dashoffset:0;stroke-opacity:1;-inkscape-stroke:none;stop-color:#000000"
           id="circle18"
           cx="84.999992"
           cy="120"
           r="59.545204" />
      </g>
    </clipPath>
    <clipPath
       clipPathUnits="userSpaceOnUse"
       id="clipPath19">
      <g
         id="g20">
        <circle
           style="font-variation-settings:normal;vector-effect:none;fill:none;fill-opacity:1;stroke:#000000;stroke-width:0.211717;stroke-linecap:butt;stroke-linejoin:miter;stroke-miterlimit:4;stroke-dasharray:none;stroke-dashoffset:0;stroke-opacity:1;-inkscape-stroke:none;stop-color:#000000"
           id="circle19"
           cx="84.999992"
           cy="120"
           r="59.545204" />
      </g>
    </clipPath>
  </defs>
  <g
     inkscape:label="Layer 1"
     inkscape:groupmode="layer"
     id="layer1"
     transform="translate(-24.999992,-59.999998)">
    <g
       id="g21"
       transform="matrix(1.0076378,0,0,1.0076378,-0.64921505,-0.91653898)">
      <circle
         style="font-variation-settings:normal;vector-effect:none;fill:url(#linearGradient7);fill-opacity:1;stroke-width:0.211717;stroke-linecap:butt;stroke-linejoin:miter;stroke-miterlimit:4;stroke-dasharray:none;stroke-dashoffset:0;stroke-opacity:1;-inkscape-stroke:none;stop-color:#000000"
         id="path3-7-9"
         cx="84.999992"
         cy="120"
         r="59.545204"
         clip-path="url(#clipPath19)" />
      <path
         id="path9"
         style="font-variation-settings:normal;opacity:0.748735;vector-effect:none;fill:#002549;fill-opacity:0.793226;stroke:none;stroke-width:0.196377;stroke-linecap:butt;stroke-linejoin:miter;stroke-miterlimit:4;stroke-dasharray:none;stroke-dashoffset:0;stroke-opacity:1;-inkscape-stroke:none"
         d="M 96.046096,60.273453 A 60.754217,60.754217 0 0 0 84.99998,59.245959 60.754217,60.754217 0 0 0 73.95386,60.386475 V 179.61331 a 60.754217,60.754217 0 0 0 11.04612,1.1411 60.754217,60.754217 0 0 0 11.046116,-1.1411 z"
         clip-path="url(#clipPath18)" />
      <path
         id="path9-5"
         style="font-variation-settings:normal;opacity:0.748735;vector-effect:none;fill:#002549;fill-opacity:0.793226;stroke:none;stroke-width:0.196377;stroke-linecap:butt;stroke-linejoin:miter;stroke-miterlimit:4;stroke-dasharray:none;stroke-dashoffset:0;stroke-opacity:1;-inkscape-stroke:none"
         d="M 101.33776,60.273453 A 60.754217,60.754217 0 0 0 90.291647,59.245959 60.754217,60.754217 0 0 0 79.245527,60.386475 V 179.61331 a 60.754217,60.754217 0 0 0 11.04612,1.1411 60.754217,60.754217 0 0 0 11.046113,-1.1411 z"
         clip-path="url(#clipPath17)" />
      <path
         id="path9-0"
         style="font-variation-settings:normal;opacity:0.247892;vector-effect:none;fill:#0067c9;fill-opacity:0.793226;stroke:none;stroke-width:0.196377;stroke-linecap:butt;stroke-linejoin:miter;stroke-miterlimit:4;stroke-dasharray:none;stroke-dashoffset:0;stroke-opacity:1;-inkscape-stroke:none"
         d="M 90.754429,60.273453 A 60.754217,60.754217 0 0 0 79.708313,59.245959 60.754217,60.754217 0 0 0 68.662193,60.386475 V 179.61331 a 60.754217,60.754217 0 0 0 11.04612,1.1411 60.754217,60.754217 0 0 0 11.046116,-1.1411 z"
         clip-path="url(#clipPath16)" />
      <path
         id="path5"
         style="opacity:0.706577;fill:url(#linearGradient10);fill-opacity:1;stroke-width:0.162402;-inkscape-stroke:none"
         d="m 128.34006,105.613 a 68.513793,68.513793 0 0 0 -43.34008,-15.45472 68.513793,68.513793 0 0 0 -43.299018,15.56095 45.675862,45.675862 0 0 0 -2.37689,14.28068 45.675862,45.675862 0 0 0 2.37689,14.28068 68.513793,68.513793 0 0 0 43.299018,15.56093 68.513793,68.513793 0 0 0 43.29904,-15.56093 45.675862,45.675862 0 0 0 2.37687,-14.28068 45.675862,45.675862 0 0 0 -2.33583,-14.38691 z"
         clip-path="url(#clipPath15)" />
      <path
         id="path5-4"
         style="opacity:0.244519;fill:#ffef1e;fill-opacity:1;stroke-width:0.177777;-inkscape-stroke:none"
         d="M 130.3264,102.13432 A 75,75 0 0 0 82.883312,85.216503 75,75 0 0 0 35.485171,102.25059 a 50,50 0 0 0 -2.601908,15.63264 50,50 0 0 0 2.601908,15.63264 75,75 0 0 0 47.398141,17.0341 75,75 0 0 0 47.398128,-17.0341 50,50 0 0 0 2.60191,-15.63264 50,50 0 0 0 -2.55695,-15.74891 z"
         clip-path="url(#clipPath14)" />
      <path
         id="path5-4-1"
         style="opacity:0.244519;fill:#ffef1e;fill-opacity:1;stroke-width:0.177777;-inkscape-stroke:none"
         d="M 134.55976,106.36768 A 75,75 0 0 0 87.116648,89.449839 75,75 0 0 0 39.718507,106.48395 a 50,50 0 0 0 -2.601908,15.63264 50,50 0 0 0 2.601908,15.63264 75,75 0 0 0 47.398141,17.0341 75,75 0 0 0 47.398152,-17.0341 50,50 0 0 0 2.60191,-15.63264 50,50 0 0 0 -2.55695,-15.74891 z"
         clip-path="url(#clipPath13)" />
    </g>
  </g>
</svg>
