<?xml version="1.0" encoding="UTF-8" standalone="no"?>
<!-- Created with Inkscape (http://www.inkscape.org/) -->

<svg
   width="120mm"
   height="120mm"
   viewBox="0 0 120 120"
   version="1.1"
   id="svg5"
   xmlns:xlink="http://www.w3.org/1999/xlink"
   xmlns="http://www.w3.org/2000/svg"
   xmlns:svg="http://www.w3.org/2000/svg">
  <defs
     id="defs2">
    <linearGradient
       id="linearGradient1770">
      <stop
         style="stop-color:#bbeb8d;stop-opacity:1;"
         offset="0"
         id="stop1766" />
      <stop
         style="stop-color:#55cae1;stop-opacity:1;"
         offset="1"
         id="stop1768" />
    </linearGradient>
    <linearGradient
       xlink:href="#linearGradient1770"
       id="linearGradient1772"
       x1="120"
       y1="160"
       x2="173.37653"
       y2="78.75"
       gradientUnits="userSpaceOnUse" />
    <clipPath
       clipPathUnits="userSpaceOnUse"
       id="clipPath1914">
      <circle
         style="fill:none;fill-opacity:1;stroke:#000000;stroke-width:0.0797441;stroke-opacity:1;-inkscape-stroke:none;stop-color:#000000"
         id="circle1916"
         cx="141"
         cy="121"
         r="37.3801" />
    </clipPath>
  </defs>
  <g
     id="layer1"
     transform="translate(-31.174347,-44.295388)">
    <g
       id="g1899"
       clip-path="url(#clipPath1914)"
       transform="matrix(1.6051321,0,0,1.6051321,-135.14928,-89.925597)">
      <circle
         style="opacity:1;fill:url(#linearGradient1772);fill-opacity:1;stroke-width:0.0901333;-inkscape-stroke:none;stop-color:#000000"
         id="path790"
         cx="141"
         cy="121"
         r="42.25" />
      <path
         style="opacity:0.987395;fill:#e56f00;fill-opacity:0.639595;stroke-width:0.128;-inkscape-stroke:none;stop-color:#000000"
         id="path1230"
         d="M 51.721622,7.3931461 C 62.771621,-27.966852 3.2438385,26.859971 39.391495,18.749552 c 36.147657,-8.110419 -41.0976562,-32.249579 -15.999999,-5 25.097657,27.24958 7.380127,-51.716404 -3.669873,-16.3564055 C 8.6716236,32.753145 68.199406,-22.073678 32.05175,-13.963259 -4.0959071,-5.8528406 73.149406,18.28632 48.051749,-8.9632597 22.954092,-36.212839 40.671622,42.753145 51.721622,7.3931461 Z"
         transform="matrix(-0.73624263,-0.20014675,0.2255649,-0.95933237,165.75997,129.44539)" />
      <path
         style="opacity:0.987395;fill:#e56f00;fill-opacity:0.639595;stroke-width:0.128;-inkscape-stroke:none;stop-color:#000000"
         id="path1230-2"
         d="M 51.721622,7.3931461 C 62.771621,-27.966852 3.2438385,26.859971 39.391495,18.749552 c 36.147657,-8.110419 -41.0976562,-32.249579 -15.999999,-5 25.097657,27.24958 7.380127,-51.716404 -3.669873,-16.3564055 C 8.6716236,32.753145 68.199406,-22.073678 32.05175,-13.963259 -4.0959071,-5.8528406 73.149406,18.28632 48.051749,-8.9632597 22.954092,-36.212839 40.671622,42.753145 51.721622,7.3931461 Z"
         transform="matrix(-0.54145348,0.53753145,-0.71802375,-0.67501112,161.05993,65.372234)" />
      <path
         style="opacity:0.987395;fill:#e56f00;fill-opacity:0.639595;stroke-width:0.128;-inkscape-stroke:none;stop-color:#000000"
         id="path1230-1"
         d="M 51.721622,7.3931461 C 62.771621,-27.966852 3.2438385,26.859971 39.391495,18.749552 c 36.147657,-8.110419 -41.0976562,-32.249579 -15.999999,-5 25.097657,27.24958 7.380127,-51.716404 -3.669873,-16.3564055 C 8.6716236,32.753145 68.199406,-22.073678 32.05175,-13.963259 -4.0959071,-5.8528406 73.149406,18.28632 48.051749,-8.9632597 22.954092,-36.212839 40.671622,42.753145 51.721622,7.3931461 Z"
         transform="matrix(0.19478915,0.73767819,-0.94358865,0.28432125,103.22093,74.447687)" />
      <path
         style="opacity:0.987395;fill:#e56f00;fill-opacity:0.639595;stroke-width:0.128;-inkscape-stroke:none;stop-color:#000000"
         id="path1230-2-4"
         d="M 51.721622,7.3931461 C 62.771621,-27.966852 3.2438385,26.859971 39.391495,18.749552 c 36.147657,-8.110419 -41.0976562,-32.249579 -15.999999,-5 25.097657,27.24958 7.380127,-51.716404 -3.669873,-16.3564055 C 8.6716236,32.753145 68.199406,-22.073678 32.05175,-13.963259 -4.0959071,-5.8528406 73.149406,18.28632 48.051749,-8.9632597 22.954092,-36.212839 40.671622,42.753145 51.721622,7.3931461 Z"
         transform="matrix(0.19478915,0.73767819,-0.94358865,0.28432125,103.22093,111.48936)" />
      <path
         style="opacity:0.987395;fill:#e56f00;fill-opacity:0.639595;stroke-width:0.128;-inkscape-stroke:none;stop-color:#000000"
         id="path1230-1-7"
         d="M 51.721622,7.3931461 C 62.771621,-27.966852 3.2438385,26.859971 39.391495,18.749552 c 36.147657,-8.110419 -41.0976562,-32.249579 -15.999999,-5 25.097657,27.24958 7.380127,-51.716404 -3.669873,-16.3564055 C 8.6716236,32.753145 68.199406,-22.073678 32.05175,-13.963259 -4.0959071,-5.8528406 73.149406,18.28632 48.051749,-8.9632597 22.954092,-36.212839 40.671622,42.753145 51.721622,7.3931461 Z"
         transform="matrix(0.19478915,0.73767819,-0.94358865,0.28432125,135.29996,130.01019)" />
      <path
         style="opacity:0.987395;fill:#e56f00;fill-opacity:0.639595;stroke-width:0.128;-inkscape-stroke:none;stop-color:#000000"
         id="path1230-2-4-5"
         d="M 51.721622,7.3931461 C 62.771621,-27.966852 3.2438385,26.859971 39.391495,18.749552 c 36.147657,-8.110419 -41.0976562,-32.249579 -15.999999,-5 25.097657,27.24958 7.380127,-51.716404 -3.669873,-16.3564055 C 8.6716236,32.753145 68.199406,-22.073678 32.05175,-13.963259 -4.0959071,-5.8528406 73.149406,18.28632 48.051749,-8.9632597 22.954092,-36.212839 40.671622,42.753145 51.721622,7.3931461 Z"
         transform="matrix(-0.54145348,0.53753145,-0.71802375,-0.67501112,193.13896,120.93474)" />
      <path
         style="opacity:0.987395;fill:#e56f00;fill-opacity:0.639595;stroke-width:0.128;-inkscape-stroke:none;stop-color:#000000"
         id="path1230-1-7-0"
         d="M 51.721622,7.3931461 C 62.771621,-27.966852 3.2438385,26.859971 39.391495,18.749552 c 36.147657,-8.110419 -41.0976562,-32.249579 -15.999999,-5 25.097657,27.24958 7.380127,-51.716404 -3.669873,-16.3564055 C 8.6716236,32.753145 68.199406,-22.073678 32.05175,-13.963259 -4.0959071,-5.8528406 73.149406,18.28632 48.051749,-8.9632597 22.954092,-36.212839 40.671622,42.753145 51.721622,7.3931461 Z"
         transform="matrix(-0.54145348,0.53753145,-0.71802375,-0.67501112,193.13896,83.893066)" />
      <path
         style="opacity:0.987395;fill:#e50049;fill-opacity:0.639595;stroke-width:0.128;-inkscape-stroke:none;stop-color:#000000"
         id="path1230-6"
         d="M 51.721622,7.3931461 C 62.771621,-27.966852 3.2438385,26.859971 39.391495,18.749552 c 36.147657,-8.110419 -41.0976562,-32.249579 -15.999999,-5 25.097657,27.24958 7.380127,-51.716404 -3.669873,-16.3564055 C 8.6716236,32.753145 68.199406,-22.073678 32.05175,-13.963259 -4.0959071,-5.8528406 73.149406,18.28632 48.051749,-8.9632597 22.954092,-36.212839 40.671622,42.753145 51.721622,7.3931461 Z"
         transform="matrix(-0.54145348,0.53753145,-0.71802375,-0.67501112,161.05993,102.41391)" />
      <path
         style="opacity:0.987395;fill:#e50049;fill-opacity:0.639595;stroke-width:0.128;-inkscape-stroke:none;stop-color:#000000"
         id="path1230-2-5"
         d="M 51.721622,7.3931461 C 62.771621,-27.966852 3.2438385,26.859971 39.391495,18.749552 c 36.147657,-8.110419 -41.0976562,-32.249579 -15.999999,-5 25.097657,27.24958 7.380127,-51.716404 -3.669873,-16.3564055 C 8.6716236,32.753145 68.199406,-22.073678 32.05175,-13.963259 -4.0959071,-5.8528406 73.149406,18.28632 48.051749,-8.9632597 22.954092,-36.212839 40.671622,42.753145 51.721622,7.3931461 Z"
         transform="matrix(0.19478915,0.73767819,-0.94358865,0.28432125,135.29996,55.926845)" />
      <path
         style="opacity:0.987395;fill:#e50049;fill-opacity:0.639595;stroke-width:0.128;-inkscape-stroke:none;stop-color:#000000"
         id="path1230-1-6"
         d="M 51.721622,7.3931461 C 62.771621,-27.966852 3.2438385,26.859971 39.391495,18.749552 c 36.147657,-8.110419 -41.0976562,-32.249579 -15.999999,-5 25.097657,27.24958 7.380127,-51.716404 -3.669873,-16.3564055 C 8.6716236,32.753145 68.199406,-22.073678 32.05175,-13.963259 -4.0959071,-5.8528406 73.149406,18.28632 48.051749,-8.9632597 22.954092,-36.212839 40.671622,42.753145 51.721622,7.3931461 Z"
         transform="matrix(0.73624263,0.20014674,-0.2255649,0.95933237,82.160997,92.033782)" />
      <path
         style="opacity:0.987395;fill:#e50049;fill-opacity:0.639595;stroke-width:0.128;-inkscape-stroke:none;stop-color:#000000"
         id="path1230-2-4-9"
         d="M 51.721622,7.3931461 C 62.771621,-27.966852 3.2438385,26.859971 39.391495,18.749552 c 36.147657,-8.110419 -41.0976562,-32.249579 -15.999999,-5 25.097657,27.24958 7.380127,-51.716404 -3.669873,-16.3564055 C 8.6716236,32.753145 68.199406,-22.073678 32.05175,-13.963259 -4.0959071,-5.8528406 73.149406,18.28632 48.051749,-8.9632597 22.954092,-36.212839 40.671622,42.753145 51.721622,7.3931461 Z"
         transform="matrix(0.73624263,0.20014674,-0.2255649,0.95933237,82.160997,129.07546)" />
      <path
         style="opacity:0.987395;fill:#e50049;fill-opacity:0.639595;stroke-width:0.128;-inkscape-stroke:none;stop-color:#000000"
         id="path1230-1-7-3"
         d="M 51.721622,7.3931461 C 62.771621,-27.966852 3.2438385,26.859971 39.391495,18.749552 c 36.147657,-8.110419 -41.0976562,-32.249579 -15.999999,-5 25.097657,27.24958 7.380127,-51.716404 -3.669873,-16.3564055 C 8.6716236,32.753145 68.199406,-22.073678 32.05175,-13.963259 -4.0959071,-5.8528406 73.149406,18.28632 48.051749,-8.9632597 22.954092,-36.212839 40.671622,42.753145 51.721622,7.3931461 Z"
         transform="matrix(0.73624263,0.20014674,-0.2255649,0.95933237,114.24003,147.59629)" />
      <path
         style="opacity:0.987395;fill:#e50049;fill-opacity:0.639595;stroke-width:0.128;-inkscape-stroke:none;stop-color:#000000"
         id="path1230-2-4-5-7"
         d="M 51.721622,7.3931461 C 62.771621,-27.966852 3.2438385,26.859971 39.391495,18.749552 c 36.147657,-8.110419 -41.0976562,-32.249579 -15.999999,-5 25.097657,27.24958 7.380127,-51.716404 -3.669873,-16.3564055 C 8.6716236,32.753145 68.199406,-22.073678 32.05175,-13.963259 -4.0959071,-5.8528406 73.149406,18.28632 48.051749,-8.9632597 22.954092,-36.212839 40.671622,42.753145 51.721622,7.3931461 Z"
         transform="matrix(0.19478915,0.73767819,-0.94358865,0.28432125,167.37899,111.48935)" />
      <path
         style="opacity:0.987395;fill:#e50049;fill-opacity:0.639595;stroke-width:0.128;-inkscape-stroke:none;stop-color:#000000"
         id="path1230-1-7-0-4"
         d="M 51.721622,7.3931461 C 62.771621,-27.966852 3.2438385,26.859971 39.391495,18.749552 c 36.147657,-8.110419 -41.0976562,-32.249579 -15.999999,-5 25.097657,27.24958 7.380127,-51.716404 -3.669873,-16.3564055 C 8.6716236,32.753145 68.199406,-22.073678 32.05175,-13.963259 -4.0959071,-5.8528406 73.149406,18.28632 48.051749,-8.9632597 22.954092,-36.212839 40.671622,42.753145 51.721622,7.3931461 Z"
         transform="matrix(0.19478915,0.73767819,-0.94358865,0.28432125,167.37899,74.447677)" />
      <path
         style="opacity:0.987395;fill:#fffe67;fill-opacity:0.639595;stroke-width:0.128;-inkscape-stroke:none;stop-color:#000000"
         id="path1230-6-5"
         d="M 51.721622,7.3931461 C 62.771621,-27.966852 3.2438385,26.859971 39.391495,18.749552 c 36.147657,-8.110419 -41.0976562,-32.249579 -15.999999,-5 25.097657,27.24958 7.380127,-51.716404 -3.669873,-16.3564055 C 8.6716236,32.753145 68.199406,-22.073678 32.05175,-13.963259 -4.0959071,-5.8528406 73.149406,18.28632 48.051749,-8.9632597 22.954092,-36.212839 40.671622,42.753145 51.721622,7.3931461 Z"
         transform="matrix(0.19478915,0.73767819,-0.94358865,0.28432125,135.29996,92.968521)" />
      <path
         style="opacity:0.987395;fill:#fffe67;fill-opacity:0.639595;stroke-width:0.128;-inkscape-stroke:none;stop-color:#000000"
         id="path1230-2-5-2"
         d="M 51.721622,7.3931461 C 62.771621,-27.966852 3.2438385,26.859971 39.391495,18.749552 c 36.147657,-8.110419 -41.0976562,-32.249579 -15.999999,-5 25.097657,27.24958 7.380127,-51.716404 -3.669873,-16.3564055 C 8.6716236,32.753145 68.199406,-22.073678 32.05175,-13.963259 -4.0959071,-5.8528406 73.149406,18.28632 48.051749,-8.9632597 22.954092,-36.212839 40.671622,42.753145 51.721622,7.3931461 Z"
         transform="matrix(0.73624263,0.20014674,-0.2255649,0.95933237,114.24003,73.51294)" />
      <path
         style="opacity:0.987395;fill:#fffe67;fill-opacity:0.639595;stroke-width:0.128;-inkscape-stroke:none;stop-color:#000000"
         id="path1230-1-6-5"
         d="M 51.721622,7.3931461 C 62.771621,-27.966852 3.2438385,26.859971 39.391495,18.749552 c 36.147657,-8.110419 -41.0976562,-32.249579 -15.999999,-5 25.097657,27.24958 7.380127,-51.716404 -3.669873,-16.3564055 C 8.6716236,32.753145 68.199406,-22.073678 32.05175,-13.963259 -4.0959071,-5.8528406 73.149406,18.28632 48.051749,-8.9632597 22.954092,-36.212839 40.671622,42.753145 51.721622,7.3931461 Z"
         transform="matrix(0.54145348,-0.53753145,0.71802375,0.67501112,86.861036,119.06527)" />
      <path
         style="opacity:0.987395;fill:#fffe67;fill-opacity:0.639595;stroke-width:0.128;-inkscape-stroke:none;stop-color:#000000"
         id="path1230-2-4-9-4"
         d="M 51.721622,7.3931461 C 62.771621,-27.966852 3.2438385,26.859971 39.391495,18.749552 c 36.147657,-8.110419 -41.0976562,-32.249579 -15.999999,-5 25.097657,27.24958 7.380127,-51.716404 -3.669873,-16.3564055 C 8.6716236,32.753145 68.199406,-22.073678 32.05175,-13.963259 -4.0959071,-5.8528406 73.149406,18.28632 48.051749,-8.9632597 22.954092,-36.212839 40.671622,42.753145 51.721622,7.3931461 Z"
         transform="matrix(0.54145348,-0.53753145,0.71802375,0.67501112,86.861036,156.10694)" />
      <path
         style="opacity:0.987395;fill:#fffe67;fill-opacity:0.639595;stroke-width:0.128;-inkscape-stroke:none;stop-color:#000000"
         id="path1230-1-7-3-7"
         d="M 51.721622,7.3931461 C 62.771621,-27.966852 3.2438385,26.859971 39.391495,18.749552 c 36.147657,-8.110419 -41.0976562,-32.249579 -15.999999,-5 25.097657,27.24958 7.380127,-51.716404 -3.669873,-16.3564055 C 8.6716236,32.753145 68.199406,-22.073678 32.05175,-13.963259 -4.0959071,-5.8528406 73.149406,18.28632 48.051749,-8.9632597 22.954092,-36.212839 40.671622,42.753145 51.721622,7.3931461 Z"
         transform="matrix(0.54145348,-0.53753145,0.71802375,0.67501112,118.94007,174.62777)" />
      <path
         style="opacity:0.987395;fill:#fffe67;fill-opacity:0.639595;stroke-width:0.128;-inkscape-stroke:none;stop-color:#000000"
         id="path1230-2-4-5-7-4"
         d="M 51.721622,7.3931461 C 62.771621,-27.966852 3.2438385,26.859971 39.391495,18.749552 c 36.147657,-8.110419 -41.0976562,-32.249579 -15.999999,-5 25.097657,27.24958 7.380127,-51.716404 -3.669873,-16.3564055 C 8.6716236,32.753145 68.199406,-22.073678 32.05175,-13.963259 -4.0959071,-5.8528406 73.149406,18.28632 48.051749,-8.9632597 22.954092,-36.212839 40.671622,42.753145 51.721622,7.3931461 Z"
         transform="matrix(0.73624263,0.20014674,-0.2255649,0.95933237,146.31906,129.07545)" />
      <path
         style="opacity:0.987395;fill:#fffe67;fill-opacity:0.639595;stroke-width:0.128;-inkscape-stroke:none;stop-color:#000000"
         id="path1230-1-7-0-4-4"
         d="M 51.721622,7.3931461 C 62.771621,-27.966852 3.2438385,26.859971 39.391495,18.749552 c 36.147657,-8.110419 -41.0976562,-32.249579 -15.999999,-5 25.097657,27.24958 7.380127,-51.716404 -3.669873,-16.3564055 C 8.6716236,32.753145 68.199406,-22.073678 32.05175,-13.963259 -4.0959071,-5.8528406 73.149406,18.28632 48.051749,-8.9632597 22.954092,-36.212839 40.671622,42.753145 51.721622,7.3931461 Z"
         transform="matrix(0.73624263,0.20014674,-0.2255649,0.95933237,146.31906,92.033772)" />
    </g>
  </g>
</svg>
