<?xml version="1.0" encoding="UTF-8" standalone="no"?>
<svg
   xmlns:dc="http://purl.org/dc/elements/1.1/"
   xmlns:cc="http://creativecommons.org/ns#"
   xmlns:rdf="http://www.w3.org/1999/02/22-rdf-syntax-ns#"
   xmlns:svg="http://www.w3.org/2000/svg"
   xmlns="http://www.w3.org/2000/svg"
   xmlns:xlink="http://www.w3.org/1999/xlink"
   xmlns:sodipodi="http://sodipodi.sourceforge.net/DTD/sodipodi-0.dtd"
   xmlns:inkscape="http://www.inkscape.org/namespaces/inkscape"
   sodipodi:docname="logo.svg"
   inkscape:version="1.0 (4035a4fb49, 2020-05-01)"
   id="svg8"
   version="1.1"
   viewBox="0 0 120 119.99999"
   height="119.99999mm"
   width="120mm">
  <defs
     id="defs2">
    <linearGradient
       inkscape:collect="always"
       id="linearGradient1047">
      <stop
         style="stop-color:#00758e;stop-opacity:1"
         offset="0"
         id="stop1043" />
      <stop
         style="stop-color:#005974;stop-opacity:1"
         offset="1"
         id="stop1045" />
    </linearGradient>
    <linearGradient
       id="linearGradient1037"
       inkscape:collect="always">
      <stop
         id="stop1033"
         offset="0"
         style="stop-color:#000000;stop-opacity:1;" />
      <stop
         id="stop1035"
         offset="1"
         style="stop-color:#000000;stop-opacity:0.4858921" />
    </linearGradient>
    <radialGradient
       gradientUnits="userSpaceOnUse"
       gradientTransform="matrix(0.46503859,0.04351024,-0.02160313,0.23091536,-348.68617,-6.164337)"
       r="178.13965"
       fy="249.99338"
       fx="947.08661"
       cy="249.99338"
       cx="947.08661"
       id="radialGradient1039"
       xlink:href="#linearGradient1037"
       inkscape:collect="always" />
    <radialGradient
       gradientTransform="matrix(-0.11388224,1.7688938,-0.997934,-0.06424748,187.70208,-378.82524)"
       gradientUnits="userSpaceOnUse"
       r="59.946609"
       fy="58.662903"
       fx="263.40189"
       cy="58.662903"
       cx="263.40189"
       id="radialGradient1041"
       xlink:href="#linearGradient1047"
       inkscape:collect="always" />
  </defs>
  <sodipodi:namedview
     inkscape:window-maximized="1"
     inkscape:window-y="23"
     inkscape:window-x="0"
     inkscape:window-height="2977"
     inkscape:window-width="4500"
     inkscape:pagecheckerboard="true"
     fit-margin-bottom="0"
     fit-margin-right="0"
     fit-margin-left="0"
     fit-margin-top="0"
     showgrid="false"
     inkscape:document-rotation="0"
     inkscape:current-layer="layer1"
     inkscape:document-units="mm"
     inkscape:cy="268.95658"
     inkscape:cx="459.40416"
     inkscape:zoom="0.7"
     inkscape:pageshadow="2"
     inkscape:pageopacity="0.0"
     borderopacity="1.0"
     bordercolor="#666666"
     pagecolor="#ffffff"
     id="base" />
  <metadata
     id="metadata5">
    <rdf:RDF>
      <cc:Work
         rdf:about="">
        <dc:format>image/svg+xml</dc:format>
        <dc:type
           rdf:resource="http://purl.org/dc/dcmitype/StillImage" />
        <dc:title></dc:title>
      </cc:Work>
    </rdf:RDF>
  </metadata>
  <g
     transform="translate(-48.540974,-71.659849)"
     id="layer1"
     inkscape:groupmode="layer"
     inkscape:label="Layer 1">
    <g
       transform="matrix(1.0008897,0,0,1.0008906,-0.09656696,-0.11726077)"
       id="g1126">
      <circle
         style="fill:url(#radialGradient1041);fill-opacity:1;stroke:none;stroke-width:0.101;stroke-linecap:round;stroke-linejoin:bevel;stroke-dashoffset:0.907087"
         id="path925"
         cx="108.54092"
         cy="131.65985"
         r="59.946609" />
      <path
         id="path1030"
         style="opacity:0.241087;fill:#8ae6ff;fill-opacity:1;stroke:none;stroke-width:0.101;stroke-linecap:round;stroke-linejoin:bevel;stroke-dashoffset:0.907087"
         d="m 114.21239,71.982122 c 0.89995,0.205603 1.84089,0.384702 2.68666,0.625285 1.55003,0.440915 3.00982,0.939794 4.38216,1.493967 1.37234,0.554172 2.65747,1.16378 3.85765,1.825728 0.60007,0.330973 1.17877,0.675087 1.73683,1.031978 0.55809,0.356889 1.09556,0.72634 1.61232,1.108459 0.51676,0.382119 1.01266,0.776727 1.48878,1.183391 0.47615,0.406665 0.93221,0.825212 1.3684,1.255736 0.43619,0.430525 0.85259,0.872837 1.24955,1.326534 0.39693,0.453697 0.77435,0.919078 1.13273,1.395264 0.71676,0.952371 1.35726,1.949201 1.92392,2.987416 0.56666,1.038212 1.0595,2.117923 1.48156,3.236494 0.42206,1.118569 0.77327,2.275597 1.05627,3.46904 0.283,1.19344 0.49805,2.423247 0.64752,3.686079 0.14943,1.26283 0.23333,2.558812 0.25476,3.885547 0.0214,1.32674 -0.0198,2.68385 -0.12094,4.06901 -0.1011,1.38516 -0.26196,2.79833 -0.48006,4.23643 -0.21809,1.4381 -0.49363,2.90126 -0.82322,4.38681 -0.32957,1.48556 -0.71321,2.99365 -1.14874,4.52117 -0.43556,1.52753 -0.92284,3.07447 -1.45884,4.63848 -0.53599,1.56401 -1.12091,3.14526 -1.75183,4.74028 -0.63093,1.59501 -1.30797,3.20397 -2.0283,4.82451 -0.72035,1.62054 -1.48402,3.25215 -2.28825,4.89273 -0.80422,1.64057 -1.64901,3.28979 -2.53161,4.94491 -0.88262,1.65513 -1.80303,3.31638 -2.75849,4.98058 -0.95546,1.66419 -1.94601,3.3314 -2.96881,4.99918 -1.02283,1.66777 -2.07796,3.33639 -3.16259,5.00227 -1.08466,1.66588 -2.1989,3.32931 -3.33986,4.98781 -1.14094,1.6585 -2.30831,3.31169 -3.50004,4.95732 -1.19174,1.64563 -2.40771,3.28353 -3.64475,4.91081 -1.237,1.62729 -2.49507,3.24432 -3.77184,4.84777 -1.2768,1.60345 -2.57196,3.19353 -3.882983,4.76767 -1.311015,1.57413 -2.637795,3.13221 -3.977534,4.67155 -1.029356,1.1827 -2.072658,2.34332 -3.11609,3.50262 a 59.946613,59.946613 0 0 0 16.204187,2.23139 59.946613,59.946613 0 0 0 59.94673,-59.94672 59.946613,59.946613 0 0 0 -54.27525,-59.677498 z" />
      <path
         id="path959"
         style="opacity:0.750893;fill:url(#radialGradient1039);fill-opacity:1;stroke:none;stroke-width:0.101;stroke-linecap:round;stroke-linejoin:bevel;stroke-dashoffset:0.907087"
         d="m 61.408379,94.617951 a 59.946616,59.946616 0 0 0 0.195852,0.248563 59.946616,59.946616 0 0 0 0.209291,0.261998 59.946616,59.946616 0 0 0 0.210323,0.260451 59.946616,59.946616 0 0 0 0.211873,0.258897 59.946616,59.946616 0 0 0 0.213423,0.258384 59.946616,59.946616 0 0 0 0.214974,0.256831 59.946616,59.946616 0 0 0 0.216525,0.2558 59.946616,59.946616 0 0 0 0.217559,0.254246 59.946616,59.946616 0 0 0 0.219106,0.253214 59.946616,59.946616 0 0 0 0.22066,0.252182 59.946616,59.946616 0 0 0 0.221692,0.250632 59.946616,59.946616 0 0 0 0.223242,0.249595 59.946616,59.946616 0 0 0 0.224793,0.248565 59.946616,59.946616 0 0 0 0.226343,0.247012 59.946616,59.946616 0 0 0 0.227375,0.245465 59.946616,59.946616 0 0 0 0.228928,0.244427 59.946616,59.946616 0 0 0 0.22996,0.243399 59.946616,59.946616 0 0 0 0.23151,0.241845 59.946616,59.946616 0 0 0 0.233061,0.24081 59.946616,59.946616 0 0 0 0.234611,0.239263 59.946616,59.946616 0 0 0 0.235128,0.238228 59.946616,59.946616 0 0 0 0.237193,0.236682 59.946616,59.946616 0 0 0 0.238229,0.23513 59.946616,59.946616 0 0 0 0.239262,0.23409 59.946616,59.946616 0 0 0 0.241329,0.23254 59.946616,59.946616 0 0 0 0.241845,0.23151 59.946616,59.946616 0 0 0 0.243396,0.22996 59.946616,59.946616 0 0 0 0.244946,0.22841 59.946616,59.946616 0 0 0 0.24598,0.22738 59.946616,59.946616 0 0 0 0.247015,0.22583 59.946616,59.946616 0 0 0 0.248563,0.22427 59.946616,59.946616 0 0 0 0.250113,0.22324 59.946616,59.946616 0 0 0 0.250632,0.2217 59.946616,59.946616 0 0 0 0.25218,0.22014 59.946616,59.946616 0 0 0 0.253733,0.2191 59.946616,59.946616 0 0 0 0.254764,0.21756 59.946616,59.946616 0 0 0 0.255797,0.21601 59.946616,59.946616 0 0 0 0.256834,0.21446 59.946616,59.946616 0 0 0 0.258381,0.21342 59.946616,59.946616 0 0 0 0.259416,0.21136 59.946616,59.946616 0 0 0 0.260966,0.21032 59.946616,59.946616 0 0 0 0.261999,0.20877 59.946616,59.946616 0 0 0 0.262517,0.20723 59.946616,59.946616 0 0 0 0.264583,0.20618 59.946616,59.946616 0 0 0 0.265099,0.20413 59.946616,59.946616 0 0 0 0.26665,0.20309 59.946616,59.946616 0 0 0 0.267168,0.20153 59.946616,59.946616 0 0 0 0.268717,0.19947 59.946616,59.946616 0 0 0 0.269753,0.19844 59.946616,59.946616 0 0 0 0.271301,0.19689 59.946616,59.946616 0 0 0 0.271817,0.19533 59.946616,59.946616 0 0 0 0.272852,0.19431 59.946616,59.946616 0 0 0 0.274402,0.19223 59.946616,59.946616 0 0 0 0.275436,0.19069 59.946616,59.946616 0 0 0 0.27595,0.18914 59.946616,59.946616 0 0 0 0.277503,0.18758 59.946616,59.946616 0 0 0 0.278537,0.18655 59.946616,59.946616 0 0 0 0.279051,0.18449 59.946616,59.946616 0 0 0 0.280604,0.18293 59.946616,59.946616 0 0 0 0.281636,0.18139 59.946616,59.946616 0 0 0 0.282154,0.17983 59.946616,59.946616 0 0 0 0.283705,0.17829 59.946616,59.946616 0 0 0 0.284218,0.17673 59.946616,59.946616 0 0 0 0.285771,0.17518 59.946616,59.946616 0 0 0 0.286287,0.17363 59.946616,59.946616 0 0 0 0.287322,0.17209 59.946616,59.946616 0 0 0 0.288356,0.17001 59.946616,59.946616 0 0 0 0.289385,0.16898 59.946616,59.946616 0 0 0 0.290423,0.16692 59.946616,59.946616 0 0 0 0.290938,0.16536 59.946616,59.946616 0 0 0 0.291973,0.16382 59.946616,59.946616 0 0 0 0.293005,0.16226 59.946616,59.946616 0 0 0 0.294039,0.16072 59.946616,59.946616 0 0 0 0.295072,0.15864 59.946616,59.946616 0 0 0 0.29559,0.1571 59.946616,59.946616 0 0 0 0.296621,0.15606 59.946616,59.946616 0 0 0 0.297141,0.154 59.946616,59.946616 0 0 0 0.298172,0.15193 59.946616,59.946616 0 0 0 0.299206,0.15089 59.946616,59.946616 0 0 0 0.300242,0.14883 59.946616,59.946616 0 0 0 0.300757,0.14728 59.946616,59.946616 0 0 0 0.301273,0.14572 59.946616,59.946616 0 0 0 0.302308,0.14367 59.946616,59.946616 0 0 0 0.303339,0.14211 59.946616,59.946616 0 0 0 0.303858,0.14056 59.946616,59.946616 0 0 0 0.30489,0.139 59.946616,59.946616 0 0 0 0.305409,0.13695 59.946616,59.946616 0 0 0 0.30644,0.13539 59.946616,59.946616 0 0 0 0.306959,0.13384 59.946616,59.946616 0 0 0 0.307991,0.13178 59.946616,59.946616 0 0 0 0.308509,0.13022 59.946616,59.946616 0 0 0 0.309023,0.12868 59.946616,59.946616 0 0 0 0.31006,0.1266 59.946616,59.946616 0 0 0 0.310576,0.12506 59.946616,59.946616 0 0 0 0.311608,0.12351 59.946616,59.946616 0 0 0 0.312126,0.12144 59.946616,59.946616 0 0 0 0.312642,0.11989 59.946616,59.946616 0 0 0 0.313158,0.11782 59.946616,59.946616 0 0 0 0.314193,0.11627 59.946616,59.946616 0 0 0 0.314711,0.11472 59.946616,59.946616 0 0 0 0.315225,0.11266 59.946616,59.946616 0 0 0 0.316262,0.1111 59.946616,59.946616 0 0 0 0.316259,0.10956 59.946616,59.946616 0 0 0 0.317293,0.10748 59.946616,59.946616 0 0 0 0.31781,0.10542 59.946616,59.946616 0 0 0 0.318325,0.10439 59.946616,59.946616 0 0 0 0.318845,0.1018 59.946616,59.946616 0 0 0 0.31936,0.10077 59.946616,59.946616 0 0 0 0.320394,0.0982 59.946616,59.946616 0 0 0 0.320395,0.0972 59.946616,59.946616 0 0 0 0.32091,0.0951 59.946616,59.946616 0 0 0 0.321945,0.093 59.946616,59.946616 0 0 0 0.321942,0.0915 59.946616,59.946616 0 0 0 0.32298,0.0894 59.946616,59.946616 0 0 0 0.322977,0.0879 59.946616,59.946616 0 0 0 0.323493,0.0863 59.946616,59.946616 0 0 0 0.32453,0.0842 59.946616,59.946616 0 0 0 0.324527,0.0822 59.946616,59.946616 0 0 0 0.325046,0.0806 59.946616,59.946616 0 0 0 0.325559,0.0791 59.946616,59.946616 0 0 0 0.325562,0.077 59.946616,59.946616 0 0 0 0.326596,0.0749 59.946616,59.946616 0 0 0 0.326594,0.0734 59.946616,59.946616 0 0 0 0.327112,0.0713 59.946616,59.946616 0 0 0 0.327629,0.0698 59.946616,59.946616 0 0 0 0.328146,0.0677 59.946616,59.946616 0 0 0 0.328145,0.0661 59.946616,59.946616 0 0 0 0.328662,0.0641 59.946616,59.946616 0 0 0 0.329179,0.0625 59.946616,59.946616 0 0 0 0.329179,0.0605 59.946616,59.946616 0 0 0 0.330213,0.0584 59.946616,59.946616 0 0 0 0.329695,0.0568 59.946616,59.946616 0 0 0 0.330213,0.0548 59.946616,59.946616 0 0 0 0.330729,0.0532 59.946616,59.946616 0 0 0 0.331245,0.0512 59.946616,59.946616 0 0 0 0.331245,0.0496 59.946616,59.946616 0 0 0 0.331252,0.0475 59.946616,59.946616 0 0 0 0.33177,0.0455 59.946616,59.946616 0 0 0 0.33226,0.0439 59.946616,59.946616 0 0 0 0.33229,0.0419 59.946616,59.946616 0 0 0 0.33227,0.0403 59.946616,59.946616 0 0 0 0.33279,0.0382 59.946616,59.946616 0 0 0 0.33282,0.0362 59.946616,59.946616 0 0 0 0.3333,0.0346 59.946616,59.946616 0 0 0 0.33332,0.0326 59.946616,59.946616 0 0 0 0.33332,0.031 59.946616,59.946616 0 0 0 0.33382,0.0289 59.946616,59.946616 0 0 0 0.3333,0.0274 59.946616,59.946616 0 0 0 0.33435,0.0248 59.946616,59.946616 0 0 0 0.33383,0.0238 59.946616,59.946616 0 0 0 0.33435,0.0212 59.946616,59.946616 0 0 0 0.33436,0.0196 59.946616,59.946616 0 0 0 0.33432,0.0181 59.946616,59.946616 0 0 0 0.33436,0.0155 59.946616,59.946616 0 0 0 0.33486,0.0145 59.946616,59.946616 0 0 0 0.33435,0.0119 59.946616,59.946616 0 0 0 0.33486,0.0104 59.946616,59.946616 0 0 0 0.33488,0.008 59.946616,59.946616 0 0 0 0.33486,0.007 59.946616,59.946616 0 0 0 0.33485,0.005 59.946616,59.946616 0 0 0 0.33486,0.003 59.946616,59.946616 0 0 0 0.33488,0.001 59.946616,59.946616 0 0 0 0.0589,0 59.946616,59.946616 0 0 0 0.33485,-0.001 59.946616,59.946616 0 0 0 0.33489,-0.003 59.946616,59.946616 0 0 0 0.33485,-0.005 59.946616,59.946616 0 0 0 0.33486,-0.007 59.946616,59.946616 0 0 0 0.33486,-0.009 59.946616,59.946616 0 0 0 0.33488,-0.0109 59.946616,59.946616 0 0 0 0.33433,-0.0124 59.946616,59.946616 0 0 0 0.33488,-0.0145 59.946616,59.946616 0 0 0 0.33433,-0.016 59.946616,59.946616 0 0 0 0.33435,-0.0181 59.946616,59.946616 0 0 0 0.33436,-0.0202 59.946616,59.946616 0 0 0 0.33435,-0.0217 59.946616,59.946616 0 0 0 0.33383,-0.0238 59.946616,59.946616 0 0 0 0.33382,-0.0253 59.946616,59.946616 0 0 0 0.33383,-0.0274 59.946616,59.946616 0 0 0 0.33382,-0.0295 59.946616,59.946616 0 0 0 0.33332,-0.031 59.946616,59.946616 0 0 0 0.33332,-0.0331 59.946616,59.946616 0 0 0 0.3333,-0.0351 59.946616,59.946616 0 0 0 0.33279,-0.0367 59.946616,59.946616 0 0 0 0.33229,-0.0387 59.946616,59.946616 0 0 0 0.3328,-0.0403 59.946616,59.946616 0 0 0 0.33229,-0.0424 59.946616,59.946616 0 0 0 0.33176,-0.0439 59.946616,59.946616 0 0 0 0.33176,-0.046 59.946616,59.946616 0 0 0 0.33123,-0.0481 59.946616,59.946616 0 0 0 0.33126,-0.0496 59.946616,59.946616 0 0 0 0.33073,-0.0517 59.946616,59.946616 0 0 0 0.33073,-0.0532 59.946616,59.946616 0 0 0 0.3302,-0.0553 59.946616,59.946616 0 0 0 0.33022,-0.0574 59.946616,59.946616 0 0 0 0.3297,-0.0589 59.946616,59.946616 0 0 0 0.32917,-0.0605 59.946616,59.946616 0 0 0 0.32919,-0.0631 59.946616,59.946616 0 0 0 0.32864,-0.0641 59.946616,59.946616 0 0 0 0.32816,-0.0667 59.946616,59.946616 0 0 0 0.32764,-0.0682 59.946616,59.946616 0 0 0 0.32761,-0.0698 59.946616,59.946616 0 0 0 0.32713,-0.0718 59.946616,59.946616 0 0 0 0.32657,-0.0734 59.946616,59.946616 0 0 0 0.3266,-0.0755 59.946616,59.946616 0 0 0 0.32557,-0.0775 59.946616,59.946616 0 0 0 0.32557,-0.0791 59.946616,59.946616 0 0 0 0.32504,-0.0811 59.946616,59.946616 0 0 0 0.32451,-0.0827 59.946616,59.946616 0 0 0 0.32401,-0.0842 59.946616,59.946616 0 0 0 0.32351,-0.0863 59.946616,59.946616 0 0 0 0.32298,-0.0884 59.946616,59.946616 0 0 0 0.32297,-0.0899 59.946616,59.946616 0 0 0 0.32195,-0.0915 59.946616,59.946616 0 0 0 0.32141,-0.0935 59.946616,59.946616 0 0 0 0.32092,-0.0956 59.946616,59.946616 0 0 0 0.32091,-0.0971 59.946616,59.946616 0 0 0 0.31988,-0.0987 59.946616,59.946616 0 0 0 0.31935,-0.10077 59.946616,59.946616 0 0 0 0.31885,-0.10284 59.946616,59.946616 0 0 0 0.31832,-0.10387 59.946616,59.946616 0 0 0 0.31732,-0.10645 59.946616,59.946616 0 0 0 0.31729,-0.10748 59.946616,59.946616 0 0 0 0.31625,-0.10956 59.946616,59.946616 0 0 0 0.31576,-0.11162 59.946616,59.946616 0 0 0 0.31522,-0.11317 59.946616,59.946616 0 0 0 0.3147,-0.11472 59.946616,59.946616 0 0 0 0.31419,-0.11679 59.946616,59.946616 0 0 0 0.31316,-0.11834 59.946616,59.946616 0 0 0 0.31266,-0.11989 59.946616,59.946616 0 0 0 0.3116,-0.12196 59.946616,59.946616 0 0 0 0.3116,-0.1235 59.946616,59.946616 0 0 0 0.31057,-0.12558 59.946616,59.946616 0 0 0 0.30956,-0.12712 59.946616,59.946616 0 0 0 0.30901,-0.12867 59.946616,59.946616 0 0 0 0.30853,-0.13075 59.946616,59.946616 0 0 0 0.30797,-0.13229 59.946616,59.946616 0 0 0 0.30644,-0.13384 59.946616,59.946616 0 0 0 0.30644,-0.13539 59.946616,59.946616 0 0 0 0.30541,-0.13746 59.946616,59.946616 0 0 0 0.30438,-0.13953 59.946616,59.946616 0 0 0 0.30384,-0.14056 59.946616,59.946616 0 0 0 0.30335,-0.14262 59.946616,59.946616 0 0 0 0.30231,-0.14418 59.946616,59.946616 0 0 0 0.30128,-0.14573 59.946616,59.946616 0 0 0 0.30075,-0.1478 59.946616,59.946616 0 0 0 0.29972,-0.14882 59.946616,59.946616 0 0 0 0.29922,-0.1509 59.946616,59.946616 0 0 0 0.29766,-0.15296 59.946616,59.946616 0 0 0 0.29765,-0.154 59.946616,59.946616 0 0 0 0.2961,-0.15606 59.946616,59.946616 0 0 0 0.29559,-0.15761 59.946616,59.946616 0 0 0 0.29456,-0.15917 59.946616,59.946616 0 0 0 0.29403,-0.16071 59.946616,59.946616 0 0 0 0.2925,-0.16278 59.946616,59.946616 0 0 0 0.29197,-0.16381 59.946616,59.946616 0 0 0 0.29093,-0.16588 59.946616,59.946616 0 0 0 0.29044,-0.16744 59.946616,59.946616 0 0 0 0.28887,-0.16898 59.946616,59.946616 0 0 0 0.28834,-0.17053 59.946616,59.946616 0 0 0 0.28731,-0.17208 59.946616,59.946616 0 0 0 0.28631,-0.17364 59.946616,59.946616 0 0 0 0.28525,-0.1757 59.946616,59.946616 0 0 0 0.28421,-0.17673 59.946616,59.946616 0 0 0 0.28319,-0.1788 59.946616,59.946616 0 0 0 0.28215,-0.18035 59.946616,59.946616 0 0 0 0.28165,-0.18138 59.946616,59.946616 0 0 0 0.28008,-0.18346 59.946616,59.946616 0 0 0 0.27906,-0.185 59.946616,59.946616 0 0 0 0.27853,-0.18603 59.946616,59.946616 0 0 0 0.27699,-0.1881 59.946616,59.946616 0 0 0 0.27593,-0.18966 59.946616,59.946616 0 0 0 0.27546,-0.1912 59.946616,59.946616 0 0 0 0.27387,-0.19224 59.946616,59.946616 0 0 0 0.27287,-0.1943 59.946616,59.946616 0 0 0 0.2718,-0.19585 59.946616,59.946616 0 0 0 0.27078,-0.19689 59.946616,59.946616 0 0 0 0.26977,-0.19844 59.946616,59.946616 0 0 0 0.26818,-0.2005 59.946616,59.946616 0 0 0 0.26717,-0.20154 59.946616,59.946616 0 0 0 0.26665,-0.20309 59.946616,59.946616 0 0 0 0.26511,-0.20464 59.946616,59.946616 0 0 0 0.26356,-0.20619 59.946616,59.946616 0 0 0 0.26302,-0.20774 59.946616,59.946616 0 0 0 0.26149,-0.20877 59.946616,59.946616 0 0 0 0.26045,-0.21084 59.946616,59.946616 0 0 0 0.2594,-0.21187 59.946616,59.946616 0 0 0 0.25789,-0.21343 59.946616,59.946616 0 0 0 0.25733,-0.21497 59.946616,59.946616 0 0 0 0.25527,-0.21601 59.946616,59.946616 0 0 0 0.25477,-0.21756 59.946616,59.946616 0 0 0 0.25323,-0.2191 59.946616,59.946616 0 0 0 0.25218,-0.22066 59.946616,59.946616 0 0 0 0.25064,-0.22221 59.946616,59.946616 0 0 0 0.24958,-0.22324 59.946616,59.946616 0 0 0 0.24804,-0.22479 59.946616,59.946616 0 0 0 0.24702,-0.22583 59.946616,59.946616 0 0 0 0.24598,-0.22738 59.946616,59.946616 0 0 0 0.24442,-0.22893 59.946616,59.946616 0 0 0 0.24342,-0.23047 59.946616,59.946616 0 0 0 0.24183,-0.23151 59.946616,59.946616 0 0 0 0.24029,-0.23306 59.946616,59.946616 0 0 0 0.2398,-0.2341 59.946616,59.946616 0 0 0 0.2377,-0.23564 59.946616,59.946616 0 0 0 0.23667,-0.236679 59.946616,59.946616 0 0 0 0.23566,-0.238228 59.946616,59.946616 0 0 0 0.23358,-0.239778 59.946616,59.946616 0 0 0 0.23304,-0.240814 59.946616,59.946616 0 0 0 0.23101,-0.242361 59.946616,59.946616 0 0 0 0.22995,-0.243398 59.946616,59.946616 0 0 0 0.22894,-0.244427 59.946616,59.946616 0 0 0 0.22736,-0.245981 59.946616,59.946616 0 0 0 0.22582,-0.24753 59.946616,59.946616 0 0 0 0.22429,-0.248563 59.946616,59.946616 0 0 0 0.22325,-0.249598 59.946616,59.946616 0 0 0 0.22167,-0.251147 59.946616,59.946616 0 0 0 0.22016,-0.25218 59.946616,59.946616 0 0 0 0.2191,-0.253217 59.946616,59.946616 0 0 0 0.21704,-0.254765 59.946616,59.946616 0 0 0 0.21601,-0.255796 59.946616,59.946616 0 0 0 0.21497,-0.25735 59.946616,59.946616 0 0 0 0.21291,-0.258381 59.946616,59.946616 0 0 0 0.21188,-0.259416 59.946616,59.946616 0 0 0 0.21032,-0.260451 59.946616,59.946616 0 0 0 0.20878,-0.261998 59.946616,59.946616 0 0 0 0.15968,-0.20257 59.946613,59.946613 0 0 0 -47.13304,-22.904545 59.946613,59.946613 0 0 0 -47.132531,22.904545 z" />
    </g>
  </g>
</svg>
