<?xml version="1.0" encoding="UTF-8" standalone="no"?>
<!-- Created with Inkscape (http://www.inkscape.org/) -->

<svg
   width="120mm"
   height="120mm"
   viewBox="0 0 120 120"
   version="1.1"
   id="svg5"
   xmlns="http://www.w3.org/2000/svg"
   xmlns:svg="http://www.w3.org/2000/svg">
  <defs
     id="defs2">
    <clipPath
       clipPathUnits="userSpaceOnUse"
       id="clipPath1484">
      <circle
         style="opacity:1;mix-blend-mode:normal;fill:none;fill-opacity:1;stroke:#000000;stroke-width:0.0631283;stroke-dasharray:none;stroke-opacity:1;stop-color:#000000"
         id="circle1486"
         cx="91.393448"
         cy="128.02902"
         r="67.498695" />
    </clipPath>
  </defs>
  <g
     id="layer1"
     transform="translate(-31.393448,-68.029022)">
    <g
       id="g1482"
       clip-path="url(#clipPath1484)"
       transform="matrix(0.88890607,0,0,0.88890607,10.153257,14.223247)">
      <circle
         style="mix-blend-mode:normal;fill:#002ea5;fill-opacity:1;stroke:none;stroke-width:0.0646625;stroke-dasharray:none;stroke-opacity:1;stop-color:#000000"
         id="path1344-7"
         cx="91.393448"
         cy="128.02902"
         r="69.139084" />
      <path
         id="path794-6-6"
         style="opacity:0.384418;mix-blend-mode:normal;fill:#0e8b00;fill-opacity:1;stroke-width:0.529166;stop-color:#000000"
         d="M 41.203567,76.093944 A 60,60 0 0 1 123.16507,98.055453 60,60 0 0 1 101.20353,180.01699 60,60 0 0 1 19.242026,158.05548 60,60 0 0 1 41.203567,76.093944 Z" />
      <path
         id="path792-3"
         style="opacity:0.384418;mix-blend-mode:normal;fill:#e8d800;fill-opacity:1;stroke-width:0.529166;stop-color:#000000"
         d="M 131.36085,93.392497 A 60,60 0 0 1 153.32237,175.35401 60,60 0 0 1 71.360845,197.31554 60,60 0 0 1 49.399328,115.35403 60,60 0 0 1 131.36085,93.392497 Z" />
      <path
         id="path792-3-7"
         style="opacity:0.384418;mix-blend-mode:normal;fill:#6f0090;fill-opacity:1;stroke-width:0.529166;stop-color:#000000"
         d="M 41.203557,110.70778 A 60,60 0 0 1 101.20355,50.707792 60,60 0 0 1 161.20354,110.70779 60,60 0 0 1 101.20355,170.70782 60,60 0 0 1 41.203557,110.70778 Z" />
      <path
         id="path792-3-2"
         style="opacity:0.384418;mix-blend-mode:normal;fill:#0e8b00;fill-opacity:1;stroke-width:0.529166;stop-color:#000000"
         d="M 51.203562,93.414443 A 60,60 0 0 1 133.16506,115.37597 60,60 0 0 1 111.20355,197.33749 60,60 0 0 1 29.242021,175.37598 60,60 0 0 1 51.203562,93.414443 Z" />
      <path
         id="path794-6"
         style="opacity:0.384418;mix-blend-mode:normal;fill:#e8d800;fill-opacity:1;stroke-width:0.529166;stop-color:#000000"
         d="M 141.36085,76.072012 A 60,60 0 0 1 163.32237,158.0335 60,60 0 0 1 81.36085,179.99502 60,60 0 0 1 59.399316,98.033526 60,60 0 0 1 141.36085,76.072012 Z" />
      <path
         id="path794-6-9"
         style="opacity:0.384418;mix-blend-mode:normal;fill:#6f0090;fill-opacity:1;stroke-width:0.529166;stop-color:#000000"
         d="M 21.203569,110.70778 A 60,60 0 0 1 81.20355,50.707779 60,60 0 0 1 141.20354,110.70779 60,60 0 0 1 81.203559,170.70782 60,60 0 0 1 21.203569,110.70778 Z" />
      <path
         id="path790-9"
         style="opacity:0.332644;mix-blend-mode:normal;fill:#0e8b00;fill-opacity:1;stroke-width:0.529166;stop-color:#000000"
         d="m 121.36085,110.71301 a 60,60 0 0 1 21.96152,81.96151 60,60 0 0 1 -81.961525,21.96152 60,60 0 0 1 -21.961518,-81.96152 60,60 0 0 1 81.961523,-21.96151 z" />
      <path
         id="path790-9-5"
         style="opacity:0.332644;mix-blend-mode:normal;fill:#0e8b00;fill-opacity:1;stroke-width:0.529166;stop-color:#000000"
         d="m 121.36085,132.35161 a 60,60 0 0 1 21.96152,81.96153 60,60 0 0 1 -81.961527,21.96151 60,60 0 0 1 -21.961506,-81.96152 60,60 0 0 1 81.961513,-21.96152 z" />
      <path
         id="path794-0-0"
         style="opacity:0.176719;mix-blend-mode:normal;fill:#e8d800;fill-opacity:1;stroke-width:0.529166;stop-color:#000000"
         d="M 151.36085,58.751503 A 60,60 0 0 1 173.32237,140.71299 60,60 0 0 1 91.360852,162.67453 60,60 0 0 1 69.39932,80.713013 60,60 0 0 1 151.36085,58.751503 Z" />
      <path
         id="path794-0-0-9"
         style="opacity:0.176719;mix-blend-mode:normal;fill:#e8d800;fill-opacity:1;stroke-width:0.529166;stop-color:#000000"
         d="M 174.68314,45.286373 A 60,60 0 0 1 196.64467,127.24787 60,60 0 0 1 114.68316,149.20938 60,60 0 0 1 92.721634,67.247885 60,60 0 0 1 174.68314,45.286373 Z" />
      <path
         id="path794-0-0-2"
         style="opacity:0.321631;mix-blend-mode:normal;fill:#6f0090;fill-opacity:1;stroke-width:0.529166;stop-color:#000000"
         d="m 1.2035687,110.70777 a 60,60 0 0 1 59.9999633,-59.99999 60,60 0 0 1 60.000018,60 60,60 0 0 1 -59.999984,60.00004 60,60 0 0 1 -59.9999973,-60.00005 z" />
      <path
         id="path794-0-0-2-2"
         style="opacity:0.321631;mix-blend-mode:normal;fill:#6f0090;fill-opacity:1;stroke-width:0.529166;stop-color:#000000"
         d="M -22.118739,97.242619 A 60,60 0 0 1 37.881237,37.242635 60,60 0 0 1 97.88124,97.242644 60,60 0 0 1 37.881268,157.24268 60,60 0 0 1 -22.118739,97.242619 Z" />
    </g>
  </g>
</svg>
