<?xml version="1.0" encoding="UTF-8" standalone="no"?>
<!-- Created with Inkscape (http://www.inkscape.org/) -->

<svg
   width="120mm"
   height="120mm"
   viewBox="0 0 120 120"
   version="1.1"
   id="svg5"
   inkscape:version="1.2.2 (b0a8486541, 2022-12-01)"
   sodipodi:docname="logo.svg"
   xmlns:inkscape="http://www.inkscape.org/namespaces/inkscape"
   xmlns:sodipodi="http://sodipodi.sourceforge.net/DTD/sodipodi-0.dtd"
   xmlns:xlink="http://www.w3.org/1999/xlink"
   xmlns="http://www.w3.org/2000/svg"
   xmlns:svg="http://www.w3.org/2000/svg">
  <sodipodi:namedview
     id="namedview7"
     pagecolor="#ffffff"
     bordercolor="#111111"
     borderopacity="1"
     inkscape:showpageshadow="0"
     inkscape:pageopacity="0"
     inkscape:pagecheckerboard="1"
     inkscape:deskcolor="#d1d1d1"
     inkscape:document-units="mm"
     showgrid="true"
     inkscape:zoom="1.1893044"
     inkscape:cx="218.61518"
     inkscape:cy="242.99919"
     inkscape:window-width="2248"
     inkscape:window-height="1490"
     inkscape:window-x="0"
     inkscape:window-y="1508"
     inkscape:window-maximized="1"
     inkscape:current-layer="layer1">
    <inkscape:grid
       type="xygrid"
       id="grid132"
       dotted="true"
       originx="-49.999993"
       originy="-90" />
  </sodipodi:namedview>
  <defs
     id="defs2">
    <linearGradient
       inkscape:collect="always"
       id="linearGradient2112">
      <stop
         style="stop-color:#003259;stop-opacity:1;"
         offset="0"
         id="stop2108" />
      <stop
         style="stop-color:#001152;stop-opacity:1;"
         offset="1"
         id="stop2110" />
    </linearGradient>
    <linearGradient
       inkscape:collect="always"
       id="linearGradient1978">
      <stop
         style="stop-color:#9d0055;stop-opacity:1;"
         offset="0"
         id="stop1974" />
      <stop
         style="stop-color:#ae2800;stop-opacity:1;"
         offset="1"
         id="stop1976" />
    </linearGradient>
    <linearGradient
       inkscape:collect="always"
       xlink:href="#linearGradient1978"
       id="linearGradient1980"
       x1="80"
       y1="190"
       x2="142.60588"
       y2="112.0946"
       gradientUnits="userSpaceOnUse" />
    <linearGradient
       inkscape:collect="always"
       xlink:href="#linearGradient2112"
       id="linearGradient2114"
       x1="50"
       y1="210"
       x2="180"
       y2="80"
       gradientUnits="userSpaceOnUse" />
  </defs>
  <g
     inkscape:label="Layer 1"
     inkscape:groupmode="layer"
     id="layer1"
     transform="translate(-49.999992,-90)">
    <g
       id="g2133"
       transform="matrix(0.79186746,0,0,0.79186746,22.894578,31.219881)">
      <circle
         style="fill:url(#linearGradient2114);fill-opacity:1;fill-rule:evenodd;stroke:none;stroke-width:0.0162365;stroke-opacity:1;stop-color:#000000"
         id="path1598"
         cx="109.99999"
         cy="150"
         r="75.770256" />
      <circle
         style="fill:url(#linearGradient1980);fill-opacity:1;fill-rule:evenodd;stroke:none;stroke-width:0.015;stroke-opacity:1;stop-color:#000000"
         id="path1652"
         cx="109.99999"
         cy="150"
         r="50" />
      <path
         id="path1109-1-2"
         style="mix-blend-mode:screen;fill:#ff14e0;fill-opacity:0.621621;fill-rule:evenodd;stroke-width:0.015;stop-color:#000000"
         d="m 119.41906,92.630188 a 60,60 0 0 0 -30.792789,4.053682 60,60 0 0 0 -32.471681,78.3937 60,60 0 0 0 78.39361,32.47218 60,60 0 0 0 32.47225,-78.39411 60,60 0 0 0 -47.60139,-36.525452 z m -11.35349,9.626122 -0.65306,4.96051 c -0.32541,2.47167 1.40244,4.72344 3.87412,5.04885 l 10.90574,1.43576 c 2.47167,0.32541 4.72344,-1.40244 5.04884,-3.87412 l 0.65111,-4.94564 a 50,50 0 0 1 0.90324,0.28935 50,50 0 0 1 3.81822,1.58162 50,50 0 0 1 3.67429,1.89106 50,50 0 0 1 3.50529,2.18882 50,50 0 0 1 3.31297,2.46998 50,50 0 0 1 3.09764,2.7356 50,50 0 0 1 2.86093,2.98171 50,50 0 0 1 2.60491,3.2081 50,50 0 0 1 1.31152,1.91929 l -4.59664,1.90401 c -2.30324,0.95403 -3.38971,3.57605 -2.43569,5.87929 l 4.20942,10.16293 c 0.95401,2.30323 3.57663,3.38927 5.87984,2.43524 l 4.63412,-1.91942 a 50,50 0 0 1 0.20853,1.13193 50,50 0 0 1 0.21571,1.3862 50,50 0 0 1 0.17654,1.39094 50,50 0 0 1 0.13733,1.39567 50,50 0 0 1 0.0988,1.39893 50,50 0 0 1 0.0584,1.40144 50,50 0 0 1 0.0196,1.40261 50,50 0 0 1 -0.0199,1.40207 50,50 0 0 1 -0.0592,1.40163 50,50 0 0 1 -0.0977,1.39861 50,50 0 0 1 -0.13792,1.39591 50,50 0 0 1 -0.17689,1.39081 50,50 0 0 1 -0.21529,1.38574 50,50 0 0 1 -0.25403,1.37959 50,50 0 0 1 -0.29315,1.37131 50,50 0 0 1 -0.3317,1.36312 50,50 0 0 1 -0.36886,1.35248 50,50 0 0 1 -0.40764,1.34215 50,50 0 0 1 -0.4441,1.33007 50,50 0 0 1 -0.48161,1.31739 50,50 0 0 1 -0.51814,1.30313 50,50 0 0 1 -0.55533,1.28833 50,50 0 0 1 -0.59063,1.27169 50,50 0 0 1 -0.0964,0.19373 l -3.9794,-3.05339 c -1.97784,-1.51765 -4.79216,-1.14742 -6.30981,0.83044 l -6.69635,8.72715 c -1.51762,1.97785 -1.14679,4.79173 0.83103,6.30938 l 3.97699,3.05203 a 50,50 0 0 1 -0.51559,0.44812 50,50 0 0 1 -1.08445,0.88925 50,50 0 0 1 -1.1087,0.85949 50,50 0 0 1 -1.13264,0.82765 50,50 0 0 1 -1.155,0.79554 50,50 0 0 1 -1.1767,0.76242 50,50 0 0 1 -1.1979,0.72943 50,50 0 0 1 -1.21742,0.69556 50,50 0 0 1 -1.23686,0.66123 50,50 0 0 1 -1.25525,0.62648 50,50 0 0 1 -1.27183,0.59041 50,50 0 0 1 -1.28804,0.55494 50,50 0 0 1 -3.88007,1.42187 50,50 0 0 1 -3.98426,1.09699 50,50 0 0 1 -4.06139,0.76419 50,50 0 0 1 -3.68582,0.38208 l 0.65284,-4.95898 c 0.32541,-2.47167 -1.40246,-4.72345 -3.8741,-5.04885 l -10.90566,-1.43578 c -2.471664,-0.32539 -4.723447,1.40246 -5.04886,3.87413 l -0.651036,4.94514 a 50,50 0 0 1 -0.90479,-0.28949 50,50 0 0 1 -3.817657,-1.58206 50,50 0 0 1 -3.674265,-1.89106 50,50 0 0 1 -3.505889,-2.18837 50,50 0 0 1 -3.312441,-2.46989 50,50 0 0 1 -3.097576,-2.73613 50,50 0 0 1 -2.861,-2.9812 50,50 0 0 1 -2.605428,-3.20818 50,50 0 0 1 -1.310616,-1.91813 l 4.597211,-1.90446 c 2.303228,-0.95403 3.389709,-3.57605 2.435681,-5.87929 l -4.20941,-10.16292 c -0.954027,-2.30324 -3.576637,-3.38927 -5.879868,-2.43525 l -4.597207,1.90446 a 50,50 0 0 1 -0.430017,-2.28433 50,50 0 0 1 -0.426207,-4.11071 50,50 0 0 1 -0.0852,-4.13147 50,50 0 0 1 0.255828,-4.12465 50,50 0 0 1 0.59563,-4.08876 50,50 0 0 1 0.931484,-4.02683 50,50 0 0 1 1.260872,-3.93553 50,50 0 0 1 1.581022,-3.81775 50,50 0 0 1 0.434299,-0.84404 l 3.958117,3.03704 c 1.977825,1.51765 4.792155,1.14741 6.309803,-0.83044 l 6.69633,-8.72716 c 1.517646,-1.97783 1.146811,-4.79171 -0.831019,-6.30934 l -3.968956,-3.04576 a 50,50 0 0 1 2.876699,-2.33635 50,50 0 0 1 3.412394,-2.33147 50,50 0 0 1 3.592602,-2.04141 50,50 0 0 1 3.7497,-1.73821 50,50 0 0 1 3.880067,-1.42191 50,50 0 0 1 3.984333,-1.09748 50,50 0 0 1 4.06089,-0.76425 50,50 0 0 1 3.68744,-0.38238 z" />
      <path
         id="path1109-1"
         style="fill:#ffffff;fill-opacity:0.5;fill-rule:evenodd;stroke-width:0.015;stop-color:#000000"
         d="m 115.22932,90.228533 a 60,60 0 0 0 -30.586648,5.392986 60,60 0 0 0 -29.021291,79.735471 60,60 0 0 0 79.735409,29.02179 60,60 0 0 0 29.02184,-79.73592 60,60 0 0 0 -49.14931,-34.414327 z m -10.92279,10.112177 -0.43607,4.98428 c -0.21729,2.48351 1.60714,4.65777 4.09066,4.87506 l 10.95799,0.95869 c 2.48351,0.21728 4.65777,-1.60714 4.87505,-4.09066 l 0.43476,-4.96934 a 50,50 0 0 1 0.915,0.24968 50,50 0 0 1 3.88358,1.41357 50,50 0 0 1 3.75328,1.72899 50,50 0 0 1 3.59743,2.03383 50,50 0 0 1 3.41755,2.32312 50,50 0 0 1 3.21402,2.59788 50,50 0 0 1 2.98827,2.85408 50,50 0 0 1 2.74236,3.09142 50,50 0 0 1 1.39399,1.86026 l -4.50921,2.1027 c -2.25943,1.05359 -3.2305,3.7205 -2.17692,5.97994 l 4.64871,9.96964 c 1.05357,2.25943 3.72107,3.23004 5.98047,2.17645 l 4.54599,-2.11973 a 50,50 0 0 1 0.2577,1.12176 50,50 0 0 1 0.27597,1.37547 50,50 0 0 1 0.23705,1.38191 50,50 0 0 1 0.19807,1.38835 50,50 0 0 1 0.15978,1.39329 50,50 0 0 1 0.11946,1.39756 50,50 0 0 1 0.0808,1.40042 50,50 0 0 1 0.0413,1.4016 50,50 0 0 1 0.002,1.40288 50,50 0 0 1 -0.0366,1.40154 50,50 0 0 1 -0.0769,1.4006 50,50 0 0 1 -0.11606,1.3972 50,50 0 0 1 -0.15464,1.39381 50,50 0 0 1 -0.19361,1.38936 50,50 0 0 1 -0.23306,1.38279 50,50 0 0 1 -0.27192,1.37629 50,50 0 0 1 -0.30952,1.36728 50,50 0 0 1 -0.3487,1.35866 50,50 0 0 1 -0.38566,1.34817 50,50 0 0 1 -0.42369,1.33715 50,50 0 0 1 -0.46081,1.32449 50,50 0 0 1 -0.4986,1.31132 50,50 0 0 1 -0.5346,1.29625 50,50 0 0 1 -0.0879,0.19775 l -4.1088,-2.87691 c -2.04215,-1.42993 -4.83765,-0.93729 -6.26758,1.10488 l -6.3093,9.01094 c -1.42991,2.04216 -0.93669,4.83719 1.10545,6.26712 l 4.10633,2.87566 a 50,50 0 0 1 -0.49555,0.47018 50,50 0 0 1 -1.04463,0.93571 50,50 0 0 1 -1.07016,0.90703 50,50 0 0 1 -1.09546,0.87627 50,50 0 0 1 -1.1192,0.84516 50,50 0 0 1 -1.14232,0.81302 50,50 0 0 1 -1.16494,0.78099 50,50 0 0 1 -1.18592,0.748 50,50 0 0 1 -1.20684,0.71455 50,50 0 0 1 -1.22673,0.68064 50,50 0 0 1 -1.24487,0.64532 50,50 0 0 1 -1.26261,0.6106 50,50 0 0 1 -3.81435,1.58976 50,50 0 0 1 -3.93262,1.26974 50,50 0 0 1 -4.02419,0.94061 50,50 0 0 1 -3.66565,0.54249 l 0.43591,-4.98273 c 0.21729,-2.48351 -1.60716,-4.65778 -4.09064,-4.87506 l -10.95796,-0.95871 c -2.4835,-0.21727 -4.657773,1.60715 -4.875063,4.09067 l -0.434712,4.96883 a 50,50 0 0 1 -0.916556,-0.24975 50,50 0 0 1 -3.883032,-1.41403 50,50 0 0 1 -3.753255,-1.72899 50,50 0 0 1 -3.598008,-2.03336 50,50 0 0 1 -3.417023,-2.32306 50,50 0 0 1 -3.213976,-2.59841 50,50 0 0 1 -2.988315,-2.85357 50,50 0 0 1 -2.742887,-3.09147 50,50 0 0 1 -1.393037,-1.85914 l 4.509764,-2.10318 c 2.259422,-1.05358 3.230498,-3.7205 2.176912,-5.97993 l -4.648704,-9.96964 c -1.053584,-2.25943 -3.72107,-3.23003 -5.980495,-2.17645 l -4.509761,2.10317 a 50,50 0 0 1 -0.529248,-2.2634 50,50 0 0 1 -0.605108,-4.0882 50,50 0 0 1 -0.265332,-4.12383 50,50 0 0 1 0.07567,-4.13188 50,50 0 0 1 0.416714,-4.11085 50,50 0 0 1 0.75495,-4.06363 50,50 0 0 1 1.088006,-3.98678 50,50 0 0 1 1.41299,-3.88308 50,50 0 0 1 0.397069,-0.86218 l 4.086823,2.8615 c 2.042142,1.42993 4.837644,0.93729 6.267575,-1.10488 l 6.309283,-9.01094 c 1.42993,-2.04215 0.936708,-4.83718 -1.105438,-6.26709 l -4.098033,-2.86974 a 50,50 0 0 1 2.772052,-2.4596 50,50 0 0 1 3.307448,-2.4781 50,50 0 0 1 3.500138,-2.19618 50,50 0 0 1 3.670311,-1.90011 50,50 0 0 1 3.814352,-1.5898 50,50 0 0 1 3.932674,-1.27023 50,50 0 0 1 4.023672,-0.94066 50,50 0 0 1 3.66725,-0.54286 z" />
      <path
         id="path1109"
         style="mix-blend-mode:screen;fill:#06ffee;fill-opacity:0.753493;fill-rule:evenodd;stroke-width:0.015;stop-color:#000000"
         d="M 111.02963,87.940656 A 60,60 0 0 0 80.707341,94.66268 60,60 0 0 0 55.191685,175.58814 60,60 0 0 0 136.11711,201.1043 60,60 0 0 0 161.63329,120.17835 60,60 0 0 0 111.02963,87.940656 Z m -10.47131,10.578993 -0.21824,4.998551 c -0.10875,2.49062 1.80878,4.58323 4.29941,4.69199 l 10.98938,0.47979 c 2.49062,0.10875 4.58324,-1.80878 4.69198,-4.29941 l 0.21759,-4.983564 a 50,50 0 0 1 0.92502,0.209527 50,50 0 0 1 3.94154,1.242817 50,50 0 0 1 3.82512,1.56363 50,50 0 0 1 3.68272,1.87498 50,50 0 0 1 3.51563,2.17183 50,50 0 0 1 3.32428,2.45522 50,50 0 0 1 3.10992,2.72102 50,50 0 0 1 2.8746,2.96885 50,50 0 0 1 1.4738,1.79769 l -4.4132,2.29739 c -2.21132,1.15114 -3.06513,3.85787 -1.914,6.0692 l 5.07915,9.75738 c 1.15113,2.21132 3.85842,3.06465 6.06972,1.91351 l 4.4492,-2.316 a 50,50 0 0 1 0.30638,1.10945 50,50 0 0 1 0.33571,1.36212 50,50 0 0 1 0.2971,1.37025 50,50 0 0 1 0.25844,1.37839 50,50 0 0 1 0.2204,1.385 50,50 0 0 1 0.18031,1.39102 50,50 0 0 1 0.14184,1.39556 50,50 0 0 1 0.1024,1.39846 50,50 0 0 1 0.0635,1.40145 50,50 0 0 1 0.0246,1.4018 50,50 0 0 1 -0.0157,1.40262 50,50 0 0 1 -0.055,1.40093 50,50 0 0 1 -0.0937,1.39923 50,50 0 0 1 -0.13282,1.39648 50,50 0 0 1 -0.17252,1.39164 50,50 0 0 1 -0.21163,1.38684 50,50 0 0 1 -0.24959,1.37948 50,50 0 0 1 -0.2891,1.37258 50,50 0 0 1 -0.32649,1.36371 50,50 0 0 1 -0.36496,1.35436 50,50 0 0 1 -0.4026,1.34333 50,50 0 0 1 -0.44092,1.33182 50,50 0 0 1 -0.47755,1.31833 50,50 0 0 1 -0.0792,0.2014 l -4.23038,-2.69495 c -2.10258,-1.33949 -4.87393,-0.72538 -6.21342,1.37722 l -5.91024,9.27757 c -1.33948,2.10259 -0.72481,4.87344 1.37776,6.21293 l 4.22786,2.69381 a 50,50 0 0 1 -0.47457,0.49135 50,50 0 0 1 -1.00282,0.98038 50,50 0 0 1 -1.02958,0.95285 50,50 0 0 1 -1.05619,0.92322 50,50 0 0 1 -1.08127,0.89317 50,50 0 0 1 -1.10577,0.86208 50,50 0 0 1 -1.12977,0.83106 50,50 0 0 1 -1.15216,0.79902 50,50 0 0 1 -1.17453,0.76651 50,50 0 0 1 -1.19587,0.7335 50,50 0 0 1 -1.21554,0.69901 50,50 0 0 1 -1.23477,0.66509 50,50 0 0 1 -3.74137,1.75463 50,50 0 0 1 -3.8735,1.44007 50,50 0 0 1 -3.97933,1.11524 50,50 0 0 1 -3.6385,0.70187 l 0.21816,-4.997 c 0.10875,-2.49063 -1.8088,-4.58325 -4.2994,-4.69199 l -10.98935,-0.47982 c -2.490601,-0.10873 -4.583225,1.80879 -4.691978,4.29943 l -0.217561,4.98306 a 50,50 0 0 1 -0.926578,-0.20953 50,50 0 0 1 -3.941015,-1.24331 50,50 0 0 1 -3.8251,-1.56363 50,50 0 0 1 -3.683278,-1.87449 50,50 0 0 1 -3.515101,-2.1718 50,50 0 0 1 -3.324258,-2.45574 50,50 0 0 1 -3.109942,-2.72051 50,50 0 0 1 -2.875124,-2.96888 50,50 0 0 1 -1.472806,-1.79661 l 4.413732,-2.29789 c 2.211315,-1.15113 3.065138,-3.85787 1.914,-6.06919 l -5.07915,-9.75738 c -1.151136,-2.21132 -3.85842,-3.06465 -6.069738,-1.91351 l -4.413729,2.29788 a 50,50 0 0 1 -0.627473,-2.23816 50,50 0 0 1 -0.782857,-4.05792 50,50 0 0 1 -0.444958,-4.10833 50,50 0 0 1 -0.104631,-4.13125 50,50 0 0 1 0.237004,-4.12511 50,50 0 0 1 0.576979,-4.09269 50,50 0 0 1 0.913069,-4.03045 50,50 0 0 1 1.242268,-3.94102 50,50 0 0 1 0.359083,-0.87867 l 4.20775,2.68051 c 2.102571,1.33949 4.873924,0.72538 6.213416,-1.37722 l 5.910226,-9.27757 c 1.339492,-2.10258 0.724822,-4.87343 -1.377753,-6.21291 l -4.219308,-2.68825 a 50,50 0 0 1 2.662127,-2.57818 50,50 0 0 1 3.196207,-2.62001 50,50 0 0 1 3.40101,-2.34676 50,50 0 0 1 3.583936,-2.0584 50,50 0 0 1 3.741376,-1.75466 50,50 0 0 1 3.873524,-1.44057 50,50 0 0 1 3.978807,-1.115264 50,50 0 0 1 3.640074,-0.702307 z" />
    </g>
  </g>
</svg>
