<?xml version="1.0" encoding="UTF-8" standalone="no"?>
<!-- Created with Inkscape (http://www.inkscape.org/) -->

<svg
   width="120mm"
   height="120mm"
   viewBox="0 0 120 120"
   version="1.1"
   id="svg5"
   inkscape:version="1.2.2 (b0a8486541, 2022-12-01)"
   sodipodi:docname="logo.svg"
   xmlns:inkscape="http://www.inkscape.org/namespaces/inkscape"
   xmlns:sodipodi="http://sodipodi.sourceforge.net/DTD/sodipodi-0.dtd"
   xmlns:xlink="http://www.w3.org/1999/xlink"
   xmlns="http://www.w3.org/2000/svg"
   xmlns:svg="http://www.w3.org/2000/svg">
  <sodipodi:namedview
     id="namedview7"
     pagecolor="#ffffff"
     bordercolor="#111111"
     borderopacity="1"
     inkscape:showpageshadow="0"
     inkscape:pageopacity="0"
     inkscape:pagecheckerboard="1"
     inkscape:deskcolor="#d1d1d1"
     inkscape:document-units="mm"
     showgrid="false"
     inkscape:zoom="0.8409652"
     inkscape:cx="316.89777"
     inkscape:cy="284.19725"
     inkscape:window-width="2923"
     inkscape:window-height="1488"
     inkscape:window-x="0"
     inkscape:window-y="1510"
     inkscape:window-maximized="1"
     inkscape:current-layer="layer1">
    <inkscape:grid
       type="xygrid"
       id="grid686"
       dotted="true"
       originx="-38.459585"
       originy="-58.373547" />
  </sodipodi:namedview>
  <defs
     id="defs2">
    <linearGradient
       inkscape:collect="always"
       id="linearGradient2652">
      <stop
         style="stop-color:#19591d;stop-opacity:1;"
         offset="0"
         id="stop2648" />
      <stop
         style="stop-color:#007a82;stop-opacity:1;"
         offset="1"
         id="stop2650" />
    </linearGradient>
    <linearGradient
       inkscape:collect="always"
       id="linearGradient2646">
      <stop
         style="stop-color:#ddf5de;stop-opacity:1;"
         offset="0"
         id="stop2642" />
      <stop
         style="stop-color:#45fffd;stop-opacity:1;"
         offset="1"
         id="stop2644" />
    </linearGradient>
    <linearGradient
       inkscape:collect="always"
       id="linearGradient1932">
      <stop
         style="stop-color:#81e300;stop-opacity:0.51806289;"
         offset="0"
         id="stop1928" />
      <stop
         style="stop-color:#50ff04;stop-opacity:0.48836794;"
         offset="1"
         id="stop1930" />
    </linearGradient>
    <linearGradient
       inkscape:collect="always"
       id="linearGradient1890">
      <stop
         style="stop-color:#00ff66;stop-opacity:0.51806289;"
         offset="0"
         id="stop1886" />
      <stop
         style="stop-color:#69dd00;stop-opacity:0.48836794;"
         offset="1"
         id="stop1888" />
    </linearGradient>
    <linearGradient
       inkscape:collect="always"
       id="linearGradient1784">
      <stop
         style="stop-color:#00ad1a;stop-opacity:0.51806289;"
         offset="0"
         id="stop1780" />
      <stop
         style="stop-color:#168100;stop-opacity:0.48836794;"
         offset="1"
         id="stop1782" />
    </linearGradient>
    <linearGradient
       inkscape:collect="always"
       id="linearGradient1745">
      <stop
         style="stop-color:#19591d;stop-opacity:1;"
         offset="0"
         id="stop1741" />
      <stop
         style="stop-color:#008281;stop-opacity:1;"
         offset="1"
         id="stop1743" />
    </linearGradient>
    <linearGradient
       inkscape:collect="always"
       xlink:href="#linearGradient1745"
       id="linearGradient1747"
       x1="50.175301"
       y1="143.47841"
       x2="158.10831"
       y2="84.814667"
       gradientUnits="userSpaceOnUse"
       gradientTransform="matrix(1.1025193,0,0,1.1025193,-221.65719,-234.97997)" />
    <linearGradient
       inkscape:collect="always"
       xlink:href="#linearGradient1784"
       id="linearGradient1778"
       x1="56.722908"
       y1="138.59958"
       x2="133.77824"
       y2="83.993393"
       gradientUnits="userSpaceOnUse"
       gradientTransform="matrix(-1.2608079,-0.04117707,0.0049769,-1.1444432,219.56499,259.1246)" />
    <linearGradient
       inkscape:collect="always"
       xlink:href="#linearGradient1890"
       id="linearGradient1883"
       gradientUnits="userSpaceOnUse"
       x1="56.722908"
       y1="138.59958"
       x2="133.77824"
       y2="83.993393"
       gradientTransform="matrix(-1.2339834,-0.17942269,-0.02298424,-1.1232172,219.41816,269.40751)" />
    <linearGradient
       inkscape:collect="always"
       xlink:href="#linearGradient1932"
       id="linearGradient1925"
       gradientUnits="userSpaceOnUse"
       gradientTransform="matrix(-1.1249521,0.12609531,0.09143628,-1.0643454,195.00977,235.61091)"
       x1="56.722908"
       y1="138.59958"
       x2="133.77824"
       y2="83.993393" />
    <linearGradient
       inkscape:collect="always"
       xlink:href="#linearGradient2652"
       id="linearGradient1747-3"
       x1="50.175301"
       y1="143.47841"
       x2="158.10831"
       y2="84.814667"
       gradientUnits="userSpaceOnUse"
       gradientTransform="matrix(1.1025193,0,0,1.1025193,-221.65719,-234.97997)" />
    <linearGradient
       inkscape:collect="always"
       xlink:href="#linearGradient2646"
       id="linearGradient1747-3-3"
       x1="50.175301"
       y1="143.47841"
       x2="158.10831"
       y2="84.814667"
       gradientUnits="userSpaceOnUse"
       gradientTransform="matrix(1.1025193,0,0,1.1025193,-221.65719,-234.97997)" />
  </defs>
  <g
     inkscape:label="Layer 1"
     inkscape:groupmode="layer"
     id="layer1"
     transform="translate(-38.459585,-58.373547)">
    <g
       id="g2665">
      <circle
         style="fill:url(#linearGradient1747);fill-opacity:1;stroke:none;stroke-width:0.0716636;stop-color:#000000"
         id="path1583"
         r="59.999996"
         cy="-104.47086"
         cx="-113.1036"
         transform="rotate(-172.48053)" />
      <circle
         style="fill:url(#linearGradient1747-3);fill-opacity:1;stroke:none;stroke-width:0.0716636;stop-color:#000000"
         id="path1583-5"
         r="59.999996"
         cy="-104.47086"
         cx="-113.1036"
         transform="rotate(-172.48053)" />
      <path
         id="path844-9"
         style="opacity:0.511922;mix-blend-mode:color-dodge;fill:url(#linearGradient1883);fill-opacity:1;stroke:none;stroke-width:0.303243px;stroke-linecap:butt;stroke-linejoin:miter;stroke-opacity:1"
         d="m 72.582435,156.02903 c 6.495431,-0.64372 11.583446,-3.60009 14.587797,-6.86876 -0.02456,2.04575 0.222881,4.21543 0.824121,6.44815 6.678832,-0.66193 11.868579,-3.76876 14.836157,-7.14629 0.24283,1.50874 0.63493,3.05916 1.20619,4.62739 6.93146,-1.29562 11.92549,-5.27943 14.35953,-9.19221 0.36366,1.27063 0.83442,2.55898 1.43076,3.85003 7.47152,-2.09854 12.23614,-7.41071 13.8072,-11.94506 0.25712,0.42807 0.52816,0.85487 0.81365,1.2794 6.24461,-3.10407 9.72634,-8.64856 10.69098,-13.31795 0.20348,0.0897 0.40787,0.17804 0.6141,0.26392 2.91168,-10.18092 -2.91094,-21.59273 -7.68226,-23.43979 0.36065,-0.22579 0.71576,-0.46301 1.06371,-0.712677 -6.0914,-6.271077 -14.20511,-9.526755 -19.73565,-10.044489 -2.43671,-4.892447 -8.39676,-11.193448 -16.52796,-14.580259 -0.11718,0.409712 -0.21989,0.821618 -0.30927,1.234665 -3.403432,-3.749201 -16.394047,-5.105644 -25.120541,1.155473 0.153692,0.158162 0.309343,0.314065 0.465483,0.468453 -4.087706,2.546854 -8.101906,7.659822 -8.868795,14.422429 0.518322,0.115563 1.03341,0.216184 1.544813,0.303263 -3.843557,2.985154 -7.350591,9.289842 -6.723705,16.987202 1.43941,0.0936 2.832695,0.0731 4.171387,-0.0386 -2.871844,3.61015 -4.910109,9.57718 -3.717403,16.37328 1.709068,-0.0268 3.337117,-0.21313 4.871954,-0.52343 -2.180555,3.90866 -3.322665,9.75497 -1.611938,16.10797 2.344521,-0.23238 4.504639,-0.76724 6.450843,-1.50807 -2.068418,3.90423 -3.106651,9.61056 -1.441016,15.79605 z"
         inkscape:transform-center-x="14.238826"
         inkscape:transform-center-y="24.838157" />
      <path
         id="path1583-5-2"
         style="fill:url(#linearGradient1747-3-3);fill-opacity:1;stroke:none;stroke-width:0.0716636;stop-color:#000000;opacity:0.11445249"
         d="M -144.99959 -53.651756 C -144.83545 -53.832857 -144.67261 -54.004799 -144.50806 -54.188886 C -143.95348 -54.809319 -143.39683 -55.446783 -142.83763 -56.101348 C -142.27842 -56.755914 -141.71652 -57.427826 -141.15264 -58.116852 C -140.58876 -58.805878 -140.0228 -59.511962 -139.4542 -60.235775 C -138.88561 -60.959589 -138.31434 -61.700929 -137.74098 -62.459857 C -137.16762 -63.218785 -136.59229 -63.995618 -136.01413 -64.789987 C -135.43596 -65.584356 -134.85512 -66.396231 -134.27211 -67.226368 C -133.68909 -68.056505 -133.10362 -68.904749 -132.51571 -69.770982 C -131.9278 -70.637214 -131.33733 -71.521754 -130.74448 -72.424408 C -130.15163 -73.327063 -129.55633 -74.247756 -128.95849 -75.18716 C -128.36066 -76.126563 -127.7603 -77.084362 -127.15744 -78.060841 C -126.55458 -79.03732 -125.94938 -80.032594 -125.34145 -81.046476 C -124.73352 -82.060358 -124.12313 -83.093034 -123.51009 -84.144646 C -122.89704 -85.196258 -122.28117 -86.266773 -121.66296 -87.356442 C -121.04476 -88.44611 -120.42415 -89.554769 -119.80074 -90.682821 C -119.17732 -91.810874 -118.55117 -92.958181 -117.92251 -94.124944 C -117.29385 -95.291707 -116.66238 -96.478035 -116.02842 -97.683835 C -115.39447 -98.889635 -114.7579 -100.11535 -114.11861 -101.36052 C -113.47932 -102.60568 -112.83775 -103.87014 -112.19307 -105.15499 C -111.5484 -106.43985 -110.90071 -107.74515 -110.25061 -109.07003 C -109.6005 -110.3949 -108.94774 -111.73975 -108.29217 -113.10497 C -107.6366 -114.47019 -106.97855 -115.85554 -106.31746 -117.26143 C -105.65637 -118.66732 -104.99223 -120.09367 -104.32558 -121.54056 C -103.65894 -122.98745 -102.98944 -124.4551 -102.31719 -125.94332 C -101.64494 -127.43154 -100.97024 -128.94036 -100.29234 -130.47023 C -99.614438 -132.0001 -98.933225 -133.55065 -98.249634 -135.1225 C -97.566043 -136.69435 -96.879633 -138.28739 -96.190305 -139.90155 C -95.500977 -141.51571 -94.809015 -143.15116 -94.113906 -144.80795 C -93.418797 -146.46474 -92.720993 -148.14305 -92.020058 -149.8428 C -91.319124 -151.54255 -90.615122 -153.26363 -89.908318 -155.00667 C -89.366851 -156.34198 -88.821802 -157.70169 -88.276866 -159.06257 A 59.999996 59.999996 0 0 0 -113.10365 -164.47101 A 59.999996 59.999996 0 0 0 -173.10374 -104.47073 A 59.999996 59.999996 0 0 0 -144.99959 -53.651756 z "
         transform="rotate(-172.48053)" />
      <path
         id="path844-9-2"
         style="opacity:0.511922;mix-blend-mode:color-dodge;fill:url(#linearGradient1925);fill-opacity:1;stroke:none;stroke-width:0.280903px;stroke-linecap:butt;stroke-linejoin:miter;stroke-opacity:1"
         d="m 70.383927,162.95731 c 6.080879,-2.17652 11.090288,-6.21706 14.201064,-10.05362 -0.228025,1.95451 -0.216593,3.96163 0.116219,5.94357 6.252586,-2.23796 11.371303,-6.44634 14.458884,-10.37768 0.07364,1.37863 0.281066,2.76104 0.652824,4.11729 6.550192,-2.90235 11.575672,-7.89893 14.222822,-12.21171 0.20919,1.12277 0.51605,2.23659 0.93887,3.3228 7.13099,-3.79714 12.07724,-10.00375 13.98747,-14.70086 0.19525,0.34583 0.40347,0.68711 0.62524,1.0228 6.09554,-4.45965 9.87687,-10.57883 11.23898,-15.25866 0.1794,0.0364 0.35991,0.0716 0.54231,0.10352 3.71863,-10.39823 -0.52917,-19.866734 -4.76323,-20.47773 0.35677,-0.301875 0.70943,-0.613291 1.0568,-0.934853 -5.0127,-4.507178 -12.20117,-5.655438 -17.27181,-4.817478 -1.76599,-4.073638 -6.65402,-8.640938 -13.84549,-9.909889 -0.14985,0.418472 -0.2861,0.835533 -0.4105,1.250457 -2.77611,-2.752011 -14.672335,-0.917442 -23.383442,7.146655 0.126468,0.113743 0.254989,0.22471 0.384122,0.334193 -4.041782,3.409736 -8.272997,9.246023 -9.662007,15.872085 0.468509,-0.0151 0.935495,-0.0429 1.400409,-0.083 -3.859643,3.76849 -7.740715,10.61785 -7.932555,17.79884 1.323841,-0.25723 2.616419,-0.61226 3.867552,-1.04091 -3.02231,4.12993 -5.509071,10.30415 -5.086403,16.49043 1.585697,-0.43679 3.11236,-1.00617 4.565143,-1.67106 -2.41199,4.24783 -4.056586,10.09137 -3.109629,15.73093 2.194894,-0.78559 4.249345,-1.815 6.126335,-2.98907 -2.307659,4.21665 -3.842047,9.90189 -2.919993,15.39277 z"
         inkscape:transform-center-x="15.986773"
         inkscape:transform-center-y="31.94979" />
      <path
         id="path844"
         style="opacity:0.511922;mix-blend-mode:color-dodge;fill:url(#linearGradient1778);fill-opacity:1;stroke:none;stroke-width:0.309892px;stroke-linecap:butt;stroke-linejoin:miter;stroke-opacity:1"
         d="m 71.876196,160.2405 c 6.676945,-1.40521 11.969544,-5.01006 15.133349,-8.69416 -0.07715,2.0921 0.121865,4.27941 0.681215,6.49034 6.865489,-1.44489 12.266258,-5.21521 15.3951,-9.00612 0.21066,1.51286 0.57391,3.05103 1.11924,4.58681 7.14069,-2.12107 12.36298,-6.76446 14.95832,-11.04062 0.34066,1.25576 0.79064,2.51729 1.36934,3.76717 7.71488,-3.0033 12.73562,-8.97687 14.46192,-13.78851 0.25282,0.40754 0.51988,0.81227 0.8014,1.21313 6.48238,-3.8889 10.19354,-9.95205 11.30142,-14.83174 0.20637,0.0681 0.4137,0.13486 0.623,0.19882 3.2445,-10.73245 -2.43621,-21.716575 -7.28201,-23.053633 0.37563,-0.272056 0.74576,-0.555221 1.1089,-0.850265 -6.0869,-5.703077 -14.32428,-8.093915 -19.98233,-7.985959 -2.37436,-4.715906 -8.32581,-10.464694 -16.57773,-12.987393 -0.13064,0.431892 -0.24632,0.864421 -0.34869,1.29649 -3.39467,-3.437079 -16.681218,-3.326868 -25.788745,4.071946 0.153615,0.143816 0.309185,0.28513 0.465402,0.424833 -4.256389,3.071562 -8.502612,8.755313 -9.460893,15.749936 0.528566,0.05824 1.054186,0.101766 1.5764,0.131835 -4.017191,3.491092 -7.773639,10.33358 -7.326457,18.12235 1.473675,-0.0703 2.902898,-0.25159 4.278481,-0.51978 -3.036639,4.0175 -5.278408,10.346 -4.228068,17.14921 1.753237,-0.22407 3.42741,-0.60184 5.009188,-1.09534 -2.335345,4.24274 -3.655162,10.34475 -2.062324,16.6359 2.410088,-0.50719 4.638729,-1.30213 6.653237,-2.28275 -2.220215,4.2253 -3.429943,10.17243 -1.879074,16.29766 z"
         inkscape:transform-center-x="15.337905"
         inkscape:transform-center-y="29.6138" />
    </g>
  </g>
</svg>
