<?xml version="1.0" encoding="UTF-8" standalone="no"?>
<!-- Created with Inkscape (http://www.inkscape.org/) -->

<svg
   width="120mm"
   height="120mm"
   viewBox="0 0 120 120"
   version="1.1"
   id="svg5"
   inkscape:version="1.1 (c68e22c387, 2021-05-23)"
   sodipodi:docname="polyvinyl.svg"
   xmlns:inkscape="http://www.inkscape.org/namespaces/inkscape"
   xmlns:sodipodi="http://sodipodi.sourceforge.net/DTD/sodipodi-0.dtd"
   xmlns:xlink="http://www.w3.org/1999/xlink"
   xmlns="http://www.w3.org/2000/svg"
   xmlns:svg="http://www.w3.org/2000/svg">
  <sodipodi:namedview
     id="namedview7"
     pagecolor="#ffffff"
     bordercolor="#111111"
     borderopacity="1"
     inkscape:pageshadow="0"
     inkscape:pageopacity="0"
     inkscape:pagecheckerboard="1"
     inkscape:document-units="mm"
     showgrid="false"
     inkscape:zoom="0.67081229"
     inkscape:cx="239.26216"
     inkscape:cy="197.52172"
     inkscape:window-width="4498"
     inkscape:window-height="2978"
     inkscape:window-x="0"
     inkscape:window-y="20"
     inkscape:window-maximized="1"
     inkscape:current-layer="layer1"
     fit-margin-top="0"
     fit-margin-left="0"
     fit-margin-right="0"
     fit-margin-bottom="0">
    <inkscape:grid
       type="xygrid"
       id="grid1280"
       originx="-41.903183"
       originy="-96.104172" />
  </sodipodi:namedview>
  <defs
     id="defs2">
    <linearGradient
       inkscape:collect="always"
       id="linearGradient2821">
      <stop
         style="stop-color:#ffe800;stop-opacity:1;"
         offset="0"
         id="stop2817" />
      <stop
         style="stop-color:#ffbe00;stop-opacity:1"
         offset="1"
         id="stop2819" />
    </linearGradient>
    <linearGradient
       inkscape:collect="always"
       id="linearGradient1743">
      <stop
         style="stop-color:#1d1d1d;stop-opacity:1;"
         offset="0"
         id="stop1739" />
      <stop
         style="stop-color:#150041;stop-opacity:1"
         offset="1"
         id="stop1741" />
    </linearGradient>
    <linearGradient
       inkscape:collect="always"
       xlink:href="#linearGradient1743"
       id="linearGradient1745"
       x1="58.208332"
       y1="111.125"
       x2="158.75"
       y2="190.5"
       gradientUnits="userSpaceOnUse"
       gradientTransform="matrix(0.97529851,0,0,0.97529851,2.5171607,5.1968604)" />
    <linearGradient
       inkscape:collect="always"
       xlink:href="#linearGradient2821"
       id="linearGradient2823"
       x1="87.883522"
       y1="142.57732"
       x2="118.07681"
       y2="170.37614"
       gradientUnits="userSpaceOnUse"
       gradientTransform="matrix(0.97529851,0,0,0.97529851,2.5171607,3.8560061)" />
    <clipPath
       clipPathUnits="userSpaceOnUse"
       id="clipPath3031">
      <circle
         style="fill:none;fill-opacity:1;stroke:#3a6a8e;stroke-width:0.0899999"
         id="circle3033"
         cx="101.90318"
         cy="156.10417"
         r="61.519627" />
    </clipPath>
    <linearGradient
       inkscape:collect="always"
       xlink:href="#linearGradient1743"
       id="linearGradient3074"
       gradientUnits="userSpaceOnUse"
       gradientTransform="matrix(0.05687486,0,0,0.05687486,96.107454,147.30398)"
       x1="58.208332"
       y1="111.125"
       x2="158.75"
       y2="190.5" />
    <clipPath
       clipPathUnits="userSpaceOnUse"
       id="clipPath3242">
      <circle
         style="fill:none;fill-opacity:1;stroke:#3a6a8e;stroke-width:0.0877768"
         id="circle3244"
         cx="101.90318"
         cy="156.10417"
         r="60" />
    </clipPath>
  </defs>
  <g
     inkscape:label="Layer 1"
     inkscape:groupmode="layer"
     id="layer1"
     transform="translate(-41.903183,-96.104172)">
    <g
       id="g3227"
       clip-path="url(#clipPath3242)">
      <circle
         style="fill:url(#linearGradient1745);fill-opacity:1;stroke:#3a6a8e;stroke-width:0.0877768"
         id="path846"
         cx="101.90318"
         cy="156.10417"
         r="60" />
      <path
         style="opacity:0.16557;fill:#c4c4c4;fill-opacity:1;stroke:none;stroke-width:0.86552px;stroke-linecap:butt;stroke-linejoin:miter;stroke-opacity:1"
         d="M 82.268991,84.44738 121.53737,227.76095 70.124207,223.26288 133.68216,88.945449 Z"
         id="path1315" />
      <path
         style="opacity:0.16557;fill:#c4c4c4;fill-opacity:1;stroke:none;stroke-width:0.86552px;stroke-linecap:butt;stroke-linejoin:miter;stroke-opacity:1"
         d="M 70.124207,88.945441 133.68216,223.26288 82.268991,227.76096 121.53737,84.447372 Z"
         id="path1315-3" />
      <circle
         style="fill:url(#linearGradient2823);fill-opacity:1;stroke:none;stroke-width:0.0787661;stroke-opacity:1"
         id="path1849"
         cx="101.90318"
         cy="156.10417"
         r="18.52463" />
      <path
         id="path2567"
         style="opacity:0.0597136;fill:#efecca;fill-opacity:1;stroke:none;stroke-width:0.0877768;stroke-opacity:1"
         d="m 101.90318,107.15725 a 48.946944,48.946944 0 0 0 -48.946914,48.94692 48.946944,48.946944 0 0 0 48.946914,48.94692 48.946944,48.946944 0 0 0 48.94692,-48.94692 48.946944,48.946944 0 0 0 -48.94692,-48.94692 z m 0,2.89296 a 46.054181,46.054181 0 0 1 1.18591,0.0151 46.054181,46.054181 0 0 1 1.1849,0.0458 46.054181,46.054181 0 0 1 1.18339,0.0761 46.054181,46.054181 0 0 1 1.18087,0.10685 46.054181,46.054181 0 0 1 1.17836,0.13709 46.054181,46.054181 0 0 1 1.17381,0.16733 46.054181,46.054181 0 0 1 1.16928,0.19756 46.054181,46.054181 0 0 1 1.16373,0.22781 46.054181,46.054181 0 0 1 1.15769,0.25754 46.054181,46.054181 0 0 1 1.15063,0.28729 46.054181,46.054181 0 0 1 1.14307,0.31651 46.054181,46.054181 0 0 1 1.134,0.34624 46.054181,46.054181 0 0 1 1.12493,0.37498 46.054181,46.054181 0 0 1 1.11484,0.4042 46.054181,46.054181 0 0 1 1.10427,0.43244 46.054181,46.054181 0 0 1 1.09267,0.46115 46.054181,46.054181 0 0 1 1.08057,0.48838 46.054181,46.054181 0 0 1 1.06748,0.5166 46.054181,46.054181 0 0 1 1.05385,0.54382 46.054181,46.054181 0 0 1 1.03976,0.57102 46.054181,46.054181 0 0 1 1.02412,0.59725 46.054181,46.054181 0 0 1 1.00902,0.62345 46.054181,46.054181 0 0 1 0.99236,0.64915 46.054181,46.054181 0 0 1 0.97524,0.67485 46.054181,46.054181 0 0 1 0.95761,0.69955 46.054181,46.054181 0 0 1 0.93945,0.72375 46.054181,46.054181 0 0 1 0.92031,0.74793 46.054181,46.054181 0 0 1 0.90064,0.77162 46.054181,46.054181 0 0 1 0.88049,0.7943 46.054181,46.054181 0 0 1 0.85982,0.81648 46.054181,46.054181 0 0 1 0.83866,0.83866 46.054181,46.054181 0 0 1 0.81648,0.85983 46.054181,46.054181 0 0 1 0.7943,0.88049 46.054181,46.054181 0 0 1 0.77162,0.90064 46.054181,46.054181 0 0 1 0.74794,0.9208 46.054181,46.054181 0 0 1 0.72374,0.93895 46.054181,46.054181 0 0 1 0.69955,0.9576 46.054181,46.054181 0 0 1 0.67486,0.97524 46.054181,46.054181 0 0 1 0.64915,0.99238 46.054181,46.054181 0 0 1 0.62344,1.00901 46.054181,46.054181 0 0 1 0.59725,1.02412 46.054181,46.054181 0 0 1 0.57103,1.03976 46.054181,46.054181 0 0 1 0.54381,1.05386 46.054181,46.054181 0 0 1 0.5166,1.06747 46.054181,46.054181 0 0 1 0.48888,1.08057 46.054181,46.054181 0 0 1 0.46066,1.09268 46.054181,46.054181 0 0 1 0.43243,1.10425 46.054181,46.054181 0 0 1 0.40421,1.11486 46.054181,46.054181 0 0 1 0.37497,1.12492 46.054181,46.054181 0 0 1 0.34624,1.1345 46.054181,46.054181 0 0 1 0.31652,1.14257 46.054181,46.054181 0 0 1 0.28728,1.15063 46.054181,46.054181 0 0 1 0.25754,1.15769 46.054181,46.054181 0 0 1 0.22781,1.16374 46.054181,46.054181 0 0 1 0.19756,1.16927 46.054181,46.054181 0 0 1 0.16734,1.17381 46.054181,46.054181 0 0 1 0.13708,1.17836 46.054181,46.054181 0 0 1 0.10685,1.18087 46.054181,46.054181 0 0 1 0.0761,1.18339 46.054181,46.054181 0 0 1 0.0458,1.1849 46.054181,46.054181 0 0 1 0.0151,1.18591 46.054181,46.054181 0 0 1 -0.12852,3.44181 46.054181,46.054181 0 0 1 -0.38556,3.42216 46.054181,46.054181 0 0 1 -0.64058,3.38435 46.054181,46.054181 0 0 1 -0.89107,3.3264 46.054181,46.054181 0 0 1 -1.13753,3.2508 46.054181,46.054181 0 0 1 -1.37743,3.15654 46.054181,46.054181 0 0 1 -1.60927,3.04517 46.054181,46.054181 0 0 1 -1.83254,2.91614 46.054181,46.054181 0 0 1 -2.04472,2.77099 46.054181,46.054181 0 0 1 -2.24684,2.61072 46.054181,46.054181 0 0 1 -2.43532,2.43532 46.054181,46.054181 0 0 1 -2.61022,2.24634 46.054181,46.054181 0 0 1 -2.77099,2.04523 46.054181,46.054181 0 0 1 -2.91614,1.83204 46.054181,46.054181 0 0 1 -3.04517,1.60926 46.054181,46.054181 0 0 1 -3.15654,1.37743 46.054181,46.054181 0 0 1 -3.2508,1.13752 46.054181,46.054181 0 0 1 -3.3269,0.89159 46.054181,46.054181 0 0 1 -3.38385,0.64008 46.054181,46.054181 0 0 1 -3.42266,0.38555 46.054181,46.054181 0 0 1 -3.44131,0.12903 46.054181,46.054181 0 0 1 -3.441808,-0.12903 46.054181,46.054181 0 0 1 -3.422157,-0.38555 46.054181,46.054181 0 0 1 -3.384355,-0.64008 46.054181,46.054181 0 0 1 -3.326396,-0.89159 46.054181,46.054181 0 0 1 -3.250797,-1.13752 46.054181,46.054181 0 0 1 -3.156548,-1.37743 46.054181,46.054181 0 0 1 -3.045165,-1.60926 46.054181,46.054181 0 0 1 -2.916143,-1.83204 46.054181,46.054181 0 0 1 -2.770989,-2.04523 46.054181,46.054181 0 0 1 -2.610715,-2.24634 46.054181,46.054181 0 0 1 -2.435325,-2.43532 46.054181,46.054181 0 0 1 -2.246326,-2.61072 46.054181,46.054181 0 0 1 -2.04523,-2.77099 46.054181,46.054181 0 0 1 -1.832038,-2.91614 46.054181,46.054181 0 0 1 -1.609271,-3.04517 46.054181,46.054181 0 0 1 -1.377431,-3.15654 46.054181,46.054181 0 0 1 -1.137525,-3.2508 46.054181,46.054181 0 0 1 -0.891576,-3.3264 46.054181,46.054181 0 0 1 -0.64008,-3.38435 46.054181,46.054181 0 0 1 -0.385559,-3.42216 46.054181,46.054181 0 0 1 -0.129024,-3.44181 46.054181,46.054181 0 0 1 0.129024,-3.44131 46.054181,46.054181 0 0 1 0.385559,-3.42265 46.054181,46.054181 0 0 1 0.64008,-3.38386 46.054181,46.054181 0 0 1 0.891576,-3.3269 46.054181,46.054181 0 0 1 1.137525,-3.2508 46.054181,46.054181 0 0 1 1.377431,-3.15655 46.054181,46.054181 0 0 1 1.609271,-3.04516 46.054181,46.054181 0 0 1 1.832038,-2.91614 46.054181,46.054181 0 0 1 2.04523,-2.77099 46.054181,46.054181 0 0 1 2.246326,-2.61022 46.054181,46.054181 0 0 1 2.435325,-2.43532 46.054181,46.054181 0 0 1 2.610715,-2.24683 46.054181,46.054181 0 0 1 2.770989,-2.04472 46.054181,46.054181 0 0 1 2.916143,-1.83255 46.054181,46.054181 0 0 1 3.045165,-1.60926 46.054181,46.054181 0 0 1 3.156548,-1.37744 46.054181,46.054181 0 0 1 3.250797,-1.13753 46.054181,46.054181 0 0 1 3.326396,-0.89107 46.054181,46.054181 0 0 1 3.384355,-0.64058 46.054181,46.054181 0 0 1 3.422157,-0.38556 46.054181,46.054181 0 0 1 3.441808,-0.12851 z" />
      <path
         id="path2567-5"
         style="opacity:0.0597136;fill:#efecca;fill-opacity:1;stroke:none;stroke-width:0.0627869;stroke-opacity:1"
         d="m 101.90319,121.09237 a 35.011818,35.011818 0 0 0 -35.011803,35.0118 35.011818,35.011818 0 0 0 35.011803,35.0118 35.011818,35.011818 0 0 0 35.01179,-35.0118 35.011818,35.011818 0 0 0 -35.01179,-35.0118 z m 0,2.06934 a 32.942621,32.942621 0 0 1 0.8483,0.0107 32.942621,32.942621 0 0 1 0.84753,0.0329 32.942621,32.942621 0 0 1 0.84649,0.0545 32.942621,32.942621 0 0 1 0.8447,0.0765 32.942621,32.942621 0 0 1 0.84287,0.098 32.942621,32.942621 0 0 1 0.83962,0.11971 32.942621,32.942621 0 0 1 0.83638,0.14131 32.942621,32.942621 0 0 1 0.83242,0.16295 32.942621,32.942621 0 0 1 0.8281,0.18423 32.942621,32.942621 0 0 1 0.82305,0.20548 32.942621,32.942621 0 0 1 0.81764,0.22642 32.942621,32.942621 0 0 1 0.81115,0.24766 32.942621,32.942621 0 0 1 0.80466,0.26821 32.942621,32.942621 0 0 1 0.79746,0.28913 32.942621,32.942621 0 0 1 0.78988,0.30933 32.942621,32.942621 0 0 1 0.78159,0.32985 32.942621,32.942621 0 0 1 0.77292,0.34935 32.942621,32.942621 0 0 1 0.76356,0.36952 32.942621,32.942621 0 0 1 0.75385,0.38899 32.942621,32.942621 0 0 1 0.74373,0.40846 32.942621,32.942621 0 0 1 0.73256,0.42721 32.942621,32.942621 0 0 1 0.72175,0.44596 32.942621,32.942621 0 0 1 0.70983,0.46432 32.942621,32.942621 0 0 1 0.69761,0.48274 32.942621,32.942621 0 0 1 0.68498,0.50038 32.942621,32.942621 0 0 1 0.67198,0.51768 32.942621,32.942621 0 0 1 0.65828,0.53503 32.942621,32.942621 0 0 1 0.64425,0.55192 32.942621,32.942621 0 0 1 0.6298,0.56817 32.942621,32.942621 0 0 1 0.61506,0.58403 32.942621,32.942621 0 0 1 0.59987,0.5999 32.942621,32.942621 0 0 1 0.58403,0.61503 32.942621,32.942621 0 0 1 0.56818,0.62981 32.942621,32.942621 0 0 1 0.55193,0.64422 32.942621,32.942621 0 0 1 0.535,0.65866 32.942621,32.942621 0 0 1 0.51768,0.67163 32.942621,32.942621 0 0 1 0.5004,0.68498 32.942621,32.942621 0 0 1 0.48274,0.6976 32.942621,32.942621 0 0 1 0.46432,0.70984 32.942621,32.942621 0 0 1 0.44597,0.72175 32.942621,32.942621 0 0 1 0.4272,0.73255 32.942621,32.942621 0 0 1 0.40845,0.74375 32.942621,32.942621 0 0 1 0.38899,0.75383 32.942621,32.942621 0 0 1 0.36954,0.76357 32.942621,32.942621 0 0 1 0.34969,0.77291 32.942621,32.942621 0 0 1 0.32952,0.78159 32.942621,32.942621 0 0 1 0.30931,0.7899 32.942621,32.942621 0 0 1 0.28913,0.79744 32.942621,32.942621 0 0 1 0.26823,0.80464 32.942621,32.942621 0 0 1 0.24766,0.81153 32.942621,32.942621 0 0 1 0.2264,0.8173 32.942621,32.942621 0 0 1 0.20548,0.82303 32.942621,32.942621 0 0 1 0.18421,0.82809 32.942621,32.942621 0 0 1 0.16297,0.83242 32.942621,32.942621 0 0 1 0.14132,0.8364 32.942621,32.942621 0 0 1 0.1197,0.83963 32.942621,32.942621 0 0 1 0.098,0.84287 32.942621,32.942621 0 0 1 0.0765,0.84468 32.942621,32.942621 0 0 1 0.0545,0.84648 32.942621,32.942621 0 0 1 0.0329,0.84756 32.942621,32.942621 0 0 1 0.0107,0.84829 32.942621,32.942621 0 0 1 -0.092,2.46193 32.942621,32.942621 0 0 1 -0.27578,2.44789 32.942621,32.942621 0 0 1 -0.4582,2.42082 32.942621,32.942621 0 0 1 -0.63739,2.37939 32.942621,32.942621 0 0 1 -0.81368,2.32529 32.942621,32.942621 0 0 1 -0.98527,2.25788 32.942621,32.942621 0 0 1 -1.15112,2.17821 32.942621,32.942621 0 0 1 -1.31081,2.08593 32.942621,32.942621 0 0 1 -1.4626,1.98209 32.942621,32.942621 0 0 1 -1.60715,1.86744 32.942621,32.942621 0 0 1 -1.74199,1.742 32.942621,32.942621 0 0 1 -1.8671,1.6068 32.942621,32.942621 0 0 1 -1.9821,1.46296 32.942621,32.942621 0 0 1 -2.08591,1.31045 32.942621,32.942621 0 0 1 -2.17821,1.15112 32.942621,32.942621 0 0 1 -2.25789,0.98527 32.942621,32.942621 0 0 1 -2.32529,0.81367 32.942621,32.942621 0 0 1 -2.37974,0.63775 32.942621,32.942621 0 0 1 -2.42047,0.45785 32.942621,32.942621 0 0 1 -2.44825,0.27578 32.942621,32.942621 0 0 1 -2.46156,0.0924 32.942621,32.942621 0 0 1 -2.46194,-0.0924 32.942621,32.942621 0 0 1 -2.447873,-0.27578 32.942621,32.942621 0 0 1 -2.420834,-0.45785 32.942621,32.942621 0 0 1 -2.379376,-0.63775 32.942621,32.942621 0 0 1 -2.325301,-0.81367 32.942621,32.942621 0 0 1 -2.257883,-0.98527 32.942621,32.942621 0 0 1 -2.17821,-1.15112 32.942621,32.942621 0 0 1 -2.08592,-1.31045 32.942621,32.942621 0 0 1 -1.982092,-1.46296 32.942621,32.942621 0 0 1 -1.867449,-1.6068 32.942621,32.942621 0 0 1 -1.741991,-1.742 32.942621,32.942621 0 0 1 -1.606801,-1.86744 32.942621,32.942621 0 0 1 -1.462956,-1.98209 32.942621,32.942621 0 0 1 -1.310459,-2.08593 32.942621,32.942621 0 0 1 -1.151113,-2.17821 32.942621,32.942621 0 0 1 -0.985278,-2.25788 32.942621,32.942621 0 0 1 -0.813675,-2.32529 32.942621,32.942621 0 0 1 -0.637746,-2.37939 32.942621,32.942621 0 0 1 -0.45785,-2.42082 32.942621,32.942621 0 0 1 -0.275791,-2.44789 32.942621,32.942621 0 0 1 -0.09228,-2.46193 32.942621,32.942621 0 0 1 0.09228,-2.46158 32.942621,32.942621 0 0 1 0.275791,-2.44821 32.942621,32.942621 0 0 1 0.45785,-2.42049 32.942621,32.942621 0 0 1 0.637746,-2.37974 32.942621,32.942621 0 0 1 0.813675,-2.32529 32.942621,32.942621 0 0 1 0.985278,-2.25789 32.942621,32.942621 0 0 1 1.151113,-2.17821 32.942621,32.942621 0 0 1 1.310459,-2.08591 32.942621,32.942621 0 0 1 1.462956,-1.9821 32.942621,32.942621 0 0 1 1.606801,-1.8671 32.942621,32.942621 0 0 1 1.741991,-1.74198 32.942621,32.942621 0 0 1 1.867449,-1.60717 32.942621,32.942621 0 0 1 1.982092,-1.46259 32.942621,32.942621 0 0 1 2.08592,-1.31082 32.942621,32.942621 0 0 1 2.17821,-1.15111 32.942621,32.942621 0 0 1 2.257883,-0.98527 32.942621,32.942621 0 0 1 2.325301,-0.81369 32.942621,32.942621 0 0 1 2.379376,-0.63738 32.942621,32.942621 0 0 1 2.420834,-0.45822 32.942621,32.942621 0 0 1 2.447873,-0.27578 32.942621,32.942621 0 0 1 2.46194,-0.092 z" />
      <circle
         style="fill:url(#linearGradient3074);fill-opacity:1;stroke:#3a6a8e;stroke-width:0.00511872"
         id="path846-1"
         cx="101.90318"
         cy="156.10417"
         r="3.4989197" />
    </g>
  </g>
</svg>
