<?xml version="1.0" encoding="UTF-8" standalone="no"?>
<svg
   xmlns:dc="http://purl.org/dc/elements/1.1/"
   xmlns:cc="http://creativecommons.org/ns#"
   xmlns:rdf="http://www.w3.org/1999/02/22-rdf-syntax-ns#"
   xmlns:svg="http://www.w3.org/2000/svg"
   xmlns="http://www.w3.org/2000/svg"
   xmlns:sodipodi="http://sodipodi.sourceforge.net/DTD/sodipodi-0.dtd"
   xmlns:inkscape="http://www.inkscape.org/namespaces/inkscape"
   width="120mm"
   height="120mm"
   viewBox="0 0 120 120"
   version="1.1"
   id="svg8"
   inkscape:version="1.0.2 (e86c870879, 2021-01-15)">
  <defs
     id="defs2">
    <clipPath
       clipPathUnits="userSpaceOnUse"
       id="clipPath1860">
      <circle
         style="mix-blend-mode:normal;fill:none;fill-opacity:0.667554;stroke:#000000;stroke-width:0.0264583"
         id="circle1862"
         cx="103.45952"
         cy="148.714"
         r="59.920784" />
    </clipPath>
  </defs>
  <sodipodi:namedview
     id="base"
     pagecolor="#ffffff"
     bordercolor="#666666"
     borderopacity="1.0"
     inkscape:pageopacity="0.0"
     inkscape:pageshadow="2"
     inkscape:zoom="1.979899"
     inkscape:cx="246.45257"
     inkscape:cy="103.48468"
     inkscape:document-units="mm"
     inkscape:current-layer="layer1"
     inkscape:document-rotation="0"
     showgrid="false"
     inkscape:snap-object-midpoints="true"
     fit-margin-top="0"
     fit-margin-left="0"
     fit-margin-right="0"
     fit-margin-bottom="0"
     inkscape:pagecheckerboard="true"
     inkscape:window-width="4498"
     inkscape:window-height="2978"
     inkscape:window-x="0"
     inkscape:window-y="20"
     inkscape:window-maximized="0" />
  <metadata
     id="metadata5">
    <rdf:RDF>
      <cc:Work
         rdf:about="">
        <dc:format>image/svg+xml</dc:format>
        <dc:type
           rdf:resource="http://purl.org/dc/dcmitype/StillImage" />
        <dc:title></dc:title>
      </cc:Work>
    </rdf:RDF>
  </metadata>
  <g
     inkscape:label="Layer 1"
     inkscape:groupmode="layer"
     id="layer1"
     transform="translate(-43.459517,-88.714002)">
    <circle
       style="opacity:1;fill:#ffffff;fill-opacity:1;stroke:none;stroke-width:0.0364166"
       id="path1864"
       cx="103.45952"
       cy="148.714"
       r="60" />
    <g
       id="g1849"
       clip-path="url(#clipPath1860)"
       transform="matrix(1.001322,0,0,1.001322,-0.136776,-0.19660352)">
      <path
         style="opacity:0.738089;fill:#ff0471;fill-opacity:1;stroke:none;stroke-width:0.264583px;stroke-linecap:butt;stroke-linejoin:miter;stroke-opacity:1"
         d="M 207.68737,130.33582 178.2967,223.55118 103.45952,148.714 Z"
         id="path1636-7-9-2-2-8-9" />
      <path
         style="opacity:0.738089;fill:#ff2804;fill-opacity:1;stroke:none;stroke-width:0.264583px;stroke-linecap:butt;stroke-linejoin:miter;stroke-opacity:1"
         d="M 164.16441,62.018433 209.29527,148.714 H 103.45952 Z"
         id="path1636" />
      <path
         style="opacity:0.738089;fill:#ffe604;fill-opacity:1;stroke:none;stroke-width:0.264583px;stroke-linecap:butt;stroke-linejoin:miter;stroke-opacity:1"
         d="M 85.081387,44.486051 178.29675,73.876738 103.45958,148.71392 Z"
         id="path1636-7" />
      <path
         style="opacity:0.738089;fill:#00c24d;fill-opacity:1;stroke:none;stroke-width:0.264583px;stroke-linecap:butt;stroke-linejoin:miter;stroke-opacity:1"
         d="M -0.768281,167.09211 28.622403,73.876753 103.45958,148.71392 Z"
         id="path1636-7-9" />
      <path
         style="opacity:0.738089;fill:#001aff;fill-opacity:1;stroke:none;stroke-width:0.264583px;stroke-linecap:butt;stroke-linejoin:miter;stroke-opacity:1"
         d="M 121.83776,252.94178 28.62241,223.5511 103.45958,148.71392 Z"
         id="path1636-7-9-2-2" />
      <path
         style="opacity:0.457817;fill:#71ff25;fill-opacity:1;stroke:none;stroke-width:0.264583px;stroke-linecap:butt;stroke-linejoin:miter;stroke-opacity:1"
         d="m 16.764,88.009037 86.69557,-45.130862 1e-5,105.835745 z"
         id="path1636-7-5" />
      <path
         style="opacity:0.619208;fill:#5ae5ff;fill-opacity:1;stroke:none;stroke-width:0.264583px;stroke-linecap:butt;stroke-linejoin:miter;stroke-opacity:1"
         d="m 42.754688,235.40949 -45.1308541,-86.69556 105.8357461,-1e-5 z"
         id="path1636-7-9-2" />
      <path
         style="opacity:0.670749;fill:#c14eff;fill-opacity:1;stroke:none;stroke-width:0.264583px;stroke-linecap:butt;stroke-linejoin:miter;stroke-opacity:1"
         d="m 190.15508,209.41889 -86.69555,45.13086 -1e-5,-105.83575 z"
         id="path1636-7-9-2-2-8" />
      <path
         id="path946"
         style="opacity:0.280505;mix-blend-mode:normal;fill:#ffffff;fill-opacity:1;stroke:none;stroke-width:0.0264583"
         d="m 103.42108,88.793028 a 59.920782,59.920782 0 0 0 -59.882136,59.920892 59.920782,59.920782 0 0 0 59.920376,59.92089 59.920782,59.920782 0 0 0 59.92089,-59.92089 59.920782,59.920782 0 0 0 -59.92089,-59.920892 59.920782,59.920782 0 0 0 -0.0382,0 z m 0.0382,19.973462 a 39.947386,39.947386 0 0 1 0.27337,10e-4 39.947386,39.947386 0 0 1 0.27336,0.003 39.947386,39.947386 0 0 1 0.27337,0.005 39.947386,39.947386 0 0 1 0.27337,0.006 39.947386,39.947386 0 0 1 0.27337,0.009 39.947386,39.947386 0 0 1 0.27337,0.01 39.947386,39.947386 0 0 1 0.27285,0.0124 39.947386,39.947386 0 0 1 0.27285,0.0139 39.947386,39.947386 0 0 1 0.27337,0.016 39.947386,39.947386 0 0 1 0.27233,0.0176 39.947386,39.947386 0 0 1 0.27285,0.0196 39.947386,39.947386 0 0 1 0.27286,0.0217 39.947386,39.947386 0 0 1 0.27233,0.0233 39.947386,39.947386 0 0 1 0.27182,0.0253 39.947386,39.947386 0 0 1 0.27233,0.0269 39.947386,39.947386 0 0 1 0.27182,0.0289 39.947386,39.947386 0 0 1 0.27182,0.031 39.947386,39.947386 0 0 1 0.2713,0.0326 39.947386,39.947386 0 0 1 0.2713,0.0346 39.947386,39.947386 0 0 1 0.27079,0.0362 39.947386,39.947386 0 0 1 0.27078,0.0382 39.947386,39.947386 0 0 1 0.27027,0.0403 39.947386,39.947386 0 0 1 0.27027,0.0419 39.947386,39.947386 0 0 1 0.26975,0.0439 39.947386,39.947386 0 0 1 0.26975,0.0455 39.947386,39.947386 0 0 1 0.26923,0.0475 39.947386,39.947386 0 0 1 0.26872,0.0491 39.947386,39.947386 0 0 1 0.26872,0.0511 39.947386,39.947386 0 0 1 0.2682,0.0532 39.947386,39.947386 0 0 1 0.26768,0.0548 39.947386,39.947386 0 0 1 0.26717,0.0563 39.947386,39.947386 0 0 1 0.26717,0.0584 39.947386,39.947386 0 0 1 0.26665,0.0605 39.947386,39.947386 0 0 1 0.26613,0.062 39.947386,39.947386 0 0 1 0.26614,0.0641 39.947386,39.947386 0 0 1 0.26509,0.0656 39.947386,39.947386 0 0 1 0.2651,0.0677 39.947386,39.947386 0 0 1 0.26407,0.0692 39.947386,39.947386 0 0 1 0.26407,0.0713 39.947386,39.947386 0 0 1 0.26355,0.0734 39.947386,39.947386 0 0 1 0.26303,0.0744 39.947386,39.947386 0 0 1 0.26252,0.077 39.947386,39.947386 0 0 1 0.262,0.078 39.947386,39.947386 0 0 1 0.26096,0.0801 39.947386,39.947386 0 0 1 0.26097,0.0822 39.947386,39.947386 0 0 1 0.26045,0.0837 39.947386,39.947386 0 0 1 0.25941,0.0858 39.947386,39.947386 0 0 1 0.2589,0.0873 39.947386,39.947386 0 0 1 0.25838,0.0889 39.947386,39.947386 0 0 1 0.25787,0.091 39.947386,39.947386 0 0 1 0.25735,0.0925 39.947386,39.947386 0 0 1 0.25683,0.0946 39.947386,39.947386 0 0 1 0.2558,0.0961 39.947386,39.947386 0 0 1 0.25528,0.0977 39.947386,39.947386 0 0 1 0.25476,0.0997 39.947386,39.947386 0 0 1 0.25374,0.10129 39.947386,39.947386 0 0 1 0.25321,0.10283 39.947386,39.947386 0 0 1 0.25218,0.10491 39.947386,39.947386 0 0 1 0.25218,0.10645 39.947386,39.947386 0 0 1 0.25063,0.10852 39.947386,39.947386 0 0 1 0.25063,0.11007 39.947386,39.947386 0 0 1 0.2496,0.11162 39.947386,39.947386 0 0 1 0.24856,0.11317 39.947386,39.947386 0 0 1 0.24805,0.11524 39.947386,39.947386 0 0 1 0.24701,0.11679 39.947386,39.947386 0 0 1 0.2465,0.11834 39.947386,39.947386 0 0 1 0.24546,0.12041 39.947386,39.947386 0 0 1 0.24495,0.12195 39.947386,39.947386 0 0 1 0.24391,0.12351 39.947386,39.947386 0 0 1 0.24288,0.12506 39.947386,39.947386 0 0 1 0.24185,0.1266 39.947386,39.947386 0 0 1 0.24133,0.12868 39.947386,39.947386 0 0 1 0.24081,0.13022 39.947386,39.947386 0 0 1 0.23926,0.13178 39.947386,39.947386 0 0 1 0.23875,0.13332 39.947386,39.947386 0 0 1 0.23771,0.13488 39.947386,39.947386 0 0 1 0.23668,0.13694 39.947386,39.947386 0 0 1 0.23564,0.13798 39.947386,39.947386 0 0 1 0.23513,0.14004 39.947386,39.947386 0 0 1 0.23409,0.14159 39.947386,39.947386 0 0 1 0.23255,0.14315 39.947386,39.947386 0 0 1 0.23202,0.14469 39.947386,39.947386 0 0 1 0.231,0.14624 39.947386,39.947386 0 0 1 0.22996,0.1478 39.947386,39.947386 0 0 1 0.22893,0.14935 39.947386,39.947386 0 0 1 0.22789,0.15089 39.947386,39.947386 0 0 1 0.22686,0.15296 39.947386,39.947386 0 0 1 0.22582,0.154 39.947386,39.947386 0 0 1 0.2248,0.15554 39.947386,39.947386 0 0 1 0.22375,0.1571 39.947386,39.947386 0 0 1 0.22273,0.15865 39.947386,39.947386 0 0 1 0.22118,0.16019 39.947386,39.947386 0 0 1 0.22065,0.16175 39.947386,39.947386 0 0 1 0.21911,0.1633 39.947386,39.947386 0 0 1 0.21808,0.16485 39.947386,39.947386 0 0 1 0.21704,0.16639 39.947386,39.947386 0 0 1 0.216,0.16744 39.947386,39.947386 0 0 1 0.21498,0.16898 39.947386,39.947386 0 0 1 0.21342,0.17105 39.947386,39.947386 0 0 1 0.21239,0.17208 39.947386,39.947386 0 0 1 0.21136,0.17312 39.947386,39.947386 0 0 1 0.20981,0.17518 39.947386,39.947386 0 0 1 0.20877,0.17622 39.947386,39.947386 0 0 1 0.20774,0.17828 39.947386,39.947386 0 0 1 0.2067,0.17932 39.947386,39.947386 0 0 1 0.20516,0.18035 39.947386,39.947386 0 0 1 0.2036,0.1819 39.947386,39.947386 0 0 1 0.20257,0.18397 39.947386,39.947386 0 0 1 0.20154,0.18448 39.947386,39.947386 0 0 1 0.19999,0.18655 39.947386,39.947386 0 0 1 0.19895,0.18759 39.947386,39.947386 0 0 1 0.19793,0.18862 39.947386,39.947386 0 0 1 0.19585,0.19017 39.947386,39.947386 0 0 1 0.19534,0.19172 39.947386,39.947386 0 0 1 0.19378,0.19327 39.947386,39.947386 0 0 1 0.19224,0.1943 39.947386,39.947386 0 0 1 0.19068,0.19534 39.947386,39.947386 0 0 1 0.18966,0.19688 39.947386,39.947386 0 0 1 0.18862,0.19844 39.947386,39.947386 0 0 1 0.18707,0.19947 39.947386,39.947386 0 0 1 0.18551,0.20051 39.947386,39.947386 0 0 1 0.18397,0.20205 39.947386,39.947386 0 0 1 0.18294,0.20309 39.947386,39.947386 0 0 1 0.18138,0.20464 39.947386,39.947386 0 0 1 0.17984,0.20567 39.947386,39.947386 0 0 1 0.1788,0.20722 39.947386,39.947386 0 0 1 0.17725,0.20826 39.947386,39.947386 0 0 1 0.17569,0.20929 39.947386,39.947386 0 0 1 0.17416,0.21032 39.947386,39.947386 0 0 1 0.17311,0.21188 39.947386,39.947386 0 0 1 0.17105,0.2129 39.947386,39.947386 0 0 1 0.17002,0.21446 39.947386,39.947386 0 0 1 0.16846,0.21497 39.947386,39.947386 0 0 1 0.16691,0.21653 39.947386,39.947386 0 0 1 0.16589,0.21756 39.947386,39.947386 0 0 1 0.16381,0.21859 39.947386,39.947386 0 0 1 0.16278,0.22014 39.947386,39.947386 0 0 1 0.16071,0.22066 39.947386,39.947386 0 0 1 0.15969,0.22221 39.947386,39.947386 0 0 1 0.15813,0.22324 39.947386,39.947386 0 0 1 0.15606,0.22427 39.947386,39.947386 0 0 1 0.15503,0.22479 39.947386,39.947386 0 0 1 0.15348,0.22635 39.947386,39.947386 0 0 1 0.15192,0.22738 39.947386,39.947386 0 0 1 0.14987,0.22841 39.947386,39.947386 0 0 1 0.14883,0.22944 39.947386,39.947386 0 0 1 0.14727,0.23048 39.947386,39.947386 0 0 1 0.14521,0.23151 39.947386,39.947386 0 0 1 0.14418,0.23254 39.947386,39.947386 0 0 1 0.14263,0.23306 39.947386,39.947386 0 0 1 0.14056,0.23461 39.947386,39.947386 0 0 1 0.13901,0.23513 39.947386,39.947386 0 0 1 0.13746,0.23616 39.947386,39.947386 0 0 1 0.13591,0.2372 39.947386,39.947386 0 0 1 0.13435,0.23822 39.947386,39.947386 0 0 1 0.13281,0.23927 39.947386,39.947386 0 0 1 0.13074,0.23977 39.947386,39.947386 0 0 1 0.12971,0.24082 39.947386,39.947386 0 0 1 0.12764,0.24184 39.947386,39.947386 0 0 1 0.12609,0.24236 39.947386,39.947386 0 0 1 0.12454,0.2434 39.947386,39.947386 0 0 1 0.12248,0.24443 39.947386,39.947386 0 0 1 0.12092,0.24495 39.947386,39.947386 0 0 1 0.11937,0.24598 39.947386,39.947386 0 0 1 0.11782,0.24701 39.947386,39.947386 0 0 1 0.11628,0.24753 39.947386,39.947386 0 0 1 0.1142,0.24805 39.947386,39.947386 0 0 1 0.11266,0.24959 39.947386,39.947386 0 0 1 0.11058,0.2496 39.947386,39.947386 0 0 1 0.10904,0.25063 39.947386,39.947386 0 0 1 0.10749,0.25167 39.947386,39.947386 0 0 1 0.10593,0.25166 39.947386,39.947386 0 0 1 0.10387,0.25321 39.947386,39.947386 0 0 1 0.10232,0.25322 39.947386,39.947386 0 0 1 0.10077,0.25425 39.947386,39.947386 0 0 1 0.0987,0.25476 39.947386,39.947386 0 0 1 0.0971,0.2558 39.947386,39.947386 0 0 1 0.0951,0.25632 39.947386,39.947386 0 0 1 0.0935,0.25683 39.947386,39.947386 0 0 1 0.092,0.25734 39.947386,39.947386 0 0 1 0.0899,0.25839 39.947386,39.947386 0 0 1 0.0884,0.25838 39.947386,39.947386 0 0 1 0.0863,0.25942 39.947386,39.947386 0 0 1 0.0848,0.25993 39.947386,39.947386 0 0 1 0.0827,0.26045 39.947386,39.947386 0 0 1 0.0811,0.26148 39.947386,39.947386 0 0 1 0.0796,0.26148 39.947386,39.947386 0 0 1 0.0775,0.262 39.947386,39.947386 0 0 1 0.076,0.26252 39.947386,39.947386 0 0 1 0.0739,0.26355 39.947386,39.947386 0 0 1 0.0718,0.26355 39.947386,39.947386 0 0 1 0.0708,0.26406 39.947386,39.947386 0 0 1 0.0682,0.26459 39.947386,39.947386 0 0 1 0.0667,0.2651 39.947386,39.947386 0 0 1 0.0651,0.26561 39.947386,39.947386 0 0 1 0.063,0.26614 39.947386,39.947386 0 0 1 0.0615,0.26665 39.947386,39.947386 0 0 1 0.0594,0.26665 39.947386,39.947386 0 0 1 0.0574,0.26717 39.947386,39.947386 0 0 1 0.0558,0.26768 39.947386,39.947386 0 0 1 0.0543,0.2682 39.947386,39.947386 0 0 1 0.0517,0.2682 39.947386,39.947386 0 0 1 0.0506,0.26872 39.947386,39.947386 0 0 1 0.0481,0.26923 39.947386,39.947386 0 0 1 0.047,0.26924 39.947386,39.947386 0 0 1 0.0444,0.26975 39.947386,39.947386 0 0 1 0.0429,0.26975 39.947386,39.947386 0 0 1 0.0413,0.27027 39.947386,39.947386 0 0 1 0.0393,0.27078 39.947386,39.947386 0 0 1 0.0372,0.27079 39.947386,39.947386 0 0 1 0.0357,0.27078 39.947386,39.947386 0 0 1 0.0336,0.2713 39.947386,39.947386 0 0 1 0.0315,0.27182 39.947386,39.947386 0 0 1 0.03,0.27182 39.947386,39.947386 0 0 1 0.0279,0.27182 39.947386,39.947386 0 0 1 0.0264,0.27181 39.947386,39.947386 0 0 1 0.0243,0.27234 39.947386,39.947386 0 0 1 0.0227,0.27285 39.947386,39.947386 0 0 1 0.0207,0.27234 39.947386,39.947386 0 0 1 0.0186,0.27285 39.947386,39.947386 0 0 1 0.0171,0.27285 39.947386,39.947386 0 0 1 0.015,0.27285 39.947386,39.947386 0 0 1 0.0129,0.27337 39.947386,39.947386 0 0 1 0.0114,0.27285 39.947386,39.947386 0 0 1 0.009,0.27337 39.947386,39.947386 0 0 1 0.008,0.27337 39.947386,39.947386 0 0 1 0.006,0.27337 39.947386,39.947386 0 0 1 0.004,0.27336 39.947386,39.947386 0 0 1 0.002,0.27337 39.947386,39.947386 0 0 1 0,0.1447 39.947386,39.947386 0 0 1 -0.001,0.27336 39.947386,39.947386 0 0 1 -0.003,0.27337 39.947386,39.947386 0 0 1 -0.005,0.27337 39.947386,39.947386 0 0 1 -0.007,0.27337 39.947386,39.947386 0 0 1 -0.008,0.27337 39.947386,39.947386 0 0 1 -0.0103,0.27285 39.947386,39.947386 0 0 1 -0.0119,0.27337 39.947386,39.947386 0 0 1 -0.0145,0.27285 39.947386,39.947386 0 0 1 -0.0155,0.27285 39.947386,39.947386 0 0 1 -0.0181,0.27285 39.947386,39.947386 0 0 1 -0.0196,0.27285 39.947386,39.947386 0 0 1 -0.0212,0.27234 39.947386,39.947386 0 0 1 -0.0233,0.27233 39.947386,39.947386 0 0 1 -0.0253,0.27234 39.947386,39.947386 0 0 1 -0.0274,0.27233 39.947386,39.947386 0 0 1 -0.0289,0.27182 39.947386,39.947386 0 0 1 -0.0305,0.2713 39.947386,39.947386 0 0 1 -0.0326,0.27182 39.947386,39.947386 0 0 1 -0.0346,0.27078 39.947386,39.947386 0 0 1 -0.0367,0.2713 39.947386,39.947386 0 0 1 -0.0382,0.27027 39.947386,39.947386 0 0 1 -0.0398,0.27079 39.947386,39.947386 0 0 1 -0.0419,0.27027 39.947386,39.947386 0 0 1 -0.0439,0.26975 39.947386,39.947386 0 0 1 -0.0455,0.26923 39.947386,39.947386 0 0 1 -0.0475,0.26924 39.947386,39.947386 0 0 1 -0.0496,0.26923 39.947386,39.947386 0 0 1 -0.0512,0.2682 39.947386,39.947386 0 0 1 -0.0527,0.2682 39.947386,39.947386 0 0 1 -0.0548,0.2682 39.947386,39.947386 0 0 1 -0.0568,0.26717 39.947386,39.947386 0 0 1 -0.0584,0.26717 39.947386,39.947386 0 0 1 -0.0605,0.26664 39.947386,39.947386 0 0 1 -0.062,0.26614 39.947386,39.947386 0 0 1 -0.0641,0.26562 39.947386,39.947386 0 0 1 -0.0656,0.26561 39.947386,39.947386 0 0 1 -0.0677,0.2651 39.947386,39.947386 0 0 1 -0.0692,0.26407 39.947386,39.947386 0 0 1 -0.0713,0.26407 39.947386,39.947386 0 0 1 -0.0729,0.26355 39.947386,39.947386 0 0 1 -0.0749,0.26303 39.947386,39.947386 0 0 1 -0.0765,0.262 39.947386,39.947386 0 0 1 -0.0786,0.262 39.947386,39.947386 0 0 1 -0.0801,0.26148 39.947386,39.947386 0 0 1 -0.0816,0.26097 39.947386,39.947386 0 0 1 -0.0842,0.25993 39.947386,39.947386 0 0 1 -0.0853,0.25993 39.947386,39.947386 0 0 1 -0.0873,0.2589 39.947386,39.947386 0 0 1 -0.0889,0.25838 39.947386,39.947386 0 0 1 -0.0909,0.25787 39.947386,39.947386 0 0 1 -0.0925,0.25735 39.947386,39.947386 0 0 1 -0.0946,0.25631 39.947386,39.947386 0 0 1 -0.0961,0.25632 39.947386,39.947386 0 0 1 -0.0977,0.25528 39.947386,39.947386 0 0 1 -0.0997,0.25425 39.947386,39.947386 0 0 1 -0.10129,0.25424 39.947386,39.947386 0 0 1 -0.10335,0.25322 39.947386,39.947386 0 0 1 -0.10491,0.25218 39.947386,39.947386 0 0 1 -0.10645,0.25166 39.947386,39.947386 0 0 1 -0.108,0.25115 39.947386,39.947386 0 0 1 -0.11007,0.25012 39.947386,39.947386 0 0 1 -0.11162,0.24959 39.947386,39.947386 0 0 1 -0.11369,0.24908 39.947386,39.947386 0 0 1 -0.11472,0.24805 39.947386,39.947386 0 0 1 -0.11679,0.24701 39.947386,39.947386 0 0 1 -0.11886,0.2465 39.947386,39.947386 0 0 1 -0.11989,0.24546 39.947386,39.947386 0 0 1 -0.12195,0.24443 39.947386,39.947386 0 0 1 -0.12351,0.24392 39.947386,39.947386 0 0 1 -0.12506,0.24339 39.947386,39.947386 0 0 1 -0.12712,0.24185 39.947386,39.947386 0 0 1 -0.12816,0.24133 39.947386,39.947386 0 0 1 -0.13023,0.24029 39.947386,39.947386 0 0 1 -0.13177,0.23978 39.947386,39.947386 0 0 1 -0.13332,0.23875 39.947386,39.947386 0 0 1 -0.1354,0.23771 39.947386,39.947386 0 0 1 -0.13642,0.23668 39.947386,39.947386 0 0 1 -0.13849,0.23564 39.947386,39.947386 0 0 1 -0.14005,0.23513 39.947386,39.947386 0 0 1 -0.14107,0.23358 39.947386,39.947386 0 0 1 -0.14315,0.23306 39.947386,39.947386 0 0 1 -0.14469,0.23202 39.947386,39.947386 0 0 1 -0.14625,0.231 39.947386,39.947386 0 0 1 -0.14831,0.22996 39.947386,39.947386 0 0 1 -0.14934,0.22892 39.947386,39.947386 0 0 1 -0.1509,0.2279 39.947386,39.947386 0 0 1 -0.15244,0.22686 39.947386,39.947386 0 0 1 -0.154,0.22582 39.947386,39.947386 0 0 1 -0.15555,0.2248 39.947386,39.947386 0 0 1 -0.15761,0.22375 39.947386,39.947386 0 0 1 -0.15864,0.22221 39.947386,39.947386 0 0 1 -0.1602,0.22169 39.947386,39.947386 0 0 1 -0.16175,0.22066 39.947386,39.947386 0 0 1 -0.1633,0.21911 39.947386,39.947386 0 0 1 -0.16433,0.21807 39.947386,39.947386 0 0 1 -0.1664,0.21704 39.947386,39.947386 0 0 1 -0.16743,0.21601 39.947386,39.947386 0 0 1 -0.1695,0.21446 39.947386,39.947386 0 0 1 -0.17053,0.21394 39.947386,39.947386 0 0 1 -0.17208,0.21239 39.947386,39.947386 0 0 1 -0.17363,0.21136 39.947386,39.947386 0 0 1 -0.17519,0.2098 39.947386,39.947386 0 0 1 -0.17621,0.20878 39.947386,39.947386 0 0 1 -0.17777,0.20774 39.947386,39.947386 0 0 1 -0.17932,0.20619 39.947386,39.947386 0 0 1 -0.18087,0.20515 39.947386,39.947386 0 0 1 -0.1819,0.20412 39.947386,39.947386 0 0 1 -0.18345,0.20257 39.947386,39.947386 0 0 1 -0.185,0.20154 39.947386,39.947386 0 0 1 -0.18603,0.19999 39.947386,39.947386 0 0 1 -0.18759,0.19895 39.947386,39.947386 0 0 1 -0.18914,0.19741 39.947386,39.947386 0 0 1 -0.19017,0.19637 39.947386,39.947386 0 0 1 -0.19172,0.19533 39.947386,39.947386 0 0 1 -0.19275,0.19327 39.947386,39.947386 0 0 1 -0.1943,0.19276 39.947386,39.947386 0 0 1 -0.19585,0.19068 39.947386,39.947386 0 0 1 -0.19689,0.18966 39.947386,39.947386 0 0 1 -0.19792,0.18862 39.947386,39.947386 0 0 1 -0.19947,0.18655 39.947386,39.947386 0 0 1 -0.20102,0.18552 39.947386,39.947386 0 0 1 -0.20154,0.18448 39.947386,39.947386 0 0 1 -0.20361,0.18294 39.947386,39.947386 0 0 1 -0.20464,0.18138 39.947386,39.947386 0 0 1 -0.20567,0.17983 39.947386,39.947386 0 0 1 -0.2067,0.1788 39.947386,39.947386 0 0 1 -0.20826,0.17674 39.947386,39.947386 0 0 1 -0.20929,0.17621 39.947386,39.947386 0 0 1 -0.21084,0.17415 39.947386,39.947386 0 0 1 -0.21187,0.1726 39.947386,39.947386 0 0 1 -0.21291,0.17157 39.947386,39.947386 0 0 1 -0.21394,0.17001 39.947386,39.947386 0 0 1 -0.21549,0.16847 39.947386,39.947386 0 0 1 -0.21653,0.16691 39.947386,39.947386 0 0 1 -0.21755,0.16588 39.947386,39.947386 0 0 1 -0.2186,0.16382 39.947386,39.947386 0 0 1 -0.21962,0.16226 39.947386,39.947386 0 0 1 -0.22117,0.16123 39.947386,39.947386 0 0 1 -0.2217,0.15968 39.947386,39.947386 0 0 1 -0.22324,0.15762 39.947386,39.947386 0 0 1 -0.22428,0.15658 39.947386,39.947386 0 0 1 -0.2253,0.15503 39.947386,39.947386 0 0 1 -0.22635,0.15348 39.947386,39.947386 0 0 1 -0.22737,0.15141 39.947386,39.947386 0 0 1 -0.22841,0.15038 39.947386,39.947386 0 0 1 -0.22945,0.14883 39.947386,39.947386 0 0 1 -0.23047,0.14727 39.947386,39.947386 0 0 1 -0.231,0.14521 39.947386,39.947386 0 0 1 -0.23254,0.14418 39.947386,39.947386 0 0 1 -0.23358,0.14211 39.947386,39.947386 0 0 1 -0.23409,0.14108 39.947386,39.947386 0 0 1 -0.23565,0.13901 39.947386,39.947386 0 0 1 -0.23616,0.13746 39.947386,39.947386 0 0 1 -0.23719,0.1359 39.947386,39.947386 0 0 1 -0.23823,0.13436 39.947386,39.947386 0 0 1 -0.23875,0.13281 39.947386,39.947386 0 0 1 -0.24029,0.13074 39.947386,39.947386 0 0 1 -0.24081,0.12971 39.947386,39.947386 0 0 1 -0.24133,0.12764 39.947386,39.947386 0 0 1 -0.24288,0.12609 39.947386,39.947386 0 0 1 -0.2434,0.12403 39.947386,39.947386 0 0 1 -0.24443,0.12299 39.947386,39.947386 0 0 1 -0.24494,0.12092 39.947386,39.947386 0 0 1 -0.24599,0.11937 39.947386,39.947386 0 0 1 -0.24649,0.11782 39.947386,39.947386 0 0 1 -0.24753,0.11576 39.947386,39.947386 0 0 1 -0.24857,0.1142 39.947386,39.947386 0 0 1 -0.24907,0.11266 39.947386,39.947386 0 0 1 -0.25012,0.1111 39.947386,39.947386 0 0 1 -0.25063,0.10904 39.947386,39.947386 0 0 1 -0.25115,0.10749 39.947386,39.947386 0 0 1 -0.25218,0.10593 39.947386,39.947386 0 0 1 -0.25269,0.10387 39.947386,39.947386 0 0 1 -0.25374,0.10232 39.947386,39.947386 0 0 1 -0.25424,0.10077 39.947386,39.947386 0 0 1 -0.25477,0.0987 39.947386,39.947386 0 0 1 -0.25528,0.0971 39.947386,39.947386 0 0 1 -0.25632,0.0951 39.947386,39.947386 0 0 1 -0.25683,0.0935 39.947386,39.947386 0 0 1 -0.25786,0.092 39.947386,39.947386 0 0 1 -0.25787,0.0899 39.947386,39.947386 0 0 1 -0.2589,0.0884 39.947386,39.947386 0 0 1 -0.25941,0.0863 39.947386,39.947386 0 0 1 -0.25994,0.0847 39.947386,39.947386 0 0 1 -0.26044,0.0827 39.947386,39.947386 0 0 1 -0.26097,0.0811 39.947386,39.947386 0 0 1 -0.26148,0.0796 39.947386,39.947386 0 0 1 -0.26252,0.0775 39.947386,39.947386 0 0 1 -0.26252,0.0755 39.947386,39.947386 0 0 1 -0.26303,0.0744 39.947386,39.947386 0 0 1 -0.26355,0.0718 39.947386,39.947386 0 0 1 -0.26458,0.0703 39.947386,39.947386 0 0 1 -0.26459,0.0687 39.947386,39.947386 0 0 1 -0.2651,0.0667 39.947386,39.947386 0 0 1 -0.26561,0.0651 39.947386,39.947386 0 0 1 -0.26562,0.063 39.947386,39.947386 0 0 1 -0.26665,0.061 39.947386,39.947386 0 0 1 -0.26665,0.0594 39.947386,39.947386 0 0 1 -0.26768,0.0579 39.947386,39.947386 0 0 1 -0.26717,0.0558 39.947386,39.947386 0 0 1 -0.2682,0.0537 39.947386,39.947386 0 0 1 -0.2682,0.0522 39.947386,39.947386 0 0 1 -0.26872,0.0501 39.947386,39.947386 0 0 1 -0.26923,0.0486 39.947386,39.947386 0 0 1 -0.26924,0.0465 39.947386,39.947386 0 0 1 -0.26975,0.045 39.947386,39.947386 0 0 1 -0.27027,0.0429 39.947386,39.947386 0 0 1 -0.27027,0.0408 39.947386,39.947386 0 0 1 -0.27026,0.0393 39.947386,39.947386 0 0 1 -0.27079,0.0377 39.947386,39.947386 0 0 1 -0.2713,0.0351 39.947386,39.947386 0 0 1 -0.2713,0.0336 39.947386,39.947386 0 0 1 -0.2713,0.032 39.947386,39.947386 0 0 1 -0.27182,0.03 39.947386,39.947386 0 0 1 -0.27182,0.0279 39.947386,39.947386 0 0 1 -0.27233,0.0264 39.947386,39.947386 0 0 1 -0.27234,0.0243 39.947386,39.947386 0 0 1 -0.27233,0.0227 39.947386,39.947386 0 0 1 -0.27285,0.0202 39.947386,39.947386 0 0 1 -0.27234,0.0191 39.947386,39.947386 0 0 1 -0.27285,0.0165 39.947386,39.947386 0 0 1 -0.27337,0.015 39.947386,39.947386 0 0 1 -0.27285,0.0134 39.947386,39.947386 0 0 1 -0.27337,0.0114 39.947386,39.947386 0 0 1 -0.27285,0.009 39.947386,39.947386 0 0 1 -0.27337,0.008 39.947386,39.947386 0 0 1 -0.27337,0.005 39.947386,39.947386 0 0 1 -0.27336,0.004 39.947386,39.947386 0 0 1 -0.27337,0.002 39.947386,39.947386 0 0 1 -0.14521,0 39.947386,39.947386 0 0 1 -0.27337,-0.001 39.947386,39.947386 0 0 1 -0.27337,-0.003 39.947386,39.947386 0 0 1 -0.27337,-0.005 39.947386,39.947386 0 0 1 -0.27285,-0.007 39.947386,39.947386 0 0 1 -0.27337,-0.008 39.947386,39.947386 0 0 1 -0.27337,-0.0104 39.947386,39.947386 0 0 1 -0.27285,-0.0124 39.947386,39.947386 0 0 1 -0.27337,-0.0139 39.947386,39.947386 0 0 1 -0.27285,-0.016 39.947386,39.947386 0 0 1 -0.27285,-0.0176 39.947386,39.947386 0 0 1 -0.27233,-0.0196 39.947386,39.947386 0 0 1 -0.27286,-0.0212 39.947386,39.947386 0 0 1 -0.272331,-0.0238 39.947386,39.947386 0 0 1 -0.272336,-0.0248 39.947386,39.947386 0 0 1 -0.271817,-0.0274 39.947386,39.947386 0 0 1 -0.271817,-0.0289 39.947386,39.947386 0 0 1 -0.27182,-0.0305 39.947386,39.947386 0 0 1 -0.271301,-0.0331 39.947386,39.947386 0 0 1 -0.271301,-0.0341 39.947386,39.947386 0 0 1 -0.270785,-0.0367 39.947386,39.947386 0 0 1 -0.270782,-0.0382 39.947386,39.947386 0 0 1 -0.27027,-0.0398 39.947386,39.947386 0 0 1 -0.270266,-0.0424 39.947386,39.947386 0 0 1 -0.269751,-0.0434 39.947386,39.947386 0 0 1 -0.269751,-0.046 39.947386,39.947386 0 0 1 -0.269234,-0.047 39.947386,39.947386 0 0 1 -0.268719,-0.0496 39.947386,39.947386 0 0 1 -0.268716,-0.0512 39.947386,39.947386 0 0 1 -0.2682,-0.0527 39.947386,39.947386 0 0 1 -0.267685,-0.0548 39.947386,39.947386 0 0 1 -0.267684,-0.0568 39.947386,39.947386 0 0 1 -0.26665,-0.0584 39.947386,39.947386 0 0 1 -0.266652,-0.0605 39.947386,39.947386 0 0 1 -0.26665,-0.062 39.947386,39.947386 0 0 1 -0.265617,-0.0641 39.947386,39.947386 0 0 1 -0.2651,-0.0656 39.947386,39.947386 0 0 1 -0.265099,-0.0677 39.947386,39.947386 0 0 1 -0.264583,-0.0693 39.947386,39.947386 0 0 1 -0.263552,-0.0713 39.947386,39.947386 0 0 1 -0.263549,-0.0729 39.947386,39.947386 0 0 1 -0.263032,-0.0749 39.947386,39.947386 0 0 1 -0.262517,-0.0765 39.947386,39.947386 0 0 1 -0.261999,-0.0786 39.947386,39.947386 0 0 1 -0.261482,-0.0801 39.947386,39.947386 0 0 1 -0.260451,-0.0822 39.947386,39.947386 0 0 1 -0.260448,-0.0837 39.947386,39.947386 0 0 1 -0.259416,-0.0853 39.947386,39.947386 0 0 1 -0.259416,-0.0873 39.947386,39.947386 0 0 1 -0.258381,-0.0894 39.947386,39.947386 0 0 1 -0.257866,-0.0904 39.947386,39.947386 0 0 1 -0.256833,-0.093 39.947386,39.947386 0 0 1 -0.256831,-0.094 39.947386,39.947386 0 0 1 -0.2558,-0.0961 39.947386,39.947386 0 0 1 -0.25528,-0.0982 39.947386,39.947386 0 0 1 -0.254765,-0.0992 39.947386,39.947386 0 0 1 -0.25373,-0.1018 39.947386,39.947386 0 0 1 -0.253217,-0.10284 39.947386,39.947386 0 0 1 -0.252695,-0.1049 39.947386,39.947386 0 0 1 -0.251667,-0.10646 39.947386,39.947386 0 0 1 -0.251145,-0.10852 39.947386,39.947386 0 0 1 -0.250116,-0.10955 39.947386,39.947386 0 0 1 -0.249597,-0.11214 39.947386,39.947386 0 0 1 -0.248563,-0.11317 39.947386,39.947386 0 0 1 -0.248047,-0.11524 39.947386,39.947386 0 0 1 -0.247012,-0.11679 39.947386,39.947386 0 0 1 -0.246497,-0.11834 39.947386,39.947386 0 0 1 -0.245464,-0.1204 39.947386,39.947386 0 0 1 -0.244946,-0.12144 39.947386,39.947386 0 0 1 -0.243912,-0.12351 39.947386,39.947386 0 0 1 -0.242879,-0.12557 39.947386,39.947386 0 0 1 -0.242364,-0.12661 39.947386,39.947386 0 0 1 -0.241329,-0.12868 39.947386,39.947386 0 0 1 -0.240294,-0.1297 39.947386,39.947386 0 0 1 -0.239263,-0.13178 39.947386,39.947386 0 0 1 -0.238744,-0.13384 39.947386,39.947386 0 0 1 -0.237712,-0.13487 39.947386,39.947386 0 0 1 -0.236678,-0.13643 39.947386,39.947386 0 0 1 -0.236162,-0.13849 39.947386,39.947386 0 0 1 -0.234611,-0.14005 39.947386,39.947386 0 0 1 -0.234093,-0.14159 39.947386,39.947386 0 0 1 -0.233061,-0.14314 39.947386,39.947386 0 0 1 -0.23151,-0.1447 39.947386,39.947386 0 0 1 -0.230995,-0.14624 39.947386,39.947386 0 0 1 -0.22996,-0.1478 39.947386,39.947386 0 0 1 -0.228925,-0.14934 39.947386,39.947386 0 0 1 -0.227894,-0.1509 39.947386,39.947386 0 0 1 -0.226859,-0.15244 39.947386,39.947386 0 0 1 -0.225827,-0.154 39.947386,39.947386 0 0 1 -0.224793,-0.15606 39.947386,39.947386 0 0 1 -0.223758,-0.1571 39.947386,39.947386 0 0 1 -0.222726,-0.15864 39.947386,39.947386 0 0 1 -0.221176,-0.1602 39.947386,39.947386 0 0 1 -0.220657,-0.16175 39.947386,39.947386 0 0 1 -0.219109,-0.16329 39.947386,39.947386 0 0 1 -0.218591,-0.16485 39.947386,39.947386 0 0 1 -0.217041,-0.16588 39.947386,39.947386 0 0 1 -0.215489,-0.16795 39.947386,39.947386 0 0 1 -0.214974,-0.16898 39.947386,39.947386 0 0 1 -0.213424,-0.17054 39.947386,39.947386 0 0 1 -0.212391,-0.17208 39.947386,39.947386 0 0 1 -0.211358,-0.17363 39.947386,39.947386 0 0 1 -0.209806,-0.17519 39.947386,39.947386 0 0 1 -0.209288,-0.17621 39.947386,39.947386 0 0 1 -0.207222,-0.17777 39.947386,39.947386 0 0 1 -0.206706,-0.17932 39.947386,39.947386 0 0 1 -0.205155,-0.18086 39.947386,39.947386 0 0 1 -0.203607,-0.1819 39.947386,39.947386 0 0 1 -0.203087,-0.18346 39.947386,39.947386 0 0 1 -0.201022,-0.185 39.947386,39.947386 0 0 1 -0.200504,-0.18603 39.947386,39.947386 0 0 1 -0.198956,-0.18759 39.947386,39.947386 0 0 1 -0.197403,-0.18913 39.947386,39.947386 0 0 1 -0.196371,-0.19017 39.947386,39.947386 0 0 1 -0.194821,-0.19172 39.947386,39.947386 0 0 1 -0.193786,-0.19276 39.947386,39.947386 0 0 1 -0.192236,-0.1943 39.947386,39.947386 0 0 1 -0.191203,-0.19585 39.947386,39.947386 0 0 1 -0.189651,-0.19689 39.947386,39.947386 0 0 1 -0.188103,-0.19792 39.947386,39.947386 0 0 1 -0.187068,-0.19947 39.947386,39.947386 0 0 1 -0.185518,-0.20102 39.947386,39.947386 0 0 1 -0.18397,-0.20206 39.947386,39.947386 0 0 1 -0.182933,-0.20309 39.947386,39.947386 0 0 1 -0.181385,-0.20463 39.947386,39.947386 0 0 1 -0.179835,-0.20568 39.947386,39.947386 0 0 1 -0.1788,-0.2067 39.947386,39.947386 0 0 1 -0.17725,-0.20826 39.947386,39.947386 0 0 1 -0.175699,-0.2098 39.947386,39.947386 0 0 1 -0.174151,-0.21033 39.947386,39.947386 0 0 1 -0.173115,-0.21187 39.947386,39.947386 0 0 1 -0.171566,-0.21291 39.947386,39.947386 0 0 1 -0.169497,-0.21394 39.947386,39.947386 0 0 1 -0.168466,-0.21549 39.947386,39.947386 0 0 1 -0.167433,-0.21652 39.947386,39.947386 0 0 1 -0.165365,-0.21756 39.947386,39.947386 0 0 1 -0.163814,-0.21859 39.947386,39.947386 0 0 1 -0.16278,-0.21963 39.947386,39.947386 0 0 1 -0.160713,-0.22117 39.947386,39.947386 0 0 1 -0.159681,-0.22221 39.947386,39.947386 0 0 1 -0.158129,-0.22273 39.947386,39.947386 0 0 1 -0.15658,-0.22427 39.947386,39.947386 0 0 1 -0.154514,-0.22531 39.947386,39.947386 0 0 1 -0.153477,-0.22634 39.947386,39.947386 0 0 1 -0.151929,-0.22738 39.947386,39.947386 0 0 1 -0.150378,-0.22841 39.947386,39.947386 0 0 1 -0.148313,-0.22945 39.947386,39.947386 0 0 1 -0.147277,-0.23047 39.947386,39.947386 0 0 1 -0.145727,-0.23151 39.947386,39.947386 0 0 1 -0.143661,-0.23203 39.947386,39.947386 0 0 1 -0.142627,-0.23358 39.947386,39.947386 0 0 1 -0.140559,-0.23461 39.947386,39.947386 0 0 1 -0.13901,-0.23513 39.947386,39.947386 0 0 1 -0.137977,-0.23616 39.947386,39.947386 0 0 1 -0.135909,-0.23719 39.947386,39.947386 0 0 1 -0.133842,-0.23823 39.947386,39.947386 0 0 1 -0.132808,-0.23874 39.947386,39.947386 0 0 1 -0.13126,-0.2403 39.947386,39.947386 0 0 1 -0.12919,-0.24081 39.947386,39.947386 0 0 1 -0.127641,-0.24185 39.947386,39.947386 0 0 1 -0.126089,-0.24236 39.947386,39.947386 0 0 1 -0.12454,-0.2434 39.947386,39.947386 0 0 1 -0.122473,-0.24443 39.947386,39.947386 0 0 1 -0.121441,-0.24494 39.947386,39.947386 0 0 1 -0.119372,-0.24598 39.947386,39.947386 0 0 1 -0.117306,-0.24701 39.947386,39.947386 0 0 1 -0.116271,-0.24754 39.947386,39.947386 0 0 1 -0.114204,-0.24804 39.947386,39.947386 0 0 1 -0.112655,-0.24908 39.947386,39.947386 0 0 1 -0.110588,-0.25012 39.947386,39.947386 0 0 1 -0.109556,-0.25063 39.947386,39.947386 0 0 1 -0.107487,-0.25114 39.947386,39.947386 0 0 1 -0.105418,-0.25219 39.947386,39.947386 0 0 1 -0.10387,-0.25269 39.947386,39.947386 0 0 1 -0.102319,-0.25373 39.947386,39.947386 0 0 1 -0.10077,-0.25425 39.947386,39.947386 0 0 1 -0.0987,-0.25477 39.947386,39.947386 0 0 1 -0.09715,-0.2558 39.947386,39.947386 0 0 1 -0.09509,-0.25631 39.947386,39.947386 0 0 1 -0.09353,-0.25683 39.947386,39.947386 0 0 1 -0.09198,-0.25735 39.947386,39.947386 0 0 1 -0.08992,-0.25787 39.947386,39.947386 0 0 1 -0.08837,-0.2589 39.947386,39.947386 0 0 1 -0.0863,-0.25941 39.947386,39.947386 0 0 1 -0.08475,-0.25993 39.947386,39.947386 0 0 1 -0.0832,-0.26045 39.947386,39.947386 0 0 1 -0.08113,-0.26097 39.947386,39.947386 0 0 1 -0.07906,-0.262 39.947386,39.947386 0 0 1 -0.07751,-0.262 39.947386,39.947386 0 0 1 -0.07596,-0.26251 39.947386,39.947386 0 0 1 -0.0739,-0.26304 39.947386,39.947386 0 0 1 -0.07235,-0.26407 39.947386,39.947386 0 0 1 -0.07028,-0.26406 39.947386,39.947386 0 0 1 -0.06821,-0.26458 39.947386,39.947386 0 0 1 -0.06718,-0.26511 39.947386,39.947386 0 0 1 -0.0646,-0.26561 39.947386,39.947386 0 0 1 -0.06305,-0.26613 39.947386,39.947386 0 0 1 -0.0615,-0.26614 39.947386,39.947386 0 0 1 -0.05943,-0.26717 39.947386,39.947386 0 0 1 -0.05736,-0.26716 39.947386,39.947386 0 0 1 -0.05581,-0.26769 39.947386,39.947386 0 0 1 -0.05426,-0.26768 39.947386,39.947386 0 0 1 -0.05219,-0.26872 39.947386,39.947386 0 0 1 -0.05013,-0.26872 39.947386,39.947386 0 0 1 -0.04857,-0.26871 39.947386,39.947386 0 0 1 -0.04651,-0.26975 39.947386,39.947386 0 0 1 -0.04444,-0.26924 39.947386,39.947386 0 0 1 -0.04289,-0.27027 39.947386,39.947386 0 0 1 -0.04134,-0.27026 39.947386,39.947386 0 0 1 -0.03927,-0.27027 39.947386,39.947386 0 0 1 -0.03721,-0.27079 39.947386,39.947386 0 0 1 -0.03566,-0.2713 39.947386,39.947386 0 0 1 -0.03359,-0.2713 39.947386,39.947386 0 0 1 -0.03152,-0.2713 39.947386,39.947386 0 0 1 -0.02997,-0.27182 39.947386,39.947386 0 0 1 -0.02842,-0.27233 39.947386,39.947386 0 0 1 -0.02585,-0.27182 39.947386,39.947386 0 0 1 -0.02429,-0.27234 39.947386,39.947386 0 0 1 -0.02273,-0.27233 39.947386,39.947386 0 0 1 -0.02066,-0.27285 39.947386,39.947386 0 0 1 -0.0186,-0.27285 39.947386,39.947386 0 0 1 -0.01707,-0.27286 39.947386,39.947386 0 0 1 -0.01498,-0.27285 39.947386,39.947386 0 0 1 -0.01291,-0.27285 39.947386,39.947386 0 0 1 -0.01138,-0.27337 39.947386,39.947386 0 0 1 -0.0093,-0.27285 39.947386,39.947386 0 0 1 -0.0078,-0.27337 39.947386,39.947386 0 0 1 -0.0057,-0.27337 39.947386,39.947386 0 0 1 -0.0036,-0.27336 39.947386,39.947386 0 0 1 -0.0021,-0.27337 39.947386,39.947386 0 0 1 -5.29e-4,-0.14521 39.947386,39.947386 0 0 1 0.0011,-0.27337 39.947386,39.947386 0 0 1 0.0031,-0.27337 39.947386,39.947386 0 0 1 0.0047,-0.27337 39.947386,39.947386 0 0 1 0.0062,-0.27336 39.947386,39.947386 0 0 1 0.0088,-0.27286 39.947386,39.947386 0 0 1 0.01035,-0.27337 39.947386,39.947386 0 0 1 0.01188,-0.27336 39.947386,39.947386 0 0 1 0.01394,-0.27286 39.947386,39.947386 0 0 1 0.01603,-0.27285 39.947386,39.947386 0 0 1 0.01757,-0.27285 39.947386,39.947386 0 0 1 0.01963,-0.27285 39.947386,39.947386 0 0 1 0.0217,-0.27234 39.947386,39.947386 0 0 1 0.02326,-0.27233 39.947386,39.947386 0 0 1 0.02532,-0.27233 39.947386,39.947386 0 0 1 0.02687,-0.27182 39.947386,39.947386 0 0 1 0.02894,-0.27182 39.947386,39.947386 0 0 1 0.03101,-0.27182 39.947386,39.947386 0 0 1 0.03255,-0.2713 39.947386,39.947386 0 0 1 0.03462,-0.2713 39.947386,39.947386 0 0 1 0.03617,-0.27079 39.947386,39.947386 0 0 1 0.03824,-0.27078 39.947386,39.947386 0 0 1 0.04031,-0.27027 39.947386,39.947386 0 0 1 0.04186,-0.27027 39.947386,39.947386 0 0 1 0.04392,-0.26975 39.947386,39.947386 0 0 1 0.04548,-0.26975 39.947386,39.947386 0 0 1 0.04754,-0.26923 39.947386,39.947386 0 0 1 0.04909,-0.26872 39.947386,39.947386 0 0 1 0.05116,-0.26872 39.947386,39.947386 0 0 1 0.05323,-0.2682 39.947386,39.947386 0 0 1 0.05478,-0.26768 39.947386,39.947386 0 0 1 0.05684,-0.26769 39.947386,39.947386 0 0 1 0.05839,-0.26716 39.947386,39.947386 0 0 1 0.05995,-0.26665 39.947386,39.947386 0 0 1 0.06253,-0.26614 39.947386,39.947386 0 0 1 0.06356,-0.26561 39.947386,39.947386 0 0 1 0.06615,-0.26562 39.947386,39.947386 0 0 1 0.06718,-0.26458 39.947386,39.947386 0 0 1 0.06976,-0.26459 39.947386,39.947386 0 0 1 0.07079,-0.26406 39.947386,39.947386 0 0 1 0.07338,-0.26355 39.947386,39.947386 0 0 1 0.07441,-0.26252 39.947386,39.947386 0 0 1 0.077,-0.26251 39.947386,39.947386 0 0 1 0.07803,-0.26201 39.947386,39.947386 0 0 1 0.08061,-0.26148 39.947386,39.947386 0 0 1 0.08165,-0.26045 39.947386,39.947386 0 0 1 0.08371,-0.26045 39.947386,39.947386 0 0 1 0.08578,-0.25941 39.947386,39.947386 0 0 1 0.08733,-0.25942 39.947386,39.947386 0 0 1 0.08888,-0.25838 39.947386,39.947386 0 0 1 0.09095,-0.25787 39.947386,39.947386 0 0 1 0.0925,-0.25734 39.947386,39.947386 0 0 1 0.09457,-0.25632 39.947386,39.947386 0 0 1 0.09612,-0.2558 39.947386,39.947386 0 0 1 0.09767,-0.25528 39.947386,39.947386 0 0 1 0.09973,-0.25476 39.947386,39.947386 0 0 1 0.101288,-0.25373 39.947386,39.947386 0 0 1 0.103351,-0.25322 39.947386,39.947386 0 0 1 0.104386,-0.2527 39.947386,39.947386 0 0 1 0.106971,-0.25166 39.947386,39.947386 0 0 1 0.108003,-0.25115 39.947386,39.947386 0 0 1 0.110072,-0.25011 39.947386,39.947386 0 0 1 0.11162,-0.2496 39.947386,39.947386 0 0 1 0.113689,-0.24856 39.947386,39.947386 0 0 1 0.114723,-0.24805 39.947386,39.947386 0 0 1 0.116787,-0.24753 39.947386,39.947386 0 0 1 0.118856,-0.24598 39.947386,39.947386 0 0 1 0.119888,-0.24546 39.947386,39.947386 0 0 1 0.121958,-0.24495 39.947386,39.947386 0 0 1 0.123507,-0.24391 39.947386,39.947386 0 0 1 0.125058,-0.24288 39.947386,39.947386 0 0 1 0.127122,-0.24236 39.947386,39.947386 0 0 1 0.128159,-0.24133 39.947386,39.947386 0 0 1 0.130225,-0.2403 39.947386,39.947386 0 0 1 0.131773,-0.23978 39.947386,39.947386 0 0 1 0.133326,-0.23823 39.947386,39.947386 0 0 1 0.135393,-0.23771 39.947386,39.947386 0 0 1 0.136424,-0.23668 39.947386,39.947386 0 0 1 0.138494,-0.23616 39.947386,39.947386 0 0 1 0.139525,-0.23461 39.947386,39.947386 0 0 1 0.141594,-0.23409 39.947386,39.947386 0 0 1 0.143145,-0.23306 39.947386,39.947386 0 0 1 0.144693,-0.23203 39.947386,39.947386 0 0 1 0.146246,-0.23099 39.947386,39.947386 0 0 1 0.147793,-0.22945 39.947386,39.947386 0 0 1 0.149344,-0.22892 39.947386,39.947386 0 0 1 0.151414,-0.22841 39.947386,39.947386 0 0 1 0.152444,-0.22686 39.947386,39.947386 0 0 1 0.153996,-0.22531 39.947386,39.947386 0 0 1 0.155546,-0.22479 39.947386,39.947386 0 0 1 0.157096,-0.22376 39.947386,39.947386 0 0 1 0.158647,-0.22273 39.947386,39.947386 0 0 1 0.160197,-0.22169 39.947386,39.947386 0 0 1 0.161748,-0.22014 39.947386,39.947386 0 0 1 0.163298,-0.21963 39.947386,39.947386 0 0 1 0.164846,-0.21807 39.947386,39.947386 0 0 1 0.166399,-0.21704 39.947386,39.947386 0 0 1 0.167431,-0.21601 39.947386,39.947386 0 0 1 0.1695,-0.21446 39.947386,39.947386 0 0 1 0.170532,-0.21342 39.947386,39.947386 0 0 1 0.172083,-0.21291 39.947386,39.947386 0 0 1 0.173632,-0.21084 39.947386,39.947386 0 0 1 0.174668,-0.21032 39.947386,39.947386 0 0 1 0.176731,-0.20877 39.947386,39.947386 0 0 1 0.177768,-0.20774 39.947386,39.947386 0 0 1 0.179316,-0.20619 39.947386,39.947386 0 0 1 0.180351,-0.20516 39.947386,39.947386 0 0 1 0.182419,-0.20412 39.947386,39.947386 0 0 1 0.183452,-0.20257 39.947386,39.947386 0 0 1 0.184483,-0.20154 39.947386,39.947386 0 0 1 0.186553,-0.19999 39.947386,39.947386 0 0 1 0.187584,-0.19895 39.947386,39.947386 0 0 1 0.188619,-0.1974 39.947386,39.947386 0 0 1 0.190687,-0.19637 39.947386,39.947386 0 0 1 0.191202,-0.19483 39.947386,39.947386 0 0 1 0.19327,-0.19378 39.947386,39.947386 0 0 1 0.194305,-0.19224 39.947386,39.947386 0 0 1 0.195336,-0.1912 39.947386,39.947386 0 0 1 0.196887,-0.18965 39.947386,39.947386 0 0 1 0.198438,-0.1881 39.947386,39.947386 0 0 1 0.199472,-0.18708 39.947386,39.947386 0 0 1 0.200504,-0.18551 39.947386,39.947386 0 0 1 0.202054,-0.18449 39.947386,39.947386 0 0 1 0.203605,-0.18242 39.947386,39.947386 0 0 1 0.204123,-0.18138 39.947386,39.947386 0 0 1 0.205671,-0.18035 39.947386,39.947386 0 0 1 0.207222,-0.17828 39.947386,39.947386 0 0 1 0.208256,-0.17725 39.947386,39.947386 0 0 1 0.209291,-0.1757 39.947386,39.947386 0 0 1 0.210838,-0.17467 39.947386,39.947386 0 0 1 0.211357,-0.1726 39.947386,39.947386 0 0 1 0.213424,-0.17156 39.947386,39.947386 0 0 1 0.213942,-0.17002 39.947386,39.947386 0 0 1 0.21549,-0.16847 39.947386,39.947386 0 0 1 0.216006,-0.16691 39.947386,39.947386 0 0 1 0.217559,-0.16537 39.947386,39.947386 0 0 1 0.219109,-0.16433 39.947386,39.947386 0 0 1 0.219623,-0.16226 39.947386,39.947386 0 0 1 0.221176,-0.16123 39.947386,39.947386 0 0 1 0.221691,-0.15916 39.947386,39.947386 0 0 1 0.223242,-0.15813 39.947386,39.947386 0 0 1 0.224277,-0.15658 39.947386,39.947386 0 0 1 0.225309,-0.15503 39.947386,39.947386 0 0 1 0.226343,-0.15297 39.947386,39.947386 0 0 1 0.227375,-0.15192 39.947386,39.947386 0 0 1 0.227893,-0.15038 39.947386,39.947386 0 0 1 0.229444,-0.14883 39.947386,39.947386 0 0 1 0.230476,-0.14676 39.947386,39.947386 0 0 1 0.231511,-0.14573 39.947386,39.947386 0 0 1 0.232545,-0.14418 39.947386,39.947386 0 0 1 0.233576,-0.14211 39.947386,39.947386 0 0 1 0.234096,-0.14056 39.947386,39.947386 0 0 1 0.235127,-0.13952 39.947386,39.947386 0 0 1 0.236678,-0.13746 39.947386,39.947386 0 0 1 0.237196,-0.13591 39.947386,39.947386 0 0 1 0.23771,-0.13436 39.947386,39.947386 0 0 1 0.239262,-0.13229 39.947386,39.947386 0 0 1 0.239779,-0.13126 39.947386,39.947386 0 0 1 0.240813,-0.12919 39.947386,39.947386 0 0 1 0.241845,-0.12764 39.947386,39.947386 0 0 1 0.24288,-0.12609 39.947386,39.947386 0 0 1 0.243395,-0.12454 39.947386,39.947386 0 0 1 0.243912,-0.12248 39.947386,39.947386 0 0 1 0.245464,-0.12143 39.947386,39.947386 0 0 1 0.245981,-0.11938 39.947386,39.947386 0 0 1 0.246496,-0.1173 39.947386,39.947386 0 0 1 0.247529,-0.11628 39.947386,39.947386 0 0 1 0.248565,-0.1142 39.947386,39.947386 0 0 1 0.249079,-0.11265 39.947386,39.947386 0 0 1 0.249597,-0.11111 39.947386,39.947386 0 0 1 0.250632,-0.10904 39.947386,39.947386 0 0 1 0.251664,-0.10748 39.947386,39.947386 0 0 1 0.252182,-0.10542 39.947386,39.947386 0 0 1 0.252696,-0.10439 39.947386,39.947386 0 0 1 0.253214,-0.10232 39.947386,39.947386 0 0 1 0.254248,-0.10025 39.947386,39.947386 0 0 1 0.255284,-0.0987 39.947386,39.947386 0 0 1 0.25528,-0.0972 39.947386,39.947386 0 0 1 0.256315,-0.0956 39.947386,39.947386 0 0 1 0.256831,-0.0935 39.947386,39.947386 0 0 1 0.25735,-0.0915 39.947386,39.947386 0 0 1 0.258382,-0.0899 39.947386,39.947386 0 0 1 0.2589,-0.0884 39.947386,39.947386 0 0 1 0.259416,-0.0868 39.947386,39.947386 0 0 1 0.259932,-0.0842 39.947386,39.947386 0 0 1 0.260447,-0.0832 39.947386,39.947386 0 0 1 0.260967,-0.0811 39.947386,39.947386 0 0 1 0.261482,-0.0791 39.947386,39.947386 0 0 1 0.262001,-0.078 39.947386,39.947386 0 0 1 0.263033,-0.0755 39.947386,39.947386 0 0 1 0.263033,-0.0739 39.947386,39.947386 0 0 1 0.263549,-0.0724 39.947386,39.947386 0 0 1 0.264067,-0.0703 39.947386,39.947386 0 0 1 0.2651,-0.0687 39.947386,39.947386 0 0 1 0.265099,-0.0667 39.947386,39.947386 0 0 1 0.265102,-0.0646 39.947386,39.947386 0 0 1 0.266134,-0.063 39.947386,39.947386 0 0 1 0.266649,-0.0615 39.947386,39.947386 0 0 1 0.26665,-0.0594 39.947386,39.947386 0 0 1 0.267168,-0.0579 39.947386,39.947386 0 0 1 0.267685,-0.0558 39.947386,39.947386 0 0 1 0.2682,-0.0538 39.947386,39.947386 0 0 1 0.2682,-0.0522 39.947386,39.947386 0 0 1 0.268716,-0.0501 39.947386,39.947386 0 0 1 0.269235,-0.0486 39.947386,39.947386 0 0 1 0.269234,-0.0465 39.947386,39.947386 0 0 1 0.269751,-0.045 39.947386,39.947386 0 0 1 0.269751,-0.0429 39.947386,39.947386 0 0 1 0.270269,-0.0408 39.947386,39.947386 0 0 1 0.270785,-0.0393 39.947386,39.947386 0 0 1 0.270783,-0.0372 39.947386,39.947386 0 0 1 0.271301,-0.0357 39.947386,39.947386 0 0 1 0.271301,-0.0336 39.947386,39.947386 0 0 1 0.271304,-0.032 39.947386,39.947386 0 0 1 0.271817,-0.03 39.947386,39.947386 0 0 1 0.271817,-0.0279 39.947386,39.947386 0 0 1 0.272335,-0.0264 39.947386,39.947386 0 0 1 0.272332,-0.0243 39.947386,39.947386 0 0 1 0.27233,-0.0222 39.947386,39.947386 0 0 1 0.27234,-0.0207 39.947386,39.947386 0 0 1 0.27285,-0.0186 39.947386,39.947386 0 0 1 0.27285,-0.0171 39.947386,39.947386 0 0 1 0.27285,-0.015 39.947386,39.947386 0 0 1 0.27337,-0.0134 39.947386,39.947386 0 0 1 0.27285,-0.0109 39.947386,39.947386 0 0 1 0.27337,-0.01 39.947386,39.947386 0 0 1 0.27337,-0.007 39.947386,39.947386 0 0 1 0.27337,-0.006 39.947386,39.947386 0 0 1 0.27337,-0.004 39.947386,39.947386 0 0 1 0.27336,-0.002 39.947386,39.947386 0 0 1 0.1447,-5.3e-4 z" />
      <circle
         style="opacity:0.312774;mix-blend-mode:normal;fill:#000000;fill-opacity:1;stroke:none;stroke-width:0.00881935"
         id="path833-3-56"
         cx="103.45952"
         cy="148.714"
         r="19.973394" />
    </g>
  </g>
</svg>
