<?xml version="1.0" encoding="UTF-8" standalone="no"?>
<!-- Created with Inkscape (http://www.inkscape.org/) -->

<svg
   width="120mm"
   height="120mm"
   viewBox="0 0 120 120"
   version="1.1"
   id="svg5"
   sodipodi:docname="logo.svg"
   inkscape:version="1.2.1 (9c6d41e410, 2022-07-14)"
   xmlns:inkscape="http://www.inkscape.org/namespaces/inkscape"
   xmlns:sodipodi="http://sodipodi.sourceforge.net/DTD/sodipodi-0.dtd"
   xmlns:xlink="http://www.w3.org/1999/xlink"
   xmlns="http://www.w3.org/2000/svg"
   xmlns:svg="http://www.w3.org/2000/svg">
  <sodipodi:namedview
     id="namedview7"
     pagecolor="#ffffff"
     bordercolor="#111111"
     borderopacity="1"
     inkscape:pageshadow="0"
     inkscape:pageopacity="1"
     inkscape:pagecheckerboard="1"
     inkscape:document-units="mm"
     showgrid="false"
     fit-margin-top="0"
     fit-margin-left="0"
     fit-margin-right="0"
     fit-margin-bottom="0"
     inkscape:zoom="1.3416246"
     inkscape:cx="188.20466"
     inkscape:cy="143.85544"
     inkscape:window-width="2998"
     inkscape:window-height="2978"
     inkscape:window-x="1500"
     inkscape:window-y="20"
     inkscape:window-maximized="1"
     inkscape:current-layer="layer1"
     inkscape:showpageshadow="0"
     inkscape:deskcolor="#d1d1d1">
    <inkscape:grid
       type="xygrid"
       id="grid26971"
       dotted="true"
       spacingx="0.25"
       spacingy="0.25"
       originx="-80.97255"
       originy="-91.952679" />
  </sodipodi:namedview>
  <defs
     id="defs2">
    <linearGradient
       inkscape:collect="always"
       id="linearGradient1734">
      <stop
         style="stop-color:#ffbf0d;stop-opacity:1;"
         offset="0"
         id="stop1730" />
      <stop
         style="stop-color:#dcff27;stop-opacity:1;"
         offset="1"
         id="stop1732" />
    </linearGradient>
    <linearGradient
       inkscape:collect="always"
       id="linearGradient1613">
      <stop
         style="stop-color:#e53900;stop-opacity:1;"
         offset="0"
         id="stop1609" />
      <stop
         style="stop-color:#e34f00;stop-opacity:1;"
         offset="1"
         id="stop1611" />
    </linearGradient>
    <linearGradient
       inkscape:collect="always"
       xlink:href="#linearGradient1613"
       id="linearGradient1615"
       x1="154.88586"
       y1="99.622498"
       x2="154.18721"
       y2="175.82404"
       gradientUnits="userSpaceOnUse"
       gradientTransform="matrix(0.93206535,0,0,0.93206535,9.5772918,10.269296)" />
    <linearGradient
       inkscape:collect="always"
       xlink:href="#linearGradient1734"
       id="linearGradient1728"
       x1="155.38869"
       y1="118.3645"
       x2="154.18721"
       y2="175.82404"
       gradientUnits="userSpaceOnUse"
       gradientTransform="matrix(0.93206535,0,0,0.93206535,9.5772918,10.269296)" />
  </defs>
  <g
     inkscape:label="Layer 1"
     inkscape:groupmode="layer"
     id="layer1"
     transform="translate(-80.972551,-91.952678)">
    <g
       id="g1759">
      <circle
         style="fill:#00393d;fill-opacity:1;stroke-width:0.01;stop-color:#000000"
         id="path1057"
         cx="140.97255"
         cy="151.95268"
         r="60" />
      <text
         xml:space="preserve"
         style="font-style:normal;font-variant:normal;font-weight:600;font-stretch:normal;font-size:10.1566px;line-height:1.05;font-family:'Josefin Sans';-inkscape-font-specification:'Josefin Sans Semi-Bold';fill:#ffffff;fill-opacity:1;stroke:none;stroke-width:0.084638"
         x="140.63588"
         y="189.6916"
         id="text8742"
         transform="scale(1.0017816,0.99822157)"><tspan
           sodipodi:role="line"
           id="tspan8740"
           style="font-style:normal;font-variant:normal;font-weight:600;font-stretch:normal;font-size:10.1566px;font-family:'Josefin Sans';-inkscape-font-specification:'Josefin Sans Semi-Bold';text-align:center;text-anchor:middle;fill:#ffffff;fill-opacity:1;stroke-width:0.084638"
           x="140.63588"
           y="189.6916">S C A L A</tspan><tspan
           sodipodi:role="line"
           style="font-style:normal;font-variant:normal;font-weight:600;font-stretch:normal;font-size:10.1566px;font-family:'Josefin Sans';-inkscape-font-specification:'Josefin Sans Semi-Bold';text-align:center;text-anchor:middle;fill:#ffffff;fill-opacity:1;stroke-width:0.084638"
           x="140.63588"
           y="200.35603"
           id="tspan1003">O N E</tspan></text>
      <path
         id="path31658"
         style="opacity:0.17614;fill:url(#linearGradient1728);fill-opacity:1;stroke:none;stroke-width:0.118295px;stroke-linecap:butt;stroke-linejoin:miter;stroke-opacity:1"
         d="m 147.69152,121.70875 -20.15546,10.0416 v 2.23152 l 6.71865,3.34753 20.15498,-10.04209 v -2.23151 z m 0,22.31474 -20.15546,10.04208 v 2.23153 l 6.71865,3.34704 20.15498,-10.0416 v -2.23153 z m 8.9574,17.85217 -15.67606,7.81009 c -1.14042,0.87514 0.62678,0.98248 0,2.23153 l 4.47896,2.23151 17.91576,-6.69455 v -2.23106 z" />
      <path
         id="path27025"
         style="fill:url(#linearGradient1615);fill-opacity:1;stroke:none;stroke-width:0.118295px;stroke-linecap:butt;stroke-linejoin:miter;stroke-opacity:1"
         d="m 153.94104,103.12397 c -0.32073,0.0102 -0.86127,0.27932 -1.77106,0.7326 -2.23946,1.11576 -29.11262,14.50491 -31.35209,15.62066 -2.23946,1.11575 -2.23971,1.11553 -2.23971,3.34705 v 4.46303 c 0,2.2315 2.5e-4,2.23152 2.23971,2.23152 h 4.47894 c 2.23945,0 2.23923,2e-5 2.23923,2.23152 v 2.23152 l 26.87363,-13.38913 v -15.62015 c 0,-1.32497 1.1e-4,-1.8635 -0.46865,-1.84862 z m 0.46865,21.93183 -26.87363,13.38913 v 17.85217 l 26.87363,-13.38913 z m 0,22.31521 c 0,0 -31.16808,15.52868 -33.4998,16.69042 -2.33172,1.16172 -2.33171,1.16131 -2.33171,3.39281 v 4.51745 c 0,2.1773 2.5e-4,2.1771 2.23971,2.1771 h 15.67604 l 26.87365,-13.38864 v -2.23153 c 0,-2.23151 -2.5e-4,-2.23152 -2.23971,-2.23152 h -4.47895 c -2.23945,0 -2.23923,-2.9e-4 -2.23923,-2.29366 z m 8.95789,17.85217 -17.91576,8.92561 h 15.67605 c 2.23946,0 2.23971,2.8e-4 2.23971,-2.26619 z" />
    </g>
  </g>
</svg>
