<?xml version="1.0" encoding="UTF-8" standalone="no"?>
<svg
   xmlns:dc="http://purl.org/dc/elements/1.1/"
   xmlns:cc="http://creativecommons.org/ns#"
   xmlns:rdf="http://www.w3.org/1999/02/22-rdf-syntax-ns#"
   xmlns:svg="http://www.w3.org/2000/svg"
   xmlns="http://www.w3.org/2000/svg"
   xmlns:sodipodi="http://sodipodi.sourceforge.net/DTD/sodipodi-0.dtd"
   xmlns:inkscape="http://www.inkscape.org/namespaces/inkscape"
   width="120mm"
   height="120mm"
   viewBox="0 0 120 120"
   version="1.1"
   id="svg8"
   inkscape:version="1.0.2 (e86c870879, 2021-01-15)">
  <defs
     id="defs2">
    <clipPath
       clipPathUnits="userSpaceOnUse"
       id="clipPath1319">
      <circle
         style="fill:none;fill-opacity:1;stroke:#0070d0;stroke-width:0.0899999;stroke-opacity:1"
         id="circle1321"
         cx="50.4715"
         cy="165.96811"
         r="72.377213" />
    </clipPath>
  </defs>
  <sodipodi:namedview
     id="base"
     pagecolor="#ffffff"
     bordercolor="#666666"
     borderopacity="1.0"
     inkscape:pageopacity="0.0"
     inkscape:pageshadow="2"
     inkscape:zoom="1.4"
     inkscape:cx="436.01322"
     inkscape:cy="159.49061"
     inkscape:document-units="mm"
     inkscape:current-layer="layer1"
     inkscape:document-rotation="0"
     showgrid="false"
     fit-margin-top="0"
     fit-margin-left="0"
     fit-margin-right="0"
     fit-margin-bottom="0"
     inkscape:pagecheckerboard="true"
     inkscape:window-width="4500"
     inkscape:window-height="2980"
     inkscape:window-x="0"
     inkscape:window-y="20"
     inkscape:window-maximized="0" />
  <metadata
     id="metadata5">
    <rdf:RDF>
      <cc:Work
         rdf:about="">
        <dc:format>image/svg+xml</dc:format>
        <dc:type
           rdf:resource="http://purl.org/dc/dcmitype/StillImage" />
        <dc:title></dc:title>
      </cc:Work>
    </rdf:RDF>
  </metadata>
  <g
     inkscape:label="Layer 1"
     inkscape:groupmode="layer"
     id="layer1"
     transform="translate(9.5284982,-105.96811)">
    <g
       id="g1308"
       clip-path="url(#clipPath1319)"
       transform="matrix(-0.81922979,0.12683575,0.12683575,0.81922979,70.768569,23.600499)">
      <circle
         style="opacity:1;fill:#f7dc1a;fill-opacity:1;stroke:none;stroke-width:0.0899999"
         id="path833"
         cx="50.4715"
         cy="165.96811"
         r="72.377213" />
      <circle
         style="opacity:0.249603;fill:#71a506;fill-opacity:1;stroke:none;stroke-width:0.0899999"
         id="path833-3"
         cx="55.763168"
         cy="155.38477"
         r="72.377213" />
      <circle
         style="opacity:0.249603;fill:#71a506;fill-opacity:1;stroke:none;stroke-width:0.0899999"
         id="path833-3-0"
         cx="29.304831"
         cy="134.21808"
         r="72.377213" />
      <circle
         style="opacity:0.249603;fill:#71a506;fill-opacity:1;stroke:none;stroke-width:0.0899999"
         id="path833-3-0-6"
         cx="45.179832"
         cy="113.05141"
         r="72.377213" />
      <circle
         style="opacity:0.249603;fill:#71a506;fill-opacity:1;stroke:none;stroke-width:0.0899999"
         id="path833-3-0-6-2"
         cx="18.721498"
         cy="91.88475"
         r="72.377213" />
      <circle
         style="opacity:0.249603;fill:#71a506;fill-opacity:1;stroke:none;stroke-width:0.0899999"
         id="path833-3-0-6-2-6"
         cx="34.596497"
         cy="70.718094"
         r="72.377213" />
      <circle
         style="opacity:0.249603;fill:#71a506;fill-opacity:1;stroke:none;stroke-width:0.0899999"
         id="path833-3-0-6-2-6-1"
         cx="8.1381655"
         cy="49.551426"
         r="72.377213" />
      <g
         id="g1191"
         transform="matrix(0.7744,0,0,0.7744,11.385924,39.259598)">
        <path
           id="path833-3-7"
           style="fill:#2390b8;fill-opacity:1;stroke:none;stroke-width:0.510236"
           d="m -219.25391,879.64844 a 410.32749,410.32749 0 0 0 30.01172,1.09961 410.32749,410.32749 0 0 0 409.98047,-393.43555 h -60 a 410.3275,410.3275 0 0 1 -0.006,0.13672 410.3275,410.3275 0 0 1 -0.0742,1.70117 410.3275,410.3275 0 0 1 -0.082,1.70117 410.3275,410.3275 0 0 1 -0.0879,1.70117 410.3275,410.3275 0 0 1 -0.0957,1.70118 410.3275,410.3275 0 0 1 -0.10156,1.69921 410.3275,410.3275 0 0 1 -0.10938,1.70118 410.3275,410.3275 0 0 1 -0.11719,1.69922 410.3275,410.3275 0 0 1 -0.12304,1.69921 410.3275,410.3275 0 0 1 -0.13086,1.69727 410.3275,410.3275 0 0 1 -0.13867,1.69922 410.3275,410.3275 0 0 1 -0.14454,1.69531 410.3275,410.3275 0 0 1 -0.15234,1.69727 410.3275,410.3275 0 0 1 -0.1582,1.69531 410.3275,410.3275 0 0 1 -0.16602,1.69531 410.3275,410.3275 0 0 1 -0.17187,1.69531 410.3275,410.3275 0 0 1 -0.18164,1.69336 410.3275,410.3275 0 0 1 -0.18555,1.69336 410.3275,410.3275 0 0 1 -0.19531,1.69336 410.3275,410.3275 0 0 1 -0.20118,1.69141 410.3275,410.3275 0 0 1 -0.20703,1.68945 410.3275,410.3275 0 0 1 -0.21484,1.68945 410.3275,410.3275 0 0 1 -0.22266,1.68946 410.3275,410.3275 0 0 1 -0.22851,1.6875 410.3275,410.3275 0 0 1 -0.23633,1.6875 410.3275,410.3275 0 0 1 -0.24414,1.68554 410.3275,410.3275 0 0 1 -0.25,1.68555 410.3275,410.3275 0 0 1 -0.25586,1.6836 410.3275,410.3275 0 0 1 -0.26563,1.68164 410.3275,410.3275 0 0 1 -0.26953,1.68164 410.3275,410.3275 0 0 1 -0.27929,1.68164 410.3275,410.3275 0 0 1 -0.28516,1.67969 410.3275,410.3275 0 0 1 -0.29102,1.67773 410.3275,410.3275 0 0 1 -0.29882,1.67773 410.3275,410.3275 0 0 1 -0.30664,1.67383 410.3275,410.3275 0 0 1 -0.3125,1.67578 410.3275,410.3275 0 0 1 -0.32032,1.67188 410.3275,410.3275 0 0 1 -0.32617,1.67187 410.3275,410.3275 0 0 1 -0.33398,1.67188 410.3275,410.3275 0 0 1 -0.33985,1.66797 410.3275,410.3275 0 0 1 -0.34765,1.66797 410.3275,410.3275 0 0 1 -0.35547,1.66601 410.3275,410.3275 0 0 1 -0.36133,1.66406 410.3275,410.3275 0 0 1 -0.36719,1.66407 410.3275,410.3275 0 0 1 -0.375,1.66015 410.3275,410.3275 0 0 1 -0.38281,1.66016 410.3275,410.3275 0 0 1 -0.38867,1.6582 410.3275,410.3275 0 0 1 -0.39649,1.65821 410.3275,410.3275 0 0 1 -0.40234,1.65429 410.3275,410.3275 0 0 1 -0.41016,1.65235 410.3275,410.3275 0 0 1 -0.41601,1.65234 410.3275,410.3275 0 0 1 -0.42383,1.65039 410.3275,410.3275 0 0 1 -0.42969,1.64844 410.3275,410.3275 0 0 1 -0.4375,1.64648 410.3275,410.3275 0 0 1 -0.44336,1.64453 410.3275,410.3275 0 0 1 -0.45117,1.64258 410.3275,410.3275 0 0 1 -0.45703,1.64063 410.3275,410.3275 0 0 1 -0.46484,1.63867 410.3275,410.3275 0 0 1 -0.47071,1.63672 410.3275,410.3275 0 0 1 -0.47851,1.63476 410.3275,410.3275 0 0 1 -0.48438,1.63282 410.3275,410.3275 0 0 1 -0.49023,1.63085 410.3275,410.3275 0 0 1 -0.49805,1.62891 410.3275,410.3275 0 0 1 -0.50586,1.62695 410.3275,410.3275 0 0 1 -0.51172,1.625 410.3275,410.3275 0 0 1 -0.51757,1.62305 410.3275,410.3275 0 0 1 -0.5254,1.61914 410.3275,410.3275 0 0 1 -0.5332,1.61914 410.3275,410.3275 0 0 1 -0.53711,1.61524 410.3275,410.3275 0 0 1 -0.54687,1.61328 410.3275,410.3275 0 0 1 -0.55078,1.61328 410.3275,410.3275 0 0 1 -0.5586,1.60742 410.3275,410.3275 0 0 1 -0.5664,1.60742 410.3275,410.3275 0 0 1 -0.57227,1.60547 410.3275,410.3275 0 0 1 -0.57813,1.60156 410.3275,410.3275 0 0 1 -0.58593,1.59961 410.3275,410.3275 0 0 1 -0.5918,1.59766 410.3275,410.3275 0 0 1 -0.59766,1.59375 410.3275,410.3275 0 0 1 -0.60546,1.5918 410.3275,410.3275 0 0 1 -0.61133,1.58984 410.3275,410.3275 0 0 1 -0.61914,1.58789 410.3275,410.3275 0 0 1 -0.625,1.58398 410.3275,410.3275 0 0 1 -0.63086,1.58204 410.3275,410.3275 0 0 1 -0.63867,1.58007 410.3275,410.3275 0 0 1 -0.64454,1.57618 410.3275,410.3275 0 0 1 -0.65039,1.57421 410.3275,410.3275 0 0 1 -0.6582,1.57032 410.3275,410.3275 0 0 1 -0.66406,1.56836 410.3275,410.3275 0 0 1 -0.67188,1.5664 410.3275,410.3275 0 0 1 -0.67578,1.5625 410.3275,410.3275 0 0 1 -0.68359,1.56055 410.3275,410.3275 0 0 1 -0.69141,1.55664 410.3275,410.3275 0 0 1 -0.69726,1.55469 410.3275,410.3275 0 0 1 -0.70313,1.55273 410.3275,410.3275 0 0 1 -0.70898,1.54688 410.3275,410.3275 0 0 1 -0.71485,1.54687 410.3275,410.3275 0 0 1 -0.72265,1.54297 410.3275,410.3275 0 0 1 -0.72852,1.53906 410.3275,410.3275 0 0 1 -0.73633,1.53711 410.3275,410.3275 0 0 1 -0.74023,1.53321 410.3275,410.3275 0 0 1 -0.74805,1.52929 410.3275,410.3275 0 0 1 -0.75586,1.52735 410.3275,410.3275 0 0 1 -0.75976,1.52539 410.3275,410.3275 0 0 1 -0.76758,1.51953 410.3275,410.3275 0 0 1 -0.77344,1.51758 410.3275,410.3275 0 0 1 -0.7793,1.51562 410.3275,410.3275 0 0 1 -0.78515,1.51172 410.3275,410.3275 0 0 1 -0.79102,1.50781 410.3275,410.3275 0 0 1 -0.79883,1.50391 410.3275,410.3275 0 0 1 -0.80468,1.50195 410.3275,410.3275 0 0 1 -0.81055,1.49805 410.3275,410.3275 0 0 1 -0.81641,1.49414 410.3275,410.3275 0 0 1 -0.82422,1.49219 410.3275,410.3275 0 0 1 -0.83007,1.48633 410.3275,410.3275 0 0 1 -0.83399,1.48437 410.3275,410.3275 0 0 1 -0.84179,1.48242 410.3275,410.3275 0 0 1 -0.84766,1.47656 410.3275,410.3275 0 0 1 -0.85547,1.47461 410.3275,410.3275 0 0 1 -0.85937,1.46875 410.3275,410.3275 0 0 1 -0.86524,1.4668 410.3275,410.3275 0 0 1 -0.87305,1.46484 410.3275,410.3275 0 0 1 -0.8789,1.45899 410.3275,410.3275 0 0 1 -0.88281,1.45508 410.3275,410.3275 0 0 1 -0.89063,1.45312 410.3275,410.3275 0 0 1 -0.896484,1.44727 410.3275,410.3275 0 0 1 -0.902344,1.44531 410.3275,410.3275 0 0 1 -0.908203,1.44141 410.3275,410.3275 0 0 1 -0.916015,1.43554 410.3275,410.3275 0 0 1 -0.919922,1.4336 410.3275,410.3275 0 0 1 -0.925781,1.42968 410.3275,410.3275 0 0 1 -0.931641,1.42579 410.3275,410.3275 0 0 1 -0.939453,1.42187 410.3275,410.3275 0 0 1 -0.943359,1.41797 410.3275,410.3275 0 0 1 -0.949219,1.41406 410.3275,410.3275 0 0 1 -0.957031,1.41016 410.3275,410.3275 0 0 1 -0.960938,1.40625 410.3275,410.3275 0 0 1 -0.966797,1.40234 410.3275,410.3275 0 0 1 -0.974609,1.39649 410.3275,410.3275 0 0 1 -0.978516,1.39453 410.3275,410.3275 0 0 1 -0.984375,1.39062 410.3275,410.3275 0 0 1 -0.990234,1.38477 410.3275,410.3275 0 0 1 -0.996094,1.38086 410.3275,410.3275 0 0 1 -1.001953,1.3789 410.3275,410.3275 0 0 1 -1.007813,1.37305 410.3275,410.3275 0 0 1 -1.013671,1.36914 410.3275,410.3275 0 0 1 -1.019532,1.36524 410.3275,410.3275 0 0 1 -1.02539,1.35937 410.3275,410.3275 0 0 1 -1.029297,1.35742 410.3275,410.3275 0 0 1 -1.03711,1.35157 410.3275,410.3275 0 0 1 -1.041015,1.34765 410.3275,410.3275 0 0 1 -1.046875,1.34375 410.3275,410.3275 0 0 1 -1.052735,1.33789 410.3275,410.3275 0 0 1 -1.058593,1.33594 410.3275,410.3275 0 0 1 -1.064453,1.33008 410.3275,410.3275 0 0 1 -1.06836,1.32617 410.3275,410.3275 0 0 1 -1.076172,1.32031 410.3275,410.3275 0 0 1 -1.080078,1.31836 410.3275,410.3275 0 0 1 -1.085937,1.3125 410.3275,410.3275 0 0 1 -1.089844,1.30664 410.3275,410.3275 0 0 1 -1.097656,1.30469 410.3275,410.3275 0 0 1 -1.101563,1.29883 410.3275,410.3275 0 0 1 -1.107422,1.29297 410.3275,410.3275 0 0 1 -1.113281,1.28906 410.3275,410.3275 0 0 1 -1.117187,1.28516 410.3275,410.3275 0 0 1 -1.125,1.28125 410.3275,410.3275 0 0 1 -1.128907,1.27539 410.3275,410.3275 0 0 1 -1.132812,1.27148 410.3275,410.3275 0 0 1 -1.140625,1.26563 410.3275,410.3275 0 0 1 -1.144532,1.26171 410.3275,410.3275 0 0 1 -1.148437,1.25586 410.3275,410.3275 0 0 1 -1.15625,1.25196 410.3275,410.3275 0 0 1 -1.160156,1.24804 410.3275,410.3275 0 0 1 -1.164063,1.24219 410.3275,410.3275 0 0 1 -1.171875,1.23828 410.3275,410.3275 0 0 1 -1.175781,1.23242 410.3275,410.3275 0 0 1 -1.179688,1.22657 410.3275,410.3275 0 0 1 -1.185546,1.22265 410.3275,410.3275 0 0 1 -1.191407,1.21875 410.3275,410.3275 0 0 1 -1.195312,1.21289 410.3275,410.3275 0 0 1 -1.201172,1.20703 410.3275,410.3275 0 0 1 -1.207031,1.20313 410.3275,410.3275 0 0 1 -1.210938,1.19922 410.3275,410.3275 0 0 1 -1.214844,1.19141 410.3275,410.3275 0 0 1 -1.220703,1.18945 410.3275,410.3275 0 0 1 -1.226562,1.18164 410.3275,410.3275 0 0 1 -1.230469,1.17773 410.3275,410.3275 0 0 1 -1.236328,1.17188 410.3275,410.3275 0 0 1 -1.240234,1.16797 410.3275,410.3275 0 0 1 -1.244141,1.16211 410.3275,410.3275 0 0 1 -1.25,1.1582 410.3275,410.3275 0 0 1 -1.255859,1.15039 410.3275,410.3275 0 0 1 -1.259766,1.14648 410.3275,410.3275 0 0 1 -1.263672,1.14258 410.3275,410.3275 0 0 1 -1.269531,1.13672 410.3275,410.3275 0 0 1 -1.273438,1.13086 410.3275,410.3275 0 0 1 -1.279297,1.125 410.3275,410.3275 0 0 1 -1.283203,1.11914 410.3275,410.3275 0 0 1 -1.287109,1.11524 410.3275,410.3275 0 0 1 -1.292969,1.10937 410.3275,410.3275 0 0 1 -1.296875,1.10547 410.3275,410.3275 0 0 1 -1.300781,1.09766 410.3275,410.3275 0 0 1 -1.306641,1.09375 410.3275,410.3275 0 0 1 -1.310546,1.08789 410.3275,410.3275 0 0 1 -1.314454,1.08203 410.3275,410.3275 0 0 1 -1.3203121,1.07812 410.3275,410.3275 0 0 1 -1.3242188,1.07032 410.3275,410.3275 0 0 1 -1.328125,1.0664 410.3275,410.3275 0 0 1 -1.3339843,1.06055 410.3275,410.3275 0 0 1 -1.3359376,1.05469 410.3275,410.3275 0 0 1 -1.3417968,1.05078 410.3275,410.3275 0 0 1 -1.3476563,1.04297 410.3275,410.3275 0 0 1 -1.34960935,1.03906 410.3275,410.3275 0 0 1 -1.35546875,1.03125 410.3275,410.3275 0 0 1 -1.3574219,1.02734 410.3275,410.3275 0 0 1 -1.3632812,1.02149 410.3275,410.3275 0 0 1 -1.3671875,1.01562 410.3275,410.3275 0 0 1 -1.3730469,1.00977 410.3275,410.3275 0 0 1 -1.375,1.0039 410.3275,410.3275 0 0 1 -1.3808594,1 410.3275,410.3275 0 0 1 -1.3828121,0.99219 410.3275,410.3275 0 0 1 -1.388672,0.98633 410.3275,410.3275 0 0 1 -1.392578,0.98242 410.3275,410.3275 0 0 1 -1.396485,0.97461 410.3275,410.3275 0 0 1 -1.40039,0.9707 410.3275,410.3275 0 0 1 -1.404297,0.96289 410.3275,410.3275 0 0 1 -1.408203,0.95899 410.3275,410.3275 0 0 1 -1.41211,0.95117 410.3275,410.3275 0 0 1 -1.416015,0.94727 410.3275,410.3275 0 0 1 -1.421875,0.93945 410.3275,410.3275 0 0 1 -1.423829,0.93555 410.3275,410.3275 0 0 1 -1.427734,0.92773 410.3275,410.3275 0 0 1 -1.43164,0.92383 410.3275,410.3275 0 0 1 -1.435547,0.91601 410.3275,410.3275 0 0 1 -1.439453,0.91016 410.3275,410.3275 0 0 1 -1.44336,0.9043 410.3275,410.3275 0 0 1 -1.447266,0.90039 410.3275,410.3275 0 0 1 -1.449218,0.89258 410.3275,410.3275 0 0 1 -1.455078,0.88671 410.3275,410.3275 0 0 1 -1.458985,0.88086 410.3275,410.3275 0 0 1 -1.460937,0.87305 410.3275,410.3275 0 0 1 -1.464844,0.86914 410.3275,410.3275 0 0 1 -1.46875,0.86328 410.3275,410.3275 0 0 1 -1.472656,0.85547 410.3275,410.3275 0 0 1 -1.476563,0.84961 410.3275,410.3275 0 0 1 -1.478515,0.8457 410.3275,410.3275 0 0 1 -1.484375,0.83789 410.3275,410.3275 0 0 1 -1.486329,0.83008 410.3275,410.3275 0 0 1 -1.490234,0.82617 410.3275,410.3275 0 0 1 -1.492187,0.82032 410.3275,410.3275 0 0 1 -1.498047,0.8125 410.3275,410.3275 0 0 1 -1.5,0.80664 410.3275,410.3275 0 0 1 -1.501953,0.80078 410.3275,410.3275 0 0 1 -1.507813,0.79492 410.3275,410.3275 0 0 1 -1.509766,0.78906 410.3275,410.3275 0 0 1 -1.513671,0.78125 410.3275,410.3275 0 0 1 -1.515625,0.77539 410.3275,410.3275 0 0 1 -1.519532,0.76953 410.3275,410.3275 0 0 1 -1.523437,0.76368 410.3275,410.3275 0 0 1 -1.525391,0.75586 410.3275,410.3275 0 0 1 -1.529297,0.75 410.3275,410.3275 0 0 1 -1.533203,0.74414 410.3275,410.3275 0 0 1 -1.535156,0.73828 410.3275,410.3275 0 0 1 -1.539062,0.73047 410.3275,410.3275 0 0 1 -1.541016,0.72656 410.3275,410.3275 0 0 1 -1.542969,0.7168 410.3275,410.3275 0 0 1 -1.548828,0.71289 410.3275,410.3275 0 0 1 -1.550781,0.70508 410.3275,410.3275 0 0 1 -1.552735,0.69921 410.3275,410.3275 0 0 1 -1.55664,0.69336 410.3275,410.3275 0 0 1 -1.558594,0.68555 410.3275,410.3275 0 0 1 -1.560547,0.67969 410.3275,410.3275 0 0 1 -1.564453,0.67383 410.3275,410.3275 0 0 1 -1.568359,0.66796 410.3275,410.3275 0 0 1 -1.570313,0.66016 410.3275,410.3275 0 0 1 -1.572265,0.65234 410.3275,410.3275 0 0 1 -1.576172,0.64844 410.3275,410.3275 0 0 1 -1.578125,0.64063 410.3275,410.3275 0 0 1 -1.580079,0.63281 410.3275,410.3275 0 0 1 -1.583984,0.62891 410.3275,410.3275 0 0 1 -1.585938,0.62109 410.3275,410.3275 0 0 1 -1.58984,0.61328 410.3275,410.3275 0 0 1 -1.58985,0.60742 410.3275,410.3275 0 0 1 -1.59375,0.60156 410.3275,410.3275 0 0 1 -1.59765,0.59571 410.3275,410.3275 0 0 1 -1.59766,0.58789 410.3275,410.3275 0 0 1 -1.60156,0.58008 410.3275,410.3275 0 0 1 -1.60352,0.57617 410.3275,410.3275 0 0 1 -1.60547,0.56641 410.3275,410.3275 0 0 1 -1.60937,0.5625 410.3275,410.3275 0 0 1 -1.60938,0.55468 410.3275,410.3275 0 0 1 -1.61328,0.54688 410.3275,410.3275 0 0 1 -1.61523,0.54101 410.3275,410.3275 0 0 1 -1.61719,0.53516 410.3275,410.3275 0 0 1 -1.61914,0.52734 410.3275,410.3275 0 0 1 -1.62305,0.52149 410.3275,410.3275 0 0 1 -1.62304,0.51367 410.3275,410.3275 0 0 1 -1.625,0.50781 410.3275,410.3275 0 0 1 -1.62891,0.50196 410.3275,410.3275 0 0 1 -1.63086,0.49414 410.3275,410.3275 0 0 1 -1.63086,0.48632 410.3275,410.3275 0 0 1 -1.63476,0.48047 410.3275,410.3275 0 0 1 -1.63672,0.47461 410.3275,410.3275 0 0 1 -1.63672,0.4668 410.3275,410.3275 0 0 1 -1.64063,0.45898 410.3275,410.3275 0 0 1 -1.64258,0.45508 410.3275,410.3275 0 0 1 -1.64257,0.44531 410.3275,410.3275 0 0 1 -1.64649,0.43946 410.3275,410.3275 0 0 1 -1.64648,0.43359 410.3275,410.3275 0 0 1 -1.65039,0.42578 410.3275,410.3275 0 0 1 -1.65039,0.41992 410.3275,410.3275 0 0 1 -1.65235,0.41211 410.3275,410.3275 0 0 1 -1.65429,0.4043 410.3275,410.3275 0 0 1 -1.65625,0.39844 410.3275,410.3275 0 0 1 -1.65821,0.39258 410.3275,410.3275 0 0 1 -1.66015,0.38476 410.3275,410.3275 0 0 1 -1.66016,0.37695 410.3275,410.3275 0 0 1 -1.66211,0.3711 410.3275,410.3275 0 0 1 -1.66406,0.36523 410.3275,410.3275 0 0 1 -1.66602,0.35742 410.3275,410.3275 0 0 1 -1.66601,0.34961 410.3275,410.3275 0 0 1 -1.66992,0.34375 410.3275,410.3275 0 0 1 -1.66993,0.33594 410.3275,410.3275 0 0 1 -1.66992,0.33008 410.3275,410.3275 0 0 1 -1.67383,0.32227 410.3275,410.3275 0 0 1 -1.67382,0.31445 410.3275,410.3275 0 0 1 -1.67383,0.31055 410.3275,410.3275 0 0 1 -1.67774,0.30078 410.3275,410.3275 0 0 1 -1.67773,0.29492 410.3275,410.3275 0 0 1 -1.67774,0.28711 410.3275,410.3275 0 0 1 -1.67968,0.28125 410.3275,410.3275 0 0 1 -1.68164,0.27344 410.3275,410.3275 0 0 1 -1.6836,0.26757 410.3275,410.3275 0 0 1 -1.68164,0.25977 410.3275,410.3275 0 0 1 -1.68555,0.25195 410.3275,410.3275 0 0 1 -1.68554,0.2461 410.3275,410.3275 0 0 1 -1.68555,0.24023 410.3275,410.3275 0 0 1 -1.6875,0.23047 410.3275,410.3275 0 0 1 -1.68945,0.22461 410.3275,410.3275 0 0 1 -1.68946,0.21875 410.3275,410.3275 0 0 1 -1.68945,0.21094 410.3275,410.3275 0 0 1 -1.6914,0.20312 410.3275,410.3275 0 0 1 -1.69141,0.19727 410.3275,410.3275 0 0 1 -1.69336,0.18945 410.3275,410.3275 0 0 1 -1.69336,0.18359 410.3275,410.3275 0 0 1 -1.69531,0.17578 410.3275,410.3275 0 0 1 -1.69336,0.16797 410.3275,410.3275 0 0 1 -1.69727,0.16211 410.3275,410.3275 0 0 1 -1.69531,0.1543 410.3275,410.3275 0 0 1 -1.69727,0.14648 410.3275,410.3275 0 0 1 -1.69726,0.14063 410.3275,410.3275 0 0 1 -1.69922,0.13476 410.3275,410.3275 0 0 1 -1.31055,0.0957 z"
           transform="scale(0.26458333)" />
        <path
           id="path833-3-7-0"
           style="opacity:0.351021;fill:#2390b8;fill-opacity:1;stroke:none;stroke-width:0.510236"
           d="M 570.75781,80.091797 A 410.32751,410.32751 0 0 0 160.43164,490.41992 410.32751,410.32751 0 0 0 160.7793,507.3125 h -0.041 a 410.32751,410.32751 0 0 1 -0.006,0.13672 410.32751,410.32751 0 0 1 -0.0742,1.70117 410.32751,410.32751 0 0 1 -0.082,1.70117 410.32751,410.32751 0 0 1 -0.0879,1.70117 410.32751,410.32751 0 0 1 -0.0957,1.70118 410.32751,410.32751 0 0 1 -0.10156,1.69921 410.32751,410.32751 0 0 1 -0.10938,1.70118 410.32751,410.32751 0 0 1 -0.11719,1.69922 410.32751,410.32751 0 0 1 -0.12304,1.69921 410.32751,410.32751 0 0 1 -0.13086,1.69727 410.32751,410.32751 0 0 1 -0.13867,1.69922 410.32751,410.32751 0 0 1 -0.14454,1.69531 410.32751,410.32751 0 0 1 -0.15234,1.69727 410.32751,410.32751 0 0 1 -0.1582,1.69531 410.32751,410.32751 0 0 1 -0.16602,1.69531 410.32751,410.32751 0 0 1 -0.17187,1.69531 410.32751,410.32751 0 0 1 -0.18164,1.69336 410.32751,410.32751 0 0 1 -0.18555,1.69336 410.32751,410.32751 0 0 1 -0.19531,1.69336 410.32751,410.32751 0 0 1 -0.20118,1.69141 410.32751,410.32751 0 0 1 -0.20703,1.68945 410.32751,410.32751 0 0 1 -0.21484,1.68945 410.32751,410.32751 0 0 1 -0.22266,1.68946 410.32751,410.32751 0 0 1 -0.22851,1.6875 410.32751,410.32751 0 0 1 -0.23633,1.6875 410.32751,410.32751 0 0 1 -0.24414,1.68554 410.32751,410.32751 0 0 1 -0.25,1.68555 410.32751,410.32751 0 0 1 -0.25586,1.6836 410.32751,410.32751 0 0 1 -0.26563,1.68164 410.32751,410.32751 0 0 1 -0.26953,1.68164 410.32751,410.32751 0 0 1 -0.27929,1.68164 410.32751,410.32751 0 0 1 -0.28516,1.67969 410.32751,410.32751 0 0 1 -0.29102,1.67773 410.32751,410.32751 0 0 1 -0.29882,1.67773 410.32751,410.32751 0 0 1 -0.30664,1.67383 410.32751,410.32751 0 0 1 -0.3125,1.67578 410.32751,410.32751 0 0 1 -0.32032,1.67188 410.32751,410.32751 0 0 1 -0.32617,1.67187 410.32751,410.32751 0 0 1 -0.33398,1.67188 410.32751,410.32751 0 0 1 -0.33985,1.66797 410.32751,410.32751 0 0 1 -0.34765,1.66797 410.32751,410.32751 0 0 1 -0.35547,1.66601 410.32751,410.32751 0 0 1 -0.36133,1.66406 410.32751,410.32751 0 0 1 -0.36719,1.66407 410.32751,410.32751 0 0 1 -0.375,1.66015 410.32751,410.32751 0 0 1 -0.38281,1.66016 410.32751,410.32751 0 0 1 -0.38867,1.6582 410.32751,410.32751 0 0 1 -0.39649,1.65821 410.32751,410.32751 0 0 1 -0.40234,1.65429 410.32751,410.32751 0 0 1 -0.41016,1.65235 410.32751,410.32751 0 0 1 -0.41601,1.65234 410.32751,410.32751 0 0 1 -0.42383,1.65039 410.32751,410.32751 0 0 1 -0.42969,1.64844 410.32751,410.32751 0 0 1 -0.4375,1.64648 410.32751,410.32751 0 0 1 -0.44336,1.64453 410.32751,410.32751 0 0 1 -0.45117,1.64258 410.32751,410.32751 0 0 1 -0.45703,1.64063 410.32751,410.32751 0 0 1 -0.46484,1.63867 410.32751,410.32751 0 0 1 -0.47071,1.63672 410.32751,410.32751 0 0 1 -0.47851,1.63476 410.32751,410.32751 0 0 1 -0.48438,1.63282 410.32751,410.32751 0 0 1 -0.49023,1.63085 410.32751,410.32751 0 0 1 -0.49805,1.62891 410.32751,410.32751 0 0 1 -0.50586,1.62695 410.32751,410.32751 0 0 1 -0.51172,1.625 410.32751,410.32751 0 0 1 -0.51757,1.62305 410.32751,410.32751 0 0 1 -0.5254,1.61914 410.32751,410.32751 0 0 1 -0.5332,1.61914 410.32751,410.32751 0 0 1 -0.53711,1.61524 410.32751,410.32751 0 0 1 -0.54687,1.61328 410.32751,410.32751 0 0 1 -0.55078,1.61328 410.32751,410.32751 0 0 1 -0.5586,1.60742 410.32751,410.32751 0 0 1 -0.5664,1.60742 410.32751,410.32751 0 0 1 -0.57227,1.60547 410.32751,410.32751 0 0 1 -0.57813,1.60156 410.32751,410.32751 0 0 1 -0.58593,1.59961 410.32751,410.32751 0 0 1 -0.5918,1.59766 410.32751,410.32751 0 0 1 -0.59766,1.59375 410.32751,410.32751 0 0 1 -0.60546,1.5918 410.32751,410.32751 0 0 1 -0.61133,1.58984 410.32751,410.32751 0 0 1 -0.61914,1.58789 410.32751,410.32751 0 0 1 -0.625,1.58398 410.32751,410.32751 0 0 1 -0.63086,1.58204 410.32751,410.32751 0 0 1 -0.63867,1.58007 410.32751,410.32751 0 0 1 -0.64454,1.57618 410.32751,410.32751 0 0 1 -0.65039,1.57421 410.32751,410.32751 0 0 1 -0.6582,1.57032 410.32751,410.32751 0 0 1 -0.66406,1.56836 410.32751,410.32751 0 0 1 -0.67188,1.5664 410.32751,410.32751 0 0 1 -0.67578,1.5625 410.32751,410.32751 0 0 1 -0.68359,1.56055 410.32751,410.32751 0 0 1 -0.69141,1.55664 410.32751,410.32751 0 0 1 -0.69726,1.55469 410.32751,410.32751 0 0 1 -0.70313,1.55273 410.32751,410.32751 0 0 1 -0.70898,1.54688 410.32751,410.32751 0 0 1 -0.71485,1.54687 410.32751,410.32751 0 0 1 -0.72265,1.54297 410.32751,410.32751 0 0 1 -0.72852,1.53906 410.32751,410.32751 0 0 1 -0.73633,1.53711 410.32751,410.32751 0 0 1 -0.74023,1.53321 410.32751,410.32751 0 0 1 -0.74805,1.52929 410.32751,410.32751 0 0 1 -0.75586,1.52735 410.32751,410.32751 0 0 1 -0.75976,1.52539 410.32751,410.32751 0 0 1 -0.76758,1.51953 410.32751,410.32751 0 0 1 -0.77344,1.51758 410.32751,410.32751 0 0 1 -0.7793,1.51562 410.32751,410.32751 0 0 1 -0.78515,1.51172 410.32751,410.32751 0 0 1 -0.79102,1.50781 410.32751,410.32751 0 0 1 -0.79883,1.50391 410.32751,410.32751 0 0 1 -0.80468,1.50195 410.32751,410.32751 0 0 1 -0.81055,1.49805 410.32751,410.32751 0 0 1 -0.81641,1.49414 410.32751,410.32751 0 0 1 -0.82422,1.49219 410.32751,410.32751 0 0 1 -0.83007,1.48633 410.32751,410.32751 0 0 1 -0.83399,1.48437 410.32751,410.32751 0 0 1 -0.84179,1.48242 410.32751,410.32751 0 0 1 -0.84766,1.47656 410.32751,410.32751 0 0 1 -0.85547,1.47461 410.32751,410.32751 0 0 1 -0.85937,1.46875 410.32751,410.32751 0 0 1 -0.86524,1.4668 410.32751,410.32751 0 0 1 -0.87305,1.46484 410.32751,410.32751 0 0 1 -0.8789,1.45899 410.32751,410.32751 0 0 1 -0.88281,1.45508 410.32751,410.32751 0 0 1 -0.89063,1.45312 410.32751,410.32751 0 0 1 -0.896484,1.44727 410.32751,410.32751 0 0 1 -0.902344,1.44531 410.32751,410.32751 0 0 1 -0.908203,1.44141 410.32751,410.32751 0 0 1 -0.916015,1.43554 410.32751,410.32751 0 0 1 -0.919922,1.4336 410.32751,410.32751 0 0 1 -0.925781,1.42968 410.32751,410.32751 0 0 1 -0.931641,1.42579 410.32751,410.32751 0 0 1 -0.939453,1.42187 410.32751,410.32751 0 0 1 -0.943359,1.41797 410.32751,410.32751 0 0 1 -0.949219,1.41406 410.32751,410.32751 0 0 1 -0.957031,1.41016 410.32751,410.32751 0 0 1 -0.960938,1.40625 410.32751,410.32751 0 0 1 -0.966797,1.40234 410.32751,410.32751 0 0 1 -0.974609,1.39649 410.32751,410.32751 0 0 1 -0.978516,1.39453 410.32751,410.32751 0 0 1 -0.984375,1.39062 410.32751,410.32751 0 0 1 -0.990234,1.38477 410.32751,410.32751 0 0 1 -0.996094,1.38086 410.32751,410.32751 0 0 1 -1.001953,1.3789 410.32751,410.32751 0 0 1 -1.007813,1.37305 410.32751,410.32751 0 0 1 -1.013671,1.36914 410.32751,410.32751 0 0 1 -1.019532,1.36524 410.32751,410.32751 0 0 1 -1.02539,1.35937 410.32751,410.32751 0 0 1 -1.029297,1.35742 410.32751,410.32751 0 0 1 -1.03711,1.35157 410.32751,410.32751 0 0 1 -1.041015,1.34765 410.32751,410.32751 0 0 1 -1.046875,1.34375 410.32751,410.32751 0 0 1 -1.052735,1.33789 410.32751,410.32751 0 0 1 -1.058593,1.33594 410.32751,410.32751 0 0 1 -1.064453,1.33008 410.32751,410.32751 0 0 1 -1.06836,1.32617 410.32751,410.32751 0 0 1 -1.076172,1.32031 410.32751,410.32751 0 0 1 -1.080078,1.31836 410.32751,410.32751 0 0 1 -1.085937,1.3125 410.32751,410.32751 0 0 1 -1.089844,1.30664 410.32751,410.32751 0 0 1 -1.097656,1.30469 410.32751,410.32751 0 0 1 -1.101563,1.29883 410.32751,410.32751 0 0 1 -1.107422,1.29297 410.32751,410.32751 0 0 1 -1.113281,1.28906 410.32751,410.32751 0 0 1 -1.117187,1.28516 410.32751,410.32751 0 0 1 -1.125,1.28125 410.32751,410.32751 0 0 1 -1.128907,1.27539 410.32751,410.32751 0 0 1 -1.132812,1.27148 410.32751,410.32751 0 0 1 -1.140625,1.26563 410.32751,410.32751 0 0 1 -1.144532,1.26171 410.32751,410.32751 0 0 1 -1.148437,1.25586 410.32751,410.32751 0 0 1 -1.15625,1.25196 410.32751,410.32751 0 0 1 -1.160156,1.24804 410.32751,410.32751 0 0 1 -1.164063,1.24219 410.32751,410.32751 0 0 1 -1.171875,1.23828 410.32751,410.32751 0 0 1 -1.175781,1.23242 410.32751,410.32751 0 0 1 -1.179688,1.22657 410.32751,410.32751 0 0 1 -1.185546,1.22265 410.32751,410.32751 0 0 1 -1.191407,1.21875 410.32751,410.32751 0 0 1 -1.195312,1.21289 410.32751,410.32751 0 0 1 -1.201172,1.20703 410.32751,410.32751 0 0 1 -1.207031,1.20313 410.32751,410.32751 0 0 1 -1.210938,1.19922 410.32751,410.32751 0 0 1 -1.214844,1.19141 410.32751,410.32751 0 0 1 -1.220703,1.18945 410.32751,410.32751 0 0 1 -1.226562,1.18164 410.32751,410.32751 0 0 1 -1.230469,1.17773 410.32751,410.32751 0 0 1 -1.236328,1.17188 410.32751,410.32751 0 0 1 -1.240234,1.16797 410.32751,410.32751 0 0 1 -1.244141,1.16211 410.32751,410.32751 0 0 1 -1.25,1.1582 410.32751,410.32751 0 0 1 -1.255859,1.15039 410.32751,410.32751 0 0 1 -1.259766,1.14648 410.32751,410.32751 0 0 1 -1.263672,1.14258 410.32751,410.32751 0 0 1 -1.269531,1.13672 410.32751,410.32751 0 0 1 -1.273438,1.13086 410.32751,410.32751 0 0 1 -1.279297,1.125 410.32751,410.32751 0 0 1 -1.283203,1.11914 410.32751,410.32751 0 0 1 -1.287109,1.11524 410.32751,410.32751 0 0 1 -1.292969,1.10937 410.32751,410.32751 0 0 1 -1.296875,1.10547 410.32751,410.32751 0 0 1 -1.300781,1.09766 410.32751,410.32751 0 0 1 -1.306641,1.09375 410.32751,410.32751 0 0 1 -1.310546,1.08789 410.32751,410.32751 0 0 1 -1.314454,1.08203 410.32751,410.32751 0 0 1 -1.3203121,1.07812 410.32751,410.32751 0 0 1 -1.3242188,1.07032 410.32751,410.32751 0 0 1 -1.328125,1.0664 410.32751,410.32751 0 0 1 -1.3339843,1.06055 410.32751,410.32751 0 0 1 -1.3359376,1.05469 410.32751,410.32751 0 0 1 -1.3417968,1.05078 410.32751,410.32751 0 0 1 -1.3476563,1.04297 410.32751,410.32751 0 0 1 -1.34960935,1.03906 410.32751,410.32751 0 0 1 -1.35546875,1.03125 410.32751,410.32751 0 0 1 -1.3574219,1.02734 410.32751,410.32751 0 0 1 -1.3632812,1.02149 410.32751,410.32751 0 0 1 -1.3671875,1.01562 410.32751,410.32751 0 0 1 -1.3730469,1.00977 410.32751,410.32751 0 0 1 -1.375,1.0039 410.32751,410.32751 0 0 1 -1.3808594,1 410.32751,410.32751 0 0 1 -1.3828121,0.99219 410.32751,410.32751 0 0 1 -1.388672,0.98633 410.32751,410.32751 0 0 1 -1.392578,0.98242 410.32751,410.32751 0 0 1 -1.396485,0.97461 410.32751,410.32751 0 0 1 -1.40039,0.9707 410.32751,410.32751 0 0 1 -1.404297,0.96289 410.32751,410.32751 0 0 1 -1.408203,0.95899 410.32751,410.32751 0 0 1 -1.41211,0.95117 410.32751,410.32751 0 0 1 -1.416015,0.94727 410.32751,410.32751 0 0 1 -1.421875,0.93945 410.32751,410.32751 0 0 1 -1.423829,0.93555 410.32751,410.32751 0 0 1 -1.427734,0.92773 410.32751,410.32751 0 0 1 -1.43164,0.92383 410.32751,410.32751 0 0 1 -1.435547,0.91601 410.32751,410.32751 0 0 1 -1.439453,0.91016 410.32751,410.32751 0 0 1 -1.44336,0.9043 410.32751,410.32751 0 0 1 -1.447266,0.90039 410.32751,410.32751 0 0 1 -1.449218,0.89258 410.32751,410.32751 0 0 1 -1.455078,0.88671 410.32751,410.32751 0 0 1 -1.458985,0.88086 410.32751,410.32751 0 0 1 -1.460937,0.87305 410.32751,410.32751 0 0 1 -1.464844,0.86914 410.32751,410.32751 0 0 1 -1.46875,0.86328 410.32751,410.32751 0 0 1 -1.472656,0.85547 410.32751,410.32751 0 0 1 -1.476563,0.84961 410.32751,410.32751 0 0 1 -1.478515,0.8457 410.32751,410.32751 0 0 1 -1.484375,0.83789 410.32751,410.32751 0 0 1 -1.486329,0.83008 410.32751,410.32751 0 0 1 -1.490234,0.82617 410.32751,410.32751 0 0 1 -1.492187,0.82032 410.32751,410.32751 0 0 1 -1.498047,0.8125 410.32751,410.32751 0 0 1 -1.5,0.80664 410.32751,410.32751 0 0 1 -1.501953,0.80078 410.32751,410.32751 0 0 1 -1.507813,0.79492 410.32751,410.32751 0 0 1 -1.509766,0.78906 410.32751,410.32751 0 0 1 -1.513671,0.78125 410.32751,410.32751 0 0 1 -1.515625,0.77539 410.32751,410.32751 0 0 1 -1.519532,0.76953 410.32751,410.32751 0 0 1 -1.523437,0.76368 410.32751,410.32751 0 0 1 -1.525391,0.75586 410.32751,410.32751 0 0 1 -1.529297,0.75 410.32751,410.32751 0 0 1 -1.533203,0.74414 410.32751,410.32751 0 0 1 -1.535156,0.73828 410.32751,410.32751 0 0 1 -1.539062,0.73047 410.32751,410.32751 0 0 1 -1.541016,0.72656 410.32751,410.32751 0 0 1 -1.542969,0.7168 410.32751,410.32751 0 0 1 -1.548828,0.71289 410.32751,410.32751 0 0 1 -1.550781,0.70508 410.32751,410.32751 0 0 1 -1.552735,0.69921 410.32751,410.32751 0 0 1 -1.55664,0.69336 410.32751,410.32751 0 0 1 -1.558594,0.68555 410.32751,410.32751 0 0 1 -1.560547,0.67969 410.32751,410.32751 0 0 1 -1.564453,0.67383 410.32751,410.32751 0 0 1 -1.568359,0.66796 410.32751,410.32751 0 0 1 -1.570313,0.66016 410.32751,410.32751 0 0 1 -1.572265,0.65234 410.32751,410.32751 0 0 1 -1.576172,0.64844 410.32751,410.32751 0 0 1 -1.578125,0.64063 410.32751,410.32751 0 0 1 -1.580079,0.63281 410.32751,410.32751 0 0 1 -1.583984,0.62891 410.32751,410.32751 0 0 1 -1.585938,0.62109 410.32751,410.32751 0 0 1 -1.58984,0.61328 410.32751,410.32751 0 0 1 -1.58985,0.60742 410.32751,410.32751 0 0 1 -1.59375,0.60156 410.32751,410.32751 0 0 1 -1.59765,0.59571 410.32751,410.32751 0 0 1 -1.59766,0.58789 410.32751,410.32751 0 0 1 -1.60156,0.58008 410.32751,410.32751 0 0 1 -1.60352,0.57617 410.32751,410.32751 0 0 1 -1.60547,0.56641 410.32751,410.32751 0 0 1 -1.60937,0.5625 410.32751,410.32751 0 0 1 -1.60938,0.55468 410.32751,410.32751 0 0 1 -1.61328,0.54688 410.32751,410.32751 0 0 1 -1.61523,0.54101 410.32751,410.32751 0 0 1 -1.61719,0.53516 410.32751,410.32751 0 0 1 -1.61914,0.52734 410.32751,410.32751 0 0 1 -1.62305,0.52149 410.32751,410.32751 0 0 1 -1.62304,0.51367 410.32751,410.32751 0 0 1 -1.625,0.50781 410.32751,410.32751 0 0 1 -1.62891,0.50196 410.32751,410.32751 0 0 1 -1.63086,0.49414 410.32751,410.32751 0 0 1 -1.63086,0.48632 410.32751,410.32751 0 0 1 -1.63476,0.48047 410.32751,410.32751 0 0 1 -1.63672,0.47461 410.32751,410.32751 0 0 1 -1.63672,0.4668 410.32751,410.32751 0 0 1 -1.64063,0.45898 410.32751,410.32751 0 0 1 -1.64258,0.45508 410.32751,410.32751 0 0 1 -1.64257,0.44531 410.32751,410.32751 0 0 1 -1.64649,0.43946 410.32751,410.32751 0 0 1 -1.64648,0.43359 410.32751,410.32751 0 0 1 -1.65039,0.42578 410.32751,410.32751 0 0 1 -1.65039,0.41992 410.32751,410.32751 0 0 1 -1.65235,0.41211 410.32751,410.32751 0 0 1 -1.65429,0.4043 410.32751,410.32751 0 0 1 -1.65625,0.39844 410.32751,410.32751 0 0 1 -1.65821,0.39258 410.32751,410.32751 0 0 1 -1.66015,0.38476 410.32751,410.32751 0 0 1 -1.66016,0.37695 410.32751,410.32751 0 0 1 -1.66211,0.3711 410.32751,410.32751 0 0 1 -1.66406,0.36523 410.32751,410.32751 0 0 1 -1.66602,0.35742 410.32751,410.32751 0 0 1 -1.66601,0.34961 410.32751,410.32751 0 0 1 -1.66992,0.34375 410.32751,410.32751 0 0 1 -1.66993,0.33594 410.32751,410.32751 0 0 1 -1.66992,0.33008 410.32751,410.32751 0 0 1 -1.67383,0.32227 410.32751,410.32751 0 0 1 -1.67382,0.31445 410.32751,410.32751 0 0 1 -1.67383,0.31055 410.32751,410.32751 0 0 1 -1.67774,0.30078 410.32751,410.32751 0 0 1 -1.67773,0.29492 410.32751,410.32751 0 0 1 -1.67774,0.28711 410.32751,410.32751 0 0 1 -1.67968,0.28125 410.32751,410.32751 0 0 1 -1.68164,0.27344 410.32751,410.32751 0 0 1 -1.6836,0.26757 410.32751,410.32751 0 0 1 -1.68164,0.25977 410.32751,410.32751 0 0 1 -1.68555,0.25195 410.32751,410.32751 0 0 1 -1.68554,0.2461 410.32751,410.32751 0 0 1 -1.68555,0.24023 410.32751,410.32751 0 0 1 -1.6875,0.23047 410.32751,410.32751 0 0 1 -1.68945,0.22461 410.32751,410.32751 0 0 1 -1.68946,0.21875 410.32751,410.32751 0 0 1 -1.68945,0.21094 410.32751,410.32751 0 0 1 -1.6914,0.20312 410.32751,410.32751 0 0 1 -1.69141,0.19727 410.32751,410.32751 0 0 1 -1.69336,0.18945 410.32751,410.32751 0 0 1 -1.69336,0.18359 410.32751,410.32751 0 0 1 -1.69531,0.17578 410.32751,410.32751 0 0 1 -1.69336,0.16797 410.32751,410.32751 0 0 1 -1.69727,0.16211 410.32751,410.32751 0 0 1 -1.69531,0.1543 410.32751,410.32751 0 0 1 -1.69727,0.14648 410.32751,410.32751 0 0 1 -1.69726,0.14063 410.32751,410.32751 0 0 1 -1.69922,0.13476 410.32751,410.32751 0 0 1 -1.31055,0.0957 410.32747,410.32747 0 0 0 30.01172,1.09961 410.32747,410.32747 0 0 0 380.00196,-255.51172 410.32751,410.32751 0 0 0 379.99804,255.51172 410.32751,410.32751 0 0 0 29.99414,-1.09961 410.32751,410.32751 0 0 1 -0.625,-0.0449 410.32751,410.32751 0 0 1 -1.69922,-0.13086 410.32751,410.32751 0 0 1 -1.69726,-0.13868 410.32751,410.32751 0 0 1 -1.69727,-0.14453 410.32751,410.32751 0 0 1 -1.69726,-0.15234 410.32751,410.32751 0 0 1 -1.69532,-0.1582 410.32751,410.32751 0 0 1 -1.69531,-0.16602 410.32751,410.32751 0 0 1 -1.69531,-0.17383 410.32751,410.32751 0 0 1 -1.69336,-0.17968 410.32751,410.32751 0 0 1 -1.69336,-0.18555 410.32751,410.32751 0 0 1 -1.6914,-0.19531 410.32751,410.32751 0 0 1 -1.69141,-0.20118 410.32751,410.32751 0 0 1 -1.69141,-0.20703 410.32751,410.32751 0 0 1 -1.68945,-0.21484 410.32751,410.32751 0 0 1 -1.68945,-0.22266 410.32751,410.32751 0 0 1 -1.6875,-0.22851 410.32751,410.32751 0 0 1 -1.68555,-0.23633 410.32751,410.32751 0 0 1 -1.6875,-0.24414 410.32751,410.32751 0 0 1 -1.68359,-0.25 410.32751,410.32751 0 0 1 -1.6836,-0.25781 410.32751,410.32751 0 0 1 -1.68359,-0.26368 410.32751,410.32751 0 0 1 -1.68164,-0.27148 410.32751,410.32751 0 0 1 -1.67969,-0.27734 410.32751,410.32751 0 0 1 -1.67969,-0.28516 410.32751,410.32751 0 0 1 -1.67969,-0.29102 410.32751,410.32751 0 0 1 -1.67578,-0.29882 410.32751,410.32751 0 0 1 -1.67578,-0.30664 410.32751,410.32751 0 0 1 -1.67383,-0.3125 410.32751,410.32751 0 0 1 -1.67382,-0.32032 410.32751,410.32751 0 0 1 -1.67188,-0.32617 410.32751,410.32751 0 0 1 -1.66992,-0.33398 410.32751,410.32751 0 0 1 -1.66992,-0.3418 410.32751,410.32751 0 0 1 -1.66602,-0.3457 410.32751,410.32751 0 0 1 -1.66601,-0.35547 410.32751,410.32751 0 0 1 -1.66602,-0.36133 410.32751,410.32751 0 0 1 -1.66211,-0.36914 410.32751,410.32751 0 0 1 -1.66211,-0.375 410.32751,410.32751 0 0 1 -1.66015,-0.38086 410.32751,410.32751 0 0 1 -1.65821,-0.38867 410.32751,410.32751 0 0 1 -1.65625,-0.39649 410.32751,410.32751 0 0 1 -1.65429,-0.40234 410.32751,410.32751 0 0 1 -1.6543,-0.41016 410.32751,410.32751 0 0 1 -1.65234,-0.41601 410.32751,410.32751 0 0 1 -1.64844,-0.42383 410.32751,410.32751 0 0 1 -1.64844,-0.42969 410.32751,410.32751 0 0 1 -1.64648,-0.4375 410.32751,410.32751 0 0 1 -1.64454,-0.44336 410.32751,410.32751 0 0 1 -1.64257,-0.45117 410.32751,410.32751 0 0 1 -1.64063,-0.45703 410.32751,410.32751 0 0 1 -1.63867,-0.46484 410.32751,410.32751 0 0 1 -1.63867,-0.47071 410.32751,410.32751 0 0 1 -1.63477,-0.47851 410.32751,410.32751 0 0 1 -1.63281,-0.48438 410.32751,410.32751 0 0 1 -1.63086,-0.49219 410.32751,410.32751 0 0 1 -1.62891,-0.49804 410.32751,410.32751 0 0 1 -1.62695,-0.50391 410.32751,410.32751 0 0 1 -1.625,-0.51172 410.32751,410.32751 0 0 1 -1.62109,-0.51953 410.32751,410.32751 0 0 1 -1.6211,-0.52344 410.32751,410.32751 0 0 1 -1.61718,-0.5332 410.32751,410.32751 0 0 1 -1.61719,-0.53906 410.32751,410.32751 0 0 1 -1.61328,-0.54492 410.32751,410.32751 0 0 1 -1.61133,-0.55079 410.32751,410.32751 0 0 1 -1.60938,-0.55859 410.32751,410.32751 0 0 1 -1.60742,-0.56641 410.32751,410.32751 0 0 1 -1.60351,-0.57226 410.32751,410.32751 0 0 1 -1.60157,-0.57813 410.32751,410.32751 0 0 1 -1.59961,-0.58593 410.32751,410.32751 0 0 1 -1.59765,-0.5918 410.32751,410.32751 0 0 1 -1.59571,-0.59766 410.32751,410.32751 0 0 1 -1.59179,-0.60546 410.32751,410.32751 0 0 1 -1.58985,-0.61133 410.32751,410.32751 0 0 1 -1.58593,-0.61914 410.32751,410.32751 0 0 1 -1.58594,-0.625 410.32751,410.32751 0 0 1 -1.58203,-0.63086 410.32751,410.32751 0 0 1 -1.57813,-0.63867 410.32751,410.32751 0 0 1 -1.57812,-0.64454 410.32751,410.32751 0 0 1 -1.57227,-0.65234 410.32751,410.32751 0 0 1 -1.57226,-0.65625 410.32751,410.32751 0 0 1 -1.56836,-0.66406 410.32751,410.32751 0 0 1 -1.56641,-0.67188 410.32751,410.32751 0 0 1 -1.5625,-0.67773 410.32751,410.32751 0 0 1 -1.56055,-0.6836 410.32751,410.32751 0 0 1 -1.55664,-0.68945 410.32751,410.32751 0 0 1 -1.55468,-0.69726 410.32751,410.32751 0 0 1 -1.55078,-0.70313 410.32751,410.32751 0 0 1 -1.54883,-0.70898 410.32751,410.32751 0 0 1 -1.54493,-0.7168 410.32751,410.32751 0 0 1 -1.54296,-0.7207 410.32751,410.32751 0 0 1 -1.53907,-0.73047 410.32751,410.32751 0 0 1 -1.53711,-0.73438 410.32751,410.32751 0 0 1 -1.5332,-0.74219 410.32751,410.32751 0 0 1 -1.53125,-0.74804 410.32751,410.32751 0 0 1 -1.52734,-0.75391 410.32751,410.32751 0 0 1 -1.52344,-0.75976 410.32751,410.32751 0 0 1 -1.52148,-0.76758 410.32751,410.32751 0 0 1 -1.51758,-0.77344 410.32751,410.32751 0 0 1 -1.51367,-0.7793 410.32751,410.32751 0 0 1 -1.51172,-0.78515 410.32751,410.32751 0 0 1 -1.50782,-0.79297 410.32751,410.32751 0 0 1 -1.50586,-0.79688 410.32751,410.32751 0 0 1 -1.5,-0.80468 410.32751,410.32751 0 0 1 -1.49804,-0.81055 410.32751,410.32751 0 0 1 -1.4961,-0.81836 410.32751,410.32751 0 0 1 -1.49023,-0.82227 410.32751,410.32751 0 0 1 -1.48828,-0.83007 410.32751,410.32751 0 0 1 -1.48438,-0.83594 410.32751,410.32751 0 0 1 -1.48047,-0.8418 410.32751,410.32751 0 0 1 -1.47851,-0.84765 410.32751,410.32751 0 0 1 -1.47266,-0.85352 410.32751,410.32751 0 0 1 -1.4707,-0.85937 410.32751,410.32751 0 0 1 -1.4668,-0.86719 410.32751,410.32751 0 0 1 -1.46289,-0.8711 410.32751,410.32751 0 0 1 -1.45898,-0.8789 410.32751,410.32751 0 0 1 -1.45703,-0.88477 410.32751,410.32751 0 0 1 -1.45117,-0.89062 410.32751,410.32751 0 0 1 -1.44922,-0.89649 410.32751,410.32751 0 0 1 -1.44336,-0.90234 410.32751,410.32751 0 0 1 -1.44141,-0.9082 410.32751,410.32751 0 0 1 -1.4375,-0.91407 410.32751,410.32751 0 0 1 -1.43359,-0.91992 410.32751,410.32751 0 0 1 -1.42969,-0.92578 410.32751,410.32751 0 0 1 -1.42578,-0.93359 410.32751,410.32751 0 0 1 -1.42188,-0.9375 410.32751,410.32751 0 0 1 -1.41797,-0.94336 410.32751,410.32751 0 0 1 -1.41406,-0.95117 410.32751,410.32751 0 0 1 -1.4082,-0.95508 410.32751,410.32751 0 0 1 -1.40625,-0.96094 410.32751,410.32751 0 0 1 -1.40235,-0.96875 410.32751,410.32751 0 0 1 -1.39843,-0.97266 410.32751,410.32751 0 0 1 -1.39453,-0.97851 410.32751,410.32751 0 0 1 -1.38868,-0.98438 410.32751,410.32751 0 0 1 -1.38671,-0.99023 410.32751,410.32751 0 0 1 -1.38086,-0.99805 410.32751,410.32751 0 0 1 -1.37696,-1.00195 410.32751,410.32751 0 0 1 -1.37304,-1.00781 410.32751,410.32751 0 0 1 -1.36914,-1.01172 410.32751,410.32751 0 0 1 -1.36524,-1.01953 410.32751,410.32751 0 0 1 -1.36133,-1.02539 410.32751,410.32751 0 0 1 -1.35547,-1.0293 410.32751,410.32751 0 0 1 -1.35351,-1.03711 410.32751,410.32751 0 0 1 -1.34766,-1.04102 410.32751,410.32751 0 0 1 -1.34179,-1.04687 410.32751,410.32751 0 0 1 -1.33985,-1.05274 410.32751,410.32751 0 0 1 -1.33398,-1.05859 410.32751,410.32751 0 0 1 -1.33203,-1.06445 410.32751,410.32751 0 0 1 -1.32422,-1.07032 410.32751,410.32751 0 0 1 -1.32227,-1.07421 410.32751,410.32751 0 0 1 -1.3164,-1.08008 410.32751,410.32751 0 0 1 -1.3125,-1.08594 410.32751,410.32751 0 0 1 -1.3086,-1.0918 410.32751,410.32751 0 0 1 -1.30273,-1.0957 410.32751,410.32751 0 0 1 -1.29883,-1.10156 410.32751,410.32751 0 0 1 -1.29492,-1.10742 410.32751,410.32751 0 0 1 -1.28906,-1.11329 410.32751,410.32751 0 0 1 -1.28516,-1.11914 410.32751,410.32751 0 0 1 -1.2793,-1.12304 410.32751,410.32751 0 0 1 -1.27734,-1.12891 410.32751,410.32751 0 0 1 -1.26953,-1.13281 410.32751,410.32751 0 0 1 -1.26758,-1.14063 410.32751,410.32751 0 0 1 -1.26172,-1.14453 410.32751,410.32751 0 0 1 -1.25586,-1.15039 410.32751,410.32751 0 0 1 -1.25195,-1.1543 410.32751,410.32751 0 0 1 -1.24805,-1.16015 410.32751,410.32751 0 0 1 -1.24219,-1.16602 410.32751,410.32751 0 0 1 -1.23632,-1.16992 410.32751,410.32751 0 0 1 -1.23243,-1.17578 410.32751,410.32751 0 0 1 -1.22851,-1.17969 410.32751,410.32751 0 0 1 -1.22266,-1.18555 410.32751,410.32751 0 0 1 -1.2168,-1.1914 410.32751,410.32751 0 0 1 -1.21289,-1.19727 410.32751,410.32751 0 0 1 -1.20898,-1.19922 410.32751,410.32751 0 0 1 -1.20313,-1.20703 410.32751,410.32751 0 0 1 -1.19726,-1.21093 410.32751,410.32751 0 0 1 -1.19336,-1.21485 410.32751,410.32751 0 0 1 -1.1875,-1.22265 410.32751,410.32751 0 0 1 -1.18359,-1.22461 410.32751,410.32751 0 0 1 -1.17774,-1.23047 410.32751,410.32751 0 0 1 -1.17187,-1.23633 410.32751,410.32751 0 0 1 -1.16797,-1.24024 410.32751,410.32751 0 0 1 -1.16211,-1.24609 410.32751,410.32751 0 0 1 -1.15625,-1.25 410.32751,410.32751 0 0 1 -1.15235,-1.25391 410.32751,410.32751 0 0 1 -1.14648,-1.25976 410.32751,410.32751 0 0 1 -1.14062,-1.26367 410.32751,410.32751 0 0 1 -1.13672,-1.26953 410.32751,410.32751 0 0 1 -1.13086,-1.27344 410.32751,410.32751 0 0 1 -1.125,-1.2793 410.32751,410.32751 0 0 1 -1.1211,-1.2832 410.32751,410.32751 0 0 1 -1.11523,-1.28711 410.32751,410.32751 0 0 1 -1.10938,-1.29297 410.32751,410.32751 0 0 1 -1.10351,-1.29687 410.32751,410.32751 0 0 1 -1.09961,-1.30079 410.32751,410.32751 0 0 1 -1.09375,-1.30664 410.32751,410.32751 0 0 1 -1.08789,-1.31054 410.32751,410.32751 0 0 1 -1.08203,-1.31641 410.32751,410.32751 0 0 1 -1.07618,-1.31836 410.32751,410.32751 0 0 1 -1.07226,-1.32422 410.32751,410.32751 0 0 1 -1.06641,-1.32812 410.32751,410.32751 0 0 1 -1.06054,-1.33399 410.32751,410.32751 0 0 1 -1.05469,-1.33789 410.32751,410.32751 0 0 1 -1.04883,-1.34179 410.32751,410.32751 0 0 1 -1.04492,-1.34571 410.32751,410.32751 0 0 1 -1.03711,-1.34961 410.32751,410.32751 0 0 1 -1.0332,-1.35547 410.32751,410.32751 0 0 1 -1.02735,-1.35937 410.32751,410.32751 0 0 1 -1.02148,-1.36328 410.32751,410.32751 0 0 1 -1.01563,-1.36719 410.32751,410.32751 0 0 1 -1.00976,-1.37109 410.32751,410.32751 0 0 1 -1.00391,-1.375 410.32751,410.32751 0 0 1 -0.99805,-1.38086 410.32751,410.32751 0 0 1 -0.99218,-1.38477 410.32751,410.32751 0 0 1 -0.98828,-1.38672 410.32751,410.32751 0 0 1 -0.98047,-1.39257 410.32751,410.32751 0 0 1 -0.97657,-1.39649 410.32751,410.32751 0 0 1 -0.96875,-1.40039 410.32751,410.32751 0 0 1 -0.96484,-1.4043 410.32751,410.32751 0 0 1 -0.95703,-1.4082 410.32751,410.32751 0 0 1 -0.95313,-1.41211 410.32751,410.32751 0 0 1 -0.94531,-1.41797 410.32751,410.32751 0 0 1 -0.9414,-1.41992 410.32751,410.32751 0 0 1 -0.9336,-1.42383 410.32751,410.32751 0 0 1 -0.92969,-1.42773 410.32751,410.32751 0 0 1 -0.92187,-1.43164 410.32751,410.32751 0 0 1 -0.91602,-1.43555 410.32751,410.32751 0 0 1 -0.91211,-1.43945 410.32751,410.32751 0 0 1 -0.90429,-1.44336 410.32751,410.32751 0 0 1 -0.89844,-1.44727 410.32751,410.32751 0 0 1 -0.89258,-1.45117 410.32751,410.32751 0 0 1 -0.88672,-1.45312 410.32751,410.32751 0 0 1 -0.88086,-1.45899 410.32751,410.32751 0 0 1 -0.875,-1.46094 410.32751,410.32751 0 0 1 -0.86914,-1.46484 410.32751,410.32751 0 0 1 -0.86132,-1.4707 410.32751,410.32751 0 0 1 -0.85743,-1.47071 410.32751,410.32751 0 0 1 -0.84961,-1.47656 410.32751,410.32751 0 0 1 -0.84375,-1.48047 410.32751,410.32751 0 0 1 -0.83789,-1.48242 410.32751,410.32751 0 0 1 -0.83203,-1.48633 410.32751,410.32751 0 0 1 -0.82617,-1.49023 410.32751,410.32751 0 0 1 -0.81836,-1.49219 410.32751,410.32751 0 0 1 -0.81445,-1.49805 410.32751,410.32751 0 0 1 -0.80664,-1.5 410.32751,410.32751 0 0 1 -0.80078,-1.5039 410.32751,410.32751 0 0 1 -0.79493,-1.50586 410.32751,410.32751 0 0 1 -0.78711,-1.50977 410.32751,410.32751 0 0 1 -0.7832,-1.51367 410.32751,410.32751 0 0 1 -0.77539,-1.51563 410.32751,410.32751 0 0 1 -0.76953,-1.51953 410.32751,410.32751 0 0 1 -0.76172,-1.52343 410.32751,410.32751 0 0 1 -0.75781,-1.52735 410.32751,410.32751 0 0 1 -0.75,-1.52734 410.32751,410.32751 0 0 1 -0.74414,-1.5332 410.32751,410.32751 0 0 1 -0.73828,-1.53516 410.32751,410.32751 0 0 1 -0.73047,-1.53906 410.32751,410.32751 0 0 1 -0.72461,-1.54102 410.32751,410.32751 0 0 1 -0.71875,-1.54492 410.32751,410.32751 0 0 1 -0.71289,-1.54688 410.32751,410.32751 0 0 1 -0.70508,-1.55078 410.32751,410.32751 0 0 1 -0.69922,-1.55273 410.32751,410.32751 0 0 1 -0.69336,-1.55664 410.32751,410.32751 0 0 1 -0.68555,-1.5586 410.32751,410.32751 0 0 1 -0.67968,-1.5625 410.32751,410.32751 0 0 1 -0.67383,-1.56445 410.32751,410.32751 0 0 1 -0.66602,-1.56641 410.32751,410.32751 0 0 1 -0.66015,-1.57031 410.32751,410.32751 0 0 1 -0.6543,-1.57226 410.32751,410.32751 0 0 1 -0.64648,-1.57617 410.32751,410.32751 0 0 1 -0.64063,-1.57813 410.32751,410.32751 0 0 1 -0.63476,-1.58203 410.32751,410.32751 0 0 1 -0.62696,-1.58203 410.32751,410.32751 0 0 1 -0.62109,-1.58789 410.32751,410.32751 0 0 1 -0.61524,-1.58789 410.32751,410.32751 0 0 1 -0.60742,-1.5918 410.32751,410.32751 0 0 1 -0.60156,-1.59375 410.32751,410.32751 0 0 1 -0.59375,-1.5957 410.32751,410.32751 0 0 1 -0.58789,-1.59766 410.32751,410.32751 0 0 1 -0.58203,-1.60156 410.32751,410.32751 0 0 1 -0.57422,-1.60352 410.32751,410.32751 0 0 1 -0.56836,-1.60547 410.32751,410.32751 0 0 1 -0.56055,-1.60937 410.32751,410.32751 0 0 1 -0.55469,-1.60938 410.32751,410.32751 0 0 1 -0.54882,-1.61328 410.32751,410.32751 0 0 1 -0.54102,-1.61523 410.32751,410.32751 0 0 1 -0.53516,-1.61719 410.32751,410.32751 0 0 1 -0.52734,-1.61914 410.32751,410.32751 0 0 1 -0.52148,-1.62305 410.32751,410.32751 0 0 1 -0.51368,-1.62304 410.32751,410.32751 0 0 1 -0.50781,-1.62696 410.32751,410.32751 0 0 1 -0.5,-1.62695 410.32751,410.32751 0 0 1 -0.49414,-1.63086 410.32751,410.32751 0 0 1 -0.48828,-1.63281 410.32751,410.32751 0 0 1 -0.48047,-1.63281 410.32751,410.32751 0 0 1 -0.47265,-1.63672 410.32751,410.32751 0 0 1 -0.4668,-1.63868 410.32751,410.32751 0 0 1 -0.46094,-1.63867 410.32751,410.32751 0 0 1 -0.45312,-1.64258 410.32751,410.32751 0 0 1 -0.44727,-1.64453 410.32751,410.32751 0 0 1 -0.43945,-1.64453 410.32751,410.32751 0 0 1 -0.43164,-1.64844 410.32751,410.32751 0 0 1 -0.42774,-1.64843 410.32751,410.32751 0 0 1 -0.41797,-1.65039 410.32751,410.32751 0 0 1 -0.41211,-1.6543 410.32751,410.32751 0 0 1 -0.40625,-1.6543 410.32751,410.32751 0 0 1 -0.39843,-1.65625 410.32751,410.32751 0 0 1 -0.39063,-1.65625 410.32751,410.32751 0 0 1 -0.38476,-1.66015 410.32751,410.32751 0 0 1 -0.37891,-1.66016 410.32751,410.32751 0 0 1 -0.37109,-1.66211 410.32751,410.32751 0 0 1 -0.36328,-1.66406 410.32751,410.32751 0 0 1 -0.35743,-1.66602 410.32751,410.32751 0 0 1 -0.35156,-1.66797 410.32751,410.32751 0 0 1 -0.3418,-1.66796 410.32751,410.32751 0 0 1 -0.33789,-1.66993 410.32751,410.32751 0 0 1 -0.32812,-1.66992 410.32751,410.32751 0 0 1 -0.32227,-1.67383 410.32751,410.32751 0 0 1 -0.3164,-1.67382 410.32751,410.32751 0 0 1 -0.3086,-1.67579 410.32751,410.32751 0 0 1 -0.30273,-1.67578 410.32751,410.32751 0 0 1 -0.29297,-1.67773 410.32751,410.32751 0 0 1 -0.28906,-1.67774 410.32751,410.32751 0 0 1 -0.28125,-1.68164 410.32751,410.32751 0 0 1 -0.27344,-1.67968 410.32751,410.32751 0 0 1 -0.26563,-1.6836 410.32751,410.32751 0 0 1 -0.25976,-1.68359 410.32751,410.32751 0 0 1 -0.25391,-1.6836 410.32751,410.32751 0 0 1 -0.24609,-1.68554 410.32751,410.32751 0 0 1 -0.23828,-1.6875 410.32751,410.32751 0 0 1 -0.23242,-1.6875 410.32751,410.32751 0 0 1 -0.22461,-1.6875 410.32751,410.32751 0 0 1 -0.2168,-1.68946 410.32751,410.32751 0 0 1 -0.21094,-1.68945 410.32751,410.32751 0 0 1 -0.20508,-1.6914 410.32751,410.32751 0 0 1 -0.19726,-1.69336 410.32751,410.32751 0 0 1 -0.18946,-1.69141 410.32751,410.32751 0 0 1 -0.18164,-1.69336 410.32751,410.32751 0 0 1 -0.17578,-1.69531 410.32751,410.32751 0 0 1 -0.16992,-1.69532 410.32751,410.32751 0 0 1 -0.16016,-1.69531 410.32751,410.32751 0 0 1 -0.15429,-1.69531 410.32751,410.32751 0 0 1 -0.14844,-1.69727 410.32751,410.32751 0 0 1 -0.14062,-1.69726 410.32751,410.32751 0 0 1 -0.13282,-1.69922 410.32751,410.32751 0 0 1 -0.12695,-1.69922 410.32751,410.32751 0 0 1 -0.11914,-1.69922 410.32751,410.32751 0 0 1 -0.11328,-1.69922 410.32751,410.32751 0 0 1 -0.10352,-1.69921 410.32751,410.32751 0 0 1 -0.0996,-1.70118 410.32751,410.32751 0 0 1 -0.0898,-1.70117 410.32751,410.32751 0 0 1 -0.084,-1.70117 410.32751,410.32751 0 0 1 -0.0781,-1.70117 410.32751,410.32751 0 0 1 -0.0703,-1.70117 410.32751,410.32751 0 0 1 -0.0625,-1.70313 410.32751,410.32751 0 0 1 -0.0547,-1.70312 410.32751,410.32751 0 0 1 -0.0488,-1.70118 410.32751,410.32751 0 0 1 -0.043,-1.70312 410.32751,410.32751 0 0 1 -0.0332,-1.70313 410.32751,410.32751 0 0 1 -0.0293,-1.70312 410.32751,410.32751 0 0 1 -0.0195,-1.70313 410.32751,410.32751 0 0 1 -0.0137,-1.70312 410.32751,410.32751 0 0 1 -0.006,-1.70313 410.32751,410.32751 0 0 1 0,-0.66992 410.32751,410.32751 0 0 1 0.002,-1.70312 410.32751,410.32751 0 0 1 0.0117,-1.70313 410.32751,410.32751 0 0 1 0.0176,-1.70312 410.32751,410.32751 0 0 1 0.0254,-1.70313 410.32751,410.32751 0 0 1 0.0312,-1.70312 410.32751,410.32751 0 0 1 0.0391,-1.70313 410.32751,410.32751 0 0 1 0.0449,-1.70312 410.32751,410.32751 0 0 1 0.0547,-1.70313 410.32751,410.32751 0 0 1 0.0586,-1.70117 410.32751,410.32751 0 0 1 0.0684,-1.70313 410.32751,410.32751 0 0 1 0.0742,-1.70117 410.32751,410.32751 0 0 1 0.0801,-1.70117 410.32751,410.32751 0 0 1 0.0899,-1.70117 410.32751,410.32751 0 0 1 0.0937,-1.70117 410.32751,410.32751 0 0 1 0.10351,-1.69922 410.32751,410.32751 0 0 1 0.10938,-1.70117 410.32751,410.32751 0 0 1 0.11718,-1.69922 410.32751,410.32751 0 0 1 0.12305,-1.69922 410.32751,410.32751 0 0 1 0.13086,-1.69727 410.32751,410.32751 0 0 1 0.13672,-1.69726 410.32751,410.32751 0 0 1 0.14453,-1.69727 410.32751,410.32751 0 0 1 0.15234,-1.69726 410.32751,410.32751 0 0 1 0.16016,-1.69532 410.32751,410.32751 0 0 1 0.16406,-1.69531 410.32751,410.32751 0 0 1 0.17383,-1.69531 410.32751,410.32751 0 0 1 0.17969,-1.69336 410.32751,410.32751 0 0 1 0.1875,-1.69336 410.32751,410.32751 0 0 1 0.19336,-1.69141 410.32751,410.32751 0 0 1 0.20117,-1.6914 410.32751,410.32751 0 0 1 0.20899,-1.69141 410.32751,410.32751 0 0 1 0.21484,-1.68945 410.32751,410.32751 0 0 1 0.22266,-1.68945 410.32751,410.32751 0 0 1 0.22851,-1.6875 410.32751,410.32751 0 0 1 0.23633,-1.6875 410.32751,410.32751 0 0 1 0.24219,-1.68555 410.32751,410.32751 0 0 1 0.25,-1.68555 410.32751,410.32751 0 0 1 0.25781,-1.68359 410.32751,410.32751 0 0 1 0.26367,-1.68164 410.32751,410.32751 0 0 1 0.27149,-1.68164 410.32751,410.32751 0 0 1 0.27734,-1.68164 410.32751,410.32751 0 0 1 0.28516,-1.67969 410.32751,410.32751 0 0 1 0.29296,-1.67774 410.32751,410.32751 0 0 1 0.29883,-1.67578 410.32751,410.32751 0 0 1 0.30469,-1.67578 410.32751,410.32751 0 0 1 0.31445,-1.67578 410.32751,410.32751 0 0 1 0.31836,-1.67187 410.32751,410.32751 0 0 1 0.32813,-1.67188 410.32751,410.32751 0 0 1 0.33398,-1.66992 410.32751,410.32751 0 0 1 0.33984,-1.66992 410.32751,410.32751 0 0 1 0.34766,-1.66797 410.32751,410.32751 0 0 1 0.35352,-1.66602 410.32751,410.32751 0 0 1 0.36132,-1.66406 410.32751,410.32751 0 0 1 0.36915,-1.66211 410.32751,410.32751 0 0 1 0.375,-1.66211 410.32751,410.32751 0 0 1 0.38281,-1.66015 410.32751,410.32751 0 0 1 0.38867,-1.65821 410.32751,410.32751 0 0 1 0.39648,-1.65625 410.32751,410.32751 0 0 1 0.40235,-1.65625 410.32751,410.32751 0 0 1 0.41015,-1.65234 410.32751,410.32751 0 0 1 0.41602,-1.65235 410.32751,410.32751 0 0 1 0.42187,-1.65039 410.32751,410.32751 0 0 1 0.43165,-1.64843 410.32751,410.32751 0 0 1 0.43554,-1.64454 410.32751,410.32751 0 0 1 0.44531,-1.64453 410.32751,410.32751 0 0 1 0.44922,-1.64453 410.32751,410.32751 0 0 1 0.45899,-1.64062 410.32751,410.32751 0 0 1 0.46289,-1.63867 410.32751,410.32751 0 0 1 0.47266,-1.63672 410.32751,410.32751 0 0 1 0.47656,-1.63477 410.32751,410.32751 0 0 1 0.48437,-1.63281 410.32751,410.32751 0 0 1 0.49219,-1.63086 410.32751,410.32751 0 0 1 0.49805,-1.62891 410.32751,410.32751 0 0 1 0.50586,-1.62695 410.32751,410.32751 0 0 1 0.51171,-1.625 410.32751,410.32751 0 0 1 0.51758,-1.62305 410.32751,410.32751 0 0 1 0.52539,-1.61914 410.32751,410.32751 0 0 1 0.53125,-1.61914 410.32751,410.32751 0 0 1 0.53907,-1.61523 410.32751,410.32751 0 0 1 0.54492,-1.61328 410.32751,410.32751 0 0 1 0.55273,-1.61133 410.32751,410.32751 0 0 1 0.5586,-1.60938 410.32751,410.32751 0 0 1 0.56445,-1.60742 410.32751,410.32751 0 0 1 0.57227,-1.60351 410.32751,410.32751 0 0 1 0.57812,-1.60352 410.32751,410.32751 0 0 1 0.58594,-1.59961 410.32751,410.32751 0 0 1 0.59179,-1.5957 410.32751,410.32751 0 0 1 0.59961,-1.59571 410.32751,410.32751 0 0 1 0.60547,-1.59179 410.32751,410.32751 0 0 1 0.61133,-1.58985 410.32751,410.32751 0 0 1 0.61719,-1.58789 410.32751,410.32751 0 0 1 0.625,-1.58398 410.32751,410.32751 0 0 1 0.63281,-1.58203 410.32751,410.32751 0 0 1 0.63867,-1.58008 410.32751,410.32751 0 0 1 0.64453,-1.57617 410.32751,410.32751 0 0 1 0.65039,-1.57422 410.32751,410.32751 0 0 1 0.65821,-1.57031 410.32751,410.32751 0 0 1 0.66406,-1.56836 410.32751,410.32751 0 0 1 0.66992,-1.56641 410.32751,410.32751 0 0 1 0.67774,-1.5625 410.32751,410.32751 0 0 1 0.68359,-1.56055 410.32751,410.32751 0 0 1 0.69141,-1.55664 410.32751,410.32751 0 0 1 0.69531,-1.55468 410.32751,410.32751 0 0 1 0.70312,-1.55079 410.32751,410.32751 0 0 1 0.70899,-1.54882 410.32751,410.32751 0 0 1 0.7168,-1.54688 410.32751,410.32751 0 0 1 0.72265,-1.54101 410.32751,410.32751 0 0 1 0.72852,-1.54102 410.32751,410.32751 0 0 1 0.73437,-1.53516 410.32751,410.32751 0 0 1 0.74219,-1.53515 410.32751,410.32751 0 0 1 0.74805,-1.5293 410.32751,410.32751 0 0 1 0.7539,-1.52734 410.32751,410.32751 0 0 1 0.76172,-1.52344 410.32751,410.32751 0 0 1 0.76563,-1.52148 410.32751,410.32751 0 0 1 0.77343,-1.51758 410.32751,410.32751 0 0 1 0.7793,-1.51563 410.32751,410.32751 0 0 1 0.78711,-1.50976 410.32751,410.32751 0 0 1 0.79102,-1.50977 410.32751,410.32751 0 0 1 0.79882,-1.50391 410.32751,410.32751 0 0 1 0.80469,-1.50195 410.32751,410.32751 0 0 1 0.81055,-1.49805 410.32751,410.32751 0 0 1 0.8164,-1.49414 410.32751,410.32751 0 0 1 0.82422,-1.49023 410.32751,410.32751 0 0 1 0.82813,-1.48828 410.32751,410.32751 0 0 1 0.83594,-1.48438 410.32751,410.32751 0 0 1 0.84179,-1.48047 410.32751,410.32751 0 0 1 0.84766,-1.47851 410.32751,410.32751 0 0 1 0.85351,-1.47266 410.32751,410.32751 0 0 1 0.86133,-1.4707 410.32751,410.32751 0 0 1 0.86524,-1.4668 410.32751,410.32751 0 0 1 0.87304,-1.46289 410.32751,410.32751 0 0 1 0.87696,-1.46094 410.32751,410.32751 0 0 1 0.88476,-1.45507 410.32751,410.32751 0 0 1 0.89063,-1.45118 410.32751,410.32751 0 0 1 0.89648,-1.44921 410.32751,410.32751 0 0 1 0.90235,-1.44532 410.32751,410.32751 0 0 1 0.9082,-1.43945 410.32751,410.32751 0 0 1 0.91406,-1.4375 410.32751,410.32751 0 0 1 0.91992,-1.43359 410.32751,410.32751 0 0 1 0.92774,-1.42969 410.32751,410.32751 0 0 1 0.93164,-1.42578 410.32751,410.32751 0 0 1 0.9375,-1.42188 410.32751,410.32751 0 0 1 0.94531,-1.41797 410.32751,410.32751 0 0 1 0.94922,-1.41406 410.32751,410.32751 0 0 1 0.95508,-1.41015 410.32751,410.32751 0 0 1 0.96289,-1.40626 410.32751,410.32751 0 0 1 0.96679,-1.40039 410.32751,410.32751 0 0 1 0.97266,-1.39843 410.32751,410.32751 0 0 1 0.98047,-1.39453 410.32751,410.32751 0 0 1 0.98437,-1.38868 410.32751,410.32751 0 0 1 0.99024,-1.38671 410.32751,410.32751 0 0 1 0.99609,-1.38086 410.32751,410.32751 0 0 1 1.00196,-1.37891 410.32751,410.32751 0 0 1 1.00781,-1.37305 410.32751,410.32751 0 0 1 1.01367,-1.36914 410.32751,410.32751 0 0 1 1.01953,-1.36328 410.32751,410.32751 0 0 1 1.02344,-1.36133 410.32751,410.32751 0 0 1 1.03125,-1.35742 410.32751,410.32751 0 0 1 1.03516,-1.35156 410.32751,410.32751 0 0 1 1.04296,-1.34766 410.32751,410.32751 0 0 1 1.04688,-1.34375 410.32751,410.32751 0 0 1 1.05273,-1.33789 410.32751,410.32751 0 0 1 1.0586,-1.33594 410.32751,410.32751 0 0 1 1.0625,-1.33007 410.32751,410.32751 0 0 1 1.07031,-1.32618 410.32751,410.32751 0 0 1 1.07422,-1.32031 410.32751,410.32751 0 0 1 1.08008,-1.31641 410.32751,410.32751 0 0 1 1.08593,-1.3125 410.32751,410.32751 0 0 1 1.0918,-1.30859 410.32751,410.32751 0 0 1 1.09766,-1.30273 410.32751,410.32751 0 0 1 1.10156,-1.29883 410.32751,410.32751 0 0 1 1.10742,-1.29492 410.32751,410.32751 0 0 1 1.11328,-1.28907 410.32751,410.32751 0 0 1 1.11719,-1.28515 410.32751,410.32751 0 0 1 1.12305,-1.28125 410.32751,410.32751 0 0 1 1.1289,-1.27539 410.32751,410.32751 0 0 1 1.13477,-1.27149 410.32751,410.32751 0 0 1 1.13867,-1.26562 410.32751,410.32751 0 0 1 1.14453,-1.26172 410.32751,410.32751 0 0 1 1.15039,-1.25586 410.32751,410.32751 0 0 1 1.1543,-1.25195 410.32751,410.32751 0 0 1 1.16016,-1.24805 410.32751,410.32751 0 0 1 1.16601,-1.24219 410.32751,410.32751 0 0 1 1.16992,-1.23633 410.32751,410.32751 0 0 1 1.17579,-1.23437 410.32751,410.32751 0 0 1 1.18164,-1.22656 410.32751,410.32751 0 0 1 1.18554,-1.22266 410.32751,410.32751 0 0 1 1.19141,-1.21875 410.32751,410.32751 0 0 1 1.19531,-1.21289 410.32751,410.32751 0 0 1 1.20117,-1.20703 410.32751,410.32751 0 0 1 1.20508,-1.20313 410.32751,410.32751 0 0 1 1.21094,-1.19726 410.32751,410.32751 0 0 1 1.2168,-1.19336 410.32751,410.32751 0 0 1 1.2207,-1.1875 410.32751,410.32751 0 0 1 1.22656,-1.18359 410.32751,410.32751 0 0 1 1.23047,-1.17774 410.32751,410.32751 0 0 1 1.23438,-1.17187 410.32751,410.32751 0 0 1 1.24023,-1.16797 410.32751,410.32751 0 0 1 1.24609,-1.16211 410.32751,410.32751 0 0 1 1.25,-1.15625 410.32751,410.32751 0 0 1 1.25586,-1.15235 410.32751,410.32751 0 0 1 1.25782,-1.14648 410.32751,410.32751 0 0 1 1.26562,-1.14258 410.32751,410.32751 0 0 1 1.26953,-1.13476 410.32751,410.32751 0 0 1 1.27344,-1.13086 410.32751,410.32751 0 0 1 1.27734,-1.12696 410.32751,410.32751 0 0 1 1.28321,-1.11914 410.32751,410.32751 0 0 1 1.28906,-1.11523 410.32751,410.32751 0 0 1 1.29101,-1.10938 410.32751,410.32751 0 0 1 1.29688,-1.10351 410.32751,410.32751 0 0 1 1.30273,-1.09961 410.32751,410.32751 0 0 1 1.30664,-1.09375 410.32751,410.32751 0 0 1 1.31055,-1.08789 410.32751,410.32751 0 0 1 1.31445,-1.08203 410.32751,410.32751 0 0 1 1.32032,-1.07813 410.32751,410.32751 0 0 1 1.32422,-1.07031 410.32751,410.32751 0 0 1 1.32812,-1.06641 410.32751,410.32751 0 0 1 1.33203,-1.06054 410.32751,410.32751 0 0 1 1.33789,-1.05469 410.32751,410.32751 0 0 1 1.3418,-1.04883 410.32751,410.32751 0 0 1 1.3457,-1.04492 410.32751,410.32751 0 0 1 1.35156,-1.03711 410.32751,410.32751 0 0 1 1.35352,-1.0332 410.32751,410.32751 0 0 1 1.35938,-1.02735 410.32751,410.32751 0 0 1 1.36328,-1.02148 410.32751,410.32751 0 0 1 1.36718,-1.01563 410.32751,410.32751 0 0 1 1.3711,-1.00976 410.32751,410.32751 0 0 1 1.37695,-1.00391 410.32751,410.32751 0 0 1 1.37891,-0.99805 410.32751,410.32751 0 0 1 1.38476,-0.99414 410.32751,410.32751 0 0 1 1.38867,-0.98633 410.32751,410.32751 0 0 1 1.39258,-0.98242 410.32751,410.32751 0 0 1 1.39649,-0.97461 410.32751,410.32751 0 0 1 1.40039,-0.96875 410.32751,410.32751 0 0 1 1.40429,-0.96484 410.32751,410.32751 0 0 1 1.40821,-0.95898 410.32751,410.32751 0 0 1 1.41211,-0.95118 410.32751,410.32751 0 0 1 1.41601,-0.94726 410.32751,410.32751 0 0 1 1.41992,-0.93946 410.32751,410.32751 0 0 1 1.42383,-0.93554 410.32751,410.32751 0 0 1 1.42774,-0.92774 410.32751,410.32751 0 0 1 1.43359,-0.92187 410.32751,410.32751 0 0 1 1.43555,-0.91797 410.32751,410.32751 0 0 1 1.43945,-0.91016 410.32751,410.32751 0 0 1 1.44336,-0.90429 410.32751,410.32751 0 0 1 1.44531,-0.89844 410.32751,410.32751 0 0 1 1.45117,-0.89453 410.32751,410.32751 0 0 1 1.45508,-0.88672 410.32751,410.32751 0 0 1 1.45703,-0.87891 410.32751,410.32751 0 0 1 1.46289,-0.875 410.32751,410.32751 0 0 1 1.46485,-0.86914 410.32751,410.32751 0 0 1 1.46875,-0.86133 410.32751,410.32751 0 0 1 1.47265,-0.85742 410.32751,410.32751 0 0 1 1.47657,-0.84961 410.32751,410.32751 0 0 1 1.47851,-0.84375 410.32751,410.32751 0 0 1 1.48242,-0.83789 410.32751,410.32751 0 0 1 1.48633,-0.83203 410.32751,410.32751 0 0 1 1.49024,-0.82617 410.32751,410.32751 0 0 1 1.49414,-0.82031 410.32751,410.32751 0 0 1 1.49609,-0.8125 410.32751,410.32751 0 0 1 1.5,-0.80664 410.32751,410.32751 0 0 1 1.50391,-0.80078 410.32751,410.32751 0 0 1 1.50586,-0.79493 410.32751,410.32751 0 0 1 1.51172,-0.78711 410.32751,410.32751 0 0 1 1.51171,-0.7832 410.32751,410.32751 0 0 1 1.51758,-0.77539 410.32751,410.32751 0 0 1 1.51953,-0.76953 410.32751,410.32751 0 0 1 1.52344,-0.76367 410.32751,410.32751 0 0 1 1.52539,-0.75586 410.32751,410.32751 0 0 1 1.5293,-0.75 410.32751,410.32751 0 0 1 1.53125,-0.74414 410.32751,410.32751 0 0 1 1.53711,-0.73828 410.32751,410.32751 0 0 1 1.53711,-0.73047 410.32751,410.32751 0 0 1 1.54101,-0.72461 410.32751,410.32751 0 0 1 1.54492,-0.71875 410.32751,410.32751 0 0 1 1.54688,-0.71289 410.32751,410.32751 0 0 1 1.55078,-0.70508 410.32751,410.32751 0 0 1 1.55274,-0.69922 410.32751,410.32751 0 0 1 1.55664,-0.69336 410.32751,410.32751 0 0 1 1.55859,-0.68555 410.32751,410.32751 0 0 1 1.5625,-0.67968 410.32751,410.32751 0 0 1 1.56445,-0.67383 410.32751,410.32751 0 0 1 1.56836,-0.66602 410.32751,410.32751 0 0 1 1.57032,-0.66015 410.32751,410.32751 0 0 1 1.57226,-0.6543 410.32751,410.32751 0 0 1 1.57617,-0.64844 410.32751,410.32751 0 0 1 1.57813,-0.64062 410.32751,410.32751 0 0 1 1.58008,-0.63282 410.32751,410.32751 0 0 1 1.58398,-0.6289 410.32751,410.32751 0 0 1 1.58594,-0.61914 410.32751,410.32751 0 0 1 1.58789,-0.61524 410.32751,410.32751 0 0 1 1.59179,-0.60742 410.32751,410.32751 0 0 1 1.59376,-0.60156 410.32751,410.32751 0 0 1 1.5957,-0.59375 410.32751,410.32751 0 0 1 1.59961,-0.58985 410.32751,410.32751 0 0 1 1.60156,-0.58007 410.32751,410.32751 0 0 1 1.60352,-0.57422 410.32751,410.32751 0 0 1 1.60546,-0.56836 410.32751,410.32751 0 0 1 1.60743,-0.5625 410.32751,410.32751 0 0 1 1.61132,-0.55469 410.32751,410.32751 0 0 1 1.61329,-0.54687 410.32751,410.32751 0 0 1 1.61523,-0.54102 410.32751,410.32751 0 0 1 1.61719,-0.53516 410.32751,410.32751 0 0 1 1.61914,-0.52734 410.32751,410.32751 0 0 1 1.62109,-0.521484 410.32751,410.32751 0 0 1 1.625,-0.513672 410.32751,410.32751 0 0 1 1.625,-0.507812 410.32751,410.32751 0 0 1 1.62891,-0.501953 410.32751,410.32751 0 0 1 1.6289,-0.494141 A 410.32751,410.32751 0 0 1 514.18555,97 a 410.32751,410.32751 0 0 1 1.63476,-0.480469 410.32751,410.32751 0 0 1 1.63477,-0.474609 410.32751,410.32751 0 0 1 1.63867,-0.466797 410.32751,410.32751 0 0 1 1.64063,-0.458984 410.32751,410.32751 0 0 1 1.64062,-0.453125 410.32751,410.32751 0 0 1 1.64453,-0.447266 410.32751,410.32751 0 0 1 1.64649,-0.439453 410.32751,410.32751 0 0 1 1.64648,-0.433594 410.32751,410.32751 0 0 1 1.65039,-0.425781 410.32751,410.32751 0 0 1 1.65039,-0.417969 410.32751,410.32751 0 0 1 1.65234,-0.414062 410.32751,410.32751 0 0 1 1.6543,-0.404297 410.32751,410.32751 0 0 1 1.65625,-0.398438 410.32751,410.32751 0 0 1 1.65821,-0.392578 410.32751,410.32751 0 0 1 1.6582,-0.384766 410.32751,410.32751 0 0 1 1.66211,-0.376953 410.32751,410.32751 0 0 1 1.66211,-0.371093 410.32751,410.32751 0 0 1 1.66406,-0.365235 410.32751,410.32751 0 0 1 1.66602,-0.355469 410.32751,410.32751 0 0 1 1.66601,-0.351562 410.32751,410.32751 0 0 1 1.66797,-0.34375 410.32751,410.32751 0 0 1 1.66992,-0.335938 410.32751,410.32751 0 0 1 1.67188,-0.330078 410.32751,410.32751 0 0 1 1.67187,-0.322265 410.32751,410.32751 0 0 1 1.67383,-0.314453 410.32751,410.32751 0 0 1 1.67578,-0.308594 410.32751,410.32751 0 0 1 1.67578,-0.302734 410.32751,410.32751 0 0 1 1.67774,-0.294922 410.32751,410.32751 0 0 1 1.67968,-0.28711 410.32751,410.32751 0 0 1 1.67969,-0.28125 410.32751,410.32751 0 0 1 1.68164,-0.273437 410.32751,410.32751 0 0 1 1.68164,-0.267578 410.32751,410.32751 0 0 1 1.6836,-0.259766 410.32751,410.32751 0 0 1 1.68554,-0.251953 410.32751,410.32751 0 0 1 1.68555,-0.246094 410.32751,410.32751 0 0 1 1.68555,-0.238281 410.32751,410.32751 0 0 1 1.6875,-0.232422 410.32751,410.32751 0 0 1 1.68945,-0.224609 410.32751,410.32751 0 0 1 1.6875,-0.21875 410.32751,410.32751 0 0 1 1.69141,-0.210938 410.32751,410.32751 0 0 1 1.6914,-0.203125 410.32751,410.32751 0 0 1 1.69141,-0.197265 410.32751,410.32751 0 0 1 1.69336,-0.189454 410.32751,410.32751 0 0 1 1.69336,-0.18164 410.32751,410.32751 0 0 1 1.69336,-0.175782 410.32751,410.32751 0 0 1 1.69531,-0.169921 410.32751,410.32751 0 0 1 1.69531,-0.16211 410.32751,410.32751 0 0 1 1.69727,-0.154297 410.32751,410.32751 0 0 1 1.69726,-0.146484 410.32751,410.32751 0 0 1 1.69727,-0.140625 410.32751,410.32751 0 0 1 1.69726,-0.134766 410.32751,410.32751 0 0 1 1.29688,-0.0957 410.32751,410.32751 0 0 0 -29.99805,-1.099609 z"
           transform="scale(0.26458333)" />
        <path
           id="path1031"
           style="fill:#34abd8;fill-opacity:1;stroke:none;stroke-width:0.510236"
           d="m 570.75781,60.091797 a 410.3275,410.3275 0 0 0 -410.32617,410.328123 410.3275,410.3275 0 0 0 410.32617,410.32813 410.3275,410.3275 0 0 0 29.99414,-1.09961 410.3275,410.3275 0 0 1 -0.625,-0.0449 410.3275,410.3275 0 0 1 -1.69922,-0.13086 410.3275,410.3275 0 0 1 -1.69726,-0.13868 410.3275,410.3275 0 0 1 -1.69727,-0.14453 410.3275,410.3275 0 0 1 -1.69726,-0.15234 410.3275,410.3275 0 0 1 -1.69532,-0.1582 410.3275,410.3275 0 0 1 -1.69531,-0.16602 410.3275,410.3275 0 0 1 -1.69531,-0.17383 410.3275,410.3275 0 0 1 -1.69336,-0.17968 410.3275,410.3275 0 0 1 -1.69336,-0.18555 410.3275,410.3275 0 0 1 -1.6914,-0.19531 410.3275,410.3275 0 0 1 -1.69141,-0.20118 410.3275,410.3275 0 0 1 -1.69141,-0.20703 410.3275,410.3275 0 0 1 -1.68945,-0.21484 410.3275,410.3275 0 0 1 -1.68945,-0.22266 410.3275,410.3275 0 0 1 -1.6875,-0.22851 410.3275,410.3275 0 0 1 -1.68555,-0.23633 410.3275,410.3275 0 0 1 -1.6875,-0.24414 410.3275,410.3275 0 0 1 -1.68359,-0.25 410.3275,410.3275 0 0 1 -1.6836,-0.25781 410.3275,410.3275 0 0 1 -1.68359,-0.26368 410.3275,410.3275 0 0 1 -1.68164,-0.27148 410.3275,410.3275 0 0 1 -1.67969,-0.27734 410.3275,410.3275 0 0 1 -1.67969,-0.28516 410.3275,410.3275 0 0 1 -1.67969,-0.29102 410.3275,410.3275 0 0 1 -1.67578,-0.29882 410.3275,410.3275 0 0 1 -1.67578,-0.30664 410.3275,410.3275 0 0 1 -1.67383,-0.3125 410.3275,410.3275 0 0 1 -1.67382,-0.32032 410.3275,410.3275 0 0 1 -1.67188,-0.32617 410.3275,410.3275 0 0 1 -1.66992,-0.33398 410.3275,410.3275 0 0 1 -1.66992,-0.3418 410.3275,410.3275 0 0 1 -1.66602,-0.3457 410.3275,410.3275 0 0 1 -1.66601,-0.35547 410.3275,410.3275 0 0 1 -1.66602,-0.36133 410.3275,410.3275 0 0 1 -1.66211,-0.36914 410.3275,410.3275 0 0 1 -1.66211,-0.375 410.3275,410.3275 0 0 1 -1.66015,-0.38086 410.3275,410.3275 0 0 1 -1.65821,-0.38867 410.3275,410.3275 0 0 1 -1.65625,-0.39649 410.3275,410.3275 0 0 1 -1.65429,-0.40234 410.3275,410.3275 0 0 1 -1.6543,-0.41016 410.3275,410.3275 0 0 1 -1.65234,-0.41601 410.3275,410.3275 0 0 1 -1.64844,-0.42383 410.3275,410.3275 0 0 1 -1.64844,-0.42969 410.3275,410.3275 0 0 1 -1.64648,-0.4375 410.3275,410.3275 0 0 1 -1.64454,-0.44336 410.3275,410.3275 0 0 1 -1.64257,-0.45117 410.3275,410.3275 0 0 1 -1.64063,-0.45703 410.3275,410.3275 0 0 1 -1.63867,-0.46484 410.3275,410.3275 0 0 1 -1.63867,-0.47071 410.3275,410.3275 0 0 1 -1.63477,-0.47851 410.3275,410.3275 0 0 1 -1.63281,-0.48438 410.3275,410.3275 0 0 1 -1.63086,-0.49219 410.3275,410.3275 0 0 1 -1.62891,-0.49804 410.3275,410.3275 0 0 1 -1.62695,-0.50391 410.3275,410.3275 0 0 1 -1.625,-0.51172 410.3275,410.3275 0 0 1 -1.62109,-0.51953 410.3275,410.3275 0 0 1 -1.6211,-0.52344 410.3275,410.3275 0 0 1 -1.61718,-0.5332 410.3275,410.3275 0 0 1 -1.61719,-0.53906 410.3275,410.3275 0 0 1 -1.61328,-0.54492 410.3275,410.3275 0 0 1 -1.61133,-0.55079 410.3275,410.3275 0 0 1 -1.60938,-0.55859 410.3275,410.3275 0 0 1 -1.60742,-0.56641 410.3275,410.3275 0 0 1 -1.60351,-0.57226 410.3275,410.3275 0 0 1 -1.60157,-0.57813 410.3275,410.3275 0 0 1 -1.59961,-0.58593 410.3275,410.3275 0 0 1 -1.59765,-0.5918 410.3275,410.3275 0 0 1 -1.59571,-0.59766 410.3275,410.3275 0 0 1 -1.59179,-0.60546 410.3275,410.3275 0 0 1 -1.58985,-0.61133 410.3275,410.3275 0 0 1 -1.58593,-0.61914 410.3275,410.3275 0 0 1 -1.58594,-0.625 410.3275,410.3275 0 0 1 -1.58203,-0.63086 410.3275,410.3275 0 0 1 -1.57813,-0.63867 410.3275,410.3275 0 0 1 -1.57812,-0.64454 410.3275,410.3275 0 0 1 -1.57227,-0.65234 410.3275,410.3275 0 0 1 -1.57226,-0.65625 410.3275,410.3275 0 0 1 -1.56836,-0.66406 410.3275,410.3275 0 0 1 -1.56641,-0.67188 410.3275,410.3275 0 0 1 -1.5625,-0.67773 410.3275,410.3275 0 0 1 -1.56055,-0.6836 410.3275,410.3275 0 0 1 -1.55664,-0.68945 410.3275,410.3275 0 0 1 -1.55468,-0.69726 410.3275,410.3275 0 0 1 -1.55078,-0.70313 410.3275,410.3275 0 0 1 -1.54883,-0.70898 410.3275,410.3275 0 0 1 -1.54493,-0.7168 410.3275,410.3275 0 0 1 -1.54296,-0.7207 410.3275,410.3275 0 0 1 -1.53907,-0.73047 410.3275,410.3275 0 0 1 -1.53711,-0.73438 410.3275,410.3275 0 0 1 -1.5332,-0.74219 410.3275,410.3275 0 0 1 -1.53125,-0.74804 410.3275,410.3275 0 0 1 -1.52734,-0.75391 410.3275,410.3275 0 0 1 -1.52344,-0.75976 410.3275,410.3275 0 0 1 -1.52148,-0.76758 410.3275,410.3275 0 0 1 -1.51758,-0.77344 410.3275,410.3275 0 0 1 -1.51367,-0.7793 410.3275,410.3275 0 0 1 -1.51172,-0.78515 410.3275,410.3275 0 0 1 -1.50782,-0.79297 410.3275,410.3275 0 0 1 -1.50586,-0.79688 410.3275,410.3275 0 0 1 -1.5,-0.80468 410.3275,410.3275 0 0 1 -1.49804,-0.81055 410.3275,410.3275 0 0 1 -1.4961,-0.81836 410.3275,410.3275 0 0 1 -1.49023,-0.82227 410.3275,410.3275 0 0 1 -1.48828,-0.83007 410.3275,410.3275 0 0 1 -1.48438,-0.83594 410.3275,410.3275 0 0 1 -1.48047,-0.8418 410.3275,410.3275 0 0 1 -1.47851,-0.84765 410.3275,410.3275 0 0 1 -1.47266,-0.85352 410.3275,410.3275 0 0 1 -1.4707,-0.85937 410.3275,410.3275 0 0 1 -1.4668,-0.86719 410.3275,410.3275 0 0 1 -1.46289,-0.8711 410.3275,410.3275 0 0 1 -1.45898,-0.8789 410.3275,410.3275 0 0 1 -1.45703,-0.88477 410.3275,410.3275 0 0 1 -1.45117,-0.89062 410.3275,410.3275 0 0 1 -1.44922,-0.89649 410.3275,410.3275 0 0 1 -1.44336,-0.90234 410.3275,410.3275 0 0 1 -1.44141,-0.9082 410.3275,410.3275 0 0 1 -1.4375,-0.91407 410.3275,410.3275 0 0 1 -1.43359,-0.91992 410.3275,410.3275 0 0 1 -1.42969,-0.92578 410.3275,410.3275 0 0 1 -1.42578,-0.93359 410.3275,410.3275 0 0 1 -1.42188,-0.9375 410.3275,410.3275 0 0 1 -1.41797,-0.94336 410.3275,410.3275 0 0 1 -1.41406,-0.95117 410.3275,410.3275 0 0 1 -1.4082,-0.95508 410.3275,410.3275 0 0 1 -1.40625,-0.96094 410.3275,410.3275 0 0 1 -1.40235,-0.96875 410.3275,410.3275 0 0 1 -1.39843,-0.97266 410.3275,410.3275 0 0 1 -1.39453,-0.97851 410.3275,410.3275 0 0 1 -1.38868,-0.98438 410.3275,410.3275 0 0 1 -1.38671,-0.99023 410.3275,410.3275 0 0 1 -1.38086,-0.99805 410.3275,410.3275 0 0 1 -1.37696,-1.00195 410.3275,410.3275 0 0 1 -1.37304,-1.00781 410.3275,410.3275 0 0 1 -1.36914,-1.01172 410.3275,410.3275 0 0 1 -1.36524,-1.01953 410.3275,410.3275 0 0 1 -1.36133,-1.02539 410.3275,410.3275 0 0 1 -1.35547,-1.0293 410.3275,410.3275 0 0 1 -1.35351,-1.03711 410.3275,410.3275 0 0 1 -1.34766,-1.04102 410.3275,410.3275 0 0 1 -1.34179,-1.04687 410.3275,410.3275 0 0 1 -1.33985,-1.05274 410.3275,410.3275 0 0 1 -1.33398,-1.05859 410.3275,410.3275 0 0 1 -1.33203,-1.06445 410.3275,410.3275 0 0 1 -1.32422,-1.07032 410.3275,410.3275 0 0 1 -1.32227,-1.07421 410.3275,410.3275 0 0 1 -1.3164,-1.08008 410.3275,410.3275 0 0 1 -1.3125,-1.08594 410.3275,410.3275 0 0 1 -1.3086,-1.0918 410.3275,410.3275 0 0 1 -1.30273,-1.0957 410.3275,410.3275 0 0 1 -1.29883,-1.10156 410.3275,410.3275 0 0 1 -1.29492,-1.10742 410.3275,410.3275 0 0 1 -1.28906,-1.11329 410.3275,410.3275 0 0 1 -1.28516,-1.11914 410.3275,410.3275 0 0 1 -1.2793,-1.12304 410.3275,410.3275 0 0 1 -1.27734,-1.12891 410.3275,410.3275 0 0 1 -1.26953,-1.13281 410.3275,410.3275 0 0 1 -1.26758,-1.14063 410.3275,410.3275 0 0 1 -1.26172,-1.14453 410.3275,410.3275 0 0 1 -1.25586,-1.15039 410.3275,410.3275 0 0 1 -1.25195,-1.1543 410.3275,410.3275 0 0 1 -1.24805,-1.16015 410.3275,410.3275 0 0 1 -1.24219,-1.16602 410.3275,410.3275 0 0 1 -1.23632,-1.16992 410.3275,410.3275 0 0 1 -1.23243,-1.17578 410.3275,410.3275 0 0 1 -1.22851,-1.17969 410.3275,410.3275 0 0 1 -1.22266,-1.18555 410.3275,410.3275 0 0 1 -1.2168,-1.1914 410.3275,410.3275 0 0 1 -1.21289,-1.19727 410.3275,410.3275 0 0 1 -1.20898,-1.19922 410.3275,410.3275 0 0 1 -1.20313,-1.20703 410.3275,410.3275 0 0 1 -1.19726,-1.21093 410.3275,410.3275 0 0 1 -1.19336,-1.21485 410.3275,410.3275 0 0 1 -1.1875,-1.22265 410.3275,410.3275 0 0 1 -1.18359,-1.22461 410.3275,410.3275 0 0 1 -1.17774,-1.23047 410.3275,410.3275 0 0 1 -1.17187,-1.23633 410.3275,410.3275 0 0 1 -1.16797,-1.24024 410.3275,410.3275 0 0 1 -1.16211,-1.24609 410.3275,410.3275 0 0 1 -1.15625,-1.25 410.3275,410.3275 0 0 1 -1.15235,-1.25391 410.3275,410.3275 0 0 1 -1.14648,-1.25976 410.3275,410.3275 0 0 1 -1.14062,-1.26367 410.3275,410.3275 0 0 1 -1.13672,-1.26953 410.3275,410.3275 0 0 1 -1.13086,-1.27344 410.3275,410.3275 0 0 1 -1.125,-1.2793 410.3275,410.3275 0 0 1 -1.1211,-1.2832 410.3275,410.3275 0 0 1 -1.11523,-1.28711 410.3275,410.3275 0 0 1 -1.10938,-1.29297 410.3275,410.3275 0 0 1 -1.10351,-1.29687 410.3275,410.3275 0 0 1 -1.09961,-1.30079 410.3275,410.3275 0 0 1 -1.09375,-1.30664 410.3275,410.3275 0 0 1 -1.08789,-1.31054 410.3275,410.3275 0 0 1 -1.08203,-1.31641 410.3275,410.3275 0 0 1 -1.07618,-1.31836 410.3275,410.3275 0 0 1 -1.07226,-1.32422 410.3275,410.3275 0 0 1 -1.06641,-1.32812 410.3275,410.3275 0 0 1 -1.06054,-1.33399 410.3275,410.3275 0 0 1 -1.05469,-1.33789 410.3275,410.3275 0 0 1 -1.04883,-1.34179 410.3275,410.3275 0 0 1 -1.04492,-1.34571 410.3275,410.3275 0 0 1 -1.03711,-1.34961 410.3275,410.3275 0 0 1 -1.0332,-1.35547 410.3275,410.3275 0 0 1 -1.02735,-1.35937 410.3275,410.3275 0 0 1 -1.02148,-1.36328 410.3275,410.3275 0 0 1 -1.01563,-1.36719 410.3275,410.3275 0 0 1 -1.00976,-1.37109 410.3275,410.3275 0 0 1 -1.00391,-1.375 410.3275,410.3275 0 0 1 -0.99805,-1.38086 410.3275,410.3275 0 0 1 -0.99218,-1.38477 410.3275,410.3275 0 0 1 -0.98828,-1.38672 410.3275,410.3275 0 0 1 -0.98047,-1.39257 410.3275,410.3275 0 0 1 -0.97657,-1.39649 410.3275,410.3275 0 0 1 -0.96875,-1.40039 410.3275,410.3275 0 0 1 -0.96484,-1.4043 410.3275,410.3275 0 0 1 -0.95703,-1.4082 410.3275,410.3275 0 0 1 -0.95313,-1.41211 410.3275,410.3275 0 0 1 -0.94531,-1.41797 410.3275,410.3275 0 0 1 -0.9414,-1.41992 410.3275,410.3275 0 0 1 -0.9336,-1.42383 410.3275,410.3275 0 0 1 -0.92969,-1.42773 410.3275,410.3275 0 0 1 -0.92187,-1.43164 410.3275,410.3275 0 0 1 -0.91602,-1.43555 410.3275,410.3275 0 0 1 -0.91211,-1.43945 410.3275,410.3275 0 0 1 -0.90429,-1.44336 410.3275,410.3275 0 0 1 -0.89844,-1.44727 410.3275,410.3275 0 0 1 -0.89258,-1.45117 410.3275,410.3275 0 0 1 -0.88672,-1.45312 410.3275,410.3275 0 0 1 -0.88086,-1.45899 410.3275,410.3275 0 0 1 -0.875,-1.46094 410.3275,410.3275 0 0 1 -0.86914,-1.46484 410.3275,410.3275 0 0 1 -0.86132,-1.4707 410.3275,410.3275 0 0 1 -0.85743,-1.47071 410.3275,410.3275 0 0 1 -0.84961,-1.47656 410.3275,410.3275 0 0 1 -0.84375,-1.48047 410.3275,410.3275 0 0 1 -0.83789,-1.48242 410.3275,410.3275 0 0 1 -0.83203,-1.48633 410.3275,410.3275 0 0 1 -0.82617,-1.49023 410.3275,410.3275 0 0 1 -0.81836,-1.49219 410.3275,410.3275 0 0 1 -0.81445,-1.49805 410.3275,410.3275 0 0 1 -0.80664,-1.5 410.3275,410.3275 0 0 1 -0.80078,-1.5039 410.3275,410.3275 0 0 1 -0.79493,-1.50586 410.3275,410.3275 0 0 1 -0.78711,-1.50977 410.3275,410.3275 0 0 1 -0.7832,-1.51367 410.3275,410.3275 0 0 1 -0.77539,-1.51563 410.3275,410.3275 0 0 1 -0.76953,-1.51953 410.3275,410.3275 0 0 1 -0.76172,-1.52343 410.3275,410.3275 0 0 1 -0.75781,-1.52735 410.3275,410.3275 0 0 1 -0.75,-1.52734 410.3275,410.3275 0 0 1 -0.74414,-1.5332 410.3275,410.3275 0 0 1 -0.73828,-1.53516 410.3275,410.3275 0 0 1 -0.73047,-1.53906 410.3275,410.3275 0 0 1 -0.72461,-1.54102 410.3275,410.3275 0 0 1 -0.71875,-1.54492 410.3275,410.3275 0 0 1 -0.71289,-1.54688 410.3275,410.3275 0 0 1 -0.70508,-1.55078 410.3275,410.3275 0 0 1 -0.69922,-1.55273 410.3275,410.3275 0 0 1 -0.69336,-1.55664 410.3275,410.3275 0 0 1 -0.68555,-1.5586 410.3275,410.3275 0 0 1 -0.67968,-1.5625 410.3275,410.3275 0 0 1 -0.67383,-1.56445 410.3275,410.3275 0 0 1 -0.66602,-1.56641 410.3275,410.3275 0 0 1 -0.66015,-1.57031 410.3275,410.3275 0 0 1 -0.6543,-1.57226 410.3275,410.3275 0 0 1 -0.64648,-1.57617 410.3275,410.3275 0 0 1 -0.64063,-1.57813 410.3275,410.3275 0 0 1 -0.63476,-1.58203 410.3275,410.3275 0 0 1 -0.62696,-1.58203 410.3275,410.3275 0 0 1 -0.62109,-1.58789 410.3275,410.3275 0 0 1 -0.61524,-1.58789 410.3275,410.3275 0 0 1 -0.60742,-1.5918 410.3275,410.3275 0 0 1 -0.60156,-1.59375 410.3275,410.3275 0 0 1 -0.59375,-1.5957 410.3275,410.3275 0 0 1 -0.58789,-1.59766 410.3275,410.3275 0 0 1 -0.58203,-1.60156 410.3275,410.3275 0 0 1 -0.57422,-1.60352 410.3275,410.3275 0 0 1 -0.56836,-1.60547 410.3275,410.3275 0 0 1 -0.56055,-1.60937 410.3275,410.3275 0 0 1 -0.55469,-1.60938 410.3275,410.3275 0 0 1 -0.54882,-1.61328 410.3275,410.3275 0 0 1 -0.54102,-1.61523 410.3275,410.3275 0 0 1 -0.53516,-1.61719 410.3275,410.3275 0 0 1 -0.52734,-1.61914 410.3275,410.3275 0 0 1 -0.52148,-1.62305 410.3275,410.3275 0 0 1 -0.51368,-1.62304 410.3275,410.3275 0 0 1 -0.50781,-1.62696 410.3275,410.3275 0 0 1 -0.5,-1.62695 410.3275,410.3275 0 0 1 -0.49414,-1.63086 410.3275,410.3275 0 0 1 -0.48828,-1.63281 410.3275,410.3275 0 0 1 -0.48047,-1.63281 410.3275,410.3275 0 0 1 -0.47265,-1.63672 410.3275,410.3275 0 0 1 -0.4668,-1.63868 410.3275,410.3275 0 0 1 -0.46094,-1.63867 410.3275,410.3275 0 0 1 -0.45312,-1.64258 410.3275,410.3275 0 0 1 -0.44727,-1.64453 410.3275,410.3275 0 0 1 -0.43945,-1.64453 410.3275,410.3275 0 0 1 -0.43164,-1.64844 410.3275,410.3275 0 0 1 -0.42774,-1.64843 410.3275,410.3275 0 0 1 -0.41797,-1.65039 410.3275,410.3275 0 0 1 -0.41211,-1.6543 410.3275,410.3275 0 0 1 -0.40625,-1.6543 410.3275,410.3275 0 0 1 -0.39843,-1.65625 410.3275,410.3275 0 0 1 -0.39063,-1.65625 410.3275,410.3275 0 0 1 -0.38476,-1.66015 410.3275,410.3275 0 0 1 -0.37891,-1.66016 410.3275,410.3275 0 0 1 -0.37109,-1.66211 410.3275,410.3275 0 0 1 -0.36328,-1.66406 410.3275,410.3275 0 0 1 -0.35743,-1.66602 410.3275,410.3275 0 0 1 -0.35156,-1.66797 410.3275,410.3275 0 0 1 -0.3418,-1.66796 410.3275,410.3275 0 0 1 -0.33789,-1.66993 410.3275,410.3275 0 0 1 -0.32812,-1.66992 410.3275,410.3275 0 0 1 -0.32227,-1.67383 410.3275,410.3275 0 0 1 -0.3164,-1.67382 410.3275,410.3275 0 0 1 -0.3086,-1.67579 410.3275,410.3275 0 0 1 -0.30273,-1.67578 410.3275,410.3275 0 0 1 -0.29297,-1.67773 410.3275,410.3275 0 0 1 -0.28906,-1.67774 410.3275,410.3275 0 0 1 -0.28125,-1.68164 410.3275,410.3275 0 0 1 -0.27344,-1.67968 410.3275,410.3275 0 0 1 -0.26563,-1.6836 410.3275,410.3275 0 0 1 -0.25976,-1.68359 410.3275,410.3275 0 0 1 -0.25391,-1.6836 410.3275,410.3275 0 0 1 -0.24609,-1.68554 410.3275,410.3275 0 0 1 -0.23828,-1.6875 410.3275,410.3275 0 0 1 -0.23242,-1.6875 410.3275,410.3275 0 0 1 -0.22461,-1.6875 410.3275,410.3275 0 0 1 -0.2168,-1.68946 410.3275,410.3275 0 0 1 -0.21094,-1.68945 410.3275,410.3275 0 0 1 -0.20508,-1.6914 410.3275,410.3275 0 0 1 -0.19726,-1.69336 410.3275,410.3275 0 0 1 -0.18946,-1.69141 410.3275,410.3275 0 0 1 -0.18164,-1.69336 410.3275,410.3275 0 0 1 -0.17578,-1.69531 410.3275,410.3275 0 0 1 -0.16992,-1.69532 410.3275,410.3275 0 0 1 -0.16016,-1.69531 410.3275,410.3275 0 0 1 -0.15429,-1.69531 410.3275,410.3275 0 0 1 -0.14844,-1.69727 410.3275,410.3275 0 0 1 -0.14062,-1.69726 410.3275,410.3275 0 0 1 -0.13282,-1.69922 410.3275,410.3275 0 0 1 -0.12695,-1.69922 410.3275,410.3275 0 0 1 -0.11914,-1.69922 410.3275,410.3275 0 0 1 -0.11328,-1.69922 410.3275,410.3275 0 0 1 -0.10352,-1.69921 410.3275,410.3275 0 0 1 -0.0996,-1.70118 410.3275,410.3275 0 0 1 -0.0898,-1.70117 410.3275,410.3275 0 0 1 -0.084,-1.70117 410.3275,410.3275 0 0 1 -0.0781,-1.70117 410.3275,410.3275 0 0 1 -0.0703,-1.70117 410.3275,410.3275 0 0 1 -0.0625,-1.70313 410.3275,410.3275 0 0 1 -0.0547,-1.70312 410.3275,410.3275 0 0 1 -0.0488,-1.70118 410.3275,410.3275 0 0 1 -0.043,-1.70312 410.3275,410.3275 0 0 1 -0.0332,-1.70313 410.3275,410.3275 0 0 1 -0.0293,-1.70312 410.3275,410.3275 0 0 1 -0.0195,-1.70313 410.3275,410.3275 0 0 1 -0.0137,-1.70312 410.3275,410.3275 0 0 1 -0.006,-1.70313 410.3275,410.3275 0 0 1 0,-0.66992 410.3275,410.3275 0 0 1 0.002,-1.70312 410.3275,410.3275 0 0 1 0.0117,-1.70313 410.3275,410.3275 0 0 1 0.0176,-1.70312 410.3275,410.3275 0 0 1 0.0254,-1.70313 410.3275,410.3275 0 0 1 0.0312,-1.70312 410.3275,410.3275 0 0 1 0.0391,-1.70313 410.3275,410.3275 0 0 1 0.0449,-1.70312 410.3275,410.3275 0 0 1 0.0547,-1.70313 410.3275,410.3275 0 0 1 0.0586,-1.70117 410.3275,410.3275 0 0 1 0.0684,-1.70313 410.3275,410.3275 0 0 1 0.0742,-1.70117 410.3275,410.3275 0 0 1 0.0801,-1.70117 410.3275,410.3275 0 0 1 0.0899,-1.70117 410.3275,410.3275 0 0 1 0.0937,-1.70117 410.3275,410.3275 0 0 1 0.10351,-1.69922 410.3275,410.3275 0 0 1 0.10938,-1.70117 410.3275,410.3275 0 0 1 0.11718,-1.69922 410.3275,410.3275 0 0 1 0.12305,-1.69922 410.3275,410.3275 0 0 1 0.13086,-1.69727 410.3275,410.3275 0 0 1 0.13672,-1.69726 410.3275,410.3275 0 0 1 0.14453,-1.69727 410.3275,410.3275 0 0 1 0.15234,-1.69726 410.3275,410.3275 0 0 1 0.16016,-1.69532 410.3275,410.3275 0 0 1 0.16406,-1.69531 410.3275,410.3275 0 0 1 0.17383,-1.69531 410.3275,410.3275 0 0 1 0.17969,-1.69336 410.3275,410.3275 0 0 1 0.1875,-1.69336 410.3275,410.3275 0 0 1 0.19336,-1.69141 410.3275,410.3275 0 0 1 0.20117,-1.6914 410.3275,410.3275 0 0 1 0.20899,-1.69141 410.3275,410.3275 0 0 1 0.21484,-1.68945 410.3275,410.3275 0 0 1 0.22266,-1.68945 410.3275,410.3275 0 0 1 0.22851,-1.6875 410.3275,410.3275 0 0 1 0.23633,-1.6875 410.3275,410.3275 0 0 1 0.24219,-1.68555 410.3275,410.3275 0 0 1 0.25,-1.68555 410.3275,410.3275 0 0 1 0.25781,-1.68359 410.3275,410.3275 0 0 1 0.26367,-1.68164 410.3275,410.3275 0 0 1 0.27149,-1.68164 410.3275,410.3275 0 0 1 0.27734,-1.68164 410.3275,410.3275 0 0 1 0.28516,-1.67969 410.3275,410.3275 0 0 1 0.29296,-1.67774 410.3275,410.3275 0 0 1 0.29883,-1.67578 410.3275,410.3275 0 0 1 0.30469,-1.67578 410.3275,410.3275 0 0 1 0.31445,-1.67578 410.3275,410.3275 0 0 1 0.31836,-1.67187 410.3275,410.3275 0 0 1 0.32813,-1.67188 410.3275,410.3275 0 0 1 0.33398,-1.66992 410.3275,410.3275 0 0 1 0.33984,-1.66992 410.3275,410.3275 0 0 1 0.34766,-1.66797 410.3275,410.3275 0 0 1 0.35352,-1.66602 410.3275,410.3275 0 0 1 0.36132,-1.66406 410.3275,410.3275 0 0 1 0.36915,-1.66211 410.3275,410.3275 0 0 1 0.375,-1.66211 410.3275,410.3275 0 0 1 0.38281,-1.66015 410.3275,410.3275 0 0 1 0.38867,-1.65821 410.3275,410.3275 0 0 1 0.39648,-1.65625 410.3275,410.3275 0 0 1 0.40235,-1.65625 410.3275,410.3275 0 0 1 0.41015,-1.65234 410.3275,410.3275 0 0 1 0.41602,-1.65235 410.3275,410.3275 0 0 1 0.42187,-1.65039 410.3275,410.3275 0 0 1 0.43165,-1.64843 410.3275,410.3275 0 0 1 0.43554,-1.64454 410.3275,410.3275 0 0 1 0.44531,-1.64453 410.3275,410.3275 0 0 1 0.44922,-1.64453 410.3275,410.3275 0 0 1 0.45899,-1.64062 410.3275,410.3275 0 0 1 0.46289,-1.63867 410.3275,410.3275 0 0 1 0.47266,-1.63672 410.3275,410.3275 0 0 1 0.47656,-1.63477 410.3275,410.3275 0 0 1 0.48437,-1.63281 410.3275,410.3275 0 0 1 0.49219,-1.63086 410.3275,410.3275 0 0 1 0.49805,-1.62891 410.3275,410.3275 0 0 1 0.50586,-1.62695 410.3275,410.3275 0 0 1 0.51171,-1.625 410.3275,410.3275 0 0 1 0.51758,-1.62305 410.3275,410.3275 0 0 1 0.52539,-1.61914 410.3275,410.3275 0 0 1 0.53125,-1.61914 410.3275,410.3275 0 0 1 0.53907,-1.61523 410.3275,410.3275 0 0 1 0.54492,-1.61328 410.3275,410.3275 0 0 1 0.55273,-1.61133 410.3275,410.3275 0 0 1 0.5586,-1.60938 410.3275,410.3275 0 0 1 0.56445,-1.60742 410.3275,410.3275 0 0 1 0.57227,-1.60351 410.3275,410.3275 0 0 1 0.57812,-1.60352 410.3275,410.3275 0 0 1 0.58594,-1.59961 410.3275,410.3275 0 0 1 0.59179,-1.5957 410.3275,410.3275 0 0 1 0.59961,-1.59571 410.3275,410.3275 0 0 1 0.60547,-1.59179 410.3275,410.3275 0 0 1 0.61133,-1.58985 410.3275,410.3275 0 0 1 0.61719,-1.58789 410.3275,410.3275 0 0 1 0.625,-1.58398 410.3275,410.3275 0 0 1 0.63281,-1.58203 410.3275,410.3275 0 0 1 0.63867,-1.58008 410.3275,410.3275 0 0 1 0.64453,-1.57617 410.3275,410.3275 0 0 1 0.65039,-1.57422 410.3275,410.3275 0 0 1 0.65821,-1.57031 410.3275,410.3275 0 0 1 0.66406,-1.56836 410.3275,410.3275 0 0 1 0.66992,-1.56641 410.3275,410.3275 0 0 1 0.67774,-1.5625 410.3275,410.3275 0 0 1 0.68359,-1.56055 410.3275,410.3275 0 0 1 0.69141,-1.55664 410.3275,410.3275 0 0 1 0.69531,-1.55468 410.3275,410.3275 0 0 1 0.70312,-1.55079 410.3275,410.3275 0 0 1 0.70899,-1.54882 410.3275,410.3275 0 0 1 0.7168,-1.54688 410.3275,410.3275 0 0 1 0.72265,-1.54101 410.3275,410.3275 0 0 1 0.72852,-1.54102 410.3275,410.3275 0 0 1 0.73437,-1.53516 410.3275,410.3275 0 0 1 0.74219,-1.53515 410.3275,410.3275 0 0 1 0.74805,-1.5293 410.3275,410.3275 0 0 1 0.7539,-1.52734 410.3275,410.3275 0 0 1 0.76172,-1.52344 410.3275,410.3275 0 0 1 0.76563,-1.52148 410.3275,410.3275 0 0 1 0.77343,-1.51758 410.3275,410.3275 0 0 1 0.7793,-1.51563 410.3275,410.3275 0 0 1 0.78711,-1.50976 410.3275,410.3275 0 0 1 0.79102,-1.50977 410.3275,410.3275 0 0 1 0.79882,-1.50391 410.3275,410.3275 0 0 1 0.80469,-1.50195 410.3275,410.3275 0 0 1 0.81055,-1.49805 410.3275,410.3275 0 0 1 0.8164,-1.49414 410.3275,410.3275 0 0 1 0.82422,-1.49023 410.3275,410.3275 0 0 1 0.82813,-1.48828 410.3275,410.3275 0 0 1 0.83594,-1.48438 410.3275,410.3275 0 0 1 0.84179,-1.48047 410.3275,410.3275 0 0 1 0.84766,-1.47851 410.3275,410.3275 0 0 1 0.85351,-1.47266 410.3275,410.3275 0 0 1 0.86133,-1.4707 410.3275,410.3275 0 0 1 0.86524,-1.4668 410.3275,410.3275 0 0 1 0.87304,-1.46289 410.3275,410.3275 0 0 1 0.87696,-1.46094 410.3275,410.3275 0 0 1 0.88476,-1.45507 410.3275,410.3275 0 0 1 0.89063,-1.45118 410.3275,410.3275 0 0 1 0.89648,-1.44921 410.3275,410.3275 0 0 1 0.90235,-1.44532 410.3275,410.3275 0 0 1 0.9082,-1.43945 410.3275,410.3275 0 0 1 0.91406,-1.4375 410.3275,410.3275 0 0 1 0.91992,-1.43359 410.3275,410.3275 0 0 1 0.92774,-1.42969 410.3275,410.3275 0 0 1 0.93164,-1.42578 410.3275,410.3275 0 0 1 0.9375,-1.42188 410.3275,410.3275 0 0 1 0.94531,-1.41797 410.3275,410.3275 0 0 1 0.94922,-1.41406 410.3275,410.3275 0 0 1 0.95508,-1.41015 410.3275,410.3275 0 0 1 0.96289,-1.40626 410.3275,410.3275 0 0 1 0.96679,-1.40039 410.3275,410.3275 0 0 1 0.97266,-1.39843 410.3275,410.3275 0 0 1 0.98047,-1.39453 410.3275,410.3275 0 0 1 0.98437,-1.38868 410.3275,410.3275 0 0 1 0.99024,-1.38671 410.3275,410.3275 0 0 1 0.99609,-1.38086 410.3275,410.3275 0 0 1 1.00196,-1.37891 410.3275,410.3275 0 0 1 1.00781,-1.37305 410.3275,410.3275 0 0 1 1.01367,-1.36914 410.3275,410.3275 0 0 1 1.01953,-1.36328 410.3275,410.3275 0 0 1 1.02344,-1.36133 410.3275,410.3275 0 0 1 1.03125,-1.35742 410.3275,410.3275 0 0 1 1.03516,-1.35156 410.3275,410.3275 0 0 1 1.04296,-1.34766 410.3275,410.3275 0 0 1 1.04688,-1.34375 410.3275,410.3275 0 0 1 1.05273,-1.33789 410.3275,410.3275 0 0 1 1.0586,-1.33594 410.3275,410.3275 0 0 1 1.0625,-1.33007 410.3275,410.3275 0 0 1 1.07031,-1.32618 410.3275,410.3275 0 0 1 1.07422,-1.32031 410.3275,410.3275 0 0 1 1.08008,-1.31641 410.3275,410.3275 0 0 1 1.08593,-1.3125 410.3275,410.3275 0 0 1 1.0918,-1.30859 410.3275,410.3275 0 0 1 1.09766,-1.30273 410.3275,410.3275 0 0 1 1.10156,-1.29883 410.3275,410.3275 0 0 1 1.10742,-1.29492 410.3275,410.3275 0 0 1 1.11328,-1.28907 410.3275,410.3275 0 0 1 1.11719,-1.28515 410.3275,410.3275 0 0 1 1.12305,-1.28125 410.3275,410.3275 0 0 1 1.1289,-1.27539 410.3275,410.3275 0 0 1 1.13477,-1.27149 410.3275,410.3275 0 0 1 1.13867,-1.26562 410.3275,410.3275 0 0 1 1.14453,-1.26172 410.3275,410.3275 0 0 1 1.15039,-1.25586 410.3275,410.3275 0 0 1 1.1543,-1.25195 410.3275,410.3275 0 0 1 1.16016,-1.24805 410.3275,410.3275 0 0 1 1.16601,-1.24219 410.3275,410.3275 0 0 1 1.16992,-1.23633 410.3275,410.3275 0 0 1 1.17579,-1.23437 410.3275,410.3275 0 0 1 1.18164,-1.22656 410.3275,410.3275 0 0 1 1.18554,-1.22266 410.3275,410.3275 0 0 1 1.19141,-1.21875 410.3275,410.3275 0 0 1 1.19531,-1.21289 410.3275,410.3275 0 0 1 1.20117,-1.20703 410.3275,410.3275 0 0 1 1.20508,-1.20313 410.3275,410.3275 0 0 1 1.21094,-1.19726 410.3275,410.3275 0 0 1 1.2168,-1.19336 410.3275,410.3275 0 0 1 1.2207,-1.1875 410.3275,410.3275 0 0 1 1.22656,-1.18359 410.3275,410.3275 0 0 1 1.23047,-1.17774 410.3275,410.3275 0 0 1 1.23438,-1.17187 410.3275,410.3275 0 0 1 1.24023,-1.16797 410.3275,410.3275 0 0 1 1.24609,-1.16211 410.3275,410.3275 0 0 1 1.25,-1.15625 410.3275,410.3275 0 0 1 1.25586,-1.15235 410.3275,410.3275 0 0 1 1.25782,-1.14648 410.3275,410.3275 0 0 1 1.26562,-1.14258 410.3275,410.3275 0 0 1 1.26953,-1.13476 410.3275,410.3275 0 0 1 1.27344,-1.13086 410.3275,410.3275 0 0 1 1.27734,-1.12696 410.3275,410.3275 0 0 1 1.28321,-1.11914 410.3275,410.3275 0 0 1 1.28906,-1.11523 410.3275,410.3275 0 0 1 1.29101,-1.10938 410.3275,410.3275 0 0 1 1.29688,-1.10351 410.3275,410.3275 0 0 1 1.30273,-1.09961 410.3275,410.3275 0 0 1 1.30664,-1.09375 410.3275,410.3275 0 0 1 1.31055,-1.08789 410.3275,410.3275 0 0 1 1.31445,-1.08203 410.3275,410.3275 0 0 1 1.32032,-1.07813 410.3275,410.3275 0 0 1 1.32422,-1.07031 410.3275,410.3275 0 0 1 1.32812,-1.06641 410.3275,410.3275 0 0 1 1.33203,-1.06054 410.3275,410.3275 0 0 1 1.33789,-1.05469 410.3275,410.3275 0 0 1 1.3418,-1.04883 410.3275,410.3275 0 0 1 1.3457,-1.04492 410.3275,410.3275 0 0 1 1.35156,-1.03711 410.3275,410.3275 0 0 1 1.35352,-1.0332 410.3275,410.3275 0 0 1 1.35938,-1.02735 410.3275,410.3275 0 0 1 1.36328,-1.02148 410.3275,410.3275 0 0 1 1.36718,-1.01563 410.3275,410.3275 0 0 1 1.3711,-1.00976 410.3275,410.3275 0 0 1 1.37695,-1.00391 410.3275,410.3275 0 0 1 1.37891,-0.99805 410.3275,410.3275 0 0 1 1.38476,-0.99414 410.3275,410.3275 0 0 1 1.38867,-0.98633 410.3275,410.3275 0 0 1 1.39258,-0.98242 410.3275,410.3275 0 0 1 1.39649,-0.97461 410.3275,410.3275 0 0 1 1.40039,-0.96875 410.3275,410.3275 0 0 1 1.40429,-0.96484 410.3275,410.3275 0 0 1 1.40821,-0.95898 410.3275,410.3275 0 0 1 1.41211,-0.95118 410.3275,410.3275 0 0 1 1.41601,-0.94726 410.3275,410.3275 0 0 1 1.41992,-0.93946 410.3275,410.3275 0 0 1 1.42383,-0.93554 410.3275,410.3275 0 0 1 1.42774,-0.92774 410.3275,410.3275 0 0 1 1.43359,-0.92187 410.3275,410.3275 0 0 1 1.43555,-0.91797 410.3275,410.3275 0 0 1 1.43945,-0.91016 410.3275,410.3275 0 0 1 1.44336,-0.90429 410.3275,410.3275 0 0 1 1.44531,-0.89844 410.3275,410.3275 0 0 1 1.45117,-0.89453 410.3275,410.3275 0 0 1 1.45508,-0.88672 410.3275,410.3275 0 0 1 1.45703,-0.87891 410.3275,410.3275 0 0 1 1.46289,-0.875 410.3275,410.3275 0 0 1 1.46485,-0.86914 410.3275,410.3275 0 0 1 1.46875,-0.86133 410.3275,410.3275 0 0 1 1.47265,-0.85742 410.3275,410.3275 0 0 1 1.47657,-0.84961 410.3275,410.3275 0 0 1 1.47851,-0.84375 410.3275,410.3275 0 0 1 1.48242,-0.83789 410.3275,410.3275 0 0 1 1.48633,-0.83203 410.3275,410.3275 0 0 1 1.49024,-0.82617 410.3275,410.3275 0 0 1 1.49414,-0.82031 410.3275,410.3275 0 0 1 1.49609,-0.8125 410.3275,410.3275 0 0 1 1.5,-0.80664 410.3275,410.3275 0 0 1 1.50391,-0.80078 410.3275,410.3275 0 0 1 1.50586,-0.79493 410.3275,410.3275 0 0 1 1.51172,-0.78711 410.3275,410.3275 0 0 1 1.51171,-0.7832 410.3275,410.3275 0 0 1 1.51758,-0.77539 410.3275,410.3275 0 0 1 1.51953,-0.76953 410.3275,410.3275 0 0 1 1.52344,-0.76367 410.3275,410.3275 0 0 1 1.52539,-0.75586 410.3275,410.3275 0 0 1 1.5293,-0.75 410.3275,410.3275 0 0 1 1.53125,-0.74414 410.3275,410.3275 0 0 1 1.53711,-0.73828 410.3275,410.3275 0 0 1 1.53711,-0.730473 410.3275,410.3275 0 0 1 1.54101,-0.724609 410.3275,410.3275 0 0 1 1.54492,-0.71875 410.3275,410.3275 0 0 1 1.54688,-0.712891 410.3275,410.3275 0 0 1 1.55078,-0.705078 410.3275,410.3275 0 0 1 1.55274,-0.699219 410.3275,410.3275 0 0 1 1.55664,-0.693359 410.3275,410.3275 0 0 1 1.55859,-0.685547 410.3275,410.3275 0 0 1 1.5625,-0.679688 410.3275,410.3275 0 0 1 1.56445,-0.673828 410.3275,410.3275 0 0 1 1.56836,-0.666016 410.3275,410.3275 0 0 1 1.57032,-0.660156 410.3275,410.3275 0 0 1 1.57226,-0.654297 410.3275,410.3275 0 0 1 1.57617,-0.648437 410.3275,410.3275 0 0 1 1.57813,-0.640625 410.3275,410.3275 0 0 1 1.58008,-0.632813 410.3275,410.3275 0 0 1 1.58398,-0.628906 410.3275,410.3275 0 0 1 1.58594,-0.61914 410.3275,410.3275 0 0 1 1.58789,-0.615235 410.3275,410.3275 0 0 1 1.59179,-0.607422 410.3275,410.3275 0 0 1 1.59376,-0.601562 410.3275,410.3275 0 0 1 1.5957,-0.59375 410.3275,410.3275 0 0 1 1.59961,-0.589844 410.3275,410.3275 0 0 1 1.60156,-0.580078 410.3275,410.3275 0 0 1 1.60352,-0.574219 410.3275,410.3275 0 0 1 1.60546,-0.568359 410.3275,410.3275 0 0 1 1.60743,-0.5625 410.3275,410.3275 0 0 1 1.61132,-0.554688 410.3275,410.3275 0 0 1 1.61329,-0.546875 410.3275,410.3275 0 0 1 1.61523,-0.541015 410.3275,410.3275 0 0 1 1.61719,-0.535157 410.3275,410.3275 0 0 1 1.61914,-0.527343 410.3275,410.3275 0 0 1 1.62109,-0.521485 410.3275,410.3275 0 0 1 1.625,-0.513672 410.3275,410.3275 0 0 1 1.625,-0.507812 410.3275,410.3275 0 0 1 1.62891,-0.501953 410.3275,410.3275 0 0 1 1.6289,-0.494141 A 410.3275,410.3275 0 0 1 514.18555,77 a 410.3275,410.3275 0 0 1 1.63476,-0.480469 410.3275,410.3275 0 0 1 1.63477,-0.474609 410.3275,410.3275 0 0 1 1.63867,-0.466797 410.3275,410.3275 0 0 1 1.64063,-0.458984 410.3275,410.3275 0 0 1 1.64062,-0.453125 410.3275,410.3275 0 0 1 1.64453,-0.447266 410.3275,410.3275 0 0 1 1.64649,-0.439453 410.3275,410.3275 0 0 1 1.64648,-0.433594 410.3275,410.3275 0 0 1 1.65039,-0.425781 410.3275,410.3275 0 0 1 1.65039,-0.417969 410.3275,410.3275 0 0 1 1.65234,-0.414062 410.3275,410.3275 0 0 1 1.6543,-0.404297 410.3275,410.3275 0 0 1 1.65625,-0.398438 410.3275,410.3275 0 0 1 1.65821,-0.392578 410.3275,410.3275 0 0 1 1.6582,-0.384766 410.3275,410.3275 0 0 1 1.66211,-0.376953 410.3275,410.3275 0 0 1 1.66211,-0.371093 410.3275,410.3275 0 0 1 1.66406,-0.365235 410.3275,410.3275 0 0 1 1.66602,-0.355469 410.3275,410.3275 0 0 1 1.66601,-0.351562 410.3275,410.3275 0 0 1 1.66797,-0.34375 410.3275,410.3275 0 0 1 1.66992,-0.335938 410.3275,410.3275 0 0 1 1.67188,-0.330078 410.3275,410.3275 0 0 1 1.67187,-0.322265 410.3275,410.3275 0 0 1 1.67383,-0.314453 410.3275,410.3275 0 0 1 1.67578,-0.308594 410.3275,410.3275 0 0 1 1.67578,-0.302734 410.3275,410.3275 0 0 1 1.67774,-0.294922 410.3275,410.3275 0 0 1 1.67968,-0.28711 410.3275,410.3275 0 0 1 1.67969,-0.28125 410.3275,410.3275 0 0 1 1.68164,-0.273437 410.3275,410.3275 0 0 1 1.68164,-0.267578 410.3275,410.3275 0 0 1 1.6836,-0.259766 410.3275,410.3275 0 0 1 1.68554,-0.251953 410.3275,410.3275 0 0 1 1.68555,-0.246094 410.3275,410.3275 0 0 1 1.68555,-0.238281 410.3275,410.3275 0 0 1 1.6875,-0.232422 410.3275,410.3275 0 0 1 1.68945,-0.224609 410.3275,410.3275 0 0 1 1.6875,-0.21875 410.3275,410.3275 0 0 1 1.69141,-0.210938 410.3275,410.3275 0 0 1 1.6914,-0.203125 410.3275,410.3275 0 0 1 1.69141,-0.197265 410.3275,410.3275 0 0 1 1.69336,-0.189454 410.3275,410.3275 0 0 1 1.69336,-0.18164 410.3275,410.3275 0 0 1 1.69336,-0.175782 410.3275,410.3275 0 0 1 1.69531,-0.169921 410.3275,410.3275 0 0 1 1.69531,-0.16211 410.3275,410.3275 0 0 1 1.69727,-0.154297 410.3275,410.3275 0 0 1 1.69726,-0.146484 410.3275,410.3275 0 0 1 1.69727,-0.140625 410.3275,410.3275 0 0 1 1.69726,-0.134766 410.3275,410.3275 0 0 1 1.29688,-0.0957 410.3275,410.3275 0 0 0 -29.99805,-1.099609 z"
           transform="scale(0.26458333)" />
      </g>
    </g>
  </g>
</svg>
