<?xml version="1.0" encoding="UTF-8" standalone="no"?>
<!-- Created with Inkscape (http://www.inkscape.org/) -->

<svg
   width="120mm"
   height="120mm"
   viewBox="0 0 120 120"
   version="1.1"
   id="svg5"
   inkscape:version="1.2.2 (b0a8486541, 2022-12-01)"
   sodipodi:docname="logo.svg"
   xmlns:inkscape="http://www.inkscape.org/namespaces/inkscape"
   xmlns:sodipodi="http://sodipodi.sourceforge.net/DTD/sodipodi-0.dtd"
   xmlns:xlink="http://www.w3.org/1999/xlink"
   xmlns="http://www.w3.org/2000/svg"
   xmlns:svg="http://www.w3.org/2000/svg">
  <sodipodi:namedview
     id="namedview7"
     pagecolor="#ffffff"
     bordercolor="#111111"
     borderopacity="1"
     inkscape:showpageshadow="0"
     inkscape:pageopacity="0"
     inkscape:pagecheckerboard="1"
     inkscape:deskcolor="#d1d1d1"
     inkscape:document-units="mm"
     showgrid="true"
     inkscape:zoom="1.1893044"
     inkscape:cx="299.33464"
     inkscape:cy="92.911453"
     inkscape:window-width="2248"
     inkscape:window-height="2981"
     inkscape:window-x="0"
     inkscape:window-y="17"
     inkscape:window-maximized="1"
     inkscape:current-layer="layer1">
    <inkscape:grid
       type="xygrid"
       id="grid132"
       dotted="true"
       originx="-30.437507"
       originy="-97.791596" />
  </sodipodi:namedview>
  <defs
     id="defs2">
    <linearGradient
       inkscape:collect="always"
       id="linearGradient1455">
      <stop
         style="stop-color:#8c0021;stop-opacity:1;"
         offset="0"
         id="stop1451" />
      <stop
         style="stop-color:#2000a6;stop-opacity:1;"
         offset="1"
         id="stop1453" />
    </linearGradient>
    <linearGradient
       inkscape:collect="always"
       xlink:href="#linearGradient1455"
       id="linearGradient1457"
       x1="90"
       y1="110"
       x2="90"
       y2="215.42563"
       gradientUnits="userSpaceOnUse"
       gradientTransform="matrix(0.83333333,0,0,0.83333333,15.437503,24.458337)" />
    <clipPath
       clipPathUnits="userSpaceOnUse"
       id="clipPath1883">
      <circle
         style="opacity:0.94572;fill:none;fill-opacity:1;fill-rule:evenodd;stroke:#000000;stroke-width:0.0733332;stroke-linecap:round;stroke-opacity:1;stop-color:#000000"
         id="circle1885"
         cx="90.437508"
         cy="157.7916"
         r="37.5" />
    </clipPath>
  </defs>
  <g
     inkscape:label="Layer 1"
     inkscape:groupmode="layer"
     id="layer1"
     transform="translate(-30.437507,-97.791596)">
    <g
       id="g1858"
       clip-path="url(#clipPath1883)"
       transform="matrix(1.6,0,0,1.6,-54.262505,-94.674957)">
      <circle
         style="opacity:0.94572;fill:url(#linearGradient1457);fill-opacity:1;fill-rule:evenodd;stroke:none;stroke-width:0.0733332;stroke-linecap:round;stop-color:#000000"
         id="path1257"
         cx="90.437508"
         cy="157.7916"
         r="37.5" />
      <path
         style="mix-blend-mode:screen;fill:#f26000;fill-opacity:0.435972;stroke:none;stroke-width:0.264583px;stroke-linecap:butt;stroke-linejoin:miter;stroke-opacity:1"
         d="m 139.41666,149.41666 c 0,0 -5.28595,10 -10,10 -9.42809,0 -10.57191,-20 -20,-20 -9.428087,0 -10.571907,20 -19.999994,20 -9.428091,0 -10.571911,-20 -20.000002,-20 -9.42809,0 -10.57191,20 -20,20 -9.42809,0 -10.571909,-20 -19.999999,-20 -4.714045,0 -9.999999,10 -9.999999,10 v 60 H 149.41666 v -60 z"
         id="path238-3"
         sodipodi:nodetypes="cssssssc" />
      <path
         style="mix-blend-mode:screen;fill:#f26000;fill-opacity:0.435972;stroke:none;stroke-width:0.264583px;stroke-linecap:butt;stroke-linejoin:miter;stroke-opacity:1"
         d="m 150,154.70833 c 0,0 -5.28595,10 -10,10 -9.42809,0 -10.57191,-20 -20,-20 -9.42809,0 -10.57191,20 -20,20 -9.428091,0 -10.571911,-20 -20.000002,-20 -9.42809,0 -10.57191,20 -20,20 -9.42809,0 -10.571909,-20 -19.999999,-20 -4.714045,0 -9.999999,10 -9.999999,10 v 60 h 130 v -60 z"
         id="path238-3-6"
         sodipodi:nodetypes="cssssssc" />
      <path
         style="mix-blend-mode:screen;fill:#f26000;fill-opacity:0.435972;stroke:none;stroke-width:0.264583px;stroke-linecap:butt;stroke-linejoin:miter;stroke-opacity:1"
         d="m 160.58334,160 c 0,0 -5.28595,10 -10,10 -9.42809,0 -10.57191,-20 -20,-20 -9.42809,0 -10.57191,20 -20,20 -9.4281,0 -10.57192,-20 -20.000008,-20 -9.42809,0 -10.57191,20 -20,20 -9.42809,0 -10.571909,-20 -19.999999,-20 -4.714045,0 -9.999999,10 -9.999999,10 v 60 H 170.58334 v -60 z"
         id="path238-3-6-2"
         sodipodi:nodetypes="cssssssc" />
      <path
         style="mix-blend-mode:screen;fill:#f26000;fill-opacity:0.435972;stroke:none;stroke-width:0.264583px;stroke-linecap:butt;stroke-linejoin:miter;stroke-opacity:1"
         d="m 134.12499,165.29167 c 0,0 -5.28595,10 -10,10 -9.42809,0 -10.57191,-20 -20,-20 -9.428084,0 -10.571904,20 -19.999991,20 -9.428094,0 -10.571914,-20 -19.999998,-20 -9.428094,0 -10.571914,20 -20.000004,20 -9.42809,0 -10.571909,-20 -19.999999,-20 -4.714045,0 -9.999999,10 -9.999999,10 v 60 H 144.12499 v -60 z"
         id="path238-3-6-2-9"
         sodipodi:nodetypes="cssssssc" />
      <path
         style="mix-blend-mode:screen;fill:#f26000;fill-opacity:0.435972;stroke:none;stroke-width:0.264583px;stroke-linecap:butt;stroke-linejoin:miter;stroke-opacity:1"
         d="m 144.70833,170.58334 c 0,0 -5.28595,10 -10,10 -9.42809,0 -10.57191,-20 -20,-20 -9.42809,0 -10.57191,20 -19.999997,20 -9.428094,0 -10.571914,-20 -19.999998,-20 -9.428094,0 -10.571914,20 -20.000004,20 -9.42809,0 -10.571909,-20 -19.999999,-20 -4.714045,0 -9.999999,10 -9.999999,10 v 60 H 154.70833 v -60 z"
         id="path238-3-6-2-9-2"
         sodipodi:nodetypes="cssssssc" />
      <path
         style="mix-blend-mode:screen;fill:#f26000;fill-opacity:0.435972;stroke:none;stroke-width:0.264583px;stroke-linecap:butt;stroke-linejoin:miter;stroke-opacity:1"
         d="m 155.29167,175.87501 c 0,0 -5.28595,10 -10,10 -9.42809,0 -10.57191,-20 -20,-20 -9.42809,0 -10.57191,20 -20,20 -9.428097,0 -10.571917,-20 -20.000001,-20 -9.428094,0 -10.571914,20 -20.000004,20 -9.42809,0 -10.571909,-20 -19.999999,-20 -4.714045,0 -9.999999,10 -9.999999,10 v 60 H 165.29167 v -60 z"
         id="path238-3-6-2-9-2-7"
         sodipodi:nodetypes="cssssssc" />
      <path
         style="mix-blend-mode:screen;fill:#f26000;fill-opacity:0.435972;stroke:none;stroke-width:0.264583px;stroke-linecap:butt;stroke-linejoin:miter;stroke-opacity:1"
         d="m 165.87501,181.16668 c 0,0 -5.28595,10 -10,10 -9.42809,0 -10.57191,-20 -20,-20 -9.42809,0 -10.57191,20 -20,20 -9.4281,0 -10.57192,-20 -20.000007,-20 -9.428094,0 -10.571914,20 -20.000004,20 -9.42809,0 -10.571909,-20 -19.999999,-20 -4.714045,0 -9.999999,10 -9.999999,10 v 60 H 175.87501 v -60 z"
         id="path238-3-6-2-9-2-7-0"
         sodipodi:nodetypes="cssssssc" />
      <path
         style="mix-blend-mode:screen;fill:#f26000;fill-opacity:0.435972;stroke:none;stroke-width:0.264583px;stroke-linecap:butt;stroke-linejoin:miter;stroke-opacity:1"
         d="m 139.41666,186.45835 c 0,0 -5.28595,10 -10,10 -9.42809,0 -10.57191,-20 -20,-20 -9.428087,0 -10.571907,20 -19.999994,20 -9.428094,0 -10.571914,-20 -19.999998,-20 -9.428094,0 -10.571914,20 -20.000004,20 -9.42809,0 -10.571909,-20 -19.999999,-20 -4.714045,0 -9.999999,10 -9.999999,10 v 60 H 149.41666 v -60 z"
         id="path238-3-6-2-9-2-7-0-9"
         sodipodi:nodetypes="cssssssc" />
      <path
         style="mix-blend-mode:screen;fill:#f26000;fill-opacity:0.435972;stroke:none;stroke-width:0.264583px;stroke-linecap:butt;stroke-linejoin:miter;stroke-opacity:1"
         d="m 150,191.75002 c 0,0 -5.28595,10 -10,10 -9.42809,0 -10.57191,-20 -20,-20 -9.42809,0 -10.57191,20 -20,20 -9.428094,0 -10.571914,-20 -19.999998,-20 -9.428094,0 -10.571914,20 -20.000004,20 -9.42809,0 -10.571909,-20 -19.999999,-20 -4.714045,0 -9.999999,10 -9.999999,10 v 60 h 130 v -60 z"
         id="path238-3-6-2-9-2-7-0-9-6"
         sodipodi:nodetypes="cssssssc" />
      <path
         style="mix-blend-mode:screen;fill:#f26000;fill-opacity:0.435972;stroke:none;stroke-width:0.264583px;stroke-linecap:butt;stroke-linejoin:miter;stroke-opacity:1"
         d="m 160.58334,197.04169 c 0,0 -5.28595,10 -10,10 -9.42809,0 -10.57191,-20 -20,-20 -9.42809,0 -10.57191,20 -20,20 -9.4281,0 -10.57192,-20 -20.000004,-20 -9.428094,0 -10.571914,20 -20.000004,20 -9.42809,0 -10.571909,-20 -19.999999,-20 -4.714045,0 -9.999999,10 -9.999999,10 v 60 H 170.58334 v -60 z"
         id="path238-3-6-2-9-2-7-0-9-6-0"
         sodipodi:nodetypes="cssssssc" />
      <path
         style="mix-blend-mode:screen;fill:#f26000;fill-opacity:0.435972;stroke:none;stroke-width:0.264583px;stroke-linecap:butt;stroke-linejoin:miter;stroke-opacity:1"
         d="m 171.16668,202.33336 c 0,0 -5.28595,10 -10,10 -9.42809,0 -10.57191,-20 -20,-20 -9.42809,0 -10.57191,20 -20,20 -9.4281,0 -10.57192,-20 -20.00001,-20 -9.428094,0 -10.571914,20 -20.000004,20 -9.42809,0 -10.571909,-20 -19.999999,-20 -4.714045,0 -9.999999,10 -9.999999,10 v 60 H 181.16668 v -60 z"
         id="path238-3-6-2-9-2-7-0-9-6-0-6"
         sodipodi:nodetypes="cssssssc" />
      <path
         style="mix-blend-mode:screen;fill:#f26000;fill-opacity:0.435972;stroke:none;stroke-width:0.264583px;stroke-linecap:butt;stroke-linejoin:miter;stroke-opacity:1"
         d="m 181.75002,207.62503 c 0,0 -5.28595,10 -10,10 -9.42809,0 -10.57191,-20 -20,-20 -9.42809,0 -10.57191,20 -20,20 -9.4281,0 -10.57192,-20 -20.00001,-20 -9.4281,0 -10.57192,20 -20.00001,20 -9.42809,0 -10.571909,-20 -19.999999,-20 -4.714045,0 -9.999999,10 -9.999999,10 v 60 H 191.75002 v -60 z"
         id="path238-3-6-2-9-2-7-0-9-6-0-6-2"
         sodipodi:nodetypes="cssssssc" />
    </g>
  </g>
</svg>
