<?xml version="1.0" encoding="UTF-8" standalone="no"?>
<!-- Created with Inkscape (http://www.inkscape.org/) -->

<svg
   xmlns:dc="http://purl.org/dc/elements/1.1/"
   xmlns:cc="http://creativecommons.org/ns#"
   xmlns:rdf="http://www.w3.org/1999/02/22-rdf-syntax-ns#"
   xmlns:svg="http://www.w3.org/2000/svg"
   xmlns="http://www.w3.org/2000/svg"
   xmlns:xlink="http://www.w3.org/1999/xlink"
   xmlns:sodipodi="http://sodipodi.sourceforge.net/DTD/sodipodi-0.dtd"
   xmlns:inkscape="http://www.inkscape.org/namespaces/inkscape"
   width="120mm"
   height="120.00001mm"
   viewBox="0 0 120 120.00001"
   version="1.1"
   id="svg1196"
   inkscape:version="0.92.4 (5da689c313, 2019-01-14)"
   sodipodi:docname="rudiments.svg">
  <defs
     id="defs1190">
    <linearGradient
       inkscape:collect="always"
       id="linearGradient13794">
      <stop
         style="stop-color:#ffffff;stop-opacity:1;"
         offset="0"
         id="stop13790" />
      <stop
         style="stop-color:#e4e4e4;stop-opacity:1"
         offset="1"
         id="stop13792" />
    </linearGradient>
    <linearGradient
       inkscape:collect="always"
       id="linearGradient13778">
      <stop
         style="stop-color:#2d2d2d;stop-opacity:1"
         offset="0"
         id="stop13774" />
      <stop
         style="stop-color:#000000;stop-opacity:1"
         offset="1"
         id="stop13776" />
    </linearGradient>
    <linearGradient
       id="linearGradient1873"
       inkscape:collect="always">
      <stop
         id="stop1869"
         offset="0"
         style="stop-color:#ffffff;stop-opacity:0.785" />
      <stop
         id="stop1871"
         offset="1"
         style="stop-color:#eefffe;stop-opacity:0.039" />
    </linearGradient>
    <radialGradient
       inkscape:collect="always"
       xlink:href="#linearGradient1873"
       id="radialGradient1843-4"
       cx="160.18143"
       cy="150.43779"
       fx="160.18143"
       fy="150.43779"
       r="59.342262"
       gradientUnits="userSpaceOnUse"
       gradientTransform="matrix(1.9006092,0.59274898,-0.31881403,1.022238,-211.31207,-136.28021)" />
    <radialGradient
       inkscape:collect="always"
       xlink:href="#linearGradient13778"
       id="radialGradient13780"
       cx="72.801514"
       cy="183.99287"
       fx="72.801514"
       fy="183.99287"
       r="49.255608"
       gradientTransform="matrix(2.1752733,1.0425249,-0.50641603,1.0566577,-31.1465,-165.00687)"
       gradientUnits="userSpaceOnUse" />
    <radialGradient
       inkscape:collect="always"
       xlink:href="#linearGradient13794"
       id="radialGradient13796"
       cx="38.405682"
       cy="98.960251"
       fx="38.405682"
       fy="98.960251"
       r="59.999958"
       gradientTransform="matrix(-1.5340371,1.2280173,-0.62486742,-0.78056362,253.91127,129.11252)"
       gradientUnits="userSpaceOnUse" />
  </defs>
  <sodipodi:namedview
     id="base"
     pagecolor="#ffffff"
     bordercolor="#666666"
     borderopacity="1.0"
     inkscape:pageopacity="0.0"
     inkscape:pageshadow="2"
     inkscape:zoom="1.979899"
     inkscape:cx="236.94416"
     inkscape:cy="237.76253"
     inkscape:document-units="mm"
     inkscape:current-layer="layer1"
     showgrid="false"
     inkscape:window-width="2256"
     inkscape:window-height="1481"
     inkscape:window-x="-8"
     inkscape:window-y="-8"
     inkscape:window-maximized="1"
     fit-margin-top="0"
     fit-margin-left="0"
     fit-margin-right="0"
     fit-margin-bottom="0"
     inkscape:pagecheckerboard="true" />
  <metadata
     id="metadata1193">
    <rdf:RDF>
      <cc:Work
         rdf:about="">
        <dc:format>image/svg+xml</dc:format>
        <dc:type
           rdf:resource="http://purl.org/dc/dcmitype/StillImage" />
        <dc:title></dc:title>
      </cc:Work>
    </rdf:RDF>
  </metadata>
  <g
     inkscape:label="Layer 1"
     inkscape:groupmode="layer"
     id="layer1"
     transform="translate(-25.743478,-74.214849)">
    <g
       id="g13891">
      <g
         transform="rotate(-37.617969,85.751601,134.29862)"
         id="g13882">
        <g
           id="g13874">
          <path
             inkscape:connector-curvature="0"
             id="path13473-4"
             d="m 136.6095,166.34624 a 60.04306,60.038846 16.63872 0 0 9.13729,-29.9076 60.04306,60.038846 16.63872 0 0 -27.91512,-52.899719 60.04306,60.038846 16.63872 0 0 -82.811013,18.773819 60.04306,60.038846 16.63872 0 0 -2.938,5.36668 60.04306,60.038846 16.63872 0 0 21.715661,77.43992 60.04306,60.038846 16.63872 0 0 5.87814,3.22551 49.352461,65.573991 32.228863 0 0 0.02255,-0.0377 60.04306,60.038846 16.63872 0 0 5.527588,2.33832 60.04306,60.038846 16.63872 0 0 5.733108,1.77502 60.04306,60.038846 16.63872 0 0 5.876304,1.1929 60.04306,60.038846 16.63872 0 0 0.0059,10e-4 60.04306,60.038846 16.63872 0 0 0.498563,0.0504 60.04306,60.038846 16.63872 0 0 5.47079,0.54979 60.04306,60.038846 16.63872 0 0 0.002,1.6e-4 60.04306,60.038846 16.63872 0 0 0.214256,3.7e-4 60.04306,60.038846 16.63872 0 0 5.783868,10e-4 60.04306,60.038846 16.63872 0 0 0.0041,1.9e-4 60.04306,60.038846 16.63872 0 0 0.397756,-0.0397 60.04306,60.038846 16.63872 0 0 5.563474,-0.55616 60.04306,60.038846 16.63872 0 0 0.01073,-9.6e-4 60.04306,60.038846 16.63872 0 0 1.051209,-0.21253 60.04306,60.038846 16.63872 0 0 4.816406,-0.97514 60.04306,60.038846 16.63872 0 0 0.0148,-0.003 60.04306,60.038846 16.63872 0 0 1.25833,-0.38913 60.04306,60.038846 16.63872 0 0 4.46484,-1.38028 60.04306,60.038846 16.63872 0 0 0.0106,-0.003 60.04306,60.038846 16.63872 0 0 1.02022,-0.43106 60.04306,60.038846 16.63872 0 0 4.49436,-1.89873 60.04306,60.038846 16.63872 0 0 0.0143,-0.006 60.04306,60.038846 16.63872 0 0 1.37027,-0.74811 60.04306,60.038846 16.63872 0 0 3.87905,-2.11785 60.04306,60.038846 16.63872 0 0 0.0179,-0.01 60.04306,60.038846 16.63872 0 0 1.59277,-1.08931 60.04306,60.038846 16.63872 0 0 3.34424,-2.28624 60.04306,60.038846 16.63872 0 0 0.0174,-0.0119 60.04306,60.038846 16.63872 0 0 1.57639,-1.32706 60.04306,60.038846 16.63872 0 0 2.99642,-2.52278 60.04306,60.038846 16.63872 0 0 0.0184,-0.0156 60.04306,60.038846 16.63872 0 0 1.92111,-1.97687 60.04306,60.038846 16.63872 0 0 2.2445,-2.30949 60.04306,60.038846 16.63872 0 0 0.017,-0.0171 60.04306,60.038846 16.63872 0 0 0.2879,-0.34199 60.04306,60.038846 16.63872 0 0 0.046,-0.0563 60.04306,60.038846 16.63872 0 0 1.28205,-1.52001 48.034446,48.031076 16.63872 0 0 0.0615,-0.12994 48.034446,48.031076 16.63872 0 0 5.4e-4,-8.6e-4 60.04306,60.038846 16.63872 0 0 4.00389,-5.49272 z"
             style="opacity:1;vector-effect:none;fill:url(#radialGradient13796);fill-opacity:1;stroke:none;stroke-width:0.32983831;stroke-linecap:butt;stroke-linejoin:miter;stroke-miterlimit:4;stroke-dasharray:none;stroke-dashoffset:0;stroke-opacity:0.70980392" />
          <path
             inkscape:connector-curvature="0"
             id="path13473-4-5"
             d="m 136.6095,166.34624 a 60.04306,60.038848 16.63872 0 0 9.13729,-29.9076 60.04306,60.038848 16.63872 0 0 -27.91512,-52.899719 60.04306,60.038848 16.63872 0 0 -82.811013,18.773819 60.04306,60.038848 16.63872 0 0 -2.938,5.36668 60.04306,60.038848 16.63872 0 0 21.715661,77.43992 60.04306,60.038848 16.63872 0 0 5.87814,3.22551 49.352462,65.573992 32.228863 0 0 0.02255,-0.0377 60.04306,60.038848 16.63872 0 0 5.527588,2.33832 60.04306,60.038848 16.63872 0 0 5.733099,1.77502 60.04306,60.038848 16.63872 0 0 5.876303,1.1929 60.04306,60.038848 16.63872 0 0 0.0059,10e-4 60.04306,60.038848 16.63872 0 0 0.498563,0.0504 60.04306,60.038848 16.63872 0 0 5.470791,0.54979 60.04306,60.038848 16.63872 0 0 0.0021,7e-5 60.04306,60.038848 16.63872 0 0 0.214256,3.6e-4 60.04306,60.038848 16.63872 0 0 5.783867,0.001 60.04306,60.038848 16.63872 0 0 0.0041,1.9e-4 60.04306,60.038848 16.63872 0 0 0.397757,-0.0398 60.04306,60.038848 16.63872 0 0 5.563474,-0.55615 60.04306,60.038848 16.63872 0 0 0.01073,-9.7e-4 60.04306,60.038848 16.63872 0 0 1.05121,-0.21253 60.04306,60.038848 16.63872 0 0 4.816404,-0.97513 60.04306,60.038848 16.63872 0 0 0.0148,-0.003 60.04306,60.038848 16.63872 0 0 1.25833,-0.38914 60.04306,60.038848 16.63872 0 0 4.46484,-1.38028 60.04306,60.038848 16.63872 0 0 0.0106,-0.003 60.04306,60.038848 16.63872 0 0 1.02023,-0.43107 60.04306,60.038848 16.63872 0 0 4.49436,-1.89873 60.04306,60.038848 16.63872 0 0 0.0143,-0.006 60.04306,60.038848 16.63872 0 0 1.37027,-0.74809 60.04306,60.038848 16.63872 0 0 3.87905,-2.11786 60.04306,60.038848 16.63872 0 0 0.0179,-0.01 60.04306,60.038848 16.63872 0 0 1.59277,-1.0893 60.04306,60.038848 16.63872 0 0 3.34424,-2.28624 60.04306,60.038848 16.63872 0 0 0.0174,-0.0119 60.04306,60.038848 16.63872 0 0 1.57639,-1.32707 60.04306,60.038848 16.63872 0 0 2.99642,-2.52278 60.04306,60.038848 16.63872 0 0 0.0184,-0.0156 60.04306,60.038848 16.63872 0 0 1.92111,-1.97688 60.04306,60.038848 16.63872 0 0 2.2445,-2.30948 60.04306,60.038848 16.63872 0 0 0.017,-0.0171 60.04306,60.038848 16.63872 0 0 0.2879,-0.34199 60.04306,60.038848 16.63872 0 0 0.046,-0.0563 60.04306,60.038848 16.63872 0 0 1.28205,-1.52002 48.034445,48.031077 16.63872 0 0 0.0615,-0.12993 48.034445,48.031077 16.63872 0 0 5.4e-4,-8.9e-4 60.04306,60.038848 16.63872 0 0 4.00389,-5.49271 z"
             style="opacity:1;vector-effect:none;fill:none;fill-opacity:1;stroke:none;stroke-width:0.32983831;stroke-linecap:butt;stroke-linejoin:miter;stroke-miterlimit:4;stroke-dasharray:none;stroke-dashoffset:0;stroke-opacity:0.70980392" />
          <path
             inkscape:connector-curvature="0"
             id="path13473-4-5-6"
             d="m 125.64649,179.25526 a 60.04306,60.038848 32.833513 0 0 17.11606,-26.17242 60.04306,60.038848 32.833513 0 0 -12.05348,-58.586235 60.04306,60.038848 32.833513 0 0 -84.761084,-5.067452 60.04306,60.038848 32.833513 0 0 -4.318204,4.334307 60.04306,60.038848 32.833513 0 0 -0.744333,80.42361 60.04306,60.038848 32.833513 0 0 4.745288,4.73695 49.352462,65.573992 48.423656 0 0 0.03222,-0.0299 60.04306,60.038848 32.833513 0 0 4.656083,3.7872 60.04306,60.038848 32.833513 0 0 5.010547,3.30356 60.04306,60.038848 32.833513 0 0 5.31042,2.7845 60.04306,60.038848 32.833513 0 0 0.0055,0.003 60.04306,60.038848 32.833513 0 0 0.464734,0.18742 60.04306,60.038848 32.833513 0 0 5.100359,2.0538 60.04306,60.038848 32.833513 0 0 0.0019,6.2e-4 60.04306,60.038848 32.833513 0 0 0.205566,0.0604 60.04306,60.038848 32.833513 0 0 5.554026,1.61431 60.04306,60.038848 32.833513 0 0 0.0038,0.001 60.04306,60.038848 32.833513 0 0 0.393045,0.0728 60.04306,60.038848 32.833513 0 0 5.497825,1.01759 60.04306,60.038848 32.833513 0 0 0.01054,0.002 60.04306,60.038848 32.833513 0 0 1.068781,0.0891 60.04306,60.038848 32.833513 0 0 4.897248,0.40687 60.04306,60.038848 32.833513 0 0 0.01504,0.001 60.04306,60.038848 32.833513 0 0 1.316943,-0.0227 60.04306,60.038848 32.833513 0 0 4.672634,-0.0803 60.04306,60.038848 32.833513 0 0 0.01102,1.6e-4 60.04306,60.038848 32.833513 0 0 1.099973,-0.12941 60.04306,60.038848 32.833513 0 0 4.845577,-0.56989 60.04306,60.038848 32.833513 0 0 0.01542,-0.002 60.04306,60.038848 32.833513 0 0 1.52454,-0.33623 60.04306,60.038848 32.833513 0 0 4.315802,-0.95193 60.04306,60.038848 32.833513 0 0 0.0199,-0.004 60.04306,60.038848 32.833513 0 0 1.83337,-0.60183 60.04306,60.038848 32.833513 0 0 3.84918,-1.26281 60.04306,60.038848 32.833513 0 0 0.02,-0.007 60.04306,60.038848 32.833513 0 0 1.88396,-0.83474 60.04306,60.038848 32.833513 0 0 3.58113,-1.58696 60.04306,60.038848 32.833513 0 0 0.022,-0.01 60.04306,60.038848 32.833513 0 0 2.39623,-1.36262 60.04306,60.038848 32.833513 0 0 2.79957,-1.59185 60.04306,60.038848 32.833513 0 0 0.0211,-0.0117 60.04306,60.038848 32.833513 0 0 0.37186,-0.24813 60.04306,60.038848 32.833513 0 0 0.0598,-0.0412 60.04306,60.038848 32.833513 0 0 1.65512,-1.10213 48.034445,48.031077 32.833513 0 0 0.0953,-0.10762 48.034445,48.031077 32.833513 0 0 7.6e-4,-7e-4 60.04306,60.038848 32.833513 0 0 5.37695,-4.15806 z"
             style="opacity:1;vector-effect:none;fill:none;fill-opacity:1;stroke:none;stroke-width:0.32983831;stroke-linecap:butt;stroke-linejoin:miter;stroke-miterlimit:4;stroke-dasharray:none;stroke-dashoffset:0;stroke-opacity:0.70980392" />
          <path
             inkscape:connector-curvature="0"
             transform="matrix(0.26458333,0,0,0.26458333,25.743478,74.214849)"
             id="path13859"
             d="M 2.3710938,198.83984 A 226.9344,226.91848 16.63872 0 0 106.0332,419.16602 a 226.9344,226.91848 16.63872 0 0 22.2168,12.1914 186.52899,247.83871 32.228863 0 0 0.0859,-0.14258 226.9344,226.91848 16.63872 0 0 20.89062,8.83789 226.9344,226.91848 16.63872 0 0 21.66992,6.70899 226.9344,226.91848 16.63872 0 0 22.20899,4.50781 226.9344,226.91848 16.63872 0 0 0.0215,0.004 226.9344,226.91848 16.63872 0 0 1.88477,0.1914 226.9344,226.91848 16.63872 0 0 20.67773,2.07813 226.9344,226.91848 16.63872 0 0 0.008,0 226.9344,226.91848 16.63872 0 0 0.81054,0 226.9344,226.91848 16.63872 0 0 21.85938,0.004 226.9344,226.91848 16.63872 0 0 0.0156,0.002 226.9344,226.91848 16.63872 0 0 1.50391,-0.15039 226.9344,226.91848 16.63872 0 0 21.02734,-2.10156 226.9344,226.91848 16.63872 0 0 0.0391,-0.004 226.9344,226.91848 16.63872 0 0 3.97461,-0.80274 226.9344,226.91848 16.63872 0 0 18.20313,-3.68554 226.9344,226.91848 16.63872 0 0 0.0566,-0.0117 226.9344,226.91848 16.63872 0 0 4.75586,-1.4707 226.9344,226.91848 16.63872 0 0 16.875,-5.2168 226.9344,226.91848 16.63872 0 0 0.0391,-0.0117 226.9344,226.91848 16.63872 0 0 3.85547,-1.62891 226.9344,226.91848 16.63872 0 0 16.98633,-7.17773 226.9344,226.91848 16.63872 0 0 0.0547,-0.0215 226.9344,226.91848 16.63872 0 0 5.17968,-2.82812 226.9344,226.91848 16.63872 0 0 14.66016,-8.00391 226.9344,226.91848 16.63872 0 0 0.0684,-0.0371 226.9344,226.91848 16.63872 0 0 6.01953,-4.11718 226.9344,226.91848 16.63872 0 0 12.64063,-8.64258 226.9344,226.91848 16.63872 0 0 0.0645,-0.0449 226.9344,226.91848 16.63872 0 0 5.95898,-5.01563 226.9344,226.91848 16.63872 0 0 11.32422,-9.5332 226.9344,226.91848 16.63872 0 0 0.0703,-0.0606 226.9344,226.91848 16.63872 0 0 7.25977,-7.4707 226.9344,226.91848 16.63872 0 0 8.48438,-8.72852 226.9344,226.91848 16.63872 0 0 0.0645,-0.0645 226.9344,226.91848 16.63872 0 0 1.08789,-1.29297 226.9344,226.91848 16.63872 0 0 0.17383,-0.21289 226.9344,226.91848 16.63872 0 0 4.8457,-5.74609 181.54751,181.53478 16.63872 0 0 0.23242,-0.49024 181.54751,181.53478 16.63872 0 0 0.002,-0.002 226.9344,226.91848 16.63872 0 0 15.13282,-20.76172 h -0.002 A 226.9344,226.91848 16.63872 0 0 453.55664,235.17578 226.9344,226.91848 16.63872 0 0 348.05078,35.240234 226.9344,226.91848 16.63872 0 0 183.94531,4.6992188 c 2.48183,1.2993183 4.98211,2.5589539 7.375,4.0449218 3.53228,2.1935114 6.96307,4.5886774 10.27539,7.1796874 3.31232,2.59101 6.5072,5.377945 9.56836,8.355469 2.35249,2.288201 4.69872,4.84954 6.97852,7.595703 2.2798,2.746163 4.49297,5.67712 6.58008,8.707031 2.08711,3.029911 4.04784,6.15743 5.82226,9.296875 1.77442,3.139445 3.3614,6.290469 4.70313,9.365235 1.16782,2.676296 2.23116,5.383799 3.18945,8.115234 0.95829,2.731435 1.81307,5.488222 2.56055,8.263672 0.74748,2.775449 1.38843,5.568612 1.92383,8.376953 0.53539,2.808341 0.96507,5.63083 1.2871,8.460938 0.32204,2.830107 0.53714,5.669014 0.64454,8.509762 0.1074,2.84075 0.10656,5.68317 -0.002,8.52344 -0.10851,2.84027 -0.32469,5.67719 -0.65039,8.50586 -0.3257,2.82867 -0.76052,5.64914 -1.30469,8.45508 -0.62757,3.2369 -1.33577,6.28992 -2.15429,9.24219 -0.81852,2.95226 -1.74732,5.80319 -2.82031,8.63867 -1.073,2.83547 -2.29065,5.65448 -3.68165,8.54101 -1.391,2.88654 -2.95597,5.84183 -4.72851,8.94727 -5.25022,9.19844 -8.48895,15.09066 -10.80664,19.9707 -1.15885,2.44002 -2.08803,4.6279 -2.92188,6.84766 -0.83384,2.21976 -1.57258,4.47253 -2.35351,7.04492 -0.81587,2.6869 -1.52689,5.39123 -2.13477,8.10938 -0.60788,2.71814 -1.11433,5.44974 -1.51758,8.1875 -0.40325,2.73775 -0.70427,5.48277 -0.90625,8.22851 -0.20197,2.74574 -0.30453,5.49228 -0.30859,8.23438 -0.004,2.74209 0.0908,5.48021 0.28125,8.20703 0.19049,2.72682 0.47769,5.44265 0.85937,8.14258 0.38169,2.69992 0.85822,5.38352 1.42774,8.04492 0.56952,2.66139 1.23233,5.30087 1.98633,7.91211 0.754,2.61123 1.59808,5.19469 2.5332,7.74414 0.93512,2.54945 1.96134,5.06498 3.07422,7.54101 1.11288,2.47604 2.31232,4.91174 3.59961,7.30274 1.28728,2.39099 2.66081,4.73692 4.11914,7.03125 1.45833,2.29432 3.00289,4.53663 4.62891,6.72265 1.62601,2.18603 3.33466,4.31477 5.125,6.38086 1.79033,2.0661 3.66197,4.06937 5.61328,6.00391 1.9513,1.93454 3.98093,3.80044 6.08984,5.5918 3.17759,2.69916 6.39458,5.18898 9.66797,7.47656 3.27338,2.28757 6.60321,4.37381 10.00781,6.26953 3.4046,1.89572 6.88385,3.59943 10.45508,5.12305 3.57123,1.52361 7.23454,2.86586 11.00781,4.03711 3.40637,1.05733 6.9929,1.95953 10.67969,2.69726 3.68679,0.73773 7.47463,1.31144 11.2832,1.71289 3.80857,0.40146 7.63845,0.63119 11.41016,0.67969 3.77171,0.0485 7.48434,-0.0832 11.06055,-0.4043 2.96696,-0.26679 7.36483,-1.00119 11.85546,-1.92578 4.49064,-0.92459 9.07443,-2.04089 12.41211,-3.07226 3.58871,-1.10892 7.27959,-2.50622 10.97266,-4.13477 3.69307,-1.62855 7.38826,-3.48722 10.98438,-5.52148 3.59611,-2.03427 7.09473,-4.24231 10.39257,-6.56836 3.29785,-2.32606 6.3951,-4.76951 9.19336,-7.27344 2.12699,-1.90326 3.10787,-2.69913 2.84961,-2.21485 -0.25825,0.48429 -1.75569,2.24777 -4.58008,5.45899 -4.05031,4.60453 -8.12019,8.90058 -12.30664,12.96289 -4.18644,4.06231 -8.48888,7.89089 -13,11.56445 -4.51111,3.67357 -9.23155,7.1906 -14.25586,10.62891 -5.0243,3.43831 -10.35209,6.79775 -16.07812,10.1543 -5.70391,3.34374 -11.47162,6.41341 -17.30859,9.21093 -5.83698,2.79752 -11.74335,5.32381 -17.72657,7.58008 -5.98321,2.25627 -12.0429,4.2429 -18.18554,5.96289 -6.14265,1.72 -12.36833,3.17263 -18.6836,4.36133 -6.36637,1.19827 -12.73052,2.13156 -19.08203,2.80078 -6.35151,0.66923 -12.69046,1.07409 -19.00976,1.2168 -6.3193,0.14271 -12.61892,0.0239 -18.88868,-0.35742 -6.26975,-0.38129 -12.51003,-1.02498 -18.71289,-1.92774 -6.20286,-0.90275 -12.36769,-2.06462 -18.48633,-3.48633 -6.11863,-1.4217 -12.18997,-3.10289 -18.20703,-5.04101 -6.01705,-1.93812 -11.98076,-4.13392 -17.8789,-6.58594 -5.89815,-2.45202 -11.73225,-5.15965 -17.49414,-8.12305 -4.62832,-2.38046 -9.4774,-5.17085 -14.38477,-8.25 -4.90737,-3.07914 -9.871652,-6.44766 -14.732421,-9.98828 -4.860768,-3.54062 -9.616951,-7.25268 -14.105468,-11.01758 -4.488518,-3.76489 -8.709386,-7.58202 -12.5,-11.33398 -4.764348,-4.7158 -9.304383,-9.65128 -13.609375,-14.78125 -4.304992,-5.12997 -8.376331,-10.45427 -12.201172,-15.95312 -3.824842,-5.49886 -7.404621,-11.17168 -10.728516,-16.99415 -3.323895,-5.82246 -6.391206,-11.79568 -9.193359,-17.89648 -2.802153,-6.1008 -5.338041,-12.32825 -7.597657,-18.66211 -2.259615,-6.33386 -4.24317,-12.77327 -5.9394526,-19.29492 -1.6962826,-6.52165 -3.104643,-13.12686 -4.2167969,-19.79102 -0.3053098,-1.82945 -0.4076787,-3.69323 -0.6679687,-5.53125 z"
             style="opacity:1;vector-effect:none;fill:#ffffff;fill-opacity:1;stroke:none;stroke-width:1.24663293;stroke-linecap:butt;stroke-linejoin:miter;stroke-miterlimit:4;stroke-dasharray:none;stroke-dashoffset:0;stroke-opacity:1" />
          <path
             inkscape:connector-curvature="0"
             id="path13730-1-0"
             d="m 36.693157,99.746834 c 4.86724,-6.572647 12.527475,-10.884142 20.820022,-11.718308 8.88316,-0.893621 17.621168,2.182831 24.100627,8.485256 2.489712,2.42168 4.952577,5.997088 6.372568,9.251218 2.471895,5.66483 3.175139,11.84359 2.023326,17.78283 -0.664187,3.42572 -1.665297,6.07132 -3.54123,9.35791 -2.77824,4.86751 -3.428761,6.23724 -4.255253,8.95969 -3.453854,11.37454 0.193093,24.00402 9.12082,31.58743 3.362946,2.85662 6.891184,4.82114 10.884563,6.06071 3.60507,1.11901 7.9716,1.57918 11.75642,1.23932 1.57002,-0.14118 4.6545,-0.77623 6.42069,-1.322 3.79805,-1.1736 8.03005,-3.56766 10.99154,-6.21765 1.12553,-1.00714 1.03673,-0.84067 -0.45784,0.8586 -4.28658,4.87313 -8.66179,8.43611 -14.72184,11.98845 -6.03664,3.5388 -12.34097,5.91615 -19.024624,7.17419 -13.475491,2.53633 -26.898525,0.58276 -39.094523,-5.68976 -4.898305,-2.51932 -10.731912,-6.76856 -14.743646,-10.73938 -10.084535,-9.98178 -16.367898,-23.66182 -17.441534,-37.97342 -0.794022,-10.5843 1.32359,-21.56286 5.98126,-31.00904 0.768286,-1.55816 3.143694,-5.78644 3.652999,-6.50249 0.128685,-0.18089 0.648408,-0.88919 1.155655,-1.573556 z"
             style="opacity:0.76599995;vector-effect:none;fill:url(#radialGradient13780);fill-opacity:1;stroke:none;stroke-width:0.05079631;stroke-linecap:butt;stroke-linejoin:miter;stroke-miterlimit:4;stroke-dasharray:none;stroke-dashoffset:0;stroke-opacity:1" />
        </g>
      </g>
    </g>
  </g>
</svg>
