<?xml version="1.0" encoding="UTF-8" standalone="no"?>
<!-- Created with Inkscape (http://www.inkscape.org/) -->

<svg
   width="120mm"
   height="120mm"
   viewBox="0 0 120 120"
   version="1.1"
   id="svg5"
   inkscape:version="1.2.1 (9c6d41e410, 2022-07-14)"
   sodipodi:docname="logo.svg"
   xmlns:inkscape="http://www.inkscape.org/namespaces/inkscape"
   xmlns:sodipodi="http://sodipodi.sourceforge.net/DTD/sodipodi-0.dtd"
   xmlns="http://www.w3.org/2000/svg"
   xmlns:svg="http://www.w3.org/2000/svg">
  <sodipodi:namedview
     id="namedview7"
     pagecolor="#ffffff"
     bordercolor="#111111"
     borderopacity="1"
     inkscape:showpageshadow="0"
     inkscape:pageopacity="0"
     inkscape:pagecheckerboard="1"
     inkscape:deskcolor="#d1d1d1"
     inkscape:document-units="mm"
     showgrid="false"
     inkscape:zoom="1.1893044"
     inkscape:cx="208.52525"
     inkscape:cy="201.79863"
     inkscape:window-width="4500"
     inkscape:window-height="2980"
     inkscape:window-x="0"
     inkscape:window-y="20"
     inkscape:window-maximized="1"
     inkscape:current-layer="layer1">
    <inkscape:grid
       type="xygrid"
       id="grid686"
       dotted="true"
       originx="-49.845003"
       originy="-70.155001" />
  </sodipodi:namedview>
  <defs
     id="defs2">
    <clipPath
       clipPathUnits="userSpaceOnUse"
       id="clipPath1203">
      <g
         id="g1207">
        <circle
           style="fill:none;fill-opacity:1;stroke:#000000;stroke-width:0.0326491;stroke-dasharray:none;stroke-opacity:1;stop-color:#000000"
           id="circle1205"
           cx="109.845"
           cy="130.155"
           r="60" />
      </g>
    </clipPath>
    <clipPath
       clipPathUnits="userSpaceOnUse"
       id="clipPath1209">
      <g
         id="g1213">
        <circle
           style="fill:none;fill-opacity:1;stroke:#000000;stroke-width:0.0326491;stroke-dasharray:none;stroke-opacity:1;stop-color:#000000"
           id="circle1211"
           cx="109.845"
           cy="130.155"
           r="60" />
      </g>
    </clipPath>
    <clipPath
       clipPathUnits="userSpaceOnUse"
       id="clipPath1215">
      <g
         id="g1219">
        <circle
           style="fill:none;fill-opacity:1;stroke:#000000;stroke-width:0.0326491;stroke-dasharray:none;stroke-opacity:1;stop-color:#000000"
           id="circle1217"
           cx="109.845"
           cy="130.155"
           r="60" />
      </g>
    </clipPath>
    <clipPath
       clipPathUnits="userSpaceOnUse"
       id="clipPath1221">
      <g
         id="g1225">
        <circle
           style="fill:none;fill-opacity:1;stroke:#000000;stroke-width:0.0326491;stroke-dasharray:none;stroke-opacity:1;stop-color:#000000"
           id="circle1223"
           cx="109.845"
           cy="130.155"
           r="60" />
      </g>
    </clipPath>
  </defs>
  <g
     inkscape:label="Layer 1"
     inkscape:groupmode="layer"
     id="layer1"
     transform="translate(-49.845003,-70.155001)">
    <circle
       style="fill:#0f7fe0;fill-opacity:1;stroke:none;stroke-width:0.265714;stroke-dasharray:none;stroke-opacity:1;stop-color:#000000"
       id="path790-6"
       cx="109.845"
       cy="130.155"
       r="60"
       clip-path="url(#clipPath1221)"
       transform="rotate(-4.7995229,109.845,130.155)" />
    <circle
       style="fill:#d5f1fb;fill-opacity:0.273955;stroke:none;stroke-width:0.361471;stroke-dasharray:none;stroke-opacity:1;stop-color:#000000"
       id="path790-3"
       cx="112.49383"
       cy="65.565414"
       r="81.622452"
       clip-path="url(#clipPath1215)"
       transform="rotate(-4.7995229,109.845,130.155)" />
    <circle
       style="fill:#42ca13;fill-opacity:0.404165;stroke:none;stroke-width:0.361471;stroke-dasharray:none;stroke-opacity:1;stop-color:#000000"
       id="path790"
       cx="112.49383"
       cy="205.48953"
       r="81.622452"
       clip-path="url(#clipPath1209)"
       transform="rotate(-4.7995229,109.845,130.155)" />
    <path
       id="path995"
       style="fill:#f1765a;fill-opacity:1;stroke:none;stroke-width:0.361471;stroke-dasharray:none;stroke-opacity:1;stop-color:#000000"
       d="m 68.060686,129.97465 a 81.62245,81.62245 0 0 0 1.153912,0.72489 81.62245,81.62245 0 0 0 5.396576,2.85195 81.62245,81.62245 0 0 0 5.594818,2.44099 81.62245,81.62245 0 0 0 5.761127,2.01618 81.62245,81.62245 0 0 0 5.896101,1.57932 81.62245,81.62245 0 0 0 5.997332,1.13524 81.62245,81.62245 0 0 0 6.065428,0.68331 81.62245,81.62245 0 0 0 6.09976,0.22837 81.62245,81.62245 0 0 0 6.09977,-0.22837 81.62245,81.62245 0 0 0 6.06542,-0.68331 81.62245,81.62245 0 0 0 5.99733,-1.13524 81.62245,81.62245 0 0 0 5.8961,-1.57932 81.62245,81.62245 0 0 0 5.76114,-2.01618 81.62245,81.62245 0 0 0 5.59481,-2.44099 81.62245,81.62245 0 0 0 5.39657,-2.85195 81.62245,81.62245 0 0 0 1.19128,-0.74899 81.62245,81.62245 0 0 0 -42.00242,-11.63674 81.62245,81.62245 0 0 0 -41.965054,11.66084 z"
       clip-path="url(#clipPath1203)"
       transform="rotate(-4.7995229,109.845,130.155)" />
  </g>
</svg>
