<?xml version="1.0" encoding="UTF-8" standalone="no"?>
<svg
   xmlns:dc="http://purl.org/dc/elements/1.1/"
   xmlns:cc="http://creativecommons.org/ns#"
   xmlns:rdf="http://www.w3.org/1999/02/22-rdf-syntax-ns#"
   xmlns:svg="http://www.w3.org/2000/svg"
   xmlns="http://www.w3.org/2000/svg"
   xmlns:xlink="http://www.w3.org/1999/xlink"
   xmlns:sodipodi="http://sodipodi.sourceforge.net/DTD/sodipodi-0.dtd"
   xmlns:inkscape="http://www.inkscape.org/namespaces/inkscape"
   width="120.00001mm"
   height="120.00001mm"
   viewBox="0 0 120.00001 120.00001"
   version="1.1"
   id="svg8"
   inkscape:version="1.0.2 (e86c870879, 2021-01-15)"
   sodipodi:docname="logo.svg">
  <defs
     id="defs2">
    <linearGradient
       inkscape:collect="always"
       id="linearGradient1503">
      <stop
         style="stop-color:#00bbd6;stop-opacity:1"
         offset="0"
         id="stop1499" />
      <stop
         style="stop-color:#0070d0;stop-opacity:1"
         offset="1"
         id="stop1501" />
    </linearGradient>
    <radialGradient
       inkscape:collect="always"
       xlink:href="#linearGradient1503"
       id="radialGradient1505"
       cx="56.885452"
       cy="111.09241"
       fx="56.885452"
       fy="111.09241"
       r="43.93346"
       gradientTransform="matrix(1.8368213,0.12044734,-0.04363579,0.66523757,-42.755392,33.016282)"
       gradientUnits="userSpaceOnUse" />
    <clipPath
       clipPathUnits="userSpaceOnUse"
       id="clipPath1539">
      <circle
         style="mix-blend-mode:normal;fill:none;fill-opacity:0.954241;stroke:#0070d0;stroke-width:0.0899999;stroke-miterlimit:4;stroke-dasharray:none;stroke-opacity:1"
         id="circle1541"
         cx="96.019417"
         cy="137.46893"
         r="57.779518" />
    </clipPath>
  </defs>
  <sodipodi:namedview
     id="base"
     pagecolor="#ffffff"
     bordercolor="#666666"
     borderopacity="1.0"
     inkscape:pageopacity="0.0"
     inkscape:pageshadow="2"
     inkscape:zoom="1.4"
     inkscape:cx="263.86362"
     inkscape:cy="152.91831"
     inkscape:document-units="mm"
     inkscape:current-layer="layer1"
     inkscape:document-rotation="0"
     showgrid="false"
     fit-margin-top="0"
     fit-margin-left="0"
     fit-margin-right="0"
     fit-margin-bottom="0"
     inkscape:pagecheckerboard="true"
     inkscape:window-width="4500"
     inkscape:window-height="2980"
     inkscape:window-x="0"
     inkscape:window-y="20"
     inkscape:window-maximized="0">
    <inkscape:grid
       type="xygrid"
       id="grid1148"
       originx="-36.019419"
       originy="-77.468938" />
  </sodipodi:namedview>
  <metadata
     id="metadata5">
    <rdf:RDF>
      <cc:Work
         rdf:about="">
        <dc:format>image/svg+xml</dc:format>
        <dc:type
           rdf:resource="http://purl.org/dc/dcmitype/StillImage" />
        <dc:title></dc:title>
      </cc:Work>
    </rdf:RDF>
  </metadata>
  <g
     inkscape:label="Layer 1"
     inkscape:groupmode="layer"
     id="layer1"
     transform="translate(-36.019418,-77.468936)">
    <g
       id="g1528"
       clip-path="url(#clipPath1539)"
       transform="matrix(1.0384303,0,0,1.0384303,-3.6900511,-5.2829668)">
      <circle
         style="opacity:1;mix-blend-mode:normal;fill:#fa4700;fill-opacity:0.954241;stroke:none;stroke-width:0.489526"
         id="path833"
         cx="96.019417"
         cy="137.46893"
         r="57.779518" />
      <path
         id="path1226-9-4"
         style="opacity:0.848439;mix-blend-mode:normal;fill:#0058a4;fill-opacity:0.954241;stroke:none;stroke-width:0.553492"
         d="M 77.836656,93.376962 A 47.594583,47.594583 0 0 0 48.547682,137.31044 47.594583,47.594583 0 0 0 77.836656,181.24388 47.594583,47.594583 0 0 0 107.12565,137.31044 47.594583,47.594583 0 0 0 77.836656,93.376962 Z" />
      <circle
         style="opacity:0.539263;mix-blend-mode:normal;fill:#ffda3b;fill-opacity:0.954241;stroke:none;stroke-width:0.403674"
         id="path833-1"
         cx="80.390877"
         cy="136.99644"
         r="47.646" />
      <path
         id="path1226-5-2-78"
         style="opacity:0.848439;mix-blend-mode:normal;fill:#0058a4;fill-opacity:0.954241;stroke:none;stroke-width:0.553492"
         d="M 114.20215,93.376951 A 47.594583,47.594583 0 0 0 84.913167,137.31044 47.594583,47.594583 0 0 0 114.20215,181.24389 47.594583,47.594583 0 0 0 143.49114,137.31044 47.594583,47.594583 0 0 0 114.20215,93.376951 Z" />
      <circle
         style="opacity:0.539263;mix-blend-mode:normal;fill:#ffda3b;fill-opacity:0.954241;stroke:none;stroke-width:0.403674"
         id="path833-1-9"
         cx="111.64803"
         cy="136.99644"
         r="47.646" />
      <path
         id="path1226-5-2-7-4"
         style="opacity:0.848439;mix-blend-mode:normal;fill:url(#radialGradient1505);fill-opacity:1;stroke:none;stroke-width:0.553492"
         d="m 52.085949,119.12768 a 47.594583,47.594583 0 0 0 43.933472,29.289 47.594583,47.594583 0 0 0 43.933449,-29.289 A 47.594583,47.594583 0 0 0 96.019421,89.838689 47.594583,47.594583 0 0 0 52.085949,119.12768 Z" />
      <path
         id="path1226-9"
         style="opacity:0.813842;mix-blend-mode:normal;fill:#442100;fill-opacity:0.954241;stroke:none;stroke-width:0.459559"
         d="M 80.922435,100.53263 A 39.517356,39.517356 0 0 0 56.604061,137.01019 39.517356,39.517356 0 0 0 80.922435,173.48774 39.517356,39.517356 0 0 0 105.24082,137.01019 39.517356,39.517356 0 0 0 80.922435,100.53263 Z" />
      <circle
         style="opacity:0.539263;mix-blend-mode:normal;fill:#ffda3b;fill-opacity:0.954241;stroke:none;stroke-width:0.403674"
         id="path833-1-9-5"
         cx="95.773033"
         cy="71.908943"
         r="47.646" />
      <path
         id="path1226-5-2"
         style="opacity:0.813842;mix-blend-mode:normal;fill:#442100;fill-opacity:0.954241;stroke:none;stroke-width:0.459559"
         d="m 111.11638,100.53262 a 39.517356,39.517356 0 0 0 -24.318384,36.47757 39.517356,39.517356 0 0 0 24.318384,36.47756 39.517356,39.517356 0 0 0 24.31839,-36.47756 39.517356,39.517356 0 0 0 -24.31839,-36.47757 z" />
      <path
         id="path1226-5-2-7"
         style="opacity:0.626838;mix-blend-mode:normal;fill:#000000;fill-opacity:1;stroke:none;stroke-width:0.459559"
         d="M 59.54185,121.91322 A 39.517356,39.517356 0 0 0 96.019421,146.23161 39.517356,39.517356 0 0 0 132.49698,121.91322 39.517356,39.517356 0 0 0 96.019421,97.594829 39.517356,39.517356 0 0 0 59.54185,121.91322 Z" />
    </g>
  </g>
</svg>
