<?xml version="1.0" encoding="UTF-8" standalone="no"?>
<!-- Created with Inkscape (http://www.inkscape.org/) -->

<svg
   width="800mm"
   height="436.95087mm"
   viewBox="0 0 800.00002 436.95087"
   version="1.1"
   id="svg15185"
   inkscape:version="1.4.2 (ebf0e940, 2025-05-08)"
   sodipodi:docname="logo2.svg"
   xmlns:inkscape="http://www.inkscape.org/namespaces/inkscape"
   xmlns:sodipodi="http://sodipodi.sourceforge.net/DTD/sodipodi-0.dtd"
   xmlns="http://www.w3.org/2000/svg"
   xmlns:svg="http://www.w3.org/2000/svg">
  <sodipodi:namedview
     id="namedview15187"
     pagecolor="#000000"
     bordercolor="#111111"
     borderopacity="1"
     inkscape:showpageshadow="0"
     inkscape:pageopacity="0"
     inkscape:pagecheckerboard="1"
     inkscape:deskcolor="#d1d1d1"
     inkscape:document-units="mm"
     showgrid="false"
     inkscape:zoom="0.4204826"
     inkscape:cx="-425.70133"
     inkscape:cy="1531.5735"
     inkscape:window-width="3840"
     inkscape:window-height="2107"
     inkscape:window-x="0"
     inkscape:window-y="25"
     inkscape:window-maximized="0"
     inkscape:current-layer="layer1" />
  <defs
     id="defs15182" />
  <g
     inkscape:label="Layer 1"
     inkscape:groupmode="layer"
     id="layer1"
     transform="translate(380.87178,777.60208)">
    <path
       style="font-size:174.528px;line-height:1.25;font-family:'Concert One';-inkscape-font-specification:'Concert One';fill:#333333;fill-opacity:1;stroke-width:3.54684"
       d="m -270.13111,-392.32983 q 0,1.38549 0.90057,2.56314 0.90056,1.17767 2.4246,2.28606 1.59331,1.03911 3.60226,2.07823 2.07822,1.03911 4.295,2.07823 3.39444,1.66258 6.92743,3.60225 3.53299,1.87041 6.44251,4.43356 2.90952,2.56315 4.71065,5.95759 1.8704,3.32517 1.8704,7.89726 0,4.15646 -1.24693,7.34308 -1.17766,3.18661 -3.18662,5.54194 -2.00895,2.28605 -4.71065,3.81008 -2.63242,1.52404 -5.61122,2.42461 -2.90952,0.90056 -5.95758,1.24694 -3.04807,0.41564 -5.74977,0.41564 -5.33412,0 -9.28275,-0.90057 -3.94864,-0.90056 -6.78888,-2.35532 -2.84025,-1.52404 -4.71065,-3.39444 -1.80113,-1.93968 -2.84024,-4.01791 -1.03912,-2.07823 -1.45477,-4.08719 -0.41564,-2.07822 -0.41564,-3.81008 0,-4.15645 2.28605,-6.09614 2.35533,-1.93967 7.13525,-1.93967 3.46371,0 5.68049,1.8704 2.21678,1.87041 2.35533,6.02687 0.0693,1.38548 0.76201,2.21677 0.76202,0.83129 1.87041,1.38549 1.17766,0.48491 2.56314,0.69274 1.38549,0.13855 2.7017,0.13855 2.7017,0 4.36429,-1.38549 1.73185,-1.45476 1.73185,-3.74081 0,-1.93968 -1.17766,-3.60226 -1.10839,-1.73186 -2.9788,-3.18662 -1.87041,-1.45475 -4.295,-2.77097 -2.35533,-1.38548 -4.8492,-2.77097 -3.11734,-1.66258 -6.30396,-3.53299 -3.11735,-1.8704 -5.68049,-4.15645 -2.56315,-2.28606 -4.15645,-5.1263 -1.59332,-2.90952 -1.59332,-6.58106 0,-5.40339 1.73186,-9.00566 1.80113,-3.67153 5.19557,-5.88831 3.39444,-2.28605 8.24364,-3.25589 4.91847,-0.96983 11.15316,-1.10838 h 1.10839 q 5.61121,0 9.49057,0.96983 3.94864,0.96984 6.51178,2.56315 2.63242,1.52404 4.08719,3.46371 1.52403,1.93969 2.21678,3.94864 0.76201,1.93968 0.90056,3.74081 0.20782,1.80113 0.20782,3.04807 0,2.07823 -0.90057,3.46372 -0.83128,1.3162 -2.28605,2.1475 -1.38548,0.76201 -3.18661,1.10839 -1.80114,0.27709 -3.74081,0.34636 -1.66258,0 -3.04807,-0.55419 -1.31621,-0.55419 -2.28605,-1.38548 -0.96984,-0.8313 -1.52404,-1.87041 -0.48492,-1.03911 -0.48492,-2.00895 -0.13855,-2.63243 -2.1475,-4.01791 -1.93967,-1.38549 -4.77992,-1.38549 -1.17766,0 -2.28605,0.2771 -1.03912,0.20782 -1.93969,0.83129 -0.83128,0.55419 -1.38548,1.52404 -0.48492,0.96984 -0.48492,2.49387 z m 41.70312,7.89727 q 0,-6.37324 1.73185,-10.80679 1.73186,-4.43356 4.43355,-7.41235 2.77097,-2.97879 6.09614,-4.64138 3.39444,-1.66258 6.65033,-2.49386 3.2559,-0.8313 6.02687,-1.03913 2.84024,-0.20781 4.43355,-0.20781 1.59331,0 4.36428,0.20781 2.77097,0.20783 5.88831,1.03913 3.18662,0.83128 6.37324,2.49386 3.25589,1.66259 5.81903,4.64138 2.63242,2.97879 4.29501,7.41235 1.66258,4.43355 1.66258,10.80679 v 17.18002 q 0,6.37323 -1.66258,10.80678 -1.66259,4.43355 -4.29501,7.41235 -2.56314,2.9788 -5.81903,4.64138 -3.18662,1.66258 -6.37324,2.49387 -3.11734,0.8313 -5.88831,1.03911 -2.77097,0.20783 -4.36428,0.20783 -1.59331,0 -4.43355,-0.20783 -2.77097,-0.20781 -6.02687,-1.03911 -3.25589,-0.83129 -6.65033,-2.49387 -3.32517,-1.66258 -6.09614,-4.64138 -2.70169,-2.9788 -4.43355,-7.41235 -1.73185,-4.43355 -1.73185,-10.80678 z m 21.33647,22.02922 q 0.0693,2.00895 0.96984,3.53299 0.76202,1.38548 2.35533,2.49387 1.66258,1.03911 4.71065,1.03911 2.90952,0 4.43356,-1.03911 1.5933,-1.10839 2.35532,-2.49387 0.83129,-1.52404 0.96984,-3.53299 v -25.07729 q -0.13855,-2.07823 -0.96984,-3.81009 -0.76202,-1.38548 -2.35532,-2.56314 -1.52404,-1.24694 -4.43356,-1.24694 -3.04807,0 -4.71065,1.24694 -1.59331,1.17766 -2.35533,2.56314 -0.90056,1.73186 -0.96984,3.81009 z m 50.01602,-32.28182 q 0,-2.97879 0.34637,-5.81903 0.34638,-2.84025 1.45477,-5.05703 1.17766,-2.21677 3.25589,-3.53299 2.1475,-1.38548 5.74976,-1.38548 3.53299,0 5.61121,1.38548 2.07824,1.31622 3.18663,3.53299 1.10838,2.21678 1.38548,5.05703 0.34637,2.84024 0.34637,5.81903 v 27.01697 q 0,2.00896 0.13855,3.87936 0.20782,1.80113 0.83129,3.25589 0.62347,1.38549 1.80113,2.28606 1.24694,0.83128 3.32517,0.83128 2.77097,0 4.50282,-1.87041 1.80113,-1.8704 2.77097,-5.12629 1.03912,-3.25589 1.38549,-7.62017 0.34637,-4.43356 0.34637,-9.49057 v -13.16212 q 0,-2.97879 0.34638,-5.81903 0.34636,-2.84025 1.45475,-5.05703 1.17767,-2.21677 3.25589,-3.53299 2.1475,-1.38548 5.74977,-1.38548 3.53298,0 5.61122,1.38548 2.07822,1.31622 3.18661,3.53299 1.108387,2.21678 1.385477,5.05703 0.34638,2.84024 0.34638,5.81903 v 37.82376 q 0,2.97879 -0.20783,5.81904 -0.20781,2.77097 -1.246927,4.98775 -1.03912,2.1475 -3.18662,3.53298 -2.07823,1.31622 -5.88831,1.31622 -3.81008,0 -5.95758,-1.24694 -2.14751,-1.31622 -3.2559,-3.11734 -1.03912,-1.80114 -1.31621,-3.81009 -0.2771,-2.00896 -0.2771,-3.46371 -0.55419,2.00895 -1.73186,4.08717 -1.17765,2.07824 -3.04806,3.74082 -1.80114,1.66258 -4.36428,2.77097 -2.56315,1.03912 -5.95759,1.03912 -3.81009,0 -7.62017,-1.24694 -3.81009,-1.24694 -6.85815,-4.15646 -3.04807,-2.90952 -4.98775,-7.62017 -1.87041,-4.71065 -1.87041,-11.63808 z m 133.283655,37.68521 q 0,2.97879 -0.34636,5.81904 -0.34637,2.84025 -1.52404,5.05702 -1.108377,2.21678 -3.255887,3.60226 -2.07823,1.31622 -5.680487,1.31622 -3.532987,0 -5.611217,-1.31622 -2.078217,-1.38548 -3.186607,-3.60226 -1.10839,-2.21677 -1.45477,-5.05702 -0.27709,-2.84025 -0.27709,-5.81904 v -27.01697 q 0,-1.93967 -0.20782,-3.81008 -0.13855,-1.87041 -0.76202,-3.25589 -0.62347,-1.45477 -1.870397,-2.28605 -1.17767,-0.90057 -3.25589,-0.90057 -2.840247,0 -4.572107,1.8704 -1.73186,1.87041 -2.770967,5.1263 -0.96984,3.25589 -1.31621,7.68945 -0.34637,4.36427 -0.34637,9.4213 v 13.16211 q 0,2.97879 -0.34637,5.81904 -0.34638,2.84025 -1.52403,5.05702 -1.108387,2.21678 -3.255897,3.60226 -2.07823,1.31622 -5.680487,1.31622 -3.532987,0 -5.611207,-1.31622 -2.07823,-1.38548 -3.186617,-3.60226 -1.10839,-2.21677 -1.45476,-5.05702 -0.27709,-2.84025 -0.27709,-5.81904 v -37.82375 q 0,-2.9788 0.20781,-5.74977 0.20783,-2.84025 1.24694,-4.98775 1.03911,-2.21677 3.117337,-3.53299 2.14751,-1.38548 5.957587,-1.38548 3.810087,0 5.957587,1.31621 2.147497,1.24694 3.186617,3.04807 1.10838,1.80113 1.38548,3.81008 0.2771,2.00895 0.2771,3.46372 0.55419,-2.00896 1.73186,-4.08719 1.177657,-2.07822 2.978787,-3.74081 1.8704,-1.66258 4.433557,-2.70169 2.56314,-1.10839 5.957577,-1.10839 3.810087,0 7.620167,1.24694 3.810077,1.24693 6.858154,4.15645 3.04806,2.90952 4.918467,7.62017 1.93967,4.71065 1.93967,11.63808 z m 71.075414,0.13855 q 0,2.90952 -0.207823,5.74977 -0.207824,2.77097 -1.246938,4.98774 -1.039114,2.21678 -3.117341,3.60226 -2.078229,1.31622 -5.819039,1.31622 -3.810086,0 -5.957589,-1.24694 -2.147503,-1.31622 -3.186617,-3.11734 -1.039113,-1.87041 -1.31621,-3.87936 -0.207822,-2.00896 -0.207822,-3.39444 -0.62347,2.00895 -1.801133,4.08717 -1.108388,2.07824 -2.909518,3.74082 -1.801133,1.66258 -4.364281,2.77097 -2.493874,1.03912 -5.888313,1.03912 -3.8100852,0 -7.6201699,-1.24694 -3.81008473,-1.24694 -6.8581527,-4.15646 -3.0480637,-2.90952 -4.9877477,-7.5509 -1.8704057,-4.71064 -1.8704057,-11.5688 v -20.08954 q 0,-6.92743 1.8704057,-11.5688 1.939684,-4.71065 4.9877477,-7.5509 3.04806797,-2.90952 6.8581527,-4.15646 3.8100847,-1.24693 7.6201699,-1.24693 3.394439,0 5.888313,1.03911 2.563148,1.03912 4.364281,2.7017 1.80113,1.66258 2.909518,3.74081 1.177663,2.07822 1.801133,4.15646 v -23.69181 q 0,-2.97879 0.277097,-5.81903 0.34637,-2.90953 1.385484,-5.05703 1.108389,-2.21677 3.186616,-3.53299 2.147503,-1.38548 5.819041,-1.38548 3.463713,0 5.541942,1.38548 2.078227,1.31622 3.117341,3.53299 1.108389,2.1475 1.385486,5.05703 0.346372,2.84024 0.346372,5.81903 z m -36.022624,-10.66824 q 0,1.87041 0.138548,3.67154 0.138549,1.80112 0.762017,3.25589 0.623469,1.45476 1.801132,2.35533 1.246936,0.83128 3.394439,0.83128 2.701697,0 4.364281,-1.17766 1.731856,-1.24694 2.701695,-3.74081 0.96984,-2.56314 1.316211,-6.37324 0.415647,-3.87936 0.484922,-9.21347 0,-2.1475 -0.415647,-4.91847 -0.346372,-2.84025 -1.316211,-5.33412 -0.969841,-2.49388 -2.701697,-4.22574 -1.731857,-1.73185 -4.433554,-1.73185 -2.147503,0 -3.394439,0.90057 -1.177663,0.83128 -1.801132,2.21677 -0.623468,1.38548 -0.762017,3.18662 -0.138548,1.73186 -0.138548,3.53299 z m 110.561755,10.52969 q 0,2.97879 -0.34637,5.81904 -0.34637,2.84025 -1.52404,5.05702 -1.10838,2.21678 -3.25589,3.60226 -2.07823,1.31622 -5.68049,1.31622 -3.53299,0 -5.61122,-1.31622 -2.07823,-1.38548 -3.18662,-3.60226 -1.10839,-2.21677 -1.45476,-5.05702 -0.2771,-2.84025 -0.2771,-5.81904 v -27.01697 q 0,-1.93967 -0.20782,-3.81008 -0.13855,-1.87041 -0.762016,-3.25589 -0.623468,-1.45477 -1.870405,-2.28605 -1.177663,-0.90057 -3.255891,-0.90057 -2.840246,0 -4.572103,1.8704 -1.731856,1.87041 -2.770971,5.1263 -0.96984,3.25589 -1.316211,7.68945 -0.346372,4.36427 -0.346372,9.4213 v 13.16211 q 0,2.97879 -0.346371,5.81904 -0.346371,2.84025 -1.524034,5.05702 -1.108389,2.21678 -3.255891,3.60226 -2.078229,1.31622 -5.680491,1.31622 -3.532989,0 -5.611216,-1.31622 -2.078229,-1.38548 -3.186618,-3.60226 -1.108388,-2.21677 -1.45476,-5.05702 -0.277096,-2.84025 -0.277096,-5.81904 v -37.82375 q 0,-2.9788 0.207823,-5.74977 0.207822,-2.84025 1.246936,-4.98775 1.039114,-2.21677 3.117344,-3.53299 2.147501,-1.38548 5.957587,-1.38548 3.810085,0 5.957588,1.31621 2.147502,1.24694 3.186616,3.04807 1.108389,1.80113 1.385486,3.81008 0.277097,2.00895 0.277097,3.46372 0.554194,-2.00896 1.731857,-4.08719 1.177663,-2.07822 2.978794,-3.74081 1.870406,-1.66258 4.433554,-2.70169 2.563149,-1.10839 5.957584,-1.10839 3.81009,0 7.62018,1.24694 3.81009,1.24693 6.85815,4.15645 3.04807,2.90952 4.91848,7.62017 1.93968,4.71065 1.93968,11.63808 z m 72.87659,-23.6918 q 0,1.10839 -0.13855,2.63242 -0.13855,1.45476 -1.10839,2.84024 -0.90056,1.31622 -2.90952,2.28606 -2.00896,0.96983 -5.68049,0.96983 h -27.57119 v 6.65033 q 0,1.66259 0.41565,3.46372 0.41565,1.80113 1.38549,3.32516 1.03911,1.52404 2.7017,2.49388 1.66258,0.96984 4.08718,0.96984 2.77097,0 4.22573,-0.62347 1.52404,-0.69274 2.35533,-1.66258 0.90056,-0.96984 1.59331,-2.07823 0.69275,-1.10839 1.80114,-2.07823 1.17766,-0.96984 3.18661,-1.59331 2.07823,-0.69274 5.6805,-0.69274 1.73186,0 3.32516,0.2771 1.66259,0.2771 2.90953,1.03911 1.24693,0.76202 2.00895,2.1475 0.76202,1.31622 0.76202,3.46372 0,4.50283 -2.84025,7.55089 -2.84025,2.9788 -7.13525,4.77993 -4.29501,1.80113 -9.35203,2.56315 -4.98775,0.76202 -9.35204,0.76202 -5.74976,-0.0693 -10.94534,-1.45477 -5.19557,-1.38548 -9.21348,-4.43355 -3.94864,-3.04807 -6.30397,-7.96654 -2.35533,-4.91847 -2.35533,-12.05372 v -16.21018 q 0,-6.58106 1.52404,-11.15316 1.59331,-4.57211 4.08718,-7.62017 2.49388,-3.04807 5.61122,-4.71066 3.11735,-1.73185 6.30397,-2.56314 3.18661,-0.8313 6.02686,-1.03911 2.90953,-0.20783 4.98775,-0.20783 6.99671,0 11.91518,1.24694 4.98775,1.24694 8.31292,3.25589 3.32517,2.00895 5.26485,4.64138 1.93968,2.63242 2.90953,5.47266 0.96983,2.77098 1.24693,5.68049 0.2771,2.84025 0.2771,5.33412 z m -37.40814,-1.66259 h 17.31859 q 0,-3.25589 -0.20782,-5.74976 -0.13855,-2.56315 -1.03913,-4.29501 -0.83128,-1.73185 -2.70169,-2.63242 -1.80113,-0.90056 -5.19557,-0.90056 -2.84025,0 -4.50283,0.90056 -1.59331,0.90057 -2.4246,2.28605 -0.8313,1.31621 -1.03912,2.84025 -0.20783,1.52403 -0.20783,2.7017 z m 69.96702,-9.97549 q 0,1.38549 0.90057,2.56314 0.90056,1.17767 2.4246,2.28606 1.5933,1.03911 3.60226,2.07823 2.07823,1.03911 4.29501,2.07823 3.39444,1.66258 6.92742,3.60225 3.53299,1.87041 6.44251,4.43356 2.90952,2.56315 4.71065,5.95759 1.87041,3.32517 1.87041,7.89726 0,4.15646 -1.24694,7.34308 -1.17767,3.18661 -3.18662,5.54194 -2.00895,2.28605 -4.71065,3.81008 -2.63242,1.52404 -5.61121,2.42461 -2.90952,0.90056 -5.95759,1.24694 -3.04807,0.41564 -5.74976,0.41564 -5.33413,0 -9.28276,-0.90057 -3.94863,-0.90056 -6.78888,-2.35532 -2.84024,-1.52404 -4.71065,-3.39444 -1.80113,-1.93968 -2.84025,-4.01791 -1.03911,-2.07823 -1.45475,-4.08719 -0.41565,-2.07822 -0.41565,-3.81008 0,-4.15645 2.28605,-6.09614 2.35532,-1.93967 7.13525,-1.93967 3.46371,0 5.68049,1.8704 2.21677,1.87041 2.35533,6.02687 0.0693,1.38548 0.76202,2.21677 0.76201,0.83129 1.8704,1.38549 1.17766,0.48491 2.56315,0.69274 1.38548,0.13855 2.70169,0.13855 2.7017,0 4.36428,-1.38549 1.73186,-1.45476 1.73186,-3.74081 0,-1.93968 -1.17766,-3.60226 -1.10839,-1.73186 -2.9788,-3.18662 -1.8704,-1.45475 -4.295,-2.77097 -2.35533,-1.38548 -4.8492,-2.77097 -3.11734,-1.66258 -6.30396,-3.53299 -3.11734,-1.8704 -5.68049,-4.15645 -2.56315,-2.28606 -4.15646,-5.1263 -1.5933,-2.90952 -1.5933,-6.58106 0,-5.40339 1.73185,-9.00566 1.80114,-3.67153 5.19557,-5.88831 3.39444,-2.28605 8.24364,-3.25589 4.91848,-0.96983 11.15316,-1.10838 h 1.10838 q 5.61122,0 9.49058,0.96983 3.94864,0.96984 6.51179,2.56315 2.63242,1.52404 4.08718,3.46371 1.52403,1.93969 2.21677,3.94864 0.76202,1.93968 0.90057,3.74081 0.20782,1.80113 0.20782,3.04807 0,2.07823 -0.90056,3.46372 -0.8313,1.3162 -2.28605,2.1475 -1.38549,0.76201 -3.18662,1.10839 -1.80113,0.27709 -3.74081,0.34636 -1.66259,0 -3.04807,-0.55419 -1.31621,-0.55419 -2.28605,-1.38548 -0.96984,-0.8313 -1.52403,-1.87041 -0.48492,-1.03911 -0.48492,-2.00895 -0.13855,-2.63243 -2.1475,-4.01791 -1.93969,-1.38549 -4.77993,-1.38549 -1.17767,0 -2.28606,0.2771 -1.03911,0.20782 -1.93967,0.83129 -0.8313,0.55419 -1.38549,1.52404 -0.48492,0.96984 -0.48492,2.49387 z m 63.0396,0 q 0,1.38549 0.90057,2.56314 0.90056,1.17767 2.42459,2.28606 1.59332,1.03911 3.60227,2.07823 2.07822,1.03911 4.295,2.07823 3.39444,1.66258 6.92743,3.60225 3.53299,1.87041 6.44251,4.43356 2.90952,2.56315 4.71065,5.95759 1.8704,3.32517 1.8704,7.89726 0,4.15646 -1.24694,7.34308 -1.17765,3.18661 -3.18661,5.54194 -2.00895,2.28605 -4.71065,3.81008 -2.63243,1.52404 -5.61121,2.42461 -2.90953,0.90056 -5.95759,1.24694 -3.04807,0.41564 -5.74977,0.41564 -5.33411,0 -9.28275,-0.90057 -3.94863,-0.90056 -6.78888,-2.35532 -2.84025,-1.52404 -4.71065,-3.39444 -1.80113,-1.93968 -2.84024,-4.01791 -1.03912,-2.07823 -1.45477,-4.08719 -0.41564,-2.07822 -0.41564,-3.81008 0,-4.15645 2.28605,-6.09614 2.35533,-1.93967 7.13525,-1.93967 3.46372,0 5.68049,1.8704 2.21678,1.87041 2.35532,6.02687 0.0693,1.38548 0.76202,2.21677 0.76202,0.83129 1.87041,1.38549 1.17766,0.48491 2.56315,0.69274 1.38549,0.13855 2.70169,0.13855 2.7017,0 4.36428,-1.38549 1.73186,-1.45476 1.73186,-3.74081 0,-1.93968 -1.17767,-3.60226 -1.10838,-1.73186 -2.97878,-3.18662 -1.87041,-1.45475 -4.29502,-2.77097 -2.35532,-1.38548 -4.84919,-2.77097 -3.11734,-1.66258 -6.30396,-3.53299 -3.11734,-1.8704 -5.68049,-4.15645 -2.56315,-2.28606 -4.15646,-5.1263 -1.59331,-2.90952 -1.59331,-6.58106 0,-5.40339 1.73186,-9.00566 1.80113,-3.67153 5.19557,-5.88831 3.39444,-2.28605 8.24364,-3.25589 4.91847,-0.96983 11.15316,-1.10838 h 1.10839 q 5.61122,0 9.49058,0.96983 3.94862,0.96984 6.51178,2.56315 2.63242,1.52404 4.08717,3.46371 1.52404,1.93969 2.21678,3.94864 0.76202,1.93968 0.90057,3.74081 0.20782,1.80113 0.20782,3.04807 0,2.07823 -0.90056,3.46372 -0.83129,1.3162 -2.28606,2.1475 -1.38548,0.76201 -3.18661,1.10839 -1.80113,0.27709 -3.74081,0.34636 -1.66258,0 -3.04807,-0.55419 -1.31621,-0.55419 -2.28605,-1.38548 -0.96984,-0.8313 -1.52404,-1.87041 -0.48492,-1.03911 -0.48492,-2.00895 -0.13855,-2.63243 -2.1475,-4.01791 -1.93968,-1.38549 -4.77993,-1.38549 -1.17765,0 -2.28604,0.2771 -1.03912,0.20782 -1.93968,0.83129 -0.83129,0.55419 -1.38549,1.52404 -0.48492,0.96984 -0.48492,2.49387 z"
       id="text5670-6-1-6"
       aria-label="soundness" />
    <g
       id="g1"
       transform="matrix(1.3486774,0,0,1.352344,848.40333,-166.78883)">
      <path
         style="color:#000000;mix-blend-mode:normal;fill:#abe41d;fill-opacity:1;fill-rule:evenodd;stroke-width:1.18769;stroke-linecap:round;-inkscape-stroke:none"
         d="m -632.38352,-343.8227 a 2.9692235,2.9692235 0 0 1 3.34573,-2.5355 2.9692235,2.9692235 0 0 1 2.53547,3.3458 c -0.63325,4.5938 2.30561,8.856 6.8245,9.8974 4.51974,1.0416 9.02808,-1.5056 10.46849,-5.9145 a 2.9692235,2.9692235 0 0 1 3.74407,-1.8985 2.9692235,2.9692235 0 0 1 1.9008,3.7446 c -2.37884,7.2812 -9.98267,11.5754 -17.44698,9.8551 -7.46294,-1.7199 -12.4179,-8.9076 -11.37208,-16.4944 z"
         id="path1973-3-8" />
      <path
         style="color:#000000;mix-blend-mode:normal;fill:#abe41d;fill-opacity:1;fill-rule:evenodd;stroke-width:1.18769;stroke-linecap:round;-inkscape-stroke:none"
         d="m -644.35912,-343.2784 a 2.9692235,2.9692235 0 0 1 3.13039,-2.7994 2.9692235,2.9692235 0 0 1 2.79986,3.1282 c -0.56255,10.1189 6.20813,19.1322 16.08381,21.4081 9.87631,2.2761 19.90881,-2.8639 23.83129,-12.2093 a 2.9692235,2.9692235 0 0 1 3.88934,-1.5889 2.9692235,2.9692235 0 0 1 1.58717,3.8865 c -5.02552,11.9734 -17.98779,18.6146 -30.64141,15.6985 -12.65284,-2.916 -21.40121,-14.5592 -20.68045,-27.5237 z"
         id="path3533-58-6" />
      <path
         style="color:#000000;mix-blend-mode:normal;fill:#abe41d;fill-opacity:1;fill-rule:evenodd;stroke-width:1.18769;stroke-linecap:round;-inkscape-stroke:none"
         d="m -629.8915,-362.3829 a 2.9692235,2.9692235 0 0 1 1.53429,-3.9099 c 5.25051,-2.2889 11.09966,-2.8291 16.68108,-1.5428 5.57784,1.2855 10.59682,4.3297 14.3153,8.6814 a 2.9692235,2.9692235 0 0 1 -0.32895,4.1853 2.9692235,2.9692235 0 0 1 -4.1853,-0.3289 c -2.89263,-3.3852 -6.79564,-5.7511 -11.13466,-6.751 -4.34181,-1.0006 -8.88973,-0.5809 -12.97413,1.1997 a 2.9692235,2.9692235 0 0 1 -3.90763,-1.5338 z"
         id="path3529-50-5" />
      <path
         style="color:#000000;mix-blend-mode:normal;fill:#abe41d;fill-opacity:1;fill-rule:evenodd;stroke-width:1.18769;stroke-linecap:round;-inkscape-stroke:none"
         d="m -656.26303,-340.7418 a 2.9692235,2.9692235 0 0 1 2.88828,-3.0504 2.9692235,2.9692235 0 0 1 3.04809,2.8878 c 0.40626,14.8894 10.79991,27.5914 25.31437,30.9364 14.51446,3.345 29.41911,-3.5268 36.30108,-16.7365 a 2.9692235,2.9692235 0 0 1 4.00454,-1.2624 2.9692235,2.9692235 0 0 1 1.2619,4.0068 c -8.11835,15.5828 -25.77912,23.7248 -42.90113,19.7789 -17.12202,-3.9459 -29.43788,-18.9963 -29.91713,-36.5606 z"
         id="path3525-9-7" />
      <path
         style="color:#000000;mix-blend-mode:normal;fill:#abe41d;fill-opacity:1;fill-rule:evenodd;stroke-width:1.18769;stroke-linecap:round;-inkscape-stroke:none"
         d="m -641.90208,-370.7974 a 2.9692235,2.9692235 0 0 1 1.16364,-1.9505 c 9.08489,-6.7685 20.6899,-9.2054 31.72955,-6.6612 11.03739,2.5437 20.40389,9.8097 25.6107,19.8687 a 2.9692235,2.9692235 0 0 1 -1.27259,4.0035 2.9692235,2.9692235 0 0 1 -4.00129,-1.2721 c -4.40733,-8.5145 -12.32776,-14.6602 -21.67044,-16.8134 -9.34459,-2.1535 -19.15902,-0.093 -26.84898,5.6364 a 2.9692235,2.9692235 0 0 1 -4.15444,-0.6075 2.9692235,2.9692235 0 0 1 -0.55615,-2.2039 z"
         id="path3521-9-6" />
      <path
         style="color:#000000;mix-blend-mode:normal;fill:#abe41d;fill-opacity:1;fill-rule:evenodd;stroke-width:1.18769;stroke-linecap:round;-inkscape-stroke:none"
         d="m -667.82797,-336.0608 a 2.9692235,2.9692235 0 0 1 2.61438,-3.2873 2.9692235,2.9692235 0 0 1 3.2855,2.6116 c 2.14443,18.7545 15.85401,34.1028 34.24857,38.3421 18.39508,4.2393 37.43909,-3.5599 47.57535,-19.4849 a 2.9692235,2.9692235 0 0 1 4.09992,-0.912 2.9692235,2.9692235 0 0 1 0.90967,4.0994 c -11.47565,18.0294 -33.09279,26.8837 -53.91856,22.0842 -20.82519,-4.7994 -36.38705,-22.2204 -38.81483,-43.4531 z"
         id="path3517-8-2" />
      <path
         style="color:#000000;mix-blend-mode:normal;fill:#abe41d;fill-opacity:1;fill-rule:evenodd;stroke-width:1.18769;stroke-linecap:round;-inkscape-stroke:none"
         d="m -651.17609,-378.4432 a 2.9692235,2.9692235 0 0 1 1.04766,-2.0153 c 12.13315,-10.1835 28.351,-14.0815 43.78677,-10.5241 15.4114,3.5517 28.27167,14.1257 34.73409,28.5605 a 2.9692235,2.9692235 0 0 1 -1.4969,3.9233 2.9692235,2.9692235 0 0 1 -3.9238,-1.4947 c -5.70411,-12.7409 -17.04403,-22.0674 -30.64701,-25.2024 -13.62451,-3.1399 -27.92612,0.297 -38.63555,9.2856 a 2.9692235,2.9692235 0 0 1 -4.18201,-0.3639 2.9692235,2.9692235 0 0 1 -0.68325,-2.169 z"
         id="path3513-0-7" />
      <path
         style="color:#000000;mix-blend-mode:normal;fill:#abe41d;fill-opacity:1;fill-rule:evenodd;stroke-width:1.18769;stroke-linecap:round;-inkscape-stroke:none"
         d="m -678.309,-331.3728 a 2.9692235,2.9692235 0 0 1 1.88002,-1.2784 2.9692235,2.9692235 0 0 1 3.51058,2.3064 c 4.47378,21.5845 21.09144,38.5736 42.57165,43.5239 21.48865,4.9523 43.87372,-3.0599 57.34111,-20.5218 a 2.9692235,2.9692235 0 0 1 4.16592,-0.5373 2.9692235,2.9692235 0 0 1 0.53727,4.166 c -14.87568,19.2878 -39.64218,28.15 -63.37792,22.6798 -23.72642,-5.4679 -42.11113,-24.2643 -47.05273,-48.1059 a 2.9692235,2.9692235 0 0 1 0.42412,-2.2327 z"
         id="path3509-2-0" />
      <path
         style="color:#000000;mix-blend-mode:normal;fill:#abe41d;fill-opacity:1;fill-rule:evenodd;stroke-width:1.18769;stroke-linecap:round;-inkscape-stroke:none"
         d="m -658.82901,-387.5246 a 2.9692235,2.9692235 0 0 1 1.04819,-2.0176 c 14.98997,-12.5904 35.03046,-17.4102 54.10639,-13.014 19.04833,4.3899 34.94055,17.4653 42.91958,35.3104 a 2.9692235,2.9692235 0 0 1 -1.49865,3.9205 2.9692235,2.9692235 0 0 1 -3.92327,-1.4969 c -7.22111,-16.15 -21.59232,-27.9743 -38.83128,-31.9472 -17.26396,-3.9787 -35.3868,0.3814 -48.95292,11.7759 a 2.9692235,2.9692235 0 0 1 -4.18427,-0.3644 2.9692235,2.9692235 0 0 1 -0.68377,-2.1667 z"
         id="path3505-4-3" />
      <path
         style="color:#000000;mix-blend-mode:normal;fill:#abe41d;fill-opacity:1;fill-rule:evenodd;stroke-width:1.18769;stroke-linecap:round;-inkscape-stroke:none"
         d="m -688.63019,-319.9826 a 2.9692235,2.9692235 0 0 1 1.96451,-3.7108 2.9692235,2.9692235 0 0 1 3.71025,1.9668 c 7.16275,23.2984 26.18945,41.0053 49.94144,46.4792 23.76317,5.4765 48.62976,-2.1273 65.26659,-19.9569 a 2.9692235,2.9692235 0 0 1 4.19682,-0.1445 2.9692235,2.9692235 0 0 1 0.14728,4.195 c -18.07675,19.3728 -45.12442,27.6436 -70.9443,21.6932 -25.80776,-5.9477 -46.49989,-25.2071 -54.28259,-50.522 z"
         id="path3501-9-9" />
      <path
         style="color:#000000;mix-blend-mode:normal;fill:#abe41d;fill-opacity:1;fill-rule:evenodd;stroke-width:1.18769;stroke-linecap:round;-inkscape-stroke:none"
         d="m -663.81176,-399.9494 c 17.68677,-14.0311 40.80485,-19.2503 62.80456,-14.1803 21.98895,5.0676 40.48263,19.8679 50.24823,40.2106 a 2.9692235,2.9692235 0 0 1 -1.39153,3.9618 2.9692235,2.9692235 0 0 1 -3.96133,-1.3937 c -8.98618,-18.7192 -25.99502,-32.3288 -46.22898,-36.9919 -20.24387,-4.6654 -41.50457,0.1346 -57.77972,13.0458 a 2.9692235,2.9692235 0 0 1 -4.17178,-0.4805 2.9692235,2.9692235 0 0 1 0.48055,-4.1718 z"
         id="path3497-0-9" />
      <path
         style="color:#000000;mix-blend-mode:normal;fill:#abe41d;fill-opacity:1;fill-rule:evenodd;stroke-width:1.18769;stroke-linecap:round;-inkscape-stroke:none"
         d="m -697.08813,-310.7482 a 2.9692235,2.9692235 0 0 1 1.60034,-1.6141 2.9692235,2.9692235 0 0 1 3.88558,1.5882 c 9.98041,23.783 30.78756,41.308 55.92099,47.1002 25.14011,5.7938 51.52374,-0.8628 70.90769,-17.888 a 2.9692235,2.9692235 0 0 1 4.19103,0.2732 2.9692235,2.9692235 0 0 1 -0.27035,4.1893 c -20.81529,18.2823 -49.1655,25.4339 -76.16198,19.2123 -26.98934,-6.22 -49.34429,-25.0482 -60.06168,-50.5874 a 2.9692235,2.9692235 0 0 1 -0.0116,-2.2737 z"
         id="path3493-1-9" />
      <path
         style="color:#000000;mix-blend-mode:normal;fill:#abe41d;fill-opacity:1;fill-rule:evenodd;stroke-width:1.18769;stroke-linecap:round;-inkscape-stroke:none"
         d="m -668.07481,-411.6132 c 20.12605,-14.5279 45.54716,-19.6643 69.73485,-14.09 24.17915,5.5723 44.78271,21.3082 56.52247,43.1682 a 2.9692235,2.9692235 0 0 1 -1.20982,4.0204 2.9692235,2.9692235 0 0 1 -4.02265,-1.2104 c -10.93169,-20.3553 -30.10879,-35.0027 -52.62362,-40.1915 -22.52277,-5.1906 -46.18519,-0.4101 -64.9259,13.1177 a 2.9692235,2.9692235 0 0 1 -4.1449,-0.6695 2.9692235,2.9692235 0 0 1 0.66957,-4.1449 z"
         id="path3489-2-1" />
      <path
         style="color:#000000;mix-blend-mode:normal;fill:#abe41d;fill-opacity:1;fill-rule:evenodd;stroke-width:1.18769;stroke-linecap:round;-inkscape-stroke:none"
         d="m -703.74078,-296.7556 a 2.9692235,2.9692235 0 0 1 1.41843,-1.7751 2.9692235,2.9692235 0 0 1 4.03254,1.1674 c 12.63626,22.9253 34.43278,39.3843 59.94136,45.263 25.52453,5.8823 52.34174,0.6129 73.74293,-14.4899 a 2.9692235,2.9692235 0 0 1 4.13726,0.713 2.9692235,2.9692235 0 0 1 -0.71357,4.1396 c -22.77921,16.0752 -51.33218,21.6852 -78.50024,15.424 -27.15108,-6.2572 -50.35829,-23.7808 -63.80819,-48.1823 a 2.9692235,2.9692235 0 0 1 -0.25052,-2.2597 z"
         id="path3485-0-7" />
      <path
         style="color:#000000;mix-blend-mode:normal;fill:#abe41d;fill-opacity:1;fill-rule:evenodd;stroke-width:1.18769;stroke-linecap:round;-inkscape-stroke:none"
         d="m -671.5782,-422.6068 a 2.9692235,2.9692235 0 0 1 1.30487,-1.8608 c 22.14623,-14.0897 49.02274,-18.7038 74.6006,-12.8091 25.55622,5.8896 47.68793,21.7816 61.43664,44.115 a 2.9692235,2.9692235 0 0 1 -0.9723,4.0846 2.9692235,2.9692235 0 0 1 -4.08466,-0.9723 c -12.91666,-20.9818 -33.70368,-35.9073 -57.7133,-41.4406 -24.02996,-5.5379 -49.27406,-1.2024 -70.08005,12.0346 a 2.9692235,2.9692235 0 0 1 -4.09872,-0.9112 2.9692235,2.9692235 0 0 1 -0.39308,-2.2402 z"
         id="path3481-06-2" />
      <path
         style="color:#000000;mix-blend-mode:normal;fill:#abe41d;fill-opacity:1;fill-rule:evenodd;stroke-width:1.18769;stroke-linecap:round;-inkscape-stroke:none"
         d="m -707.5024,-280.0306 a 2.9692235,2.9692235 0 0 1 1.19948,-1.9303 2.9692235,2.9692235 0 0 1 4.14351,0.686 c 14.73982,20.5761 36.47935,35.064 61.14373,40.7481 24.65748,5.6824 50.53982,2.173 72.79461,-9.8688 a 2.9692235,2.9692235 0 0 1 4.023,1.1985 2.9692235,2.9692235 0 0 1 -1.19677,4.0257 c -23.52515,12.7293 -50.88948,16.4382 -76.95446,10.4313 -26.07226,-6.0085 -49.05834,-21.3266 -64.63953,-43.0773 a 2.9692235,2.9692235 0 0 1 -0.51357,-2.2132 z"
         id="path3475-39-3" />
      <path
         style="color:#000000;mix-blend-mode:normal;fill:#abe41d;fill-opacity:1;fill-rule:evenodd;stroke-width:1.18769;stroke-linecap:round;-inkscape-stroke:none"
         d="m -671.46669,-436.6119 a 2.9692235,2.9692235 0 0 1 1.43269,-1.7646 c 18.84795,-10.2175 40.27286,-14.6991 61.63549,-12.8881 5.18143,0.4391 10.3258,1.2467 15.39301,2.4143 7.17431,1.6534 14.1652,4.0233 20.86535,7.0749 17.48141,7.9621 32.56987,20.3689 43.75974,35.9824 a 2.9692235,2.9692235 0 0 1 -0.68365,4.1441 2.9692235,2.9692235 0 0 1 -4.14403,-0.6837 c -10.58518,-14.7697 -24.85747,-26.5057 -41.3942,-34.0375 -6.33798,-2.8867 -12.95031,-5.1294 -19.73683,-6.6934 -4.7933,-1.1046 -9.65809,-1.8664 -14.55944,-2.2818 -20.20838,-1.7131 -40.47634,2.5237 -58.30593,12.1891 a 2.9692235,2.9692235 0 0 1 -4.02577,-1.1968 2.9692235,2.9692235 0 0 1 -0.23643,-2.2589 z"
         id="path3471-0-6" />
      <path
         style="color:#000000;mix-blend-mode:normal;fill:#0094e3;fill-opacity:1;fill-rule:evenodd;stroke-width:1.18769;stroke-linecap:round;-inkscape-stroke:none"
         d="m -631.93657,-345.855 c 1.04174,-3.6603 3.46947,-6.9238 7.03578,-8.9099 7.13264,-3.9722 16.22324,-1.3858 20.19539,5.7469 0.21499,0.386 0.41163,0.78 0.59134,1.1837 a 2.9692235,2.9692235 0 0 1 -1.50595,3.9212 2.9692235,2.9692235 0 0 1 -3.91893,-1.5055 c -0.10783,-0.2421 -0.22627,-0.4787 -0.35525,-0.7103 -2.41067,-4.3287 -7.78818,-5.8601 -12.11692,-3.4495 -4.32876,2.4107 -5.8579,7.7887 -3.44723,12.1175 0.12935,0.2322 0.26806,0.4573 0.41766,0.6771 a 2.9692235,2.9692235 0 0 1 -0.78416,4.1256 2.9692235,2.9692235 0 0 1 -4.12336,-0.7836 c -0.24933,-0.3663 -0.48337,-0.7429 -0.69894,-1.13 -1.98608,-3.5663 -2.33118,-7.6229 -1.28943,-11.2832 z"
         id="path3535-8-5" />
      <path
         style="color:#000000;mix-blend-mode:normal;fill:#0094e3;fill-opacity:1;fill-rule:evenodd;stroke-width:1.18769;stroke-linecap:round;-inkscape-stroke:none"
         d="m -643.91697,-346.8497 c 0.39177,-2.0357 1.02378,-4.0388 1.89637,-5.9665 a 2.9692235,2.9692235 0 0 1 3.92849,-1.4799 2.9692235,2.9692235 0 0 1 1.47991,3.9285 c -2.71676,6.0017 -2.42904,12.9294 0.77625,18.685 0.57666,1.0355 1.24116,2.0205 1.98559,2.9428 a 2.9692235,2.9692235 0 0 1 -0.44562,4.1751 2.9692235,2.9692235 0 0 1 -4.17509,-0.4456 c -0.95711,-1.1858 -1.81,-2.4513 -2.55142,-3.7827 -3.08857,-5.546 -4.06979,-11.9493 -2.89448,-18.0567 z"
         id="path3531-7-5" />
      <path
         style="color:#000000;mix-blend-mode:normal;fill:#0094e3;fill-opacity:1;fill-rule:evenodd;stroke-width:1.18769;stroke-linecap:round;-inkscape-stroke:none"
         d="m -617.56428,-365.7337 a 2.9692235,2.9692235 0 0 1 3.32831,-2.5633 c 8.39743,1.09 15.78598,6.1021 19.90593,13.5002 0.74106,1.3307 1.3679,2.7219 1.87187,4.1592 a 2.9692235,2.9692235 0 0 1 -1.81964,3.7847 2.9692235,2.9692235 0 0 1 -3.78463,-1.8197 c -0.39198,-1.1179 -0.88003,-2.2001 -1.45641,-3.2351 -3.20674,-5.7582 -8.94555,-9.6516 -15.48163,-10.4999 a 2.9692235,2.9692235 0 0 1 -2.5638,-3.3261 z"
         id="path3527-3-8" />
      <path
         style="color:#000000;mix-blend-mode:normal;fill:#0094e3;fill-opacity:1;fill-rule:evenodd;stroke-width:1.18769;stroke-linecap:round;-inkscape-stroke:none"
         d="m -655.53895,-349.3067 a 2.9692235,2.9692235 0 0 1 3.49008,-2.3355 2.9692235,2.9692235 0 0 1 2.33557,3.4901 c -1.50727,7.597 -0.26631,15.4817 3.50201,22.2483 1.34611,2.4171 2.99329,4.6534 4.90316,6.6551 a 2.9692235,2.9692235 0 0 1 -0.0986,4.198 2.9692235,2.9692235 0 0 1 -4.19793,-0.099 c -2.2571,-2.3657 -4.20461,-5.0088 -5.79547,-7.8654 -4.45275,-7.9956 -5.91989,-17.315 -4.13885,-26.292 z"
         id="path3523-1-1" />
      <path
         style="color:#000000;mix-blend-mode:normal;fill:#0094e3;fill-opacity:1;fill-rule:evenodd;stroke-width:1.18769;stroke-linecap:round;-inkscape-stroke:none"
         d="m -607.95535,-376.2026 a 2.9692235,2.9692235 0 0 1 3.82358,-1.7374 c 8.57215,3.2121 15.7232,9.3667 20.17707,17.3643 1.59085,2.8567 2.81279,5.9028 3.63548,9.0673 a 2.9692235,2.9692235 0 0 1 -2.12483,3.6215 2.9692235,2.9692235 0 0 1 -3.62094,-2.1271 c -0.69611,-2.6777 -1.73015,-5.2548 -3.07626,-7.672 -3.76926,-6.7683 -9.81943,-11.9764 -17.07394,-14.6948 a 2.9692235,2.9692235 0 0 1 -1.74016,-3.8218 z"
         id="path3519-0-4" />
      <path
         style="color:#000000;mix-blend-mode:normal;fill:#0094e3;fill-opacity:1;fill-rule:evenodd;stroke-width:1.18769;stroke-linecap:round;-inkscape-stroke:none"
         d="m -667.6733,-348.7347 a 2.9692235,2.9692235 0 0 1 3.34746,-2.5327 2.9692235,2.9692235 0 0 1 2.53444,3.3502 c -1.33017,9.5839 0.49486,19.3383 5.20251,27.7917 2.46439,4.4252 5.66654,8.3979 9.46681,11.7466 a 2.9692235,2.9692235 0 0 1 0.26481,4.1912 2.9692235,2.9692235 0 0 1 -4.19121,0.2648 c -4.30693,-3.7952 -7.93399,-8.2977 -10.72696,-13.313 -5.33488,-9.5796 -7.40524,-20.638 -5.89786,-31.4988 z"
         id="path3515-0-7" />
      <path
         style="color:#000000;mix-blend-mode:normal;fill:#0094e3;fill-opacity:1;fill-rule:evenodd;stroke-width:1.18769;stroke-linecap:round;-inkscape-stroke:none"
         d="m -601.22927,-386.4646 a 2.9692235,2.9692235 0 0 1 3.91596,-1.5185 c 10.05548,4.4331 18.38948,12.0282 23.73621,21.6292 2.7927,5.0147 4.70864,10.4678 5.66731,16.1271 a 2.9692235,2.9692235 0 0 1 -2.43177,3.4245 2.9692235,2.9692235 0 0 1 -3.42228,-2.4312 c -0.84589,-4.9935 -2.5379,-9.8065 -5.00207,-14.2313 -4.71809,-8.4721 -12.07161,-15.1719 -20.94485,-19.0838 a 2.9692235,2.9692235 0 0 1 -1.51851,-3.916 z"
         id="path3511-5-1" />
      <path
         style="color:#000000;mix-blend-mode:normal;fill:#0094e3;fill-opacity:1;fill-rule:evenodd;stroke-width:1.18769;stroke-linecap:round;-inkscape-stroke:none"
         d="m -679.44055,-350.3444 a 2.9692235,2.9692235 0 0 1 3.34798,-2.535 2.9692235,2.9692235 0 0 1 2.53269,3.3475 c -1.67956,12.1333 0.63603,24.4838 6.59564,35.1852 3.95763,7.1065 9.40416,13.2733 15.96825,18.0773 a 2.9692235,2.9692235 0 0 1 0.64331,4.15 2.9692235,2.9692235 0 0 1 -4.14937,0.641 c -7.25496,-5.3096 -13.27682,-12.1247 -17.65099,-19.9792 -6.5865,-11.8271 -9.14375,-25.4773 -7.28751,-38.8868 z"
         id="path3507-0-3" />
      <path
         style="color:#000000;mix-blend-mode:normal;fill:#0094e3;fill-opacity:1;fill-rule:evenodd;stroke-width:1.18769;stroke-linecap:round;-inkscape-stroke:none"
         d="m -596.41106,-397.321 a 2.9692235,2.9692235 0 0 1 3.91543,-1.5163 c 12.40971,5.4781 22.69397,14.8533 29.29387,26.7045 4.36983,7.8468 6.99321,16.5445 7.69008,25.4988 a 2.9692235,2.9692235 0 0 1 -2.73038,3.1915 2.9692235,2.9692235 0 0 1 -3.18921,-2.7298 c -0.63052,-8.1017 -3.00332,-15.9713 -6.95703,-23.0708 -5.97174,-10.7232 -15.27792,-19.2058 -26.50652,-24.1625 a 2.9692235,2.9692235 0 0 1 -1.51624,-3.9154 z"
         id="path3503-3-8" />
      <path
         style="color:#000000;mix-blend-mode:normal;fill:#0094e3;fill-opacity:1;fill-rule:evenodd;stroke-width:1.18769;stroke-linecap:round;-inkscape-stroke:none"
         d="m -690.89214,-354.0262 a 2.9692235,2.9692235 0 0 1 3.41616,-2.4383 2.9692235,2.9692235 0 0 1 2.44056,3.4167 c -2.55089,15.2704 0.16097,30.9534 7.69358,44.4794 5.84577,10.497 14.3579,19.2656 24.67621,25.4213 a 2.9692235,2.9692235 0 0 1 1.0279,4.0719 2.9692235,2.9692235 0 0 1 -4.06963,1.0284 c -11.21529,-6.6909 -20.46709,-16.2224 -26.82103,-27.632 -8.18707,-14.7012 -11.13628,-31.7502 -8.36375,-48.3474 z"
         id="path3499-18-4" />
      <path
         style="color:#000000;mix-blend-mode:normal;fill:#0094e3;fill-opacity:1;fill-rule:evenodd;stroke-width:1.18769;stroke-linecap:round;-inkscape-stroke:none"
         d="m -593.42373,-408.8684 a 2.9692235,2.9692235 0 0 1 3.8735,-1.6235 c 15.58251,6.3799 28.53375,17.8702 36.72608,32.5808 6.3482,11.3993 9.57913,24.2708 9.36809,37.3168 a 2.9692235,2.9692235 0 0 1 -3.0156,2.921 2.9692235,2.9692235 0 0 1 -2.92277,-3.0184 c 0.19417,-12.0026 -2.77804,-23.8427 -8.61852,-34.3302 -7.53745,-13.5347 -19.45041,-24.1031 -33.78727,-29.973 a 2.9692235,2.9692235 0 0 1 -1.62351,-3.8735 z"
         id="path3495-0-8" />
      <path
         style="color:#000000;mix-blend-mode:normal;fill:#0094e3;fill-opacity:1;fill-rule:evenodd;stroke-width:1.18769;stroke-linecap:round;-inkscape-stroke:none"
         d="m -701.87526,-359.8234 a 2.9692235,2.9692235 0 0 1 3.5254,-2.2823 2.9692235,2.9692235 0 0 1 2.27994,3.5249 c -4.06716,18.9952 -1.09863,38.8198 8.35273,55.7912 8.17749,14.684 20.76247,26.4262 35.97734,33.5676 a 2.9692235,2.9692235 0 0 1 1.42515,3.9492 2.9692235,2.9692235 0 0 1 -3.9492,1.4251 c -16.34122,-7.67 -29.85922,-20.2817 -38.64209,-36.0528 -10.15072,-18.2272 -13.33738,-39.5222 -8.96927,-59.9229 z"
         id="path3491-1-0" />
      <path
         style="color:#000000;mix-blend-mode:normal;fill:#0094e3;fill-opacity:1;fill-rule:evenodd;stroke-width:1.18769;stroke-linecap:round;-inkscape-stroke:none"
         d="m -592.48738,-421.0812 a 2.9692235,2.9692235 0 0 1 3.7966,-1.796 c 19.6537,7.0259 36.08705,20.9525 46.24197,39.1873 8.77941,15.7649 12.38562,33.8917 10.30673,51.8161 a 2.9692235,2.9692235 0 0 1 -3.29268,2.6049 2.9692235,2.9692235 0 0 1 -2.60761,-3.2909 c 1.93561,-16.689 -1.41871,-33.5622 -9.59297,-48.2404 -9.45529,-16.9785 -24.75595,-29.9449 -43.05555,-36.4867 a 2.9692235,2.9692235 0 0 1 -1.79649,-3.7943 z"
         id="path3487-7-4" />
      <path
         style="color:#000000;mix-blend-mode:normal;fill:#0094e3;fill-opacity:1;fill-rule:evenodd;stroke-width:1.18769;stroke-linecap:round;-inkscape-stroke:none"
         d="m -712.12375,-367.889 a 2.9692235,2.9692235 0 0 1 3.65256,-2.0696 2.9692235,2.9692235 0 0 1 2.07238,3.6508 c -6.43549,23.2942 -3.45181,48.1835 8.30628,69.297 11.02447,19.7962 28.96081,34.8297 50.37938,42.2238 a 2.9692235,2.9692235 0 0 1 1.83665,3.775 2.9692235,2.9692235 0 0 1 -3.77503,1.8367 c -22.79887,-7.8707 -41.89488,-23.8744 -53.62981,-44.9464 -12.51558,-22.4737 -15.69249,-48.9725 -8.84241,-73.7673 z"
         id="path3483-9-6" />
      <path
         style="color:#000000;mix-blend-mode:normal;fill:#0094e3;fill-opacity:1;fill-rule:evenodd;stroke-width:1.18769;stroke-linecap:round;-inkscape-stroke:none"
         d="m -593.87251,-433.8291 a 2.9692235,2.9692235 0 0 1 3.68334,-2.0173 c 24.71204,7.2226 45.5916,23.8851 58.11797,46.3782 11.72655,21.0569 15.28076,45.6996 9.9827,69.212 a 2.9692235,2.9692235 0 0 1 -3.54976,2.2433 2.9692235,2.9692235 0 0 1 -2.24326,-3.5497 c 4.9773,-22.089 1.63811,-45.2343 -9.37848,-65.0164 -11.76823,-21.1317 -31.37888,-36.7814 -54.59525,-43.5667 a 2.9692235,2.9692235 0 0 1 -2.01726,-3.6834 z"
         id="path3479-1-0" />
      <path
         style="color:#000000;mix-blend-mode:normal;fill:#0094e3;fill-opacity:1;fill-rule:evenodd;stroke-width:1.18769;stroke-linecap:round;-inkscape-stroke:none"
         d="m -724.58386,-367.1017 c 0.89819,-3.7938 2.0025,-7.556 3.31377,-11.2698 a 2.9692235,2.9692235 0 0 1 3.78843,-1.8122 2.9692235,2.9692235 0 0 1 1.81213,3.7885 c -9.9242,28.1078 -7.30352,59.1203 7.19939,85.1627 14.51337,26.0609 39.52192,44.6272 68.66762,50.9781 a 2.9692235,2.9692235 0 0 1 2.26882,3.5319 2.9692235,2.9692235 0 0 1 -3.5341,2.2683 c -30.80781,-6.7132 -57.25011,-26.3421 -72.59114,-53.8892 -13.41374,-24.0866 -17.21223,-52.2019 -10.92492,-78.7583 z"
         id="path3477-0-3" />
      <path
         style="color:#000000;mix-blend-mode:normal;fill:#0094e3;fill-opacity:1;fill-rule:evenodd;stroke-width:1.18769;stroke-linecap:round;-inkscape-stroke:none"
         d="m -597.8437,-446.873 a 2.9692235,2.9692235 0 0 1 3.53462,-2.2706 c 30.81755,6.7084 57.26824,26.3421 72.61323,53.8966 15.3444,27.5536 18.10657,60.3768 7.58334,90.1075 a 2.9692235,2.9692235 0 0 1 -3.79015,1.8093 2.9692235,2.9692235 0 0 1 -1.8071,-3.7896 c 9.95549,-28.1267 7.34167,-59.171 -7.1749,-85.238 -14.51711,-26.068 -39.53305,-44.6365 -68.68796,-50.9828 a 2.9692235,2.9692235 0 0 1 -2.27108,-3.5324 z"
         id="path3473-3-2" />
      <path
         style="color:#000000;mix-blend-mode:normal;fill:#abe52b;fill-opacity:0.653182;fill-rule:evenodd;stroke-width:1.18769;stroke-linecap:round;-inkscape-stroke:none"
         d="m -632.38352,-343.8227 a 2.9692235,2.9692235 0 0 1 3.34573,-2.5355 2.9692235,2.9692235 0 0 1 2.53547,3.3458 c -0.63325,4.5938 2.30561,8.856 6.8245,9.8974 4.51974,1.0416 9.02808,-1.5056 10.46849,-5.9145 a 2.9692235,2.9692235 0 0 1 3.74407,-1.8985 2.9692235,2.9692235 0 0 1 1.9008,3.7446 c -2.37884,7.2812 -9.98267,11.5754 -17.44698,9.8551 -7.46294,-1.7199 -12.4179,-8.9076 -11.37208,-16.4944 z"
         id="path1973-0-9-6" />
      <path
         style="color:#000000;mix-blend-mode:normal;fill:#abe52b;fill-opacity:0.653182;fill-rule:evenodd;stroke-width:1.18769;stroke-linecap:round;-inkscape-stroke:none"
         d="m -644.35912,-343.2784 a 2.9692235,2.9692235 0 0 1 3.13039,-2.7994 2.9692235,2.9692235 0 0 1 2.79986,3.1282 c -0.56255,10.1189 6.20813,19.1322 16.08381,21.4081 9.87631,2.2761 19.90881,-2.8639 23.83129,-12.2093 a 2.9692235,2.9692235 0 0 1 3.88934,-1.5889 2.9692235,2.9692235 0 0 1 1.58717,3.8865 c -5.02552,11.9734 -17.98779,18.6146 -30.64141,15.6985 -12.65284,-2.916 -21.40121,-14.5592 -20.68045,-27.5237 z"
         id="path3533-7-4-9" />
      <path
         style="color:#000000;mix-blend-mode:normal;fill:#abe52b;fill-opacity:0.653182;fill-rule:evenodd;stroke-width:1.18769;stroke-linecap:round;-inkscape-stroke:none"
         d="m -629.8915,-362.3829 a 2.9692235,2.9692235 0 0 1 1.53429,-3.9099 c 5.25051,-2.2889 11.09966,-2.8291 16.68108,-1.5428 5.57784,1.2855 10.59682,4.3297 14.3153,8.6814 a 2.9692235,2.9692235 0 0 1 -0.32895,4.1853 2.9692235,2.9692235 0 0 1 -4.1853,-0.3289 c -2.89263,-3.3852 -6.79564,-5.7511 -11.13466,-6.751 -4.34181,-1.0006 -8.88973,-0.5809 -12.97413,1.1997 a 2.9692235,2.9692235 0 0 1 -3.90763,-1.5338 z"
         id="path3529-0-8-4" />
      <path
         style="color:#000000;mix-blend-mode:normal;fill:#abe52b;fill-opacity:0.653182;fill-rule:evenodd;stroke-width:1.18769;stroke-linecap:round;-inkscape-stroke:none"
         d="m -656.26303,-340.7418 a 2.9692235,2.9692235 0 0 1 2.88828,-3.0504 2.9692235,2.9692235 0 0 1 3.04809,2.8878 c 0.40626,14.8894 10.79991,27.5914 25.31437,30.9364 14.51446,3.345 29.41911,-3.5268 36.30108,-16.7365 a 2.9692235,2.9692235 0 0 1 4.00454,-1.2624 2.9692235,2.9692235 0 0 1 1.2619,4.0068 c -8.11835,15.5828 -25.77912,23.7248 -42.90113,19.7789 -17.12202,-3.9459 -29.43788,-18.9963 -29.91713,-36.5606 z"
         id="path3525-1-4-1" />
      <path
         style="color:#000000;mix-blend-mode:normal;fill:#abe52b;fill-opacity:0.653182;fill-rule:evenodd;stroke-width:1.18769;stroke-linecap:round;-inkscape-stroke:none"
         d="m -641.90208,-370.7974 a 2.9692235,2.9692235 0 0 1 1.16364,-1.9505 c 9.08489,-6.7685 20.6899,-9.2054 31.72955,-6.6612 11.03739,2.5437 20.40389,9.8097 25.6107,19.8687 a 2.9692235,2.9692235 0 0 1 -1.27259,4.0035 2.9692235,2.9692235 0 0 1 -4.00129,-1.2721 c -4.40733,-8.5145 -12.32776,-14.6602 -21.67044,-16.8134 -9.34459,-2.1535 -19.15902,-0.093 -26.84898,5.6364 a 2.9692235,2.9692235 0 0 1 -4.15444,-0.6075 2.9692235,2.9692235 0 0 1 -0.55615,-2.2039 z"
         id="path3521-0-6-3" />
      <path
         style="color:#000000;mix-blend-mode:normal;fill:#abe52b;fill-opacity:0.653182;fill-rule:evenodd;stroke-width:1.18769;stroke-linecap:round;-inkscape-stroke:none"
         d="m -667.82797,-336.0608 a 2.9692235,2.9692235 0 0 1 2.61438,-3.2873 2.9692235,2.9692235 0 0 1 3.2855,2.6116 c 2.14443,18.7545 15.85401,34.1028 34.24857,38.3421 18.39508,4.2393 37.43909,-3.5599 47.57535,-19.4849 a 2.9692235,2.9692235 0 0 1 4.09992,-0.912 2.9692235,2.9692235 0 0 1 0.90967,4.0994 c -11.47565,18.0294 -33.09279,26.8837 -53.91856,22.0842 -20.82519,-4.7994 -36.38705,-22.2204 -38.81483,-43.4531 z"
         id="path3517-1-9-7" />
      <path
         style="color:#000000;mix-blend-mode:normal;fill:#abe52b;fill-opacity:0.653182;fill-rule:evenodd;stroke-width:1.18769;stroke-linecap:round;-inkscape-stroke:none"
         d="m -651.17609,-378.4432 a 2.9692235,2.9692235 0 0 1 1.04766,-2.0153 c 12.13315,-10.1835 28.351,-14.0815 43.78677,-10.5241 15.4114,3.5517 28.27167,14.1257 34.73409,28.5605 a 2.9692235,2.9692235 0 0 1 -1.4969,3.9233 2.9692235,2.9692235 0 0 1 -3.9238,-1.4947 c -5.70411,-12.7409 -17.04403,-22.0674 -30.64701,-25.2024 -13.62451,-3.1399 -27.92612,0.297 -38.63555,9.2856 a 2.9692235,2.9692235 0 0 1 -4.18201,-0.3639 2.9692235,2.9692235 0 0 1 -0.68325,-2.169 z"
         id="path3513-3-2-8" />
      <path
         style="color:#000000;mix-blend-mode:normal;fill:#abe52b;fill-opacity:0.653182;fill-rule:evenodd;stroke-width:1.18769;stroke-linecap:round;-inkscape-stroke:none"
         d="m -678.309,-331.3728 a 2.9692235,2.9692235 0 0 1 1.88002,-1.2784 2.9692235,2.9692235 0 0 1 3.51058,2.3064 c 4.47378,21.5845 21.09144,38.5736 42.57165,43.5239 21.48865,4.9523 43.87372,-3.0599 57.34111,-20.5218 a 2.9692235,2.9692235 0 0 1 4.16592,-0.5373 2.9692235,2.9692235 0 0 1 0.53727,4.166 c -14.87568,19.2878 -39.64218,28.15 -63.37792,22.6798 -23.72642,-5.4679 -42.11113,-24.2643 -47.05273,-48.1059 a 2.9692235,2.9692235 0 0 1 0.42412,-2.2327 z"
         id="path3509-7-90-8" />
      <path
         style="color:#000000;mix-blend-mode:normal;fill:#abe52b;fill-opacity:0.653182;fill-rule:evenodd;stroke-width:1.18769;stroke-linecap:round;-inkscape-stroke:none"
         d="m -658.82901,-387.5246 a 2.9692235,2.9692235 0 0 1 1.04819,-2.0176 c 14.98997,-12.5904 35.03046,-17.4102 54.10639,-13.014 19.04833,4.3899 34.94055,17.4653 42.91958,35.3104 a 2.9692235,2.9692235 0 0 1 -1.49865,3.9205 2.9692235,2.9692235 0 0 1 -3.92327,-1.4969 c -7.22111,-16.15 -21.59232,-27.9743 -38.83128,-31.9472 -17.26396,-3.9787 -35.3868,0.3814 -48.95292,11.7759 a 2.9692235,2.9692235 0 0 1 -4.18427,-0.3644 2.9692235,2.9692235 0 0 1 -0.68377,-2.1667 z"
         id="path3505-7-3-3" />
      <path
         style="color:#000000;mix-blend-mode:normal;fill:#abe52b;fill-opacity:0.653182;fill-rule:evenodd;stroke-width:1.18769;stroke-linecap:round;-inkscape-stroke:none"
         d="m -688.63019,-319.9826 a 2.9692235,2.9692235 0 0 1 1.96451,-3.7108 2.9692235,2.9692235 0 0 1 3.71025,1.9668 c 7.16275,23.2984 26.18945,41.0053 49.94144,46.4792 23.76317,5.4765 48.62976,-2.1273 65.26659,-19.9569 a 2.9692235,2.9692235 0 0 1 4.19682,-0.1445 2.9692235,2.9692235 0 0 1 0.14728,4.195 c -18.07675,19.3728 -45.12442,27.6436 -70.9443,21.6932 -25.80776,-5.9477 -46.49989,-25.2071 -54.28259,-50.522 z"
         id="path3501-2-0-8" />
      <path
         style="color:#000000;mix-blend-mode:normal;fill:#abe52b;fill-opacity:0.653182;fill-rule:evenodd;stroke-width:1.18769;stroke-linecap:round;-inkscape-stroke:none"
         d="m -663.81176,-399.9494 c 17.68677,-14.0311 40.80485,-19.2503 62.80456,-14.1803 21.98895,5.0676 40.48263,19.8679 50.24823,40.2106 a 2.9692235,2.9692235 0 0 1 -1.39153,3.9618 2.9692235,2.9692235 0 0 1 -3.96133,-1.3937 c -8.98618,-18.7192 -25.99502,-32.3288 -46.22898,-36.9919 -20.24387,-4.6654 -41.50457,0.1346 -57.77972,13.0458 a 2.9692235,2.9692235 0 0 1 -4.17178,-0.4805 2.9692235,2.9692235 0 0 1 0.48055,-4.1718 z"
         id="path3497-6-3-1" />
      <path
         style="color:#000000;mix-blend-mode:normal;fill:#abe52b;fill-opacity:0.653182;fill-rule:evenodd;stroke-width:1.18769;stroke-linecap:round;-inkscape-stroke:none"
         d="m -697.08813,-310.7482 a 2.9692235,2.9692235 0 0 1 1.60034,-1.6141 2.9692235,2.9692235 0 0 1 3.88558,1.5882 c 9.98041,23.783 30.78756,41.308 55.92099,47.1002 25.14011,5.7938 51.52374,-0.8628 70.90769,-17.888 a 2.9692235,2.9692235 0 0 1 4.19103,0.2732 2.9692235,2.9692235 0 0 1 -0.27035,4.1893 c -20.81529,18.2823 -49.1655,25.4339 -76.16198,19.2123 -26.98934,-6.22 -49.34429,-25.0482 -60.06168,-50.5874 a 2.9692235,2.9692235 0 0 1 -0.0116,-2.2737 z"
         id="path3493-4-3-5" />
      <path
         style="color:#000000;mix-blend-mode:normal;fill:#abe52b;fill-opacity:0.653182;fill-rule:evenodd;stroke-width:1.18769;stroke-linecap:round;-inkscape-stroke:none"
         d="m -668.07481,-411.6132 c 20.12605,-14.5279 45.54716,-19.6643 69.73485,-14.09 24.17915,5.5723 44.78271,21.3082 56.52247,43.1682 a 2.9692235,2.9692235 0 0 1 -1.20982,4.0204 2.9692235,2.9692235 0 0 1 -4.02265,-1.2104 c -10.93169,-20.3553 -30.10879,-35.0027 -52.62362,-40.1915 -22.52277,-5.1906 -46.18519,-0.4101 -64.9259,13.1177 a 2.9692235,2.9692235 0 0 1 -4.1449,-0.6695 2.9692235,2.9692235 0 0 1 0.66957,-4.1449 z"
         id="path3489-5-7-3" />
      <path
         style="color:#000000;mix-blend-mode:normal;fill:#abe52b;fill-opacity:0.653182;fill-rule:evenodd;stroke-width:1.18769;stroke-linecap:round;-inkscape-stroke:none"
         d="m -703.74078,-296.7556 a 2.9692235,2.9692235 0 0 1 1.41843,-1.7751 2.9692235,2.9692235 0 0 1 4.03254,1.1674 c 12.63626,22.9253 34.43278,39.3843 59.94136,45.263 25.52453,5.8823 52.34174,0.6129 73.74293,-14.4899 a 2.9692235,2.9692235 0 0 1 4.13726,0.713 2.9692235,2.9692235 0 0 1 -0.71357,4.1396 c -22.77921,16.0752 -51.33218,21.6852 -78.50024,15.424 -27.15108,-6.2572 -50.35829,-23.7808 -63.80819,-48.1823 a 2.9692235,2.9692235 0 0 1 -0.25052,-2.2597 z"
         id="path3485-2-9-5" />
      <path
         style="color:#000000;mix-blend-mode:normal;fill:#abe52b;fill-opacity:0.653182;fill-rule:evenodd;stroke-width:1.18769;stroke-linecap:round;-inkscape-stroke:none"
         d="m -671.5782,-422.6068 a 2.9692235,2.9692235 0 0 1 1.30487,-1.8608 c 22.14623,-14.0897 49.02274,-18.7038 74.6006,-12.8091 25.55622,5.8896 47.68793,21.7816 61.43664,44.115 a 2.9692235,2.9692235 0 0 1 -0.9723,4.0846 2.9692235,2.9692235 0 0 1 -4.08466,-0.9723 c -12.91666,-20.9818 -33.70368,-35.9073 -57.7133,-41.4406 -24.02996,-5.5379 -49.27406,-1.2024 -70.08005,12.0346 a 2.9692235,2.9692235 0 0 1 -4.09872,-0.9112 2.9692235,2.9692235 0 0 1 -0.39308,-2.2402 z"
         id="path3481-0-4-4" />
      <path
         style="color:#000000;mix-blend-mode:normal;fill:#abe52b;fill-opacity:0.653182;fill-rule:evenodd;stroke-width:1.18769;stroke-linecap:round;-inkscape-stroke:none"
         d="m -707.5024,-280.0306 a 2.9692235,2.9692235 0 0 1 1.19948,-1.9303 2.9692235,2.9692235 0 0 1 4.14351,0.686 c 14.73982,20.5761 36.47935,35.064 61.14373,40.7481 24.65748,5.6824 50.53982,2.173 72.79461,-9.8688 a 2.9692235,2.9692235 0 0 1 4.023,1.1985 2.9692235,2.9692235 0 0 1 -1.19677,4.0257 c -23.52515,12.7293 -50.88948,16.4382 -76.95446,10.4313 -26.07226,-6.0085 -49.05834,-21.3266 -64.63953,-43.0773 a 2.9692235,2.9692235 0 0 1 -0.51357,-2.2132 z"
         id="path3475-2-9-3" />
      <path
         style="color:#000000;mix-blend-mode:normal;fill:#abe52b;fill-opacity:0.653182;fill-rule:evenodd;stroke-width:1.18769;stroke-linecap:round;-inkscape-stroke:none"
         d="m -671.46669,-436.6119 a 2.9692235,2.9692235 0 0 1 1.43269,-1.7646 c 18.84795,-10.2175 40.27286,-14.6991 61.63549,-12.8881 5.18143,0.4391 10.3258,1.2467 15.39301,2.4143 7.17431,1.6534 14.1652,4.0233 20.86535,7.0749 17.48141,7.9621 32.56987,20.3689 43.75974,35.9824 a 2.9692235,2.9692235 0 0 1 -0.68365,4.1441 2.9692235,2.9692235 0 0 1 -4.14403,-0.6837 c -10.58518,-14.7697 -24.85747,-26.5057 -41.3942,-34.0375 -6.33798,-2.8867 -12.95031,-5.1294 -19.73683,-6.6934 -4.7933,-1.1046 -9.65809,-1.8664 -14.55944,-2.2818 -20.20838,-1.7131 -40.47634,2.5237 -58.30593,12.1891 a 2.9692235,2.9692235 0 0 1 -4.02577,-1.1968 2.9692235,2.9692235 0 0 1 -0.23643,-2.2589 z"
         id="path3471-9-9-6" />
    </g>
  </g>
</svg>
