<?xml version="1.0" encoding="UTF-8" standalone="no"?>
<!-- Created with Inkscape (http://www.inkscape.org/) -->

<svg
   width="100mm"
   height="100mm"
   viewBox="0 0 100 100"
   version="1.1"
   id="svg5"
   inkscape:version="1.2.1 (9c6d41e410, 2022-07-14)"
   sodipodi:docname="logo.svg"
   xmlns:inkscape="http://www.inkscape.org/namespaces/inkscape"
   xmlns:sodipodi="http://sodipodi.sourceforge.net/DTD/sodipodi-0.dtd"
   xmlns:xlink="http://www.w3.org/1999/xlink"
   xmlns="http://www.w3.org/2000/svg"
   xmlns:svg="http://www.w3.org/2000/svg">
  <sodipodi:namedview
     id="namedview7"
     pagecolor="#ffffff"
     bordercolor="#111111"
     borderopacity="1"
     inkscape:showpageshadow="0"
     inkscape:pageopacity="0"
     inkscape:pagecheckerboard="1"
     inkscape:deskcolor="#d1d1d1"
     inkscape:document-units="mm"
     showgrid="false"
     inkscape:zoom="2.3786088"
     inkscape:cx="240.2665"
     inkscape:cy="332.54733"
     inkscape:window-width="2998"
     inkscape:window-height="2978"
     inkscape:window-x="1500"
     inkscape:window-y="20"
     inkscape:window-maximized="1"
     inkscape:current-layer="layer1">
    <inkscape:grid
       type="xygrid"
       id="grid234"
       dotted="true"
       originx="-40"
       originy="-69.999999" />
  </sodipodi:namedview>
  <defs
     id="defs2">
    <linearGradient
       inkscape:collect="always"
       id="linearGradient1822">
      <stop
         style="stop-color:#302d3f;stop-opacity:1;"
         offset="0"
         id="stop1818" />
      <stop
         style="stop-color:#252e37;stop-opacity:1;"
         offset="1"
         id="stop1820" />
    </linearGradient>
    <radialGradient
       inkscape:collect="always"
       xlink:href="#linearGradient1822"
       id="radialGradient1824"
       cx="58.259754"
       cy="81.366425"
       fx="58.259754"
       fy="81.366425"
       r="50"
       gradientUnits="userSpaceOnUse"
       gradientTransform="matrix(1.3917293,1.4261752,-0.71567129,0.69843726,35.40951,-58.551537)" />
  </defs>
  <g
     inkscape:label="Layer 1"
     inkscape:groupmode="layer"
     id="layer1"
     transform="translate(-40,-70)">
    <g
       id="g2285">
      <circle
         style="fill:url(#radialGradient1824);fill-opacity:1;stroke-width:0.00833333;stop-color:#000000"
         id="path236"
         cx="90"
         cy="120"
         r="50" />
      <path
         id="path952-3"
         style="opacity:0.269373;fill:#74a27c;stroke-width:0.01;stop-color:#000000"
         d="m 138.29629,132.94095 c 0,0 -31.56596,1.89469 -53.472671,6.37757 -16.730326,-14.83564 -16.730326,-14.83564 -43.11991,-32.25947 32.37771,-3.59946 31.565965,-1.89469 53.472672,-6.37757 16.730329,14.83564 43.119909,32.25947 43.119909,32.25947 z"
         sodipodi:nodetypes="ccccc" />
      <path
         id="path952-3-6-7"
         style="opacity:0.269373;fill:#74a27c;stroke-width:0.01;stop-color:#000000"
         d="m 125.35534,155.35534 c 0,0 -28.284272,-14.14213 -49.497477,-21.2132 -7.071069,-21.2132 -7.071069,-21.2132 -21.213202,-49.497477 29.839649,13.071632 28.28427,14.142138 49.497479,21.213197 7.07107,21.2132 21.2132,49.49748 21.2132,49.49748 z"
         sodipodi:nodetypes="ccccc" />
      <path
         id="path952-3-6-7-5-3"
         style="opacity:0.269373;fill:#74a27c;stroke-width:0.01;stop-color:#000000"
         d="m 102.94095,168.29629 c 0,0 -17.423829,-26.38958 -32.259468,-43.11991 4.482873,-21.9067 4.482873,-21.9067 6.377565,-53.472669 19.306078,26.240189 17.423828,26.389585 32.259473,43.119909 -4.48287,21.9067 -6.37757,53.47267 -6.37757,53.47267 z"
         sodipodi:nodetypes="ccccc" />
      <path
         id="path952-3-6-7-5-3-5-6"
         style="opacity:0.269373;fill:#74a27c;stroke-width:0.01;stop-color:#000000"
         d="m 77.059046,168.29629 c 0,0 -1.894687,-31.56596 -6.377563,-53.47267 14.835633,-16.730329 14.835633,-16.730329 32.259467,-43.119909 3.59946,32.377709 1.89469,31.565959 6.37757,53.472669 -14.835633,16.73033 -32.259474,43.11991 -32.259474,43.11991 z"
         sodipodi:nodetypes="ccccc" />
      <path
         id="path952-3-6-7-5-3-5-6-2-9"
         style="opacity:0.269373;fill:#74a27c;stroke-width:0.01;stop-color:#000000"
         d="m 54.64466,155.35534 c 0,0 14.142133,-28.28427 21.213204,-49.49748 21.213199,-7.071069 21.213199,-7.071069 49.497476,-21.213198 -13.07164,29.839648 -14.14213,28.284268 -21.2132,49.497478 -21.2132,7.07107 -49.49748,21.2132 -49.49748,21.2132 z"
         sodipodi:nodetypes="ccccc" />
      <path
         id="path952-3-6-7-5-3-5-6-2-9-1-2"
         style="opacity:0.269373;fill:#74a27c;stroke-width:0.01;stop-color:#000000"
         d="m 41.703708,132.94095 c 0,0 26.38958,-17.42382 43.119913,-32.25947 21.906709,4.48288 21.906709,4.48288 53.472669,6.37757 -26.24019,19.30607 -26.38957,17.42383 -43.119909,32.25947 -21.906703,-4.48287 -53.472673,-6.37757 -53.472673,-6.37757 z"
         sodipodi:nodetypes="ccccc" />
      <path
         id="path952-3-0"
         style="opacity:0.269373;fill:#74a27c;stroke-width:0.01;stop-color:#000000"
         d="m 138.29629,132.94095 c 0,0 -31.56596,1.89469 -53.472671,6.37757 -16.730326,-14.83564 -16.730326,-14.83564 -43.11991,-32.25947 32.37771,-3.59946 31.565965,-1.89469 53.472672,-6.37757 16.730329,14.83564 43.119909,32.25947 43.119909,32.25947 z"
         sodipodi:nodetypes="ccccc" />
      <path
         id="path952-3-6-7-9"
         style="opacity:0.269373;fill:#74a27c;stroke-width:0.01;stop-color:#000000"
         d="m 125.35534,155.35534 c 0,0 -28.284272,-14.14213 -49.497477,-21.2132 -7.071069,-21.2132 -7.071069,-21.2132 -21.213202,-49.497477 29.839649,13.071632 28.28427,14.142138 49.497479,21.213197 7.07107,21.2132 21.2132,49.49748 21.2132,49.49748 z"
         sodipodi:nodetypes="ccccc" />
      <path
         id="path952-3-6-7-5-3-3"
         style="opacity:0.269373;fill:#74a27c;stroke-width:0.01;stop-color:#000000"
         d="m 102.94095,168.29629 c 0,0 -17.423829,-26.38958 -32.259468,-43.11991 4.482873,-21.9067 4.482873,-21.9067 6.377565,-53.472669 19.306078,26.240189 17.423828,26.389585 32.259473,43.119909 -4.48287,21.9067 -6.37757,53.47267 -6.37757,53.47267 z"
         sodipodi:nodetypes="ccccc" />
      <path
         id="path952-3-6-7-5-3-5-6-6"
         style="opacity:0.269373;fill:#74a27c;stroke-width:0.01;stop-color:#000000"
         d="m 77.059046,168.29629 c 0,0 -1.894687,-31.56596 -6.377563,-53.47267 14.835633,-16.730329 14.835633,-16.730329 32.259467,-43.119909 3.59946,32.377709 1.89469,31.565959 6.37757,53.472669 -14.835633,16.73033 -32.259474,43.11991 -32.259474,43.11991 z"
         sodipodi:nodetypes="ccccc" />
      <path
         id="path952-3-6-7-5-3-5-6-2-9-0"
         style="opacity:0.269373;fill:#74a27c;stroke-width:0.01;stop-color:#000000"
         d="m 54.64466,155.35534 c 0,0 14.142133,-28.28427 21.213204,-49.49748 21.213199,-7.071069 21.213199,-7.071069 49.497476,-21.213198 -13.07164,29.839648 -14.14213,28.284268 -21.2132,49.497478 -21.2132,7.07107 -49.49748,21.2132 -49.49748,21.2132 z"
         sodipodi:nodetypes="ccccc" />
      <path
         id="path952-3-6-7-5-3-5-6-2-9-1-2-6"
         style="opacity:0.269373;fill:#74a27c;stroke-width:0.01;stop-color:#000000"
         d="m 41.703708,132.94095 c 0,0 26.38958,-17.42382 43.119913,-32.25947 21.906709,4.48288 21.906709,4.48288 53.472669,6.37757 -26.24019,19.30607 -26.38957,17.42383 -43.119909,32.25947 -21.906703,-4.48287 -53.472673,-6.37757 -53.472673,-6.37757 z"
         sodipodi:nodetypes="ccccc" />
      <path
         id="path952-3-2"
         style="opacity:0.303931;fill:#ffed00;fill-opacity:1;stroke-width:0.00820579;stop-color:#000000"
         d="m 125.53209,140.51446 c 0,0 -25.42214,-5.20224 -43.737877,-6.30162 -10.109944,-15.3122 -10.109944,-15.3122 -27.326309,-34.727305 26.427616,4.023435 25.422151,5.202255 43.737882,6.301625 10.109944,15.31219 27.326304,34.7273 27.326304,34.7273 z"
         sodipodi:nodetypes="ccccc" />
      <path
         id="path952-3-6-7-5-3-1"
         style="opacity:0.303931;fill:#ffed00;fill-opacity:1;stroke-width:0.00820579;stop-color:#000000"
         d="m 89.999999,161.02893 c 0,0 -8.205786,-24.61736 -16.411572,-41.02893 C 81.79421,103.58843 81.79421,103.58843 89.999999,78.971072 99.72942,103.86978 98.205784,103.58843 106.41157,120 98.205795,136.41157 89.999999,161.02893 89.999999,161.02893 Z"
         sodipodi:nodetypes="ccccc" />
      <path
         id="path952-3-6-7-5-3-5-6-2-9-7"
         style="opacity:0.303931;fill:#ffed00;fill-opacity:1;stroke-width:0.00820579;stop-color:#000000"
         d="m 54.467903,140.51446 c 0,0 17.216362,-19.41509 27.326312,-34.7273 18.315725,-1.09938 18.315725,-1.09938 43.737875,-6.301625 -16.6982,20.875275 -17.21636,19.415095 -27.326304,34.727305 -18.315726,1.09938 -43.737883,6.30162 -43.737883,6.30162 z"
         sodipodi:nodetypes="ccccc" />
      <circle
         style="fill:#000000;fill-opacity:1;stroke-width:0.00992031;stop-color:#000000"
         id="path1578"
         cx="90"
         cy="120"
         r="19.840601" />
      <path
         id="path2205"
         style="opacity:0.613378;fill:#ffffff;fill-opacity:1;stroke:#000000;stroke-width:0.01;stroke-opacity:1;stop-color:#000000"
         d="m 51.291443,110.27957 9.693982,2.42311 a 30.000002,30.000002 0 0 1 0.129191,-0.52813 30.000002,30.000002 0 0 1 0.787032,-2.49597 30.000002,30.000002 0 0 1 1.001489,-2.41794 30.000002,30.000002 0 0 1 1.208712,-2.32183 30.000002,30.000002 0 0 1 1.406116,-2.2071 30.000002,30.000002 0 0 1 1.593184,-2.07636 30.000002,30.000002 0 0 1 1.768368,-1.929593 30.000002,30.000002 0 0 1 1.929598,-1.767851 30.000002,30.000002 0 0 1 2.075842,-1.593701 30.000002,30.000002 0 0 1 2.207617,-1.406116 30.000002,30.000002 0 0 1 2.321305,-1.208195 30.000002,30.000002 0 0 1 2.417941,-1.001489 30.000002,30.000002 0 0 1 2.495971,-0.787032 30.000002,30.000002 0 0 1 0.382406,-0.09353 L 80.286572,81.173857 A 40,40 0 0 0 51.291443,110.27957 Z" />
    </g>
  </g>
</svg>
