<?xml version="1.0" encoding="UTF-8" standalone="no"?>
<!-- Created with Inkscape (http://www.inkscape.org/) -->

<svg
   width="120mm"
   height="120mm"
   viewBox="0 0 120 120"
   version="1.1"
   id="svg8"
   sodipodi:docname="logo.svg"
   inkscape:version="1.1 (c68e22c387, 2021-05-23)"
   xmlns:inkscape="http://www.inkscape.org/namespaces/inkscape"
   xmlns:sodipodi="http://sodipodi.sourceforge.net/DTD/sodipodi-0.dtd"
   xmlns:xlink="http://www.w3.org/1999/xlink"
   xmlns="http://www.w3.org/2000/svg"
   xmlns:svg="http://www.w3.org/2000/svg"
   xmlns:rdf="http://www.w3.org/1999/02/22-rdf-syntax-ns#"
   xmlns:cc="http://creativecommons.org/ns#"
   xmlns:dc="http://purl.org/dc/elements/1.1/">
  <defs
     id="defs2">
    <linearGradient
       id="linearGradient851"
       inkscape:collect="always">
      <stop
         id="stop847"
         offset="0"
         style="stop-color:#1dcbff;stop-opacity:1" />
      <stop
         id="stop849"
         offset="1"
         style="stop-color:#d2d2d2;stop-opacity:1" />
    </linearGradient>
    <radialGradient
       inkscape:collect="always"
       xlink:href="#linearGradient851"
       id="radialGradient845"
       cx="72.964584"
       cy="67.396469"
       fx="72.964584"
       fy="67.396469"
       r="103.0324"
       gradientTransform="matrix(0.8067445,1.1984436,-0.72626377,0.48889392,63.048418,-44.425561)"
       gradientUnits="userSpaceOnUse" />
    <clipPath
       clipPathUnits="userSpaceOnUse"
       id="clipPath965">
      <ellipse
         ry="78.841858"
         rx="92.071686"
         cy="136.63828"
         cx="109.7034"
         id="ellipse967"
         style="font-style:normal;font-weight:normal;font-size:10.58333302px;line-height:1.25;font-family:sans-serif;letter-spacing:0px;word-spacing:0px;opacity:1;vector-effect:none;fill:none;fill-opacity:1;stroke:#ff1111;stroke-width:0.10530309;stroke-linecap:butt;stroke-linejoin:miter;stroke-miterlimit:4;stroke-dasharray:none;stroke-dashoffset:0;stroke-opacity:1" />
    </clipPath>
    <clipPath
       clipPathUnits="userSpaceOnUse"
       id="clipPath1373">
      <ellipse
         style="font-style:normal;font-weight:normal;font-size:10.5833px;line-height:1.25;font-family:sans-serif;letter-spacing:0px;word-spacing:0px;vector-effect:none;fill:none;fill-opacity:1;stroke:#000000;stroke-width:0.0704223;stroke-linecap:butt;stroke-linejoin:miter;stroke-miterlimit:4;stroke-dasharray:none;stroke-dashoffset:0;stroke-opacity:1"
         id="ellipse1375"
         cx="108.83955"
         cy="136.33318"
         rx="67.142731"
         ry="68.64637" />
    </clipPath>
  </defs>
  <sodipodi:namedview
     id="base"
     pagecolor="#ffffff"
     bordercolor="#666666"
     borderopacity="1.0"
     inkscape:pageopacity="0.0"
     inkscape:pageshadow="2"
     inkscape:zoom="0.98994949"
     inkscape:cx="212.63711"
     inkscape:cy="99.500026"
     inkscape:document-units="mm"
     inkscape:current-layer="layer1"
     showgrid="false"
     inkscape:window-width="4500"
     inkscape:window-height="2980"
     inkscape:window-x="0"
     inkscape:window-y="20"
     inkscape:window-maximized="1"
     fit-margin-top="0"
     fit-margin-left="0"
     fit-margin-right="0"
     fit-margin-bottom="0"
     inkscape:pagecheckerboard="true" />
  <metadata
     id="metadata5">
    <rdf:RDF>
      <cc:Work
         rdf:about="">
        <dc:format>image/svg+xml</dc:format>
        <dc:type
           rdf:resource="http://purl.org/dc/dcmitype/StillImage" />
      </cc:Work>
    </rdf:RDF>
  </metadata>
  <g
     inkscape:label="Layer 1"
     inkscape:groupmode="layer"
     id="layer1"
     transform="translate(-49.7034,-76.638275)">
    <g
       id="g1310"
       clip-path="url(#clipPath1373)">
      <text
         id="text824"
         y="126.44095"
         x="137.47424"
         style="font-style:normal;font-weight:normal;font-size:7.453px;line-height:1.25;font-family:sans-serif;letter-spacing:0px;word-spacing:0px;fill:#000000;fill-opacity:1;stroke:none;stroke-width:0.186325"
         xml:space="preserve"
         transform="scale(0.92536992,1.0806489)" />
      <path
         d="m 120.72478,110.91832 13.74945,-0.65807 -10.31209,41.32612 c -1.16457,4.56255 -1.74686,7.98447 -1.74686,10.26576 0,1.40385 0.43202,2.63223 1.29606,3.68512 0.9016,1.00903 1.99104,1.51355 3.26831,1.51355 2.59211,0 5.93556,-1.73289 10.03035,-5.19867 4.13235,-3.50966 7.53214,-8.48898 10.19939,-14.93797 2.70482,-6.49284 4.05722,-13.40247 4.05722,-20.72885 0,-12.1083 -3.34345,-22.04501 -10.03035,-29.810108 -6.64933,-7.808967 -15.32727,-11.71345 -26.03381,-11.71345 -9.24144,0 -17.637631,2.544496 -25.188558,7.633486 -7.550934,5.045123 -13.542848,12.393452 -17.975729,22.044982 -4.432887,9.65153 -6.649334,20.005 -6.649334,31.0604 0,15.17925 4.132352,27.59464 12.397056,37.24618 8.302272,9.69539 18.858547,14.54308 31.668845,14.54308 10.55628,0 20.02311,-3.31223 28.40052,-9.93669 8.37741,-6.62445 14.31296,-15.39857 17.80667,-26.32236 h 27.57618 c -4.50803,12.89797 -16.93312,40.66777 -25.57349,47.51158 -8.60281,6.88768 -25.40702,17.04361 -36.82733,17.04361 -14.46323,0 -40.672683,6.33512 -50.064392,-4.58865 -9.391708,-10.87992 -183.392668,42.96519 -35.510532,-77.18975 2.860299,-2.32401 8.947624,-23.75991 13.605909,-33.54306 4.658286,-9.82701 9.104871,-25.733961 17.519842,-31.04231 8.414965,-5.308347 32.187694,-18.132354 42.405873,-18.132354 8.30227,0 16.07518,0.731864 22.27371,4.63635 6.23609,3.860614 14.39657,-2.903232 17.51461,4.116064 3.11804,7.019297 5.89627,47.3837 5.89627,55.19268 0,9.08123 -1.69051,17.37277 -5.07153,24.87464 -3.34344,7.50188 -7.53214,13.05151 -12.56609,16.64889 -4.99639,3.55352 -10.38723,5.33028 -16.17252,5.33028 -3.71912,0 -6.55541,-1.07483 -8.50889,-3.22449 -1.95348,-2.14966 -2.93021,-4.91351 -2.93021,-8.29155 0,-2.36901 0.4508,-5.46188 1.3524,-9.27863 -3.11805,6.05415 -5.54111,10.2438 -7.26918,12.56895 -2.36672,3.1148 -4.714645,5.39608 -7.043784,6.84382 -1.502671,0.92126 -3.211965,1.3819 -5.12787,1.3819 -2.66725,0 -4.921259,-1.22838 -6.762033,-3.68512 -1.803206,-2.50064 -2.704812,-6.1419 -2.704812,-10.92379 0,-4.9135 0.601071,-9.71733 1.803212,-14.41149 1.239704,-4.73803 2.91143,-9.16897 5.015171,-13.2928 2.103741,-4.16772 4.526799,-7.89673 7.269179,-11.18703 2.779949,-3.29028 5.897997,-6.01027 9.354147,-8.15993 1.76564,-1.14063 3.66276,-1.71095 5.69137,-1.71095 2.10374,0 3.83182,0.76773 5.18422,2.3032 1.38997,1.53548 2.32915,4.2116 2.81752,8.02835 z m -8.50889,2.23741 c -1.42754,0 -2.8363,0.92128 -4.22627,2.76383 -1.87834,2.50063 -3.88817,6.66834 -6.02948,12.50312 -3.831819,10.48509 -5.747724,18.90825 -5.747724,25.26949 0,1.93031 0.338104,3.42191 1.014306,4.4748 0.713769,1.05291 1.483889,1.57936 2.310358,1.57936 0.71377,0 1.74686,-0.61419 3.09927,-1.84259 1.9159,-1.71095 3.96329,-4.60639 6.14217,-8.68635 2.17888,-4.07997 3.96331,-8.59866 5.35328,-13.55604 1.38997,-5.00124 2.08496,-9.60765 2.08496,-13.81924 0,-3.02708 -0.48837,-5.3303 -1.46511,-6.90964 -0.71377,-1.1845 -1.55903,-1.77674 -2.53576,-1.77674 z"
         style="font-style:italic;font-variant:normal;font-weight:bold;font-stretch:normal;font-size:50.8px;line-height:1.25;font-family:serif;-inkscape-font-specification:'serif Bold Italic';letter-spacing:0px;word-spacing:0px;fill:#999999;fill-opacity:1;stroke:none;stroke-width:0.649545"
         id="path830-6"
         inkscape:connector-curvature="0"
         sodipodi:nodetypes="cccscsccscscsscsccccscscsscssccscscccscsccccscccsccscscccscs" />
      <path
         d="m 117.27637,106.89127 13.74946,-0.65807 -10.3121,41.32611 c -1.16457,4.56255 -1.74686,7.98447 -1.74686,10.26576 0,1.40386 0.43203,2.63223 1.29606,3.68512 0.9016,1.00903 1.99104,1.51355 3.26831,1.51355 2.59211,0 5.93557,-1.73289 10.03035,-5.19867 4.13235,-3.50966 7.53214,-8.48898 10.19939,-14.93797 2.70482,-6.49284 4.05723,-13.40246 4.05723,-20.72885 0,-12.10829 -3.34346,-22.045 -10.03036,-29.8101 -6.64933,-7.808966 -15.32726,-11.713449 -26.03381,-11.713449 -9.24144,0 -17.637622,2.544495 -25.188554,7.633485 -7.550933,5.045122 -13.542843,12.393454 -17.975729,22.044984 -4.432885,9.65153 -6.649328,20.005 -6.649328,31.06039 0,15.17925 4.132351,27.59464 12.397052,37.24618 8.302269,9.69539 18.85855,14.54308 31.668839,14.54308 10.55628,0 20.02312,-3.31223 28.40052,-9.93669 8.37741,-6.62445 14.31297,-15.39857 17.80667,-26.32236 h 27.57618 c -4.50802,12.89797 -16.93312,40.66777 -25.57349,47.51158 -8.60281,6.88768 -25.40702,17.04362 -36.82733,17.04362 -14.46323,0 -40.672676,6.33511 -50.064383,-4.58866 -9.391708,-10.87991 -183.392667,42.96519 -35.510533,-77.18975 2.860298,-2.32401 8.947622,-23.75991 13.605909,-33.54305 4.658287,-9.827014 9.10487,-25.733962 17.519839,-31.042311 8.414969,-5.308347 32.187694,-18.132355 42.405868,-18.132355 8.30227,0 16.07518,0.731864 22.27371,4.636351 6.23609,3.860614 14.39657,-2.903232 17.51461,4.116063 3.11805,7.019298 5.89626,47.383702 5.89626,55.192682 0,9.08122 -1.69051,17.37277 -5.07151,24.87464 -3.34345,7.50187 -7.53215,13.0515 -12.5661,16.64888 -4.99639,3.55352 -10.38723,5.33028 -16.17252,5.33028 -3.71912,0 -6.55541,-1.07483 -8.50889,-3.22449 -1.95348,-2.14966 -2.93021,-4.91351 -2.93021,-8.29155 0,-2.36901 0.4508,-5.46188 1.3524,-9.27863 -3.11805,6.05416 -5.5411,10.24381 -7.269177,12.56895 -2.366712,3.1148 -4.714638,5.39608 -7.043781,6.84382 -1.502673,0.92126 -3.211964,1.3819 -5.127873,1.3819 -2.667243,0 -4.921253,-1.22837 -6.762028,-3.68512 -1.803207,-2.50063 -2.704811,-6.1419 -2.704811,-10.92379 0,-4.9135 0.60107,-9.71733 1.803208,-14.41149 1.239705,-4.73803 2.911429,-9.16896 5.015171,-13.2928 2.103743,-4.16772 4.526803,-7.89672 7.269182,-11.18702 2.779945,-3.29029 5.897992,-6.01027 9.354139,-8.15993 1.76564,-1.14063 3.66276,-1.71095 5.69138,-1.71095 2.10374,0 3.83181,0.76773 5.18421,2.3032 1.38998,1.53548 2.32915,4.21159 2.81752,8.02834 z m -8.50889,2.23741 c -1.42754,0 -2.83629,0.92128 -4.22627,2.76383 -1.87834,2.50063 -3.88816,6.66833 -6.029474,12.50312 -3.831816,10.48508 -5.747725,18.90824 -5.747725,25.26948 0,1.93031 0.338102,3.42191 1.014306,4.4748 0.71377,1.05291 1.48389,1.57936 2.31036,1.57936 0.713769,0 1.746858,-0.61419 3.099264,-1.84259 1.915909,-1.71094 3.963299,-4.60639 6.142169,-8.68635 2.17888,-4.07997 3.96331,-8.59866 5.35328,-13.55604 1.38997,-5.00124 2.08496,-9.60765 2.08496,-13.81923 0,-3.02708 -0.48837,-5.3303 -1.46511,-6.90965 -0.71377,-1.18449 -1.55903,-1.77673 -2.53576,-1.77673 z"
         style="font-style:italic;font-variant:normal;font-weight:bold;font-stretch:normal;font-size:50.8px;line-height:1.25;font-family:serif;-inkscape-font-specification:'serif Bold Italic';letter-spacing:0px;word-spacing:0px;fill:#000000;fill-opacity:1;stroke:none;stroke-width:0.649545;opacity:1"
         id="path830"
         inkscape:connector-curvature="0"
         sodipodi:nodetypes="cccscsccscscsscsccccscscsscssccscscccscsccccscccsccscscccscs" />
    </g>
  </g>
</svg>
