<?xml version="1.0" encoding="UTF-8" standalone="no"?>
<!-- Created with Inkscape (http://www.inkscape.org/) -->

<svg
   width="100mm"
   height="100mm"
   viewBox="0 0 100 100"
   version="1.1"
   id="svg5"
   inkscape:version="1.2.2 (b0a8486541, 2022-12-01)"
   sodipodi:docname="logo.svg"
   xmlns:inkscape="http://www.inkscape.org/namespaces/inkscape"
   xmlns:sodipodi="http://sodipodi.sourceforge.net/DTD/sodipodi-0.dtd"
   xmlns:xlink="http://www.w3.org/1999/xlink"
   xmlns="http://www.w3.org/2000/svg"
   xmlns:svg="http://www.w3.org/2000/svg">
  <sodipodi:namedview
     id="namedview7"
     pagecolor="#ffffff"
     bordercolor="#111111"
     borderopacity="1"
     inkscape:showpageshadow="0"
     inkscape:pageopacity="0"
     inkscape:pagecheckerboard="1"
     inkscape:deskcolor="#d1d1d1"
     inkscape:document-units="mm"
     showgrid="false"
     inkscape:zoom="1.1893044"
     inkscape:cx="240.4767"
     inkscape:cy="-12.612414"
     inkscape:window-width="2248"
     inkscape:window-height="2978"
     inkscape:window-x="0"
     inkscape:window-y="20"
     inkscape:window-maximized="1"
     inkscape:current-layer="layer1">
    <inkscape:grid
       type="xygrid"
       id="grid234"
       dotted="true"
       originx="-40"
       originy="-69.999999" />
  </sodipodi:namedview>
  <defs
     id="defs2">
    <linearGradient
       inkscape:collect="always"
       id="linearGradient1822">
      <stop
         style="stop-color:#e35434;stop-opacity:1;"
         offset="0"
         id="stop1818" />
      <stop
         style="stop-color:#df2c63;stop-opacity:1;"
         offset="1"
         id="stop1820" />
    </linearGradient>
    <radialGradient
       inkscape:collect="always"
       xlink:href="#linearGradient1822"
       id="radialGradient1824"
       cx="58.259754"
       cy="81.366425"
       fx="58.259754"
       fy="81.366425"
       r="50"
       gradientUnits="userSpaceOnUse"
       gradientTransform="matrix(1.3370512,1.4775589,-2.1580233,1.9532269,155.95407,-163.64289)" />
  </defs>
  <g
     inkscape:label="Layer 1"
     inkscape:groupmode="layer"
     id="layer1"
     transform="translate(-40,-70)">
    <g
       id="g1041">
      <circle
         style="fill:url(#radialGradient1824);fill-opacity:1;stroke-width:0.00833333;stop-color:#000000"
         id="path236"
         cx="90"
         cy="120"
         r="50" />
      <path
         id="path952-3"
         style="opacity:0.52730072;fill:#74a27c;stroke-width:0.00860059;stop-color:#000000"
         d="m 131.53764,131.12995 c 0,0 -27.14856,1.62956 -45.989629,5.4851 -14.389056,-12.75952 -14.389056,-12.75952 -37.08564,-27.745 27.846721,-3.09577 27.148572,-1.62956 45.989618,-5.4851 14.389061,12.75952 37.085651,27.745 37.085651,27.745 z"
         sodipodi:nodetypes="ccccc" />
      <path
         id="path952-3-6-7"
         style="opacity:0.52730072;fill:#74a27c;stroke-width:0.00860059;stop-color:#000000"
         d="m 120.40766,150.40766 c 0,0 -24.326129,-12.16306 -42.570724,-18.2446 -6.081531,-18.24458 -6.081531,-18.24458 -18.24459,-42.570713 25.663839,11.242363 24.326123,12.163063 42.570714,18.244593 6.08154,18.24458 18.2446,42.57072 18.2446,42.57072 z"
         sodipodi:nodetypes="ccccc" />
      <path
         id="path952-3-6-7-5-3"
         style="opacity:0.52730072;fill:#74a27c;stroke-width:0.00860059;stop-color:#000000"
         d="m 101.12995,161.53764 c 0,0 -14.985488,-22.69659 -27.745004,-37.08564 3.855534,-18.84107 3.855534,-18.84107 5.48508,-45.989627 16.604352,22.568097 14.985508,22.696587 27.745024,37.085627 -3.85553,18.84107 -5.4851,45.98964 -5.4851,45.98964 z"
         sodipodi:nodetypes="ccccc" />
      <path
         id="path952-3-6-7-5-3-5-6"
         style="opacity:0.52730072;fill:#74a27c;stroke-width:0.00860059;stop-color:#000000"
         d="m 78.870025,161.53764 c 0,0 -1.629542,-27.14856 -5.485078,-45.98964 12.759511,-14.38904 12.759511,-14.38904 27.745003,-37.085627 3.09577,27.846717 1.62956,27.148547 5.4851,45.989627 -12.759505,14.38905 -27.745025,37.08564 -27.745025,37.08564 z"
         sodipodi:nodetypes="ccccc" />
      <path
         id="path952-3-6-7-5-3-5-6-2-9"
         style="opacity:0.52730072;fill:#74a27c;stroke-width:0.00860059;stop-color:#000000"
         d="m 59.592346,150.40766 c 0,0 12.163059,-24.32613 18.244591,-42.57072 18.24459,-6.08153 18.24459,-6.08153 42.570723,-18.244594 -11.24239,25.663844 -12.16306,24.326124 -18.2446,42.570714 -18.244584,6.08154 -42.570715,18.2446 -42.570714,18.2446 z"
         sodipodi:nodetypes="ccccc" />
      <path
         id="path952-3-6-7-5-3-5-6-2-9-1-2"
         style="opacity:0.52730072;fill:#74a27c;stroke-width:0.00860059;stop-color:#000000"
         d="m 48.46237,131.12995 c 0,0 22.69658,-14.98547 37.085643,-27.745 18.841067,3.85554 18.841067,3.85554 45.989627,5.4851 -22.56811,16.60432 -22.69658,14.98548 -37.085651,27.745 -18.841042,-3.85553 -45.989619,-5.4851 -45.989619,-5.4851 z"
         sodipodi:nodetypes="ccccc" />
      <path
         id="path952-3-0"
         style="opacity:0.52730072;fill:#e65c00;stroke-width:0.00860059;stop-color:#000000;fill-opacity:1"
         d="m 131.53764,131.12995 c 0,0 -27.14856,1.62956 -45.989629,5.4851 -14.389056,-12.75952 -14.389056,-12.75952 -37.08564,-27.745 27.846721,-3.09577 27.148572,-1.62956 45.989618,-5.4851 14.389061,12.75952 37.085651,27.745 37.085651,27.745 z"
         sodipodi:nodetypes="ccccc" />
      <path
         id="path952-3-6-7-9"
         style="opacity:0.52730072;fill:#ffcc00;stroke-width:0.00860059;stop-color:#000000"
         d="m 120.40766,150.40766 c 0,0 -24.326129,-12.16306 -42.570724,-18.2446 -6.081531,-18.24458 -6.081531,-18.24458 -18.24459,-42.570713 25.663839,11.242363 24.326123,12.163063 42.570714,18.244593 6.08154,18.24458 18.2446,42.57072 18.2446,42.57072 z"
         sodipodi:nodetypes="ccccc" />
      <path
         id="path952-3-6-7-5-3-3"
         style="opacity:0.52730072;fill:#ff6600;stroke-width:0.00860059;stop-color:#000000"
         d="m 101.12995,161.53764 c 0,0 -14.985488,-22.69659 -27.745004,-37.08564 3.855534,-18.84107 3.855534,-18.84107 5.48508,-45.989627 16.604352,22.568097 14.985508,22.696587 27.745024,37.085627 -3.85553,18.84107 -5.4851,45.98964 -5.4851,45.98964 z"
         sodipodi:nodetypes="ccccc" />
      <path
         id="path952-3-6-7-5-3-5-6-6"
         style="opacity:0.52730072;fill:#ff7f2a;stroke-width:0.00860059;stop-color:#000000"
         d="m 78.870025,161.53764 c 0,0 -1.629542,-27.14856 -5.485078,-45.98964 12.759511,-14.38904 12.759511,-14.38904 27.745003,-37.085627 3.09577,27.846717 1.62956,27.148547 5.4851,45.989627 -12.759505,14.38905 -27.745025,37.08564 -27.745025,37.08564 z"
         sodipodi:nodetypes="ccccc" />
      <path
         id="path952-3-6-7-5-3-5-6-2-9-0"
         style="opacity:0.52730072;fill:#ff9955;stroke-width:0.00860059;stop-color:#000000"
         d="m 59.592346,150.40766 c 0,0 12.163059,-24.32613 18.244591,-42.57072 18.24459,-6.08153 18.24459,-6.08153 42.570723,-18.244594 -11.24239,25.663844 -12.16306,24.326124 -18.2446,42.570714 -18.244584,6.08154 -42.570715,18.2446 -42.570714,18.2446 z"
         sodipodi:nodetypes="ccccc" />
      <path
         id="path952-3-6-7-5-3-5-6-2-9-1-2-6"
         style="opacity:0.52730072;fill:#ffcc00;stroke-width:0.00860059;stop-color:#000000"
         d="m 48.46237,131.12995 c 0,0 22.69658,-14.98547 37.085643,-27.745 18.841067,3.85554 18.841067,3.85554 45.989627,5.4851 -22.56811,16.60432 -22.69658,14.98548 -37.085651,27.745 -18.841042,-3.85553 -45.989619,-5.4851 -45.989619,-5.4851 z"
         sodipodi:nodetypes="ccccc" />
      <path
         id="path952-3-2"
         style="opacity:0.52730072;fill:#ffed00;fill-opacity:1;stroke-width:0.00705744;stop-color:#000000"
         d="m 120.55967,137.64364 c 0,0 -21.864525,-4.47424 -37.617128,-5.41977 -8.695141,-13.16941 -8.695141,-13.16941 -23.502217,-29.8675 22.729292,3.46038 21.864532,4.47424 37.617129,5.41976 8.695136,13.1694 23.502216,29.86751 23.502216,29.86751 z"
         sodipodi:nodetypes="ccccc" />
      <path
         id="path952-3-6-7-5-3-1"
         style="opacity:0.52730072;fill:#ffed00;fill-opacity:1;stroke-width:0.00705744;stop-color:#000000"
         d="m 89.999999,155.28727 c 0,0 -7.057455,-21.17235 -14.114908,-35.28727 7.05745,-14.11491 7.05745,-14.11491 14.114908,-35.287275 8.36787,21.414345 7.057455,21.172365 14.114921,35.287275 -7.057458,14.11492 -14.114921,35.28727 -14.114921,35.28727 z"
         sodipodi:nodetypes="ccccc" />
      <path
         id="path952-3-6-7-5-3-5-6-2-9-7"
         style="opacity:0.52730072;fill:#ffed00;fill-opacity:1;stroke-width:0.00705744;stop-color:#000000"
         d="m 59.440324,137.64364 c 0,0 14.807073,-16.69809 23.50222,-29.86751 15.752592,-0.94553 15.752592,-0.94553 37.617126,-5.41976 -14.36144,17.95394 -14.80708,16.69809 -23.502217,29.8675 -15.752593,0.94553 -37.617129,5.41977 -37.617129,5.41977 z"
         sodipodi:nodetypes="ccccc" />
    </g>
  </g>
</svg>
