<?xml version="1.0" encoding="UTF-8" standalone="no"?>
<!-- Created with Inkscape (http://www.inkscape.org/) -->

<svg
   width="120mm"
   height="120mm"
   viewBox="0 0 120 120"
   version="1.1"
   id="svg1"
   inkscape:version="1.3.2 (091e20e, 2023-11-25)"
   sodipodi:docname="logo.svg"
   xmlns:inkscape="http://www.inkscape.org/namespaces/inkscape"
   xmlns:sodipodi="http://sodipodi.sourceforge.net/DTD/sodipodi-0.dtd"
   xmlns:xlink="http://www.w3.org/1999/xlink"
   xmlns="http://www.w3.org/2000/svg"
   xmlns:svg="http://www.w3.org/2000/svg">
  <sodipodi:namedview
     id="namedview1"
     pagecolor="#ffffff"
     bordercolor="#000000"
     borderopacity="0.25"
     inkscape:showpageshadow="2"
     inkscape:pageopacity="0.0"
     inkscape:pagecheckerboard="true"
     inkscape:deskcolor="#d1d1d1"
     inkscape:document-units="mm"
     showgrid="true"
     inkscape:zoom="1.1893044"
     inkscape:cx="221.97849"
     inkscape:cy="218.61518"
     inkscape:window-width="2560"
     inkscape:window-height="1603"
     inkscape:window-x="0"
     inkscape:window-y="61"
     inkscape:window-maximized="0"
     inkscape:current-layer="layer1">
    <inkscape:grid
       id="grid1"
       units="mm"
       originx="-25"
       originy="-80.000016"
       spacingx="0.99999998"
       spacingy="1"
       empcolor="#0099e5"
       empopacity="0.30196078"
       color="#0099e5"
       opacity="0.14901961"
       empspacing="5"
       dotted="false"
       gridanglex="30"
       gridanglez="30"
       visible="true" />
  </sodipodi:namedview>
  <defs
     id="defs1">
    <linearGradient
       id="linearGradient3"
       inkscape:collect="always">
      <stop
         style="stop-color:#fff5b6;stop-opacity:1;"
         offset="0"
         id="stop3" />
      <stop
         style="stop-color:#ffcb92;stop-opacity:1;"
         offset="1"
         id="stop4" />
    </linearGradient>
    <linearGradient
       inkscape:collect="always"
       xlink:href="#linearGradient3"
       id="linearGradient4"
       x1="59.951385"
       y1="140"
       x2="110.04861"
       y2="140"
       gradientUnits="userSpaceOnUse"
       gradientTransform="matrix(2.4,0,0,2.4,-119,-196)" />
  </defs>
  <g
     inkscape:label="Layer 1"
     inkscape:groupmode="layer"
     id="layer1"
     transform="translate(-25,-80.000015)">
    <g
       id="g4">
      <circle
         style="fill:url(#linearGradient4);stroke:none;stroke-width:0.233342;stroke-miterlimit:10.433;-inkscape-stroke:none"
         id="path1"
         cx="85"
         cy="140.00002"
         r="60" />
      <path
         sodipodi:type="star"
         style="opacity:0.544156;fill:#c0009b;fill-opacity:1;stroke:none;stroke-width:0.0972259;stroke-miterlimit:10.433;stroke-opacity:1;-inkscape-stroke:none"
         id="path3"
         inkscape:flatsided="false"
         sodipodi:sides="12"
         sodipodi:cx="85"
         sodipodi:cy="140"
         sodipodi:r1="21.213203"
         sodipodi:r2="3.8183765"
         sodipodi:arg1="0.78539814"
         sodipodi:arg2="1.0471975"
         inkscape:rounded="-3.1225023e-17"
         inkscape:randomized="0"
         d="M 100,155 86.909188,143.30681 90.490382,160.49038 85,143.81838 79.509619,160.49038 83.090812,143.30681 70,155 81.693189,141.90919 64.509619,145.49038 81.181623,140 64.509619,134.50962 81.693189,138.09081 70,125 83.090812,136.69319 79.509618,119.50962 85,136.18162 90.490381,119.50962 86.909188,136.69319 100,125 88.306811,138.09081 105.49038,134.50962 88.818377,140 l 16.672003,5.49038 -17.183569,-3.58119 z"
         inkscape:transform-center-y="-1.4530851e-06"
         transform="matrix(2.2151899,-0.59355835,0.59355835,2.2151899,-186.38931,-119.67412)" />
      <path
         sodipodi:type="star"
         style="opacity:0.544156;fill:#85002a;fill-opacity:1;stroke:none;stroke-width:0.0972259;stroke-miterlimit:10.433;stroke-opacity:1;-inkscape-stroke:none"
         id="path3-6"
         inkscape:flatsided="false"
         sodipodi:sides="36"
         sodipodi:cx="85"
         sodipodi:cy="140"
         sodipodi:r1="21.213203"
         sodipodi:r2="10.182337"
         sodipodi:arg1="0.78539814"
         sodipodi:arg2="0.8726646"
         inkscape:rounded="-3.1225023e-17"
         inkscape:randomized="0"
         d="m 100,155 -8.45492,-7.19988 5.622314,9.57672 -7.076225,-8.55868 3.873919,10.40753 -5.482523,-9.65742 2.007817,10.92211 -3.722238,-10.46274 0.08071,11.10484 L 85,150.18234 l -1.848852,10.95014 0.08071,-11.10484 -3.722237,10.46274 2.007817,-10.92211 -5.482523,9.65742 3.873919,-10.40753 -7.076225,8.55868 5.622313,-9.57672 L 70,155 l 7.199878,-8.45492 -9.576717,5.62231 8.558677,-7.07622 -10.407529,3.87392 9.657424,-5.48253 -10.922114,2.00782 10.462737,-3.72224 -11.104837,0.0807 L 74.817663,140 l -10.950144,-1.84885 11.104837,0.0807 -10.462737,-3.72224 10.922114,2.00782 -9.657425,-5.48253 10.40753,3.87392 -8.558677,-7.07622 9.576716,5.62231 L 70,125 l 8.45492,7.19988 -5.622314,-9.57672 7.076225,8.55868 -3.873919,-10.40753 5.482523,9.65742 -2.007817,-10.92211 3.722238,10.46274 -0.08071,-11.10484 L 85,129.81766 l 1.848852,-10.95014 -0.08071,11.10484 3.722237,-10.46274 -2.007817,10.92211 5.482523,-9.65742 -3.873919,10.40753 7.076225,-8.55868 -5.622313,9.57672 L 100,125 l -7.199878,8.45492 9.576718,-5.62231 -8.558678,7.07622 10.407528,-3.87392 -9.657423,5.48253 10.922113,-2.00782 -10.462736,3.72224 11.104836,-0.0807 L 95.182337,140 l 10.950143,1.84885 -11.104836,-0.0807 10.462736,3.72224 -10.922113,-2.00782 9.657423,5.48253 -10.407528,-3.87392 8.558678,7.07622 -9.576717,-5.62231 z"
         inkscape:transform-center-y="-1.5126531e-06"
         transform="matrix(1.8721597,-0.62036614,0.62036614,1.8721597,-160.98483,-69.371221)" />
      <path
         sodipodi:type="star"
         style="opacity:0.544156;fill:#ce66ff;fill-opacity:1;stroke:none;stroke-width:0.0972259;stroke-miterlimit:10.433;stroke-opacity:1;-inkscape-stroke:none"
         id="path3-6-3"
         inkscape:flatsided="false"
         sodipodi:sides="24"
         sodipodi:cx="85"
         sodipodi:cy="140"
         sodipodi:r1="21.213203"
         sodipodi:r2="5.9396968"
         sodipodi:arg1="0.78539814"
         sodipodi:arg2="0.91629783"
         inkscape:rounded="-3.1225023e-17"
         inkscape:randomized="0"
         d="m 100,155 -11.384142,-10.28772 6.990744,13.65889 -8.333578,-12.88361 3.217358,15.00282 -4.715096,-14.6015 L 85,161.2132 l -0.775286,-15.32432 -4.715095,14.6015 3.217358,-15.00282 -8.333578,12.88361 6.990743,-13.65889 L 70,155 80.287722,143.61586 66.628827,150.6066 79.512436,142.27302 64.509619,145.49038 79.111118,140.77529 63.786797,140 79.111118,139.22471 64.509619,134.50962 79.512436,137.72698 66.628827,129.3934 80.287722,136.38414 70,125 l 11.384142,10.28772 -6.990744,-13.65889 8.333578,12.88361 -3.217358,-15.00282 4.715096,14.6015 L 85,118.7868 l 0.775286,15.32432 4.715095,-14.6015 -3.217358,15.00282 8.333578,-12.88361 -6.990743,13.65889 L 100,125 89.712278,136.38414 103.37117,129.3934 90.487564,137.72698 105.49038,134.50962 90.888882,139.22471 106.2132,140 l -15.324318,0.77529 14.601498,4.71509 -15.002816,-3.21736 12.883606,8.33358 -13.658892,-6.99074 z"
         inkscape:transform-center-x="1.0002135e-06"
         inkscape:transform-center-y="-1.3945734e-06"
         transform="matrix(2.4782601,-0.98454971,0.98454971,2.4782601,-263.48907,-123.26968)" />
      <path
         sodipodi:type="star"
         style="opacity:0.544156;fill:#2943ff;fill-opacity:1;stroke:none;stroke-width:0.0972259;stroke-miterlimit:10.433;stroke-opacity:1;-inkscape-stroke:none"
         id="path3-6-3-2"
         inkscape:flatsided="false"
         sodipodi:sides="18"
         sodipodi:cx="85"
         sodipodi:cy="140"
         sodipodi:r1="21.213203"
         sodipodi:r2="5.9396968"
         sodipodi:arg1="0.78539814"
         sodipodi:arg2="0.95993107"
         inkscape:rounded="-3.1225023e-17"
         inkscape:randomized="0"
         d="m 100,155 -11.59313,-10.13449 5.558218,14.36018 -7.427781,-13.48838 0.311546,15.39517 -2.366532,-15.21539 -4.972702,14.57329 2.980157,-15.10719 -9.657169,11.99365 L 80.8,144.2 l -13.176839,7.96739 11.993646,-9.65717 -15.107188,2.98016 14.573287,-4.9727 -15.215387,-2.36653 15.395174,0.31154 -13.488385,-7.42778 14.360177,5.55822 L 70,125 l 11.59313,10.13449 -5.558218,-14.36018 7.427781,13.48838 -0.311546,-15.39517 2.366532,15.21539 4.972702,-14.57329 -2.980157,15.10719 9.657169,-11.99365 L 89.2,135.8 l 13.17684,-7.96739 -11.993647,9.65717 15.107187,-2.98016 -14.573286,4.9727 15.215386,2.36653 -15.395173,-0.31154 13.488383,7.42778 -14.360175,-5.55822 z"
         inkscape:transform-center-y="-1.2891895e-06"
         transform="matrix(2.3472185,-1.2655737,1.2655737,2.3472185,-291.69388,-81.036816)" />
      <ellipse
         style="opacity:0.3;fill:#560f00;fill-opacity:1;stroke:none;stroke-width:0.271024;stroke-miterlimit:10.433;stroke-opacity:1;-inkscape-stroke:none"
         id="path2-3"
         cx="85"
         cy="140.00002"
         rx="27.875614"
         ry="27.87561" />
      <ellipse
         style="opacity:0.3;fill:#560f00;fill-opacity:1;stroke:none;stroke-width:0.222971;stroke-miterlimit:10.433;stroke-opacity:1;-inkscape-stroke:none"
         id="path2"
         cx="85"
         cy="140.00002"
         rx="22.933334"
         ry="22.933332" />
    </g>
  </g>
</svg>
