<?xml version="1.0" encoding="UTF-8" standalone="no"?>
<!-- Created with Inkscape (http://www.inkscape.org/) -->

<svg
   width="296.4874mm"
   height="298.03735mm"
   viewBox="0 0 296.48741 298.03735"
   version="1.1"
   id="svg15185"
   inkscape:version="1.4.2 (ebf0e940, 2025-05-08)"
   sodipodi:docname="background.svg"
   xmlns:inkscape="http://www.inkscape.org/namespaces/inkscape"
   xmlns:sodipodi="http://sodipodi.sourceforge.net/DTD/sodipodi-0.dtd"
   xmlns="http://www.w3.org/2000/svg"
   xmlns:svg="http://www.w3.org/2000/svg">
  <sodipodi:namedview
     id="namedview15187"
     pagecolor="#000000"
     bordercolor="#111111"
     borderopacity="1"
     inkscape:showpageshadow="0"
     inkscape:pageopacity="0"
     inkscape:pagecheckerboard="1"
     inkscape:deskcolor="#d1d1d1"
     inkscape:document-units="mm"
     showgrid="false"
     inkscape:zoom="1.1893044"
     inkscape:cx="310.2654"
     inkscape:cy="636.50652"
     inkscape:window-width="3840"
     inkscape:window-height="2107"
     inkscape:window-x="0"
     inkscape:window-y="25"
     inkscape:window-maximized="0"
     inkscape:current-layer="layer1" />
  <defs
     id="defs15182" />
  <g
     inkscape:label="Layer 1"
     inkscape:groupmode="layer"
     id="layer1"
     transform="translate(222.26203,716.36952)">
    <path
       style="color:#000000;opacity:0.528017;mix-blend-mode:normal;vector-effect:non-scaling-stroke;fill:none;fill-opacity:1;fill-rule:evenodd;stroke:#d4004d;stroke-width:0.264583;stroke-linecap:round;stroke-dasharray:none;stroke-opacity:0.365741;-inkscape-stroke:hairline"
       d="m -93.259608,-576.90182 c 1.4057,-4.93914 4.68163,-9.34284 9.49394,-12.02284 9.624644,-5.36001 21.891318,-1.86997 27.251257,7.75475 0.290104,0.52086 0.555446,1.05252 0.797943,1.59726 a 4.0066108,4.0066108 0 0 1 -2.032099,5.29119 4.0066108,4.0066108 0 0 1 -5.288126,-2.03149 c -0.145504,-0.32669 -0.305324,-0.64595 -0.479367,-0.95847 -3.25291,-5.84106 -10.509214,-7.9075 -16.350331,-4.65468 -5.841137,3.25295 -7.904527,10.50991 -4.651617,16.35111 0.17454,0.31333 0.36171,0.61707 0.56358,0.91367 a 4.0066108,4.0066108 0 0 1 -1.05813,5.567 4.0066108,4.0066108 0 0 1 -5.56398,-1.05738 c -0.33645,-0.49427 -0.65225,-1.00245 -0.94314,-1.5248 -2.67998,-4.81229 -3.14565,-10.28618 -1.73993,-15.22532 z"
       id="path3535-8" />
    <path
       style="color:#000000;opacity:0.528017;mix-blend-mode:normal;vector-effect:non-scaling-stroke;fill:none;fill-opacity:1;fill-rule:evenodd;stroke:#d4004d;stroke-width:0.264583;stroke-linecap:round;stroke-dasharray:none;stroke-opacity:0.365741;-inkscape-stroke:hairline"
       d="m -109.42573,-578.24405 c 0.52865,-2.74693 1.38147,-5.44987 2.55892,-8.05107 a 4.0066108,4.0066108 0 0 1 5.30103,-1.99695 4.0066108,4.0066108 0 0 1 1.996962,5.30104 c -3.665942,8.09857 -3.277702,17.44667 1.04746,25.21316 0.77813,1.39729 1.6748,2.72643 2.67932,3.97096 a 4.0066108,4.0066108 0 0 1 -0.60131,5.6338 4.0066108,4.0066108 0 0 1 -5.633792,-0.60129 c -1.29151,-1.60009 -2.44238,-3.30773 -3.44284,-5.1043 -4.16765,-7.48366 -5.49169,-16.12414 -3.90575,-24.36535 z"
       id="path3531-7" />
    <path
       style="color:#000000;opacity:0.528017;mix-blend-mode:normal;vector-effect:non-scaling-stroke;fill:none;fill-opacity:1;fill-rule:evenodd;stroke:#d4004d;stroke-width:0.264583;stroke-linecap:round;stroke-dasharray:none;stroke-opacity:0.365741;-inkscape-stroke:hairline"
       d="m -73.865926,-603.72574 a 4.0066108,4.0066108 0 0 1 4.491155,-3.45887 c 11.331324,1.47083 21.301285,8.23406 26.860664,18.2169 0.999971,1.79562 1.845817,3.67288 2.525864,5.61235 a 4.0066108,4.0066108 0 0 1 -2.455386,5.10699 4.0066108,4.0066108 0 0 1 -5.106904,-2.45546 c -0.52893,-1.50847 -1.187495,-2.96877 -1.965251,-4.36538 -4.327111,-7.77 -12.070946,-13.02368 -20.890602,-14.16836 a 4.0066108,4.0066108 0 0 1 -3.45954,-4.48817 z"
       id="path3527-3" />
    <path
       style="color:#000000;opacity:0.528017;mix-blend-mode:normal;vector-effect:non-scaling-stroke;fill:none;fill-opacity:1;fill-rule:evenodd;stroke:#d4004d;stroke-width:0.264583;stroke-linecap:round;stroke-dasharray:none;stroke-opacity:0.365741;-inkscape-stroke:hairline"
       d="m -125.1082,-581.55947 a 4.0066108,4.0066108 0 0 1 4.70945,-3.15148 4.0066108,4.0066108 0 0 1 3.15157,4.70947 c -2.03388,10.25124 -0.35936,20.8907 4.72554,30.02141 1.81641,3.26159 4.03909,6.27921 6.61623,8.98026 a 4.0066108,4.0066108 0 0 1 -0.13305,5.6647 4.0066108,4.0066108 0 0 1 -5.66461,-0.13359 c -3.04568,-3.19223 -5.67361,-6.75878 -7.82029,-10.61342 -6.00845,-10.7891 -7.98818,-23.36451 -5.58488,-35.47789 z"
       id="path3523-1" />
    <path
       style="color:#000000;opacity:0.528017;mix-blend-mode:normal;vector-effect:non-scaling-stroke;fill:none;fill-opacity:1;fill-rule:evenodd;stroke:#d4004d;stroke-width:0.264583;stroke-linecap:round;stroke-dasharray:none;stroke-opacity:0.365741;-inkscape-stroke:hairline"
       d="m -60.899828,-617.85226 a 4.0066108,4.0066108 0 0 1 5.159462,-2.34442 c 11.567088,4.33435 21.216572,12.63924 27.226535,23.43104 2.146661,3.85478 3.795522,7.96512 4.905644,12.23524 a 4.0066108,4.0066108 0 0 1 -2.867203,4.88677 4.0066108,4.0066108 0 0 1 -4.886024,-2.87026 c -0.939317,-3.61324 -2.33463,-7.09072 -4.151044,-10.35244 -5.086164,-9.13301 -13.250142,-16.16072 -23.039233,-19.82887 a 4.0066108,4.0066108 0 0 1 -2.348137,-5.15706 z"
       id="path3519-0" />
    <path
       style="color:#000000;opacity:0.528017;mix-blend-mode:normal;vector-effect:non-scaling-stroke;fill:none;fill-opacity:1;fill-rule:evenodd;stroke:#d4004d;stroke-width:0.264583;stroke-linecap:round;stroke-dasharray:none;stroke-opacity:0.365741;-inkscape-stroke:hairline"
       d="m -141.48205,-580.78763 a 4.0066108,4.0066108 0 0 1 4.517,-3.41757 4.0066108,4.0066108 0 0 1 3.41992,4.52069 c -1.7949,12.93232 0.66775,26.09471 7.02016,37.50156 3.3254,5.97128 7.64632,11.33196 12.77433,15.85063 a 4.0066108,4.0066108 0 0 1 0.35733,5.65552 4.0066108,4.0066108 0 0 1 -5.65554,0.35732 c -5.81168,-5.12117 -10.70597,-11.19675 -14.47474,-17.9643 -7.19878,-12.92652 -9.99249,-27.8485 -7.95846,-42.50385 z"
       id="path3515-0" />
    <path
       style="color:#000000;opacity:0.528017;mix-blend-mode:normal;vector-effect:non-scaling-stroke;fill:none;fill-opacity:1;fill-rule:evenodd;stroke:#d4004d;stroke-width:0.264583;stroke-linecap:round;stroke-dasharray:none;stroke-opacity:0.365741;-inkscape-stroke:hairline"
       d="m -51.82379,-631.6996 a 4.0066108,4.0066108 0 0 1 5.284118,-2.04904 c 13.568663,5.98194 24.814396,16.23062 32.029167,29.18601 3.768413,6.76674 6.353745,14.12504 7.647355,21.76159 a 4.0066108,4.0066108 0 0 1 -3.281382,4.62095 4.0066108,4.0066108 0 0 1 -4.617956,-3.28061 c -1.141427,-6.73813 -3.424592,-13.2327 -6.749694,-19.20343 -6.366496,-11.43208 -16.289189,-20.47266 -28.262561,-25.7513 a 4.0066108,4.0066108 0 0 1 -2.049047,-5.28417 z"
       id="path3511-5" />
    <path
       style="color:#000000;opacity:0.528017;mix-blend-mode:normal;vector-effect:non-scaling-stroke;fill:none;fill-opacity:1;fill-rule:evenodd;stroke:#d4004d;stroke-width:0.264583;stroke-linecap:round;stroke-dasharray:none;stroke-opacity:0.365741;-inkscape-stroke:hairline"
       d="m -157.36054,-582.95973 a 4.0066108,4.0066108 0 0 1 4.5177,-3.42067 4.0066108,4.0066108 0 0 1 3.41756,4.51704 c -2.26637,16.37244 0.85825,33.03795 8.90002,47.47821 5.34035,9.58937 12.68979,17.91073 21.54724,24.39315 a 4.0066108,4.0066108 0 0 1 0.86807,5.59992 4.0066108,4.0066108 0 0 1 -5.59908,0.86496 c -9.78969,-7.16467 -17.91547,-16.36083 -23.81789,-26.95954 -8.88769,-15.95925 -12.33839,-34.37856 -9.83362,-52.47307 z"
       id="path3507-0" />
    <path
       style="color:#000000;opacity:0.528017;mix-blend-mode:normal;vector-effect:non-scaling-stroke;fill:none;fill-opacity:1;fill-rule:evenodd;stroke:#d4004d;stroke-width:0.264583;stroke-linecap:round;stroke-dasharray:none;stroke-opacity:0.365741;-inkscape-stroke:hairline"
       d="m -45.322194,-646.34901 a 4.0066108,4.0066108 0 0 1 5.283403,-2.04607 c 16.745414,7.39204 30.622789,20.04275 39.528563,36.03452 5.896561,10.58832 9.4364977,22.32482 10.3768407,34.40757 a 4.0066108,4.0066108 0 0 1 -3.6843207,4.30655 4.0066108,4.0066108 0 0 1 -4.303456,-3.68354 c -0.850811,-10.93227 -4.05262,-21.55135 -9.387678,-31.13127 -8.058147,-14.46968 -20.61572,-25.91593 -35.767368,-32.6044 a 4.0066108,4.0066108 0 0 1 -2.045984,-5.28336 z"
       id="path3503-3" />
    <path
       style="color:#000000;opacity:0.528017;mix-blend-mode:normal;vector-effect:non-scaling-stroke;fill:none;fill-opacity:1;fill-rule:evenodd;stroke:#d4004d;stroke-width:0.264583;stroke-linecap:round;stroke-dasharray:none;stroke-opacity:0.365741;-inkscape-stroke:hairline"
       d="m -172.81309,-587.92787 a 4.0066108,4.0066108 0 0 1 4.6097,-3.2902 4.0066108,4.0066108 0 0 1 3.29324,4.61043 c -3.44211,20.60557 0.21721,41.7679 10.38157,60.01961 7.88816,14.16444 19.37426,25.99662 33.29758,34.303 a 4.0066108,4.0066108 0 0 1 1.38703,5.49454 4.0066108,4.0066108 0 0 1 -5.49148,1.3877 c -15.13369,-9.02857 -27.61788,-21.89018 -36.19176,-37.28607 -11.04747,-19.8375 -15.02707,-42.84308 -11.28588,-65.23901 z"
       id="path3499-18" />
    <path
       style="color:#000000;opacity:0.528017;mix-blend-mode:normal;vector-effect:non-scaling-stroke;fill:none;fill-opacity:1;fill-rule:evenodd;stroke:#d4004d;stroke-width:0.264583;stroke-linecap:round;stroke-dasharray:none;stroke-opacity:0.365741;-inkscape-stroke:hairline"
       d="m -41.291151,-661.93084 a 4.0066108,4.0066108 0 0 1 5.226824,-2.19072 c 21.026727,8.60891 38.502872,24.11369 49.557438,43.96388 8.566134,15.38199 12.925886,32.75053 12.641113,50.35454 a 4.0066108,4.0066108 0 0 1 -4.069191,3.94154 4.0066108,4.0066108 0 0 1 -3.943926,-4.07297 c 0.262009,-16.19606 -3.748632,-32.17286 -11.629658,-46.32448 -10.170885,-18.26345 -26.245996,-32.52424 -45.591868,-40.44497 a 4.0066108,4.0066108 0 0 1 -2.190732,-5.22682 z"
       id="path3495-0" />
    <path
       style="color:#000000;opacity:0.528017;mix-blend-mode:normal;vector-effect:non-scaling-stroke;fill:none;fill-opacity:1;fill-rule:evenodd;stroke:#d4004d;stroke-width:0.264583;stroke-linecap:round;stroke-dasharray:none;stroke-opacity:0.365741;-inkscape-stroke:hairline"
       d="m -187.63349,-595.7505 a 4.0066108,4.0066108 0 0 1 4.75711,-3.07969 4.0066108,4.0066108 0 0 1 3.0765,4.75643 c -5.48814,25.63174 -1.48247,52.38266 11.27101,75.28353 11.03454,19.8143 28.01646,35.65899 48.5471,45.29545 a 4.0066108,4.0066108 0 0 1 1.92307,5.32897 4.0066108,4.0066108 0 0 1 -5.32897,1.923 c -22.05052,-10.34974 -40.29144,-27.36772 -52.14286,-48.64893 -13.69718,-24.59542 -17.9972,-53.33046 -12.10296,-80.85876 z"
       id="path3491-1" />
    <path
       style="color:#000000;opacity:0.528017;mix-blend-mode:normal;vector-effect:non-scaling-stroke;fill:none;fill-opacity:1;fill-rule:evenodd;stroke:#d4004d;stroke-width:0.264583;stroke-linecap:round;stroke-dasharray:none;stroke-opacity:0.365741;-inkscape-stroke:hairline"
       d="m -40.027659,-678.41055 a 4.0066108,4.0066108 0 0 1 5.123056,-2.42349 c 26.52031,9.48061 48.695145,28.27289 62.39799,52.87856 11.84676,21.27284 16.712908,45.73278 13.907695,69.91961 a 4.0066108,4.0066108 0 0 1 -4.443076,3.515 4.0066108,4.0066108 0 0 1 -3.518657,-4.44067 c 2.611873,-22.51981 -1.914379,-45.28816 -12.944561,-65.09463 -12.7587793,-22.91045 -33.405185,-40.40705 -58.098299,-49.23443 a 4.0066108,4.0066108 0 0 1 -2.424148,-5.11995 z"
       id="path3487-7" />
    <path
       style="color:#000000;opacity:0.528017;mix-blend-mode:normal;vector-effect:non-scaling-stroke;fill:none;fill-opacity:1;fill-rule:evenodd;stroke:#d4004d;stroke-width:0.264583;stroke-linecap:round;stroke-dasharray:none;stroke-opacity:0.365741;-inkscape-stroke:hairline"
       d="m -201.4626,-606.63406 a 4.0066108,4.0066108 0 0 1 4.9287,-2.79268 4.0066108,4.0066108 0 0 1 2.79642,4.92632 c -8.68392,31.43273 -4.6578,65.01785 11.20833,93.50799 14.8762,26.71259 39.07914,46.9985 67.98093,56.97595 a 4.0066108,4.0066108 0 0 1 2.47834,5.09391 4.0066108,4.0066108 0 0 1 -5.09395,2.4784 c -30.76434,-10.62056 -56.53211,-32.21563 -72.36699,-60.64977 -16.88828,-30.32556 -21.17514,-66.08251 -11.93178,-99.54012 z"
       id="path3483-9" />
    <path
       style="color:#000000;opacity:0.528017;mix-blend-mode:normal;vector-effect:non-scaling-stroke;fill:none;fill-opacity:1;fill-rule:evenodd;stroke:#d4004d;stroke-width:0.264583;stroke-linecap:round;stroke-dasharray:none;stroke-opacity:0.365741;-inkscape-stroke:hairline"
       d="m -41.896726,-695.61231 a 4.0066108,4.0066108 0 0 1 4.970226,-2.72211 c 33.345933,9.74604 61.520393,32.23008 78.423226,62.58182 15.823572,28.41376 20.619552,61.66613 13.470456,93.39329 a 4.0066108,4.0066108 0 0 1 -4.789975,3.02706 4.0066108,4.0066108 0 0 1 -3.02701,-4.78989 C 53.866466,-573.9286 49.360629,-605.1604 34.495063,-631.85397 18.61525,-660.36866 -7.84697,-681.48606 -39.174675,-690.642 a 4.0066108,4.0066108 0 0 1 -2.722051,-4.97031 z"
       id="path3479-1" />
    <path
       style="color:#000000;opacity:0.528017;mix-blend-mode:normal;vector-effect:non-scaling-stroke;fill:none;fill-opacity:1;fill-rule:evenodd;stroke:#d4004d;stroke-width:0.264583;stroke-linecap:round;stroke-dasharray:none;stroke-opacity:0.365741;-inkscape-stroke:hairline"
       d="m -218.27602,-605.57169 c 1.212,-5.11928 2.70213,-10.19592 4.47154,-15.20724 a 4.0066108,4.0066108 0 0 1 5.11203,-2.44535 4.0066108,4.0066108 0 0 1 2.44525,5.11213 c -13.39152,37.9281 -9.85522,79.77575 9.71471,114.91684 19.58405,35.16606 53.33009,60.21905 92.65872,68.78883 a 4.0066108,4.0066108 0 0 1 3.0615,4.76587 4.0066108,4.0066108 0 0 1 -4.76885,3.0608 c -41.57144,-9.05866 -77.25215,-35.5455 -97.95303,-72.71701 -18.10023,-32.50197 -23.22584,-70.4402 -14.74187,-106.27487 z"
       id="path3477-0" />
    <path
       style="color:#000000;opacity:0.528017;mix-blend-mode:normal;vector-effect:non-scaling-stroke;fill:none;fill-opacity:1;fill-rule:evenodd;stroke:#d4004d;stroke-width:0.264583;stroke-linecap:round;stroke-dasharray:none;stroke-opacity:0.365741;-inkscape-stroke:hairline"
       d="m -47.25537,-713.21349 a 4.0066108,4.0066108 0 0 1 4.769546,-3.0639 c 41.584586,9.05218 77.276617,35.5455 97.98284,72.72699 20.705426,37.18028 24.432643,81.47125 10.232807,121.58926 a 4.0066108,4.0066108 0 0 1 -5.114352,2.44143 4.0066108,4.0066108 0 0 1 -2.438465,-5.11361 c 13.433739,-37.9536 9.906703,-79.84416 -9.681667,-115.01845 -19.589097,-35.17564 -53.345106,-60.2316 -92.686159,-68.79517 a 4.0066108,4.0066108 0 0 1 -3.06455,-4.76655 z"
       id="path3473-3" />
    <path
       style="color:#000000;opacity:1;mix-blend-mode:normal;vector-effect:non-scaling-stroke;fill:none;fill-opacity:1;fill-rule:evenodd;stroke:#e9930d;stroke-width:0.264583;stroke-linecap:round;stroke-dasharray:none;stroke-opacity:0.472222;-inkscape-stroke:hairline"
       d="m -94.895355,-569.31274 a 4.0066108,4.0066108 0 0 1 4.51467,-3.42136 4.0066108,4.0066108 0 0 1 3.421307,4.51476 c -0.8545,6.19878 3.111146,11.95011 9.208843,13.35535 6.098847,1.40552 12.182314,-2.03163 14.12597,-7.98091 a 4.0066108,4.0066108 0 0 1 5.052177,-2.56179 4.0066108,4.0066108 0 0 1 2.564901,5.05288 c -3.209967,9.82511 -13.470415,15.61962 -23.542609,13.29828 -10.070342,-2.3208 -16.756466,-12.01974 -15.345259,-22.25721 z"
       id="path1973-0-9" />
    <path
       style="color:#000000;opacity:1;mix-blend-mode:normal;vector-effect:non-scaling-stroke;fill:none;fill-opacity:1;fill-rule:evenodd;stroke:#e9930d;stroke-width:0.264583;stroke-linecap:round;stroke-dasharray:none;stroke-opacity:0.472222;-inkscape-stroke:hairline"
       d="m -111.05499,-568.57828 a 4.0066108,4.0066108 0 0 1 4.22409,-3.77745 4.0066108,4.0066108 0 0 1 3.77807,4.22113 c -0.75909,13.65424 8.377125,25.81661 21.703178,28.88766 13.326891,3.07132 26.864545,-3.86449 32.157462,-16.47498 a 4.0066108,4.0066108 0 0 1 5.248197,-2.14403 4.0066108,4.0066108 0 0 1 2.141697,5.24436 c -6.781334,16.15667 -24.272365,25.11817 -41.346906,21.18324 -17.073488,-3.93479 -28.878368,-19.64589 -27.905788,-37.13993 z"
       id="path3533-7-4" />
    <path
       style="color:#000000;opacity:1;mix-blend-mode:normal;vector-effect:non-scaling-stroke;fill:none;fill-opacity:1;fill-rule:evenodd;stroke:#e9930d;stroke-width:0.264583;stroke-linecap:round;stroke-dasharray:none;stroke-opacity:0.472222;-inkscape-stroke:hairline"
       d="m -91.532675,-594.35751 a 4.0066108,4.0066108 0 0 1 2.070347,-5.27594 c 7.084926,-3.08859 14.977659,-3.81753 22.509117,-2.08182 7.526617,1.73463 14.299131,5.84241 19.316777,11.71451 a 4.0066108,4.0066108 0 0 1 -0.44388,5.64756 4.0066108,4.0066108 0 0 1 -5.647557,-0.44382 c -3.903266,-4.56792 -9.169903,-7.76041 -15.024891,-9.10966 -5.858757,-1.35019 -11.99562,-0.78385 -17.507036,1.61885 a 4.0066108,4.0066108 0 0 1 -5.272877,-2.06968 z"
       id="path3529-0-8" />
    <path
       style="color:#000000;opacity:1;mix-blend-mode:normal;vector-effect:non-scaling-stroke;fill:none;fill-opacity:1;fill-rule:evenodd;stroke:#e9930d;stroke-width:0.264583;stroke-linecap:round;stroke-dasharray:none;stroke-opacity:0.472222;-inkscape-stroke:hairline"
       d="m -127.11789,-565.15544 a 4.0066108,4.0066108 0 0 1 3.89739,-4.11615 4.0066108,4.0066108 0 0 1 4.11303,3.89674 c 0.5482,20.09146 14.57318,37.23128 34.158712,41.74496 19.585517,4.51368 39.697555,-4.75899 48.983949,-22.5839 a 4.0066108,4.0066108 0 0 1 5.403647,-1.70346 4.0066108,4.0066108 0 0 1 1.70278,5.4067 c -10.954744,21.02712 -34.785833,32.01377 -57.889926,26.68925 -23.104112,-5.32452 -39.722892,-25.63322 -40.369582,-49.33414 z"
       id="path3525-1-4" />
    <path
       style="color:#000000;opacity:1;mix-blend-mode:normal;vector-effect:non-scaling-stroke;fill:none;fill-opacity:1;fill-rule:evenodd;stroke:#e9930d;stroke-width:0.264583;stroke-linecap:round;stroke-dasharray:none;stroke-opacity:0.472222;-inkscape-stroke:hairline"
       d="m -107.73951,-605.71187 a 4.0066108,4.0066108 0 0 1 1.57019,-2.63196 c 12.258975,-9.13328 27.918545,-12.42158 42.815225,-8.98849 14.893631,3.43242 27.532596,13.23701 34.558563,26.81043 a 4.0066108,4.0066108 0 0 1 -1.7172,5.40224 4.0066108,4.0066108 0 0 1 -5.399267,-1.71655 c -5.947157,-11.48929 -16.634831,-19.78218 -29.241652,-22.68766 -12.609404,-2.90589 -25.852804,-0.1255 -36.229479,7.60564 a 4.0066108,4.0066108 0 0 1 -5.60592,-0.81975 4.0066108,4.0066108 0 0 1 -0.75046,-2.9739 z"
       id="path3521-0-6" />
    <path
       style="color:#000000;opacity:1;mix-blend-mode:normal;vector-effect:non-scaling-stroke;fill:none;fill-opacity:1;fill-rule:evenodd;stroke:#e9930d;stroke-width:0.264583;stroke-linecap:round;stroke-dasharray:none;stroke-opacity:0.472222;-inkscape-stroke:hairline"
       d="m -142.72339,-558.83899 a 4.0066108,4.0066108 0 0 1 3.5278,-4.43582 4.0066108,4.0066108 0 0 1 4.43338,3.52404 c 2.89365,25.30695 21.39309,46.01764 46.214342,51.73806 24.821953,5.72043 50.519562,-4.80365 64.197223,-26.29253 a 4.0066108,4.0066108 0 0 1 5.532347,-1.23063 4.0066108,4.0066108 0 0 1 1.22749,5.53164 c -15.485011,24.32852 -44.654746,36.27633 -72.756617,29.79998 -28.101105,-6.47621 -49.099965,-29.98376 -52.375965,-58.63474 z"
       id="path3517-1-9" />
    <path
       style="color:#000000;opacity:1;mix-blend-mode:normal;vector-effect:non-scaling-stroke;fill:none;fill-opacity:1;fill-rule:evenodd;stroke:#e9930d;stroke-width:0.264583;stroke-linecap:round;stroke-dasharray:none;stroke-opacity:0.472222;-inkscape-stroke:hairline"
       d="m -120.25367,-616.02896 a 4.0066108,4.0066108 0 0 1 1.41369,-2.7194 c 16.37223,-13.74141 38.256268,-19.0013 59.084996,-14.20101 20.795828,4.79259 38.149225,19.06094 46.869483,38.53897 a 4.0066108,4.0066108 0 0 1 -2.01989,5.29402 4.0066108,4.0066108 0 0 1 -5.294697,-2.01692 c -7.697014,-17.19231 -22.998869,-29.77731 -41.354456,-34.00761 -18.384642,-4.23692 -37.682948,0.40076 -52.134046,12.5298 a 4.0066108,4.0066108 0 0 1 -5.64312,-0.49104 4.0066108,4.0066108 0 0 1 -0.92196,-2.92681 z"
       id="path3513-3-2" />
    <path
       style="color:#000000;opacity:1;mix-blend-mode:normal;vector-effect:non-scaling-stroke;fill:none;fill-opacity:1;fill-rule:evenodd;stroke:#e9930d;stroke-width:0.264583;stroke-linecap:round;stroke-dasharray:none;stroke-opacity:0.472222;-inkscape-stroke:hairline"
       d="m -156.86628,-552.5131 a 4.0066108,4.0066108 0 0 1 2.53686,-1.72505 4.0066108,4.0066108 0 0 1 4.73711,3.11221 c 6.03683,29.1257 28.46037,52.05045 57.445335,58.73028 28.996351,6.68254 59.202316,-4.12896 77.374944,-27.6917 a 4.0066108,4.0066108 0 0 1 5.6214068,-0.72502 4.0066108,4.0066108 0 0 1 0.72499,5.62151 c -20.0729478,26.02657 -53.4923698,37.98505 -85.5209008,30.60367 -32.015955,-7.37827 -56.823915,-32.74176 -63.492015,-64.91314 a 4.0066108,4.0066108 0 0 1 0.5723,-3.01276 z"
       id="path3509-7-90" />
    <path
       style="color:#000000;opacity:1;mix-blend-mode:normal;vector-effect:non-scaling-stroke;fill:none;fill-opacity:1;fill-rule:evenodd;stroke:#e9930d;stroke-width:0.264583;stroke-linecap:round;stroke-dasharray:none;stroke-opacity:0.472222;-inkscape-stroke:hairline"
       d="m -130.58037,-628.28321 a 4.0066108,4.0066108 0 0 1 1.41441,-2.72251 c 20.22716,-16.98924 47.269398,-23.49298 73.010083,-17.56084 25.703435,5.92365 47.1480728,23.56733 57.9148162,47.64715 a 4.0066108,4.0066108 0 0 1 -2.02225084,5.29025 4.0066108,4.0066108 0 0 1 -5.29397666,-2.01989 c -9.7440227,-21.79249 -29.1362507,-37.74796 -52.3981587,-43.10891 -23.295635,-5.36878 -47.750233,0.51465 -66.056083,15.89016 a 4.0066108,4.0066108 0 0 1 -5.64617,-0.49171 4.0066108,4.0066108 0 0 1 -0.92267,-2.9237 z"
       id="path3505-7-3" />
    <path
       style="color:#000000;opacity:1;mix-blend-mode:normal;vector-effect:non-scaling-stroke;fill:none;fill-opacity:1;fill-rule:evenodd;stroke:#e9930d;stroke-width:0.264583;stroke-linecap:round;stroke-dasharray:none;stroke-opacity:0.472222;-inkscape-stroke:hairline"
       d="m -170.79349,-537.14339 a 4.0066108,4.0066108 0 0 1 2.65087,-5.00728 4.0066108,4.0066108 0 0 1 5.00654,2.65396 c 9.66527,31.4384 35.33952,55.33173 67.389988,62.7181 32.065537,7.38988 65.62002,-2.87053 88.0694278,-26.92944 a 4.0066108,4.0066108 0 0 1 5.6631067,-0.19498 4.0066108,4.0066108 0 0 1 0.19873,5.66065 c -24.3923975,26.14126 -60.8899865,37.30172 -95.7308145,29.27237 -34.824478,-8.02571 -62.746028,-34.01396 -73.247848,-68.17338 z"
       id="path3501-2-0" />
    <path
       style="color:#000000;opacity:1;mix-blend-mode:normal;vector-effect:non-scaling-stroke;fill:none;fill-opacity:1;fill-rule:evenodd;stroke:#e9930d;stroke-width:0.264583;stroke-linecap:round;stroke-dasharray:none;stroke-opacity:0.472222;-inkscape-stroke:hairline"
       d="m -137.30399,-645.04899 c 23.86617,-18.93329 55.061248,-25.97597 84.74721,-19.13461 29.671455,6.83811 54.6264592,26.80934 67.803959,54.25937 a 4.0066108,4.0066108 0 0 1 -1.877697,5.34598 4.0066108,4.0066108 0 0 1 -5.3453466,-1.88063 c -12.1257629,-25.25932 -35.0771514,-43.62384 -62.3804524,-49.91613 -27.316675,-6.2954 -56.005443,0.18162 -77.966803,17.60374 a 4.0066108,4.0066108 0 0 1 -5.62932,-0.64838 4.0066108,4.0066108 0 0 1 0.64845,-5.62934 z"
       id="path3497-6-3" />
    <path
       style="color:#000000;opacity:1;mix-blend-mode:normal;vector-effect:non-scaling-stroke;fill:none;fill-opacity:1;fill-rule:evenodd;stroke:#e9930d;stroke-width:0.264583;stroke-linecap:round;stroke-dasharray:none;stroke-opacity:0.472222;-inkscape-stroke:hairline"
       d="m -182.20646,-524.68268 a 4.0066108,4.0066108 0 0 1 2.15947,-2.17803 4.0066108,4.0066108 0 0 1 5.24312,2.14308 c 13.46737,32.09231 41.54412,55.74019 75.458668,63.55607 33.923561,7.81804 69.5251,-1.16424 95.6814145,-24.13771 a 4.0066108,4.0066108 0 0 1 5.6552967,0.36865 4.0066108,4.0066108 0 0 1 -0.36481,5.65296 c -28.0877352,24.66977 -66.3429402,34.32 -102.7714492,25.9247 -36.41888,-8.39315 -66.5842,-33.79955 -81.04603,-68.26163 a 4.0066108,4.0066108 0 0 1 -0.0156,-3.06809 z"
       id="path3493-4-3" />
    <path
       style="color:#000000;opacity:1;mix-blend-mode:normal;vector-effect:non-scaling-stroke;fill:none;fill-opacity:1;fill-rule:evenodd;stroke:#e9930d;stroke-width:0.264583;stroke-linecap:round;stroke-dasharray:none;stroke-opacity:0.472222;-inkscape-stroke:hairline"
       d="m -143.05647,-660.78789 c 27.15769,-19.60366 61.460428,-26.53461 94.09882,-19.01276 32.626858,7.51915 60.428892,28.75285 76.270283,58.2503 a 4.0066108,4.0066108 0 0 1 -1.6325,5.42505 4.0066108,4.0066108 0 0 1 -5.428084,-1.63329 c -14.7510036,-27.46704 -40.628207,-47.23194 -71.009259,-54.23361 -30.391782,-7.00409 -62.32138,-0.55338 -87.60972,17.70077 a 4.0066108,4.0066108 0 0 1 -5.59304,-0.90341 4.0066108,4.0066108 0 0 1 0.9035,-5.59305 z"
       id="path3489-5-7" />
    <path
       style="color:#000000;opacity:1;mix-blend-mode:normal;vector-effect:non-scaling-stroke;fill:none;fill-opacity:1;fill-rule:evenodd;stroke:#e9930d;stroke-width:0.264583;stroke-linecap:round;stroke-dasharray:none;stroke-opacity:0.472222;-inkscape-stroke:hairline"
       d="m -191.18341,-505.80134 a 4.0066108,4.0066108 0 0 1 1.914,-2.39529 4.0066108,4.0066108 0 0 1 5.44143,1.57527 c 17.05111,30.93494 46.4629,53.14439 80.88367,61.07699 34.442289,7.93746 70.628897,0.82703 99.5072325,-19.55238 a 4.0066108,4.0066108 0 0 1 5.5827367,0.9621 4.0066108,4.0066108 0 0 1 -0.96288,5.5859 c -30.7378112,21.69155 -69.2666102,29.26157 -105.9266492,20.81283 -36.63713,-8.44334 -67.95247,-32.08933 -86.1015,-65.01623 a 4.0066108,4.0066108 0 0 1 -0.33804,-3.04919 z"
       id="path3485-2-9" />
    <path
       style="color:#000000;opacity:1;mix-blend-mode:normal;vector-effect:non-scaling-stroke;fill:none;fill-opacity:1;fill-rule:evenodd;stroke:#e9930d;stroke-width:0.264583;stroke-linecap:round;stroke-dasharray:none;stroke-opacity:0.472222;-inkscape-stroke:hairline"
       d="m -147.78387,-675.62243 a 4.0066108,4.0066108 0 0 1 1.76076,-2.51093 c 29.88368,-19.01236 66.150314,-25.23853 100.664567,-17.28434 34.485048,7.94731 64.349132,29.39165 82.90137,59.5279 a 4.0066108,4.0066108 0 0 1 -1.312,5.51167 4.0066108,4.0066108 0 0 1 -5.511764,-1.312 c -17.429481,-28.31242 -45.479074,-48.45259 -77.877176,-55.91912 -32.425543,-7.47273 -66.489427,-1.62249 -94.564617,16.23925 a 4.0066108,4.0066108 0 0 1 -5.53073,-1.22955 4.0066108,4.0066108 0 0 1 -0.53041,-3.02288 z"
       id="path3481-0-4" />
    <path
       style="color:#000000;opacity:1;mix-blend-mode:normal;vector-effect:non-scaling-stroke;fill:none;fill-opacity:1;fill-rule:evenodd;stroke:#e9930d;stroke-width:0.264583;stroke-linecap:round;stroke-dasharray:none;stroke-opacity:0.472222;-inkscape-stroke:hairline"
       d="m -196.25927,-483.23296 a 4.0066108,4.0066108 0 0 1 1.61856,-2.60471 4.0066108,4.0066108 0 0 1 5.59117,0.92568 c 19.88961,27.76497 49.2245,47.31466 82.50612,54.98467 33.272312,7.66771 68.197424,2.9322 98.2275958,-13.31676 a 4.0066108,4.0066108 0 0 1 5.4285567,1.61723 4.0066108,4.0066108 0 0 1 -1.6149,5.4322 c -31.7443715,17.17666 -68.6692505,22.18137 -103.8408125,14.07578 -35.18138,-8.10775 -66.19834,-28.77768 -87.22329,-58.12764 a 4.0066108,4.0066108 0 0 1 -0.693,-2.98645 z"
       id="path3475-2-9" />
    <path
       style="color:#000000;opacity:1;mix-blend-mode:normal;vector-effect:non-scaling-stroke;fill:none;fill-opacity:1;fill-rule:evenodd;stroke:#e9930d;stroke-width:0.264583;stroke-linecap:round;stroke-dasharray:none;stroke-opacity:0.472222;-inkscape-stroke:hairline"
       d="m -147.6334,-694.52064 a 4.0066108,4.0066108 0 0 1 1.93324,-2.38111 c 25.43305,-13.78729 54.343395,-19.83467 83.169696,-17.39095 6.991717,0.59252 13.933434,1.68228 20.771018,3.25781 9.680873,2.23107 19.114241,5.42896 28.155295,9.54673 23.5890634,10.7439 43.949124,27.48539 59.048515,48.55393 a 4.0066108,4.0066108 0 0 1 -0.9225,5.59197 4.0066108,4.0066108 0 0 1 -5.591877,-0.92257 c -14.283431,-19.92994 -33.5421716,-35.76627 -55.856505,-45.92953 -8.552347,-3.89525 -17.474891,-6.92151 -26.632485,-9.03194 -6.467977,-1.49052 -13.032434,-2.51848 -19.646211,-3.07901 -27.268781,-2.31162 -54.617966,3.40543 -78.676856,16.44773 a 4.0066108,4.0066108 0 0 1 -5.4323,-1.61494 4.0066108,4.0066108 0 0 1 -0.31903,-3.04812 z"
       id="path3471-9-9" />
  </g>
</svg>
