<?xml version="1.0" encoding="UTF-8" standalone="no"?>
<!-- Created with Inkscape (http://www.inkscape.org/) -->

<svg
   width="219.72119mm"
   height="219.72334mm"
   viewBox="0 0 219.7212 219.72334"
   version="1.1"
   id="svg15185"
   inkscape:version="1.3.2 (091e20e, 2023-11-25)"
   sodipodi:docname="logo2.svg"
   xmlns:inkscape="http://www.inkscape.org/namespaces/inkscape"
   xmlns:sodipodi="http://sodipodi.sourceforge.net/DTD/sodipodi-0.dtd"
   xmlns="http://www.w3.org/2000/svg"
   xmlns:svg="http://www.w3.org/2000/svg">
  <sodipodi:namedview
     id="namedview15187"
     pagecolor="#000000"
     bordercolor="#111111"
     borderopacity="1"
     inkscape:showpageshadow="0"
     inkscape:pageopacity="0"
     inkscape:pagecheckerboard="1"
     inkscape:deskcolor="#d1d1d1"
     inkscape:document-units="mm"
     showgrid="false"
     inkscape:zoom="0.074331525"
     inkscape:cx="464.13685"
     inkscape:cy="665.93548"
     inkscape:window-width="1248"
     inkscape:window-height="890"
     inkscape:window-x="222"
     inkscape:window-y="38"
     inkscape:window-maximized="0"
     inkscape:current-layer="layer1" />
  <defs
     id="defs15182" />
  <g
     inkscape:label="Layer 1"
     inkscape:groupmode="layer"
     id="layer1"
     transform="translate(727.53782,451.65718)">
    <path
       style="color:#000000;mix-blend-mode:normal;fill:#abe41d;fill-opacity:1;fill-rule:evenodd;stroke-width:1.18769;stroke-linecap:round;-inkscape-stroke:none"
       d="m -632.38352,-343.8227 a 2.9692235,2.9692235 0 0 1 3.34573,-2.5355 2.9692235,2.9692235 0 0 1 2.53547,3.3458 c -0.63325,4.5938 2.30561,8.856 6.8245,9.8974 4.51974,1.0416 9.02808,-1.5056 10.46849,-5.9145 a 2.9692235,2.9692235 0 0 1 3.74407,-1.8985 2.9692235,2.9692235 0 0 1 1.9008,3.7446 c -2.37884,7.2812 -9.98267,11.5754 -17.44698,9.8551 -7.46294,-1.7199 -12.4179,-8.9076 -11.37208,-16.4944 z"
       id="path1973-3" />
    <path
       style="color:#000000;mix-blend-mode:normal;fill:#abe41d;fill-opacity:1;fill-rule:evenodd;stroke-width:1.18769;stroke-linecap:round;-inkscape-stroke:none"
       d="m -644.35912,-343.2784 a 2.9692235,2.9692235 0 0 1 3.13039,-2.7994 2.9692235,2.9692235 0 0 1 2.79986,3.1282 c -0.56255,10.1189 6.20813,19.1322 16.08381,21.4081 9.87631,2.2761 19.90881,-2.8639 23.83129,-12.2093 a 2.9692235,2.9692235 0 0 1 3.88934,-1.5889 2.9692235,2.9692235 0 0 1 1.58717,3.8865 c -5.02552,11.9734 -17.98779,18.6146 -30.64141,15.6985 -12.65284,-2.916 -21.40121,-14.5592 -20.68045,-27.5237 z"
       id="path3533-58" />
    <path
       style="color:#000000;mix-blend-mode:normal;fill:#abe41d;fill-opacity:1;fill-rule:evenodd;stroke-width:1.18769;stroke-linecap:round;-inkscape-stroke:none"
       d="m -629.8915,-362.3829 a 2.9692235,2.9692235 0 0 1 1.53429,-3.9099 c 5.25051,-2.2889 11.09966,-2.8291 16.68108,-1.5428 5.57784,1.2855 10.59682,4.3297 14.3153,8.6814 a 2.9692235,2.9692235 0 0 1 -0.32895,4.1853 2.9692235,2.9692235 0 0 1 -4.1853,-0.3289 c -2.89263,-3.3852 -6.79564,-5.7511 -11.13466,-6.751 -4.34181,-1.0006 -8.88973,-0.5809 -12.97413,1.1997 a 2.9692235,2.9692235 0 0 1 -3.90763,-1.5338 z"
       id="path3529-50" />
    <path
       style="color:#000000;mix-blend-mode:normal;fill:#abe41d;fill-opacity:1;fill-rule:evenodd;stroke-width:1.18769;stroke-linecap:round;-inkscape-stroke:none"
       d="m -656.26303,-340.7418 a 2.9692235,2.9692235 0 0 1 2.88828,-3.0504 2.9692235,2.9692235 0 0 1 3.04809,2.8878 c 0.40626,14.8894 10.79991,27.5914 25.31437,30.9364 14.51446,3.345 29.41911,-3.5268 36.30108,-16.7365 a 2.9692235,2.9692235 0 0 1 4.00454,-1.2624 2.9692235,2.9692235 0 0 1 1.2619,4.0068 c -8.11835,15.5828 -25.77912,23.7248 -42.90113,19.7789 -17.12202,-3.9459 -29.43788,-18.9963 -29.91713,-36.5606 z"
       id="path3525-9" />
    <path
       style="color:#000000;mix-blend-mode:normal;fill:#abe41d;fill-opacity:1;fill-rule:evenodd;stroke-width:1.18769;stroke-linecap:round;-inkscape-stroke:none"
       d="m -641.90208,-370.7974 a 2.9692235,2.9692235 0 0 1 1.16364,-1.9505 c 9.08489,-6.7685 20.6899,-9.2054 31.72955,-6.6612 11.03739,2.5437 20.40389,9.8097 25.6107,19.8687 a 2.9692235,2.9692235 0 0 1 -1.27259,4.0035 2.9692235,2.9692235 0 0 1 -4.00129,-1.2721 c -4.40733,-8.5145 -12.32776,-14.6602 -21.67044,-16.8134 -9.34459,-2.1535 -19.15902,-0.093 -26.84898,5.6364 a 2.9692235,2.9692235 0 0 1 -4.15444,-0.6075 2.9692235,2.9692235 0 0 1 -0.55615,-2.2039 z"
       id="path3521-9" />
    <path
       style="color:#000000;mix-blend-mode:normal;fill:#abe41d;fill-opacity:1;fill-rule:evenodd;stroke-width:1.18769;stroke-linecap:round;-inkscape-stroke:none"
       d="m -667.82797,-336.0608 a 2.9692235,2.9692235 0 0 1 2.61438,-3.2873 2.9692235,2.9692235 0 0 1 3.2855,2.6116 c 2.14443,18.7545 15.85401,34.1028 34.24857,38.3421 18.39508,4.2393 37.43909,-3.5599 47.57535,-19.4849 a 2.9692235,2.9692235 0 0 1 4.09992,-0.912 2.9692235,2.9692235 0 0 1 0.90967,4.0994 c -11.47565,18.0294 -33.09279,26.8837 -53.91856,22.0842 -20.82519,-4.7994 -36.38705,-22.2204 -38.81483,-43.4531 z"
       id="path3517-8" />
    <path
       style="color:#000000;mix-blend-mode:normal;fill:#abe41d;fill-opacity:1;fill-rule:evenodd;stroke-width:1.18769;stroke-linecap:round;-inkscape-stroke:none"
       d="m -651.17609,-378.4432 a 2.9692235,2.9692235 0 0 1 1.04766,-2.0153 c 12.13315,-10.1835 28.351,-14.0815 43.78677,-10.5241 15.4114,3.5517 28.27167,14.1257 34.73409,28.5605 a 2.9692235,2.9692235 0 0 1 -1.4969,3.9233 2.9692235,2.9692235 0 0 1 -3.9238,-1.4947 c -5.70411,-12.7409 -17.04403,-22.0674 -30.64701,-25.2024 -13.62451,-3.1399 -27.92612,0.297 -38.63555,9.2856 a 2.9692235,2.9692235 0 0 1 -4.18201,-0.3639 2.9692235,2.9692235 0 0 1 -0.68325,-2.169 z"
       id="path3513-0" />
    <path
       style="color:#000000;mix-blend-mode:normal;fill:#abe41d;fill-opacity:1;fill-rule:evenodd;stroke-width:1.18769;stroke-linecap:round;-inkscape-stroke:none"
       d="m -678.309,-331.3728 a 2.9692235,2.9692235 0 0 1 1.88002,-1.2784 2.9692235,2.9692235 0 0 1 3.51058,2.3064 c 4.47378,21.5845 21.09144,38.5736 42.57165,43.5239 21.48865,4.9523 43.87372,-3.0599 57.34111,-20.5218 a 2.9692235,2.9692235 0 0 1 4.16592,-0.5373 2.9692235,2.9692235 0 0 1 0.53727,4.166 c -14.87568,19.2878 -39.64218,28.15 -63.37792,22.6798 -23.72642,-5.4679 -42.11113,-24.2643 -47.05273,-48.1059 a 2.9692235,2.9692235 0 0 1 0.42412,-2.2327 z"
       id="path3509-2" />
    <path
       style="color:#000000;mix-blend-mode:normal;fill:#abe41d;fill-opacity:1;fill-rule:evenodd;stroke-width:1.18769;stroke-linecap:round;-inkscape-stroke:none"
       d="m -658.82901,-387.5246 a 2.9692235,2.9692235 0 0 1 1.04819,-2.0176 c 14.98997,-12.5904 35.03046,-17.4102 54.10639,-13.014 19.04833,4.3899 34.94055,17.4653 42.91958,35.3104 a 2.9692235,2.9692235 0 0 1 -1.49865,3.9205 2.9692235,2.9692235 0 0 1 -3.92327,-1.4969 c -7.22111,-16.15 -21.59232,-27.9743 -38.83128,-31.9472 -17.26396,-3.9787 -35.3868,0.3814 -48.95292,11.7759 a 2.9692235,2.9692235 0 0 1 -4.18427,-0.3644 2.9692235,2.9692235 0 0 1 -0.68377,-2.1667 z"
       id="path3505-4" />
    <path
       style="color:#000000;mix-blend-mode:normal;fill:#abe41d;fill-opacity:1;fill-rule:evenodd;stroke-width:1.18769;stroke-linecap:round;-inkscape-stroke:none"
       d="m -688.63019,-319.9826 a 2.9692235,2.9692235 0 0 1 1.96451,-3.7108 2.9692235,2.9692235 0 0 1 3.71025,1.9668 c 7.16275,23.2984 26.18945,41.0053 49.94144,46.4792 23.76317,5.4765 48.62976,-2.1273 65.26659,-19.9569 a 2.9692235,2.9692235 0 0 1 4.19682,-0.1445 2.9692235,2.9692235 0 0 1 0.14728,4.195 c -18.07675,19.3728 -45.12442,27.6436 -70.9443,21.6932 -25.80776,-5.9477 -46.49989,-25.2071 -54.28259,-50.522 z"
       id="path3501-9" />
    <path
       style="color:#000000;mix-blend-mode:normal;fill:#abe41d;fill-opacity:1;fill-rule:evenodd;stroke-width:1.18769;stroke-linecap:round;-inkscape-stroke:none"
       d="m -663.81176,-399.9494 c 17.68677,-14.0311 40.80485,-19.2503 62.80456,-14.1803 21.98895,5.0676 40.48263,19.8679 50.24823,40.2106 a 2.9692235,2.9692235 0 0 1 -1.39153,3.9618 2.9692235,2.9692235 0 0 1 -3.96133,-1.3937 c -8.98618,-18.7192 -25.99502,-32.3288 -46.22898,-36.9919 -20.24387,-4.6654 -41.50457,0.1346 -57.77972,13.0458 a 2.9692235,2.9692235 0 0 1 -4.17178,-0.4805 2.9692235,2.9692235 0 0 1 0.48055,-4.1718 z"
       id="path3497-0" />
    <path
       style="color:#000000;mix-blend-mode:normal;fill:#abe41d;fill-opacity:1;fill-rule:evenodd;stroke-width:1.18769;stroke-linecap:round;-inkscape-stroke:none"
       d="m -697.08813,-310.7482 a 2.9692235,2.9692235 0 0 1 1.60034,-1.6141 2.9692235,2.9692235 0 0 1 3.88558,1.5882 c 9.98041,23.783 30.78756,41.308 55.92099,47.1002 25.14011,5.7938 51.52374,-0.8628 70.90769,-17.888 a 2.9692235,2.9692235 0 0 1 4.19103,0.2732 2.9692235,2.9692235 0 0 1 -0.27035,4.1893 c -20.81529,18.2823 -49.1655,25.4339 -76.16198,19.2123 -26.98934,-6.22 -49.34429,-25.0482 -60.06168,-50.5874 a 2.9692235,2.9692235 0 0 1 -0.0116,-2.2737 z"
       id="path3493-1" />
    <path
       style="color:#000000;mix-blend-mode:normal;fill:#abe41d;fill-opacity:1;fill-rule:evenodd;stroke-width:1.18769;stroke-linecap:round;-inkscape-stroke:none"
       d="m -668.07481,-411.6132 c 20.12605,-14.5279 45.54716,-19.6643 69.73485,-14.09 24.17915,5.5723 44.78271,21.3082 56.52247,43.1682 a 2.9692235,2.9692235 0 0 1 -1.20982,4.0204 2.9692235,2.9692235 0 0 1 -4.02265,-1.2104 c -10.93169,-20.3553 -30.10879,-35.0027 -52.62362,-40.1915 -22.52277,-5.1906 -46.18519,-0.4101 -64.9259,13.1177 a 2.9692235,2.9692235 0 0 1 -4.1449,-0.6695 2.9692235,2.9692235 0 0 1 0.66957,-4.1449 z"
       id="path3489-2" />
    <path
       style="color:#000000;mix-blend-mode:normal;fill:#abe41d;fill-opacity:1;fill-rule:evenodd;stroke-width:1.18769;stroke-linecap:round;-inkscape-stroke:none"
       d="m -703.74078,-296.7556 a 2.9692235,2.9692235 0 0 1 1.41843,-1.7751 2.9692235,2.9692235 0 0 1 4.03254,1.1674 c 12.63626,22.9253 34.43278,39.3843 59.94136,45.263 25.52453,5.8823 52.34174,0.6129 73.74293,-14.4899 a 2.9692235,2.9692235 0 0 1 4.13726,0.713 2.9692235,2.9692235 0 0 1 -0.71357,4.1396 c -22.77921,16.0752 -51.33218,21.6852 -78.50024,15.424 -27.15108,-6.2572 -50.35829,-23.7808 -63.80819,-48.1823 a 2.9692235,2.9692235 0 0 1 -0.25052,-2.2597 z"
       id="path3485-0" />
    <path
       style="color:#000000;mix-blend-mode:normal;fill:#abe41d;fill-opacity:1;fill-rule:evenodd;stroke-width:1.18769;stroke-linecap:round;-inkscape-stroke:none"
       d="m -671.5782,-422.6068 a 2.9692235,2.9692235 0 0 1 1.30487,-1.8608 c 22.14623,-14.0897 49.02274,-18.7038 74.6006,-12.8091 25.55622,5.8896 47.68793,21.7816 61.43664,44.115 a 2.9692235,2.9692235 0 0 1 -0.9723,4.0846 2.9692235,2.9692235 0 0 1 -4.08466,-0.9723 c -12.91666,-20.9818 -33.70368,-35.9073 -57.7133,-41.4406 -24.02996,-5.5379 -49.27406,-1.2024 -70.08005,12.0346 a 2.9692235,2.9692235 0 0 1 -4.09872,-0.9112 2.9692235,2.9692235 0 0 1 -0.39308,-2.2402 z"
       id="path3481-06" />
    <path
       style="color:#000000;mix-blend-mode:normal;fill:#abe41d;fill-opacity:1;fill-rule:evenodd;stroke-width:1.18769;stroke-linecap:round;-inkscape-stroke:none"
       d="m -707.5024,-280.0306 a 2.9692235,2.9692235 0 0 1 1.19948,-1.9303 2.9692235,2.9692235 0 0 1 4.14351,0.686 c 14.73982,20.5761 36.47935,35.064 61.14373,40.7481 24.65748,5.6824 50.53982,2.173 72.79461,-9.8688 a 2.9692235,2.9692235 0 0 1 4.023,1.1985 2.9692235,2.9692235 0 0 1 -1.19677,4.0257 c -23.52515,12.7293 -50.88948,16.4382 -76.95446,10.4313 -26.07226,-6.0085 -49.05834,-21.3266 -64.63953,-43.0773 a 2.9692235,2.9692235 0 0 1 -0.51357,-2.2132 z"
       id="path3475-39" />
    <path
       style="color:#000000;mix-blend-mode:normal;fill:#abe41d;fill-opacity:1;fill-rule:evenodd;stroke-width:1.18769;stroke-linecap:round;-inkscape-stroke:none"
       d="m -671.46669,-436.6119 a 2.9692235,2.9692235 0 0 1 1.43269,-1.7646 c 18.84795,-10.2175 40.27286,-14.6991 61.63549,-12.8881 5.18143,0.4391 10.3258,1.2467 15.39301,2.4143 7.17431,1.6534 14.1652,4.0233 20.86535,7.0749 17.48141,7.9621 32.56987,20.3689 43.75974,35.9824 a 2.9692235,2.9692235 0 0 1 -0.68365,4.1441 2.9692235,2.9692235 0 0 1 -4.14403,-0.6837 c -10.58518,-14.7697 -24.85747,-26.5057 -41.3942,-34.0375 -6.33798,-2.8867 -12.95031,-5.1294 -19.73683,-6.6934 -4.7933,-1.1046 -9.65809,-1.8664 -14.55944,-2.2818 -20.20838,-1.7131 -40.47634,2.5237 -58.30593,12.1891 a 2.9692235,2.9692235 0 0 1 -4.02577,-1.1968 2.9692235,2.9692235 0 0 1 -0.23643,-2.2589 z"
       id="path3471-0" />
    <path
       style="color:#000000;mix-blend-mode:normal;fill:#0094e3;fill-opacity:1;fill-rule:evenodd;stroke-width:1.18769;stroke-linecap:round;-inkscape-stroke:none"
       d="m -631.93657,-345.855 c 1.04174,-3.6603 3.46947,-6.9238 7.03578,-8.9099 7.13264,-3.9722 16.22324,-1.3858 20.19539,5.7469 0.21499,0.386 0.41163,0.78 0.59134,1.1837 a 2.9692235,2.9692235 0 0 1 -1.50595,3.9212 2.9692235,2.9692235 0 0 1 -3.91893,-1.5055 c -0.10783,-0.2421 -0.22627,-0.4787 -0.35525,-0.7103 -2.41067,-4.3287 -7.78818,-5.8601 -12.11692,-3.4495 -4.32876,2.4107 -5.8579,7.7887 -3.44723,12.1175 0.12935,0.2322 0.26806,0.4573 0.41766,0.6771 a 2.9692235,2.9692235 0 0 1 -0.78416,4.1256 2.9692235,2.9692235 0 0 1 -4.12336,-0.7836 c -0.24933,-0.3663 -0.48337,-0.7429 -0.69894,-1.13 -1.98608,-3.5663 -2.33118,-7.6229 -1.28943,-11.2832 z"
       id="path3535-8" />
    <path
       style="color:#000000;mix-blend-mode:normal;fill:#0094e3;fill-opacity:1;fill-rule:evenodd;stroke-width:1.18769;stroke-linecap:round;-inkscape-stroke:none"
       d="m -643.91697,-346.8497 c 0.39177,-2.0357 1.02378,-4.0388 1.89637,-5.9665 a 2.9692235,2.9692235 0 0 1 3.92849,-1.4799 2.9692235,2.9692235 0 0 1 1.47991,3.9285 c -2.71676,6.0017 -2.42904,12.9294 0.77625,18.685 0.57666,1.0355 1.24116,2.0205 1.98559,2.9428 a 2.9692235,2.9692235 0 0 1 -0.44562,4.1751 2.9692235,2.9692235 0 0 1 -4.17509,-0.4456 c -0.95711,-1.1858 -1.81,-2.4513 -2.55142,-3.7827 -3.08857,-5.546 -4.06979,-11.9493 -2.89448,-18.0567 z"
       id="path3531-7" />
    <path
       style="color:#000000;mix-blend-mode:normal;fill:#0094e3;fill-opacity:1;fill-rule:evenodd;stroke-width:1.18769;stroke-linecap:round;-inkscape-stroke:none"
       d="m -617.56428,-365.7337 a 2.9692235,2.9692235 0 0 1 3.32831,-2.5633 c 8.39743,1.09 15.78598,6.1021 19.90593,13.5002 0.74106,1.3307 1.3679,2.7219 1.87187,4.1592 a 2.9692235,2.9692235 0 0 1 -1.81964,3.7847 2.9692235,2.9692235 0 0 1 -3.78463,-1.8197 c -0.39198,-1.1179 -0.88003,-2.2001 -1.45641,-3.2351 -3.20674,-5.7582 -8.94555,-9.6516 -15.48163,-10.4999 a 2.9692235,2.9692235 0 0 1 -2.5638,-3.3261 z"
       id="path3527-3" />
    <path
       style="color:#000000;mix-blend-mode:normal;fill:#0094e3;fill-opacity:1;fill-rule:evenodd;stroke-width:1.18769;stroke-linecap:round;-inkscape-stroke:none"
       d="m -655.53895,-349.3067 a 2.9692235,2.9692235 0 0 1 3.49008,-2.3355 2.9692235,2.9692235 0 0 1 2.33557,3.4901 c -1.50727,7.597 -0.26631,15.4817 3.50201,22.2483 1.34611,2.4171 2.99329,4.6534 4.90316,6.6551 a 2.9692235,2.9692235 0 0 1 -0.0986,4.198 2.9692235,2.9692235 0 0 1 -4.19793,-0.099 c -2.2571,-2.3657 -4.20461,-5.0088 -5.79547,-7.8654 -4.45275,-7.9956 -5.91989,-17.315 -4.13885,-26.292 z"
       id="path3523-1" />
    <path
       style="color:#000000;mix-blend-mode:normal;fill:#0094e3;fill-opacity:1;fill-rule:evenodd;stroke-width:1.18769;stroke-linecap:round;-inkscape-stroke:none"
       d="m -607.95535,-376.2026 a 2.9692235,2.9692235 0 0 1 3.82358,-1.7374 c 8.57215,3.2121 15.7232,9.3667 20.17707,17.3643 1.59085,2.8567 2.81279,5.9028 3.63548,9.0673 a 2.9692235,2.9692235 0 0 1 -2.12483,3.6215 2.9692235,2.9692235 0 0 1 -3.62094,-2.1271 c -0.69611,-2.6777 -1.73015,-5.2548 -3.07626,-7.672 -3.76926,-6.7683 -9.81943,-11.9764 -17.07394,-14.6948 a 2.9692235,2.9692235 0 0 1 -1.74016,-3.8218 z"
       id="path3519-0" />
    <path
       style="color:#000000;mix-blend-mode:normal;fill:#0094e3;fill-opacity:1;fill-rule:evenodd;stroke-width:1.18769;stroke-linecap:round;-inkscape-stroke:none"
       d="m -667.6733,-348.7347 a 2.9692235,2.9692235 0 0 1 3.34746,-2.5327 2.9692235,2.9692235 0 0 1 2.53444,3.3502 c -1.33017,9.5839 0.49486,19.3383 5.20251,27.7917 2.46439,4.4252 5.66654,8.3979 9.46681,11.7466 a 2.9692235,2.9692235 0 0 1 0.26481,4.1912 2.9692235,2.9692235 0 0 1 -4.19121,0.2648 c -4.30693,-3.7952 -7.93399,-8.2977 -10.72696,-13.313 -5.33488,-9.5796 -7.40524,-20.638 -5.89786,-31.4988 z"
       id="path3515-0" />
    <path
       style="color:#000000;mix-blend-mode:normal;fill:#0094e3;fill-opacity:1;fill-rule:evenodd;stroke-width:1.18769;stroke-linecap:round;-inkscape-stroke:none"
       d="m -601.22927,-386.4646 a 2.9692235,2.9692235 0 0 1 3.91596,-1.5185 c 10.05548,4.4331 18.38948,12.0282 23.73621,21.6292 2.7927,5.0147 4.70864,10.4678 5.66731,16.1271 a 2.9692235,2.9692235 0 0 1 -2.43177,3.4245 2.9692235,2.9692235 0 0 1 -3.42228,-2.4312 c -0.84589,-4.9935 -2.5379,-9.8065 -5.00207,-14.2313 -4.71809,-8.4721 -12.07161,-15.1719 -20.94485,-19.0838 a 2.9692235,2.9692235 0 0 1 -1.51851,-3.916 z"
       id="path3511-5" />
    <path
       style="color:#000000;mix-blend-mode:normal;fill:#0094e3;fill-opacity:1;fill-rule:evenodd;stroke-width:1.18769;stroke-linecap:round;-inkscape-stroke:none"
       d="m -679.44055,-350.3444 a 2.9692235,2.9692235 0 0 1 3.34798,-2.535 2.9692235,2.9692235 0 0 1 2.53269,3.3475 c -1.67956,12.1333 0.63603,24.4838 6.59564,35.1852 3.95763,7.1065 9.40416,13.2733 15.96825,18.0773 a 2.9692235,2.9692235 0 0 1 0.64331,4.15 2.9692235,2.9692235 0 0 1 -4.14937,0.641 c -7.25496,-5.3096 -13.27682,-12.1247 -17.65099,-19.9792 -6.5865,-11.8271 -9.14375,-25.4773 -7.28751,-38.8868 z"
       id="path3507-0" />
    <path
       style="color:#000000;mix-blend-mode:normal;fill:#0094e3;fill-opacity:1;fill-rule:evenodd;stroke-width:1.18769;stroke-linecap:round;-inkscape-stroke:none"
       d="m -596.41106,-397.321 a 2.9692235,2.9692235 0 0 1 3.91543,-1.5163 c 12.40971,5.4781 22.69397,14.8533 29.29387,26.7045 4.36983,7.8468 6.99321,16.5445 7.69008,25.4988 a 2.9692235,2.9692235 0 0 1 -2.73038,3.1915 2.9692235,2.9692235 0 0 1 -3.18921,-2.7298 c -0.63052,-8.1017 -3.00332,-15.9713 -6.95703,-23.0708 -5.97174,-10.7232 -15.27792,-19.2058 -26.50652,-24.1625 a 2.9692235,2.9692235 0 0 1 -1.51624,-3.9154 z"
       id="path3503-3" />
    <path
       style="color:#000000;mix-blend-mode:normal;fill:#0094e3;fill-opacity:1;fill-rule:evenodd;stroke-width:1.18769;stroke-linecap:round;-inkscape-stroke:none"
       d="m -690.89214,-354.0262 a 2.9692235,2.9692235 0 0 1 3.41616,-2.4383 2.9692235,2.9692235 0 0 1 2.44056,3.4167 c -2.55089,15.2704 0.16097,30.9534 7.69358,44.4794 5.84577,10.497 14.3579,19.2656 24.67621,25.4213 a 2.9692235,2.9692235 0 0 1 1.0279,4.0719 2.9692235,2.9692235 0 0 1 -4.06963,1.0284 c -11.21529,-6.6909 -20.46709,-16.2224 -26.82103,-27.632 -8.18707,-14.7012 -11.13628,-31.7502 -8.36375,-48.3474 z"
       id="path3499-18" />
    <path
       style="color:#000000;mix-blend-mode:normal;fill:#0094e3;fill-opacity:1;fill-rule:evenodd;stroke-width:1.18769;stroke-linecap:round;-inkscape-stroke:none"
       d="m -593.42373,-408.8684 a 2.9692235,2.9692235 0 0 1 3.8735,-1.6235 c 15.58251,6.3799 28.53375,17.8702 36.72608,32.5808 6.3482,11.3993 9.57913,24.2708 9.36809,37.3168 a 2.9692235,2.9692235 0 0 1 -3.0156,2.921 2.9692235,2.9692235 0 0 1 -2.92277,-3.0184 c 0.19417,-12.0026 -2.77804,-23.8427 -8.61852,-34.3302 -7.53745,-13.5347 -19.45041,-24.1031 -33.78727,-29.973 a 2.9692235,2.9692235 0 0 1 -1.62351,-3.8735 z"
       id="path3495-0" />
    <path
       style="color:#000000;mix-blend-mode:normal;fill:#0094e3;fill-opacity:1;fill-rule:evenodd;stroke-width:1.18769;stroke-linecap:round;-inkscape-stroke:none"
       d="m -701.87526,-359.8234 a 2.9692235,2.9692235 0 0 1 3.5254,-2.2823 2.9692235,2.9692235 0 0 1 2.27994,3.5249 c -4.06716,18.9952 -1.09863,38.8198 8.35273,55.7912 8.17749,14.684 20.76247,26.4262 35.97734,33.5676 a 2.9692235,2.9692235 0 0 1 1.42515,3.9492 2.9692235,2.9692235 0 0 1 -3.9492,1.4251 c -16.34122,-7.67 -29.85922,-20.2817 -38.64209,-36.0528 -10.15072,-18.2272 -13.33738,-39.5222 -8.96927,-59.9229 z"
       id="path3491-1" />
    <path
       style="color:#000000;mix-blend-mode:normal;fill:#0094e3;fill-opacity:1;fill-rule:evenodd;stroke-width:1.18769;stroke-linecap:round;-inkscape-stroke:none"
       d="m -592.48738,-421.0812 a 2.9692235,2.9692235 0 0 1 3.7966,-1.796 c 19.6537,7.0259 36.08705,20.9525 46.24197,39.1873 8.77941,15.7649 12.38562,33.8917 10.30673,51.8161 a 2.9692235,2.9692235 0 0 1 -3.29268,2.6049 2.9692235,2.9692235 0 0 1 -2.60761,-3.2909 c 1.93561,-16.689 -1.41871,-33.5622 -9.59297,-48.2404 -9.45529,-16.9785 -24.75595,-29.9449 -43.05555,-36.4867 a 2.9692235,2.9692235 0 0 1 -1.79649,-3.7943 z"
       id="path3487-7" />
    <path
       style="color:#000000;mix-blend-mode:normal;fill:#0094e3;fill-opacity:1;fill-rule:evenodd;stroke-width:1.18769;stroke-linecap:round;-inkscape-stroke:none"
       d="m -712.12375,-367.889 a 2.9692235,2.9692235 0 0 1 3.65256,-2.0696 2.9692235,2.9692235 0 0 1 2.07238,3.6508 c -6.43549,23.2942 -3.45181,48.1835 8.30628,69.297 11.02447,19.7962 28.96081,34.8297 50.37938,42.2238 a 2.9692235,2.9692235 0 0 1 1.83665,3.775 2.9692235,2.9692235 0 0 1 -3.77503,1.8367 c -22.79887,-7.8707 -41.89488,-23.8744 -53.62981,-44.9464 -12.51558,-22.4737 -15.69249,-48.9725 -8.84241,-73.7673 z"
       id="path3483-9" />
    <path
       style="color:#000000;mix-blend-mode:normal;fill:#0094e3;fill-opacity:1;fill-rule:evenodd;stroke-width:1.18769;stroke-linecap:round;-inkscape-stroke:none"
       d="m -593.87251,-433.8291 a 2.9692235,2.9692235 0 0 1 3.68334,-2.0173 c 24.71204,7.2226 45.5916,23.8851 58.11797,46.3782 11.72655,21.0569 15.28076,45.6996 9.9827,69.212 a 2.9692235,2.9692235 0 0 1 -3.54976,2.2433 2.9692235,2.9692235 0 0 1 -2.24326,-3.5497 c 4.9773,-22.089 1.63811,-45.2343 -9.37848,-65.0164 -11.76823,-21.1317 -31.37888,-36.7814 -54.59525,-43.5667 a 2.9692235,2.9692235 0 0 1 -2.01726,-3.6834 z"
       id="path3479-1" />
    <path
       style="color:#000000;mix-blend-mode:normal;fill:#0094e3;fill-opacity:1;fill-rule:evenodd;stroke-width:1.18769;stroke-linecap:round;-inkscape-stroke:none"
       d="m -724.58386,-367.1017 c 0.89819,-3.7938 2.0025,-7.556 3.31377,-11.2698 a 2.9692235,2.9692235 0 0 1 3.78843,-1.8122 2.9692235,2.9692235 0 0 1 1.81213,3.7885 c -9.9242,28.1078 -7.30352,59.1203 7.19939,85.1627 14.51337,26.0609 39.52192,44.6272 68.66762,50.9781 a 2.9692235,2.9692235 0 0 1 2.26882,3.5319 2.9692235,2.9692235 0 0 1 -3.5341,2.2683 c -30.80781,-6.7132 -57.25011,-26.3421 -72.59114,-53.8892 -13.41374,-24.0866 -17.21223,-52.2019 -10.92492,-78.7583 z"
       id="path3477-0" />
    <path
       style="color:#000000;mix-blend-mode:normal;fill:#0094e3;fill-opacity:1;fill-rule:evenodd;stroke-width:1.18769;stroke-linecap:round;-inkscape-stroke:none"
       d="m -597.8437,-446.873 a 2.9692235,2.9692235 0 0 1 3.53462,-2.2706 c 30.81755,6.7084 57.26824,26.3421 72.61323,53.8966 15.3444,27.5536 18.10657,60.3768 7.58334,90.1075 a 2.9692235,2.9692235 0 0 1 -3.79015,1.8093 2.9692235,2.9692235 0 0 1 -1.8071,-3.7896 c 9.95549,-28.1267 7.34167,-59.171 -7.1749,-85.238 -14.51711,-26.068 -39.53305,-44.6365 -68.68796,-50.9828 a 2.9692235,2.9692235 0 0 1 -2.27108,-3.5324 z"
       id="path3473-3" />
    <path
       style="color:#000000;mix-blend-mode:normal;fill:#abe52b;fill-opacity:0.653182;fill-rule:evenodd;stroke-width:1.18769;stroke-linecap:round;-inkscape-stroke:none"
       d="m -632.38352,-343.8227 a 2.9692235,2.9692235 0 0 1 3.34573,-2.5355 2.9692235,2.9692235 0 0 1 2.53547,3.3458 c -0.63325,4.5938 2.30561,8.856 6.8245,9.8974 4.51974,1.0416 9.02808,-1.5056 10.46849,-5.9145 a 2.9692235,2.9692235 0 0 1 3.74407,-1.8985 2.9692235,2.9692235 0 0 1 1.9008,3.7446 c -2.37884,7.2812 -9.98267,11.5754 -17.44698,9.8551 -7.46294,-1.7199 -12.4179,-8.9076 -11.37208,-16.4944 z"
       id="path1973-0-9" />
    <path
       style="color:#000000;mix-blend-mode:normal;fill:#abe52b;fill-opacity:0.653182;fill-rule:evenodd;stroke-width:1.18769;stroke-linecap:round;-inkscape-stroke:none"
       d="m -644.35912,-343.2784 a 2.9692235,2.9692235 0 0 1 3.13039,-2.7994 2.9692235,2.9692235 0 0 1 2.79986,3.1282 c -0.56255,10.1189 6.20813,19.1322 16.08381,21.4081 9.87631,2.2761 19.90881,-2.8639 23.83129,-12.2093 a 2.9692235,2.9692235 0 0 1 3.88934,-1.5889 2.9692235,2.9692235 0 0 1 1.58717,3.8865 c -5.02552,11.9734 -17.98779,18.6146 -30.64141,15.6985 -12.65284,-2.916 -21.40121,-14.5592 -20.68045,-27.5237 z"
       id="path3533-7-4" />
    <path
       style="color:#000000;mix-blend-mode:normal;fill:#abe52b;fill-opacity:0.653182;fill-rule:evenodd;stroke-width:1.18769;stroke-linecap:round;-inkscape-stroke:none"
       d="m -629.8915,-362.3829 a 2.9692235,2.9692235 0 0 1 1.53429,-3.9099 c 5.25051,-2.2889 11.09966,-2.8291 16.68108,-1.5428 5.57784,1.2855 10.59682,4.3297 14.3153,8.6814 a 2.9692235,2.9692235 0 0 1 -0.32895,4.1853 2.9692235,2.9692235 0 0 1 -4.1853,-0.3289 c -2.89263,-3.3852 -6.79564,-5.7511 -11.13466,-6.751 -4.34181,-1.0006 -8.88973,-0.5809 -12.97413,1.1997 a 2.9692235,2.9692235 0 0 1 -3.90763,-1.5338 z"
       id="path3529-0-8" />
    <path
       style="color:#000000;mix-blend-mode:normal;fill:#abe52b;fill-opacity:0.653182;fill-rule:evenodd;stroke-width:1.18769;stroke-linecap:round;-inkscape-stroke:none"
       d="m -656.26303,-340.7418 a 2.9692235,2.9692235 0 0 1 2.88828,-3.0504 2.9692235,2.9692235 0 0 1 3.04809,2.8878 c 0.40626,14.8894 10.79991,27.5914 25.31437,30.9364 14.51446,3.345 29.41911,-3.5268 36.30108,-16.7365 a 2.9692235,2.9692235 0 0 1 4.00454,-1.2624 2.9692235,2.9692235 0 0 1 1.2619,4.0068 c -8.11835,15.5828 -25.77912,23.7248 -42.90113,19.7789 -17.12202,-3.9459 -29.43788,-18.9963 -29.91713,-36.5606 z"
       id="path3525-1-4" />
    <path
       style="color:#000000;mix-blend-mode:normal;fill:#abe52b;fill-opacity:0.653182;fill-rule:evenodd;stroke-width:1.18769;stroke-linecap:round;-inkscape-stroke:none"
       d="m -641.90208,-370.7974 a 2.9692235,2.9692235 0 0 1 1.16364,-1.9505 c 9.08489,-6.7685 20.6899,-9.2054 31.72955,-6.6612 11.03739,2.5437 20.40389,9.8097 25.6107,19.8687 a 2.9692235,2.9692235 0 0 1 -1.27259,4.0035 2.9692235,2.9692235 0 0 1 -4.00129,-1.2721 c -4.40733,-8.5145 -12.32776,-14.6602 -21.67044,-16.8134 -9.34459,-2.1535 -19.15902,-0.093 -26.84898,5.6364 a 2.9692235,2.9692235 0 0 1 -4.15444,-0.6075 2.9692235,2.9692235 0 0 1 -0.55615,-2.2039 z"
       id="path3521-0-6" />
    <path
       style="color:#000000;mix-blend-mode:normal;fill:#abe52b;fill-opacity:0.653182;fill-rule:evenodd;stroke-width:1.18769;stroke-linecap:round;-inkscape-stroke:none"
       d="m -667.82797,-336.0608 a 2.9692235,2.9692235 0 0 1 2.61438,-3.2873 2.9692235,2.9692235 0 0 1 3.2855,2.6116 c 2.14443,18.7545 15.85401,34.1028 34.24857,38.3421 18.39508,4.2393 37.43909,-3.5599 47.57535,-19.4849 a 2.9692235,2.9692235 0 0 1 4.09992,-0.912 2.9692235,2.9692235 0 0 1 0.90967,4.0994 c -11.47565,18.0294 -33.09279,26.8837 -53.91856,22.0842 -20.82519,-4.7994 -36.38705,-22.2204 -38.81483,-43.4531 z"
       id="path3517-1-9" />
    <path
       style="color:#000000;mix-blend-mode:normal;fill:#abe52b;fill-opacity:0.653182;fill-rule:evenodd;stroke-width:1.18769;stroke-linecap:round;-inkscape-stroke:none"
       d="m -651.17609,-378.4432 a 2.9692235,2.9692235 0 0 1 1.04766,-2.0153 c 12.13315,-10.1835 28.351,-14.0815 43.78677,-10.5241 15.4114,3.5517 28.27167,14.1257 34.73409,28.5605 a 2.9692235,2.9692235 0 0 1 -1.4969,3.9233 2.9692235,2.9692235 0 0 1 -3.9238,-1.4947 c -5.70411,-12.7409 -17.04403,-22.0674 -30.64701,-25.2024 -13.62451,-3.1399 -27.92612,0.297 -38.63555,9.2856 a 2.9692235,2.9692235 0 0 1 -4.18201,-0.3639 2.9692235,2.9692235 0 0 1 -0.68325,-2.169 z"
       id="path3513-3-2" />
    <path
       style="color:#000000;mix-blend-mode:normal;fill:#abe52b;fill-opacity:0.653182;fill-rule:evenodd;stroke-width:1.18769;stroke-linecap:round;-inkscape-stroke:none"
       d="m -678.309,-331.3728 a 2.9692235,2.9692235 0 0 1 1.88002,-1.2784 2.9692235,2.9692235 0 0 1 3.51058,2.3064 c 4.47378,21.5845 21.09144,38.5736 42.57165,43.5239 21.48865,4.9523 43.87372,-3.0599 57.34111,-20.5218 a 2.9692235,2.9692235 0 0 1 4.16592,-0.5373 2.9692235,2.9692235 0 0 1 0.53727,4.166 c -14.87568,19.2878 -39.64218,28.15 -63.37792,22.6798 -23.72642,-5.4679 -42.11113,-24.2643 -47.05273,-48.1059 a 2.9692235,2.9692235 0 0 1 0.42412,-2.2327 z"
       id="path3509-7-90" />
    <path
       style="color:#000000;mix-blend-mode:normal;fill:#abe52b;fill-opacity:0.653182;fill-rule:evenodd;stroke-width:1.18769;stroke-linecap:round;-inkscape-stroke:none"
       d="m -658.82901,-387.5246 a 2.9692235,2.9692235 0 0 1 1.04819,-2.0176 c 14.98997,-12.5904 35.03046,-17.4102 54.10639,-13.014 19.04833,4.3899 34.94055,17.4653 42.91958,35.3104 a 2.9692235,2.9692235 0 0 1 -1.49865,3.9205 2.9692235,2.9692235 0 0 1 -3.92327,-1.4969 c -7.22111,-16.15 -21.59232,-27.9743 -38.83128,-31.9472 -17.26396,-3.9787 -35.3868,0.3814 -48.95292,11.7759 a 2.9692235,2.9692235 0 0 1 -4.18427,-0.3644 2.9692235,2.9692235 0 0 1 -0.68377,-2.1667 z"
       id="path3505-7-3" />
    <path
       style="color:#000000;mix-blend-mode:normal;fill:#abe52b;fill-opacity:0.653182;fill-rule:evenodd;stroke-width:1.18769;stroke-linecap:round;-inkscape-stroke:none"
       d="m -688.63019,-319.9826 a 2.9692235,2.9692235 0 0 1 1.96451,-3.7108 2.9692235,2.9692235 0 0 1 3.71025,1.9668 c 7.16275,23.2984 26.18945,41.0053 49.94144,46.4792 23.76317,5.4765 48.62976,-2.1273 65.26659,-19.9569 a 2.9692235,2.9692235 0 0 1 4.19682,-0.1445 2.9692235,2.9692235 0 0 1 0.14728,4.195 c -18.07675,19.3728 -45.12442,27.6436 -70.9443,21.6932 -25.80776,-5.9477 -46.49989,-25.2071 -54.28259,-50.522 z"
       id="path3501-2-0" />
    <path
       style="color:#000000;mix-blend-mode:normal;fill:#abe52b;fill-opacity:0.653182;fill-rule:evenodd;stroke-width:1.18769;stroke-linecap:round;-inkscape-stroke:none"
       d="m -663.81176,-399.9494 c 17.68677,-14.0311 40.80485,-19.2503 62.80456,-14.1803 21.98895,5.0676 40.48263,19.8679 50.24823,40.2106 a 2.9692235,2.9692235 0 0 1 -1.39153,3.9618 2.9692235,2.9692235 0 0 1 -3.96133,-1.3937 c -8.98618,-18.7192 -25.99502,-32.3288 -46.22898,-36.9919 -20.24387,-4.6654 -41.50457,0.1346 -57.77972,13.0458 a 2.9692235,2.9692235 0 0 1 -4.17178,-0.4805 2.9692235,2.9692235 0 0 1 0.48055,-4.1718 z"
       id="path3497-6-3" />
    <path
       style="color:#000000;mix-blend-mode:normal;fill:#abe52b;fill-opacity:0.653182;fill-rule:evenodd;stroke-width:1.18769;stroke-linecap:round;-inkscape-stroke:none"
       d="m -697.08813,-310.7482 a 2.9692235,2.9692235 0 0 1 1.60034,-1.6141 2.9692235,2.9692235 0 0 1 3.88558,1.5882 c 9.98041,23.783 30.78756,41.308 55.92099,47.1002 25.14011,5.7938 51.52374,-0.8628 70.90769,-17.888 a 2.9692235,2.9692235 0 0 1 4.19103,0.2732 2.9692235,2.9692235 0 0 1 -0.27035,4.1893 c -20.81529,18.2823 -49.1655,25.4339 -76.16198,19.2123 -26.98934,-6.22 -49.34429,-25.0482 -60.06168,-50.5874 a 2.9692235,2.9692235 0 0 1 -0.0116,-2.2737 z"
       id="path3493-4-3" />
    <path
       style="color:#000000;mix-blend-mode:normal;fill:#abe52b;fill-opacity:0.653182;fill-rule:evenodd;stroke-width:1.18769;stroke-linecap:round;-inkscape-stroke:none"
       d="m -668.07481,-411.6132 c 20.12605,-14.5279 45.54716,-19.6643 69.73485,-14.09 24.17915,5.5723 44.78271,21.3082 56.52247,43.1682 a 2.9692235,2.9692235 0 0 1 -1.20982,4.0204 2.9692235,2.9692235 0 0 1 -4.02265,-1.2104 c -10.93169,-20.3553 -30.10879,-35.0027 -52.62362,-40.1915 -22.52277,-5.1906 -46.18519,-0.4101 -64.9259,13.1177 a 2.9692235,2.9692235 0 0 1 -4.1449,-0.6695 2.9692235,2.9692235 0 0 1 0.66957,-4.1449 z"
       id="path3489-5-7" />
    <path
       style="color:#000000;mix-blend-mode:normal;fill:#abe52b;fill-opacity:0.653182;fill-rule:evenodd;stroke-width:1.18769;stroke-linecap:round;-inkscape-stroke:none"
       d="m -703.74078,-296.7556 a 2.9692235,2.9692235 0 0 1 1.41843,-1.7751 2.9692235,2.9692235 0 0 1 4.03254,1.1674 c 12.63626,22.9253 34.43278,39.3843 59.94136,45.263 25.52453,5.8823 52.34174,0.6129 73.74293,-14.4899 a 2.9692235,2.9692235 0 0 1 4.13726,0.713 2.9692235,2.9692235 0 0 1 -0.71357,4.1396 c -22.77921,16.0752 -51.33218,21.6852 -78.50024,15.424 -27.15108,-6.2572 -50.35829,-23.7808 -63.80819,-48.1823 a 2.9692235,2.9692235 0 0 1 -0.25052,-2.2597 z"
       id="path3485-2-9" />
    <path
       style="color:#000000;mix-blend-mode:normal;fill:#abe52b;fill-opacity:0.653182;fill-rule:evenodd;stroke-width:1.18769;stroke-linecap:round;-inkscape-stroke:none"
       d="m -671.5782,-422.6068 a 2.9692235,2.9692235 0 0 1 1.30487,-1.8608 c 22.14623,-14.0897 49.02274,-18.7038 74.6006,-12.8091 25.55622,5.8896 47.68793,21.7816 61.43664,44.115 a 2.9692235,2.9692235 0 0 1 -0.9723,4.0846 2.9692235,2.9692235 0 0 1 -4.08466,-0.9723 c -12.91666,-20.9818 -33.70368,-35.9073 -57.7133,-41.4406 -24.02996,-5.5379 -49.27406,-1.2024 -70.08005,12.0346 a 2.9692235,2.9692235 0 0 1 -4.09872,-0.9112 2.9692235,2.9692235 0 0 1 -0.39308,-2.2402 z"
       id="path3481-0-4" />
    <path
       style="color:#000000;mix-blend-mode:normal;fill:#abe52b;fill-opacity:0.653182;fill-rule:evenodd;stroke-width:1.18769;stroke-linecap:round;-inkscape-stroke:none"
       d="m -707.5024,-280.0306 a 2.9692235,2.9692235 0 0 1 1.19948,-1.9303 2.9692235,2.9692235 0 0 1 4.14351,0.686 c 14.73982,20.5761 36.47935,35.064 61.14373,40.7481 24.65748,5.6824 50.53982,2.173 72.79461,-9.8688 a 2.9692235,2.9692235 0 0 1 4.023,1.1985 2.9692235,2.9692235 0 0 1 -1.19677,4.0257 c -23.52515,12.7293 -50.88948,16.4382 -76.95446,10.4313 -26.07226,-6.0085 -49.05834,-21.3266 -64.63953,-43.0773 a 2.9692235,2.9692235 0 0 1 -0.51357,-2.2132 z"
       id="path3475-2-9" />
    <path
       style="color:#000000;mix-blend-mode:normal;fill:#abe52b;fill-opacity:0.653182;fill-rule:evenodd;stroke-width:1.18769;stroke-linecap:round;-inkscape-stroke:none"
       d="m -671.46669,-436.6119 a 2.9692235,2.9692235 0 0 1 1.43269,-1.7646 c 18.84795,-10.2175 40.27286,-14.6991 61.63549,-12.8881 5.18143,0.4391 10.3258,1.2467 15.39301,2.4143 7.17431,1.6534 14.1652,4.0233 20.86535,7.0749 17.48141,7.9621 32.56987,20.3689 43.75974,35.9824 a 2.9692235,2.9692235 0 0 1 -0.68365,4.1441 2.9692235,2.9692235 0 0 1 -4.14403,-0.6837 c -10.58518,-14.7697 -24.85747,-26.5057 -41.3942,-34.0375 -6.33798,-2.8867 -12.95031,-5.1294 -19.73683,-6.6934 -4.7933,-1.1046 -9.65809,-1.8664 -14.55944,-2.2818 -20.20838,-1.7131 -40.47634,2.5237 -58.30593,12.1891 a 2.9692235,2.9692235 0 0 1 -4.02577,-1.1968 2.9692235,2.9692235 0 0 1 -0.23643,-2.2589 z"
       id="path3471-9-9" />
  </g>
</svg>
