<?xml version="1.0" encoding="UTF-8" standalone="no"?>
<!-- Created with Inkscape (http://www.inkscape.org/) -->

<svg
   width="296.4874mm"
   height="296.49039mm"
   viewBox="0 0 296.4874 296.49039"
   version="1.1"
   id="svg15185"
   inkscape:version="1.4.2 (ebf0e940, 2025-05-08)"
   sodipodi:docname="logo.svg"
   xmlns:inkscape="http://www.inkscape.org/namespaces/inkscape"
   xmlns:sodipodi="http://sodipodi.sourceforge.net/DTD/sodipodi-0.dtd"
   xmlns="http://www.w3.org/2000/svg"
   xmlns:svg="http://www.w3.org/2000/svg">
  <sodipodi:namedview
     id="namedview15187"
     pagecolor="#000000"
     bordercolor="#111111"
     borderopacity="1"
     inkscape:showpageshadow="0"
     inkscape:pageopacity="0"
     inkscape:pagecheckerboard="1"
     inkscape:deskcolor="#d1d1d1"
     inkscape:document-units="mm"
     showgrid="true"
     inkscape:zoom="0.10512065"
     inkscape:cx="513.69545"
     inkscape:cy="428.07954"
     inkscape:window-width="3840"
     inkscape:window-height="2107"
     inkscape:window-x="0"
     inkscape:window-y="25"
     inkscape:window-maximized="0"
     inkscape:current-layer="layer1">
    <inkscape:grid
       id="grid1"
       units="mm"
       originx="-157.9486"
       originy="3.6773069e-05"
       spacingx="1"
       spacingy="0.99999998"
       empcolor="#0099e5"
       empopacity="0.30196078"
       color="#0099e5"
       opacity="0.14901961"
       empspacing="5"
       enabled="true"
       visible="true" />
  </sodipodi:namedview>
  <defs
     id="defs15182" />
  <g
     inkscape:label="Layer 1"
     inkscape:groupmode="layer"
     id="layer1"
     transform="translate(222.92319,777.60212)">
    <path
       id="path3471-0"
       style="color:#000000;mix-blend-mode:normal;fill:#ffffff;fill-opacity:1;fill-rule:evenodd;stroke-width:1.60265;stroke-linecap:round;-inkscape-stroke:none;opacity:1"
       d="m -75.558116,-777.5995 -1.681551,8.03672 c 3.386858,-0.0618 6.781908,-10e-4 10.17819,0.18345 l 1.65933,-7.93233 c -3.387999,-0.21248 -6.77512,-0.30792 -10.155969,-0.28784 z m -10.304281,0.42013 c -3.502449,0.26512 -6.991769,0.65469 -10.46086,1.16686 l -1.755965,8.39225 c 3.480196,-0.58896 6.984097,-1.04696 10.503751,-1.37201 z m 30.473592,0.83819 -1.645894,7.86929 c 3.311094,0.41962 6.605862,0.95686 9.878983,1.61179 l 1.641244,-7.84397 c -3.272173,-0.6567 -6.56576,-1.20263 -9.874333,-1.63711 z m -51.562745,2.29599 c -3.63658,0.81131 -7.24276,1.75971 -10.81123,2.84375 l -1.88722,9.02116 c 3.58687,-1.21436 7.21862,-2.28191 10.88616,-3.20084 z m 71.172918,1.63918 -1.644344,7.85791 c 3.230832,0.89043 6.428437,1.89622 9.585978,3.01532 l 1.655196,-7.91166 c -3.163855,-1.09511 -6.364656,-2.08272 -9.59683,-2.96157 z m -93.001038,5.0307 c -3.81011,1.49364 -7.56491,3.14778 -11.2541,4.9599 l -2.10323,10.05107 a 4.0066108,4.0066108 0 0 0 0.62632,-0.27286 c 3.51483,-1.90538 7.09979,-3.65465 10.74456,-5.24515 z m 112.053105,1.56993 -1.67535,8.00623 c 0.617464,0.27055 1.233214,0.54575 1.846916,0.82527 2.51732,1.14653 4.99583,2.36537 7.4326209,3.65404 l 1.7037719,-8.14524 c -1.9150112,-0.97499 -3.8533158,-1.90986 -5.8141158,-2.80293 -1.158369,-0.52758 -2.322898,-1.04009 -3.493843,-1.53737 z m -62.198788,4.29844 -1.691886,8.08736 c 3.402312,-0.16294 6.815656,-0.1863 10.2309,-0.0682 l 1.663981,-7.953 c -3.404161,-0.15352 -6.807751,-0.17527 -10.202478,-0.0661 z m -10.37146,0.74259 c -3.538393,0.39363 -7.058966,0.92972 -10.552844,1.60714 l -1.790593,8.5571 c 3.507959,-0.78004 7.048255,-1.40741 10.61021,-1.88051 z m 30.615703,0.16072 -1.647445,7.87342 c 3.305499,0.38462 6.605102,0.90353 9.890869,1.55752 l 1.641244,-7.84396 c -3.2841,-0.65569 -6.581363,-1.18422 -9.884668,-1.58698 z m 19.61379,3.91552 -1.644861,7.86153 c 3.237742,0.92039 6.426687,1.96878 9.559623,3.1409 l 1.658813,-7.92872 c -3.141608,-1.1424 -6.334911,-2.16803 -9.573575,-3.07371 z m -71.53362,0.0858 c -3.70341,1.04526 -7.36485,2.25357 -10.97401,3.62252 l -1.97455,9.43663 c 3.63368,-1.55523 7.33152,-2.93265 11.08046,-4.12998 z m 112.3373306,0.21291 -1.74407962,8.33644 c 3.05914732,1.92454 6.04025792,3.96514 8.93692222,6.11642 l 1.7973058,-8.59172 c -2.9221254,-2.05965 -5.9206389,-4.01468 -8.9901484,-5.86114 z m -21.8172726,6.61458 -1.683619,8.04809 c 3.139842,1.47855 6.211995,3.08629 9.208741,4.81728 l 1.721342,-8.22844 c -3.015963,-1.66326 -6.099907,-3.21036 -9.245948,-4.63693 -1.45e-4,-6e-5 -3.71e-4,7e-5 -5.16e-4,0 z m -112.729038,1.66295 c -3.93842,1.92794 -7.79484,4.05887 -11.5533,6.38979 l -1.54719,7.39386 a 4.0066108,4.0066108 0 0 0 4.55889,0.1788 c 2.10682,-1.34038 4.24769,-2.6133 6.41873,-3.81785 h 5.2e-4 z m 60.755983,2.59312 c -3.428794,-0.0774 -6.852946,-0.003 -10.262423,0.22221 h -5.17e-4 l -1.707906,8.16488 c 3.418814,-0.2965 6.856052,-0.43093 10.300147,-0.40049 z m 10.077421,0.66663 -1.649512,7.88272 c 3.309606,0.34018 6.615354,0.834 9.906372,1.48415 l 1.640727,-7.84345 c -3.28867,-0.65228 -6.590595,-1.15961 -9.897587,-1.52342 z m -30.800704,0.72295 c -3.591114,0.56637 -7.154282,1.30061 -10.67687,2.2009 h -5.1e-4 l -1.84434,8.81548 c 3.54082,-1.04477 7.13166,-1.90714 10.757486,-2.58433 z m 112.315108,0.31833 -1.867586,8.92659 c 2.949809,2.58147 5.792222,5.2873 8.519376,8.11113 l 1.960087,-9.3679 c -2.771055,-2.66841 -5.644016,-5.22671 -8.611877,-7.66982 z m -61.895447,2.84892 -1.645894,7.86722 c 3.236823,0.95692 6.414786,2.06089 9.525,3.30574 l 1.664498,-7.95507 c -3.121982,-1.20587 -6.305887,-2.28037 -9.543604,-3.21789 z m 40.5923545,1.31052 -1.7745687,8.48061 c 3.03248412,2.11883 5.9698496,4.3726 8.8030803,6.75515 l 1.8463989,-8.8253 c -2.8687389,-2.25849 -5.8293996,-4.39705 -8.8749105,-6.41046 z m -112.6112155,1.09502 c -3.8078,1.38398 -7.55021,2.96964 -11.21068,4.75371 h -5.2e-4 l -2.12494,10.15701 c 3.69453,-2.07829 7.4941,-3.92931 11.3776,-5.54954 z m 90.921583,4.90926 -1.69757,8.11475 c 3.126297,1.61006 6.167417,3.36922 9.113655,5.26996 l 1.748731,-8.35866 c -2.973251,-1.80909 -6.030997,-3.48659 -9.164816,-5.02605 z m -51.946183,4.1274 c -3.463168,0.0251 -6.915631,0.23004 -10.344071,0.61133 l -1.735295,8.292 c 3.440091,-0.48257 6.911197,-0.77154 10.396781,-0.86248 h 5.17e-4 z m 10.124447,0.43976 -1.652096,7.8972 c 3.315055,0.28009 6.628474,0.74055 9.926526,1.38544 l 1.641244,-7.84397 c -3.294583,-0.64773 -6.603821,-1.1263 -9.915674,-1.43867 z m 101.809806,1.70016 -2.083594,9.95856 c 1.674881,2.07553 3.293045,4.20177 4.8519,6.37687 a 4.0066108,4.0066108 0 0 0 3.685047,1.65003 l 1.65933,-7.92923 c -8e-5,-1.1e-4 8e-5,-4.1e-4 0,-5.2e-4 -2.562447,-3.47592 -5.270015,-6.83053 -8.112683,-10.05571 z m -173.693793,0.061 c -1.87158,1.19382 -3.71354,2.44417 -5.52421,3.75119 a 4.0066108,4.0066108 0 0 0 -0.90382,5.59294 4.0066108,4.0066108 0 0 0 4.14703,1.55908 z m 40.831619,0.16536 c -3.670234,0.81242 -7.294599,1.83085 -10.855149,3.05201 l -1.93942,9.27024 c 3.58469,-1.44438 7.25157,-2.65997 10.978142,-3.64113 z m 112.098067,1.35702 -1.945101,9.29504 c 2.903294,2.94843 5.665132,6.04766 8.27288,9.28936 l 2.08101,-9.94513 c -2.675278,-3.01204 -5.481524,-5.89411 -8.408789,-8.63927 z m -61.419507,0.5731 -1.647962,7.87652 c 3.23592,1.00659 6.39913,2.18606 9.477975,3.5295 l 1.673283,-7.99693 c -3.09556,-1.29021 -6.266655,-2.42918 -9.503296,-3.40909 z m 40.314335,2.63756 -1.822111,8.71058 c 3.0021586,2.39848 5.8773632,4.95726 8.6123943,7.66672 l 1.9270141,-9.21081 c -2.78907272,-2.52953 -5.6985625,-4.9211 -8.7172974,-7.16649 z m -113.028244,3.09077 c -3.99004,1.93337 -7.86597,4.13876 -11.59929,6.60993 l -2.43603,11.6427 a 4.0066108,4.0066108 0 0 0 0.44804,-0.30851 c 3.64608,-2.89246 7.4773,-5.48313 11.45718,-7.76387 z m 91.503976,2.12545 -1.719791,8.21914 c 3.109571,1.79654 6.107914,3.77078 8.979813,5.91178 l 1.792656,-8.57002 c -2.912689,-2.00941 -5.934048,-3.86608 -9.052678,-5.5609 z m -51.914143,3.97392 c -3.514149,0.17151 -7.008076,0.56284 -10.460861,1.16943 h -5.16e-4 l -1.781804,8.51731 c 3.468052,-0.76217 6.990561,-1.28207 10.541476,-1.55339 z m 10.191109,0.12092 -1.657263,7.92096 c 3.322496,0.1943 6.648422,0.60754 9.956498,1.24489 l 1.640727,-7.84397 c -3.302662,-0.64141 -6.621515,-1.08078 -9.939962,-1.32188 z m -31.419272,3.68091 c -3.804,1.20021 -7.52705,2.67225 -11.13885,4.40852 l -2.13734,10.21436 c 3.64472,-2.14452 7.4462,-3.97184 11.36158,-5.47202 z m 51.055283,0.12971 -1.651062,7.89099 c 3.235486,1.0785 6.378,2.36746 9.410278,3.853 l 1.688269,-8.06773 c -3.057936,-1.40777 -6.211881,-2.63708 -9.447485,-3.67626 z m 81.232251,2.38848 -2.276347,10.88048 c 0.365014,0.57174 0.725907,1.14687 1.082104,1.72547 a 4.0066108,4.0066108 0 0 0 5.511808,1.31207 4.0066108,4.0066108 0 0 0 1.312065,-5.51181 c -1.774831,-2.88304 -3.653602,-5.68648 -5.62963,-8.40621 z m -20.462834,0.14366 -2.0784262,9.9348 c 2.8441132,3.55006 5.4744922,7.29298 7.8703202,11.21223 l 2.308387,-11.0324 c -2.518086,-3.5313 -5.22347,-6.90711 -8.100281,-10.11463 z m -20.8385215,1.93787 -1.9042765,9.10125 c 2.9632557,2.83935 5.741316,5.8808 8.3116374,9.10643 l 2.07429197,-9.91516 c -2.66451657,-2.93319 -5.49735027,-5.70179 -8.48165287,-8.29252 z m -21.3005085,4.14548 -1.758032,8.40414 c 3.089678,2.0868 6.020679,4.39732 8.770007,6.91173 l 1.875855,-8.96535 c -2.819101,-2.30461 -5.787849,-4.42638 -8.88783,-6.35052 z m -92.46257,2.45619 c -2.06322,1.43767 -4.07067,2.97375 -6.01514,4.60695 a 4.0066108,4.0066108 0 0 0 -1.41438,2.72283 4.0066108,4.0066108 0 0 0 0.92294,2.92334 4.0066108,4.0066108 0 0 0 4.08967,1.29863 z m 50.877511,0.97978 -1.666565,7.96592 c 3.333067,0.0618 6.678403,0.40164 10.001974,1.02733 l 1.641243,-7.84448 c -3.314379,-0.63199 -6.648795,-1.01309 -9.976652,-1.14877 z m -10.291878,0.36019 c -3.600071,0.39996 -7.159983,1.086 -10.645345,2.05 l -1.879472,8.98446 c 3.504148,-1.2391 7.115242,-2.15034 10.785905,-2.72231 z m 29.942358,3.3817 -1.656746,7.91786 c 3.237312,1.19199 6.348334,2.65455 9.303825,4.36305 l 1.716174,-8.20467 c -2.999615,-1.58343 -6.127854,-2.94814 -9.363253,-4.07624 z m -51.668161,2.79725 c -4.09598,1.94633 -8.01735,4.31139 -11.69748,7.07915 l -1.88361,9.00462 a 4.0066108,4.0066108 0 0 0 4.18373,-0.601 c 2.3016,-1.93177 4.72596,-3.67371 7.2502,-5.21983 z m 111.4758804,4.33151 -2.3523112,11.24221 c 1.134035,1.97232 2.1990111,3.99359 3.1915364,6.06113 a 4.0066108,4.0066108 0 0 0 5.3454104,1.88102 4.0066108,4.0066108 0 0 0 0.02015,-0.01 l 1.338936,-6.40065 c -2.210786,-4.46937 -4.735596,-8.73561 -7.5437256,-12.7739 z m -20.4488814,0.076 -2.070674,9.89655 c 2.919736,3.69319 5.5110168,7.67478 7.7256263,11.90625 l 2.4225912,-11.57862 c -2.4335401,-3.62608 -5.1363265,-7.04262 -8.0775435,-10.22418 z m 40.463164,1.92495 -1.12913,5.39708 a 4.0066108,4.0066108 0 0 0 1.242818,-5.18624 c -0.03783,-0.0704 -0.07572,-0.1405 -0.113688,-0.21084 z m -61.43656,0.65525 -1.837098,8.78293 c 3.074087,2.61941 5.885414,5.54928 8.385535,8.75037 l 2.064474,-9.86813 c -2.651171,-2.79559 -5.533168,-5.35987 -8.612911,-7.66517 z m -41.377837,2.44688 -1.687752,8.06669 c 3.348465,-0.17137 6.730821,0.0386 10.082072,0.64389 l 1.641244,-7.84551 c -3.333003,-0.61646 -6.693402,-0.90167 -10.035564,-0.86507 z m -10.462927,1.17874 c -3.778112,0.8186 -7.465947,2.05741 -10.99106,3.70158 l -2.16731,10.35855 c 3.533269,-2.31978 7.350791,-4.09931 11.327991,-5.31234 z m 30.136662,2.44998 -1.669149,7.97833 c 3.249539,1.40004 6.305941,3.18111 9.108488,5.29631 l 1.783871,-8.52609 c -2.895977,-1.87756 -5.984288,-3.47112 -9.22321,-4.74855 z m 17.952393,11.85664 -2.054655,9.82214 c 1.553194,2.03115 2.938131,4.20885 4.132047,6.51537 a 4.0066108,4.0066108 0 0 0 4.281909,2.09909 l 1.659331,-7.93026 c -2.23373,-3.86011 -4.93505,-7.38409 -8.018632,-10.50634 z m 20.420975,0.0589 -2.544547,12.16309 a 4.0066108,4.0066108 0 0 0 0,5.1e-4 4.0066108,4.0066108 0 0 0 5.207434,1.83503 4.0066108,4.0066108 0 0 0 2.020032,-5.29425 c -1.357971,-3.03323 -2.925834,-5.93993 -4.682919,-8.70438 z m -56.369169,0.49558 c -1.695981,-0.0525 -3.392115,0.0146 -5.075659,0.2005 l -1.753898,8.38296 c 3.367114,-0.70046 6.845975,-0.77737 10.261906,-0.21601 l 1.642277,-7.84965 c -1.682873,-0.2932 -3.378644,-0.46529 -5.074626,-0.5178 z m 76.0398033,3.14865 -0.4097941,1.95905 a 4.0066108,4.0066108 0 0 0 0.4097941,-1.95905 z m -91.9561443,0.0341 a 4.0066108,4.0066108 0 0 0 -1.678967,5.07928 4.0066108,4.0066108 0 0 0 0.452685,0.78186 z m 30.560925,0.42633 -1.707389,8.16023 c 2.732375,1.5813 5.195385,3.62265 7.272424,6.05338 a 4.0066108,4.0066108 0 0 0 1.453142,1.0728 l 1.910994,-9.13536 c -2.65498,-2.49378 -5.666873,-4.56575 -8.929171,-6.15105 z m -46.485534,26.85676 -3.52382,16.8429 c 1.58495,4.80101 4.15922,9.19736 7.51479,12.91239 l 2.208134,-10.55388 c -2.497714,-4.49793 -3.777324,-9.72084 -3.473694,-15.18253 a 4.0066108,4.0066108 0 0 0 -2.72541,-4.01888 z m -17.44235,2.882 a 4.0066108,4.0066108 0 0 0 -3.89692,4.11602 c 0.20663,7.57288 2.04386,14.79944 5.20227,21.30155 l 3.32228,-15.88069 c -3e-5,-1.7e-4 2e-5,-3.5e-4 0,-5.2e-4 -0.2887,-1.84763 -0.46209,-3.7302 -0.51418,-5.63944 a 4.0066108,4.0066108 0 0 0 -4.11345,-3.89692 z m 63.62041,3.67264 a 4.0066108,4.0066108 0 0 0 -4.024044,2.75384 c -0.841323,2.57517 -2.458397,4.67988 -4.51652,6.12469 l -1.998845,9.55445 c 4.927352,-1.25802 9.283091,-4.3649 12.045777,-8.74417 l 1.644344,-7.85998 a 4.0066108,4.0066108 0 0 0 -2.122868,-1.63659 4.0066108,4.0066108 0 0 0 -1.027844,-0.19224 z m -27.320813,0.9772 -2.505274,11.9755 c 2.429666,2.51634 5.532004,4.41986 9.088334,5.39243 l 1.645895,-7.8667 c -4.397772,-1.3872 -7.518212,-5.10168 -8.228955,-9.50123 z m -51.819577,1.32137 a 4.0066108,4.0066108 0 0 0 -0.45475,0.0258 4.0066108,4.0066108 0 0 0 -3.52795,4.43538 c 0.34868,3.04944 0.89815,6.04057 1.63556,8.95915 l 2.80241,-13.39453 a 4.0066108,4.0066108 0 0 0 -0.45527,-0.0258 z m 93.247539,5.12113 a 4.0066108,4.0066108 0 0 0 -2.023649,0.54622 l -3.808037,18.20096 c 4.038509,-3.52171 7.336635,-7.98171 9.522417,-13.18938 a 4.0066108,4.0066108 0 0 0 -2.141472,-5.24464 4.0066108,4.0066108 0 0 0 -1.549259,-0.31316 z m -105.138289,5.08341 -3.30367,15.79077 c 6e-5,1.5e-4 -6e-5,3.6e-4 0,5.2e-4 1.91244,5.15523 4.31148,10.0701 7.14323,14.68851 l 2.5523,-12.19926 c -2.36262,-5.14923 -4.17135,-10.61126 -5.35264,-16.31063 a 4.0066108,4.0066108 0 0 0 -1.03922,-1.96991 z m 121.305777,6.17689 -1.716174,8.2026 c 0.775054,-1.22514 1.50405,-2.49024 2.183329,-3.79409 a 4.0066108,4.0066108 0 0 0 -0.467155,-4.40851 z m -102.299177,0.6413 -2.75333,13.15889 c 2.25108,3.98717 4.89376,7.72818 7.87963,11.16986 l 2.14457,-10.24899 c -8e-5,-1.2e-4 8e-5,-3.9e-4 0,-5.2e-4 -3.01148,-4.31773 -5.46671,-9.04593 -7.27087,-14.07924 z m 40.326733,2.57607 -1.751315,8.37055 c 2.892061,1.66884 6.053987,2.95516 9.426298,3.78013 l 1.641761,-7.84913 c -3.428032,-0.87259 -6.56695,-2.35075 -9.316744,-4.30155 z m -20.682973,1.19579 -2.16266,10.33581 c 2.55348,2.90217 5.43073,5.52373 8.58345,7.80572 l 1.8278,-8.73642 c -3.18526,-2.72935 -5.9627,-5.89866 -8.24859,-9.40511 z m 51.044944,0.17932 c -3.341296,1.94506 -7.076692,3.1946 -10.975558,3.63027 l -1.705322,8.15041 c 3.666684,-0.14819 7.254454,-0.85714 10.648962,-2.06809 z m -106.153214,10e-4 a 4.0066108,4.0066108 0 0 0 -1.05316,0.17467 4.0066108,4.0066108 0 0 0 -2.651,5.00745 c 1.19359,3.88242 2.61236,7.65916 4.24056,11.3161 l 3.0391,-14.52676 a 4.0066108,4.0066108 0 0 0 -3.5755,-1.97146 z m 125.708093,4.19716 c -3.497424,4.14528 -7.691182,7.55846 -12.335165,10.12652 l -2.050521,9.79992 c 4.098909,-1.63513 7.985844,-3.78651 11.557434,-6.40736 z m 20.017899,1.98541 a 4.0066108,4.0066108 0 0 0 -2.987414,1.83762 c -2.886232,4.53453 -6.30753,8.58075 -10.143051,12.08918 l -2.54248,12.15326 c 4.539614,-3.05065 8.735847,-6.66414 12.474691,-10.79365 z m -73.397587,8.99377 -1.687235,8.06256 c 3.026416,1.36363 6.216496,2.45161 9.541536,3.22874 l 1.64176,-7.84603 c -3.342821,-0.79603 -6.521437,-1.96068 -9.496061,-3.44527 z m -81.828085,0.46044 -2.48563,11.87834 c 7e-5,1.4e-4 -7e-5,3.8e-4 0,5.2e-4 2.23544,4.49306 4.747,8.81068 7.51065,12.93306 l 2.38228,-11.38535 c -2.08452,-3.68124 -3.96385,-7.50463 -5.62187,-11.45563 a 4.0066108,4.0066108 0 0 0 -1.78543,-1.97094 z m 19.85202,2.77554 -2.44688,11.69386 c 8e-5,1.1e-4 -7e-5,4e-4 0,5.1e-4 2.42456,3.75149 5.09135,7.32612 7.97729,10.70323 l 2.12856,-10.17251 c -9e-5,-1.2e-4 8e-5,-4e-4 0,-5.2e-4 -2.85471,-3.84946 -5.41888,-7.93433 -7.65897,-12.22457 z m 91.902921,0.21807 c -3.397911,0.80972 -6.90969,1.21949 -10.466545,1.19683 l -1.668632,7.97419 c 3.494519,0.12878 6.961657,-0.0976 10.35389,-0.65681 z m -51.291441,0.99942 -1.87844,8.9762 c 2.79662,2.27446 5.78154,4.33323 8.9302,6.15001 l 1.73788,-8.3075 c -3.14653,-2.00347 -6.08719,-4.28866 -8.78964,-6.81871 z m -20.59254,0.76223 -2.13476,10.20248 c 2.60659,3.03139 5.42613,5.87454 8.4367,8.50646 l 1.91306,-9.14311 c -2.99421,-2.95247 -5.74292,-6.15172 -8.215,-9.56583 z m 125.13086,0.28577 a 4.0066108,4.0066108 0 0 0 -2.836003,1.16479 v 5.2e-4 l -3.228227,15.42851 c 3.312204,-3.09063 6.401108,-6.47436 9.2257937,-10.13685 a 4.0066108,4.0066108 0 0 0 -0.7250203,-5.62188 4.0066108,4.0066108 0 0 0 -2.4365434,-0.83509 z m -34.90743,7.96024 c -3.563892,1.9237 -7.313801,3.48278 -11.190015,4.65295 l -1.83503,8.77155 c 3.75349,-0.88079 7.421191,-2.07704 10.963672,-3.57291 z m -51.62889,2.60914 -1.666049,7.96437 c 3.04166,1.18514 6.194523,2.16141 9.442318,2.9099 0.05271,0.0122 0.10541,0.0242 0.15813,0.0362 l 1.641243,-7.845 c -3.311712,-0.76324 -6.511058,-1.79319 -9.575642,-3.06545 z m 70.702144,3.88969 c -3.71725,2.98231 -7.687005,5.59255 -11.849923,7.80882 h -5.16e-4 l -2.069125,9.89036 c 3.974976,-1.73747 7.820354,-3.78377 11.498006,-6.12521 z m -40.93807,0.34468 c -3.384584,0.37892 -6.820056,0.47181 -10.271724,0.26407 l -1.65623,7.91579 c 3.423252,0.2644 6.836483,0.26657 10.212814,0.0181 z m -122.799224,0.96015 a 4.0066108,4.0066108 0 0 0 -0.0248,0.0822 4.0066108,4.0066108 0 0 0 -0.13488,0.68058 z m 71.33208,0.87798 -1.78129,8.51266 c 2.91369,1.93677 5.95692,3.69732 9.11469,5.26686 l 1.70119,-8.13129 c -3.15227,-1.67564 -6.16991,-3.56462 -9.03459,-5.64823 z m 112.0985855,1.35289 c -3.8770725,4.14827 -8.0846695,7.88566 -12.5578895,11.19208 h -5.17e-4 l -2.351794,11.24273 c 4.1952,-2.57512 8.218342,-5.47105 12.031307,-8.67596 1.85e-4,-1.6e-4 3.31e-4,-3.6e-4 5.16e-4,-5.2e-4 z m -173.8710455,0.90899 -2.33732,11.17296 c 8e-5,1.2e-4 -8e-5,4e-4 0,5.2e-4 2.50629,3.63856 5.18484,7.13671 8.02277,10.48463 l 2.12183,-10.14202 c -2.80256,-3.67278 -5.41084,-7.51567 -7.80728,-11.51609 z m 40.72672,0.66611 -1.93839,9.26506 c 2.76821,2.54302 5.67944,4.93031 8.7204,7.14996 l 1.81591,-8.67803 c -3.02562,-2.39699 -5.89741,-4.98146 -8.59792,-7.73699 z m -20.5636,0.6227 -2.12442,10.15545 c 2.63538,3.09801 5.42787,6.05143 8.36486,8.84907 l 1.95854,-9.36015 c -2.91214,-3.04497 -5.65093,-6.26452 -8.19898,-9.64437 z m 59.98496,6.2823 -1.65726,7.92045 c 2.97843,1.05294 6.035674,1.94454 9.161716,2.66495 0.158257,0.0365 0.316583,0.0725 0.474906,0.10801 l 1.641244,-7.84397 c -0.105505,-0.0238 -0.211303,-0.048 -0.316777,-0.0724 -3.184991,-0.734 -6.290323,-1.66411 -9.303829,-2.77709 z m 50.944698,0.65939 c -3.522882,1.20009 -7.134376,2.14233 -10.805542,2.81637 l -1.758032,8.40104 c 3.614831,-0.52106 7.185337,-1.27596 10.688753,-2.25671 z m -31.434774,3.75223 -1.650545,7.88996 c 3.384084,0.34579 6.765941,0.484 10.128581,0.42013 l 1.687752,-8.06566 c -3.369756,0.1449 -6.765623,0.0657 -10.165788,-0.24443 z m -41.422794,2.66082 -1.73426,8.28993 c 2.98368,1.72169 6.06417,3.29383 9.23148,4.70721 l 1.68206,-8.03982 c -3.16194,-1.48266 -6.2258,-3.13894 -9.17928,-4.95732 z m 122.22044655,1.80712 -2.35696205,11.26547 c 1.7434988,-1.36282 3.4535135,-2.77974 5.1273356,-4.24987 a 4.0066108,4.0066108 0 0 0 0.3648356,-5.65289 4.0066108,4.0066108 0 0 0 -3.13520915,-1.36271 z m -30.90560755,1.22318 c -3.645574,1.92322 -7.409221,3.59591 -11.264428,5.01003 l -1.904277,9.09971 c 3.774335,-1.17761 7.479335,-2.57841 11.094413,-4.19613 z m -163.489759,0.12144 a 4.0066108,4.0066108 0 0 0 -0.72037,1.71566 4.0066108,4.0066108 0 0 0 0.0419,1.52859 z m 50.84185,1.15084 -1.84433,8.81496 c 2.86357,2.2352 5.83281,4.33712 8.89868,6.29781 l 1.76424,-8.43204 c -3.05338,-2.07629 -5.99656,-4.30648 -8.81859,-6.68073 z m -20.90208,2.24069 -1.97352,9.43405 c 2.75578,2.69904 5.62581,5.27391 8.60154,7.71787 l 1.8681,-8.9271 c -2.95675,-2.60166 -5.79272,-5.34583 -8.49612,-8.22482 z m -20.5481,0.5519 -2.11977,10.13117 c 2.6541,3.13981 5.43094,6.16011 8.32198,9.05474 l 1.98644,-9.49451 c -2.86527,-3.09536 -5.59826,-6.32809 -8.18865,-9.6914 z m 81.38418,1.66088 -1.65209,7.89668 c 2.90034,0.95587 5.85892,1.78361 8.869222,2.47737 0.263808,0.0608 0.527691,0.12072 0.791683,0.17931 l 1.641244,-7.84396 c -0.211156,-0.0471 -0.422006,-0.095 -0.633037,-0.14366 -3.06677,-0.70677 -6.075452,-1.56455 -9.017022,-2.56574 z m 91.642987,1.46348 c -3.765203,2.62975 -7.676146,5.00441 -11.705746,7.11688 l -2.078426,9.93376 c 3.921926,-1.78514 7.75396,-3.79229 11.475785,-6.01721 z m -41.090516,1.07074 c -3.487864,0.80998 -7.025669,1.41784 -10.596252,1.81746 l -1.719275,8.21758 c 3.537896,-0.30283 7.050165,-0.79284 10.522872,-1.46606 z m -31.030147,1.82211 -1.647961,7.87548 c 3.359282,0.40014 6.720867,0.62792 10.07277,0.68678 l 1.672766,-7.99589 c -3.357696,-0.004 -6.728089,-0.19077 -10.097575,-0.56637 z m -41.578344,3.40134 -1.7079,8.16488 c 3.03064,1.57137 6.13757,3.01271 9.31312,4.31756 l 1.6707,-7.98659 c -3.17083,-1.35406 -6.26581,-2.85533 -9.27592,-4.49585 z m -21.53667,5.27668 -1.79007,8.55555 c 2.92746,2.02019 5.93756,3.92319 9.02322,5.70353 l 1.73271,-8.2827 c -3.07555,-1.86259 -6.06673,-3.85685 -8.96586,-5.97638 z m 147.38790642,0.48317 a 4.0066108,4.0066108 0 0 0 -2.46909992,0.73019 c -0.8277508,0.58415 -1.6615929,1.15698 -2.5011393,1.71928 l -2.2768636,10.88254 c 3.2033628,-1.87693 6.3392799,-3.89546 9.3978759,-6.0539 a 4.0066108,4.0066108 0 0 0 0.962732,-5.58622 4.0066108,4.0066108 0 0 0 -3.11350508,-1.69189 z m -35.14462442,0.17777 c -3.591433,1.38552 -7.251428,2.57749 -10.963672,3.57136 l -1.822111,8.70955 c 3.665981,-0.84697 7.289885,-1.8716 10.858768,-3.07062 z m -71.953232,2.09083 -1.64899,7.88272 c 2.81391,0.87928 5.67215,1.65449 8.57002,2.32234 0.36936,0.0851 0.73873,0.1687 1.108455,0.25012 l 1.641243,-7.84397 c -0.316868,-0.07 -0.633744,-0.1415 -0.950329,-0.21446 -2.952979,-0.68054 -5.861719,-1.48103 -8.720399,-2.39675 z m -61.43243,0.6382 -1.88722,9.02116 c 2.83542,2.42394 5.75927,4.7384 8.76484,6.93859 l 1.81229,-8.66303 c -2.99066,-2.31148 -5.8899,-4.74549 -8.68991,-7.29672 z m 111.726002,3.13366 c -3.460921,0.56023 -6.952111,0.95281 -10.461894,1.17461 l -1.697571,8.11423 c 3.488339,-0.15418 6.96226,-0.46569 10.411251,-0.93121 z m -30.763497,0.54519 -1.645895,7.86722 c 3.342099,0.43916 6.689525,0.73123 10.03298,0.87798 l 1.663981,-7.95507 c -3.348234,-0.10642 -6.701984,-0.36899 -10.051066,-0.79013 z m 70.932621,2.78536 c -3.689335,1.92491 -7.462113,3.65749 -11.303186,5.19451 l -1.944584,9.29608 c 3.781606,-1.34112 7.507749,-2.8567 11.16676,-4.54391 z m -112.623616,1.15703 -1.69189,8.08633 c 3.06452,1.46011 6.19121,2.8049 9.37359,4.02973 l 1.66347,-7.95249 c -3.17833,-1.26165 -6.29552,-2.6514 -9.34517,-4.16357 z m -21.69067,6.01049 -1.75544,8.39019 c 2.97369,1.86023 6.01419,3.61581 9.11572,5.26221 l 1.71256,-8.18503 c -3.09323,-1.70832 -6.1198,-3.53206 -9.07284,-5.46737 z m 40.55412,1.49035 -1.64693,7.87342 c 2.72236,0.81578 5.47874,1.54611 8.26616,2.1885 0.47491,0.10944 0.95024,0.21631 1.42575,0.32039 l 1.64073,-7.84397 c -0.42262,-0.0928 -0.84499,-0.18745 -1.2671,-0.28473 -2.84175,-0.65491 -5.64929,-1.40721 -8.41861,-2.25361 z m 71.441632,0.35502 c -3.551343,1.04712 -7.146037,1.93444 -10.772986,2.65978 l -1.774052,8.48114 c 3.596487,-0.62348 7.166728,-1.39554 10.700639,-2.31459 z m 33.6222369,3.71863 a 4.0066108,4.0066108 0 0 0 -2.0164144,0.48008 c -0.6853057,0.37081 -1.3731136,0.73569 -2.0634395,1.0945 h -5.17e-4 l -2.083077,9.95805 c 2.6862005,-1.25112 5.3406943,-2.58544 7.9602375,-4.00286 a 4.0066108,4.0066108 0 0 0 1.6154052,-5.43222 4.0066108,4.0066108 0 0 0 -3.4121948,-2.09755 z m -85.5275959,0.21498 -1.644861,7.86153 c 3.329451,0.46857 6.666284,0.80879 10.003007,1.02164 l 1.658814,-7.92871 c -3.340732,-0.18213 -6.6825,-0.49972 -10.01696,-0.95446 z m 30.572294,0.36948 c -3.439966,0.38459 -6.898681,0.62552 -10.367326,0.7214 l -1.684135,8.04861 c 3.453511,-0.0457 6.899228,-0.22682 10.329602,-0.54157 z m -72.349587,3.9858 -1.68104,8.03362 c 3.09024,1.37419 6.2321,2.64434 9.4201,3.80752 l 1.65881,-7.92923 c -3.18451,-1.19181 -6.31889,-2.49704 -9.39787,-3.91191 z m 111.908413,2.26085 c -3.635806,1.49597 -7.324807,2.8351 -11.05669,4.01577 l -1.867069,8.92556 c 3.693446,-1.04688 7.351024,-2.23851 10.964188,-3.57394 z m -92.961253,4.83898 -1.64589,7.8667 c 2.62742,0.76112 5.28145,1.45139 7.95972,2.06861 0.58042,0.13376 1.1617,0.26405 1.74304,0.39067 l 1.64073,-7.84396 c -0.52844,-0.11536 -1.05624,-0.23342 -1.58388,-0.35502 -2.73209,-0.62963 -5.43787,-1.33929 -8.11372,-2.127 z m 71.069566,2.13269 c -3.520781,0.81062 -7.069804,1.4845 -10.639144,2.02054 l -1.743563,8.33541 c 3.547651,-0.46043 7.078505,-1.04909 10.5854,-1.76526 z m -51.528638,2.1332 -1.643827,7.85792 c 3.319628,0.49148 6.647849,0.86937 9.979235,1.13378 l 1.655197,-7.91115 c -3.334795,-0.24016 -6.667235,-0.60003 -9.990605,-1.08055 z m 30.428117,1.05885 c -3.423445,0.25379 -6.858304,0.38222 -10.297046,0.38396 l -1.674833,8.00467 c 3.427487,0.0371 6.852556,-0.0445 10.268107,-0.24442 z" />
    <g
       id="g1"
       style="font-variation-settings:normal;opacity:1;vector-effect:none;fill:#ffffff;fill-opacity:1;stroke-width:1.60265;stroke-linecap:round;stroke-linejoin:miter;stroke-miterlimit:4;stroke-dasharray:none;stroke-dashoffset:0;stroke-opacity:1;-inkscape-stroke:none;stop-color:#000000;stop-opacity:1">
      <path
         style="color:#000000;font-variation-settings:normal;mix-blend-mode:normal;vector-effect:none;fill:#ffffff;fill-opacity:1;fill-rule:evenodd;stroke-width:1.60265;stroke-linecap:round;stroke-linejoin:miter;stroke-miterlimit:4;stroke-dasharray:none;stroke-dashoffset:0;stroke-opacity:1;-inkscape-stroke:none;stop-color:#000000;stop-opacity:1"
         d="m -74.527098,-661.65866 a 4.0066108,4.0066108 0 0 1 4.491155,-3.45887 c 11.331324,1.47083 21.301285,8.23406 26.860664,18.2169 0.999971,1.79562 1.845817,3.67288 2.525864,5.61235 a 4.0066108,4.0066108 0 0 1 -2.455386,5.10699 4.0066108,4.0066108 0 0 1 -5.106904,-2.45546 c -0.52893,-1.50847 -1.187495,-2.96877 -1.965251,-4.36538 -4.327111,-7.77 -12.070946,-13.02368 -20.890602,-14.16836 a 4.0066108,4.0066108 0 0 1 -3.45954,-4.48817 z"
         id="path3527-3" />
      <path
         style="color:#000000;font-variation-settings:normal;mix-blend-mode:normal;vector-effect:none;fill:#ffffff;fill-opacity:1;fill-rule:evenodd;stroke-width:1.60265;stroke-linecap:round;stroke-linejoin:miter;stroke-miterlimit:4;stroke-dasharray:none;stroke-dashoffset:0;stroke-opacity:1;-inkscape-stroke:none;stop-color:#000000;stop-opacity:1"
         d="m -93.920779,-634.83474 c 1.405703,-4.93914 4.681634,-9.34284 9.493941,-12.02284 9.624642,-5.36001 21.891316,-1.86997 27.251255,7.75475 0.290104,0.52086 0.555446,1.05252 0.797943,1.59726 a 4.0066108,4.0066108 0 0 1 -2.032099,5.29119 4.0066108,4.0066108 0 0 1 -5.288126,-2.03149 c -0.145504,-0.32669 -0.305324,-0.64595 -0.479367,-0.95847 -3.25291,-5.84106 -10.509214,-7.9075 -16.35033,-4.65468 -5.841142,3.25295 -7.904533,10.50991 -4.651623,16.35111 0.174542,0.31333 0.361715,0.61707 0.563582,0.91367 a 4.0066108,4.0066108 0 0 1 -1.05813,5.567 4.0066108,4.0066108 0 0 1 -5.563979,-1.05738 c -0.336441,-0.49427 -0.65225,-1.00245 -0.943136,-1.5248 -2.679976,-4.81229 -3.145647,-10.28618 -1.739931,-15.22532 z"
         id="path3535-8" />
      <path
         style="color:#000000;font-variation-settings:normal;mix-blend-mode:normal;vector-effect:none;fill:#ffffff;fill-opacity:1;fill-rule:evenodd;stroke-width:1.60265;stroke-linecap:round;stroke-linejoin:miter;stroke-miterlimit:4;stroke-dasharray:none;stroke-dashoffset:0;stroke-opacity:1;-inkscape-stroke:none;stop-color:#000000;stop-opacity:1"
         d="m -110.08689,-636.17697 c 0.52865,-2.74693 1.38147,-5.44987 2.55892,-8.05107 a 4.0066108,4.0066108 0 0 1 5.30103,-1.99695 4.0066108,4.0066108 0 0 1 1.99696,5.30104 c -3.66594,8.09857 -3.2777,17.44667 1.047456,25.21316 0.778133,1.39729 1.674796,2.72643 2.679315,3.97096 a 4.0066108,4.0066108 0 0 1 -0.60131,5.6338 4.0066108,4.0066108 0 0 1 -5.633781,-0.60129 c -1.29151,-1.60009 -2.44238,-3.30773 -3.44284,-5.1043 -4.16765,-7.48366 -5.49169,-16.12414 -3.90575,-24.36535 z"
         id="path3531-7" />
      <path
         style="color:#000000;font-variation-settings:normal;mix-blend-mode:normal;vector-effect:none;fill:#ffffff;fill-opacity:1;fill-rule:evenodd;stroke-width:1.60265;stroke-linecap:round;stroke-linejoin:miter;stroke-miterlimit:4;stroke-dasharray:none;stroke-dashoffset:0;stroke-opacity:1;-inkscape-stroke:none;stop-color:#000000;stop-opacity:1"
         d="m -125.76936,-639.49239 a 4.0066108,4.0066108 0 0 1 4.70945,-3.15148 4.0066108,4.0066108 0 0 1 3.15157,4.70947 c -2.03388,10.25124 -0.35936,20.8907 4.72554,30.02141 1.81641,3.26159 4.03909,6.27921 6.61623,8.98026 a 4.0066108,4.0066108 0 0 1 -0.13305,5.6647 4.0066108,4.0066108 0 0 1 -5.66461,-0.13359 c -3.04568,-3.19223 -5.67361,-6.75878 -7.82029,-10.61342 -6.00845,-10.7891 -7.98818,-23.36451 -5.58488,-35.47789 z"
         id="path3523-1" />
      <path
         style="color:#000000;font-variation-settings:normal;mix-blend-mode:normal;vector-effect:none;fill:#ffffff;fill-opacity:1;fill-rule:evenodd;stroke-width:1.60265;stroke-linecap:round;stroke-linejoin:miter;stroke-miterlimit:4;stroke-dasharray:none;stroke-dashoffset:0;stroke-opacity:1;-inkscape-stroke:none;stop-color:#000000;stop-opacity:1"
         d="m -61.561,-675.78518 a 4.0066108,4.0066108 0 0 1 5.159462,-2.34442 c 11.567088,4.33435 21.216572,12.63924 27.226535,23.43104 2.146661,3.85478 3.795522,7.96512 4.905644,12.23524 a 4.0066108,4.0066108 0 0 1 -2.867203,4.88677 4.0066108,4.0066108 0 0 1 -4.886024,-2.87026 c -0.939317,-3.61324 -2.33463,-7.09072 -4.151044,-10.35244 -5.086164,-9.13301 -13.250142,-16.16072 -23.039233,-19.82887 a 4.0066108,4.0066108 0 0 1 -2.348137,-5.15706 z"
         id="path3519-0" />
      <path
         style="color:#000000;font-variation-settings:normal;mix-blend-mode:normal;vector-effect:none;fill:#ffffff;fill-opacity:1;fill-rule:evenodd;stroke-width:1.60265;stroke-linecap:round;stroke-linejoin:miter;stroke-miterlimit:4;stroke-dasharray:none;stroke-dashoffset:0;stroke-opacity:1;-inkscape-stroke:none;stop-color:#000000;stop-opacity:1"
         d="m -142.14321,-638.72055 a 4.0066108,4.0066108 0 0 1 4.517,-3.41757 4.0066108,4.0066108 0 0 1 3.41992,4.52069 c -1.7949,12.93232 0.66775,26.09471 7.02016,37.50156 3.3254,5.97128 7.64632,11.33196 12.77433,15.85063 a 4.0066108,4.0066108 0 0 1 0.35733,5.65552 4.0066108,4.0066108 0 0 1 -5.65554,0.35732 c -5.81168,-5.12117 -10.70597,-11.19675 -14.47474,-17.9643 -7.19878,-12.92652 -9.99249,-27.8485 -7.95846,-42.50385 z"
         id="path3515-0" />
      <path
         style="color:#000000;font-variation-settings:normal;mix-blend-mode:normal;vector-effect:none;fill:#ffffff;fill-opacity:1;fill-rule:evenodd;stroke-width:1.60265;stroke-linecap:round;stroke-linejoin:miter;stroke-miterlimit:4;stroke-dasharray:none;stroke-dashoffset:0;stroke-opacity:1;-inkscape-stroke:none;stop-color:#000000;stop-opacity:1"
         d="m -52.484962,-689.63252 a 4.0066108,4.0066108 0 0 1 5.284118,-2.04904 c 13.568663,5.98194 24.814396,16.23062 32.029167,29.18601 3.768413,6.76674 6.3537444,14.12504 7.6473546,21.76159 a 4.0066108,4.0066108 0 0 1 -3.2813816,4.62095 4.0066108,4.0066108 0 0 1 -4.617956,-3.28061 c -1.141427,-6.73813 -3.424592,-13.2327 -6.749694,-19.20343 -6.366496,-11.43208 -16.289189,-20.47266 -28.262561,-25.7513 a 4.0066108,4.0066108 0 0 1 -2.049047,-5.28417 z"
         id="path3511-5" />
      <path
         style="color:#000000;font-variation-settings:normal;mix-blend-mode:normal;vector-effect:none;fill:#ffffff;fill-opacity:1;fill-rule:evenodd;stroke-width:1.60265;stroke-linecap:round;stroke-linejoin:miter;stroke-miterlimit:4;stroke-dasharray:none;stroke-dashoffset:0;stroke-opacity:1;-inkscape-stroke:none;stop-color:#000000;stop-opacity:1"
         d="m -158.0217,-640.89265 a 4.0066108,4.0066108 0 0 1 4.5177,-3.42067 4.0066108,4.0066108 0 0 1 3.41756,4.51704 c -2.26637,16.37244 0.85825,33.03795 8.90002,47.47821 5.34035,9.58937 12.68979,17.91073 21.54724,24.39315 a 4.0066108,4.0066108 0 0 1 0.86807,5.59992 4.0066108,4.0066108 0 0 1 -5.59908,0.86496 c -9.78969,-7.16467 -17.91547,-16.36083 -23.81789,-26.95954 -8.88769,-15.95925 -12.33839,-34.37856 -9.83362,-52.47307 z"
         id="path3507-0" />
      <path
         style="color:#000000;font-variation-settings:normal;mix-blend-mode:normal;vector-effect:none;fill:#ffffff;fill-opacity:1;fill-rule:evenodd;stroke-width:1.60265;stroke-linecap:round;stroke-linejoin:miter;stroke-miterlimit:4;stroke-dasharray:none;stroke-dashoffset:0;stroke-opacity:1;-inkscape-stroke:none;stop-color:#000000;stop-opacity:1"
         d="m -45.983366,-704.28193 a 4.0066108,4.0066108 0 0 1 5.283403,-2.04607 c 16.745414,7.39204 30.622789,20.04275 39.5285621,36.03452 5.8965612,10.58832 9.4364977,22.32482 10.3768401,34.40757 a 4.0066108,4.0066108 0 0 1 -3.6843201,4.30655 4.0066108,4.0066108 0 0 1 -4.3034562,-3.68354 c -0.85081109,-10.93227 -4.05262,-21.55135 -9.3876772,-31.13127 -8.0581467,-14.46968 -20.6157197,-25.91593 -35.7673677,-32.6044 a 4.0066108,4.0066108 0 0 1 -2.045984,-5.28336 z"
         id="path3503-3" />
      <path
         style="color:#000000;font-variation-settings:normal;mix-blend-mode:normal;vector-effect:none;fill:#ffffff;fill-opacity:1;fill-rule:evenodd;stroke-width:1.60265;stroke-linecap:round;stroke-linejoin:miter;stroke-miterlimit:4;stroke-dasharray:none;stroke-dashoffset:0;stroke-opacity:1;-inkscape-stroke:none;stop-color:#000000;stop-opacity:1"
         d="m -173.47425,-645.86079 a 4.0066108,4.0066108 0 0 1 4.6097,-3.2902 4.0066108,4.0066108 0 0 1 3.29324,4.61043 c -3.44211,20.60557 0.21721,41.7679 10.38157,60.01961 7.88816,14.16444 19.37426,25.99662 33.29758,34.303 a 4.0066108,4.0066108 0 0 1 1.38703,5.49454 4.0066108,4.0066108 0 0 1 -5.49148,1.3877 c -15.13369,-9.02857 -27.61788,-21.89018 -36.19176,-37.28607 -11.04747,-19.8375 -15.02707,-42.84308 -11.28588,-65.23901 z"
         id="path3499-18" />
      <path
         style="color:#000000;font-variation-settings:normal;mix-blend-mode:normal;vector-effect:none;fill:#ffffff;fill-opacity:1;fill-rule:evenodd;stroke-width:1.60265;stroke-linecap:round;stroke-linejoin:miter;stroke-miterlimit:4;stroke-dasharray:none;stroke-dashoffset:0;stroke-opacity:1;-inkscape-stroke:none;stop-color:#000000;stop-opacity:1"
         d="m -41.952323,-719.86376 a 4.0066108,4.0066108 0 0 1 5.226824,-2.19072 c 21.026727,8.60891 38.5028712,24.11369 49.557437,43.96388 8.566135,15.38199 12.925887,32.75053 12.641114,50.35454 a 4.0066108,4.0066108 0 0 1 -4.069191,3.94154 4.0066108,4.0066108 0 0 1 -3.943927,-4.07297 c 0.262009,-16.19606 -3.748632,-32.17286 -11.6296585,-46.32448 -10.1708843,-18.26345 -26.2459945,-32.52424 -45.5918665,-40.44497 a 4.0066108,4.0066108 0 0 1 -2.190732,-5.22682 z"
         id="path3495-0" />
      <path
         style="color:#000000;font-variation-settings:normal;mix-blend-mode:normal;vector-effect:none;fill:#ffffff;fill-opacity:1;fill-rule:evenodd;stroke-width:1.60265;stroke-linecap:round;stroke-linejoin:miter;stroke-miterlimit:4;stroke-dasharray:none;stroke-dashoffset:0;stroke-opacity:1;-inkscape-stroke:none;stop-color:#000000;stop-opacity:1"
         d="m -188.29465,-653.68342 a 4.0066108,4.0066108 0 0 1 4.75711,-3.07969 4.0066108,4.0066108 0 0 1 3.0765,4.75643 c -5.48814,25.63174 -1.48247,52.38266 11.27101,75.28353 11.03454,19.8143 28.01646,35.65899 48.5471,45.29545 a 4.0066108,4.0066108 0 0 1 1.92307,5.32897 4.0066108,4.0066108 0 0 1 -5.32897,1.923 c -22.05052,-10.34974 -40.29144,-27.36772 -52.14286,-48.64893 -13.69718,-24.59542 -17.9972,-53.33046 -12.10296,-80.85876 z"
         id="path3491-1" />
      <path
         style="color:#000000;font-variation-settings:normal;mix-blend-mode:normal;vector-effect:none;fill:#ffffff;fill-opacity:1;fill-rule:evenodd;stroke-width:1.60265;stroke-linecap:round;stroke-linejoin:miter;stroke-miterlimit:4;stroke-dasharray:none;stroke-dashoffset:0;stroke-opacity:1;-inkscape-stroke:none;stop-color:#000000;stop-opacity:1"
         d="m -40.688831,-736.34347 a 4.0066108,4.0066108 0 0 1 5.123056,-2.42349 c 26.52031,9.48061 48.695144,28.27289 62.39799,52.87856 11.84676,21.27284 16.712908,45.73278 13.907695,69.91961 a 4.0066108,4.0066108 0 0 1 -4.443076,3.515 4.0066108,4.0066108 0 0 1 -3.518657,-4.44067 c 2.611873,-22.51981 -1.914379,-45.28816 -12.944562,-65.09463 -12.7587793,-22.91045 -33.405184,-40.40705 -58.098298,-49.23443 a 4.0066108,4.0066108 0 0 1 -2.424148,-5.11995 z"
         id="path3487-7" />
      <path
         style="color:#000000;font-variation-settings:normal;mix-blend-mode:normal;vector-effect:none;fill:#ffffff;fill-opacity:1;fill-rule:evenodd;stroke-width:1.60265;stroke-linecap:round;stroke-linejoin:miter;stroke-miterlimit:4;stroke-dasharray:none;stroke-dashoffset:0;stroke-opacity:1;-inkscape-stroke:none;stop-color:#000000;stop-opacity:1"
         d="m -202.12376,-664.56698 a 4.0066108,4.0066108 0 0 1 4.9287,-2.79268 4.0066108,4.0066108 0 0 1 2.79642,4.92632 c -8.68392,31.43273 -4.6578,65.01785 11.20833,93.50799 14.8762,26.71259 39.07914,46.9985 67.98093,56.97595 a 4.0066108,4.0066108 0 0 1 2.47834,5.09391 4.0066108,4.0066108 0 0 1 -5.09395,2.4784 c -30.76434,-10.62056 -56.53211,-32.21563 -72.36699,-60.64977 -16.88828,-30.32556 -21.17514,-66.08251 -11.93178,-99.54012 z"
         id="path3483-9" />
      <path
         style="color:#000000;font-variation-settings:normal;mix-blend-mode:normal;vector-effect:none;fill:#ffffff;fill-opacity:1;fill-rule:evenodd;stroke-width:1.60265;stroke-linecap:round;stroke-linejoin:miter;stroke-miterlimit:4;stroke-dasharray:none;stroke-dashoffset:0;stroke-opacity:1;-inkscape-stroke:none;stop-color:#000000;stop-opacity:1"
         d="m -42.557898,-753.54523 a 4.0066108,4.0066108 0 0 1 4.970226,-2.72211 c 33.3459323,9.74604 61.520393,32.23008 78.423226,62.58182 15.823572,28.41376 20.619552,61.66613 13.470456,93.39329 a 4.0066108,4.0066108 0 0 1 -4.789975,3.02706 4.0066108,4.0066108 0 0 1 -3.02701,-4.78989 c 6.716269,-29.80646 2.210432,-61.03826 -12.655134,-87.73183 -15.879814,-28.51469 -42.3420329,-49.63209 -73.669738,-58.78803 a 4.0066108,4.0066108 0 0 1 -2.722051,-4.97031 z"
         id="path3479-1" />
      <path
         style="color:#000000;font-variation-settings:normal;mix-blend-mode:normal;vector-effect:none;fill:#ffffff;fill-opacity:1;fill-rule:evenodd;stroke-width:1.60265;stroke-linecap:round;stroke-linejoin:miter;stroke-miterlimit:4;stroke-dasharray:none;stroke-dashoffset:0;stroke-opacity:1;-inkscape-stroke:none;stop-color:#000000;stop-opacity:1"
         d="m -218.93718,-663.50461 c 1.212,-5.11928 2.70213,-10.19592 4.47154,-15.20724 a 4.0066108,4.0066108 0 0 1 5.11203,-2.44535 4.0066108,4.0066108 0 0 1 2.44525,5.11213 c -13.39152,37.9281 -9.85522,79.77575 9.71471,114.91684 19.58405,35.16606 53.33009,60.21905 92.65872,68.78883 a 4.0066108,4.0066108 0 0 1 3.0615,4.76587 4.0066108,4.0066108 0 0 1 -4.76885,3.0608 c -41.57144,-9.05866 -77.25215,-35.5455 -97.95303,-72.71701 -18.10023,-32.50197 -23.22584,-70.4402 -14.74187,-106.27487 z"
         id="path3477-0" />
      <path
         style="color:#000000;font-variation-settings:normal;mix-blend-mode:normal;vector-effect:none;fill:#ffffff;fill-opacity:1;fill-rule:evenodd;stroke-width:1.60265;stroke-linecap:round;stroke-linejoin:miter;stroke-miterlimit:4;stroke-dasharray:none;stroke-dashoffset:0;stroke-opacity:1;-inkscape-stroke:none;stop-color:#000000;stop-opacity:1"
         d="m -47.916542,-771.14641 a 4.0066108,4.0066108 0 0 1 4.769546,-3.0639 c 41.5845852,9.05218 77.276617,35.5455 97.98284,72.72699 20.705426,37.18028 24.432643,81.47125 10.232807,121.58926 a 4.0066108,4.0066108 0 0 1 -5.114352,2.44143 4.0066108,4.0066108 0 0 1 -2.438465,-5.11361 c 13.433739,-37.9536 9.906703,-79.84416 -9.681667,-115.01845 -19.589097,-35.17564 -53.3451065,-60.2316 -92.686159,-68.79517 a 4.0066108,4.0066108 0 0 1 -3.06455,-4.76655 z"
         id="path3473-3" />
    </g>
    <g
       id="path1"
       style="opacity:1;fill:#ffffff;fill-opacity:1" />
    <g
       id="path1-9"
       style="opacity:1;fill:#ffffff;fill-opacity:1" />
    <g
       id="path1-3"
       style="opacity:1;fill:#ffffff;fill-opacity:1" />
    <g
       id="path1-9-7"
       style="opacity:1;fill:#ffffff;fill-opacity:1" />
    <g
       id="path1-32"
       style="opacity:1;fill:#ffffff;fill-opacity:1" />
    <g
       id="path1-9-5"
       style="opacity:1;fill:#ffffff;fill-opacity:1" />
    <g
       id="path1-3-6"
       style="opacity:1;fill:#ffffff;fill-opacity:1" />
    <g
       id="path1-9-7-3"
       style="opacity:1;fill:#ffffff;fill-opacity:1" />
    <g
       id="path1-0"
       style="opacity:1;fill:#ffffff;fill-opacity:1" />
    <g
       id="path1-9-6"
       style="opacity:1;fill:#ffffff;fill-opacity:1" />
    <g
       id="path1-3-0"
       style="opacity:1;fill:#ffffff;fill-opacity:1" />
    <g
       id="path1-9-7-4"
       style="opacity:1;fill:#ffffff;fill-opacity:1" />
    <g
       id="path1-32-0"
       style="opacity:1;fill:#ffffff;fill-opacity:1" />
    <g
       id="path1-9-5-5"
       style="opacity:1;fill:#ffffff;fill-opacity:1" />
    <g
       id="path1-3-6-6"
       style="opacity:1;fill:#ffffff;fill-opacity:1" />
    <g
       id="path1-9-7-3-8"
       style="opacity:1;fill:#ffffff;fill-opacity:1" />
    <g
       id="path1-37"
       style="opacity:1;fill:#ffffff;fill-opacity:1" />
    <g
       id="path1-9-68"
       style="opacity:1;fill:#ffffff;fill-opacity:1" />
    <g
       id="path1-3-67"
       style="opacity:1;fill:#ffffff;fill-opacity:1" />
    <g
       id="path1-9-7-1"
       style="opacity:1;fill:#ffffff;fill-opacity:1" />
    <g
       id="path1-32-8"
       style="opacity:1;fill:#ffffff;fill-opacity:1" />
    <g
       id="path1-9-5-4"
       style="opacity:1;fill:#ffffff;fill-opacity:1" />
    <g
       id="path1-3-6-9"
       style="opacity:1;fill:#ffffff;fill-opacity:1" />
    <g
       id="path1-9-7-3-7"
       style="opacity:1;fill:#ffffff;fill-opacity:1" />
    <g
       id="path1-0-3"
       style="opacity:1;fill:#ffffff;fill-opacity:1" />
    <g
       id="path1-9-6-1"
       style="opacity:1;fill:#ffffff;fill-opacity:1" />
    <g
       id="path1-3-0-0"
       style="opacity:1;fill:#ffffff;fill-opacity:1" />
    <g
       id="path1-9-7-4-2"
       style="opacity:1;fill:#ffffff;fill-opacity:1" />
    <g
       id="path1-32-0-3"
       style="opacity:1;fill:#ffffff;fill-opacity:1" />
    <g
       id="path1-9-5-5-7"
       style="opacity:1;fill:#ffffff;fill-opacity:1" />
  </g>
</svg>
