<?xml version="1.0" encoding="UTF-8" standalone="no"?>
<!-- Created with Inkscape (http://www.inkscape.org/) -->

<svg
   width="120mm"
   height="120mm"
   viewBox="0 0 120 120"
   version="1.1"
   id="svg5"
   xml:space="preserve"
   inkscape:version="1.2.2 (b0a8486541, 2022-12-01)"
   sodipodi:docname="logo.svg"
   xmlns:inkscape="http://www.inkscape.org/namespaces/inkscape"
   xmlns:sodipodi="http://sodipodi.sourceforge.net/DTD/sodipodi-0.dtd"
   xmlns:xlink="http://www.w3.org/1999/xlink"
   xmlns="http://www.w3.org/2000/svg"
   xmlns:svg="http://www.w3.org/2000/svg"><sodipodi:namedview
     id="namedview7"
     pagecolor="#ffffff"
     bordercolor="#111111"
     borderopacity="1"
     inkscape:showpageshadow="0"
     inkscape:pageopacity="0"
     inkscape:pagecheckerboard="1"
     inkscape:deskcolor="#d1d1d1"
     inkscape:document-units="mm"
     showgrid="false"
     showguides="true"
     inkscape:zoom="1.6819304"
     inkscape:cx="230.68731"
     inkscape:cy="35.07874"
     inkscape:window-width="2248"
     inkscape:window-height="2978"
     inkscape:window-x="0"
     inkscape:window-y="20"
     inkscape:window-maximized="1"
     inkscape:current-layer="layer1"><inkscape:grid
       type="xygrid"
       id="grid1302"
       dotted="true"
       originx="-34.999999"
       originy="-64.999999" /></sodipodi:namedview><defs
     id="defs2"><linearGradient
       inkscape:collect="always"
       id="linearGradient1940"><stop
         style="stop-color:#165247;stop-opacity:1;"
         offset="0"
         id="stop1936" /><stop
         style="stop-color:#427600;stop-opacity:1;"
         offset="1"
         id="stop1938" /></linearGradient><linearGradient
       inkscape:collect="always"
       xlink:href="#linearGradient1940"
       id="linearGradient1942"
       x1="60"
       y1="110"
       x2="130"
       y2="140"
       gradientUnits="userSpaceOnUse"
       gradientTransform="matrix(1.7142857,0,0,1.7142857,-67.857143,-89.285714)" /></defs><g
     inkscape:label="Layer 1"
     inkscape:groupmode="layer"
     id="layer1"
     transform="translate(-34.999999,-64.999999)"><g
       id="g1730"><circle
         style="fill:url(#linearGradient1942);fill-opacity:1;stroke:none;stroke-width:0.0604761;stroke-opacity:1;stop-color:#000000"
         id="path1889"
         cx="95"
         cy="125"
         r="60" /><g
         aria-label="λ"
         transform="matrix(0.90787011,0,-0.06948437,1.0382268,13.259068,4.959745)"
         id="text925-5"
         style="font-size:117.179px;line-height:1.25;opacity:0.506887;mix-blend-mode:screen;fill:#4c3900;fill-opacity:1;stroke-width:2.92948"><path
           d="m 133.6907,159.59119 h -16.8216 q -8.81131,-29.92413 -10.35615,-35.30247 -1.54484,-5.43555 -1.88814,-8.12471 -0.85824,3.31854 -2.97524,9.49791 -2.059791,6.17936 -3.432983,9.38347 l -10.413368,24.5458 H 70.809975 l 27.120531,-57.55961 q -2.574734,-7.266472 -4.520088,-11.32883 -1.888139,-4.062357 -3.719061,-5.664414 -1.773705,-1.659273 -4.348439,-1.659273 -2.746383,0 -5.321117,1.08711 L 77.275418,73.366209 q 4.863387,-1.716489 10.69945,-1.716489 8.468014,0 13.274182,4.577304 4.80617,4.520089 9.09739,16.878811 z"
           style="font-weight:600;font-family:'IBM Plex Serif';-inkscape-font-specification:'IBM Plex Serif Semi-Bold';fill:#4c3900;fill-opacity:1"
           id="path1174-0" /></g><path
         d="m 119.74163,167.90332 h -15.27184 q -5.920253,-31.06804 -6.949063,-36.65197 -1.02483,-5.64333 -1.14964,-8.43529 -1.00976,3.4454 -3.36109,9.86099 -2.299392,6.41557 -3.768709,9.74217 l -11.159534,25.4841 H 62.654096 l 28.621412,-59.75993 q -1.832617,-7.54424 -3.316478,-11.761887 -1.431914,-4.217647 -2.982836,-5.880946 -1.495001,-1.722701 -3.832525,-1.722701 -2.493359,0 -4.906419,1.128666 L 74.515165,78.382241 q 4.534592,-1.782104 9.832979,-1.782104 7.687858,0 11.733183,4.752279 4.049303,4.692879 7.086433,17.524025 z"
         style="font-weight:600;font-size:117.179px;line-height:1.25;font-family:'IBM Plex Serif';-inkscape-font-specification:'IBM Plex Serif Semi-Bold';opacity:0.746473;mix-blend-mode:screen;fill:#ffc10c;fill-opacity:1;stroke-width:2.84412"
         id="path1174" /><path
         id="path1643-1"
         style="opacity:0.506887;mix-blend-mode:screen;fill:#4c3900;fill-opacity:1;stroke:none;stroke-width:0.0343505;stroke-dasharray:none;stroke-opacity:1;stop-color:#000000"
         d="m 74.489215,110.89148 -3.085638,6.44182 h 15.441518 l 3.085639,-6.44182 z" /><path
         id="path1643"
         style="opacity:0.746473;mix-blend-mode:screen;fill:#ffc10c;fill-opacity:1;stroke:none;stroke-width:0.0343505;stroke-dasharray:none;stroke-opacity:1;stop-color:#000000"
         d="m 70.687077,108.14321 -3.085639,6.44182 h 15.441517 l 3.08564,-6.44182 z" /><path
         id="path1631-7"
         style="opacity:0.506887;mix-blend-mode:screen;fill:#4c3900;fill-opacity:1;stroke:none;stroke-width:0.0343505;stroke-dasharray:none;stroke-opacity:1;stop-color:#000000"
         d="m 114.3421,110.89148 1.54681,6.44182 h 15.45057 l -1.53776,-6.44182 z" /><path
         id="path1631"
         style="opacity:0.746473;mix-blend-mode:screen;fill:#ffc10c;fill-opacity:1;stroke:none;stroke-width:0.0343505;stroke-dasharray:none;stroke-opacity:1;stop-color:#000000"
         d="m 110.53995,108.14321 1.54683,6.44182 h 15.45056 l -1.53778,-6.44182 z" /><path
         id="path1637-1"
         style="opacity:0.506887;mix-blend-mode:screen;fill:#4c3900;fill-opacity:1;stroke:none;stroke-width:0.0334442;stroke-dasharray:none;stroke-opacity:1;stop-color:#000000"
         d="M 86.867212,100.00639 H 71.428709 l 1.882119,6.44133 h 15.414374 z" /><path
         id="path1637"
         style="opacity:0.746473;mix-blend-mode:screen;fill:#ffc10c;fill-opacity:1;stroke:none;stroke-width:0.0334442;stroke-dasharray:none;stroke-opacity:1;stop-color:#000000"
         d="M 83.06507,97.258131 H 67.626568 l 1.882121,6.441309 h 15.414376 z" /><path
         id="path1625-9"
         style="opacity:0.506887;mix-blend-mode:screen;fill:#4c3900;fill-opacity:1;stroke:none;stroke-width:0.0334442;stroke-dasharray:none;stroke-opacity:1;stop-color:#000000"
         d="m 111.67266,100.00639 1.59561,6.44133 h 15.47268 l -1.5378,-6.44133 z" /><path
         id="path1625"
         style="opacity:0.746473;mix-blend-mode:screen;fill:#ffc10c;fill-opacity:1;stroke:none;stroke-width:0.0334442;stroke-dasharray:none;stroke-opacity:1;stop-color:#000000"
         d="m 107.87051,97.258131 1.59561,6.441309 h 15.47269 l -1.5378,-6.441309 z" /></g></g></svg>
