<?xml version="1.0" encoding="UTF-8" standalone="no"?>
<!-- Created with Inkscape (http://www.inkscape.org/) -->

<svg
   width="120mm"
   height="120mm"
   viewBox="0 0 120 120"
   version="1.1"
   id="svg1"
   inkscape:version="1.3.2 (091e20e, 2023-11-25)"
   sodipodi:docname="logo.svg"
   xmlns:inkscape="http://www.inkscape.org/namespaces/inkscape"
   xmlns:sodipodi="http://sodipodi.sourceforge.net/DTD/sodipodi-0.dtd"
   xmlns="http://www.w3.org/2000/svg"
   xmlns:svg="http://www.w3.org/2000/svg">
  <sodipodi:namedview
     id="namedview1"
     pagecolor="#ffffff"
     bordercolor="#000000"
     borderopacity="0.25"
     inkscape:showpageshadow="2"
     inkscape:pageopacity="0.0"
     inkscape:pagecheckerboard="true"
     inkscape:deskcolor="#d1d1d1"
     inkscape:document-units="mm"
     inkscape:zoom="1"
     inkscape:cx="180"
     inkscape:cy="212.5"
     inkscape:window-width="1496"
     inkscape:window-height="1040"
     inkscape:window-x="215"
     inkscape:window-y="44"
     inkscape:window-maximized="0"
     inkscape:current-layer="layer1"
     showgrid="true">
    <inkscape:grid
       id="grid1"
       units="mm"
       originx="0"
       originy="0"
       spacingx="10"
       spacingy="10"
       empcolor="#0099e5"
       empopacity="0.30196078"
       color="#0099e5"
       opacity="0.14901961"
       empspacing="5"
       dotted="false"
       gridanglex="30"
       gridanglez="30"
       visible="true" />
  </sodipodi:namedview>
  <defs
     id="defs1">
    <clipPath
       clipPathUnits="userSpaceOnUse"
       id="clipPath33">
      <g
         id="g34"
         transform="matrix(-0.41858929,-0.72501792,0.72501792,-0.41858929,11.976187,-20.037305)">
        <circle
           style="fill:none;fill-opacity:1;fill-rule:evenodd;stroke:#000000;stroke-width:0.0879999;stroke-linecap:round;stroke-dasharray:none;stroke-opacity:1;stop-color:#000000"
           id="circle33"
           cx="86.902351"
           cy="134.99593"
           r="60" />
      </g>
    </clipPath>
    <clipPath
       clipPathUnits="userSpaceOnUse"
       id="clipPath32">
      <g
         id="g33"
         transform="matrix(0.83717857,0,0,0.83717857,11.364722,20.390334)">
        <circle
           style="fill:none;fill-opacity:1;fill-rule:evenodd;stroke:#000000;stroke-width:0.0879999;stroke-linecap:round;stroke-dasharray:none;stroke-opacity:1;stop-color:#000000"
           id="circle32"
           cx="86.902351"
           cy="134.99593"
           r="60" />
      </g>
    </clipPath>
    <clipPath
       clipPathUnits="userSpaceOnUse"
       id="clipPath31">
      <g
         id="g32"
         transform="matrix(0.83717857,0,0,0.83717857,11.364722,20.390334)">
        <circle
           style="fill:none;fill-opacity:1;fill-rule:evenodd;stroke:#000000;stroke-width:0.0879999;stroke-linecap:round;stroke-dasharray:none;stroke-opacity:1;stop-color:#000000"
           id="circle31"
           cx="86.902351"
           cy="134.99593"
           r="60" />
      </g>
    </clipPath>
    <clipPath
       clipPathUnits="userSpaceOnUse"
       id="clipPath30">
      <g
         id="g31"
         transform="matrix(-0.41858929,0.72501792,-0.72501792,-0.41858929,-23.340908,-0.35302972)">
        <circle
           style="fill:none;fill-opacity:1;fill-rule:evenodd;stroke:#000000;stroke-width:0.0879999;stroke-linecap:round;stroke-dasharray:none;stroke-opacity:1;stop-color:#000000"
           id="circle30"
           cx="86.902351"
           cy="134.99593"
           r="60" />
      </g>
    </clipPath>
    <clipPath
       clipPathUnits="userSpaceOnUse"
       id="clipPath29">
      <g
         id="g30"
         transform="matrix(0.83717857,0,0,0.83717857,11.364722,20.390334)">
        <circle
           style="fill:none;fill-opacity:1;fill-rule:evenodd;stroke:#000000;stroke-width:0.0879999;stroke-linecap:round;stroke-dasharray:none;stroke-opacity:1;stop-color:#000000"
           id="circle29"
           cx="86.902351"
           cy="134.99593"
           r="60" />
      </g>
    </clipPath>
    <clipPath
       clipPathUnits="userSpaceOnUse"
       id="clipPath28">
      <g
         id="g29"
         transform="matrix(0.83717857,0,0,0.83717857,11.364722,20.390334)">
        <circle
           style="fill:none;fill-opacity:1;fill-rule:evenodd;stroke:#000000;stroke-width:0.0879999;stroke-linecap:round;stroke-dasharray:none;stroke-opacity:1;stop-color:#000000"
           id="circle28"
           cx="86.902351"
           cy="134.99593"
           r="60" />
      </g>
    </clipPath>
    <clipPath
       clipPathUnits="userSpaceOnUse"
       id="clipPath27">
      <g
         id="g28"
         transform="matrix(-0.41858929,0.72501792,-0.72501792,-0.41858929,-23.340908,-0.35302972)">
        <circle
           style="fill:none;fill-opacity:1;fill-rule:evenodd;stroke:#000000;stroke-width:0.0879999;stroke-linecap:round;stroke-dasharray:none;stroke-opacity:1;stop-color:#000000"
           id="circle27"
           cx="86.902351"
           cy="134.99593"
           r="60" />
      </g>
    </clipPath>
    <clipPath
       clipPathUnits="userSpaceOnUse"
       id="clipPath26">
      <g
         id="g27"
         transform="matrix(0.83717857,0,0,0.83717857,11.364722,20.390334)">
        <circle
           style="fill:none;fill-opacity:1;fill-rule:evenodd;stroke:#000000;stroke-width:0.0879999;stroke-linecap:round;stroke-dasharray:none;stroke-opacity:1;stop-color:#000000"
           id="circle26"
           cx="86.902351"
           cy="134.99593"
           r="60" />
      </g>
    </clipPath>
    <clipPath
       clipPathUnits="userSpaceOnUse"
       id="clipPath25">
      <g
         id="g26"
         transform="matrix(0.83717857,0,0,0.83717857,11.364722,20.390334)">
        <circle
           style="fill:none;fill-opacity:1;fill-rule:evenodd;stroke:#000000;stroke-width:0.0879999;stroke-linecap:round;stroke-dasharray:none;stroke-opacity:1;stop-color:#000000"
           id="circle25"
           cx="86.902351"
           cy="134.99593"
           r="60" />
      </g>
    </clipPath>
    <clipPath
       clipPathUnits="userSpaceOnUse"
       id="clipPath24">
      <g
         id="g25"
         transform="matrix(-0.41858929,0.72501792,-0.72501792,-0.41858929,-23.340908,-0.35302972)">
        <circle
           style="fill:none;fill-opacity:1;fill-rule:evenodd;stroke:#000000;stroke-width:0.0879999;stroke-linecap:round;stroke-dasharray:none;stroke-opacity:1;stop-color:#000000"
           id="circle24"
           cx="86.902351"
           cy="134.99593"
           r="60" />
      </g>
    </clipPath>
    <clipPath
       clipPathUnits="userSpaceOnUse"
       id="clipPath6">
      <circle
         style="fill:none;fill-opacity:0.843348;stroke:#000000;stroke-width:0.001;stroke-dasharray:none;stroke-opacity:1"
         id="circle6"
         cx="342.31042"
         cy="105.77291"
         r="60" />
    </clipPath>
  </defs>
  <g
     inkscape:label="Layer 1"
     inkscape:groupmode="layer"
     id="layer1"
     transform="translate(-282.31042,-45.772915)">
    <g
       id="g6"
       clip-path="url(#clipPath6)">
      <ellipse
         style="fill:#000495;fill-opacity:0.843348;stroke:#000000;stroke-width:0.000999997;stroke-dasharray:none;stroke-opacity:1"
         id="path5"
         cx="342.31042"
         cy="105.77312"
         rx="60"
         ry="59.999706" />
      <path
         id="path4"
         style="fill:#ff6600;fill-opacity:0.437768;stroke:none;stroke-width:4.99999"
         d="M 342.31038 45.772915 A 60 60 0 0 0 282.31042 105.77287 A 60 60 0 0 0 342.31038 165.77283 A 60 60 0 0 0 402.31033 105.77287 A 60 60 0 0 0 342.31038 45.772915 z M 342.31038 65.772728 A 40 40 0 0 1 382.31052 105.77287 A 40 40 0 0 1 342.31038 145.77301 A 40 40 0 0 1 302.31023 105.77287 A 40 40 0 0 1 342.31038 65.772728 z M 342.31038 85.773057 A 20.000004 20.000002 0 0 0 322.31056 105.77287 A 20.000004 20.000002 0 0 0 342.31038 125.77268 A 20.000004 20.000002 0 0 0 362.31019 105.77287 A 20.000004 20.000002 0 0 0 342.31038 85.773057 z " />
      <path
         id="path4-5-5"
         style="fill:#ffe10a;fill-opacity:0.43776801;stroke:none;stroke-width:4.99999"
         d="m 411.59227,65.772968 a 60,60 0 0 0 -81.96146,-21.961512 60,60 0 0 0 -21.96151,81.961474 60,60 0 0 0 81.96146,21.9615 60,60 0 0 0 21.96151,-81.961462 z m -17.32034,9.999906 a 40,40 0 0 1 -14.64107,54.641206 40,40 0 0 1 -54.64121,-14.64106 40,40 0 0 1 14.64106,-54.641221 40,40 0 0 1 54.64122,14.641075 z m -17.3208,10.000165 a 20.000004,20.000002 60 0 0 -27.32025,-7.320446 20.000004,20.000002 60 0 0 -7.32044,27.320257 20.000004,20.000002 60 0 0 27.32025,7.32044 20.000004,20.000002 60 0 0 7.32044,-27.320251 z" />
      <path
         id="path4-5-5-8-2"
         style="fill:#ff6a00;fill-opacity:0.43776801;stroke:none;stroke-width:4.99999"
         d="m 342.31046,185.77272 a 60,60 0 0 0 59.99996,-59.99995 60,60 0 0 0 -59.99996,-59.99996 60,60 0 0 0 -59.99995,59.99996 60,60 0 0 0 59.99995,59.99995 z m 0,-19.99981 a 40,40 0 0 1 -40.00014,-40.00014 40,40 0 0 1 40.00014,-40.00014 40,40 0 0 1 40.00015,40.00014 40,40 0 0 1 -40.00015,40.00014 z m 0,-20.00033 a 20.000004,20.000002 0 0 0 19.99982,-19.99981 20.000004,20.000002 0 0 0 -19.99982,-19.99981 20.000004,20.000002 0 0 0 -19.99981,19.99981 20.000004,20.000002 0 0 0 19.99981,19.99981 z" />
      <path
         id="path4-5-5-9"
         style="fill:#ff9500;fill-opacity:0.43776801;stroke:none;stroke-width:4.99999"
         d="m 273.02853,65.773037 a 60,60 0 0 0 21.9615,81.961463 60,60 0 0 0 81.96147,-21.96151 60,60 0 0 0 -21.96151,-81.961456 60,60 0 0 0 -81.96146,21.961503 z m 17.32034,9.999907 a 40,40 0 0 1 54.64121,-14.641067 40,40 0 0 1 14.64107,54.641203 40,40 0 0 1 -54.64121,14.64108 40,40 0 0 1 -14.64107,-54.641216 z m 17.3208,10.000164 a 20.000002,20.000004 30 0 0 7.32043,27.320262 20.000002,20.000004 30 0 0 27.32026,-7.32045 20.000002,20.000004 30 0 0 -7.32044,-27.320249 20.000002,20.000004 30 0 0 -27.32025,7.320437 z" />
    </g>
  </g>
</svg>
