<?xml version="1.0" encoding="UTF-8" standalone="no"?>
<!-- Created with Inkscape (http://www.inkscape.org/) -->

<svg
   width="120mm"
   height="120mm"
   viewBox="0 0 120 120"
   version="1.1"
   id="svg5"
   inkscape:version="1.1.2 (0a00cf5339, 2022-02-04)"
   xmlns:inkscape="http://www.inkscape.org/namespaces/inkscape"
   xmlns:sodipodi="http://sodipodi.sourceforge.net/DTD/sodipodi-0.dtd"
   xmlns:xlink="http://www.w3.org/1999/xlink"
   xmlns="http://www.w3.org/2000/svg"
   xmlns:svg="http://www.w3.org/2000/svg">
  <sodipodi:namedview
     id="namedview7"
     pagecolor="#ffffff"
     bordercolor="#111111"
     borderopacity="1"
     inkscape:pageshadow="0"
     inkscape:pageopacity="0"
     inkscape:pagecheckerboard="1"
     inkscape:document-units="mm"
     showgrid="false"
     inkscape:snap-bbox="true"
     inkscape:object-paths="true"
     inkscape:snap-intersection-paths="true"
     fit-margin-top="0"
     fit-margin-left="0"
     fit-margin-right="0"
     fit-margin-bottom="0"
     inkscape:zoom="0.46929649"
     inkscape:cx="314.30024"
     inkscape:cy="446.41288"
     inkscape:window-width="4498"
     inkscape:window-height="2978"
     inkscape:window-x="0"
     inkscape:window-y="20"
     inkscape:window-maximized="1"
     inkscape:current-layer="layer1">
    <inkscape:grid
       type="xygrid"
       id="grid824"
       dotted="true"
       originx="-21.212097"
       originy="-17.418968" />
  </sodipodi:namedview>
  <defs
     id="defs2">
    <linearGradient
       inkscape:collect="always"
       id="linearGradient4069">
      <stop
         style="stop-color:#178c4b;stop-opacity:1;"
         offset="0"
         id="stop4065" />
      <stop
         style="stop-color:#137645;stop-opacity:1"
         offset="1"
         id="stop4067" />
    </linearGradient>
    <linearGradient
       inkscape:collect="always"
       id="linearGradient3745">
      <stop
         style="stop-color:#ceb122;stop-opacity:0.99956977"
         offset="0"
         id="stop3741" />
      <stop
         style="stop-color:#eddd90;stop-opacity:1"
         offset="1"
         id="stop3743" />
    </linearGradient>
    <linearGradient
       inkscape:collect="always"
       id="linearGradient3621">
      <stop
         style="stop-color:#69d1e6;stop-opacity:1;"
         offset="0"
         id="stop3617" />
      <stop
         style="stop-color:#21a9c4;stop-opacity:1"
         offset="1"
         id="stop3619" />
    </linearGradient>
    <linearGradient
       inkscape:collect="always"
       id="linearGradient3605">
      <stop
         style="stop-color:#69d1e6;stop-opacity:1;"
         offset="0"
         id="stop3601" />
      <stop
         style="stop-color:#21a9c4;stop-opacity:1"
         offset="1"
         id="stop3603" />
    </linearGradient>
    <radialGradient
       inkscape:collect="always"
       xlink:href="#linearGradient3605"
       id="radialGradient3607"
       cx="-22.387264"
       cy="35.760101"
       fx="-22.387264"
       fy="35.760101"
       r="103.59935"
       gradientTransform="matrix(1.9989765,0.43687757,-0.12615391,0.57722615,26.875624,39.56203)"
       gradientUnits="userSpaceOnUse" />
    <radialGradient
       inkscape:collect="always"
       xlink:href="#linearGradient3621"
       id="radialGradient3609"
       cx="-22.387264"
       cy="35.760101"
       fx="-22.387264"
       fy="35.760101"
       r="103.59935"
       gradientTransform="matrix(1.9989765,0.43687757,-0.12615391,0.57722615,26.875624,39.56203)"
       gradientUnits="userSpaceOnUse" />
    <radialGradient
       inkscape:collect="always"
       xlink:href="#linearGradient3745"
       id="radialGradient3739"
       cx="3.4705877"
       cy="65.516396"
       fx="3.4705877"
       fy="65.516396"
       r="103.59937"
       gradientTransform="matrix(1.5220787,0.1975097,-0.07603318,0.5859382,3.6441029,26.724085)"
       gradientUnits="userSpaceOnUse" />
    <radialGradient
       inkscape:collect="always"
       xlink:href="#linearGradient4069"
       id="radialGradient4071"
       cx="7.1381211"
       cy="98.355721"
       fx="7.1381211"
       fy="98.355721"
       r="76.976044"
       gradientUnits="userSpaceOnUse"
       gradientTransform="matrix(1.8727704,-0.68556449,0.34376394,0.9390561,-40.041156,10.887823)" />
    <clipPath
       clipPathUnits="userSpaceOnUse"
       id="clipPath4212">
      <circle
         style="fill:none;fill-opacity:1;stroke:none;stroke-width:0.2;stroke-opacity:1;stop-color:#000000"
         id="circle4214"
         cx="81.212097"
         cy="77.418968"
         r="76.976044" />
    </clipPath>
  </defs>
  <g
     inkscape:label="Layer 1"
     inkscape:groupmode="layer"
     id="layer1"
     transform="translate(-21.212097,-17.418968)">
    <g
       id="g4170"
       clip-path="url(#clipPath4212)"
       transform="matrix(0.77946329,0,0,0.77946329,17.910249,17.073725)">
      <circle
         style="fill:url(#radialGradient4071);fill-opacity:1;stroke:none;stroke-width:0.2;stroke-opacity:1;stop-color:#000000"
         id="path1563"
         cx="81.212097"
         cy="77.418968"
         r="76.976044" />
      <path
         id="path968-3"
         style="opacity:1;fill:url(#radialGradient3607);fill-opacity:1;stroke-width:0.2;stop-color:#000000"
         d="m 102.42421,10.386369 a 39.999999,39.999999 0 0 0 -40.000118,39.999626 39.999999,39.999999 0 0 0 11.71815,28.281995 19.999999,19.999999 0 0 1 0.495575,0.513664 19.999999,19.999999 0 0 1 0.476975,0.531233 19.999999,19.999999 0 0 1 0.457853,0.54777 19.999999,19.999999 0 0 1 0.438216,0.56379 19.999999,19.999999 0 0 1 0.417545,0.579294 19.999999,19.999999 0 0 1 0.396875,0.593762 19.999999,19.999999 0 0 1 0.375171,0.607198 19.999999,19.999999 0 0 1 0.352949,0.620633 19.999999,19.999999 0 0 1 0.331247,0.632521 19.999999,19.999999 0 0 1 0.307991,0.643887 19.999999,19.999999 0 0 1 0.284737,0.654741 19.999999,19.999999 0 0 1 0.261482,0.664559 19.999999,19.999999 0 0 1 0.237713,0.672828 19.999999,19.999999 0 0 1 0.213423,0.681611 19.999999,19.999999 0 0 1 0.188619,0.68833 19.999999,19.999999 0 0 1 0.164333,0.695047 19.999999,19.999999 0 0 1 0.139525,0.700217 19.999999,19.999999 0 0 1 0.114205,0.704866 19.999999,19.999999 0 0 1 0.08888,0.708483 19.999999,19.999999 0 0 1 0.06356,0.711067 19.999999,19.999999 0 0 1 0.03824,0.712618 19.999999,19.999999 0 0 1 0.0124,0.714169 19.999999,19.999999 0 0 1 -0.109554,2.090311 19.999999,19.999999 0 0 1 -0.327112,2.06758 19.999999,19.999999 0 0 1 -0.542086,2.02209 19.999999,19.999999 0 0 1 -0.750343,1.954411 19.999999,19.999999 0 0 1 -0.950328,1.86552 19.999999,19.999999 0 0 1 -1.139983,1.75546 19.999999,19.999999 0 0 1 -1.317231,1.6273 19.999999,19.999999 0 0 1 -1.480532,1.48001 19.999999,19.999999 0 0 1 -1.626774,1.31723 19.999999,19.999999 0 0 1 -1.755963,1.1405 19.999999,19.999999 0 0 1 -1.865003,0.95033 19.999999,19.999999 0 0 1 -1.954403,0.75034 19.999999,19.999999 0 0 1 -2.022099,0.54157 19.999999,19.999999 0 0 1 -2.067574,0.32763 19.999999,19.999999 0 0 1 -2.09083,0.10955 19.999999,19.999999 0 0 1 -2.090311,-0.10955 19.999999,19.999999 0 0 1 -2.068089,-0.32763 19.999999,19.999999 0 0 1 -2.0221,-0.54157 19.999999,19.999999 0 0 1 -1.954403,-0.75034 19.999999,19.999999 0 0 1 -1.865002,-0.95033 19.999999,19.999999 0 0 1 -1.755966,-1.1405 19.999999,19.999999 0 0 1 -1.626772,-1.31723 19.999999,19.999999 0 0 1 -1.480013,-1.48001 19.999999,19.999999 0 0 1 -1.317749,-1.6273 19.999999,19.999999 0 0 1 -1.139984,-1.75546 19.999999,19.999999 0 0 1 -0.950328,-1.86552 19.999999,19.999999 0 0 1 -0.750342,-1.954411 19.999999,19.999999 0 0 1 -0.542087,-2.02209 19.999999,19.999999 0 0 1 -0.327112,-2.06758 19.999999,19.999999 0 0 1 -0.109553,-2.090311 19.999999,19.999999 0 0 1 0.109553,-2.090827 19.999999,19.999999 0 0 1 0.327112,-2.067574 19.999999,19.999999 0 0 1 0.542087,-2.022099 19.999999,19.999999 0 0 1 0.750342,-1.954403 19.999999,19.999999 0 0 1 0.950328,-1.865519 19.999999,19.999999 0 0 1 1.139984,-1.755449 19.999999,19.999999 0 0 1 1.317749,-1.626775 19.999999,19.999999 0 0 1 0.740005,-0.740005 39.999999,39.999999 0 0 0 11.735727,-28.264424 39.999999,39.999999 0 0 0 -40.000142,-39.999627 39.999999,39.999999 0 0 0 -40.000142,39.999627 39.999999,39.999999 0 0 0 11.71815,28.281995 L 3.470589,64.565492 A 19.999999,19.999999 0 0 1 2.975012,64.051827 19.999999,19.999999 0 0 1 2.4980384,63.520594 19.999999,19.999999 0 0 1 2.0401852,62.972824 19.999999,19.999999 0 0 1 1.6019691,62.409034 19.999999,19.999999 0 0 1 1.1844235,61.829742 19.999999,19.999999 0 0 1 0.78754853,61.23598 a 19.999999,19.999999 0 0 1 -0.37517087,-0.6072 19.999999,19.999999 0 0 1 -0.35295,-0.620633 19.999999,19.999999 0 0 1 -0.33124597,-0.632518 19.999999,19.999999 0 0 1 -0.3079915,-0.64389 19.999999,19.999999 0 0 1 -0.28473707,-0.654741 19.999999,19.999999 0 0 1 -0.26148272,-0.664559 19.999999,19.999999 0 0 1 -0.2377115,-0.672827 19.999999,19.999999 0 0 1 -0.2134238,-0.681612 19.999999,19.999999 0 0 1 -0.1886189,-0.68833 19.999999,19.999999 0 0 1 -0.164331,-0.695047 19.999999,19.999999 0 0 1 -0.1395265,-0.700217 19.999999,19.999999 0 0 1 -0.1142048,-0.704866 19.999999,19.999999 0 0 1 -0.088884,-0.708482 19.999999,19.999999 0 0 1 -0.063562,-0.711068 19.999999,19.999999 0 0 1 -0.03824,-0.712618 19.999999,19.999999 0 0 1 -0.012402,-0.714169 19.999999,19.999999 0 0 1 0.1095541,-2.090311 19.999999,19.999999 0 0 1 0.3271118,-2.067576 19.999999,19.999999 0 0 1 0.5420857,-2.022097 19.999999,19.999999 0 0 1 0.75034172,-1.954403 19.999999,19.999999 0 0 1 0.95032954,-1.865519 19.999999,19.999999 0 0 1 1.13998204,-1.755449 19.999999,19.999999 0 0 1 1.3172322,-1.627291 19.999999,19.999999 0 0 1 1.4805297,-1.480013 19.999999,19.999999 0 0 1 1.6267737,-1.317233 19.999999,19.999999 0 0 1 1.7559641,-1.140497 19.999999,19.999999 0 0 1 1.8650008,-0.950331 19.999999,19.999999 0 0 1 1.9544027,-0.750342 19.999999,19.999999 0 0 1 2.022099,-0.541568 19.999999,19.999999 0 0 1 2.067574,-0.327628 19.999999,19.999999 0 0 1 2.090828,-0.109556 19.999999,19.999999 0 0 1 2.090312,0.109556 19.999999,19.999999 0 0 1 2.068091,0.327628 19.999999,19.999999 0 0 1 2.022098,0.541568 19.999999,19.999999 0 0 1 1.954403,0.750342 19.999999,19.999999 0 0 1 1.865002,0.950331 19.999999,19.999999 0 0 1 1.755966,1.140497 19.999999,19.999999 0 0 1 1.626774,1.317233 19.999999,19.999999 0 0 1 1.480013,1.480013 19.999999,19.999999 0 0 1 1.31775,1.627291 19.999999,19.999999 0 0 1 1.139981,1.755449 19.999999,19.999999 0 0 1 0.95033,1.865519 19.999999,19.999999 0 0 1 0.75034,1.954403 19.999999,19.999999 0 0 1 0.542086,2.022097 19.999999,19.999999 0 0 1 0.327113,2.067576 19.999999,19.999999 0 0 1 0.109553,2.090311 19.999999,19.999999 0 0 1 -0.109553,2.090828 19.999999,19.999999 0 0 1 -0.327113,2.067575 19.999999,19.999999 0 0 1 -0.542086,2.022097 19.999999,19.999999 0 0 1 -0.75034,1.954403 19.999999,19.999999 0 0 1 -0.95033,1.865519 19.999999,19.999999 0 0 1 -1.139981,1.755449 19.999999,19.999999 0 0 1 -1.31775,1.626775 19.999999,19.999999 0 0 1 -0.740007,0.740005 A 39.999999,39.999999 0 0 0 19.99981,92.810278 39.999999,39.999999 0 0 0 59.99995,132.80992 39.999999,39.999999 0 0 0 100.00007,92.810278 39.999999,39.999999 0 0 0 88.281945,64.528283 19.999999,19.999999 0 0 1 87.78637,64.014621 a 19.999999,19.999999 0 0 1 -0.476975,-0.531233 19.999999,19.999999 0 0 1 -0.457854,-0.547772 19.999999,19.999999 0 0 1 -0.438216,-0.56379 19.999999,19.999999 0 0 1 -0.417544,-0.579292 19.999999,19.999999 0 0 1 -0.396875,-0.593762 19.999999,19.999999 0 0 1 -0.375171,-0.607198 19.999999,19.999999 0 0 1 -0.352952,-0.620633 19.999999,19.999999 0 0 1 -0.331245,-0.632521 19.999999,19.999999 0 0 1 -0.307991,-0.643887 19.999999,19.999999 0 0 1 -0.284736,-0.65474 19.999999,19.999999 0 0 1 -0.261483,-0.66456 19.999999,19.999999 0 0 1 -0.237712,-0.672827 19.999999,19.999999 0 0 1 -0.213423,-0.681612 19.999999,19.999999 0 0 1 -0.188619,-0.688329 19.999999,19.999999 0 0 1 -0.164333,-0.69505 19.999999,19.999999 0 0 1 -0.139525,-0.700215 19.999999,19.999999 0 0 1 -0.114205,-0.704865 19.999999,19.999999 0 0 1 -0.08888,-0.708486 19.999999,19.999999 0 0 1 -0.06356,-0.711067 19.999999,19.999999 0 0 1 -0.03824,-0.712619 19.999999,19.999999 0 0 1 -0.0124,-0.714168 19.999999,19.999999 0 0 1 0.109553,-2.090312 19.999999,19.999999 0 0 1 0.327113,-2.067573 19.999999,19.999999 0 0 1 0.542086,-2.022099 19.999999,19.999999 0 0 1 0.750342,-1.954403 19.999999,19.999999 0 0 1 0.950328,-1.865519 19.999999,19.999999 0 0 1 1.139984,-1.755447 19.999999,19.999999 0 0 1 1.317231,-1.627291 19.999999,19.999999 0 0 1 1.480531,-1.480015 19.999999,19.999999 0 0 1 1.626772,-1.317231 19.999999,19.999999 0 0 1 1.755966,-1.1405 19.999999,19.999999 0 0 1 1.865003,-0.950327 19.999999,19.999999 0 0 1 1.954394,-0.750343 19.999999,19.999999 0 0 1 2.022088,-0.54157 19.999999,19.999999 0 0 1 2.067568,-0.327628 19.999999,19.999999 0 0 1 2.09083,-0.109554 19.999999,19.999999 0 0 1 2.09031,0.109554 19.999999,19.999999 0 0 1 2.06809,0.327628 19.999999,19.999999 0 0 1 2.0221,0.54157 19.999999,19.999999 0 0 1 1.9544,0.750343 19.999999,19.999999 0 0 1 1.86501,0.950327 19.999999,19.999999 0 0 1 1.75596,1.1405 19.999999,19.999999 0 0 1 1.62677,1.317231 19.999999,19.999999 0 0 1 1.48002,1.480015 19.999999,19.999999 0 0 1 1.31774,1.627291 19.999999,19.999999 0 0 1 1.13999,1.755447 19.999999,19.999999 0 0 1 0.95033,1.865519 19.999999,19.999999 0 0 1 0.75034,1.954403 19.999999,19.999999 0 0 1 0.54209,2.022099 19.999999,19.999999 0 0 1 0.32711,2.067573 19.999999,19.999999 0 0 1 0.10955,2.090312 19.999999,19.999999 0 0 1 -0.10955,2.09083 19.999999,19.999999 0 0 1 -0.32711,2.067573 19.999999,19.999999 0 0 1 -0.54209,2.022099 19.999999,19.999999 0 0 1 -0.75034,1.954403 19.999999,19.999999 0 0 1 -0.95033,1.865519 19.999999,19.999999 0 0 1 -1.13999,1.755447 19.999999,19.999999 0 0 1 -1.31774,1.626775 19.999999,19.999999 0 0 1 -0.74001,0.740008 39.999999,39.999999 0 0 0 -11.73572,28.264423 39.999999,39.999999 0 0 0 40.00014,39.999648 39.999999,39.999999 0 0 0 40.00015,-39.999648 39.999999,39.999999 0 0 0 -11.71815,-28.281994 l -14.13972,14.139706 a 19.999999,19.999999 0 0 1 0.49558,0.513662 19.999999,19.999999 0 0 1 0.47697,0.531233 19.999999,19.999999 0 0 1 0.45786,0.547772 19.999999,19.999999 0 0 1 0.43821,0.56379 19.999999,19.999999 0 0 1 0.41755,0.579292 19.999999,19.999999 0 0 1 0.39687,0.593762 19.999999,19.999999 0 0 1 0.37517,0.607198 19.999999,19.999999 0 0 1 0.35295,0.620635 19.999999,19.999999 0 0 1 0.33125,0.632519 19.999999,19.999999 0 0 1 0.30799,0.643887 19.999999,19.999999 0 0 1 0.28474,0.654741 19.999999,19.999999 0 0 1 0.26148,0.664559 19.999999,19.999999 0 0 1 0.23771,0.672827 19.999999,19.999999 0 0 1 0.21343,0.681612 19.999999,19.999999 0 0 1 0.18862,0.688332 19.999999,19.999999 0 0 1 0.16433,0.695047 19.999999,19.999999 0 0 1 0.13952,0.700215 19.999999,19.999999 0 0 1 0.11421,0.704868 19.999999,19.999999 0 0 1 0.0889,0.708483 19.999999,19.999999 0 0 1 0.0636,0.711068 19.999999,19.999999 0 0 1 0.0382,0.712618 19.999999,19.999999 0 0 1 0.0124,0.714168 19.999999,19.999999 0 0 1 -0.10956,2.090307 19.999999,19.999999 0 0 1 -0.32711,2.06758 19.999999,19.999999 0 0 1 -0.54209,2.0221 19.999999,19.999999 0 0 1 -0.75034,1.954401 19.999999,19.999999 0 0 1 -0.95033,1.86553 19.999999,19.999999 0 0 1 -1.13998,1.75546 19.999999,19.999999 0 0 1 -1.31723,1.62729 19.999999,19.999999 0 0 1 -1.48053,1.48001 19.999999,19.999999 0 0 1 -1.62677,1.31723 19.999999,19.999999 0 0 1 -1.75597,1.1405 19.999999,19.999999 0 0 1 -1.865,0.95033 19.999999,19.999999 0 0 1 -1.95441,0.75034 19.999999,19.999999 0 0 1 -2.02209,0.54157 19.999999,19.999999 0 0 1 -2.06758,0.32763 19.999999,19.999999 0 0 1 -2.09083,0.10955 19.999999,19.999999 0 0 1 -2.09031,-0.10955 19.999999,19.999999 0 0 1 -2.06809,-0.32763 19.999999,19.999999 0 0 1 -2.0221,-0.54157 19.999999,19.999999 0 0 1 -1.9544,-0.75034 19.999999,19.999999 0 0 1 -1.865,-0.95033 19.999999,19.999999 0 0 1 -1.75597,-1.1405 19.999999,19.999999 0 0 1 -1.62677,-1.31723 19.999999,19.999999 0 0 1 -1.48001,-1.48001 19.999999,19.999999 0 0 1 -1.31775,-1.62729 19.999999,19.999999 0 0 1 -1.13999,-1.75546 19.999999,19.999999 0 0 1 -0.95033,-1.86553 19.999999,19.999999 0 0 1 -0.75034,-1.954401 19.999999,19.999999 0 0 1 -0.54208,-2.0221 19.999999,19.999999 0 0 1 -0.32711,-2.06758 19.999999,19.999999 0 0 1 -0.10956,-2.090307 19.999999,19.999999 0 0 1 0.10956,-2.09083 19.999999,19.999999 0 0 1 0.32711,-2.067573 19.999999,19.999999 0 0 1 0.54208,-2.022099 19.999999,19.999999 0 0 1 0.75034,-1.954403 19.999999,19.999999 0 0 1 0.95033,-1.865519 19.999999,19.999999 0 0 1 1.13999,-1.755447 19.999999,19.999999 0 0 1 1.31775,-1.626775 19.999999,19.999999 0 0 1 0.74,-0.740007 39.999999,39.999999 0 0 0 11.73572,-28.264424 39.999999,39.999999 0 0 0 -40.00014,-39.999626 z" />
      <path
         id="path968"
         style="opacity:0.757451;fill:url(#radialGradient3739);fill-opacity:1;stroke-width:0.2;stop-color:#000000"
         d="m 105.59875,16.87208 a 39.999999,39.999999 0 0 0 -42.038751,37.851361 39.999999,39.999999 0 0 0 10.221927,28.856515 19.999999,19.999999 0 0 1 0.468013,0.538897 19.999999,19.999999 0 0 1 0.448519,0.555467 19.999999,19.999999 0 0 1 0.428556,0.570983 19.999999,19.999999 0 0 1 0.40811,0.585951 19.999999,19.999999 0 0 1 0.386654,0.600353 19.999999,19.999999 0 0 1 0.365256,0.613719 19.999999,19.999999 0 0 1 0.342879,0.626001 19.999999,19.999999 0 0 1 0.319984,0.638254 19.999999,19.999999 0 0 1 0.297689,0.64899 19.999999,19.999999 0 0 1 0.273871,0.659124 19.999999,19.999999 0 0 1 0.25008,0.668745 19.999999,19.999999 0 0 1 0.226343,0.677334 19.999999,19.999999 0 0 1 0.202175,0.684347 19.999999,19.999999 0 0 1 0.177457,0.691846 19.999999,19.999999 0 0 1 0.152337,0.697258 19.999999,19.999999 0 0 1 0.127731,0.702695 19.999999,19.999999 0 0 1 0.102688,0.706559 19.999999,19.999999 0 0 1 0.07715,0.709878 19.999999,19.999999 0 0 1 0.05168,0.712164 19.999999,19.999999 0 0 1 0.02626,0.713418 19.999999,19.999999 0 0 1 8.95e-4,0.713643 19.999999,19.999999 0 0 1 -0.02499,0.71384 19.999999,19.999999 0 0 1 -0.218802,2.081708 19.999999,19.999999 0 0 1 -0.434873,2.04763 19.999999,19.999999 0 0 1 -0.647171,1.99095 19.999999,19.999999 0 0 1 -0.851601,1.91246 19.999999,19.999999 0 0 1 -1.046659,1.81322 19.999999,19.999999 0 0 1 -1.230293,1.69338 19.999999,19.999999 0 0 1 -1.400592,1.55613 19.999999,19.999999 0 0 1 -1.555962,1.4005 19.999999,19.999999 0 0 1 -1.693482,1.23028 19.999999,19.999999 0 0 1 -1.813245,1.04703 19.999999,19.999999 0 0 1 -1.912184,0.85143 19.999999,19.999999 0 0 1 -1.990994,0.64702 19.999999,19.999999 0 0 1 -2.047672,0.435 19.999999,19.999999 0 0 1 -2.081888,0.21898 19.999999,19.999999 0 0 1 -2.093696,-4e-5 19.999999,19.999999 0 0 1 -2.081714,-0.21879 19.999999,19.999999 0 0 1 -2.048107,-0.43542 19.999999,19.999999 0 0 1 -1.990985,-0.64666 19.999999,19.999999 0 0 1 -1.912455,-0.8516 19.999999,19.999999 0 0 1 -1.812711,-1.04662 19.999999,19.999999 0 0 1 -1.693869,-1.23085 19.999999,19.999999 0 0 1 -1.555604,-1.40056 19.999999,19.999999 0 0 1 -1.400527,-1.55544 19.999999,19.999999 0 0 1 -1.230777,-1.69403 19.999999,19.999999 0 0 1 -1.046549,-1.81271 19.999999,19.999999 0 0 1 -0.851392,-1.91269 19.999999,19.999999 0 0 1 -0.647027,-1.99101 19.999999,19.999999 0 0 1 -0.435517,-2.04768 19.999999,19.999999 0 0 1 -0.218454,-2.081872 19.999999,19.999999 0 0 1 -9e-6,-2.093176 19.999999,19.999999 0 0 1 0.218827,-2.082227 19.999999,19.999999 0 0 1 0.434872,-2.047621 19.999999,19.999999 0 0 1 0.647172,-1.990957 19.999999,19.999999 0 0 1 0.8516,-1.912455 19.999999,19.999999 0 0 1 1.04666,-1.813226 19.999999,19.999999 0 0 1 1.230294,-1.69338 19.999999,19.999999 0 0 1 1.401083,-1.555581 19.999999,19.999999 0 0 1 0.777722,-0.700262 A 39.999999,39.999999 0 0 0 58.753568,54.508764 39.999999,39.999999 0 0 0 20.901664,12.470513 39.999999,39.999999 0 0 0 -21.137078,50.321874 39.999999,39.999999 0 0 0 -10.915155,79.17839 L 3.9451908,65.798117 A 19.999999,19.999999 0 0 1 3.4771761,65.25922 19.999999,19.999999 0 0 1 3.0286588,64.703751 19.999999,19.999999 0 0 1 2.6001011,64.13277 19.999999,19.999999 0 0 1 2.1919921,63.546818 19.999999,19.999999 0 0 1 1.8053365,62.946467 19.999999,19.999999 0 0 1 1.4400806,62.332748 19.999999,19.999999 0 0 1 1.0972022,61.706745 19.999999,19.999999 0 0 1 0.77721728,61.068492 19.999999,19.999999 0 0 1 0.47952876,60.419503 19.999999,19.999999 0 0 1 0.20565792,59.760377 a 19.999999,19.999999 0 0 1 -0.25008038,-0.668746 19.999999,19.999999 0 0 1 -0.2263442,-0.677333 19.999999,19.999999 0 0 1 -0.20217267,-0.684345 19.999999,19.999999 0 0 1 -0.1774583,-0.691848 19.999999,19.999999 0 0 1 -0.1523362,-0.697258 19.999999,19.999999 0 0 1 -0.1277298,-0.702695 19.999999,19.999999 0 0 1 -0.10268867,-0.70656 19.999999,19.999999 0 0 1 -0.077158,-0.709876 19.999999,19.999999 0 0 1 -0.051684,-0.712164 19.999999,19.999999 0 0 1 -0.02626,-0.71342 19.999999,19.999999 0 0 1 -8.914e-4,-0.713643 19.999999,19.999999 0 0 1 0.024992,-0.713838 19.999999,19.999999 0 0 1 0.21880237,-2.081714 19.999999,19.999999 0 0 1 0.4348721,-2.047622 19.999999,19.999999 0 0 1 0.64717112,-1.990956 19.999999,19.999999 0 0 1 0.85159906,-1.912454 19.999999,19.999999 0 0 1 1.04666095,-1.813226 19.999999,19.999999 0 0 1 1.2302928,-1.693381 19.999999,19.999999 0 0 1 1.4005928,-1.556123 19.999999,19.999999 0 0 1 1.5559586,-1.4005 19.999999,19.999999 0 0 1 1.6934834,-1.230288 19.999999,19.999999 0 0 1 1.8132478,-1.047035 19.999999,19.999999 0 0 1 1.9121827,-0.851421 19.999999,19.999999 0 0 1 1.990993,-0.647028 19.999999,19.999999 0 0 1 2.047671,-0.434997 19.999999,19.999999 0 0 1 2.081888,-0.218971 19.999999,19.999999 0 0 1 2.093696,2e-5 19.999999,19.999999 0 0 1 2.081713,0.218803 19.999999,19.999999 0 0 1 2.048111,0.435415 19.999999,19.999999 0 0 1 1.990983,0.646654 19.999999,19.999999 0 0 1 1.912455,0.8516 19.999999,19.999999 0 0 1 1.812709,1.046635 19.999999,19.999999 0 0 1 1.693872,1.230834 19.999999,19.999999 0 0 1 1.555605,1.400567 19.999999,19.999999 0 0 1 1.400527,1.555443 19.999999,19.999999 0 0 1 1.230778,1.694026 19.999999,19.999999 0 0 1 1.046545,1.812705 19.999999,19.999999 0 0 1 0.851395,1.912699 19.999999,19.999999 0 0 1 0.647026,1.990994 19.999999,19.999999 0 0 1 0.435515,2.047697 19.999999,19.999999 0 0 1 0.218455,2.081863 19.999999,19.999999 0 0 1 -1e-6,2.093178 19.999999,19.999999 0 0 1 -0.218827,2.082229 19.999999,19.999999 0 0 1 -0.434874,2.047622 19.999999,19.999999 0 0 1 -0.647171,1.990955 19.999999,19.999999 0 0 1 -0.851597,1.912456 19.999999,19.999999 0 0 1 -1.046661,1.813225 19.999999,19.999999 0 0 1 -1.230292,1.693381 19.999999,19.999999 0 0 1 -1.401083,1.555579 A 19.999999,19.999999 0 0 1 32.17242,67.257778 39.999999,39.999999 0 0 0 18.973543,94.869267 39.999999,39.999999 0 0 0 56.825447,136.9075 39.999999,39.999999 0 0 0 98.864194,99.056158 39.999999,39.999999 0 0 0 88.642266,70.199643 19.999999,19.999999 0 0 1 88.174252,69.660748 19.999999,19.999999 0 0 1 87.725734,69.105279 19.999999,19.999999 0 0 1 87.297176,68.534296 19.999999,19.999999 0 0 1 86.889067,67.948344 19.999999,19.999999 0 0 1 86.502413,67.347994 19.999999,19.999999 0 0 1 86.137157,66.734275 19.999999,19.999999 0 0 1 85.794278,66.108274 19.999999,19.999999 0 0 1 85.474291,65.47002 19.999999,19.999999 0 0 1 85.176605,64.821029 19.999999,19.999999 0 0 1 84.902733,64.161905 19.999999,19.999999 0 0 1 84.652654,63.493161 19.999999,19.999999 0 0 1 84.42631,62.815827 a 19.999999,19.999999 0 0 1 -0.202173,-0.684346 19.999999,19.999999 0 0 1 -0.177458,-0.691847 19.999999,19.999999 0 0 1 -0.152335,-0.697257 19.999999,19.999999 0 0 1 -0.127733,-0.702699 19.999999,19.999999 0 0 1 -0.102687,-0.706557 19.999999,19.999999 0 0 1 -0.07716,-0.709876 19.999999,19.999999 0 0 1 -0.05168,-0.712167 19.999999,19.999999 0 0 1 -0.02625,-0.713419 19.999999,19.999999 0 0 1 -8.96e-4,-0.713644 19.999999,19.999999 0 0 1 0.02499,-0.713838 19.999999,19.999999 0 0 1 0.218803,-2.081714 19.999999,19.999999 0 0 1 0.434872,-2.047619 19.999999,19.999999 0 0 1 0.647171,-1.990957 19.999999,19.999999 0 0 1 0.8516,-1.912455 19.999999,19.999999 0 0 1 1.04666,-1.813227 19.999999,19.999999 0 0 1 1.230294,-1.693378 19.999999,19.999999 0 0 1 1.400591,-1.556122 19.999999,19.999999 0 0 1 1.555961,-1.400502 19.999999,19.999999 0 0 1 1.693481,-1.230287 19.999999,19.999999 0 0 1 1.813249,-1.047037 19.999999,19.999999 0 0 1 1.912182,-0.851418 19.999999,19.999999 0 0 1 1.990995,-0.64703 19.999999,19.999999 0 0 1 2.047673,-0.434998 19.999999,19.999999 0 0 1 2.08188,-0.218972 19.999999,19.999999 0 0 1 2.09371,2.1e-5 19.999999,19.999999 0 0 1 2.08171,0.218802 19.999999,19.999999 0 0 1 2.0481,0.435414 19.999999,19.999999 0 0 1 1.99099,0.646656 19.999999,19.999999 0 0 1 1.91245,0.851601 19.999999,19.999999 0 0 1 1.81272,1.046632 19.999999,19.999999 0 0 1 1.69386,1.230836 19.999999,19.999999 0 0 1 1.5556,1.400564 19.999999,19.999999 0 0 1 1.40054,1.555445 19.999999,19.999999 0 0 1 1.23077,1.694027 19.999999,19.999999 0 0 1 1.04655,1.812703 19.999999,19.999999 0 0 1 0.85139,1.912699 19.999999,19.999999 0 0 1 0.64703,1.990995 19.999999,19.999999 0 0 1 0.43552,2.047698 19.999999,19.999999 0 0 1 0.21845,2.081859 19.999999,19.999999 0 0 1 7e-5,2.093183 19.999999,19.999999 0 0 1 -0.21884,2.082231 19.999999,19.999999 0 0 1 -0.43486,2.047619 19.999999,19.999999 0 0 1 -0.64717,1.990958 19.999999,19.999999 0 0 1 -0.8516,1.912455 19.999999,19.999999 0 0 1 -1.04667,1.813225 19.999999,19.999999 0 0 1 -1.2303,1.693379 19.999999,19.999999 0 0 1 -1.40107,1.555581 19.999999,19.999999 0 0 1 -0.77772,0.700265 39.999999,39.999999 0 0 0 -13.19889,27.611487 39.999999,39.999999 0 0 0 37.85191,42.038254 39.999999,39.999999 0 0 0 42.03875,-37.85136 39.999999,39.999999 0 0 0 -10.22193,-28.856518 l -14.86036,13.380312 a 19.999999,19.999999 0 0 1 0.46801,0.538895 19.999999,19.999999 0 0 1 0.44853,0.555467 19.999999,19.999999 0 0 1 0.42856,0.570985 19.999999,19.999999 0 0 1 0.4081,0.585952 19.999999,19.999999 0 0 1 0.38667,0.60035 19.999999,19.999999 0 0 1 0.36525,0.613719 19.999999,19.999999 0 0 1 0.34287,0.626001 19.999999,19.999999 0 0 1 0.31999,0.638256 19.999999,19.999999 0 0 1 0.2977,0.648989 19.999999,19.999999 0 0 1 0.27385,0.659123 19.999999,19.999999 0 0 1 0.25009,0.668745 19.999999,19.999999 0 0 1 0.22633,0.677334 19.999999,19.999999 0 0 1 0.20219,0.684346 19.999999,19.999999 0 0 1 0.17746,0.691848 19.999999,19.999999 0 0 1 0.15234,0.69726 19.999999,19.999999 0 0 1 0.12772,0.702694 19.999999,19.999999 0 0 1 0.10269,0.706557 19.999999,19.999999 0 0 1 0.0771,0.709878 19.999999,19.999999 0 0 1 0.0517,0.712167 19.999999,19.999999 0 0 1 0.0264,0.71342 19.999999,19.999999 0 0 1 9.5e-4,0.71364 19.999999,19.999999 0 0 1 -0.025,0.71383 19.999999,19.999999 0 0 1 -0.2188,2.08172 19.999999,19.999999 0 0 1 -0.43487,2.04764 19.999999,19.999999 0 0 1 -0.64717,1.99094 19.999999,19.999999 0 0 1 -0.85161,1.91245 19.999999,19.999999 0 0 1 -1.04666,1.81323 19.999999,19.999999 0 0 1 -1.23029,1.69339 19.999999,19.999999 0 0 1 -1.40059,1.55611 19.999999,19.999999 0 0 1 -1.55596,1.4005 19.999999,19.999999 0 0 1 -1.69348,1.23029 19.999999,19.999999 0 0 1 -1.81326,1.04704 19.999999,19.999999 0 0 1 -1.91218,0.85142 19.999999,19.999999 0 0 1 -1.99098,0.64702 19.999999,19.999999 0 0 1 -2.04768,0.435 19.999999,19.999999 0 0 1 -2.08188,0.21897 19.999999,19.999999 0 0 1 -2.0937,-4e-5 19.999999,19.999999 0 0 1 -2.08171,-0.2188 19.999999,19.999999 0 0 1 -2.04811,-0.43541 19.999999,19.999999 0 0 1 -1.99099,-0.64667 19.999999,19.999999 0 0 1 -1.91245,-0.85158 19.999999,19.999999 0 0 1 -1.81271,-1.04665 19.999999,19.999999 0 0 1 -1.69388,-1.23083 19.999999,19.999999 0 0 1 -1.55559,-1.40056 19.999999,19.999999 0 0 1 -1.40053,-1.55544 19.999999,19.999999 0 0 1 -1.23077,-1.69403 19.999999,19.999999 0 0 1 -1.04655,-1.8127 19.999999,19.999999 0 0 1 -0.8514,-1.9127 19.999999,19.999999 0 0 1 -0.64703,-1.991 19.999999,19.999999 0 0 1 -0.43551,-2.04769 19.999999,19.999999 0 0 1 -0.21845,-2.08188 19.999999,19.999999 0 0 1 -7e-5,-2.09317 19.999999,19.999999 0 0 1 0.21883,-2.082227 19.999999,19.999999 0 0 1 0.43486,-2.047621 19.999999,19.999999 0 0 1 0.64717,-1.990957 19.999999,19.999999 0 0 1 0.85161,-1.912455 19.999999,19.999999 0 0 1 1.04665,-1.813226 19.999999,19.999999 0 0 1 1.2303,-1.693379 19.999999,19.999999 0 0 1 1.40108,-1.555578 19.999999,19.999999 0 0 1 0.77772,-0.700265 39.999999,39.999999 0 0 0 13.19888,-27.611489 39.999999,39.999999 0 0 0 -37.8519,-42.038251 z" />
      <path
         id="path968-3-5"
         style="opacity:0.390243;fill:url(#radialGradient3609);fill-opacity:1;stroke-width:0.2;stop-color:#000000"
         d="m 102.42421,10.386369 a 39.999999,39.999999 0 0 0 -40.000118,39.999626 39.999999,39.999999 0 0 0 11.71815,28.281995 19.999999,19.999999 0 0 1 0.495575,0.513664 19.999999,19.999999 0 0 1 0.476975,0.531233 19.999999,19.999999 0 0 1 0.457853,0.54777 19.999999,19.999999 0 0 1 0.438216,0.56379 19.999999,19.999999 0 0 1 0.417545,0.579294 19.999999,19.999999 0 0 1 0.396875,0.593762 19.999999,19.999999 0 0 1 0.375171,0.607198 19.999999,19.999999 0 0 1 0.352949,0.620633 19.999999,19.999999 0 0 1 0.331247,0.632521 19.999999,19.999999 0 0 1 0.307991,0.643887 19.999999,19.999999 0 0 1 0.284737,0.654741 19.999999,19.999999 0 0 1 0.261482,0.664559 19.999999,19.999999 0 0 1 0.237713,0.672828 19.999999,19.999999 0 0 1 0.213423,0.681611 19.999999,19.999999 0 0 1 0.188619,0.68833 19.999999,19.999999 0 0 1 0.164333,0.695047 19.999999,19.999999 0 0 1 0.139525,0.700217 19.999999,19.999999 0 0 1 0.114205,0.704866 19.999999,19.999999 0 0 1 0.08888,0.708483 19.999999,19.999999 0 0 1 0.06356,0.711067 19.999999,19.999999 0 0 1 0.03824,0.712618 19.999999,19.999999 0 0 1 0.0124,0.714169 19.999999,19.999999 0 0 1 -0.109554,2.090311 19.999999,19.999999 0 0 1 -0.327112,2.06758 19.999999,19.999999 0 0 1 -0.542086,2.02209 19.999999,19.999999 0 0 1 -0.750343,1.954411 19.999999,19.999999 0 0 1 -0.950328,1.86552 19.999999,19.999999 0 0 1 -1.139983,1.75546 19.999999,19.999999 0 0 1 -1.317231,1.6273 19.999999,19.999999 0 0 1 -1.480532,1.48001 19.999999,19.999999 0 0 1 -1.626774,1.31723 19.999999,19.999999 0 0 1 -1.755963,1.1405 19.999999,19.999999 0 0 1 -1.865003,0.95033 19.999999,19.999999 0 0 1 -1.954403,0.75034 19.999999,19.999999 0 0 1 -2.022099,0.54157 19.999999,19.999999 0 0 1 -2.067574,0.32763 19.999999,19.999999 0 0 1 -2.09083,0.10955 19.999999,19.999999 0 0 1 -2.090311,-0.10955 19.999999,19.999999 0 0 1 -2.068089,-0.32763 19.999999,19.999999 0 0 1 -2.0221,-0.54157 19.999999,19.999999 0 0 1 -1.954403,-0.75034 19.999999,19.999999 0 0 1 -1.865002,-0.95033 19.999999,19.999999 0 0 1 -1.755966,-1.1405 19.999999,19.999999 0 0 1 -1.626772,-1.31723 19.999999,19.999999 0 0 1 -1.480013,-1.48001 19.999999,19.999999 0 0 1 -1.317749,-1.6273 19.999999,19.999999 0 0 1 -1.139984,-1.75546 19.999999,19.999999 0 0 1 -0.950328,-1.86552 19.999999,19.999999 0 0 1 -0.750342,-1.954411 19.999999,19.999999 0 0 1 -0.542087,-2.02209 19.999999,19.999999 0 0 1 -0.327112,-2.06758 19.999999,19.999999 0 0 1 -0.109553,-2.090311 19.999999,19.999999 0 0 1 0.109553,-2.090827 19.999999,19.999999 0 0 1 0.327112,-2.067574 19.999999,19.999999 0 0 1 0.542087,-2.022099 19.999999,19.999999 0 0 1 0.750342,-1.954403 19.999999,19.999999 0 0 1 0.950328,-1.865519 19.999999,19.999999 0 0 1 1.139984,-1.755449 19.999999,19.999999 0 0 1 1.317749,-1.626775 19.999999,19.999999 0 0 1 0.740005,-0.740005 39.999999,39.999999 0 0 0 11.735727,-28.264424 39.999999,39.999999 0 0 0 -40.000142,-39.999627 39.999999,39.999999 0 0 0 -40.000142,39.999627 39.999999,39.999999 0 0 0 11.71815,28.281995 L 3.470589,64.565492 A 19.999999,19.999999 0 0 1 2.975012,64.051827 19.999999,19.999999 0 0 1 2.4980384,63.520594 19.999999,19.999999 0 0 1 2.0401852,62.972824 19.999999,19.999999 0 0 1 1.6019691,62.409034 19.999999,19.999999 0 0 1 1.1844235,61.829742 19.999999,19.999999 0 0 1 0.78754853,61.23598 a 19.999999,19.999999 0 0 1 -0.37517087,-0.6072 19.999999,19.999999 0 0 1 -0.35295,-0.620633 19.999999,19.999999 0 0 1 -0.33124597,-0.632518 19.999999,19.999999 0 0 1 -0.3079915,-0.64389 19.999999,19.999999 0 0 1 -0.28473707,-0.654741 19.999999,19.999999 0 0 1 -0.26148272,-0.664559 19.999999,19.999999 0 0 1 -0.2377115,-0.672827 19.999999,19.999999 0 0 1 -0.2134238,-0.681612 19.999999,19.999999 0 0 1 -0.1886189,-0.68833 19.999999,19.999999 0 0 1 -0.164331,-0.695047 19.999999,19.999999 0 0 1 -0.1395265,-0.700217 19.999999,19.999999 0 0 1 -0.1142048,-0.704866 19.999999,19.999999 0 0 1 -0.088884,-0.708482 19.999999,19.999999 0 0 1 -0.063562,-0.711068 19.999999,19.999999 0 0 1 -0.03824,-0.712618 19.999999,19.999999 0 0 1 -0.012402,-0.714169 19.999999,19.999999 0 0 1 0.1095541,-2.090311 19.999999,19.999999 0 0 1 0.3271118,-2.067576 19.999999,19.999999 0 0 1 0.5420857,-2.022097 19.999999,19.999999 0 0 1 0.75034172,-1.954403 19.999999,19.999999 0 0 1 0.95032954,-1.865519 19.999999,19.999999 0 0 1 1.13998204,-1.755449 19.999999,19.999999 0 0 1 1.3172322,-1.627291 19.999999,19.999999 0 0 1 1.4805297,-1.480013 19.999999,19.999999 0 0 1 1.6267737,-1.317233 19.999999,19.999999 0 0 1 1.7559641,-1.140497 19.999999,19.999999 0 0 1 1.8650008,-0.950331 19.999999,19.999999 0 0 1 1.9544027,-0.750342 19.999999,19.999999 0 0 1 2.022099,-0.541568 19.999999,19.999999 0 0 1 2.067574,-0.327628 19.999999,19.999999 0 0 1 2.090828,-0.109556 19.999999,19.999999 0 0 1 2.090312,0.109556 19.999999,19.999999 0 0 1 2.068091,0.327628 19.999999,19.999999 0 0 1 2.022098,0.541568 19.999999,19.999999 0 0 1 1.954403,0.750342 19.999999,19.999999 0 0 1 1.865002,0.950331 19.999999,19.999999 0 0 1 1.755966,1.140497 19.999999,19.999999 0 0 1 1.626774,1.317233 19.999999,19.999999 0 0 1 1.480013,1.480013 19.999999,19.999999 0 0 1 1.31775,1.627291 19.999999,19.999999 0 0 1 1.139981,1.755449 19.999999,19.999999 0 0 1 0.95033,1.865519 19.999999,19.999999 0 0 1 0.75034,1.954403 19.999999,19.999999 0 0 1 0.542086,2.022097 19.999999,19.999999 0 0 1 0.327113,2.067576 19.999999,19.999999 0 0 1 0.109553,2.090311 19.999999,19.999999 0 0 1 -0.109553,2.090828 19.999999,19.999999 0 0 1 -0.327113,2.067575 19.999999,19.999999 0 0 1 -0.542086,2.022097 19.999999,19.999999 0 0 1 -0.75034,1.954403 19.999999,19.999999 0 0 1 -0.95033,1.865519 19.999999,19.999999 0 0 1 -1.139981,1.755449 19.999999,19.999999 0 0 1 -1.31775,1.626775 19.999999,19.999999 0 0 1 -0.740007,0.740005 A 39.999999,39.999999 0 0 0 19.99981,92.810278 39.999999,39.999999 0 0 0 59.99995,132.80992 39.999999,39.999999 0 0 0 100.00007,92.810278 39.999999,39.999999 0 0 0 88.281945,64.528283 19.999999,19.999999 0 0 1 87.78637,64.014621 a 19.999999,19.999999 0 0 1 -0.476975,-0.531233 19.999999,19.999999 0 0 1 -0.457854,-0.547772 19.999999,19.999999 0 0 1 -0.438216,-0.56379 19.999999,19.999999 0 0 1 -0.417544,-0.579292 19.999999,19.999999 0 0 1 -0.396875,-0.593762 19.999999,19.999999 0 0 1 -0.375171,-0.607198 19.999999,19.999999 0 0 1 -0.352952,-0.620633 19.999999,19.999999 0 0 1 -0.331245,-0.632521 19.999999,19.999999 0 0 1 -0.307991,-0.643887 19.999999,19.999999 0 0 1 -0.284736,-0.65474 19.999999,19.999999 0 0 1 -0.261483,-0.66456 19.999999,19.999999 0 0 1 -0.237712,-0.672827 19.999999,19.999999 0 0 1 -0.213423,-0.681612 19.999999,19.999999 0 0 1 -0.188619,-0.688329 19.999999,19.999999 0 0 1 -0.164333,-0.69505 19.999999,19.999999 0 0 1 -0.139525,-0.700215 19.999999,19.999999 0 0 1 -0.114205,-0.704865 19.999999,19.999999 0 0 1 -0.08888,-0.708486 19.999999,19.999999 0 0 1 -0.06356,-0.711067 19.999999,19.999999 0 0 1 -0.03824,-0.712619 19.999999,19.999999 0 0 1 -0.0124,-0.714168 19.999999,19.999999 0 0 1 0.109553,-2.090312 19.999999,19.999999 0 0 1 0.327113,-2.067573 19.999999,19.999999 0 0 1 0.542086,-2.022099 19.999999,19.999999 0 0 1 0.750342,-1.954403 19.999999,19.999999 0 0 1 0.950328,-1.865519 19.999999,19.999999 0 0 1 1.139984,-1.755447 19.999999,19.999999 0 0 1 1.317231,-1.627291 19.999999,19.999999 0 0 1 1.480531,-1.480015 19.999999,19.999999 0 0 1 1.626772,-1.317231 19.999999,19.999999 0 0 1 1.755966,-1.1405 19.999999,19.999999 0 0 1 1.865003,-0.950327 19.999999,19.999999 0 0 1 1.954394,-0.750343 19.999999,19.999999 0 0 1 2.022088,-0.54157 19.999999,19.999999 0 0 1 2.067568,-0.327628 19.999999,19.999999 0 0 1 2.09083,-0.109554 19.999999,19.999999 0 0 1 2.09031,0.109554 19.999999,19.999999 0 0 1 2.06809,0.327628 19.999999,19.999999 0 0 1 2.0221,0.54157 19.999999,19.999999 0 0 1 1.9544,0.750343 19.999999,19.999999 0 0 1 1.86501,0.950327 19.999999,19.999999 0 0 1 1.75596,1.1405 19.999999,19.999999 0 0 1 1.62677,1.317231 19.999999,19.999999 0 0 1 1.48002,1.480015 19.999999,19.999999 0 0 1 1.31774,1.627291 19.999999,19.999999 0 0 1 1.13999,1.755447 19.999999,19.999999 0 0 1 0.95033,1.865519 19.999999,19.999999 0 0 1 0.75034,1.954403 19.999999,19.999999 0 0 1 0.54209,2.022099 19.999999,19.999999 0 0 1 0.32711,2.067573 19.999999,19.999999 0 0 1 0.10955,2.090312 19.999999,19.999999 0 0 1 -0.10955,2.09083 19.999999,19.999999 0 0 1 -0.32711,2.067573 19.999999,19.999999 0 0 1 -0.54209,2.022099 19.999999,19.999999 0 0 1 -0.75034,1.954403 19.999999,19.999999 0 0 1 -0.95033,1.865519 19.999999,19.999999 0 0 1 -1.13999,1.755447 19.999999,19.999999 0 0 1 -1.31774,1.626775 19.999999,19.999999 0 0 1 -0.74001,0.740008 39.999999,39.999999 0 0 0 -11.73572,28.264423 39.999999,39.999999 0 0 0 40.00014,39.999648 39.999999,39.999999 0 0 0 40.00015,-39.999648 39.999999,39.999999 0 0 0 -11.71815,-28.281994 l -14.13972,14.139706 a 19.999999,19.999999 0 0 1 0.49558,0.513662 19.999999,19.999999 0 0 1 0.47697,0.531233 19.999999,19.999999 0 0 1 0.45786,0.547772 19.999999,19.999999 0 0 1 0.43821,0.56379 19.999999,19.999999 0 0 1 0.41755,0.579292 19.999999,19.999999 0 0 1 0.39687,0.593762 19.999999,19.999999 0 0 1 0.37517,0.607198 19.999999,19.999999 0 0 1 0.35295,0.620635 19.999999,19.999999 0 0 1 0.33125,0.632519 19.999999,19.999999 0 0 1 0.30799,0.643887 19.999999,19.999999 0 0 1 0.28474,0.654741 19.999999,19.999999 0 0 1 0.26148,0.664559 19.999999,19.999999 0 0 1 0.23771,0.672827 19.999999,19.999999 0 0 1 0.21343,0.681612 19.999999,19.999999 0 0 1 0.18862,0.688332 19.999999,19.999999 0 0 1 0.16433,0.695047 19.999999,19.999999 0 0 1 0.13952,0.700215 19.999999,19.999999 0 0 1 0.11421,0.704868 19.999999,19.999999 0 0 1 0.0889,0.708483 19.999999,19.999999 0 0 1 0.0636,0.711068 19.999999,19.999999 0 0 1 0.0382,0.712618 19.999999,19.999999 0 0 1 0.0124,0.714168 19.999999,19.999999 0 0 1 -0.10956,2.090307 19.999999,19.999999 0 0 1 -0.32711,2.06758 19.999999,19.999999 0 0 1 -0.54209,2.0221 19.999999,19.999999 0 0 1 -0.75034,1.954401 19.999999,19.999999 0 0 1 -0.95033,1.86553 19.999999,19.999999 0 0 1 -1.13998,1.75546 19.999999,19.999999 0 0 1 -1.31723,1.62729 19.999999,19.999999 0 0 1 -1.48053,1.48001 19.999999,19.999999 0 0 1 -1.62677,1.31723 19.999999,19.999999 0 0 1 -1.75597,1.1405 19.999999,19.999999 0 0 1 -1.865,0.95033 19.999999,19.999999 0 0 1 -1.95441,0.75034 19.999999,19.999999 0 0 1 -2.02209,0.54157 19.999999,19.999999 0 0 1 -2.06758,0.32763 19.999999,19.999999 0 0 1 -2.09083,0.10955 19.999999,19.999999 0 0 1 -2.09031,-0.10955 19.999999,19.999999 0 0 1 -2.06809,-0.32763 19.999999,19.999999 0 0 1 -2.0221,-0.54157 19.999999,19.999999 0 0 1 -1.9544,-0.75034 19.999999,19.999999 0 0 1 -1.865,-0.95033 19.999999,19.999999 0 0 1 -1.75597,-1.1405 19.999999,19.999999 0 0 1 -1.62677,-1.31723 19.999999,19.999999 0 0 1 -1.48001,-1.48001 19.999999,19.999999 0 0 1 -1.31775,-1.62729 19.999999,19.999999 0 0 1 -1.13999,-1.75546 19.999999,19.999999 0 0 1 -0.95033,-1.86553 19.999999,19.999999 0 0 1 -0.75034,-1.954401 19.999999,19.999999 0 0 1 -0.54208,-2.0221 19.999999,19.999999 0 0 1 -0.32711,-2.06758 19.999999,19.999999 0 0 1 -0.10956,-2.090307 19.999999,19.999999 0 0 1 0.10956,-2.09083 19.999999,19.999999 0 0 1 0.32711,-2.067573 19.999999,19.999999 0 0 1 0.54208,-2.022099 19.999999,19.999999 0 0 1 0.75034,-1.954403 19.999999,19.999999 0 0 1 0.95033,-1.865519 19.999999,19.999999 0 0 1 1.13999,-1.755447 19.999999,19.999999 0 0 1 1.31775,-1.626775 19.999999,19.999999 0 0 1 0.74,-0.740007 39.999999,39.999999 0 0 0 11.73572,-28.264424 39.999999,39.999999 0 0 0 -40.00014,-39.999626 z" />
    </g>
  </g>
</svg>
