<?xml version="1.0" encoding="UTF-8" standalone="no"?>
<svg
   xmlns:dc="http://purl.org/dc/elements/1.1/"
   xmlns:cc="http://creativecommons.org/ns#"
   xmlns:rdf="http://www.w3.org/1999/02/22-rdf-syntax-ns#"
   xmlns:svg="http://www.w3.org/2000/svg"
   xmlns="http://www.w3.org/2000/svg"
   xmlns:xlink="http://www.w3.org/1999/xlink"
   xmlns:sodipodi="http://sodipodi.sourceforge.net/DTD/sodipodi-0.dtd"
   xmlns:inkscape="http://www.inkscape.org/namespaces/inkscape"
   width="120mm"
   height="120mm"
   viewBox="0 0 120 120"
   version="1.1"
   id="svg8"
   inkscape:version="1.0.2 (e86c870879, 2021-01-15)">
  <defs
     id="defs2">
    <linearGradient
       inkscape:collect="always"
       id="linearGradient963">
      <stop
         style="stop-color:#db8300;stop-opacity:1;"
         offset="0"
         id="stop959" />
      <stop
         style="stop-color:#dbaa00;stop-opacity:1"
         offset="1"
         id="stop961" />
    </linearGradient>
    <linearGradient
       inkscape:collect="always"
       id="linearGradient955">
      <stop
         style="stop-color:#440b31;stop-opacity:1;"
         offset="0"
         id="stop951" />
      <stop
         style="stop-color:#b51d1d;stop-opacity:1"
         offset="1"
         id="stop953" />
    </linearGradient>
    <linearGradient
       inkscape:collect="always"
       xlink:href="#linearGradient955"
       id="linearGradient957"
       x1="91.469147"
       y1="93.392426"
       x2="218.8645"
       y2="106.48914"
       gradientUnits="userSpaceOnUse" />
    <linearGradient
       inkscape:collect="always"
       xlink:href="#linearGradient963"
       id="linearGradient965"
       x1="83.176041"
       y1="168.28305"
       x2="174.29907"
       y2="109.17115"
       gradientUnits="userSpaceOnUse" />
    <clipPath
       clipPathUnits="userSpaceOnUse"
       id="clipPath1002">
      <circle
         style="fill:none;fill-opacity:1;stroke:#dbaa00;stroke-width:0.264583;stroke-miterlimit:4;stroke-dasharray:none;stroke-opacity:1"
         id="circle1004"
         cx="152.88773"
         cy="103.29025"
         r="66.229713"
         transform="rotate(20)" />
    </clipPath>
  </defs>
  <sodipodi:namedview
     id="base"
     pagecolor="#ffffff"
     bordercolor="#666666"
     borderopacity="1.0"
     inkscape:pageopacity="0.0"
     inkscape:pageshadow="2"
     inkscape:zoom="1.979899"
     inkscape:cx="217.29718"
     inkscape:cy="204.10978"
     inkscape:document-units="mm"
     inkscape:current-layer="layer1"
     inkscape:document-rotation="0"
     showgrid="false"
     fit-margin-top="0"
     fit-margin-left="0"
     fit-margin-right="0"
     fit-margin-bottom="0"
     inkscape:pagecheckerboard="true"
     inkscape:window-width="4500"
     inkscape:window-height="2980"
     inkscape:window-x="0"
     inkscape:window-y="20"
     inkscape:window-maximized="0" />
  <metadata
     id="metadata5">
    <rdf:RDF>
      <cc:Work
         rdf:about="">
        <dc:format>image/svg+xml</dc:format>
        <dc:type
           rdf:resource="http://purl.org/dc/dcmitype/StillImage" />
        <dc:title></dc:title>
      </cc:Work>
    </rdf:RDF>
  </metadata>
  <g
     inkscape:label="Layer 1"
     inkscape:groupmode="layer"
     id="layer1"
     transform="translate(-48.340121,-89.35177)">
    <g
       id="g985"
       clip-path="url(#clipPath1002)"
       transform="matrix(0.90593779,0,0,0.90593779,10.190712,14.048358)">
      <circle
         style="opacity:1;fill:url(#linearGradient957);fill-opacity:1;stroke:none;stroke-width:11"
         id="path833-7"
         cx="152.88773"
         cy="103.29025"
         r="66.229713"
         transform="rotate(20)" />
      <path
         id="path833-5"
         style="opacity:0.752334;mix-blend-mode:screen;fill:#007e58;fill-opacity:0.790261;stroke:none;stroke-width:11"
         d="m 134.08253,77.878209 a 48.568408,48.568408 0 0 0 -62.225747,29.037301 48.568408,48.568408 0 0 0 29.028107,62.251 48.568408,48.568408 0 0 0 26.17212,1.97809 66.229713,66.229713 0 0 1 -0.21716,0.25972 66.229713,66.229713 0 0 1 -0.22755,0.26859 66.229713,66.229713 0 0 1 -0.22864,0.26708 66.229713,66.229713 0 0 1 -0.23059,0.26639 66.229713,66.229713 0 0 1 -0.23168,0.26487 66.229713,66.229713 0 0 1 -0.23297,0.26386 66.229713,66.229713 0 0 1 -0.23474,0.26267 66.229713,66.229713 0 0 1 -0.23583,0.26117 66.229713,66.229713 0 0 1 -0.23713,0.26014 66.229713,66.229713 0 0 1 -0.2387,0.25848 66.229713,66.229713 0 0 1 -0.23999,0.25746 66.229713,66.229713 0 0 1 -0.24127,0.25644 66.229713,66.229713 0 0 1 -0.24286,0.25476 66.229713,66.229713 0 0 1 -0.24413,0.25375 66.229713,66.229713 0 0 1 -0.24525,0.25224 66.229713,66.229713 0 0 1 -0.24701,0.25105 66.229713,66.229713 0 0 1 -0.2481,0.24956 66.229713,66.229713 0 0 1 -0.24939,0.24853 66.229713,66.229713 0 0 1 -0.25097,0.24686 66.229713,66.229713 0 0 1 -0.25178,0.24602 66.229713,66.229713 0 0 1 -0.25336,0.24434 66.229713,66.229713 0 0 1 -0.25495,0.24266 66.229713,66.229713 0 0 1 -0.25575,0.24183 66.229713,66.229713 0 0 1 -0.25733,0.24015 66.229713,66.229713 0 0 1 -0.25861,0.23912 66.229713,66.229713 0 0 1 -0.25972,0.23763 66.229713,66.229713 0 0 1 -0.26083,0.23613 66.229713,66.229713 0 0 1 -0.2624,0.23444 66.229713,66.229713 0 0 1 -0.26321,0.23362 66.229713,66.229713 0 0 1 -0.26479,0.23193 66.229713,66.229713 0 0 1 -0.26589,0.23043 66.229713,66.229713 0 0 1 -0.26766,0.22923 66.229713,66.229713 0 0 1 -0.26828,0.22791 66.229713,66.229713 0 0 1 -0.26987,0.22624 66.229713,66.229713 0 0 1 -0.27049,0.22491 66.229713,66.229713 0 0 1 -0.27208,0.22323 66.229713,66.229713 0 0 1 -0.27335,0.22221 66.229713,66.229713 0 0 1 -0.27428,0.22023 66.229713,66.229713 0 0 1 -0.27556,0.21921 66.229713,66.229713 0 0 1 -0.27667,0.21772 66.229713,66.229713 0 0 1 -0.27808,0.21554 66.229713,66.229713 0 0 1 -0.27887,0.21471 66.229713,66.229713 0 0 1 -0.27997,0.21321 66.229713,66.229713 0 0 1 -0.28156,0.21152 66.229713,66.229713 0 0 1 -0.28219,0.21022 66.229713,66.229713 0 0 1 -0.28377,0.20852 66.229713,66.229713 0 0 1 -0.28438,0.2072 66.229713,66.229713 0 0 1 -0.2855,0.2057 66.229713,66.229713 0 0 1 -0.28708,0.20402 66.229713,66.229713 0 0 1 -0.2877,0.2027 66.229713,66.229713 0 0 1 -0.28928,0.20101 66.229713,66.229713 0 0 1 -0.28991,0.19969 66.229713,66.229713 0 0 1 -0.29083,0.19772 66.229713,66.229713 0 0 1 -0.29211,0.19669 66.229713,66.229713 0 0 1 -0.29352,0.19453 66.229713,66.229713 0 0 1 -0.29415,0.1932 66.229713,66.229713 0 0 1 -0.29524,0.1917 66.229713,66.229713 0 0 1 -0.29586,0.19037 66.229713,66.229713 0 0 1 -0.29745,0.18871 66.229713,66.229713 0 0 1 -0.29838,0.1867 66.229713,66.229713 0 0 1 -0.29899,0.18539 66.229713,66.229713 0 0 1 -0.3001,0.18389 66.229713,66.229713 0 0 1 -0.30121,0.18238 66.229713,66.229713 0 0 1 -0.30212,0.18039 66.229713,66.229713 0 0 1 -0.30324,0.17891 66.229713,66.229713 0 0 1 -0.30385,0.17756 66.229713,66.229713 0 0 1 -0.30543,0.1759 66.229713,66.229713 0 0 1 -0.30588,0.17407 66.229713,66.229713 0 0 1 -0.30699,0.17259 66.229713,66.229713 0 0 1 -0.30742,0.17077 66.229713,66.229713 0 0 1 -0.30852,0.16927 66.229713,66.229713 0 0 1 -0.30964,0.16777 66.229713,66.229713 0 0 1 -0.31056,0.16578 66.229713,66.229713 0 0 1 -0.31117,0.16445 66.229713,66.229713 0 0 1 -0.3121,0.16247 66.229713,66.229713 0 0 1 -0.3132,0.16097 66.229713,66.229713 0 0 1 -0.31365,0.15916 66.229713,66.229713 0 0 1 -0.31475,0.15766 66.229713,66.229713 0 0 1 -0.31585,0.15614 66.229713,66.229713 0 0 1 -0.3163,0.15435 66.229713,66.229713 0 0 1 -0.31721,0.15235 66.229713,66.229713 0 0 1 -0.31785,0.15103 66.229713,66.229713 0 0 1 -0.31893,0.14953 66.229713,66.229713 0 0 1 -0.31969,0.14706 66.229713,66.229713 0 0 1 -0.32049,0.14622 66.229713,66.229713 0 0 1 -0.32075,0.14393 66.229713,66.229713 0 0 1 -0.32233,0.14224 66.229713,66.229713 0 0 1 -0.32248,0.1411 66.229713,66.229713 0 0 1 -0.32322,0.13863 66.229713,66.229713 0 0 1 -0.32449,0.13761 66.229713,66.229713 0 0 1 -0.32478,0.13531 66.229713,66.229713 0 0 1 -0.32537,0.13398 66.229713,66.229713 0 0 1 -0.32631,0.13201 66.229713,66.229713 0 0 1 -0.32723,0.13002 66.229713,66.229713 0 0 1 -0.32737,0.12886 66.229713,66.229713 0 0 1 -0.328297,0.12688 66.229713,66.229713 0 0 1 -0.32922,0.12489 66.229713,66.229713 0 0 1 -0.32984,0.12357 66.229713,66.229713 0 0 1 -0.33028,0.12176 66.229713,66.229713 0 0 1 -0.33071,0.11994 66.229713,66.229713 0 0 1 -0.33166,0.11796 66.229713,66.229713 0 0 1 -0.33208,0.11615 66.229713,66.229713 0 0 1 -0.33319,0.11464 66.229713,66.229713 0 0 1 -0.33364,0.11284 66.229713,66.229713 0 0 1 -0.33407,0.11103 66.229713,66.229713 0 0 1 -0.33452,0.10922 66.229713,66.229713 0 0 1 -0.33495,0.10741 66.229713,66.229713 0 0 1 -0.33588,0.10541 66.229713,66.229713 0 0 1 -0.3365,0.1041 66.229713,66.229713 0 0 1 -0.33694,0.10229 66.229713,66.229713 0 0 1 -0.3372,0.1 66.229713,66.229713 0 0 1 -0.337827,0.0987 66.229713,66.229713 0 0 1 -0.33874,0.0967 66.229713,66.229713 0 0 1 -0.338707,0.095 66.229713,66.229713 0 0 1 -0.339627,0.0931 66.229713,66.229713 0 0 1 -0.34007,0.0912 66.229713,66.229713 0 0 1 -0.340027,0.0896 66.229713,66.229713 0 0 1 -0.340947,0.0876 66.229713,66.229713 0 0 1 -0.34139,0.0858 66.229713,66.229713 0 0 1 -0.341837,0.084 66.229713,66.229713 0 0 1 -0.342277,0.0822 66.229713,66.229713 0 0 1 -0.342718,0.0804 66.229713,66.229713 0 0 1 -0.343157,0.0786 66.229713,66.229713 0 0 1 -0.3436,0.0768 66.229713,66.229713 0 0 1 -0.34404,0.075 66.229713,66.229713 0 0 1 -0.343994,0.0733 66.229713,66.229713 0 0 1 -0.344924,0.0713 66.229713,66.229713 0 0 1 -0.345363,0.0695 66.229713,66.229713 0 0 1 -0.345142,0.0674 66.229713,66.229713 0 0 1 -0.34576,0.0661 66.229713,66.229713 0 0 1 -0.346022,0.0638 66.229713,66.229713 0 0 1 -0.346464,0.062 66.229713,66.229713 0 0 1 -0.346906,0.0602 66.229713,66.229713 0 0 1 -0.347346,0.0584 66.229713,66.229713 0 0 1 -0.347304,0.0567 66.229713,66.229713 0 0 1 -0.347742,0.0549 66.229713,66.229713 0 0 1 -0.348006,0.0526 66.229713,66.229713 0 0 1 -0.34814,0.0515 66.229713,66.229713 0 0 1 -0.348888,0.049 66.229713,66.229713 0 0 1 -0.348847,0.0474 66.229713,66.229713 0 0 1 -0.348621,0.0452 66.229713,66.229713 0 0 1 -0.349726,0.0437 66.229713,66.229713 0 0 1 -0.349506,0.0416 66.229713,66.229713 0 0 1 -0.349459,0.04 66.229713,66.229713 0 0 1 -0.34991,0.0382 66.229713,66.229713 0 0 1 -0.350159,0.0358 66.229713,66.229713 0 0 1 -0.350292,0.0347 66.229713,66.229713 0 0 1 -0.350383,0.0319 66.229713,66.229713 0 0 1 -0.351,0.0306 66.229713,66.229713 0 0 1 -0.350962,0.029 66.229713,66.229713 0 0 1 -0.350739,0.0269 66.229713,66.229713 0 0 1 -0.351185,0.0251 66.229713,66.229713 0 0 1 -0.350952,0.0229 66.229713,66.229713 0 0 1 -0.351391,0.0211 66.229713,66.229713 0 0 1 -0.351834,0.0193 66.229713,66.229713 0 0 1 -0.351308,0.0179 66.229713,66.229713 0 0 1 -0.351574,0.0156 66.229713,66.229713 0 0 1 -0.352017,0.0138 66.229713,66.229713 0 0 1 -0.351802,0.0117 66.229713,66.229713 0 0 1 -0.351741,0.01 66.229713,66.229713 0 0 1 -0.3517,0.008 66.229713,66.229713 0 0 1 -0.352141,0.007 66.229713,66.229713 0 0 1 -0.351925,0.004 66.229713,66.229713 0 0 1 -0.35219,0.002 66.229713,66.229713 0 0 1 -0.351649,6.5e-4 66.229713,66.229713 0 0 1 -0.35209,-10e-4 66.229713,66.229713 0 0 1 -0.352048,-0.003 66.229713,66.229713 0 0 1 -0.352316,-0.005 66.229713,66.229713 0 0 1 -0.351617,-0.007 66.229713,66.229713 0 0 1 -0.352054,-0.009 66.229713,66.229713 0 0 1 -0.352,-0.0105 66.229713,66.229713 0 0 1 -0.351297,-0.0124 66.229713,66.229713 0 0 1 -0.351738,-0.0142 66.229713,66.229713 0 0 1 -0.352181,-0.016 66.229713,66.229713 0 0 1 -0.351286,-0.0185 66.229713,66.229713 0 0 1 -0.351439,-0.0195 66.229713,66.229713 0 0 1 -0.351204,-0.0217 66.229713,66.229713 0 0 1 -0.07618,-0.005 66.229713,66.229713 0 0 0 16.499539,8.81768 66.229713,66.229713 0 0 0 84.887426,-39.58406 66.229713,66.229713 0 0 0 -20.92453,-74.417994 48.568408,48.568408 0 0 0 -18.18909,-11.760462 48.568408,48.568408 0 0 0 -0.0253,-0.0092 z" />
      <path
         id="path833"
         style="opacity:0.60241;mix-blend-mode:screen;fill:url(#linearGradient965);fill-opacity:1;stroke:none;stroke-width:11"
         d="m 131.43671,85.815711 a 48.568408,48.568408 0 0 0 -62.225759,29.037319 48.568408,48.568408 0 0 0 29.028127,62.251 48.568408,48.568408 0 0 0 26.172112,1.97809 66.229713,66.229713 0 0 1 -0.21716,0.25972 66.229713,66.229713 0 0 1 -0.22755,0.26859 66.229713,66.229713 0 0 1 -0.22864,0.26708 66.229713,66.229713 0 0 1 -0.23059,0.26639 66.229713,66.229713 0 0 1 -0.23168,0.26487 66.229713,66.229713 0 0 1 -0.23297,0.26386 66.229713,66.229713 0 0 1 -0.23474,0.26267 66.229713,66.229713 0 0 1 -0.23583,0.26117 66.229713,66.229713 0 0 1 -0.23713,0.26014 66.229713,66.229713 0 0 1 -0.2387,0.25848 66.229713,66.229713 0 0 1 -0.23999,0.25746 66.229713,66.229713 0 0 1 -0.24127,0.25644 66.229713,66.229713 0 0 1 -0.24286,0.25476 66.229713,66.229713 0 0 1 -0.24413,0.25375 66.229713,66.229713 0 0 1 -0.24525,0.25224 66.229713,66.229713 0 0 1 -0.24701,0.25105 66.229713,66.229713 0 0 1 -0.2481,0.24956 66.229713,66.229713 0 0 1 -0.24939,0.24853 66.229713,66.229713 0 0 1 -0.25097,0.24686 66.229713,66.229713 0 0 1 -0.25178,0.24602 66.229713,66.229713 0 0 1 -0.25336,0.24434 66.229713,66.229713 0 0 1 -0.25495,0.24266 66.229713,66.229713 0 0 1 -0.25575,0.24183 66.229713,66.229713 0 0 1 -0.25733,0.24015 66.229713,66.229713 0 0 1 -0.25861,0.23912 66.229713,66.229713 0 0 1 -0.25972,0.23763 66.229713,66.229713 0 0 1 -0.26083,0.23613 66.229713,66.229713 0 0 1 -0.2624,0.23444 66.229713,66.229713 0 0 1 -0.26321,0.23362 66.229713,66.229713 0 0 1 -0.26479,0.23193 66.229713,66.229713 0 0 1 -0.26589,0.23043 66.229713,66.229713 0 0 1 -0.26766,0.22923 66.229713,66.229713 0 0 1 -0.26828,0.22791 66.229713,66.229713 0 0 1 -0.26987,0.22624 66.229713,66.229713 0 0 1 -0.27049,0.22491 66.229713,66.229713 0 0 1 -0.27208,0.22323 66.229713,66.229713 0 0 1 -0.27335,0.22221 66.229713,66.229713 0 0 1 -0.27428,0.22023 66.229713,66.229713 0 0 1 -0.27556,0.21921 66.229713,66.229713 0 0 1 -0.27667,0.21772 66.229713,66.229713 0 0 1 -0.27808,0.21554 66.229713,66.229713 0 0 1 -0.27887,0.21471 66.229713,66.229713 0 0 1 -0.27997,0.21321 66.229713,66.229713 0 0 1 -0.28156,0.21152 66.229713,66.229713 0 0 1 -0.28219,0.21022 66.229713,66.229713 0 0 1 -0.28377,0.20852 66.229713,66.229713 0 0 1 -0.28438,0.2072 66.229713,66.229713 0 0 1 -0.2855,0.2057 66.229713,66.229713 0 0 1 -0.28708,0.20402 66.229713,66.229713 0 0 1 -0.2877,0.2027 66.229713,66.229713 0 0 1 -0.28928,0.20101 66.229713,66.229713 0 0 1 -0.28991,0.19969 66.229713,66.229713 0 0 1 -0.29083,0.19772 66.229713,66.229713 0 0 1 -0.29211,0.19669 66.229713,66.229713 0 0 1 -0.29352,0.19453 66.229713,66.229713 0 0 1 -0.29415,0.1932 66.229713,66.229713 0 0 1 -0.29524,0.1917 66.229713,66.229713 0 0 1 -0.29586,0.19037 66.229713,66.229713 0 0 1 -0.29745,0.18871 66.229713,66.229713 0 0 1 -0.29838,0.1867 66.229713,66.229713 0 0 1 -0.29899,0.18539 66.229713,66.229713 0 0 1 -0.3001,0.18389 66.229713,66.229713 0 0 1 -0.30121,0.18238 66.229713,66.229713 0 0 1 -0.30212,0.18039 66.229713,66.229713 0 0 1 -0.30324,0.17891 66.229713,66.229713 0 0 1 -0.30385,0.17756 66.229713,66.229713 0 0 1 -0.30543,0.1759 66.229713,66.229713 0 0 1 -0.30588,0.17407 66.229713,66.229713 0 0 1 -0.30699,0.17259 66.229713,66.229713 0 0 1 -0.30742,0.17077 66.229713,66.229713 0 0 1 -0.30852,0.16927 66.229713,66.229713 0 0 1 -0.30964,0.16777 66.229713,66.229713 0 0 1 -0.31056,0.16578 66.229713,66.229713 0 0 1 -0.31117,0.16445 66.229713,66.229713 0 0 1 -0.3121,0.16247 66.229713,66.229713 0 0 1 -0.3132,0.16097 66.229713,66.229713 0 0 1 -0.31365,0.15916 66.229713,66.229713 0 0 1 -0.31475,0.15766 66.229713,66.229713 0 0 1 -0.31585,0.15614 66.229713,66.229713 0 0 1 -0.3163,0.15435 66.229713,66.229713 0 0 1 -0.31721,0.15235 66.229713,66.229713 0 0 1 -0.31785,0.15103 66.229713,66.229713 0 0 1 -0.31893,0.14953 66.229713,66.229713 0 0 1 -0.31969,0.14706 66.229713,66.229713 0 0 1 -0.32049,0.14622 66.229713,66.229713 0 0 1 -0.32075,0.14393 66.229713,66.229713 0 0 1 -0.32233,0.14224 66.229713,66.229713 0 0 1 -0.322472,0.1411 66.229713,66.229713 0 0 1 -0.323223,0.13863 66.229713,66.229713 0 0 1 -0.324496,0.13761 66.229713,66.229713 0 0 1 -0.324771,0.13531 66.229713,66.229713 0 0 1 -0.325379,0.13398 66.229713,66.229713 0 0 1 -0.326309,0.13201 66.229713,66.229713 0 0 1 -0.32723,0.13002 66.229713,66.229713 0 0 1 -0.32737,0.12886 66.229713,66.229713 0 0 1 -0.3283,0.12688 66.229713,66.229713 0 0 1 -0.329218,0.12489 66.229713,66.229713 0 0 1 -0.329839,0.12357 66.229713,66.229713 0 0 1 -0.330281,0.12176 66.229713,66.229713 0 0 1 -0.330712,0.11994 66.229713,66.229713 0 0 1 -0.331652,0.11796 66.229713,66.229713 0 0 1 -0.332084,0.11615 66.229713,66.229713 0 0 1 -0.33319,0.11464 66.229713,66.229713 0 0 1 -0.333633,0.11284 66.229713,66.229713 0 0 1 -0.334075,0.11103 66.229713,66.229713 0 0 1 -0.334518,0.10922 66.229713,66.229713 0 0 1 -0.33495,0.10741 66.229713,66.229713 0 0 1 -0.335878,0.10541 66.229713,66.229713 0 0 1 -0.336499,0.1041 66.229713,66.229713 0 0 1 -0.33694,0.10229 66.229713,66.229713 0 0 1 -0.337205,0.1 66.229713,66.229713 0 0 1 -0.337826,0.0987 66.229713,66.229713 0 0 1 -0.338744,0.0967 66.229713,66.229713 0 0 1 -0.33871,0.095 66.229713,66.229713 0 0 1 -0.339629,0.0931 66.229713,66.229713 0 0 1 -0.34007,0.0912 66.229713,66.229713 0 0 1 -0.340026,0.0896 66.229713,66.229713 0 0 1 -0.340953,0.0876 66.229713,66.229713 0 0 1 -0.341396,0.0858 66.229713,66.229713 0 0 1 -0.341833,0.084 66.229713,66.229713 0 0 1 -0.342277,0.0822 66.229713,66.229713 0 0 1 -0.342718,0.0804 66.229713,66.229713 0 0 1 -0.343157,0.0786 66.229713,66.229713 0 0 1 -0.3436,0.0768 66.229713,66.229713 0 0 1 -0.34404,0.075 66.229713,66.229713 0 0 1 -0.343994,0.0733 66.229713,66.229713 0 0 1 -0.344924,0.0713 66.229713,66.229713 0 0 1 -0.345363,0.0695 66.229713,66.229713 0 0 1 -0.345142,0.0674 66.229713,66.229713 0 0 1 -0.34576,0.0661 66.229713,66.229713 0 0 1 -0.346022,0.0638 66.229713,66.229713 0 0 1 -0.346464,0.062 66.229713,66.229713 0 0 1 -0.346906,0.0602 66.229713,66.229713 0 0 1 -0.347346,0.0584 66.229713,66.229713 0 0 1 -0.347304,0.0567 66.229713,66.229713 0 0 1 -0.347742,0.0549 66.229713,66.229713 0 0 1 -0.348006,0.0526 66.229713,66.229713 0 0 1 -0.34814,0.0515 66.229713,66.229713 0 0 1 -0.348888,0.049 66.229713,66.229713 0 0 1 -0.348847,0.0474 66.229713,66.229713 0 0 1 -0.348621,0.0452 66.229713,66.229713 0 0 1 -0.349726,0.0437 66.229713,66.229713 0 0 1 -0.349506,0.0416 66.229713,66.229713 0 0 1 -0.349459,0.04 66.229713,66.229713 0 0 1 -0.34991,0.0382 66.229713,66.229713 0 0 1 -0.350159,0.0358 66.229713,66.229713 0 0 1 -0.350292,0.0347 66.229713,66.229713 0 0 1 -0.350383,0.0319 66.229713,66.229713 0 0 1 -0.351,0.0306 66.229713,66.229713 0 0 1 -0.350962,0.029 66.229713,66.229713 0 0 1 -0.350739,0.0269 66.229713,66.229713 0 0 1 -0.351185,0.0251 66.229713,66.229713 0 0 1 -0.350952,0.0229 66.229713,66.229713 0 0 1 -0.351391,0.0211 66.229713,66.229713 0 0 1 -0.351834,0.0193 66.229713,66.229713 0 0 1 -0.351308,0.0179 66.229713,66.229713 0 0 1 -0.351574,0.0156 66.229713,66.229713 0 0 1 -0.352017,0.0138 66.229713,66.229713 0 0 1 -0.351802,0.0117 66.229713,66.229713 0 0 1 -0.351741,0.01 66.229713,66.229713 0 0 1 -0.3517,0.008 66.229713,66.229713 0 0 1 -0.352141,0.007 66.229713,66.229713 0 0 1 -0.351925,0.004 66.229713,66.229713 0 0 1 -0.35219,0.002 66.229713,66.229713 0 0 1 -0.351649,6.5e-4 66.229713,66.229713 0 0 1 -0.35209,-0.001 66.229713,66.229713 0 0 1 -0.352048,-0.003 66.229713,66.229713 0 0 1 -0.352316,-0.005 66.229713,66.229713 0 0 1 -0.351617,-0.007 66.229713,66.229713 0 0 1 -0.352054,-0.009 66.229713,66.229713 0 0 1 -0.352,-0.0105 66.229713,66.229713 0 0 1 -0.351297,-0.0124 66.229713,66.229713 0 0 1 -0.351738,-0.0142 66.229713,66.229713 0 0 1 -0.352181,-0.016 66.229713,66.229713 0 0 1 -0.351286,-0.0185 66.229713,66.229713 0 0 1 -0.351439,-0.0195 66.229713,66.229713 0 0 1 -0.351204,-0.0217 66.229713,66.229713 0 0 1 -0.07618,-0.005 66.229713,66.229713 0 0 0 16.499539,8.81768 66.229713,66.229713 0 0 0 84.887438,-39.58406 66.229713,66.229713 0 0 0 -20.92453,-74.418 48.568408,48.568408 0 0 0 -18.18909,-11.760474 48.568408,48.568408 0 0 0 -0.0253,-0.0092 z" />
    </g>
  </g>
</svg>
